<svg xmlns="http://www.w3.org/2000/svg" xml:space="preserve" width="800" height="580">
  <path fill="#93bce6" d="m 202.2,8.5 c -6.9,2.2 -11,9.2 -9.1,13.6 0.7,1.5 3.2,3.4 4.5,3.1 4.7,-0.6 11.2,-9.8 9.5,-13.2 -1,-1.9 -3.8,-2.8 -4.8,-3.5 z m -29.4,4.8 c -1.3,0 -2.7,0.4 -4.2,1 -4.7,1.7 -6.8,7 -5,12.3 1.7,4.8 6.2,7.2 10.9,5.6 3,-1 7.5,-9.3 6.5,-12.2 h 0.1 c -1.5,-4.4 -4.4,-6.7 -8.3,-6.7 z m 42.5,10.8 c -0.4,0 -0.8,0 -1,0.2 -0.8,0.7 -11.8,5.6 -11.6,11.3 2.4,4 10.2,1.3 15,1.2 1.4,0 4,-2.3 4,-3.5 0,-2.7 -1,-5.6 -2.5,-7.9 -0.5,-0.8 -2.5,-1.4 -3.9,-1.3 z m 30,17.7 c -2,0 -4.4,0.5 -7.1,1.5 -4.9,1.6 -5.4,5 -4,8.7 3.4,10.4 9.6,13.4 19.2,9 2,-1.7 1.1,-5.1 1.1,-6.9 0,-8.5 -3,-12.5 -9.2,-12.3 z m -78,1.4 c -2.1,0 -4.3,0.2 -6.3,0.9 -2.9,0.8 -7.1,4.7 -6.5,8.1 0.5,3 3.6,4.1 6,4.9 3.3,1.1 5.5,1.8 9.9,1.2 5.3,-3.1 4.9,-7 6.4,-10.3 0.4,-0.8 -2,-4.2 -2.7,-4.3 -2.2,-0.3 -4.5,-0.5 -6.7,-0.5 z m 108.4,3.3 c -8,0.8 -13.2,7.8 -12,17 0.5,3.4 2.1,7.6 7.8,5.8 10.7,-1 15,-4.7 14.6,-12.6 -0.2,-3.9 -2.8,-10.9 -10.4,-10.2 z m -65,0.1 c -7,0.3 -30.6,9.2 -31,10.7 -1,1.4 0.3,1.5 0.5,2.1 8.5,3.7 27.4,-0.4 32.4,-12.4 -0.2,-0.3 -0.9,-0.4 -1.9,-0.4 z m 8,11.4 c -4.2,2.5 -10.2,4 -12.2,7.5 -2.9,5.5 0.4,11.6 4.6,16.2 4.1,4.5 8.9,3.1 13.5,0.4 2.7,-1.6 5.4,-3 8.3,-4 4.8,-2 4.4,-5.6 2.4,-9.1 -3.4,-6 -6.5,-10 -16.7,-11 z m -46.5,14.7 c -5.7,0.2 -9.1,4 -9.8,12 -0.3,2.8 0.6,7.2 2.4,8.4 3,1.7 7.2,1.4 10.8,1.9 5,0 8.1,-4 8.9,-11.2 0.6,-5.8 -3.7,-10.3 -10.5,-11 h -1.8 z m 106.7,4.2 c -6.5,0 -10,4.4 -14,8.1 -3.8,3.6 -3.8,7.5 0.6,10.3 2.4,1.4 5,2.7 7.6,3.7 6.2,2.3 11.1,-1 14.2,-5.3 2.152,-3.6085 2.799,-7.9188 1.8,-12 -0.6,-2.3 -5.8,-3.2 -9,-4.8 h 0.1 z M 232.5,93 c -2,3.2 -1,5 2.7,5 6,0.2 12.1,0 18.4,0 0.8,-5 -1.2,-8.6 -4,-11 -3.6,-3 -8.8,-4.1 -10.1,-3.8 -1.9,0.6 -4.5,6 -7,9.8 z m -94,-3 c -1.2,0 -2.5,0 -3.7,0.2 -5.6,0.7 -11.7,3 -12.2,9 -0.3,3.5 3,8.4 6.1,11.3 4.7,4.3 10.2,5.3 17.3,4.1 8.5,-1.4 9,-8 12.5,-13.2 -6.5,-8.2 -12,-11.5 -20,-11.5 z m 49.5,20.2 c 4.2,-1.3 8.7,-2 12,-4.2 2.8,-1.8 3.5,-9.8 3.5,-9.8 -3.7,-2.8 -7.8,-2.5 -12.7,1.7 -3.5,3 -3.5,8.2 -2.8,12.3 z m -32.4,11.6 c -4.3,0 -8.3,2 -12.2,3.7 -3.2,1.4 -6.4,4.6 -3.9,8 1.5,2 6.6,3.6 8.7,2.6 5.8,-2.7 11,-6.9 17,-11 -2.767,-2.094 -6.13,-3.25 -9.6,-3.3 z m 9.6,3.4 z M 580.7,388 c -2.8,0 -5.7,0.9 -7.4,2.8 -2.5,2.7 -4.5,5.8 -6.4,8.4 3.5,5.2 3.6,14 10.3,15.5 4.9,-0.5 6,-7.2 9,-10 4.8,-4.2 5.8,-10.2 2,-14.1 -2.058,-1.824 -4.755,-2.759 -7.5,-2.6 z m 25.8,16.3 c -8.8,0.3 -19.4,10.7 -19.3,19.5 16.4,4.9 20.6,0.5 26.6,-5.9 1.7,-1.7 3,-5.5 2.1,-7.3 -1.368,-2.833 -3.819,-4.995 -6.8,-6 -0.8,-0.2 -1.7,-0.3 -2.6,-0.3 z m -46,4.5 c -4.2,5 -20.3,15.4 -13,15.4 h 12.2 c -0.5,-5.2 11.6,-8.9 0.9,-15.4 z m -4.3,25 c -9,-0.2 -16.6,7 -16.8,16 -0.1,4 7.5,11.7 11.8,11.7 5.3,0.1 14.2,-10.4 14.3,-17 0.1,-4.5 -5.3,-10.7 -9.3,-10.7 z m 30.8,2.7 h -0.5 c -3.2,0.6 -8,3.8 -8.6,6.5 -1.4,6.2 8,14.7 14.6,14.7 5.2,0 9,-3.6 8.9,-8.3 -0.2,-4.2 -9.3,-13 -14.4,-12.9 z m 47.6,18 c -1.9,0 -4,0.7 -5.8,2 -1.9,1.2 -4,3.6 -3.2,6.9 4.1,2.2 6,1.9 7.6,1.6 2.8,-0.6 7.6,-1.5 8.5,-4.9 -0.638,-3.335 -3.607,-5.71 -7,-5.6 z m 25.2,2 c -3.9,0 -6.8,2.7 -6.1,6.6 0.7,3.4 1.8,8.2 5.7,9.2 5.2,-0.6 12.6,-8.6 11.6,-10.1 -0.1,-1 -0.4,-2.6 -1,-2.3 -3.2,-1.2 -6.2,-3 -9.4,-3.3 h -0.8 z m -94.5,6.1 c -6.3,7 -13.8,9 -22.5,5.7 -1.2,3.9 -1.9,6.7 -0.2,9 2.5,3.3 7.6,5.2 10.1,6.9 4.5,-3 9.4,-4.6 11.4,-8 4.8,-7.7 4.2,-8.6 1.2,-13.6 z m 116.6,0.9 -2,0.1 c -2.4,0.4 -6.4,3 -7,6.7 4.6,13.9 18,-0.8 17.6,-3.3 -1.4,-2.8 -5.5,-3.5 -8.6,-3.5 z m -91.4,1.2 c -11.6,1.2 -15,4.6 -16.9,13.3 -1.1,5.3 1.9,8.1 6.9,6.2 4.4,-1.6 9.2,-3.2 12.8,-6 1.3,-1.2 6.8,-4 5.4,-9.8 z m 76.6,12.7 c -1,0 -3.2,0.6 -4.6,1.1 -2.6,1.9 -3,2.4 -5,4.7 -1,6.7 3.3,6.8 5.3,7.8 0.3,0.2 3.6,1.3 4,1.3 3.3,0.2 4.8,-1 7.6,-3 1.5,-1 2.9,-4.2 2.7,-6 -2.7,-3.2 -4.2,-3.8 -7,-5.2 -0.7,-0.3 -2.1,-0.7 -3,-0.7 z M 534,482.9 c -1.912,0.113 -3.752,0.772 -5.3,1.9 -4.6,3 -7,8 -5.4,13 1,3 3.6,7.8 8.6,8 8.2,0 8.3,-3.4 12.6,-6 4.3,-2.7 3.5,-7 -1.2,-9.5 -2,-1.1 -2,-2.7 -3.5,-4.4 -1.353,-1.857 -3.502,-2.969 -5.8,-3 z m 63.8,3.4 h -0.6 v 0.1 l -16.1,6 c -6.7,2.5 -7.5,5.4 -3,10.7 4.5,5.3 10.6,7.7 16.8,6.3 4.3,-1 9.6,-4.5 11.4,-8.2 2.455,-4.943 0.441,-10.94 -4.5,-13.4 -1.2,-0.6 -5.3,-1.3 -4,-1.5 z m 43.6,2 c -0.333,-0.02 -0.667,-0.02 -1,0 -1,0.1 -2.2,0.5 -3.5,1 -2.4,7.6 2,11.5 6,14.8 2,1.6 6,2 8.5,1 1.4,-0.6 2.8,-3.4 3,-5.5 v -1.4 c -0.4,-2.2 -2.3,-5.7 -4.6,-6.7 -2.7,-1.2 -5,-3.2 -8.4,-3.2 z m -4.5,1 z m -80.2,16.5 c -4.6,-0.1 -9.1,6.8 -9.5,14.1 -0.3,4.5 5.2,10.9 9.5,11 8.3,0.3 18,-6.5 18.2,-14.5 -1,-1.8 -2.2,-6 -5,-7.7 -3.5,-2.1 -8.4,-2.3 -12.8,-2.9 z"/>
  <path fill="#88d5b8" d="m 664.6,16.5 c -3,0.2 -6.3,3 -11.8,8 l -3.3,3.1 c -12.845,12.717 -20.959,29.4405 -23,47.4 -0.2,1.9 0.8,4.4 2,5.9 4.2,4.7 8.6,9.2 13,13.8 1.7,1.8 3.6,3.3 6.4,6 0.8,-14.1 -1.2,-26.9 4,-39 5.7,4.4 5.8,7.2 5.3,14 -0.8,10.4 -0.2,20.9 -0.2,31.2 8.2,-5.5 16.2,-11.5 24.9,-16.2 4.4,-2.3 6.5,-4.9 7.8,-9.4 3.491,-11.3679 2.781,-23.6116 -2,-34.5 -2.796,-6.3635 -6.283,-12.3998 -10.4,-18 -5.9,-8.6 -9,-12.6 -12.7,-12.3 z M 657,106.9 Z M 197.9,67.4 Z m 0,0 c -1.2,0.4 -7.4,0.1 -8.4,0.5 2.5,7.4 9.6,17.5 14.3,19.6 -5.5,-17.5 -4.3,-18 -6,-20 z m -120.3,5 c -0.6788,-0.0139 -1.3551,0.0876 -2,0.3 -0.7,0 -1.2,0.3 -1.6,0.6 -0.7,0.5 -1.3,1.1 -1.8,1.9 -0.5,0.8 -1,1.7 -1.4,2.7 -1.6313,5.7572 -2.4393,11.7163 -2.4,17.7 0.1,1 0.9,4.5 2,9 4,-0.1 8.1,0.2 12.3,1.2 15.4591,3.372 26.733,16.696 27.5,32.5 1,10.1 3.5,20.1 5.3,29.9 1,0.1 1.1,0.3 1.3,0.3 12.3,0.3 15.5,-9 20.5,-16.7 -12.9,-14.4 -36.2,-41.2 -39.1,-49.1 -2.7,-7.2 17.6,14.3 32.2,30.2 0.1,-2.6 0.9,-5.5 2.4,-9 -10.8,-8 -25,-14.7 -16,-32.4 l 0.7,-1 -1,-0.7 c -6.4,-4 -13,-8 -16.6,-9.9 -5.3624,-2.7624 -10.9912,-4.9737 -16.8,-6.6 -1.7962,-0.4788 -3.6419,-0.7472 -5.5,-0.8 z m 245.1,6 H 320 c -0.7,0.1 -4.2,1 -8.2,2.2 l -0.5,0.2 -6,2 c -2,1 -3.9,1.8 -5.3,2.7 0.3,5.5 -2.5,10.5 -8.5,15.8 -0.6,0.6 -1,1.4 -2.3,2.8 l 31,14.1 0.3,-0.5 c 3,-5 8.8,-14.8 10.6,-18.4 l 1.8,-4 c 1.318,-3.2479 2.258,-6.6369 2.8,-10.1 v -2 c -0.096,-0.5356 -0.3,-1.046 -0.6,-1.5 -0.585,-0.7123 -1.342,-1.2631 -2.2,-1.6 -3.27,-1.1868 -6.721,-1.7959 -10.2,-1.8 z m 421.2,0.7 c -8,0 -15.9,1.8 -23.7,3.6 -19.3,4.3 -35,15.7 -50.6,26.8 -3.6,2.6 -7.7,7.6 -7.6,11.4 0.3,7.2 3.5,14.2 5.4,21 9.3,-8.8 18.2,-17.9 28,-26 4.6,-3.8 10.8,-6 16.3,-8.8 1,-0.4 2.6,0.3 3.8,0.6 -0.3,1.5 -0.2,3.6 -1.2,4.5 -8,6.8 -16.5,13 -24.2,20.2 -7.5,7 -14.3,14.8 -21.3,22.2 l 26,17.6 c 40.9,-15.8 60.7,-47 63.8,-90.6 -5,-1.8 -9.9,-2.5 -14.7,-2.5 z m -532.6,10.1 3,13 8.8,-2.8 c -0.2,-2.3 -1.2,-6.8 -1.4,-8.9 -3.2,0 -5.4,3 -10.4,-1.3 z m 526.6,70 c -3.6,0.1 -6.3,1.8 -9.6,4.3 -8.5,6.3 -17.8,11.7 -27.4,18 1.3,0.7 3.2,2.6 5.4,3 10,1.6 19.9,2.4 29.7,4.3 4.8,0.9 9.2,3.6 13.7,5.5 l -0.8,2.9 -40.3,-3.2 c 2.2,5.3 4.8,9.7 5.8,14.4 1.8,8.2 7.9,11.5 14.3,11.8 10.7,0.4 21.9,0.3 32,-2.6 10.7,-3.1 20.4,-9.8 31,-15.1 -1.6,-3.8 -1.9,-5.6 -3,-6.9 -12.3,-15.3 -26,-28.6 -45.4,-35.4 -2,-0.7 -3.8,-1 -5.4,-1 z m 53.8,43.3 z m -661,211 c -1.2,0 -2.6,0.5 -3.4,1 -16.3,11.4 -22.6,28.4 -25.7,47 -0.2,1.1 0.7,3.1 1.7,3.7 18.8,10.9 38.3,17.7 59.6,6.9 2.6,-1.3 4.6,-4.5 6,-7.2 1.8,-3.9 2.8,-8.2 4.2,-12.3 l 2.6,-9.2 c -15.2,4.8 -28.7,11.8 -44.3,10.7 16,-12.8 38,-14 53.3,-26.7 -11.4,-2.4 -22.7,-4.3 -33.8,-7 -6.6,-1.7 -12.8,-4.6 -19.2,-6.7 l -1,-0.1 z m 101,8.5 c -8.4,0.7 -16.7,2.2 -25,2 -7.4,-0.1 -11.1,4 -13.8,9.4 -5.6,11 -11,22.2 -15.5,33.7 -3,8 -4.6,16.7 -6.2,25.2 -2.881,17.656 -3.318,35.625 -1.3,53.4 0.8,8.1 2.3,16.1 3.4,24.4 20,-5.8 37,-12.8 51.3,-25.7 16.6,-15 30.2,-31.6 36.6,-53.5 4.6,-15.7 9.3,-31.4 8.3,-48 -0.2,-3.6 -1.7,-8 -4.2,-10.2 -4.5,-3.7 -10,-6 -15.4,-8.6 -3.5,-1.8 -6.4,-1.4 -6.8,3.6 -0.23,1.918 -0.7,3.8 -1.4,5.6 -7.6,21 -15.2,42.2 -23.3,63 -2.3,5.7 -4,12.7 -13.1,14.1 h -0.1 l 32,-87.4 c -2.7,-0.5 -4.2,-1 -5.6,-1 z m 47,17.4 -2.3,1.9 c 2.7,6.5 5.1,13 8,19.3 7,15.5 12,31.4 13.2,48.4 0.2,3.1 1.5,7.6 -3.7,7.4 l -15.5,-49.9 v -0.1 l -2.2,0.3 c -2.2,8.3 -4.2,16.7 -6.6,25 -3,10.2 -5.3,20.8 -12.8,29 -2.4,2.7 -1.7,5.7 0.8,8.1 4.3,4 8.4,8.6 13.3,11.9 8.992,5.778 18.198,11.216 27.6,16.3 2.8,1.6 5.8,1.4 7.5,-2.6 2.6,-6.2 5.7,-12.2 8.5,-18.3 8.869,-17.778 12.212,-37.805 9.6,-57.5 -1,-6.6 -2.7,-15.5 -7.4,-18.8 -11.7,-8.2 -25.2,-13.8 -38,-20.4 z m 242,12.1 c 3.5,5.9 6.6,12.3 9.8,17.6 l 0.1,-0.2 c 3.3,-3.6 6.8,-10.8 5.8,-13.6 -1.6,-4.4 -8.9,-1.4 -15.8,-3.8 z m 86.8,13.9 h -0.1 z m 0,0 -1.4,1.8 c 1.5,1.5 2.7,3.8 4.5,4.3 4.6,1.5 9.5,2.8 14.3,3.2 4.8,0.4 9.8,-0.4 9.3,6 9.8,0.7 24.5,3.4 11.7,-14.4 0,-0.9 -8.5,3.6 -8.4,2.7 -9.8,3 -29.7,-3.5 -30,-3.6 z"/>
  <path fill="#ffe8cc" d="m 75.7,113.5 c -3.5,0 -7,0.7 -10.6,1.2 -15.8,2 -29,10.1 -41.3,19.6 -3.5,2.6 -7.4,5.2 -9.7,8.7 -7.71724,12.673 -4.20809,29.166 8,37.6 12.0964,8.204 27.0914,10.927 41.3,7.5 -0.4,-1.5 -0.4,-2.7 -1,-3.5 L 42,155.1 c -6,-8.7 -5.8,-14.7 1.8,-22.2 3.4,-3.4 7.5,-6 11.3,-8.9 3.4,-2.5 6.2,-1.6 8.2,1.8 4,7 7.7,14 11.8,21.5 v -0.1 c 3,-1 6.1,-1.5 8.7,-3 5.5,-2.9 10.6,-6.4 11.4,-13.4 0.8,-7 -2.7,-11 -8.7,-14.6 -3.2634,-1.925 -7.0147,-2.863 -10.8,-2.7 z m -19.7,18.8 -7.6,9 c 3.5,7.6 9,8.1 16,7 l -5.8,-15.2 c -0.8741,-0.242 -1.7411,-0.509 -2.6,-0.8 z m 56.3,95.2 h -0.2 c -16.1454,1.888 -31.3081,8.736 -43.4,19.6 -2,2 -2.8,5.8 -3,8.8 -0.7,12.3 9.6,16.6 17.3,22 12.8,9.2 28.1,12 44.3,14.6 -0.3,-1.7 -0.2,-2.6 -0.5,-3.4 -9.4,-18.4 -10,-38.3 -10.7,-58.4 0,-1 -2.4,-3 -3.8,-3.2 z m 15,65 z m 531,-16.2 c -4.1,0 -8.3,0.2 -12.5,0.4 -2,0 -4.7,3.1 -5.4,5.3 -5.539,19.537 -14.586,37.902 -26.7,54.2 -3.7,4.8 -7,10 -10.5,15.2 5.4,0.4 9.8,1.4 13.9,0.8 11.2,-1.8 22.4,-3.6 33.3,-6.6 23,-6.2 45,-14.4 63.1,-31.1 7.1,-6.7 10.4,-17.3 -1.5,-23.4 -5.7,-2.8 -11,-6.3 -16.8,-8.8 -11.704,-4.582 -24.247,-6.627 -36.8,-6 z m 14.1,106.6 c -1.6,0 -3.1,0 -4.6,0.4 -1.2,0.3 -2.6,2.8 -2.6,4.2 0.3,8.7 1.5,17.5 1.5,26.3 0.1,13.1 -13,24.5 -26.1,23.1 -7,-0.7 -7.8,-2.2 -6.2,-9.4 1.1,-4.8 1.6,-9.8 2.5,-16.1 -3.5,1.2 -6,1.3 -7.4,2.7 -5.2,5.5 -10.6,11 -15.1,17 -4.6,6.2 0.5,11 3.7,15.8 2.9,4.4 6.6,1.6 10,0.7 7.8,-2 14.4,0.2 19.7,5.6 4.7,-2 9.6,-6.1 13.7,-5.5 10.1,1.5 17.1,-3.2 24.5,-8.2 13.037,-7.839 18.459,-23.98 12.8,-38.1 -4.478,-10.756 -14.761,-17.963 -26.4,-18.5 z m -24.6,70.3 z m 0,-44.7 c -3.3,0.1 -3,3.8 -3.3,6.2 -0.6,4.3 -0.5,8.7 -0.8,13.5 h 0.1 c 2,-0.4 4.1,-0.4 5.8,-1.3 4.8,-2.2 8.3,-5.5 8,-11.4 -0.2,-5.8 -5,-6.2 -8.8,-6.9 h -1 z"/>
  <path fill="#dc3137" d="m 547.1,55.3 c -20.2,-0.7 -39.8,3.2 -58.7,11.6 -20.8,9.3 -37.6,24.8 -53,41.8 -16.7,18.3 -29,39 -37.7,62.2 -1,2.5 -3.1,6.8 -4,6.6 -3,-0.7 -6.5,-2.2 -8.1,-4.6 -10.2,-14.2 -24.9,-23.2 -39,-32 -17.889,-10.786 -36.616,-20.116 -56,-27.9 -11.5,-4.229 -23.566,-6.723 -35.8,-7.4 -22,-2 -42.2,6.3 -62.7,12.7 -4.4,1.4 -9,3.7 -12.4,6.7 -11.1,9.8 -22.5,19.4 -32.4,30.2 -6.235,7.177 -11.145,15.405 -14.5,24.3 -7.8,20 -9,41 -7.2,62.5 1.4,16.4 3.7,32.4 11,47.3 1,2 4.2,4.2 6.3,4.3 6.3,0.2 12.7,-0.5 19,-1 26.4,-2.3 52,-8.2 77.2,-16.2 11.6,-3.7 23.2,-7.4 34.7,-11.5 18.9,-6.7 37.4,-14.9 56.6,-20.7 26,-7.9 52.4,-14.6 77,-26.4 19.5,-9.4 38.8,-19.5 58,-29.9 25.4,-13.8 50.8,-28 79.4,-34.6 14,-3.2 28,-7.5 42.2,-8.3 23.7,-1.2 47.6,-2 70.8,5.4 L 660,149 c -1.9,-7.5 -2,-16 -6,-22.3 -6.611,-10.969 -14.426,-21.165 -23.3,-30.4 -17.6,-18.2 -36.6,-34.1 -63.1,-38.9 -6.773,-1.1956 -13.625,-1.8974 -20.5,-2.1 z m 85.7,222.4 c -3.4,0.4 -6.9,0.6 -10.2,1.2 -7.3,1.4 -14.6,2.6 -21.8,4.5 -13.3,3.3 -27.1,5.5 -39.4,11 -15.2,6.8 -28.9,17 -43.5,25 -31.192,17.1 -63.123,32.815 -95.7,47.1 -19.3,8.4 -39.5,14.8 -58.2,24.3 -22.762,11.601 -47.241,19.468 -72.5,23.3 -9.9,1.3 -19.5,4 -29.3,6.2 v 1.5 l 17.1,9 c 13.6,7.1 27.1,14.5 40.8,21.7 7.8,4.1 15.7,8 23.7,12 18.8,9.4 37.4,19.2 56.5,28 12.5,5.8 25.5,10.1 38.3,14.9 1.8,0.6 4.4,0.4 6,-0.4 3.3,-1.7 6.4,-3.8 9.2,-6.2 17.5,-15 35.2,-30 52.1,-45.7 9.9,-9 18.4,-19.5 27.3,-29.7 12,-14 24.2,-27.8 35.6,-42.4 10.135,-13.33 19.807,-27.004 29,-41 9,-13.2 17.8,-26.5 25.6,-40.4 4.1,-7.1 6.2,-15.5 9.4,-23.9 z"/>
  <path fill="#ffe8cc" d="m 102.7,142 c -7.5,4.4 -14.2,9.3 -21.7,12.1 -7.6,2.9 -15.9,3.6 -25.1,5.5 6.4,7.5 9.5,17.4 18.8,22.5 1.8,1 4.5,1.6 6.3,1 8,-2.9 15.8,-6 23.6,-9.5 1.3,-0.6 2.5,-3.5 2.2,-5 -1.1,-9.3 -2.8,-18.5 -4,-26.6 z M 56,159.6 v -0.1 z M 596,154 c -24.132,-0.214 -48.02,4.837 -70,14.8 -20.8,9.4 -41,20.4 -61.4,30.9 -16.8,8.6 -33.2,18 -50.3,26 -19.9,9.1 -40.3,11.5 -60.6,20 l -36.2,11.8 c -17.3,5.7 -34.1,12.7 -51.4,19 -24.8,9 -50.3,15.5 -76.3,20.4 -12.8,2.3 -25.4,5.4 -38.4,5.8 -18.1,0.7 -36,-1.6 -53.3,-7 -11.3528,-2.746 -21.6679,-8.72 -29.7,-17.2 -3.2,-3.7 -6.3,-7.6 -9.4,-11.4 l -2.8,1.4 c -1.2,6.3 -3.2,12.6 -3.4,19 -0.3,9 0.6,18 1.2,27 1,15.4 5,30.3 11.2,44.4 1.3,2.9 2.5,6.2 4.9,8 22,17.6 46.4,31 72.6,41.5 17.019,7.257 35.581,10.144 54,8.4 15.9,-1.8 31.7,-5.6 48,-3.2 0.7,0 1.7,-0.5 2.5,-0.7 7.1,-1.7 14.2,-3.8 21.4,-5 10.5,-2 21.3,-2.8 31.8,-5 11.7,-2.3 23.6,-4.6 34.6,-9 24,-9.7 47.3,-20.8 71,-31.3 21.6,-9.7 43.5,-19.1 65.1,-29 11,-5 22,-10.2 32.6,-16.1 16.6,-9.3 32.2,-20.5 49.3,-28.5 13.6,-6.4 28.8,-9.9 43.6,-13.6 11.226,-2.642 22.619,-4.513 34.1,-5.6 10.2,-1 20.4,-0.8 30.6,-1.4 15,-0.8 29.5,1.3 42.9,8.8 5.2,2.8 10.8,5 16.7,7.8 2,-13.6 1.3,-26.1 -3.3,-38.4 -5,-13.9 -9.6,-28 -15,-41.7 -6.5,-17 -16,-31.7 -33.8,-39 -2.8,-1.2 -6,-2 -8.8,-3.3 -4,-1.8 -7.6,-5.3 -11.6,-5.6 -17.42,-1.694 -34.9,-2.695 -52.4,-3 z m -472.5,22.5 c -9.7,3.7 -18.4,6.7 -26.7,10.3 -14.6,6.5 -29.2,13 -45.5,12.3 -13.3371,-0.098 -26.3482,-4.134 -37.4,-11.6 8,22 21.4,38.1 35.2,54.2 3.6,4.3 6.6,8.4 10.8,0.5 1,-2 3.8,-3 5.6,-4.5 14,-12 31.1,-16.9 48.8,-20.4 z m 565.8,165.8 -9.8,3.3 c -10,3.2 -19.6,7.5 -29.8,9.3 -16,2.8 -32.5,3.7 -48.7,5.6 -2.1,0.2 -4.9,0.5 -5.9,2 -4,5.3 -7.4,11 -10.2,15.5 l 17,14.7 c 20,-5.5 40.6,-12.2 61.7,-17 11.3,-2.5 23.3,-1.6 32,8.7 1,1.3 2.7,2 4,2.9 l 2.3,-1.4 -12.5,-43.6 z m -33.3,42.3 -39.3,12.1 6.4,9.1 32.9,-6.7 z"/>
  <path fill="#ffe066" d="m 190.158,28.5252 -3.886,0.5552 c -5.552,1.6654 -9.993,7.2168 -7.772,12.7682 1.665,5.5515 7.772,7.2169 13.878,5.5515 5.552,-1.6655 9.438,-7.2169 7.772,-12.7683 -1.665,-3.886 -5.551,-6.1066 -9.992,-6.1066 z m 0,5.5515 h 2.22 l 2.221,2.2205 c 0.555,1.6655 -0.555,4.4412 -4.441,5.5514 -3.331,1.6655 -5.552,0 -6.662,-1.6654 -0.555,-1.6654 1.11,-4.4411 4.441,-5.5514 z m 62.731,31.6431 c -2.776,0 -5.552,1.1102 -7.772,2.2205 -2.221,1.6654 -3.886,3.886 -3.886,6.6617 0,2.7757 1.665,4.9963 3.886,6.6617 2.22,1.1103 4.996,2.2206 7.772,2.2206 2.775,0 5.551,-1.1103 7.772,-2.2206 1.665,-1.6654 3.331,-3.886 3.331,-6.6617 0,-2.7757 -1.666,-5.5514 -3.331,-6.6617 -2.221,-1.1103 -4.997,-2.2205 -7.772,-2.2205 z m 0,5.5514 4.441,1.1103 1.11,2.2205 c 0,0.5552 0,1.1103 -1.11,1.6655 -1.11,1.1102 -2.776,1.6654 -4.441,1.6654 -1.666,0 -3.331,-0.5552 -4.441,-1.6654 -1.111,0 -1.666,-1.1103 -1.666,-1.6655 0,-0.5551 0,-1.1103 1.666,-2.2205 z m -83.272,27.7571 h -2.775 c -2.564,1.3947 -4.828,3.2807 -6.662,5.5517 -1.11,1.665 -1.665,4.441 -1.11,7.217 1.11,2.775 3.331,4.441 5.551,5.551 h 8.327 c 2.776,-1.665 5.552,-3.331 6.662,-5.551 1.11,-1.666 2.221,-4.442 1.11,-7.217 -0.42,-2.256 -2.185,-4.021 -4.441,-4.441 l -6.106,-1.1107 z m 1.666,5.5517 h 2.22 c 1.111,0 1.666,1.11 2.221,1.665 l -0.555,2.776 -3.886,2.776 h -4.996 c -1.111,0 -1.666,-1.111 -1.666,-1.666 v -2.776 l 3.886,-2.775 z m 403.588,313.655 c -5.551,0 -11.103,3.886 -11.103,9.437 0,5.552 5.552,9.993 11.103,9.993 5.552,0 11.103,-4.441 11.103,-9.993 0,-5.551 -5.551,-9.437 -11.103,-9.437 z m 0,5.551 c 2.776,0 5.552,2.221 5.552,3.886 0,2.221 -2.776,4.441 -5.552,4.441 -3.331,0 -5.551,-2.22 -5.551,-4.441 0,-1.665 2.22,-3.886 5.551,-3.886 z m -9.992,59.956 -3.886,0.555 c -2.776,1.11 -4.997,2.22 -6.662,4.441 -1.11,2.221 -2.221,4.441 -1.11,7.217 0.555,2.776 2.775,4.441 5.551,5.551 1.999,0.543 4.107,0.543 6.107,0 2.268,-0.616 4.36,-1.757 6.106,-3.331 l 1.666,-1.11 c 1.11,-2.22 2.22,-4.996 1.11,-7.217 -0.555,-2.775 -2.776,-4.441 -5.552,-5.551 -1.104,-0.168 -2.226,-0.168 -3.33,0 z m 0,5.551 h 2.22 l 1.666,1.666 -0.556,2.22 c -0.555,1.11 -2.22,2.221 -3.886,2.776 h -4.441 c -1.11,0 -1.11,-1.11 -1.665,-1.666 l 0.555,-2.22 3.886,-2.221 h 2.221 z"/>
  <path fill="#201a20" d="m 203.994,0.434431 c -1.27,0 -2.752,0.211666 -4.34,0.634999 -5.82,1.69333 -11.324,3.49249 -13.335,10.05417 -8.466,-7.93751 -18.732,-7.51418 -24.87,-2.75169 -9.631,7.40829 -8.996,17.67409 -5.292,28.04579 -1.27,0.5291 -2.434,0.8466 -3.175,1.4816 -5.609,4.2333 -9.737,9.6308 -8.678,16.6158 1.058,6.4558 6.456,9.7366 12.911,10.4775 l 7.409,0.8466 c -5.927,3.175 -9.314,10.16 -11.113,19.05 -12.382,-3.81 -23.177,-3.4925 -30.162,0.2116 -4.128,-2.7516 -10.901,-7.1966 -16.51,-10.5833 -8.9992,-5.4963 -19.3018,-8.4921 -29.845,-8.6783 -5.8208,0 -9.525,1.0584 -10.0541,2.0109 -1.0584,1.9049 -2.0109,5.9266 -5.2917,22.4365 -0.9161,5.1254 -0.7721,10.3844 0.4233,15.4514 -8.7379,2.076 -17.1692,5.278 -25.0824,9.525 -7.4083,3.599 -13.3349,9.843 -20.5316,14.182 -14.28743,8.572 -16.721591,23.283 -16.404092,37.359 0.317499,15.875 6.455812,31.115 15.557492,44.344 10.5833,15.663 22.8599,30.374 34.9248,46.249 -6.0192,14.18 -8.3143,29.663 -6.6674,44.979 1.0583,14.817 3.3866,29.633 6.5616,44.238 1.7992,7.938 2.3283,17.568 9.525,22.86 14.6049,10.901 29.9507,20.849 45.1911,31.009 4.233,2.752 8.784,5.186 13.758,8.149 -4.233,4.657 -7.938,8.679 -11.324,12.912 -9.2077,11.853 -12.2769,26.352 -15.7694,40.428 -0.635,2.434 2.3283,7.303 4.9742,8.89 7.0912,4.233 14.6052,7.832 22.2252,11.113 8.784,3.81 17.991,6.032 27.834,3.915 5.291,-1.27 10.901,-1.799 16.933,-2.751 -1.058,9.525 -2.857,18.415 -2.857,27.41 -0.212,14.288 0.529,28.681 1.481,42.969 0.422,5.86 1.669,11.632 3.704,17.145 4.022,10.583 4.445,10.477 15.135,6.244 2.01,-0.847 4.233,-1.164 6.349,-1.799 11.298,-2.471 21.918,-7.384 31.115,-14.394 10.584,-8.784 21.061,-17.78 32.279,-27.41 2.858,3.175 6.35,7.408 10.372,11.006 9.705,10.088 21.732,17.646 35.031,22.013 5.503,1.482 11.218,2.117 14.816,-3.175 14.044,-19.939 21.92,-43.566 22.649,-67.944 0.211,-9.208 -1.059,-18.521 -1.799,-27.94 6.773,3.175 13.546,6.138 20.108,9.736 25.268,14.621 51.884,26.777 79.48,36.301 5.61,1.799 11.325,5.503 17.463,1.164 3.916,-2.751 8.043,-5.291 11.641,-8.466 13.759,-11.43 27.094,-23.284 40.534,-34.925 l 13.335,-10.901 11.96,15.875 c -11.325,8.678 -14.288,14.076 -11.113,25.4 3.175,11.641 13.758,11.43 23.707,11.324 v 8.784 c 0.317,10.054 6.244,17.886 15.875,18.098 5.926,0.211 12.17,-2.329 17.991,-4.551 7.514,-2.964 10.266,-10.16 12.171,-17.251 11.853,2.963 21.907,-0.529 28.257,-9.948 7.515,-11.324 0,-19.156 -8.043,-27.729 6.244,1.27 11.642,1.165 15.875,3.387 3.175,1.693 6.35,5.927 6.773,9.419 0.953,7.62 3.81,13.335 10.055,18.098 9.419,7.09 20.954,4.233 24.87,-6.985 0.953,-2.54 1.694,-3.281 4.763,-3.916 4.894,-0.876 9.442,-3.114 13.123,-6.456 4.974,-4.762 8.467,-11.112 13.123,-16.404 4.657,-5.292 5.715,-11.324 0.53,-16.193 -3.705,-3.492 -8.89,-5.397 -13.759,-8.254 l 3.493,-2.117 c 17.674,-10.689 28.151,-25.506 26.776,-47.096 -0.424,-5.08 -0.53,-10.16 -1.482,-15.028 -2.064,-10.85 -4.393,-21.649 -6.985,-32.385 -1.27,-5.398 -3.281,-10.795 -4.551,-16.192 -0.212,-1.059 1.058,-2.752 2.117,-3.599 6.138,-5.08 12.276,-10.583 19.05,-14.816 4.974,-3.281 7.408,-7.62 9.313,-12.912 3.175,-8.784 3.387,-17.674 2.54,-26.882 -0.847,-8.466 -0.212,-17.25 -1.588,-25.717 -1.375,-8.89 -4.339,-17.568 -6.561,-26.035 8.572,0 16.616,0.318 24.659,0 11.642,-0.423 23.071,-2.54 32.914,-9.207 5.292,-3.599 9.842,-8.044 15.028,-11.642 4.657,-3.175 5.292,-6.773 3.704,-11.642 -5.08,-15.24 -16.827,-24.976 -28.998,-33.866 -8.043,-6.033 -17.568,-9.949 -26.67,-15.029 1.27,-1.799 2.964,-4.233 4.234,-6.667 5.609,-10.901 14.075,-20.532 15.451,-33.549 1.059,-9.7367 2.223,-19.5792 4.339,-29.1042 1.059,-4.6566 -2.011,-7.0908 -4.339,-7.4083 -10.689,-0.8466 -21.59,-2.0108 -32.173,-0.7408 -10.266,1.0583 -20.214,5.08 -31.432,8.1491 0,-9.2074 1.058,-17.9916 -0.212,-26.4582 -2.328,-16.4041 -12.806,-28.6807 -23.283,-40.7457 -3.008,-3.53714 -7.547,-5.39218 -12.171,-4.97416 -2.752,0.21167 -5.503,1.27 -8.043,3.17496 -14.176,9.3742 -25.202,22.7973 -31.645,38.5232 -2.751,7.1967 -4.55,14.8167 -6.879,22.1191 C 594.729,55.4676 584.781,49.9643 567.953,47.7418 530.7,42.9793 495.352,48.3768 463.919,70.39 c -9.569,6.8479 -18.656,14.3443 -27.199,22.4366 -5.609,5.08 -10.054,11.6414 -14.499,17.7804 -8.361,11.747 -16.721,23.495 -24.236,35.771 -3.704,6.138 -5.609,13.229 -8.254,19.579 -19.958,-17.563 -41.826,-32.829 -65.194,-45.508 3.592,-5.374 6.982,-10.881 10.16,-16.51 7.832,-14.0757 5.186,-26.2465 3.916,-26.9873 -6.317,-1.9849 -12.86,-3.1585 -19.473,-3.4925 -8.255,0.3175 -17.251,4.8683 -20.426,6.6675 -1.093,-2.6381 -2.515,-5.1272 -4.233,-7.4083 -1.059,-1.6934 -0.318,-4.9742 -0.106,-7.5142 0.212,-3.7041 1.693,-7.7258 0.847,-11.1124 -2.964,-11.1125 -14.182,-20.955 -29.104,-12.7 -2.54,1.3758 -4.763,2.8575 -7.409,-0.3175 -6.985,-8.5725 -14.181,-9.7366 -24.13,-5.3975 -2.645,1.0584 -4.127,0.635 -5.291,0 2.751,-7.9375 -2.117,-16.7216 -9.631,-20.1082 -4.445,-2.0109 -5.609,-4.6567 -6.879,-8.25502 -1.694,-4.55082 -4.763,-6.773316 -8.784,-6.879149 z m -1.8,8.043309 c 1.059,0.74083 3.916,1.69336 4.869,3.59836 1.693,3.2808 -4.763,12.4883 -9.419,13.1233 -1.376,0.2116 -3.81,-1.5875 -4.551,-3.175 -1.905,-4.2334 2.222,-11.3242 9.101,-13.54666 z m -29.315,4.86836 c 3.81,0 6.773,2.1166 8.255,6.6674 0.846,2.8575 -3.599,11.2183 -6.668,12.1708 -4.656,1.5875 -9.207,-0.7408 -10.795,-5.6091 -1.905,-5.2917 0.318,-10.5833 4.974,-12.3825 1.353,-0.5217 2.785,-0.8081 4.234,-0.8466 z m 493.181,3.2808 c 3.175,0.635 6.139,4.6566 11.43,12.1708 4.04,5.6419 7.514,11.6682 10.372,17.9916 4.843,10.9063 5.594,23.1922 2.117,34.6074 -1,4.2471 -3.941,7.7758 -7.938,9.5249 -8.678,4.5509 -16.721,10.5834 -24.976,16.0864 0,-10.3714 -0.529,-20.8488 0.211,-31.2205 0.53,-6.7733 0.424,-9.6308 -5.185,-14.0758 -5.292,12.1708 -3.281,24.8708 -4.128,38.9463 l -6.35,-5.9264 c -4.445,-4.5508 -8.89,-8.9958 -12.912,-13.7583 -1.387,-1.661 -2.138,-3.7622 -2.116,-5.9266 2.034,-17.9581 10.136,-34.6842 22.966,-47.4132 v 0.1058 l 3.386,-3.0691 c 6.35,-5.8208 9.737,-8.5725 13.018,-8.0433 z m -450.742,7.4083 c 1.376,0 3.386,0.5292 3.916,1.3758 1.375,2.3283 2.434,5.2917 2.434,7.9375 0,1.0583 -2.54,3.3867 -4.022,3.3867 -4.762,0.2116 -12.488,2.9633 -15.028,-1.0584 V 35.571 c -0.106,-5.715 10.901,-10.5833 11.641,-11.2183 0.212,-0.2117 0.635,-0.3175 1.059,-0.3175 z m -24.977,4.3391 c 4.233,0 8.149,2.1167 9.525,6.2442 1.799,5.2916 -2.117,10.9008 -7.726,12.7 -5.609,2.0108 -12.065,0 -13.864,-5.3975 -1.799,-5.3975 2.117,-10.9008 7.726,-12.8058 1.376,-0.5292 2.857,-0.7409 4.233,-0.7409 z m -0.212,5.6092 c -0.74,0 -1.481,0 -2.328,0.4233 -3.492,1.0584 -4.868,3.9158 -4.233,5.715 0.529,1.7992 3.492,3.175 6.773,2.1167 v -0.1059 c 3.493,-1.0583 4.868,-3.9158 4.233,-5.7149 -0.211,-0.9525 -1.058,-1.6934 -2.328,-2.1167 -0.635,-0.2117 -1.376,-0.3175 -2.117,-0.3175 z m 55.139,7.8316 c 6.139,-0.2116 9.208,3.7042 9.208,12.2767 0,1.7991 0.847,5.1858 -1.058,6.8791 -9.631,4.445 -15.875,1.4817 -19.262,-8.89 -1.27,-3.9158 -0.847,-7.1966 4.022,-8.7841 2.751,-1.0583 5.08,-1.4817 7.09,-1.4817 z m -77.893,1.3759 c 2.223,0 4.445,0.2116 6.774,0.5291 0.741,0.1059 2.963,3.3867 2.646,4.2333 -1.482,3.3867 -1.059,7.1967 -6.35,10.3717 -4.445,0.635 -6.562,-0.1059 -9.949,-1.27 -2.434,-0.7408 -5.503,-1.7992 -6.032,-4.8683 -0.635,-3.3867 3.704,-7.1967 6.456,-8.1492 2.116,-0.635 4.233,-0.8466 6.455,-0.8466 z m 110.278,3.2808 c 4.445,0.5292 8.044,4.7625 8.467,10.16 0.529,7.9374 -3.916,11.6416 -14.605,12.6999 -5.715,1.7992 -7.408,-2.4341 -7.832,-5.8208 -1.058,-9.2075 4.022,-15.9808 12.065,-16.9333 0.635,-0.2116 1.27,-0.2116 1.905,0 z m -66.992,0.1058 c 1.058,0 1.693,0.1059 1.905,0.4234 -4.974,11.9591 -23.812,16.1924 -32.385,12.3824 -0.211,-0.635 -1.481,-0.635 -0.529,-2.0108 9.712,-5.1896 20.174,-8.8317 31.009,-10.795 z m 336.549,8.7842 c 6.773,0.2116 13.547,0.9525 20.532,2.1166 26.458,4.8683 45.508,20.7433 63.076,38.9466 8.89,9.207 16.828,19.473 23.283,30.374 3.916,6.35 4.234,14.817 6.033,22.225 l -2.117,1.482 c -23.283,-7.409 -47.201,-6.668 -70.908,-5.292 -14.182,0.741 -28.152,4.974 -42.121,8.149 -28.575,6.668 -53.975,20.849 -79.481,34.713 -19.05,10.372 -38.417,20.426 -57.997,29.845 -24.553,11.854 -51.011,18.521 -76.94,26.458 -19.262,5.715 -37.677,13.865 -56.621,20.638 -11.43,4.233 -23.071,7.832 -34.713,11.536 -25.188,7.937 -50.8,13.758 -77.152,16.086 -6.35,0.53 -12.7,1.27 -19.05,1.059 -2.117,0 -5.186,-2.329 -6.139,-4.234 -7.408,-15.028 -9.736,-33.231 -11.112,-49.318 -1.905,-20.849 -0.635,-41.275 7.197,-60.748 7.937,-19.685 19.685,-29.845 46.884,-52.916 3.492,-3.07 7.937,-5.292 12.382,-6.668 20.532,-6.138 40.746,-14.287 62.759,-12.277 12.065,1.059 24.659,2.646 35.772,7.197 19.319,7.568 38.005,16.664 55.879,27.199 14.182,8.467 28.893,17.251 39.053,31.009 1.587,2.329 5.186,4.022 8.149,4.657 0.847,0.212 3.069,-4.128 4.022,-6.562 8.374,-23.013 21.133,-44.182 37.57,-62.335 15.346,-16.9337 32.068,-32.4911 52.917,-41.8044 18.838,-8.4667 38.523,-12.2767 58.737,-11.6417 z m -328.611,2.54 c 9.842,0.9524 13.123,4.7624 16.404,10.4774 l 0.529,0.635 c 1.693,3.0692 2.011,6.0325 -1.058,8.1492 l -1.482,0.9525 c -2.805,1.153 -5.528,2.4967 -8.149,4.0216 -7.409,4.3392 -11.43,2.1167 -13.759,-0.5292 -4.233,-4.5508 -7.408,-10.5833 -4.55,-16.0866 1.905,-3.7041 7.937,-5.08 12.065,-7.5141 z m 34.184,7.9374 c 2.857,0 5.503,0.7409 7.62,2.2225 2.116,1.4817 3.704,3.81 3.704,6.5617 0,2.7516 -1.588,5.0799 -3.704,6.4558 -2.117,1.4816 -4.763,2.3283 -7.62,2.3283 -2.858,0 -5.61,-0.8467 -7.62,-2.3283 -2.257,-1.3924 -3.682,-3.8075 -3.81,-6.4558 0,-2.7517 1.693,-5.08 3.81,-6.5617 2.116,-1.4816 4.762,-2.2225 7.62,-2.2225 z m -54.928,1.5875 c 1.694,2.1167 0.424,2.54 5.927,20.1083 -4.657,-2.1167 -11.748,-12.2766 -14.288,-19.6849 1.059,-0.3175 7.197,0 8.467,-0.4234 z m 54.928,3.9158 c -1.8,0 -3.493,0.5292 -4.445,1.27 -1.059,0.7409 -1.376,1.4817 -1.376,2.0109 0,0.5291 0.317,1.1641 1.376,1.905 1.058,0.7408 2.645,1.27 4.445,1.27 1.799,0 3.492,-0.5292 4.445,-1.27 1.058,-0.635 1.375,-1.3759 1.375,-1.905 0,-0.5292 -0.317,-1.27 -1.375,-2.0109 -1.059,-0.7408 -2.646,-1.27 -4.445,-1.27 z M 77.629,72.4009 c 6.35,0 17.2508,4.8683 22.2249,7.4083 3.8101,2.1166 10.9011,6.35 17.6741,10.5833 l -0.741,1.0583 c -9.101,17.7802 5.292,24.4472 15.981,32.4912 -1.482,3.492 -2.223,6.35 -2.328,8.995 -14.605,-15.875 -34.9252,-37.4645 -32.2794,-30.268 2.9634,7.938 26.2464,34.713 39.1584,49.107 -5.08,7.725 -8.255,16.933 -20.532,16.721 l -1.27,-0.317 c -1.799,-9.737 -4.233,-19.791 -5.291,-29.951 -0.747,-15.815 -12.0404,-29.15 -27.517,-32.491 -4.0232,-0.921 -8.1551,-1.277 -12.2766,-1.058 l -2.1167,-8.9959 c -0.2117,-2.6458 0.3175,-18.7324 5.6091,-22.3307 1.1194,-0.6537 2.412,-0.9492 3.7042,-0.8467 z m 93.556,0.4233 h 2.858 c 6.773,0.7408 11.112,5.2917 10.477,11.0066 -0.846,7.1967 -3.915,10.9008 -8.89,11.1125 -3.598,-0.5292 -7.831,0 -10.689,-1.905 -1.905,-1.0583 -2.751,-5.5033 -2.54,-8.255 0.529,-5.7149 2.646,-11.2183 8.784,-11.9591 z m 109.008,4.2333 c 3.175,1.4817 8.361,2.4342 8.996,4.6567 1.058,3.5983 0.318,8.9958 -1.905,12.0649 -3.069,4.3392 -7.937,7.6199 -14.181,5.2917 -2.573,-1.0172 -5.052,-2.2566 -7.409,-3.7042 -4.551,-2.7516 -4.551,-6.6674 -0.741,-10.2658 4.234,-4.1275 7.832,-8.7841 15.24,-8.1491 z m 42.545,1.27 c 3.916,0 10.584,0.7409 12.383,3.3867 2.116,3.175 -1.905,13.4408 -4.022,17.5683 -1.905,3.7045 -7.937,13.9695 -10.901,18.9445 -4.806,-2.523 -9.676,-4.923 -14.605,-7.197 4.869,-4.974 12.277,-12.9117 10.689,-12.7 -5.178,3.247 -10.097,6.891 -14.71,10.901 -4.022,-1.799 -8.15,-3.493 -12.277,-5.08 l 2.117,-2.858 c 6.138,-5.2914 8.89,-10.2655 8.466,-15.7688 6.351,-3.2632 13.116,-5.6486 20.109,-7.0908 z M 744.059,79.28 c 4.869,0 9.737,0.635 14.817,2.4342 -3.175,43.4978 -22.966,74.7178 -63.817,90.4868 l -26.141,-17.462 c 7.197,-7.408 13.864,-15.346 21.378,-22.225 7.726,-7.197 16.299,-13.441 24.342,-20.32 0.952,-0.847 0.741,-2.857 1.058,-4.445 -1.164,-0.212 -2.857,-1.058 -3.81,-0.635 -5.503,2.752 -11.641,4.974 -16.298,8.89 -9.737,8.043 -18.627,17.145 -28.046,25.929 -1.799,-6.667 -4.974,-13.758 -5.292,-20.955 -0.211,-3.81 4.022,-8.89 7.62,-11.43 15.664,-11.0064 31.327,-22.4363 50.483,-26.7755 7.831,-1.6933 15.663,-3.5983 23.706,-3.4925 z m -504.4,4.0217 c 4.445,0.3175 15.664,3.5983 13.97,14.8166 H 235.32 c -3.704,-0.1058 -4.762,-2.0108 -2.646,-5.08 2.329,-3.3866 4.234,-7.9375 6.985,-9.6308 z m -28.257,5.9266 c 4.974,4.2333 7.197,1.27 10.372,1.27 0.211,2.1167 1.27,6.5617 1.375,8.89 l -6.35,2.1167 h -0.423 c -0.635,0.317 -1.058,0.529 -1.905,0.741 l -3.175,-13.0177 z m -72.919,0.7408 c 8.149,0 13.652,3.175 20.108,11.4299 -3.492,5.292 -4.021,11.748 -12.488,13.229 -7.091,1.164 -12.7,0.212 -17.251,-4.233 -3.175,-2.858 -6.456,-7.62 -6.138,-11.3242 0.529,-5.9267 6.562,-8.255 12.171,-8.89 z m 60.642,4.6567 c 2.223,0 4.551,1.5875 4.551,1.5875 0,0 -0.741,8.0437 -3.492,9.7367 -3.387,2.117 -7.938,2.963 -12.065,4.233 -1.482,-9.101 2.116,-14.4989 10.583,-15.5572 z m -28.469,4.445 c 2.117,0 4.445,0.5292 5.715,1.0582 2.046,0.725 3.671,2.312 4.445,4.339 1.059,2.646 0.318,5.504 -1.164,7.62 -1.482,2.117 -3.81,3.81 -6.562,4.763 -2.751,1.058 -5.609,1.058 -8.149,0.211 -2.619,-0.725 -4.74,-2.649 -5.715,-5.185 -0.81,-2.598 -0.338,-5.426 1.27,-7.62 1.482,-2.117 3.81,-3.81 6.562,-4.7629 1.058,-0.3175 2.328,-0.5291 3.598,-0.4233 z m 0.635,5.2912 c -2.453,0.065 -4.747,1.231 -6.244,3.175 -0.635,0.953 -0.741,1.8 -0.529,2.54 0.212,0.741 0.847,1.376 2.117,1.8 1.164,0.317 2.857,0.317 4.656,-0.212 1.49,-0.512 2.784,-1.474 3.704,-2.752 0.741,-1.058 0.847,-1.905 0.635,-2.646 -0.317,-0.635 -0.952,-1.27 -2.116,-1.693 -0.635,-0.212 -1.376,-0.317 -2.117,-0.317 z m -96.5195,9.314 2.4342,33.125 -1.905,0.53 -3.5984,-6.562 -1.5874,-26.67 c 1.5874,-0.212 3.1749,-0.423 4.6566,-0.423 z m 5.6092,0.317 c 1.7991,0.318 3.5983,0.953 5.3974,1.905 l 2.1167,26.141 c -1.6954,1.105 -3.4633,2.095 -5.2917,2.963 z m -15.6633,0.847 0.8466,14.605 -2.1166,-3.598 -0.5292,-0.953 -0.4233,-9.525 2.1166,-0.529 z m -7.7258,1.693 0.2116,6.562 c -0.5291,0.212 -1.1641,0.529 -1.7991,1.058 l -2.7517,2.011 -0.3175,-8.149 c 1.5304,-0.56 3.084,-1.054 4.6567,-1.482 z m 34.7132,3.599 c 2.7516,2.751 4.2333,6.244 3.5983,10.9 -0.2117,2.435 -1.0583,4.445 -2.2225,6.139 z m -44.8732,0 0.5292,10.16 c -1.1642,0.846 -2.3284,1.693 -3.3867,2.751 l -1.6933,1.799 -0.5292,-12.065 5.08,-2.54 z m 109.6434,1.693 c 2.751,0.212 5.715,1.058 8.89,3.387 -6.033,4.021 -11.219,8.255 -16.934,10.9 -2.222,1.059 -7.302,-0.529 -8.784,-2.54 -2.54,-3.492 0.741,-6.667 3.916,-8.043 4.127,-1.905 8.255,-3.916 12.912,-3.704 z m -120.1209,4.022 3.175,62.335 c -1.9359,-0.454 -3.844,-1.02 -5.715,-1.693 l -3.175,-56.832 z m 19.5791,6.455 2.6459,0.741 5.2916,13.653 v -0.424 l 0.7408,2.117 h -0.7408 c -1.905,0.212 -3.81,0.423 -5.6091,0.317 l -0.8467,-0.105 -0.9525,-0.106 -0.8467,-0.212 c -2.9633,-0.847 -5.2916,-2.857 -7.3024,-6.879 z m -30.7974,1.165 2.9634,50.482 c -1.8433,-0.88 -3.6129,-1.906 -5.2917,-3.069 L 20.585,136.959 c 1.0583,-0.952 2.2225,-1.799 3.3867,-2.54 l 1.0583,-0.952 z m 77.4702,8.466 h 0.211 v 0.106 c 1.27,8.043 2.964,17.251 4.128,26.458 0.211,1.588 -0.953,4.551 -2.329,5.08 -7.7254,3.493 -15.4512,6.668 -23.4945,9.525 h -1.3758 c -0.8876,0.087 -1.7835,0.016 -2.6459,-0.211 l -1.905,-0.635 -0.3175,-0.106 -0.4233,-0.318 c -0.919,-0.504 -1.803,-1.07 -2.6458,-1.693 -5.715,-4.233 -8.89,-10.689 -12.8058,-16.51 -1.0583,-1.376 -2.0108,-2.752 -3.175,-4.022 v -0.211 h -0.1058 c 4.6566,-0.953 8.9958,-1.588 13.2291,-2.329 3.9986,-0.872 7.954,-1.932 11.8533,-3.175 0.8467,-0.211 1.6933,-0.529 2.4341,-0.952 h 0.2117 l 3.2808,-1.694 c 5.2917,-2.751 10.3717,-6.244 15.8754,-9.419 z m -87.3126,0 1.6933,33.867 C 9.20536,166.626 8.14089,153.512 14.3409,143.203 Z m 126.4706,3.387 0.846,0.317 -0.317,0.318 c 0,-0.212 -0.318,-0.529 -0.529,-0.635 z m 454.447,8.572 c 17.356,0.106 34.925,1.482 52.281,3.069 4.022,0.318 7.726,3.81 11.642,5.61 2.857,1.27 5.926,2.116 8.89,3.28 17.78,7.409 27.199,22.014 33.866,38.947 5.292,13.758 9.843,27.94 14.817,41.698 4.485,12.287 5.618,25.548 3.281,38.418 h -0.106 c -5.927,-2.646 -11.536,-4.869 -16.722,-7.726 -6.34,-3.526 -13.198,-6.026 -20.32,-7.409 l -1.905,-0.317 c -2.645,-0.423 -5.291,-0.741 -8.043,-0.953 l -2.646,-0.105 h -9.631 c -5.291,0.317 -10.689,0.423 -15.98,0.529 -4.763,0.211 -9.419,0.317 -14.076,0.846 h -0.635 c -10.8,1.221 -21.537,2.952 -32.173,5.186 l -2.011,0.424 c -14.711,3.704 -29.845,7.196 -43.498,13.652 -17.144,7.937 -32.808,19.156 -49.318,28.469 -10.583,5.927 -21.59,11.218 -32.596,16.193 -21.696,9.842 -43.392,19.261 -65.193,28.892 -23.601,10.583 -46.99,21.59 -70.908,31.327 -11.007,4.445 -22.966,6.667 -34.608,8.995 -10.583,2.117 -21.166,3.175 -31.75,4.869 -7.302,1.375 -14.287,3.386 -21.378,5.08 -0.953,0.211 -1.799,0.846 -2.646,0.74 h -0.106 c -3.99,-0.625 -8.026,-0.908 -12.065,-0.846 -11.959,0.211 -23.918,2.646 -35.771,4.021 -4.639,0.504 -9.307,0.681 -13.97,0.53 h -0.635 c -4.112,-0.145 -8.211,-0.533 -12.277,-1.165 l -2.328,-0.423 c -7.602,-1.368 -15.048,-3.495 -22.225,-6.35 l -2.752,-0.952 c -21.359,-8.743 -41.724,-19.742 -60.7478,-32.809 l -6.35,-4.55 c -1.7992,-1.376 -3.7042,-2.646 -5.5033,-4.128 -2.3284,-1.799 -3.5984,-5.186 -4.9742,-8.043 -6.3247,-14.042 -10.1224,-29.089 -11.2183,-44.45 -0.5292,-8.996 -1.3758,-17.992 -1.0583,-26.987 0.2116,-6.35 2.1166,-12.7 3.2808,-19.05 l 2.8575,-1.376 v 0.106 h 0.2117 l 9.4191,11.43 1.905,2.116 c 2.7476,2.828 5.8834,5.252 9.3133,7.197 5.8574,3.276 12.0717,5.868 18.5208,7.726 17.1207,5.464 35.0637,7.899 53.0227,7.196 13.017,-0.529 25.611,-3.598 38.417,-5.926 25.952,-4.706 51.473,-11.538 76.306,-20.426 17.25,-6.244 34.078,-13.229 51.434,-18.944 l 36.089,-11.854 c 17.675,-7.302 35.455,-10.054 52.811,-16.721 l 4.763,-1.905 3.175,-1.376 c 16.827,-7.937 33.231,-17.462 50.059,-26.035 20.425,-10.371 40.534,-21.378 61.383,-30.691 l 0.529,-0.212 c 5.292,-2.434 10.689,-4.551 16.192,-6.35 h 0.212 c 17.145,-5.715 34.925,-8.573 53.234,-8.467 z m -552.7661,3.175 c 1.905,2.54 3.5984,5.186 5.3975,7.832 l 1.0584,24.553 -4.7625,-0.317 z m 695.6401,2.117 c 1.376,0.212 2.752,0.529 4.445,1.058 19.262,6.668 33.02,20.109 45.508,35.348 1.059,1.27 1.376,3.175 2.964,6.88 -10.584,5.397 -20.32,12.065 -31.115,15.134 -10.45,2.551 -21.235,3.444 -31.962,2.646 -6.35,-0.318 -12.594,-3.705 -14.181,-11.854 -1.059,-4.762 -3.704,-9.101 -5.927,-14.393 l 40.217,3.175 0.952,-2.858 c -4.551,-1.905 -8.996,-4.656 -13.758,-5.503 -9.843,-1.905 -19.791,-2.751 -29.633,-4.233 -2.223,-0.423 -4.234,-2.328 -5.504,-3.175 9.631,-6.138 18.838,-11.642 27.411,-17.992 3.598,-2.646 6.562,-4.445 10.583,-4.233 z m -684.2101,14.287 4.8683,6.985 0.3175,8.467 -4.445,0.423 z m 68.6861,2.964 v 0.211 l -9.208,40.746 c -17.6741,3.598 -34.7132,8.467 -48.789,20.426 -1.7991,1.587 -4.5508,2.54 -5.6091,4.551 -3.81,6.35 -6.6675,4.021 -10.3716,-0.106 -13.013,-13.958 -23.9548,-29.711 -32.4908,-46.778 -1.0583,-2.646 -2.2225,-5.292 -3.175,-8.044 l 0.7409,0.53 c 16.9404,10.924 37.7697,14.009 57.1498,8.466 8.4666,-2.434 16.7216,-6.032 24.8707,-9.736 8.3611,-3.599 16.9331,-6.562 26.7761,-10.372 z m -11.96,51.329 3.281,62.759 -4.445,-1.059 -3.492,-60.854 z m -10.16,2.116 3.387,58.209 c -1.641,-0.473 -3.265,-1.002 -4.8682,-1.588 l -3.4925,-55.033 5.0797,-1.588 z m -10.5829,3.493 3.175,50.906 c -1.905,-0.847 -3.81,-1.694 -5.715,-2.752 l -3.2808,-45.508 z m -11.2183,5.609 2.8575,38.841 -5.2916,-3.599 -2.1167,-32.173 z m -9.7366,7.408 1.3758,23.284 c -3.4925,-3.281 -5.9266,-7.409 -5.5033,-13.547 0.1058,-3.069 1.0583,-6.985 2.9633,-8.89 l 1.0584,-0.847 z m 49.3178,19.897 c 1.428,8.014 3.994,15.783 7.62,23.072 0.424,0.635 0.318,1.587 0.53,3.386 l -6.774,-1.164 z m 545.04,10.16 c 1.694,0 3.175,0.106 4.869,0.317 l 3.81,61.807 -6.35,2.117 z m -5.503,0 2.434,66.146 -5.291,1.587 -3.599,-67.521 6.35,-0.106 z m -13.123,0.423 h 1.058 l 3.704,68.792 h -0.106 l -4.55,1.164 -3.599,-67.733 c 1.059,-1.164 2.434,-2.117 3.493,-2.223 z m 29.104,0.424 c 1.905,0.211 3.916,0.423 5.821,0.846 l 3.386,55.88 -5.609,2.434 z m -41.91,0.423 c -3.175,8.467 -5.292,16.722 -9.419,23.918 -8.048,13.78 -16.591,27.265 -25.612,40.428 -9.211,13.969 -18.883,27.629 -28.998,40.958 -11.456,14.47 -23.35,28.588 -35.666,42.333 -8.784,10.372 -17.251,20.743 -27.199,29.845 v 0.106 c -16.933,15.663 -34.607,30.585 -52.176,45.72 -2.781,2.397 -5.836,4.458 -9.101,6.138 -1.89,0.879 -4.038,1.029 -6.033,0.423 -12.805,-4.762 -25.823,-9.207 -38.311,-14.922 -19.05,-8.89 -37.783,-18.627 -56.515,-28.046 -7.958,-3.911 -15.861,-7.933 -23.707,-12.065 -13.652,-7.091 -27.199,-14.499 -40.745,-21.696 l -17.145,-8.89 v -1.693 c 9.736,-2.117 19.473,-4.763 29.315,-6.138 25.4,-3.705 49.319,-11.642 72.496,-23.284 18.627,-9.525 38.841,-15.98 58.208,-24.341 32.57,-14.319 64.492,-30.068 95.673,-47.202 14.605,-8.043 28.364,-18.097 43.392,-24.976 12.382,-5.504 26.246,-7.726 39.476,-11.007 7.196,-1.799 14.499,-3.069 21.801,-4.339 3.387,-0.635 6.773,-0.847 10.266,-1.27 z m 53.446,1.693 5.82,1.905 2.646,46.99 -5.397,3.069 z m 11.535,4.234 4.551,2.434 2.011,35.983 -4.233,2.963 z m 10.372,5.503 3.175,1.693 2.222,23.495 v 0.106 l -3.915,3.175 z m -70.908,2.328 2.963,56.727 -4.551,0.846 -3.175,-45.085 c 1.694,-4.127 3.175,-8.254 4.763,-12.488 z m 80.01,3.81 c 3.175,3.704 3.175,8.255 1.27,12.383 z m -89.641,18.733 2.54,35.983 -5.927,1.058 -2.434,-26.67 c 2.117,-3.386 3.916,-6.773 5.821,-10.371 z m -10.795,17.78 1.905,20.108 c -1.734,0.401 -3.512,0.579 -5.292,0.529 l -1.481,-13.864 1.587,-2.328 3.175,-4.445 z m 72.39,10.583 12.594,43.391 v 0.106 h 0.106 l -2.328,1.376 c -1.482,-0.952 -3.175,-1.587 -4.234,-2.857 -1.737,-2.084 -3.769,-3.902 -6.032,-5.398 -5.72,-3.545 -12.475,-5.038 -19.156,-4.233 -2.223,0.106 -4.445,0.529 -6.668,1.058 -10.583,2.328 -20.954,5.186 -31.22,8.149 l -2.646,0.741 -21.802,6.35 -5.926,1.693 -14.817,-12.7 -2.328,-2.116 c 2.857,-4.445 6.244,-10.16 10.266,-15.558 1.058,-1.376 3.704,-1.693 5.82,-1.905 33.655,-1.587 48.472,-4.868 78.528,-14.922 z m -82.021,3.069 0.635,6.562 -4.762,-0.424 c 1.376,-2.116 2.646,-4.127 4.127,-6.138 z m 62.548,37.677 2.328,63.711 c -1.27,0.423 -2.646,0.635 -4.022,0.847 l -2.222,-28.152 c 0.529,-1.905 0.846,-3.81 0.846,-5.821 0,-8.784 -1.27,-17.568 -1.587,-26.352 v 0.106 c 0,-1.376 1.482,-3.916 2.646,-4.234 l 2.116,-0.105 z m 5.609,0.105 3.598,0.741 3.598,57.785 c -1.587,1.058 -3.175,2.117 -4.868,2.858 z m -19.368,1.27 v 14.605 l -32.914,6.668 -6.35,-9.102 39.159,-12.171 z m 28.575,1.694 c 2.117,1.058 3.916,2.116 5.609,3.492 l 2.646,43.815 c -1.502,1.679 -3.169,3.203 -4.974,4.551 z m -103.822,1.799 c 2.858,0 5.715,0.847 7.408,2.54 3.81,4.022 2.752,9.948 -1.905,14.181 -3.069,2.752 -4.233,9.525 -9.101,9.949 -6.668,-1.482 -6.774,-10.266 -10.266,-15.452 1.905,-2.54 3.916,-5.715 6.35,-8.466 2.003,-1.87 4.671,-2.86 7.408,-2.752 z m 115.358,8.255 c 5.751,8.996 6.432,20.33 1.799,29.951 z m -90.487,8.149 c 1.203,-0.136 2.42,-0.064 3.598,0.212 2.981,1.012 5.424,3.188 6.773,6.032 0.847,1.799 -0.529,5.609 -2.116,7.303 -6.033,6.35 -10.16,10.689 -26.67,5.82 0,-8.466 9.737,-18.52 18.415,-19.367 z m 41.698,4.127 h 1.905 v 0.106 c 1.905,0.424 4.128,0.741 5.715,1.694 0.737,0.444 1.355,1.062 1.799,1.799 l 0.106,0.317 c 0.423,0.741 0.635,1.694 0.741,2.752 v 0.741 c 0.038,1.179 -0.105,2.357 -0.423,3.492 -0.295,0.906 -0.723,1.762 -1.27,2.54 v 0.106 c -1.482,2.117 -3.705,3.598 -6.35,4.868 -1.588,0.847 -3.705,0.847 -5.715,1.27 0.105,-4.868 0,-9.207 0.635,-13.546 0.211,-1.694 0.105,-4.234 1.375,-5.292 0.318,-0.423 0.847,-0.741 1.482,-0.847 h 0.106 z m -86.783,0.318 c 10.795,6.562 -1.376,10.16 -0.847,15.452 h -12.065 l 13.018,-15.452 z m 76.411,2.54 c -1.058,6.35 -1.375,11.324 -2.54,16.087 l -0.211,1.27 -1.588,-16.087 4.234,-1.27 z m -507.469,2.328 c 0.741,-0.211 1.588,-0.211 2.117,0 6.561,2.117 12.7,4.974 19.261,6.562 11.113,2.752 22.437,4.762 33.867,7.091 -15.346,12.7 -37.359,13.864 -53.34,26.67 15.663,1.058 29.104,-5.821 44.45,-10.584 l -2.752,9.208 c -1.27,4.127 -2.328,8.361 -4.233,12.276 -1.27,2.646 -3.387,5.821 -5.927,7.091 -21.272,10.901 -40.745,4.022 -59.689,-6.879 -0.953,-0.529 -1.8,-2.54 -1.588,-3.598 3.069,-18.627 9.313,-35.666 25.612,-46.99 0.648,-0.408 1.365,-0.694 2.116,-0.847 z m 497.944,2.54 2.858,30.904 c -0.741,0 -1.482,0.211 -2.117,0.423 l -3.386,1.058 -2.117,-27.411 z m -52.599,1.905 c 5.715,0 10.795,4.234 10.795,9.737 0,5.609 -5.08,9.737 -10.795,9.737 -5.715,0 -10.795,-4.234 -10.795,-9.737 0,-5.609 5.08,-9.737 10.795,-9.737 z m -343.216,3.916 c 1.376,-0.106 2.858,0.423 5.503,0.953 l -31.961,87.418 c 9.101,-1.376 10.901,-8.361 13.123,-14.076 8.149,-20.849 15.769,-41.91 23.389,-62.971 0.635,-1.905 1.164,-3.81 1.376,-5.715 0.423,-4.974 3.281,-5.291 6.879,-3.492 5.292,2.54 10.795,4.868 15.24,8.572 2.646,2.117 4.128,6.562 4.233,10.054 1.059,16.722 -3.704,32.491 -8.255,48.154 -6.35,21.802 -19.896,38.524 -36.512,53.446 -14.393,12.912 -31.432,19.897 -51.329,25.717 -1.058,-8.255 -2.646,-16.298 -3.387,-24.341 -2.025,-17.789 -1.597,-35.773 1.27,-53.446 1.588,-8.466 3.175,-17.251 6.245,-25.188 4.445,-11.642 9.842,-22.754 15.451,-33.867 2.752,-5.291 6.35,-9.419 13.758,-9.207 8.361,0.106 16.616,-1.376 24.977,-2.117 z m 343.216,1.693 c -3.175,0 -5.291,2.117 -5.291,4.128 0,2.117 2.116,4.233 5.291,4.233 3.07,0 5.292,-2.116 5.292,-4.233 0,-2.117 -2.222,-4.233 -5.292,-4.233 z m 42.651,3.493 1.588,20.849 -1.059,-1.27 c -3.175,-4.762 -8.361,-9.525 -3.704,-15.769 z m 43.392,1.058 1.587,19.368 h -1.058 c -1.164,-0.318 -2.54,0 -3.916,0.529 l -1.058,-15.875 c 1.587,-1.058 3.175,-2.54 4.445,-4.022 z M 556.1,433.715 c 4.022,0 9.525,6.35 9.313,10.795 -0.106,6.561 -8.996,17.039 -14.393,16.933 -4.233,0 -11.747,-7.62 -11.642,-11.642 0.106,-8.995 7.62,-16.192 16.722,-16.086 z m 78.528,1.481 c 1.058,0.847 2.858,1.376 5.821,1.694 l 1.058,11.853 c -1.799,-0.952 -3.704,-1.482 -5.715,-1.693 z m 16.298,0.106 1.27,15.558 c -1.481,0.846 -2.963,1.693 -4.445,2.328 l -0.635,-0.635 h 0.212 l -1.27,-15.875 c 1.693,-0.212 3.281,-0.741 4.868,-1.376 z m -64.558,1.376 c 5.08,-0.847 14.817,8.467 14.923,12.7 0.211,4.763 -3.704,8.467 -8.89,8.467 -6.668,0 -15.981,-8.573 -14.499,-14.817 0.635,-2.752 5.291,-5.821 8.466,-6.35 z M 278.5,439.324 c 12.806,6.667 26.458,12.277 38.1,20.531 4.657,3.175 6.35,12.171 7.408,18.839 3.175,20.108 -1.27,39.158 -9.525,57.467 -2.751,6.138 -5.926,12.171 -8.572,18.309 -1.694,4.022 -4.763,4.234 -7.409,2.54 -9.419,-5.08 -18.732,-10.371 -27.728,-16.298 -4.868,-3.175 -8.996,-7.832 -13.229,-11.853 -2.54,-2.435 -3.175,-5.398 -0.741,-8.044 7.409,-8.255 9.737,-18.838 12.7,-28.998 2.434,-8.361 4.445,-16.722 6.668,-25.082 l 2.116,-0.212 15.558,49.847 c 5.08,0.212 3.81,-4.233 3.598,-7.408 -1.4,-16.785 -5.847,-33.175 -13.123,-48.366 -2.858,-6.35 -5.292,-12.805 -8.043,-19.367 z m 242.146,12.277 c 7.408,2.54 13.758,-0.741 15.769,3.809 1.058,2.54 -2.752,10.266 -5.927,13.759 -3.175,-5.292 -6.244,-11.642 -9.842,-17.568 z m 113.982,3.069 c 3.175,0 6.138,1.799 6.985,5.609 -0.847,3.281 -5.609,4.233 -8.467,4.762 -1.481,0.318 -3.386,0.635 -7.62,-1.587 -0.74,-3.281 1.376,-5.609 3.175,-6.879 1.734,-1.227 3.803,-1.892 5.927,-1.905 z m 25.188,2.01 h 0.741 c 3.175,0.318 6.244,2.117 9.313,3.281 0.741,-0.211 1.059,1.376 1.059,2.329 1.058,1.481 -6.35,9.525 -11.536,10.16 -3.916,-1.059 -5.08,-5.927 -5.715,-9.208 -0.741,-3.916 2.223,-6.667 6.138,-6.562 z m -94.509,6.033 c 2.964,4.974 3.599,5.927 -1.164,13.652 -2.328,3.599 -7.62,5.292 -11.43,7.938 -11.747,-6.456 -12.382,-7.408 -9.842,-15.875 8.572,3.387 16.192,1.27 22.436,-5.715 z m 117.263,0.847 c 2.964,0.105 6.562,1.058 7.938,3.492 0.317,2.54 -13.018,17.251 -17.568,3.387 0.529,-3.704 4.55,-6.35 6.985,-6.668 z m -92.074,1.27 8.149,3.704 c 1.482,5.715 -4.022,8.572 -5.292,9.736 -3.598,2.858 -8.466,4.34 -12.911,6.033 -4.975,1.905 -7.938,-0.953 -6.774,-6.244 1.905,-8.573 5.186,-12.065 16.934,-13.124 z m 16.933,0.635 c 0.317,0.105 20.214,6.561 30.057,3.598 0,0.952 8.466,-3.598 8.466,-2.646 12.7,17.78 -1.905,15.134 -11.747,14.499 0.423,-6.561 -4.551,-5.715 -9.314,-6.032 -4.868,-0.424 -9.736,-1.799 -14.287,-3.175 -1.799,-0.635 -3.069,-2.858 -4.551,-4.339 l 1.376,-1.8 z m 59.69,12.065 c 0.846,0 2.328,0.317 2.963,0.74 2.858,1.376 4.233,1.905 6.985,5.186 0.212,1.799 -1.164,5.08 -2.646,6.033 -2.857,1.905 -4.339,3.175 -7.62,2.963 -0.423,0 -3.704,-1.058 -4.021,-1.376 -2.117,-1.058 -6.35,-1.058 -5.292,-7.726 1.905,-2.328 2.434,-2.857 4.974,-4.762 1.376,-0.529 3.598,-1.058 4.657,-1.058 z m -133.244,5.291 c 2.011,0 4.022,0.953 5.821,3.069 1.587,1.694 1.376,3.175 3.492,4.34 4.657,2.434 5.504,6.879 1.059,9.525 -4.234,2.645 -4.234,5.926 -12.489,5.926 -4.974,0 -7.514,-4.762 -8.572,-7.937 -1.693,-4.869 0.847,-9.949 5.292,-12.912 1.561,-1.188 3.439,-1.887 5.397,-2.011 z m 31.009,1.059 c 1.27,0 2.54,0.211 3.704,0.529 2.434,0.846 4.551,2.646 5.292,5.08 v 0.106 c 0.847,2.54 0,5.291 -1.482,7.196 -1.618,2.045 -3.84,3.526 -6.35,4.234 -2.751,0.846 -5.503,0.846 -7.831,0 -2.446,-0.737 -4.405,-2.579 -5.292,-4.975 -0.661,-2.532 -0.114,-5.228 1.482,-7.302 2.6,-3.093 6.436,-4.876 10.477,-4.868 z m 32.808,2.434 c 1.376,0 2.858,0.846 4.022,1.481 2.375,1.162 4.189,3.221 5.043,5.723 0.854,2.502 0.677,5.241 -0.492,7.612 -2.598,4.128 -6.695,7.087 -11.43,8.255 -6.35,1.482 -12.383,-1.058 -16.933,-6.35 -4.445,-5.291 -3.599,-8.149 3.175,-10.583 l 15.98,-6.032 h 0.635 z m 43.074,2.011 c 3.599,-0.212 6.139,2.01 8.89,3.175 2.329,1.058 4.234,4.445 4.657,6.667 0.423,2.117 -1.27,6.244 -3.069,6.985 -2.328,0.953 -6.562,0.529 -8.467,-1.058 -4.021,-3.281 -8.466,-7.197 -6.032,-14.817 v 0.106 c 1.481,-0.741 2.857,-1.058 4.021,-1.058 z m -75.882,1.058 c -0.741,0 -1.587,0.106 -2.434,0.423 -1.411,0.387 -2.668,1.2 -3.598,2.329 -0.741,0.846 -0.847,1.587 -0.635,2.116 0.211,0.635 0.74,1.164 1.799,1.588 1.058,0.423 2.646,0.423 4.233,0 h 0.106 c 1.425,-0.415 2.683,-1.267 3.598,-2.434 0.741,-0.847 0.847,-1.588 0.635,-2.117 -0.211,-0.635 -0.741,-1.164 -1.799,-1.588 -0.529,-0.211 -1.164,-0.317 -1.905,-0.317 z m -7.937,16.51 c 4.445,0.529 9.313,0.741 12.911,2.857 2.752,1.588 3.81,5.927 4.869,7.726 0,8.043 -9.843,14.817 -18.204,14.605 -4.233,-0.212 -9.63,-6.562 -9.525,-11.112 0.53,-7.515 5.292,-14.711 9.949,-14.076 z"/>
  <path fill="#201a20" d="m 190.024,189.981 c 0,2.049 -0.814,4.014 -2.263,5.463 -1.449,1.449 -3.414,2.263 -5.463,2.263 -2.049,0 -4.014,-0.814 -5.463,-2.263 -1.449,-1.449 -2.263,-3.414 -2.263,-5.463 0,-2.049 0.814,-4.014 2.263,-5.463 1.449,-1.449 3.414,-2.262 5.463,-2.262 2.049,0 4.014,0.813 5.463,2.262 1.449,1.449 2.263,3.414 2.263,5.463 z m 44.555,0.424 c 2.382,-0.053 4.584,-1.324 5.775,-3.387 1.191,-2.063 1.191,-4.605 0,-6.667 -1.191,-2.063 -3.393,-3.334 -5.775,-3.334 -2.382,0.026 -4.583,1.297 -5.774,3.36 -1.191,2.063 -1.191,4.605 0,6.667 1.191,2.063 3.392,3.334 5.774,3.334 z m -34.501,-34.079 c 2.004,0 3.855,-1.069 4.857,-2.804 1.002,-1.736 1.002,-3.874 0,-5.609 -1.002,-1.736 -2.853,-2.805 -4.857,-2.805 -2.83,0.388 -4.939,2.806 -4.939,5.662 0,2.857 2.109,5.274 4.939,5.662 z"/>
  <path fill="#201a20" d="m 120.547,383.428 c -3.175,-0.846 -5.08,-5.926 -2.54,-11.006 0.317,-1.376 2.117,-3.916 3.598,-5.08 2.117,-3.81 4.234,-7.62 6.668,-12.806 l 2.645,-9.525 1.8,-6.985 c 1.058,-4.022 0.846,-7.091 0.635,-10.16 0,-4.233 -0.318,-7.408 -1.694,-10.583 -2.328,-3.599 -6.667,-4.763 -12.17,-4.763 -1.376,1.058 -3.81,1.799 -4.234,3.175 -1.376,1.058 -1.693,2.54 -3.175,3.704 -1.693,2.329 -2.116,3.704 -3.916,6.35 -0.423,1.27 -0.635,0.847 -1.058,2.223 -5.292,14.816 -10.0541,31.22 -6.244,41.275 0.658,1.943 1.743,3.715 3.175,5.185 0.741,0.741 2.752,2.223 3.704,2.54 2.117,0.53 3.598,-0.635 4.657,-0.317 1.058,0.317 0.317,3.175 0.423,4.551 0,1.799 1.058,2.963 2.223,4.021 1.693,1.694 3.386,2.011 5.82,1.059 0.424,-1.27 0.741,-2.54 -0.317,-2.858 z m 0.635,-28.575 c -2.011,4.339 -2.752,7.303 -4.445,9.843 -2.858,-2.223 -4.551,-4.234 -8.043,-3.599 l -1.376,1.059 c -1.799,-1.905 0,-8.784 0.846,-11.536 1.592,-12.005 6.218,-23.406 13.441,-33.126 l 1.905,0.529 c 4.233,1.059 3.81,4.128 4.022,9.42 -0.138,4.93 -0.994,9.815 -2.54,14.499 -1.058,4.021 -2.54,10.265 -3.81,12.911 z m -8.043,14.817 c 0,0 -0.53,1.27 -1.588,2.011 -1.058,0.846 -1.482,0.741 -2.54,0.423 -2.117,-0.529 -1.376,-6.985 0.741,-6.35 l 3.069,0.741 c 0,0 0.741,1.693 0.318,3.175 z"/>
  <path fill="#201a20" d="m 141.713,373.692 c -0.423,-5.504 0.212,-11.642 0.847,-18.31 l 1.27,-12.699 1.164,-12.277 0.847,-8.043 c 1.058,-1.376 2.222,-3.175 1.587,-4.234 -1.164,-1.905 -4.127,-1.693 -6.138,-1.693 -2.011,0 -3.175,-0.318 -4.233,0.952 -0.318,2.646 2.646,2.329 2.646,4.34 0,3.069 -0.53,5.291 -0.741,8.043 l -3.387,33.761 c 0.635,4.233 -0.529,8.466 0.847,12.276 1.058,3.175 2.751,6.668 6.138,7.62 2.011,0.212 1.376,0 2.434,0.106 4.128,0.423 7.303,-4.127 8.996,-7.302 3.069,-5.715 4.233,-11.854 4.974,-19.897 l 0.212,-1.482 1.27,-13.44 c 1.693,-6.668 0.847,-15.664 4.022,-18.415 1.27,-1.059 1.058,-4.022 -2.752,-4.551 -2.223,-0.318 -5.292,-0.212 -7.62,-0.424 -1.058,0 0.317,2.329 0.106,3.705 0,0 1.058,0 1.905,1.693 0.741,2.752 -0.847,7.937 -1.376,13.441 l -2.011,20.108 c -0.529,5.503 -1.376,15.663 -5.397,18.944 -2.54,1.905 -4.657,-0.741 -5.61,-2.117 z"/>
  <path fill="#201a20" d="m 187.962,329.242 c 4.128,0 2.011,-5.398 1.905,-8.149 0,-1.376 -1.058,-2.752 -1.058,-2.752 l -10.371,0.212 c -4.128,1.375 -8.15,1.375 -12.277,2.857 v 2.752 h 4.233 v 12.065 l 0.106,5.397 0.212,13.758 v 2.646 c 0.106,8.255 1.27,14.923 0.317,23.072 h -4.127 v 2.752 c 5.438,1.038 10.98,1.428 16.51,1.164 h 5.291 c 1.059,-1.482 2.011,-2.752 2.011,-4.234 0,-2.645 -0.106,-6.667 -2.117,-6.667 -2.116,1.376 0,5.397 -2.116,6.773 -3.069,0 -5.08,0 -8.255,-1.27 l -0.423,-11.959 c 0,-4.022 -0.847,-9.737 0.105,-13.758 l 5.186,-0.106 v 1.376 c 0,1.27 2.117,2.646 2.117,2.646 2.116,0 -0.106,-8.255 0.846,-10.901 l -2.116,-1.27 c -1.059,0 -1.059,2.752 -0.953,4.022 -2.116,0 -5.08,0 -6.138,-1.27 1.058,-2.752 -0.106,-5.398 -0.212,-9.525 v -8.467 c 0,-3.175 -0.105,-5.186 0.847,-6.35 2.117,-1.482 5.186,-1.588 7.197,-1.588 l 2.116,1.376 c 1.059,1.27 0,4.022 1.059,5.398 z m 26.353,-2.223 c 4.233,-0.423 1.587,-5.609 1.27,-8.361 0,-1.375 -1.27,-2.645 -1.27,-2.645 l -10.266,1.058 c -4.022,1.693 -8.149,2.117 -12.065,3.916 l 0.212,2.751 4.233,-0.423 1.058,12.065 0.53,5.398 1.375,13.758 0.212,2.646 c 0.847,8.255 2.54,14.816 2.223,22.965 l -4.128,0.424 0.212,2.751 c 6.35,0.741 11.536,0.212 16.616,-0.211 l 5.185,-0.529 c 0.847,-1.482 1.8,-2.964 1.694,-4.234 -0.318,-2.857 -0.635,-6.773 -2.752,-6.561 -1.905,1.481 0.529,5.291 -1.376,6.879 -3.175,0.317 -5.186,0.529 -8.466,-0.529 -0.212,-2.646 -1.059,-7.832 -1.376,-11.96 -0.424,-4.021 -1.694,-9.525 -1.059,-13.758 l 5.08,-0.529 0.212,1.376 c 0,1.376 2.328,2.54 2.328,2.54 2.117,-0.212 -0.846,-8.255 0,-11.007 l -2.222,-1.058 c -1.058,0 -0.741,2.752 -0.635,4.022 -2.117,0.211 -5.08,0.529 -6.35,-0.635 0.847,-2.858 -0.529,-5.398 -0.847,-9.525 l -0.741,-8.467 c -0.211,-3.069 -0.635,-5.08 0.318,-6.35 1.905,-1.693 4.974,-2.011 7.091,-2.117 l 2.116,1.059 c 1.165,1.27 0.424,4.021 1.588,5.291 z"/>
  <path fill="#201a20" d="m 243.313,341.307 c -0.212,-1.482 -1.27,-1.27 -1.587,-2.646 l 0.846,-1.693 c 1.003,-1.932 1.716,-4 2.117,-6.139 0.255,-3.827 -0.36,-7.662 -1.799,-11.218 -2.964,-7.938 -12.171,-6.668 -18.415,-4.128 -1.058,0.212 -1.164,1.059 -2.223,1.27 -3.28,0.53 -4.656,0.847 -3.915,4.975 0.211,1.481 2.116,1.693 4.233,1.375 1.164,7.091 2.646,11.325 3.281,17.357 0.317,2.011 0,2.328 0.317,3.81 1.588,2.54 1.059,5.609 1.482,8.361 l 4.127,23.918 c -1.058,0.212 -2.116,0.423 -2.963,1.905 1.588,2.646 2.54,2.54 4.762,2.117 1.8,-1.799 6.562,-1.482 8.573,-1.905 1.058,-0.106 0.741,-1.164 0.529,-2.646 -0.212,-1.27 -2.434,-0.953 -2.646,-2.328 -1.481,-2.646 -1.905,-5.398 -2.434,-8.361 -1.058,-5.504 -3.492,-13.759 -3.704,-21.167 -0.212,-1.27 0.847,-1.376 1.905,-1.587 1.27,1.058 2.328,0.952 2.646,2.328 1.376,1.27 1.693,2.117 2.751,3.387 3.281,4.445 3.175,10.583 4.869,15.769 2.54,8.361 -0.106,11.006 2.54,13.441 3.175,0 7.726,0.105 6.985,-4.022 -0.318,-1.376 -1.27,-1.27 -2.329,-1.058 -2.857,-9.737 -4.445,-24.765 -9.948,-31.115 z m -14.711,-22.014 5.292,-1.058 c 1.27,1.164 2.434,1.905 2.752,3.916 0.529,2.752 0.846,2.434 1.058,5.609 0,2.011 -0.318,4.233 -0.106,5.821 -0.847,1.587 -5.291,4.868 -5.609,2.963 -1.376,-6.773 -2.434,-11.641 -3.387,-17.251 z"/>
  <path fill="#201a20" d="m 287.869,302.678 c -1.059,0.317 -2.434,-0.847 -2.434,-0.847 -2.54,0 -3.493,-0.529 -5.609,0.106 -2.117,0.635 -2.752,2.328 -3.81,2.646 -1.27,3.175 -2.117,7.831 0,11.853 0.846,2.646 3.81,4.551 6.032,6.244 2.223,1.693 3.175,1.376 4.445,2.434 1.376,1.059 2.857,2.117 5.292,2.858 2.54,0.846 4.021,1.905 5.82,4.233 5.186,10.478 6.35,21.802 1.27,27.728 -1.058,0.318 -0.635,1.694 -1.693,2.117 -3.492,-0.635 -6.879,-8.467 -5.609,-11.642 0.635,-1.799 1.693,-2.116 2.752,-2.434 0.211,-2.963 -1.588,-5.503 -3.705,-4.868 -2.54,2.54 -4.762,2.963 -7.408,5.292 0.318,1.27 0.741,2.645 2.117,3.704 1.058,-0.212 0.635,-1.694 1.693,-2.011 0.529,5.821 2.752,9.525 4.657,11.959 1.376,1.058 5.715,4.233 7.726,3.598 l 4.233,-1.164 c 3.704,-2.54 5.503,-5.609 5.821,-10.583 0.478,-7.493 -1.531,-14.933 -5.715,-21.167 -1.799,-2.434 -2.646,-3.386 -3.387,-4.233 -4.762,-5.715 -11.112,-5.609 -14.816,-10.372 -2.217,-3.755 -3.42,-8.022 -3.493,-12.382 2.066,-0.441 4.223,0.021 5.927,1.27 0.74,2.646 0.635,5.715 2.01,6.773 2.54,0.741 2.329,-3.598 2.54,-6.667 -0.423,-1.376 -0.105,-4.445 -1.587,-5.292 -0.423,-1.482 -1.376,-1.164 -2.434,-0.953 -1.059,0.318 -0.635,1.8 -0.635,1.8 z"/>
  <path fill="#201a20" d="m 320.571,300.561 c 3.916,-1.27 0.212,-5.715 -0.635,-8.361 -0.408,-0.908 -1.07,-1.68 -1.905,-2.222 l -9.842,3.281 c -3.493,2.645 -7.409,3.915 -10.795,6.561 l 0.846,2.646 3.916,-1.376 3.916,11.642 1.693,5.08 4.445,12.911 0.847,2.54 c 2.646,7.832 5.821,13.759 7.408,21.908 l -3.915,1.27 0.846,2.646 c 6.35,-0.741 11.219,-2.329 16.087,-4.022 l 4.974,-1.693 c 0.529,-1.588 1.058,-3.175 0.635,-4.551 -0.847,-2.646 -2.117,-6.35 -4.233,-5.715 -1.482,1.905 1.799,5.08 0.317,7.091 -2.963,1.058 -4.974,1.587 -8.255,1.375 l -4.233,-11.324 c -1.27,-3.81 -3.81,-8.89 -4.128,-13.229 l 4.869,-1.587 0.423,1.27 c 0.423,1.27 2.858,2.011 2.858,2.011 2.01,-0.741 -2.646,-7.832 -2.435,-10.69 l -2.434,-0.635 c -1.058,0.318 -0.106,2.964 0.318,4.128 -2.011,0.635 -4.869,1.587 -6.35,0.741 0.211,-2.858 -1.694,-5.186 -3.069,-9.102 -0.847,-2.434 -1.27,-4.445 -2.54,-8.043 -1.059,-2.858 -1.8,-4.763 -1.165,-6.35 1.482,-2.011 4.34,-2.963 6.35,-3.598 l 2.435,0.635 c 1.375,0.846 1.27,3.809 2.751,4.762 z"/>
  <path fill="#201a20" d="m 353.803,279.712 c -1.376,-3.704 -3.704,-1.376 -5.609,-0.635 l -3.916,1.27 c -0.953,0.317 -3.81,0 -4.339,1.587 0.423,1.27 0.529,3.705 3.069,3.493 1.07,4.369 1.673,8.839 1.799,13.335 0.423,1.27 0,2.857 0.423,4.021 -1.799,-2.116 -4.762,-3.704 -6.985,-7.196 -1.799,-2.752 -8.043,-7.408 -4.445,-8.996 -0.423,-1.27 -1.587,-2.222 -2.434,-1.905 -2.328,0.847 -6.667,2.434 -8.149,4.339 0.529,1.27 1.482,0.953 2.858,1.799 l 1.905,-0.74 c 0.952,-0.318 1.799,1.693 2.645,2.751 2.54,3.175 5.398,5.186 7.938,8.255 1.058,1.376 2.434,1.905 4.233,4.022 0.529,1.27 2.434,3.386 2.434,3.386 -0.317,2.54 0.529,4.128 0,5.715 0,10.69 -0.952,20.426 -0.106,30.692 -3.492,1.164 -3.175,3.175 -2.751,4.445 0,0 0.846,2.434 1.799,2.117 1.058,-0.424 0.529,-1.588 1.482,-2.011 l 1.799,-0.635 c 1.799,-0.741 3.598,-0.847 4.974,-1.376 0.952,-0.423 2.646,-0.635 3.598,-1.058 0.953,-0.318 0.424,-2.434 0,-3.704 -1.376,-0.847 -3.175,-0.212 -3.704,-1.376 -1.164,-5.504 0.635,-17.145 -0.529,-23.919 3.281,2.964 6.138,7.62 8.467,10.901 2.328,3.493 5.609,6.456 8.043,9.843 l -3.81,1.376 c 0.423,1.27 1.799,2.116 1.799,2.116 3.387,0.106 5.292,-0.529 7.62,-2.857 l 0.529,-1.588 c -1.481,-0.846 -2.328,-0.529 -3.281,-0.211 -5.291,-5.08 -10.9,-14.288 -16.51,-20.638 -0.423,-1.27 -2.328,-3.387 -3.175,-5.821 -0.635,-1.376 -0.529,-2.857 -0.635,-4.233 -0.68,-8.113 -0.467,-16.276 0.635,-24.342 0.847,-0.317 2.752,-1.058 2.329,-2.222 z"/>
  <path fill="#201a20" d="m 402.168,268.07 c 3.81,-1.693 -0.211,-5.821 -1.375,-8.361 -0.53,-1.27 -2.117,-2.116 -2.117,-2.116 l -9.419,4.233 c -3.175,2.752 -6.985,4.445 -10.266,7.408 l 1.058,2.435 3.81,-1.694 4.869,11.219 2.116,4.974 5.292,12.594 1.164,2.434 c 3.175,7.62 6.879,13.335 9.102,21.167 l -3.81,1.693 1.058,2.54 c 5.46,-1.088 10.759,-2.866 15.769,-5.292 l 4.763,-2.116 c 0.423,-1.588 0.846,-3.175 0.317,-4.551 -1.058,-2.54 -2.751,-6.139 -4.656,-5.292 -1.376,2.011 2.116,4.868 0.846,6.879 -2.963,1.27 -4.762,2.117 -8.149,2.117 l -5.08,-11.007 c -1.587,-3.598 -4.445,-8.466 -5.186,-12.7 l 4.763,-2.116 0.529,1.27 c 0.529,1.27 2.963,1.693 2.963,1.693 1.905,-0.741 -3.175,-7.514 -3.281,-10.372 l -2.434,-0.423 c -1.058,0.423 0,2.858 0.529,4.022 -1.799,0.846 -4.656,2.116 -6.138,1.376 -0.106,-2.964 -2.117,-5.08 -3.81,-8.89 l -3.175,-7.832 c -1.27,-2.752 -2.116,-4.657 -1.693,-6.244 1.376,-2.117 4.127,-3.175 6.032,-4.128 l 2.434,0.529 c 1.482,0.741 1.588,3.599 3.175,4.551 z"/>
  <path fill="#201a20" d="m 427.992,313.049 c 0.529,1.27 2.116,2.117 3.704,2.964 2.473,-0.892 4.665,-2.427 6.35,-4.445 l 1.799,-0.847 c 4.022,-1.799 4.763,-5.292 6.138,-7.408 0.635,-6.562 1.588,-14.711 -1.905,-22.437 -1.375,-5.609 -4.127,-10.054 -6.35,-14.076 -2.275,-3.84 -5.091,-7.333 -8.36,-10.371 -2.117,-2.117 -4.234,-4.34 -6.774,-4.657 -1.587,-0.847 -4.127,-1.27 -5.715,-2.117 -0.529,0 -0.846,0.424 -0.846,0.424 -2.646,0.635 -3.175,1.375 -4.975,2.222 -2.01,0.953 -4.021,1.799 -5.291,3.916 l -0.424,1.799 c -0.423,1.799 -1.375,2.117 -0.846,3.387 1.799,3.916 2.646,0.423 4.445,-0.424 l 2.434,5.292 c 2.993,4.247 5.479,8.829 7.408,13.653 1.799,3.81 5.08,8.466 8.044,15.028 l 6.35,14.181 c -0.847,0.424 -0.318,1.694 -1.376,2.117 z M 414.657,255.37 c 2.116,-0.952 3.069,-1.376 4.551,-0.635 4.656,2.646 7.62,9.102 11.641,15.029 l 1.694,3.915 c 2.751,3.387 3.492,7.62 4.656,10.266 2.329,5.186 4.763,10.372 4.445,15.134 0,0 0.635,1.27 -0.317,1.694 0,0 -1.059,0.423 -0.424,1.799 -0.952,0.423 -1.375,2.116 -2.328,2.54 -1.587,-0.741 -1.164,-2.54 -2.434,-5.186 -1.058,-2.54 -3.281,-4.657 -4.445,-7.197 l -5.821,-12.911 c -1.799,-3.916 -3.175,-6.033 -4.551,-8.89 -1.058,-2.54 -2.54,-5.08 -4.233,-8.89 -0.847,-1.799 -2.752,-5.08 -2.434,-6.668 z"/>
  <path fill="#201a20" d="m 484.401,231.24 c -1.799,-3.704 -4.234,-11.43 -7.091,-10.16 l -3.704,1.8 -18.733,8.784 c -0.317,1.693 0.318,2.963 1.799,3.704 1.588,0.847 2.752,-1.376 4.657,-2.117 2.117,1.905 2.858,6.033 4.022,8.467 1.799,3.704 5.08,8.255 6.773,11.853 1.164,2.434 0.847,4.233 1.376,5.292 2.117,2.116 1.799,3.704 2.963,6.244 l 4.657,9.737 c 0.847,4.127 4.022,8.572 2.752,10.689 0,0 -0.953,0.423 -1.27,2.116 0.635,1.165 1.164,2.435 2.116,2.117 0.953,-0.529 3.387,-0.212 4.234,-0.635 1.905,-0.952 2.222,-2.54 3.175,-2.963 1.058,-0.529 2.434,0.317 1.905,-0.847 2.751,-1.376 -1.8,-3.704 -2.646,-3.281 -2.117,-2.116 -3.175,-4.551 -4.445,-6.985 l -1.694,-3.598 c -1.539,-2.844 -2.611,-5.917 -3.175,-9.102 -1.693,-3.598 -3.81,-5.715 -3.175,-8.996 0.847,-0.423 1.905,-0.952 3.387,0 l 1.058,2.329 2.329,-2.54 c -1.799,-3.704 -4.234,-11.853 -8.044,-9.631 l 2.329,4.868 -2.858,1.27 c -1.376,-0.741 -1.693,-3.598 -2.328,-4.868 -2.223,-4.868 -6.033,-10.583 -6.35,-13.441 2.222,-2.646 5.927,-4.339 9.737,-6.138 1.693,3.704 2.857,6.138 4.974,8.149 0.846,-0.529 1.799,-0.952 1.27,-2.117 z"/>
  <path fill="#201a20" d="m 527.475,264.366 c -0.212,-5.292 -1.059,-10.689 -2.858,-17.251 -1.27,-5.397 -3.492,-9.842 -5.08,-13.546 -0.963,-2.198 -2.022,-4.352 -3.175,-6.456 -3.386,-6.138 -8.043,-10.795 -12.065,-12.065 -3.598,-2.858 -6.032,-3.175 -9.736,-1.588 -7.197,1.694 -5.715,10.055 -6.35,16.299 -0.424,1.587 0.846,4.233 1.587,6.985 0.529,1.27 1.059,3.175 1.588,4.974 1.058,3.492 2.222,4.974 3.386,7.408 2.223,5.08 4.445,10.054 7.62,14.499 2.646,3.281 4.974,5.609 6.774,7.409 4.868,4.656 13.546,6.138 17.356,-1.8 0.529,-1.058 0.953,-3.069 0.847,-4.868 z m -4.551,1.058 c 0.317,2.54 -3.81,5.715 -6.138,4.551 -1.059,-0.635 -1.059,-1.905 -1.905,-1.481 -1.588,-0.847 -2.646,-3.387 -4.763,-5.398 -4.233,-6.879 -9.631,-16.51 -13.229,-26.881 -1.058,-2.435 -2.222,-4.975 -2.434,-7.832 -0.741,-4.233 -0.847,-6.985 0,-10.372 1.799,-0.846 2.117,-0.635 3.81,-1.481 2.434,0.423 4.868,3.492 6.879,5.503 2.117,2.117 3.175,4.551 5.292,6.667 1.058,2.435 2.54,4.657 3.598,7.197 l 2.54,6.35 c 1.693,3.81 3.387,7.514 4.233,11.642 0.741,3.175 1.694,8.678 2.117,11.43 z"/>
  <path fill="#201a20" d="m 541.339,225.631 c -0.529,-1.376 -1.588,-0.952 -2.117,-2.222 l 0.529,-1.799 c 0.53,-1.588 1.059,-4.445 0.953,-6.456 -0.591,-3.803 -2.039,-7.422 -4.233,-10.584 -4.234,-7.196 -13.124,-4.233 -18.733,-0.423 -0.952,0.318 -1.058,1.27 -2.011,1.588 -3.069,1.27 -4.233,1.799 -2.751,5.715 0.529,1.375 2.434,1.27 4.339,0.529 2.646,6.667 4.868,10.583 6.773,16.404 l 1.058,3.598 c 2.011,2.117 2.117,5.292 3.07,7.938 L 537,262.461 c -1.059,0.423 -2.011,0.741 -2.54,2.434 2.116,2.329 3.069,1.905 5.08,1.059 1.481,-2.117 6.138,-2.752 8.149,-3.493 0.952,-0.423 0.423,-1.27 -0.106,-2.646 -0.529,-1.27 -2.54,-0.529 -3.069,-1.799 -2.011,-2.328 -2.963,-4.974 -4.022,-7.726 -2.116,-5.291 -6.244,-12.911 -7.726,-20.002 -0.529,-1.164 0.424,-1.588 1.482,-2.011 1.482,0.847 2.434,0.529 2.963,1.799 1.588,1.059 2.117,1.694 3.387,2.858 4.233,3.598 5.292,9.525 7.938,14.393 4.233,7.726 2.116,10.901 5.185,12.7 2.964,-0.741 7.514,-1.376 5.927,-5.292 -0.423,-1.376 -1.376,-1.058 -2.434,-0.635 -4.657,-8.996 -9.208,-23.389 -15.875,-28.575 z m -18.838,-18.626 c 1.058,-0.318 3.915,-1.694 4.974,-2.117 1.481,1.058 2.857,1.482 3.492,3.387 1.059,2.54 1.376,2.116 2.117,5.291 0.423,1.905 0.529,4.234 1.058,5.609 -0.423,1.8 -4.127,5.821 -4.868,4.128 z"/>
  <path fill="#201a20" d="m 599.441,243.623 c -1.058,0.106 -2.116,4.021 -2.011,5.397 0.212,1.27 1.8,0.424 2.858,0.212 2.117,-0.318 3.916,-1.058 6.032,-1.27 l 1.376,0.212 c 2.011,-1.8 -0.423,-2.964 -0.635,-4.234 l -1.164,-8.466 c -2.752,-12.171 -5.08,-24.448 -7.62,-35.243 -0.529,-2.222 -1.27,-4.762 -2.646,-7.196 -0.423,-2.858 -3.386,-8.044 -5.821,-9.102 -2.222,-1.27 -4.021,2.011 -4.021,2.011 -1.785,4.718 -2.855,9.676 -3.175,14.711 -0.741,2.963 -1.27,7.196 -0.635,11.324 0.317,9.948 1.058,22.542 1.27,31.115 0.211,1.481 0.423,2.857 -0.635,2.963 -1.059,0.212 -2.011,1.587 -2.752,3.175 l 2.54,2.434 c 2.858,-1.905 6.35,0.635 9.102,-2.752 l -0.212,-2.751 c -1.164,-1.059 -2.117,0.317 -3.387,-0.847 -1.058,-7.196 -2.116,-13.864 -1.693,-19.579 -0.423,-2.963 -0.847,-5.715 0,-7.302 3.175,-0.424 6.562,0.529 8.573,0.211 2.116,6.774 3.492,16.51 4.762,24.977 z m -12.7,-50.8 0.953,-1.587 c 1.058,-0.106 1.27,1.269 1.27,1.269 1.693,3.916 3.386,9.525 4.021,13.759 l 1.165,8.255 c -2.011,0.211 -5.186,0.741 -8.467,0 -0.212,-1.694 0.106,-6.033 0,-7.303 0.212,-5.715 0.635,-10.16 1.058,-14.393 z"/>
  <path fill="#201a20" d="m 625.688,183.827 c 0,-1.693 0.211,-1.799 -0.741,-1.905 -3.281,-0.635 -7.62,0.318 -10.795,0.212 h -1.058 v 2.752 c 1.058,1.375 2.01,1.375 2.01,2.751 0.953,4.233 0.741,9.737 0.635,13.97 l -0.317,12.277 v 1.481 c -0.037,7.826 -0.602,15.64 -1.693,23.39 0,2.857 0,4.233 -1.059,5.503 -1.164,0 -2.116,0 -2.222,1.27 0,1.481 1.058,1.481 2.116,2.857 5.186,-1.164 11.43,0.318 17.78,-0.846 1.059,-1.482 0.106,-4.234 0.106,-5.504 0.106,-4.233 1.27,-9.736 -0.635,-12.488 0,0 -1.058,-1.376 -2.116,0 l -0.212,5.503 -0.212,8.255 h -1.058 L 624.1,243.2 h -2.011 c -1.058,-0.212 -1.058,0 -1.058,-1.376 -0.529,-19.474 2.117,-35.984 2.54,-53.975 0,-1.27 1.058,-1.27 2.117,-4.022 z m 30.903,3.281 c 0.317,-1.587 0.529,-1.693 -0.423,-2.011 -3.175,-1.058 -7.62,-0.635 -10.584,-1.058 l -1.164,-0.212 -0.423,2.752 c 0.847,1.482 1.905,1.693 1.693,2.963 0.318,4.233 -0.529,9.737 -1.164,13.97 l -1.905,12.171 -0.317,1.376 c -1.059,6.773 -2.54,16.298 -4.657,22.966 -0.529,2.857 -0.741,4.127 -1.905,5.291 -1.058,-0.106 -2.117,-0.317 -2.328,1.058 -0.212,1.376 0.74,1.588 1.693,3.07 5.292,-0.53 11.324,1.799 17.78,1.481 1.27,-1.27 0.635,-4.127 0.847,-5.397 0.635,-4.128 2.54,-9.525 1.058,-12.488 0,0 -0.953,-1.482 -2.117,-0.318 l -0.952,5.398 -1.27,8.149 -1.059,-0.106 -2.116,-0.318 -2.011,-0.317 c -1.058,-0.318 -1.058,-0.212 -0.847,-1.588 2.117,-19.261 6.774,-35.348 9.525,-53.022 0.318,-1.376 1.27,-1.164 2.752,-3.81 z"/>
  <path fill="#201a20" d="m 662.941,240.342 c 1.058,-5.609 3.492,-9.207 4.974,-14.605 1.058,-3.704 1.482,-8.996 2.963,-13.97 2.117,-7.514 6.033,-14.393 5.61,-20.002 0.635,-2.434 -2.117,-3.387 -4.022,-3.916 -1.27,1.058 -2.646,6.032 -3.387,8.466 -0.317,1.165 -1.27,0.847 -0.635,2.435 l -0.423,1.27 c -1.588,5.926 -2.434,12.594 -3.281,17.885 -0.847,4.234 -0.212,5.292 -1.27,9.102 -1.058,3.81 -2.752,10.054 -1.587,13.123 z m -5.503,6.879 c -0.847,3.81 0.423,6.773 2.645,5.927 2.858,0.635 4.022,-4.234 2.435,-6.033 -1.588,-1.693 -4.445,-2.434 -5.08,0.106 z"/>
</svg>