<svg xmlns="http://www.w3.org/2000/svg" xml:space="preserve" width="800" height="580">
  <path fill="#93bce6" d="m 202.2,8.5 c -6.9,2.2 -11,9.2 -9.1,13.6 0.7,1.5 3.2,3.4 4.5,3.1 4.7,-0.6 11.2,-9.8 9.5,-13.2 -1,-1.9 -3.8,-2.8 -4.8,-3.5 z m -29.4,4.8 c -1.3,0 -2.7,0.4 -4.2,1 -4.7,1.7 -6.8,7 -5,12.3 1.7,4.8 6.2,7.2 10.9,5.6 3,-1 7.5,-9.3 6.5,-12.2 h 0.1 c -1.5,-4.4 -4.4,-6.7 -8.3,-6.7 z m 42.5,10.8 c -0.4,0 -0.8,0 -1,0.2 -0.8,0.7 -11.8,5.6 -11.6,11.3 2.4,4 10.2,1.3 15,1.2 1.4,0 4,-2.3 4,-3.5 0,-2.7 -1,-5.6 -2.5,-7.9 -0.5,-0.8 -2.5,-1.4 -3.9,-1.3 z m 30,17.7 c -2,0 -4.4,0.5 -7.1,1.5 -4.9,1.6 -5.4,5 -4,8.7 3.4,10.4 9.6,13.4 19.2,9 2,-1.7 1.1,-5.1 1.1,-6.9 0,-8.5 -3,-12.5 -9.2,-12.3 z m -78,1.4 c -2.1,0 -4.3,0.2 -6.3,0.9 -2.9,0.8 -7.1,4.7 -6.5,8.1 0.5,3 3.6,4.1 6,4.9 3.3,1.1 5.5,1.8 9.9,1.2 5.3,-3.1 4.9,-7 6.4,-10.3 0.4,-0.8 -2,-4.2 -2.7,-4.3 -2.2,-0.3 -4.5,-0.5 -6.7,-0.5 z m 108.4,3.3 c -8,0.8 -13.2,7.8 -12,17 0.5,3.4 2.1,7.6 7.8,5.8 10.7,-1 15,-4.7 14.6,-12.6 -0.2,-3.9 -2.8,-10.9 -10.4,-10.2 z m -65,0.1 c -7,0.3 -30.6,9.2 -31,10.7 -1,1.4 0.3,1.5 0.5,2.1 8.5,3.7 27.4,-0.4 32.4,-12.4 -0.2,-0.3 -0.9,-0.4 -1.9,-0.4 z m 8,11.4 c -4.2,2.5 -10.2,4 -12.2,7.5 -2.9,5.5 0.4,11.6 4.6,16.2 4.1,4.5 8.9,3.1 13.5,0.4 2.7,-1.6 5.4,-3 8.3,-4 4.8,-2 4.4,-5.6 2.4,-9.1 -3.4,-6 -6.5,-10 -16.7,-11 z m -46.5,14.7 c -5.7,0.2 -9.1,4 -9.8,12 -0.3,2.8 0.6,7.2 2.4,8.4 3,1.7 7.2,1.4 10.8,1.9 5,0 8.1,-4 8.9,-11.2 0.6,-5.8 -3.7,-10.3 -10.5,-11 h -1.8 z m 106.7,4.2 c -6.5,0 -10,4.4 -14,8.1 -3.8,3.6 -3.8,7.5 0.6,10.3 2.4,1.4 5,2.7 7.6,3.7 6.2,2.3 11.1,-1 14.2,-5.3 a 16,16 0 0 0 1.8,-12 c -0.6,-2.3 -5.8,-3.2 -9,-4.8 h 0.1 z M 232.5,93 c -2,3.2 -1,5 2.7,5 6,0.2 12.1,0 18.4,0 0.8,-5 -1.2,-8.6 -4,-11 -3.6,-3 -8.8,-4.1 -10.1,-3.8 -1.9,0.6 -4.5,6 -7,9.8 z m -94,-3 c -1.2,0 -2.5,0 -3.7,0.2 -5.6,0.7 -11.7,3 -12.2,9 -0.3,3.5 3,8.4 6.1,11.3 4.7,4.3 10.2,5.3 17.3,4.1 8.5,-1.4 9,-8 12.5,-13.2 -6.5,-8.2 -12,-11.5 -20,-11.5 z m 49.5,20.2 c 4.2,-1.3 8.7,-2 12,-4.2 2.8,-1.8 3.5,-9.8 3.5,-9.8 -3.7,-2.8 -7.8,-2.5 -12.7,1.7 -3.5,3 -3.5,8.2 -2.8,12.3 z m -32.4,11.6 c -4.3,0 -8.3,2 -12.2,3.7 -3.2,1.4 -6.4,4.6 -3.9,8 1.5,2 6.6,3.6 8.7,2.6 5.8,-2.7 11,-6.9 17,-11 -2.8,-2 -6.1,-3.3 -9.6,-3.3 z m 9.6,3.4 z M 580.7,388 c -2.8,0 -5.7,0.9 -7.4,2.8 -2.5,2.7 -4.5,5.8 -6.4,8.4 3.5,5.2 3.6,14 10.3,15.5 4.9,-0.5 6,-7.2 9,-10 4.8,-4.2 5.8,-10.2 2,-14.1 -2,-1.8 -4.8,-2.8 -7.5,-2.6 z m 25.8,16.3 c -8.8,0.3 -19.4,10.7 -19.3,19.5 16.4,4.9 20.6,0.5 26.6,-5.9 1.7,-1.7 3,-5.5 2.1,-7.3 -1.4,-2.8 -3.8,-5 -6.8,-6 -0.8,-0.2 -1.7,-0.3 -2.6,-0.3 z m -46,4.5 c -4.2,5 -20.3,15.4 -13,15.4 h 12.2 c -0.5,-5.2 11.6,-8.9 0.9,-15.4 z m -4.3,25 c -9,-0.2 -16.6,7 -16.8,16 -0.1,4 7.5,11.7 11.8,11.7 5.3,0.1 14.2,-10.4 14.3,-17 0.1,-4.5 -5.3,-10.7 -9.3,-10.7 z m 30.8,2.7 h -0.5 c -3.2,0.6 -8,3.8 -8.6,6.5 -1.4,6.2 8,14.7 14.6,14.7 5.2,0 9,-3.6 8.9,-8.3 -0.2,-4.2 -9.3,-13 -14.4,-12.9 z m 47.6,18 c -1.9,0 -4,0.7 -5.8,2 -1.9,1.2 -4,3.6 -3.2,6.9 4.1,2.2 6,1.9 7.6,1.6 2.8,-0.6 7.6,-1.5 8.5,-4.9 a 6.9,6.9 0 0 0 -7,-5.6 z m 25.2,2 c -3.9,0 -6.8,2.7 -6.1,6.6 0.7,3.4 1.8,8.2 5.7,9.2 5.2,-0.6 12.6,-8.6 11.6,-10.1 -0.1,-1 -0.4,-2.6 -1,-2.3 -3.2,-1.2 -6.2,-3 -9.4,-3.3 h -0.8 z m -94.5,6.1 c -6.3,7 -13.8,9 -22.5,5.7 -1.2,3.9 -1.9,6.7 -0.2,9 2.5,3.3 7.6,5.2 10.1,6.9 4.5,-3 9.4,-4.6 11.4,-8 4.8,-7.7 4.2,-8.6 1.2,-13.6 z m 116.6,0.9 -2,0.1 c -2.4,0.4 -6.4,3 -7,6.7 4.6,13.9 18,-0.8 17.6,-3.3 -1.4,-2.8 -5.5,-3.5 -8.6,-3.5 z m -91.4,1.2 c -11.6,1.2 -15,4.6 -16.9,13.3 -1.1,5.3 1.9,8.1 6.9,6.2 4.4,-1.6 9.2,-3.2 12.8,-6 1.3,-1.2 6.8,-4 5.4,-9.8 z m 76.6,12.7 c -1,0 -3.2,0.6 -4.6,1.1 -2.6,1.9 -3,2.4 -5,4.7 -1,6.7 3.3,6.8 5.3,7.8 0.3,0.2 3.6,1.3 4,1.3 3.3,0.2 4.8,-1 7.6,-3 1.5,-1 2.9,-4.2 2.7,-6 -2.7,-3.2 -4.2,-3.8 -7,-5.2 -0.7,-0.3 -2.1,-0.7 -3,-0.7 z M 534,482.9 c -2,0.1 -3.8,0.8 -5.3,1.9 -4.6,3 -7,8 -5.4,13 1,3 3.6,7.8 8.6,8 8.2,0 8.3,-3.4 12.6,-6 4.3,-2.7 3.5,-7 -1.2,-9.5 -2,-1.1 -2,-2.7 -3.5,-4.4 a 7.3,7.3 0 0 0 -5.8,-3 z m 63.8,3.4 h -0.6 v 0.1 l -16.1,6 c -6.7,2.5 -7.5,5.4 -3,10.7 4.5,5.3 10.6,7.7 16.8,6.3 4.3,-1 9.6,-4.5 11.4,-8.2 2.5,-5 0.4,-11 -4.5,-13.4 -1.2,-0.6 -5.3,-1.3 -4,-1.5 z m 43.6,2 h -1 c -1,0.1 -2.2,0.5 -3.5,1 -2.4,7.6 2,11.5 6,14.8 2,1.6 6,2 8.5,1 1.4,-0.6 2.8,-3.4 3,-5.5 v -1.4 c -0.4,-2.2 -2.3,-5.7 -4.6,-6.7 -2.7,-1.2 -5,-3.2 -8.4,-3.2 z m -4.5,1 z m -80.2,16.5 c -4.6,-0.1 -9.1,6.8 -9.5,14.1 -0.3,4.5 5.2,10.9 9.5,11 8.3,0.3 18,-6.5 18.2,-14.5 -1,-1.8 -2.2,-6 -5,-7.7 -3.5,-2.1 -8.4,-2.3 -12.8,-2.9 z" />
  <path fill="#88d5b8" d="m 664.6,16.5 c -3,0.2 -6.3,3 -11.8,8 l -3.3,3.1 a 79.3,79.3 0 0 0 -23,47.4 c -0.2,1.9 0.8,4.4 2,5.9 4.2,4.7 8.6,9.2 13,13.8 1.7,1.8 3.6,3.3 6.4,6 0.8,-14.1 -1.2,-26.9 4,-39 5.7,4.4 5.8,7.2 5.3,14 -0.8,10.4 -0.2,20.9 -0.2,31.2 8.2,-5.5 16.2,-11.5 24.9,-16.2 4.4,-2.3 6.5,-4.9 7.8,-9.4 a 49.6,49.6 0 0 0 -2,-34.5 94.7,94.7 0 0 0 -10.4,-18 c -5.9,-8.6 -9,-12.6 -12.7,-12.3 z M 657,106.9 Z M 197.9,67.4 Z m 0,0 c -1.2,0.4 -7.4,0.1 -8.4,0.5 2.5,7.4 9.6,17.5 14.3,19.6 -5.5,-17.5 -4.3,-18 -6,-20 z m -120.3,5 a 6,6 0 0 0 -2,0.3 c -0.7,0 -1.2,0.3 -1.6,0.6 -0.7,0.5 -1.3,1.1 -1.8,1.9 -0.5,0.8 -1,1.7 -1.4,2.7 a 63.4,63.4 0 0 0 -2.4,17.7 c 0.1,1 0.9,4.5 2,9 4,-0.1 8.1,0.2 12.3,1.2 a 35,35 0 0 1 27.5,32.5 c 1,10.1 3.5,20.1 5.3,29.9 1,0.1 1.1,0.3 1.3,0.3 12.3,0.3 15.5,-9 20.5,-16.7 -12.9,-14.4 -36.2,-41.2 -39.1,-49.1 -2.7,-7.2 17.6,14.3 32.2,30.2 0.1,-2.6 0.9,-5.5 2.4,-9 -10.8,-8 -25,-14.7 -16,-32.4 l 0.7,-1 -1,-0.7 c -6.4,-4 -13,-8 -16.6,-9.9 -5.4,-2.8 -11,-5 -16.8,-6.6 a 24,24 0 0 0 -5.5,-0.8 z m 245.1,6 H 320 c -0.7,0.1 -4.2,1 -8.2,2.2 l -0.5,0.2 -6,2 c -2,1 -3.9,1.8 -5.3,2.7 0.3,5.5 -2.5,10.5 -8.5,15.8 -0.6,0.6 -1,1.4 -2.3,2.8 l 31,14.1 0.3,-0.5 c 3,-5 8.8,-14.8 10.6,-18.4 l 1.8,-4 c 1.3,-3.2 2.3,-6.6 2.8,-10.1 v -2 a 4,4 0 0 0 -0.6,-1.5 5.4,5.4 0 0 0 -2.2,-1.6 30,30 0 0 0 -10.2,-1.8 z m 421.2,0.7 c -8,0 -15.9,1.8 -23.7,3.6 -19.3,4.3 -35,15.7 -50.6,26.8 -3.6,2.6 -7.7,7.6 -7.6,11.4 0.3,7.2 3.5,14.2 5.4,21 9.3,-8.8 18.2,-17.9 28,-26 4.6,-3.8 10.8,-6 16.3,-8.8 1,-0.4 2.6,0.3 3.8,0.6 -0.3,1.5 -0.2,3.6 -1.2,4.5 -8,6.8 -16.5,13 -24.2,20.2 -7.5,7 -14.3,14.8 -21.3,22.2 l 26,17.6 c 40.9,-15.8 60.7,-47 63.8,-90.6 -5,-1.8 -9.9,-2.5 -14.7,-2.5 z m -532.6,10.1 3,13 8.8,-2.8 c -0.2,-2.3 -1.2,-6.8 -1.4,-8.9 -3.2,0 -5.4,3 -10.4,-1.3 z m 526.6,70 c -3.6,0.1 -6.3,1.8 -9.6,4.3 -8.5,6.3 -17.8,11.7 -27.4,18 1.3,0.7 3.2,2.6 5.4,3 10,1.6 19.9,2.4 29.7,4.3 4.8,0.9 9.2,3.6 13.7,5.5 l -0.8,2.9 -40.3,-3.2 c 2.2,5.3 4.8,9.7 5.8,14.4 1.8,8.2 7.9,11.5 14.3,11.8 10.7,0.4 21.9,0.3 32,-2.6 10.7,-3.1 20.4,-9.8 31,-15.1 -1.6,-3.8 -1.9,-5.6 -3,-6.9 -12.3,-15.3 -26,-28.6 -45.4,-35.4 -2,-0.7 -3.8,-1 -5.4,-1 z m 53.8,43.3 z m -661,211 c -1.2,0 -2.6,0.5 -3.4,1 -16.3,11.4 -22.6,28.4 -25.7,47 -0.2,1.1 0.7,3.1 1.7,3.7 18.8,10.9 38.3,17.7 59.6,6.9 2.6,-1.3 4.6,-4.5 6,-7.2 1.8,-3.9 2.8,-8.2 4.2,-12.3 l 2.6,-9.2 c -15.2,4.8 -28.7,11.8 -44.3,10.7 16,-12.8 38,-14 53.3,-26.7 -11.4,-2.4 -22.7,-4.3 -33.8,-7 -6.6,-1.7 -12.8,-4.6 -19.2,-6.7 l -1,-0.1 z m 101,8.5 c -8.4,0.7 -16.7,2.2 -25,2 -7.4,-0.1 -11.1,4 -13.8,9.4 -5.6,11 -11,22.2 -15.5,33.7 -3,8 -4.6,16.7 -6.2,25.2 a 195,195 0 0 0 -1.3,53.4 c 0.8,8.1 2.3,16.1 3.4,24.4 20,-5.8 37,-12.8 51.3,-25.7 16.6,-15 30.2,-31.6 36.6,-53.5 4.6,-15.7 9.3,-31.4 8.3,-48 -0.2,-3.6 -1.7,-8 -4.2,-10.2 -4.5,-3.7 -10,-6 -15.4,-8.6 -3.5,-1.8 -6.4,-1.4 -6.8,3.6 a 23,23 0 0 1 -1.4,5.6 c -7.6,21 -15.2,42.2 -23.3,63 -2.3,5.7 -4,12.7 -13.1,14.1 h -0.1 l 32,-87.4 c -2.7,-0.5 -4.2,-1 -5.6,-1 z m 47,17.4 -2.3,1.9 c 2.7,6.5 5.1,13 8,19.3 7,15.5 12,31.4 13.2,48.4 0.2,3.1 1.5,7.6 -3.7,7.4 l -15.5,-49.9 v -0.1 l -2.2,0.3 c -2.2,8.3 -4.2,16.7 -6.6,25 -3,10.2 -5.3,20.8 -12.8,29 -2.4,2.7 -1.7,5.7 0.8,8.1 4.3,4 8.4,8.6 13.3,11.9 a 425,425 0 0 0 27.6,16.3 c 2.8,1.6 5.8,1.4 7.5,-2.6 2.6,-6.2 5.7,-12.2 8.5,-18.3 a 99.5,99.5 0 0 0 9.6,-57.5 c -1,-6.6 -2.7,-15.5 -7.4,-18.8 -11.7,-8.2 -25.2,-13.8 -38,-20.4 z m 242,12.1 c 3.5,5.9 6.6,12.3 9.8,17.6 l 0.1,-0.2 c 3.3,-3.6 6.8,-10.8 5.8,-13.6 -1.6,-4.4 -8.9,-1.4 -15.8,-3.8 z m 86.8,13.9 h -0.1 z m 0,0 -1.4,1.8 c 1.5,1.5 2.7,3.8 4.5,4.3 4.6,1.5 9.5,2.8 14.3,3.2 4.8,0.4 9.8,-0.4 9.3,6 9.8,0.7 24.5,3.4 11.7,-14.4 0,-0.9 -8.5,3.6 -8.4,2.7 -9.8,3 -29.7,-3.5 -30,-3.6 z" />
  <path fill="#ffe8cc"  d="M 190.19922 28.5 L 186.19922 29.099609 C 180.69922 30.699608 176.2 36.300787 178.5 41.800781 C 180.2 47.400776 186.3004 49.100389 192.40039 47.400391 C 197.90039 45.700392 201.79961 40.199604 200.09961 34.599609 A 10.5 10.5 0 0 0 190.09961 28.599609 L 190.19922 28.5 z M 190.19922 34.099609 L 192.40039 34.099609 L 194.59961 36.300781 C 195.19961 38.00078 193.99921 40.700782 190.19922 41.800781 C 186.79922 43.50078 184.6 41.799217 183.5 40.199219 C 182.9 38.49922 184.60039 35.699608 187.90039 34.599609 L 190.19922 34.099609 z M 252.90039 65.699219 A 18 18 0 0 0 245 68 C 242.8 69.699998 241.09961 71.999221 241.09961 74.699219 C 241.09961 77.499216 242.79961 79.700392 245.09961 81.400391 A 18 18 0 0 0 252.80078 83.599609 A 18 18 0 0 0 260.59961 81.400391 C 262.19961 79.700392 263.90039 77.399216 263.90039 74.699219 A 9 9 0 0 0 260.59961 68 A 18 18 0 0 0 252.80078 65.800781 L 252.90039 65.699219 z M 252.90039 71.300781 L 257.30078 72.300781 L 258.40039 74.599609 C 258.40039 75.199609 258.40039 75.700782 257.40039 76.300781 A 6.3 6.3 0 0 1 252.90039 77.900391 C 251.20039 77.900391 249.60039 77.40078 248.40039 76.300781 C 247.40039 76.300781 246.80078 75.199609 246.80078 74.599609 C 246.80078 73.99961 246.80039 73.50039 248.40039 72.400391 L 252.90039 71.300781 z M 166.80078 99 A 22.2 22.2 0 0 0 160.19922 104.59961 A 10 10 0 0 0 159.09961 111.80078 C 160.09961 114.60078 162.39961 116.20078 164.59961 117.30078 L 172.90039 117.30078 C 175.70039 115.70078 178.49961 114.00078 179.59961 111.80078 C 180.69961 110.10078 181.79922 107.39961 180.69922 104.59961 C 180.29922 102.29961 178.50078 100.59961 176.30078 100.09961 L 170.19922 99.099609 L 169.59961 99 L 166.80078 99 z M 168.59961 104.59961 L 171.30078 104.59961 L 173.5 104.59961 C 174.6 104.59961 175.19922 105.59922 175.69922 106.19922 L 175.19922 109 L 171.19922 111.80078 L 166.19922 111.80078 C 165.19922 111.80078 164.59961 110.69961 164.59961 110.09961 L 164.59961 107.40039 L 168.59961 104.59961 z M 75.699219 113.5 C 72.199225 113.5 68.699603 114.19922 65.099609 114.69922 C 49.299641 116.69922 36.100757 124.8008 23.800781 134.30078 C 20.300789 136.90078 16.399605 139.5 14.099609 143 A 28 28 0 0 0 22.099609 180.59961 C 34.199585 188.79959 49.100419 191.59961 63.400391 188.09961 C 63.000391 186.59961 63.000389 185.39961 62.400391 184.59961 L 42 155.09961 C 36.000012 146.39963 36.200797 140.40037 43.800781 132.90039 C 47.200775 129.50039 51.299617 126.9 55.099609 124 C 58.499603 121.5 61.300785 122.40078 63.300781 125.80078 C 67.300773 132.80076 70.999617 139.8008 75.099609 147.30078 L 75.099609 147.19922 C 78.099603 146.19922 81.200787 145.69922 83.800781 144.19922 C 89.300771 141.29922 94.399221 137.80076 95.199219 130.80078 C 95.999217 123.8008 92.499988 119.79922 86.5 116.19922 C 83.200006 114.19922 79.499211 113.3 75.699219 113.5 z M 56 132.30078 L 48.400391 141.30078 C 51.900383 148.90076 57.400405 149.40078 64.400391 148.30078 L 58.599609 133.09961 A 48 48 0 0 1 56 132.30078 z M 102.69922 142 C 95.199232 146.4 88.499986 151.29961 81 154.09961 C 73.400016 156.99961 65.100371 157.69961 55.900391 159.59961 C 62.300377 167.09959 65.399237 176.99961 74.699219 182.09961 C 76.499215 183.09961 79.200004 183.69961 81 183.09961 C 88.999984 180.19961 96.799624 177.09961 104.59961 173.59961 C 105.89961 172.99961 107.10078 170.09961 106.80078 168.59961 C 105.70078 159.29963 104.00078 150.09998 102.80078 142 L 102.69922 142 z M 596 154 A 166 166 0 0 0 526 168.80078 C 505.20004 178.20076 484.99957 189.19924 464.59961 199.69922 C 447.79965 208.2992 431.40074 217.69924 414.30078 225.69922 C 394.40082 234.7992 373.99918 237.19924 353.69922 245.69922 L 317.5 257.5 C 300.20004 263.19998 283.39957 270.20002 266.09961 276.5 C 241.29965 285.49998 215.80074 292.00041 189.80078 296.90039 C 177.0008 299.20039 164.40037 302.29922 151.40039 302.69922 C 133.30043 303.39922 115.39957 301.0992 98.099609 295.69922 A 60.5 60.5 0 0 1 68.400391 278.5 C 65.200397 274.8 62.099994 270.89961 59 267.09961 L 56.199219 268.5 C 54.999221 274.79998 53.000781 281.10002 52.800781 287.5 C 52.500783 296.49998 53.400002 305.50002 54 314.5 C 54.999998 329.89996 58.999231 344.80041 65.199219 358.90039 C 66.499215 361.80039 67.699615 365.10039 70.099609 366.90039 C 92.099565 384.50035 116.49926 397.90041 142.69922 408.40039 A 111 111 0 0 0 196.69922 416.80078 C 212.59918 415.00078 228.39926 411.19961 244.69922 413.59961 C 245.39922 413.59961 246.39922 413.10039 247.19922 412.90039 C 254.2992 411.20039 261.39963 409.10039 268.59961 407.90039 C 279.09959 405.90039 289.90041 405.10039 300.40039 402.90039 C 312.10037 400.60039 324.00002 398.30039 335 393.90039 C 358.99996 384.20041 382.30004 373.09959 406 362.59961 C 427.59996 352.89963 449.49965 343.49959 471.09961 333.59961 C 482.09959 328.59961 493.09924 323.39998 503.69922 317.5 C 520.29918 308.20002 535.90004 296.99998 553 289 C 566.59998 282.60002 581.79963 279.10039 596.59961 275.40039 A 253 253 0 0 1 630.69922 269.80078 C 640.8992 268.80078 651.1008 269.00039 661.30078 268.40039 C 676.30076 267.60039 690.79924 269.69924 704.19922 277.19922 C 709.3992 279.99922 715.00041 282.2 720.90039 285 C 722.90039 271.40002 722.19959 258.89959 717.59961 246.59961 C 712.59961 232.69963 707.99959 218.60037 702.59961 204.90039 C 696.09963 187.90043 686.60074 173.20037 668.80078 165.90039 C 666.00078 164.70039 662.8 163.89961 660 162.59961 C 656 160.79961 652.40039 157.3 648.40039 157 A 660.3 660.3 0 0 0 596 154 z M 123.5 176.5 C 113.80002 180.2 105.10076 183.20078 96.800781 186.80078 C 82.200811 193.30076 67.600749 199.79961 51.300781 199.09961 A 67.7 67.7 0 0 1 13.900391 187.5 C 21.900375 209.49996 35.299637 225.59924 49.099609 241.69922 C 52.699603 245.9992 55.700399 250.0992 59.900391 242.19922 C 60.900389 240.19922 63.700004 239.19922 65.5 237.69922 C 79.499972 225.69924 96.600818 220.80078 114.30078 217.30078 L 123.5 176.5 z M 112.09961 227.5 A 78.6 78.6 0 0 0 68.699219 247.09961 C 66.699223 249.09961 65.899219 252.90039 65.699219 255.90039 C 64.999219 268.20037 75.300016 272.50041 83 277.90039 C 95.799974 287.10037 111.10082 289.9 127.30078 292.5 C 127.00078 290.8 127.10078 289.89961 126.80078 289.09961 C 117.4008 270.69965 116.79961 250.79918 116.09961 230.69922 C 116.09961 229.69922 113.70078 227.7 112.30078 227.5 L 112.09961 227.5 z M 658.30078 276.30078 C 654.2008 276.30078 650.00078 276.49922 645.80078 276.69922 C 643.80078 276.69922 641.10039 279.8 640.40039 282 A 167.4 167.4 0 0 1 613.69922 336.19922 C 609.99922 340.9992 606.69922 346.20041 603.19922 351.40039 C 608.5992 351.80039 612.99961 352.79922 617.09961 352.19922 C 628.29959 350.39922 639.50041 348.59961 650.40039 345.59961 C 673.40035 339.39963 695.40004 331.19996 713.5 314.5 C 720.59998 307.80002 723.89998 297.19959 712 291.09961 C 706.30002 288.29961 700.9992 284.80078 695.19922 282.30078 A 88.8 88.8 0 0 0 658.40039 276.30078 L 658.30078 276.30078 z M 689.30078 342.30078 L 679.5 345.59961 C 669.50002 348.79961 659.8992 353.10039 649.69922 354.90039 C 633.69924 357.70039 617.19996 358.6 601 360.5 C 598.9 360.7 596.09961 361 595.09961 362.5 C 591.09961 367.79998 587.70039 373.5 584.90039 378 L 601.90039 392.69922 C 621.90035 387.19922 642.49965 380.4992 663.59961 375.69922 C 674.89959 373.19922 686.89963 374.10041 695.59961 384.40039 C 696.59961 385.70039 698.29961 386.40078 699.59961 387.30078 L 701.90039 385.90039 L 689.40039 342.30078 L 689.30078 342.30078 z M 672.40039 382.90039 C 670.80039 382.90039 669.30078 382.90078 667.80078 383.30078 C 666.60078 383.60078 665.19922 386.1 665.19922 387.5 C 665.49922 396.19998 666.69922 405.0008 666.69922 413.80078 C 666.79922 426.90076 653.69959 438.30039 640.59961 436.90039 C 633.59963 436.20039 632.80039 434.69998 634.40039 427.5 C 635.50039 422.7 636.00039 417.70037 636.90039 411.40039 C 633.40039 412.60039 630.9 412.69961 629.5 414.09961 C 624.30002 419.59959 618.90039 425.09963 614.40039 431.09961 C 609.80041 437.29959 614.89961 442.10041 618.09961 446.90039 C 620.99961 451.30039 624.69961 448.49961 628.09961 447.59961 C 635.89959 445.59961 642.5008 447.79922 647.80078 453.19922 C 652.50078 451.19922 657.4 447.09922 661.5 447.69922 C 671.59998 449.19922 678.60002 444.49999 686 439.5 A 31 31 0 0 0 698.80078 401.40039 A 30.1 30.1 0 0 0 672.40039 382.90039 z M 656 384.59961 L 616.69922 396.69922 L 623.09961 405.80078 L 656 399.09961 L 656 384.59961 z M 647.80078 408.5 C 644.50078 408.6 644.8 412.29922 644.5 414.69922 C 643.9 418.9992 643.99922 423.39922 643.69922 428.19922 L 643.80078 428.19922 C 645.80078 427.79922 647.89961 427.80039 649.59961 426.90039 C 654.39959 424.70039 657.89961 421.39998 657.59961 415.5 C 657.39961 409.70002 652.60078 409.29961 648.80078 408.59961 L 647.80078 408.59961 L 647.80078 408.5 z M 574.90039 418.19922 C 569.3004 418.19922 563.80078 422.19922 563.80078 427.69922 C 563.80078 433.19921 569.30079 437.69922 574.80078 437.69922 C 580.40078 437.69922 586 433.19921 586 427.69922 C 586 422.09922 580.40039 418.19922 574.90039 418.19922 z M 574.90039 423.69922 L 574.90039 423.80078 C 577.60039 423.80078 580.40039 425.99922 580.40039 427.69922 C 580.40039 429.89922 577.60039 432.09961 574.90039 432.09961 C 571.50039 432.09961 569.30078 429.89922 569.30078 427.69922 C 569.30078 425.99922 571.50039 423.69922 574.90039 423.69922 z M 564.90039 483.80078 L 560.90039 484.30078 A 14.5 14.5 0 0 0 554.30078 488.69922 C 553.30078 490.99922 552.10078 493.2 553.30078 496 C 553.80078 498.7 556.00078 500.4 558.80078 501.5 C 560.80078 502 562.80078 502 564.80078 501.5 A 15 15 0 0 0 571 498.19922 L 572.69922 497.09961 C 573.69922 494.79961 574.89922 492.10078 573.69922 489.80078 C 573.19922 487.10078 570.99922 485.40078 568.19922 484.30078 A 11 11 0 0 0 564.90039 484.30078 L 564.90039 483.80078 z M 564.90039 489.30078 L 567.09961 489.30078 L 568.80078 491 L 568.19922 493.19922 C 567.69922 494.19922 566.00078 495.4 564.30078 496 L 560 496 C 558.9 496 558.90078 494.80078 558.30078 494.30078 L 558.90039 492.09961 L 562.80078 489.80078 L 565 489.80078 L 564.90039 489.30078 z "/>
  <path fill="#dc3137" d="m 547.1,55.3 c -20.2,-0.7 -39.8,3.2 -58.7,11.6 -20.8,9.3 -37.6,24.8 -53,41.8 -16.7,18.3 -29,39 -37.7,62.2 -1,2.5 -3.1,6.8 -4,6.6 -3,-0.7 -6.5,-2.2 -8.1,-4.6 -10.2,-14.2 -24.9,-23.2 -39,-32 a 389.7,389.7 0 0 0 -56,-27.9 123.5,123.5 0 0 0 -35.8,-7.4 c -22,-2 -42.2,6.3 -62.7,12.7 -4.4,1.4 -9,3.7 -12.4,6.7 -11.1,9.8 -22.5,19.4 -32.4,30.2 a 80.2,80.2 0 0 0 -14.5,24.3 c -7.8,20 -9,41 -7.2,62.5 1.4,16.4 3.7,32.4 11,47.3 1,2 4.2,4.2 6.3,4.3 6.3,0.2 12.7,-0.5 19,-1 26.4,-2.3 52,-8.2 77.2,-16.2 11.6,-3.7 23.2,-7.4 34.7,-11.5 18.9,-6.7 37.4,-14.9 56.6,-20.7 26,-7.9 52.4,-14.6 77,-26.4 19.5,-9.4 38.8,-19.5 58,-29.9 25.4,-13.8 50.8,-28 79.4,-34.6 14,-3.2 28,-7.5 42.2,-8.3 23.7,-1.2 47.6,-2 70.8,5.4 L 660,149 c -1.9,-7.5 -2,-16 -6,-22.3 A 172,172 0 0 0 630.7,96.3 C 613.1,78.1 594.1,62.2 567.6,57.4 a 142,142 0 0 0 -20.5,-2.1 z m 85.7,222.4 c -3.4,0.4 -6.9,0.6 -10.2,1.2 -7.3,1.4 -14.6,2.6 -21.8,4.5 -13.3,3.3 -27.1,5.5 -39.4,11 -15.2,6.8 -28.9,17 -43.5,25 a 1209.4,1209.4 0 0 1 -95.7,47.1 c -19.3,8.4 -39.5,14.8 -58.2,24.3 a 238.4,238.4 0 0 1 -72.5,23.3 c -9.9,1.3 -19.5,4 -29.3,6.2 v 1.5 l 17.1,9 c 13.6,7.1 27.1,14.5 40.8,21.7 7.8,4.1 15.7,8 23.7,12 18.8,9.4 37.4,19.2 56.5,28 12.5,5.8 25.5,10.1 38.3,14.9 1.8,0.6 4.4,0.4 6,-0.4 3.3,-1.7 6.4,-3.8 9.2,-6.2 17.5,-15 35.2,-30 52.1,-45.7 9.9,-9 18.4,-19.5 27.3,-29.7 12,-14 24.2,-27.8 35.6,-42.4 a 729,729 0 0 0 29,-41 c 9,-13.2 17.8,-26.5 25.6,-40.4 4.1,-7.1 6.2,-15.5 9.4,-23.9 z" />
  <path fill="#201a20" d="m 203.90039,0.40039062 c 0.0173,4.3164e-4 0.0316,0.007299 0.0488,0.007813 0.0154,-5.577e-5 0.0354,-0.007813 0.0508,-0.007813 z m 0.0488,0.007813 c -1.2893,0.004675 -2.76769,0.19730231 -4.25,0.69140628 -5.9,1.6999983 -11.39844,3.5000065 -13.39844,10.0000001 -8.39999,-7.9999921 -18.7004,-7.4992141 -24.90039,-2.6992189 -9.59999,7.3999929 -9.00117,17.6000099 -5.20117,27.9999999 -1.3,0.499999 -2.49922,0.9 -3.19922,1.5 -5.59999,4.199995 -9.79922,9.599616 -8.69922,16.599609 1,6.499994 6.50001,9.800001 13,10.5 l 7.29883,0.800781 c -5.89999,3.199997 -9.3,10.200009 -11,19 -12.49999,-3.699996 -23.29884,-3.401168 -30.29883,0.298828 -3.99999,-2.799997 -10.9,-7.199612 -16.5,-10.599609 C 97.80079,69.000006 87.499989,66.000781 77,65.800781 c -5.799994,0 -9.5,1.100001 -10,2 -1.099999,1.999998 -2.000394,6.000017 -5.400391,22.5 a 38,38 0 0 0 0.5,15.398439 c -8.799991,2.1 -17.199617,5.30157 -25.099609,9.60156 -7.399993,3.6 -13.300007,9.79961 -20.5,14.09961 C 2.2000143,138.00038 -0.2999997,152.7008 0,166.80078 a 82,82 0 0 0 15.5,44.29883 c 10.599989,15.69998 22.900012,30.4008 35,46.30078 a 90.4,90.4 0 0 0 -6.699219,45 c 0.999999,14.79999 3.400003,29.59923 6.5,44.19922 1.799998,7.99999 2.399617,17.6004 9.59961,22.90039 14.599985,10.89999 29.999624,20.80001 45.099609,31 4.3,2.7 8.80079,5.19961 13.80078,8.09961 -4.19999,4.69999 -8.00078,8.7 -11.30078,13 C 98.300009,433.3996 95.199215,447.90001 91.699219,462 c -0.6,2.4 2.300002,7.30039 5,8.90039 6.999991,4.2 14.601181,7.8 22.201171,11 8.79999,3.9 17.99884,6.1 27.79883,4 5.29999,-1.3 11,-1.80078 17,-2.80078 -1,9.59999 -2.89844,18.5004 -2.89844,27.40039 -0.2,14.29999 0.5,28.70001 1.5,43 0.4,5.89999 1.69922,11.69922 3.69922,17.19922 4,10.49999 4.39962,10.40117 15.09961,6.20117 2,-0.8 4.30039,-1.20078 6.40039,-1.80078 11.29999,-2.5 21.99962,-7.4004 31.09961,-14.40039 10.59999,-8.79999 21.00079,-17.79845 32.30078,-27.39844 2.8,3.2 6.3004,7.4 10.40039,11 a 85.7,85.7 0 0 0 35,22 c 5.5,1.5 11.19883,2.09882 14.79883,-3.20117 13.99999,-19.89998 22.00117,-43.50042 22.70117,-67.90039 0.2,-9.19999 -1.10078,-18.50001 -1.80078,-28 6.69999,3.2 13.50001,6.20078 20,9.80078 a 455.2,455.2 0 0 0 79.5,36.30078 c 5.59999,1.8 11.40001,5.49922 17.5,1.19922 4,-2.8 7.99961,-5.3 11.59961,-8.5 13.79999,-11.39999 27.09962,-23.30001 40.59961,-35 L 514.5,460.19922 526.5,476 c -11.39999,8.69999 -14.29961,14.1004 -11.09961,25.40039 3.1,11.69999 13.69923,11.50039 23.69922,11.40039 v 8.79883 c 0.3,9.99999 6.20079,17.8 15.80078,18 5.99999,0.3 12.20001,-2.3 18,-4.5 7.49999,-3 10.29922,-10.19923 12.19922,-17.19922 11.89999,3 22.00079,-0.60001 28.30078,-10 7.49999,-11.29999 -10e-6,-19.20118 -8,-27.70117 6.19999,1.2 11.59883,1.10039 15.79883,3.40039 3.2,1.7 6.30078,5.90039 6.80078,9.40039 1,7.59999 3.80001,13.3 10,18 9.39999,7.19999 21.00039,4.29999 24.90039,-7 1,-2.4 1.69883,-3.20078 4.79883,-3.80078 a 26,26 0 0 0 13,-6.5 c 4.99999,-4.7 8.50118,-10.99844 13.20117,-16.39844 4.7,-5.29999 5.7,-11.30118 0.5,-16.20117 -3.7,-3.5 -8.90118,-5.39922 -13.70117,-8.19922 l 3.5,-2.09961 c 17.59998,-10.69999 28.10117,-25.60158 26.70117,-47.10156 -0.4,-5.1 -0.50039,-10.20001 -1.40039,-15 a 694,694 0 0 0 -7,-32.5 c -1.3,-5.4 -3.29961,-10.79962 -4.59961,-16.09961 -0.2,-1.1 0.99961,-2.79961 2.09961,-3.59961 6.19999,-5.09999 12.30001,-10.60039 19,-14.90039 5,-3.2 7.50039,-7.6004 9.40039,-12.90039 a 60.9,60.9 0 0 0 2.5,-26.89844 c -0.8,-8.39999 -0.2,-17.20118 -1.5,-25.70117 -1.4,-8.89999 -4.39961,-17.50001 -6.59961,-26 8.59999,0 16.59923,0.3 24.69922,0 11.59999,-0.4 23.0004,-2.49923 32.90039,-9.19922 5.3,-3.6 9.80001,-8.00117 15,-11.70117 4.7,-3.1 5.29922,-6.69962 3.69922,-11.59961 -5,-15.19999 -16.80001,-25.0004 -29,-33.90039 -7.99999,-6 -17.59923,-10.00001 -26.69922,-15 A 61,61 0 0 0 747.69922,142 c 5.59999,-10.89999 14.00039,-20.50001 15.40039,-33.5 1,-9.69999 2.20039,-19.599619 4.40039,-29.099609 C 768.5,74.700395 765.49961,72.3 763.09961,72 752.39962,71.100001 741.50038,69.99922 730.90039,71.199219 720.7004,72.299218 710.69999,76.300394 699.5,79.400391 c 0,-9.199991 1.00078,-18.000009 -0.19922,-26.5 C 697.00078,36.500407 686.49999,24.199207 676,12.199219 673,8.5992223 668.50078,6.7992192 663.80078,7.1992188 c -2.7,0.1999998 -5.5,1.3011737 -8,3.2011722 a 84.7,84.7 0 0 0 -31.60156,38.5 c -2.8,7.199992 -4.6,14.799616 -7,22.099609 -22.59998,-15.499984 -32.49885,-21.000784 -49.29883,-23.300781 -37.29996,-4.699996 -72.60003,0.701194 -104,22.701172 a 257.2,257.2 0 0 0 -27.30078,22.40039 c -5.6,5.099995 -10.00001,11.698839 -14.5,17.798829 a 624.3,624.3 0 0 0 -24.19922,35.80078 c -3.7,6.09999 -5.60078,13.19962 -8.30078,19.59961 a 354.9,354.9 0 0 0 -65.19922,-45.59961 228,228 0 0 0 10.19922,-16.5 c 7.79999,-13.999985 5.2,-26.2 4,-26.999999 C 332.19962,74.900393 325.59999,73.8 319,73.5 a 51,51 0 0 0 -20.40039,6.599609 32,32 0 0 0 -4.19922,-7.40039 c -1,-1.699999 -0.29961,-5.000003 -0.0996,-7.5 0.2,-3.699997 1.69883,-7.699613 0.79883,-11.09961 -3,-11.099989 -14.20002,-20.99921 -29,-12.699218 -2.6,1.399998 -4.8,2.799215 -7.5,-0.300782 -6.99999,-8.599991 -14.19962,-9.800386 -24.09961,-5.40039 -2.7,0.999999 -4.10078,0.599999 -5.30078,0 2.7,-7.999992 -2.09962,-16.699613 -9.59961,-20.09961 -4.5,-1.999998 -5.7,-4.698831 -7,-8.2988278 -1.59309,-4.4805719 -4.67541,-6.77409989 -8.65039,-6.89257808 z m -1.75,7.99218748 c 1,0.7999992 4.00039,1.7992209 4.90039,3.6992189 1.7,3.299996 -4.80001,12.499609 -9.5,13.099609 -1.3,0.2 -3.8,-1.599221 -4.5,-3.199219 -2,-4.199996 2.20001,-11.300001 9,-13.4999995 z m -29.29883,4.9003899 v 0.09961 c 3.8,0 6.79922,1.999613 8.19922,6.599608 0.9,2.899997 -3.59961,11.19922 -6.59961,12.199219 -4.7,1.599998 -9.20078,-0.799614 -10.80078,-5.59961 -2,-5.299993 0.3,-10.600391 5,-12.400389 1.3,-0.5 2.70117,-0.798438 4.20117,-0.898438 z M 666,16.5 c 3.1,0.699999 6.1004,4.699226 11.40039,12.199219 4,5.599994 7.50039,11.700006 10.40039,18 a 49.2,49.2 0 0 1 2,34.601562 c -1,4.199996 -3.90039,7.800002 -7.90039,9.5 -8.59999,4.599996 -16.70001,10.599619 -25,16.099609 0,-10.399989 -0.50117,-20.801182 0.29883,-31.201171 0.5,-6.799993 0.40077,-9.600005 -5.19922,-14 -5.29999,11.999988 -3.29961,24.800404 -4.09961,38.900391 L 641.5,94.599609 c -4.4,-4.499995 -8.90039,-8.999223 -12.90039,-13.699218 a 9.1,9.1 0 0 1 -2.09961,-6 c 2,-17.999982 10.10001,-34.600404 23,-47.400391 v 0.09961 l 3.30078,-3 c 6.39999,-5.899994 9.8,-8.599999 13,-8 z M 215.30078,24 c 1.4,0 3.4,0.600391 4,1.400391 1.3,2.299997 2.39844,5.300002 2.39844,8 0,0.999999 -2.6,3.298828 -4,3.298828 -4.8,0.2 -12.5,2.999996 -15,-1 v -0.09961 c -0.2,-5.699994 10.80156,-10.599219 11.60156,-11.199218 0.2,-0.3 0.6,-0.400391 1,-0.400391 z m -25.10156,4.400391 h 0.10156 c 4.3,0 8.19961,1.999223 9.59961,6.199218 1.8,5.299995 -2.20079,11.001174 -7.80078,12.701172 -5.6,1.999998 -11.99883,-3.96e-4 -13.79883,-5.40039 -1.8,-5.399995 1.99923,-10.900784 7.69922,-12.800782 1.4,-0.499999 2.89922,-0.699218 4.19922,-0.699218 z M 190.09961,34 c -0.7,0 -1.49883,3.91e-4 -2.29883,0.400391 -3.5,0.999999 -4.90117,3.99922 -4.20117,5.699218 0.5,1.799999 3.50117,3.199609 6.70117,2.09961 3.5,-1.099999 4.99883,-3.99883 4.29883,-5.798828 -0.2,-0.999999 -1.00039,-1.69961 -2.40039,-2.09961 -0.6,-0.2 -1.3,-0.300781 -2,-0.300781 z m 55.09961,7.800781 h 0.10156 c 6.1,-0.2 9.19922,3.698837 9.19922,12.298828 0,1.799999 0.8,5.200393 -1,6.900391 -9.69999,4.399996 -16.00078,1.49999 -19.30078,-9 -1.3,-3.799996 -0.9,-7.09922 4,-8.699219 2.7,-0.999999 5,-1.5 7,-1.5 z m -77.79883,1.298828 -0.0996,0.09961 c 2.3,0 4.49883,0.2 6.79883,0.5 0.8,0.1 3.00117,3.400782 2.70117,4.300781 -1.5,3.299997 -1.00039,7.200784 -6.40039,10.300781 -4.39999,0.7 -6.50039,-0.0012 -9.90039,-1.201172 -2.4,-0.799999 -5.5,-1.800003 -6,-5 -0.7,-3.299996 3.70039,-7.100001 6.40039,-8 a 22,22 0 0 1 6.5,-1 z M 210.69922,46.5 c 1,0 1.70039,0.2 1.90039,0.5 -5,11.999988 -23.8004,16.200387 -32.40039,12.400391 -0.2,-0.7 -1.5,-0.700002 -0.5,-2 a 103,103 0 0 1 31,-10.800782 z m 65,0 a 3,3 0 0 1 2,0 c 4.39999,0.5 8.00039,4.699615 8.40039,10.099609 0.5,7.999992 -3.89962,11.701173 -14.59961,12.701172 -5.69999,1.799998 -7.40078,-2.400784 -7.80078,-5.800781 -1,-9.199991 4.00001,-16.000001 12,-17 z M 547,55.300781 l 0.19922,0.09961 c 6.79999,0.199999 13.60001,1.000001 20.5,2 26.49997,4.999995 45.50158,20.800018 63.10156,39 8.99999,9.199989 16.79884,19.500399 23.29883,30.400389 4,6.29999 4.2,14.79923 6,22.19922 l -2,1.5 c -23.39998,-7.39999 -47.30002,-6.70078 -71,-5.30078 -14.19999,0.8 -28.09962,5.00117 -42.09961,8.20117 -28.59997,6.59999 -54.00003,20.79923 -79.5,34.69922 a 1319,1319 0 0 1 -58,29.80078 c -24.49998,11.89999 -51.00003,18.50001 -77,26.5 -19.09998,5.6 -37.50002,13.79962 -56.5,20.59961 -11.39999,4.2 -22.99923,7.79961 -34.69922,11.59961 a 363.2,363.2 0 0 1 -77.10156,16 c -6.39999,0.6 -12.70001,1.29961 -19,1.09961 -2.2,0 -5.29922,-2.29922 -6.19922,-4.19922 -7.39999,-14.99998 -9.69961,-33.30041 -11.09961,-49.40039 -2,-20.79998 -0.70077,-41.19924 7.19922,-60.69922 7.99999,-19.69998 19.70042,-29.80002 46.90039,-53 3.5,-3 7.90079,-5.19961 12.30078,-6.59961 20.59998,-6.09999 40.79885,-14.30078 62.79883,-12.30078 11.99999,1.1 24.70079,2.69922 35.80078,7.19922 19.29998,7.59999 38.00041,16.70118 55.90039,27.20117 14.09999,8.49999 28.80001,17.30001 39,31 1.6,2.4 5.19922,3.99922 8.19922,4.69922 0.8,0.2 3,-4.09961 4,-6.59961 8.39999,-22.99998 21.09963,-44.1008 37.59961,-62.30078 C 450.89959,91.699236 467.60002,76.200381 488.5,66.900391 A 131.7,131.7 0 0 1 547,55.300781 Z m -328.40039,2.59961 C 228.3996,58.90039 231.7,62.700396 235,68.400391 L 235.5,69 c 1.7,2.999997 2,5.999221 -1,8.199219 l -1.5,1 a 66.4,66.4 0 0 0 -8.19922,4 c -7.39999,4.299995 -11.40117,2.000388 -13.70117,-0.59961 -4.2,-4.499995 -7.39961,-10.600005 -4.59961,-16 2,-3.799996 7.99961,-5.199611 12.09961,-7.599609 z m 34.20117,7.90039 v 0.09961 c 2.8,0 5.49961,0.69922 7.59961,2.199218 a 8.1,8.1 0 0 1 3.69922,6.5 c 0,2.799998 -1.59922,5.100002 -3.69922,6.5 a 13.3,13.3 0 0 1 -7.59961,2.300782 13,13 0 0 1 -7.60156,-2.300782 8,8 0 0 1 -3.79883,-6.5 8,8 0 0 1 3.79883,-6.5 c 2,-1.499998 4.70156,-2.298828 7.60156,-2.298828 z m -54.99219,1.611328 c 1.68539,2.089717 0.50295,2.622132 5.99219,20.087891 C 199.10079,85.500002 192,75.300383 189.5,67.900391 c 0.97807,-0.391229 6.83168,-0.03705 8.30859,-0.488282 z m 54.99219,3.888672 v 0.09961 c -1.8,0 -3.5,0.499219 -4.5,1.199218 -1,0.8 -1.30078,1.500001 -1.30078,2 0,0.6 0.30078,1.200001 1.30078,2 1.1,0.7 2.7,1.201172 4.5,1.201172 A 7,7 0 0 0 257.19922,76.5 c 1,-0.599999 1.40039,-1.300391 1.40039,-1.900391 0,-0.499999 -0.30039,-1.2 -1.40039,-2 a 8,8 0 0 0 -4.39844,-1.298828 z M 77.599609,72.400391 A 66,66 0 0 1 99.900391,79.800781 473,473 0 0 1 117.5,90.400391 l -0.69922,1 c -9.09999,17.799979 5.30001,24.500009 16,32.499999 a 25.7,25.7 0 0 0 -2.40039,9 C 115.80041,117.10041 95.499221,95.499226 98.199219,102.69922 c 3.000001,7.99999 26.201571,34.70001 39.101561,49 -4.99999,7.79999 -8.20001,17.00078 -20.5,16.80078 L 115.5,168.19922 c -1.8,-9.79999 -4.20078,-19.80001 -5.30078,-30 a 35,35 0 0 0 -27.500001,-32.5 c -3.999996,-0.9 -8.098833,-1.2 -12.298828,-1 l -2,-9.000001 c -0.3,-2.699998 0.200005,-18.698832 5.5,-22.298828 A 6,6 0 0 1 77.599609,72.5 Z m 93.599611,0.40039 H 174 c 6.79999,0.799999 11.2,5.300006 10.5,11 -0.8,7.199993 -3.9004,10.99961 -8.90039,11.09961 -3.6,-0.5 -7.79922,-3.93e-4 -10.69922,-1.900391 -1.9,-0.999999 -2.7,-5.499221 -2.5,-8.199219 0.5,-5.699994 2.59883,-11.200001 8.79883,-12 z m 109,4.199219 v 0.09961 c 3.2,1.399999 8.4,2.399612 9,4.59961 1,3.599996 0.3,9.000003 -2,12 -3,4.399995 -7.89962,7.70039 -14.09961,5.40039 -2.6,-0.999999 -5.00039,-2.29922 -7.40039,-3.699218 C 261.09922,92.600393 261.1,88.699606 265,85.099609 269.2,80.999613 272.79923,76.300001 280.19922,77 Z m 42.5,1.300781 c 3.99999,0 10.60039,0.79844 12.40039,3.398438 2.1,3.199997 -1.9,13.501566 -4,17.601562 -2,3.699999 -8.00039,14.000009 -10.90039,18.999999 -4.8,-2.6 -9.69962,-5.00078 -14.59961,-7.30078 4.89999,-4.99999 12.30117,-12.899219 10.70117,-12.699219 -5.19999,3.299999 -10.10118,7.000009 -14.70117,10.999999 a 145,145 0 0 0 -12.29883,-5.10156 l 2.09961,-3 c 6.19999,-5.199996 8.9,-10.199226 8.5,-15.69922 a 78.9,78.9 0 0 1 20,-7 z m 421.40039,1 c 4.79999,0 9.70079,0.59844 14.80078,2.398438 -3.2,43.499961 -23.00082,74.700011 -63.80078,90.500001 l -26.19922,-17.5 c 7.19999,-7.39999 13.9004,-15.29923 21.40039,-22.19922 7.69999,-7.19999 16.29884,-13.40079 24.29883,-20.30078 1,-0.9 0.79961,-2.9 1.09961,-4.5 -1.2,-0.2 -2.89883,-0.99961 -3.79883,-0.59961 -5.49999,2.8 -11.70079,5.00039 -16.30078,8.90039 -9.69999,7.99999 -18.60001,17.10001 -28,26 -1.9,-6.69999 -4.99883,-13.80001 -5.29883,-21 -0.3,-3.8 3.99961,-9 7.59961,-11.5 15.59999,-10.999989 31.30002,-22.399223 50.5,-26.699219 7.79999,-1.699998 15.59923,-3.6 23.69922,-3.5 z m -504.40039,4 c 4.39999,0.3 15.6,3.59884 14,14.798828 h -18.39844 c -3.7,0 -4.70156,-2.000003 -2.60156,-5 2.3,-3.399996 4.2,-7.99922 7,-9.699218 z m -28.39844,5.898438 0.0996,0.101562 c 5,4.199996 7.20039,1.199219 10.40039,1.199219 0.2,2.099998 1.19883,6.600393 1.29883,8.900391 L 216.80078,101.5 h -0.40039 c -0.7,0.3 -1,0.49922 -2,0.69922 z M 138.40039,90 c 8.19999,0 13.69923,3.100399 20.19922,11.40039 -3.5,5.3 -4.00001,11.69922 -12.5,13.19922 -6.99999,1.2 -12.69922,0.20078 -17.19922,-4.19922 -3.2,-2.9 -6.50117,-7.60078 -6.20117,-11.300781 0.5,-5.999994 6.60118,-8.3 12.20117,-9 z m 60.29883,4.599609 h 0.40039 c 2.2,0 4.59961,1.59961 4.59961,1.59961 0,0 -0.8,8.001171 -3.5,9.701171 -3.4,2.2 -8.00001,2.99883 -12,4.29883 -1.6,-9.09999 2.00001,-14.499612 10.5,-15.599611 z m -28,4.5 c 2,0 4.40117,0.500001 5.70117,1.000001 2,0.8 3.60039,2.30039 4.40039,4.40039 1,2.6 0.29844,5.49961 -1.10156,7.59961 a 13.3,13.3 0 0 1 -6.59961,4.80078 12,12 0 0 1 -8.19922,0.19922 8.6,8.6 0 0 1 -5.70117,-5.19922 8.6,8.6 0 0 1 1.30078,-7.59961 c 1.5,-2.2 3.79961,-3.90078 6.59961,-4.80078 1,-0.3 2.29961,-0.500391 3.59961,-0.400391 z m 0.70117,5.201171 -0.0996,0.0996 A 8.2,8.2 0 0 0 165,107.5 c -0.6,1 -0.7,1.79961 -0.5,2.59961 0.2,0.7 0.89961,1.40078 2.09961,1.80078 a 9,9 0 0 0 4.70117,-0.20117 A 7.6,7.6 0 0 0 175,108.90039 c 0.7,-1 0.79961,-1.89961 0.59961,-2.59961 -0.3,-0.7 -1,-1.30117 -2,-1.70117 -0.7,-0.2 -1.49922,-0.29883 -2.19922,-0.29883 z m -96.599609,9.39844 2.398438,33.10156 -1.898438,0.5 -3.601562,-6.5 -1.59961,-26.70117 c 1.599999,-0.2 3.201174,-0.40039 4.701172,-0.40039 z M 80.400391,114 c 1.799998,0.3 3.600392,1.00039 5.40039,1.90039 l 2,26.09961 a 45.2,45.2 0 0 1 -5.201172,3 z m -15.800782,0.80078 h 0.09961 l 0.90039,14.59961 -2.199218,-3.59961 -0.5,-1 L 62.5,115.40039 Z M 57,116.5 l 0.199219,6.59961 c -0.5,0.2 -1.198829,0.5 -1.798828,1 l -2.701172,2 -0.398438,-8 z m -10.199219,3.59961 0.59961,10.20117 C 46.200392,131.10078 44.999999,132 44,133 l -1.699219,1.80078 -0.5,-12 5,-2.60156 z m 44.898438,0 c 2.799997,2.8 4.201562,6.3 3.601562,11 -0.2,2.4 -1.001173,4.4 -2.201172,6 z M 156.5,121.80078 c 2.7,0.2 5.70039,0.99844 8.90039,3.39844 -5.99999,3.99999 -11.30001,8.3 -17,11 -2.2,1 -7.30078,-0.59961 -8.80078,-2.59961 -2.5,-3.5 0.8,-6.7 4,-8 4,-2 8.20039,-3.99883 12.90039,-3.79883 z m -120.099609,4 L 39.5,188.19922 C 37.500002,187.69922 35.700779,187.2 33.800781,186.5 l -3.201172,-56.80078 z m 19.5,6.5 2.699218,0.69922 5.300782,13.69922 v -0.39844 l 0.699218,2 H 64 c -1.999998,0.3 -3.799611,0.49844 -5.599609,0.39844 L 57.5,148.59961 56.5,148.5 55.699219,148.30078 c -2.999997,-0.9 -5.29883,-2.90039 -7.298828,-6.90039 z M 25,133.40039 l 0.09961,0.0996 3,50.40039 c -1.799998,-0.8 -3.598829,-1.9 -5.298828,-3 l -2.201172,-44 c 0.999999,-0.9 2.200392,-1.7 3.400391,-2.5 z m 77.69922,8.40039 -0.0996,0.0996 h 0.20117 V 142 c 1.3,7.99999 2.99961,17.30001 4.09961,26.5 0.3,1.6 -1.00078,4.5 -2.30078,5 -7.699993,3.6 -15.400009,6.69961 -23.500001,9.59961 h -1.40039 c -0.799999,0 -1.699611,7.8e-4 -2.59961,-0.19922 l -2,-0.59961 -0.199218,-0.20117 L 74.5,181.80078 c -0.999999,-0.5 -1.79922,-1.00117 -2.699219,-1.70117 -5.699994,-4.2 -8.900785,-10.70001 -12.800781,-16.5 -0.999999,-1.3 -1.99922,-2.7 -3.199219,-4 v -0.19922 c 4.599996,-1 8.999223,-1.60078 13.199219,-2.30078 a 130.8,130.8 0 0 0 14.199219,-4.19922 h 0.201172 l 3.298828,-1.70117 c 5.299994,-2.7 10.400005,-6.19844 16.000001,-9.39844 z M 15.300781,141.90039 17,175.80078 a 28,28 0 0 1 -2.699219,-32.60156 z m 184.798829,3.19922 a 5.7,5.7 0 0 0 0,11.30078 5.6503906,5.6503906 0 0 0 0,-11.30078 z m -58.29883,0.20117 0.79883,0.29883 L 142.30078,146 c 0,-0.3 -0.3,-0.59922 -0.5,-0.69922 z M 596,153.90039 h 0.19922 c 17.39998,0.1 35.0008,1.5 52.30078,3 4,0.4 7.69961,3.89922 11.59961,5.69922 2.9,1.2 6,2.00078 9,3.30078 17.69998,7.39999 27.10079,22.00041 33.80078,38.90039 5.3,13.79999 9.79883,27.99923 14.79883,41.69922 A 73.7,73.7 0 0 1 721,284.90039 h -0.0996 c -5.99999,-2.6 -11.60118,-4.90117 -16.70117,-7.70117 -6.39999,-3.5 -13.19845,-5.99844 -20.39844,-7.39844 L 681.90039,269.5 a 70,70 0 0 0 -8,-1 l -2.70117,-0.0996 h -9.59961 c -5.3,0.3 -10.70001,0.4 -16,0.5 -4.7,0.2 -9.40001,0.40039 -14,0.90039 h -0.69922 A 346,346 0 0 0 598.80078,275 l -2,0.40039 c -14.79998,3.7 -29.90157,7.19962 -43.60156,13.59961 -17.09998,7.99999 -32.79885,19.20001 -49.29883,28.5 -10.59999,5.99999 -21.59962,11.19922 -32.59961,16.19922 -21.69998,9.79999 -43.40119,19.3004 -65.20117,28.90039 -23.59998,10.59999 -47.00042,21.60079 -70.90039,31.30078 -10.99999,4.5 -22.99962,6.7 -34.59961,9 -10.59999,2.1 -21.09923,3.20039 -31.69922,4.90039 -7.29999,1.4 -14.3004,3.4 -21.40039,5 -1,0.3 -1.79922,0.99883 -2.69922,0.79883 -3.99999,-0.6 -8.00157,-0.89883 -12.10156,-0.79883 -11.99999,0.2 -23.99884,2.6 -35.79883,4 -4.59999,0.5 -9.3,0.7 -14,0.5 h -0.59961 C 178.20079,417.20078 174.1,416.79961 170,416.09961 l -2.30078,-0.40039 c -7.59999,-1.3 -14.99923,-3.49883 -22.19922,-6.29883 l -2.80078,-1 A 324.2,324.2 0 0 1 82,375.59961 l -6.400391,-4.5 -5.5,-4.19922 c -2.299997,-1.8 -3.600001,-5.2 -5,-8 A 131,131 0 0 1 54,314.40039 c -0.5,-8.99999 -1.4,-18.00001 -1,-27 0.2,-6.29999 1.99922,-12.60001 3.199219,-19 L 59,267 v 0.0996 h 0.199219 l 9.40039,11.5 2,2 c 2.699998,3 5.800785,5.30078 9.300782,7.30078 a 86,86 0 0 0 18.5,7.69922 c 16.999979,5.49999 35.000019,7.90117 52.999999,7.20117 12.99999,-0.5 25.6004,-3.6 38.40039,-6 25.99998,-4.59999 51.49885,-11.5004 76.29883,-20.40039 17.29998,-6.19999 34.10002,-13.2004 51.5,-18.90039 l 36,-11.90039 c 17.69998,-7.29999 35.50041,-9.99923 52.90039,-16.69922 L 411.19922,227 l 3.20117,-1.40039 c 16.79998,-7.89999 33.20002,-17.40001 50,-26 20.49998,-10.39999 40.60041,-21.39923 61.40039,-30.69922 l 0.59961,-0.20117 a 151,151 0 0 1 16.19922,-6.29883 h 0.20117 A 162,162 0 0 1 596,153.90039 Z M 43.400391,157 c 1.999998,2.5 3.600392,5.20078 5.40039,7.80078 l 1.09961,24.59961 L 45.099609,189 Z m 695.699219,2 4.40039,1.09961 c 19.29998,6.69999 33.00001,20.20041 45.5,35.40039 1.1,1.3 1.4,3.20039 3,6.90039 -10.59999,5.4 -20.29962,11.99961 -31.09961,15.09961 a 102.7,102.7 0 0 1 -32,2.59961 c -6.29999,-0.3 -12.60117,-3.69884 -14.20117,-11.79883 -1,-4.79999 -3.69844,-9.10039 -5.89844,-14.40039 L 749,197.09961 l 1,-2.90039 c -4.6,-1.9 -9.00079,-4.6 -13.80078,-5.5 -9.79999,-1.9 -19.79962,-2.69922 -29.59961,-4.19922 -2.2,-0.4 -4.2,-2.29922 -5.5,-3.19922 9.59999,-6.09999 18.8004,-11.60001 27.40039,-18 3.6,-2.6 6.59961,-4.40117 10.59961,-4.20117 z m -684.199219,14.59961 4.798828,7 0.40039,8.40039 -4.5,0.40039 z m 68.599609,2.80078 0.0996,0.19922 v 0.0996 L 114.40039,217.5 c -17.699982,3.6 -34.800795,8.5004 -48.800781,20.40039 -1.799998,1.6 -4.59961,2.59961 -5.599609,4.59961 -3.899996,6.29999 -6.700394,4.00039 -10.400391,-0.0996 a 199,199 0 0 1 -32.5,-46.80078 l -3.199218,-8 0.798828,0.5 A 70,70 0 0 0 71.800781,196.5 c 8.499992,-2.4 16.698446,-5.99922 24.898438,-9.69922 8.299991,-3.6 17.000791,-6.60039 26.800781,-10.40039 z m 107.68164,1.51953 a 6.7,6.7 0 0 0 3.41797,12.48047 c 2.4,0 4.60078,-1.30039 5.80078,-3.40039 a 6.7,6.7 0 0 0 -9.21875,-9.08008 z m 391.13281,3.77149 c -2.73281,-0.005 -5.79023,0.4832 -8.11523,0.4082 H 613 v 2.80078 c 1,1.4 2,1.39922 2,2.69922 1,4.3 0.69961,9.8 0.59961,14 l -0.29883,12.30078 v 1.5 c 0,7.79999 -0.60117,15.6004 -1.70117,23.40039 0,2.8 0,4.2 -1,5.5 -1.2,0 -2.09883,-7.8e-4 -2.29883,1.19922 0,1.5 1.09922,1.50039 2.19922,2.90039 5.19999,-1.2 11.39923,0.29961 17.69922,-0.90039 1.1,-1.4 0.20117,-4.2 0.20117,-5.5 0,-4.2 1.19883,-9.7 -0.70117,-12.5 0,0 -0.99961,-1.3 -2.09961,0 l -0.19922,5.5 -0.20117,8.30078 h -1 L 624,243.19922 h -2 c -1,-0.2 -1,0.002 -1,-1.39844 -0.6,-19.49998 2,-36.00002 2.5,-54 0,-1.2 1,-1.2 2,-4 h 0.19922 c 0,-1.7 0.20117,-1.80039 -0.79883,-1.90039 -0.8,-0.15 -1.675,-0.20742 -2.58594,-0.20898 z m -440.01367,0.60937 A 7.7,7.7 0 0 0 174.59961,190 7.7001953,7.7001953 0 1 0 190,190 a 7.7,7.7 0 0 0 -7.69922,-7.69922 z m 406.69531,1.41211 C 587.17774,183.47363 585.80078,186 585.80078,186 A 50.6,50.6 0 0 0 582.59961,200.69922 30,30 0 0 0 582,212 c 0.3,9.99999 0.99922,22.50001 1.19922,31 0.3,1.6 0.50039,3 -0.59961,3 -1,0.3 -1.99922,1.59922 -2.69922,3.19922 l 2.5,2.5 c 2.9,-2 6.39961,0.60117 9.09961,-2.79883 l -0.19922,-2.70117 c -1.2,-1.1 -2.10039,0.30156 -3.40039,-0.89844 -1,-7.19999 -2.10117,-13.80157 -1.70117,-19.60156 -0.4,-3 -0.8,-5.69883 0,-7.29883 3.2,-0.4 6.60156,0.59922 8.60156,0.19922 2.1,6.79999 3.49922,16.60001 4.69922,25 h -0.0996 c -1,0.1 -2,4.00039 -2,5.40039 0.2,1.3 1.80039,0.39922 2.90039,0.19922 2.1,-0.3 3.9,-0.99922 6,-1.19922 l 1.39844,0.19922 c 2,-1.8 -0.39961,-2.99883 -0.59961,-4.29883 L 605.90039,235.5 c -2.8,-12.19999 -4.99961,-24.50079 -7.59961,-35.30078 -0.6,-2.2 -1.30117,-4.69922 -2.70117,-7.19922 -0.4,-2.8 -3.39883,-8 -5.79883,-9 -0.275,-0.1625 -0.54492,-0.25293 -0.80469,-0.28711 z m 55.4043,0.0879 L 644,186.59961 c 0.8,1.5 1.89922,1.7 1.69922,3 0.3,4.2 -0.49922,9.7 -1.19922,14 l -1.90039,12 -0.29883,1.5 c -1,6.69999 -2.50117,16.30001 -4.70117,23 -0.5,2.8 -0.70039,4.00117 -1.90039,5.20117 -1,0 -1.99883,-0.3 -2.29883,1 -0.2,1.5 0.79922,1.69961 1.69922,3.09961 5.29999,-0.5 11.30079,1.8 17.80078,1.5 1.3,-1.2 0.59883,-4.10039 0.79883,-5.40039 0.7,-4.1 2.6,-9.5 1,-12.5 0,0 -0.9,-1.40078 -2,-0.30078 l -1,5.40039 -1.19922,8.20117 -1.09961,-0.10156 -2.09961,-0.39844 -2,-0.30078 c -1,-0.3 -1.00039,-0.19961 -0.90039,-1.59961 2.1,-19.19998 6.8,-35.30002 9.5,-53 0.4,-1.4 1.29883,-1.10078 2.79883,-3.80078 h -0.0996 c 0.3,-1.6 0.49961,-1.7 -0.40039,-2 -3.2,-1 -7.69961,-0.6 -10.59961,-1 z m 28.09961,4 a 26,26 0 0 0 -3.40039,8.5 c -0.3,1.2 -1.29922,0.9 -0.69922,2.5 L 668,200 c -1.6,5.99999 -2.40078,12.60001 -3.30078,18 -0.8,4.1 -0.19922,5.2 -1.19922,9 -1,3.8 -2.79961,9.99961 -1.59961,13.09961 L 663,240.30078 c 1,-5.59999 3.4,-9.20157 5,-14.60156 1,-3.7 1.40039,-9.00001 2.90039,-14 2.1,-7.39999 5.99961,-14.30001 5.59961,-20 0.6,-2.4 -2.1,-3.29844 -4,-3.89844 z m -84.80078,3.39844 c 1,0 1.30078,1.30078 1.30078,1.30078 1.7,4 3.3,9.50079 4,13.80078 l 1.09961,8.19922 c -2,0.2 -5.10039,0.8 -8.40039,0 -0.2,-1.7 0,-6.00078 0,-7.30078 0.2,-5.7 0.6,-10.09844 1,-14.39844 z m -60.11133,9.02539 c -3.4625,0.3 -7.08867,1.975 -9.88867,3.875 -1,0.4 -1,1.29961 -2,1.59961 -3,1.3 -4.19922,1.80117 -2.69922,5.70117 0.5,1.4 2.40078,1.29961 4.30078,0.59961 2.7,6.59999 4.89883,10.6004 6.79883,16.40039 l 1,3.59961 c 2,2.1 2.19961,5.3 3.09961,8 L 537,262.5 c -1,0.4 -2,0.70039 -2.5,2.40039 2,2.3 3,1.9 5,1 1.5,-2 6.19922,-2.70039 8.19922,-3.40039 1,-0.5 0.40039,-1.29922 -0.0996,-2.69922 -0.5,-1.3 -2.6,-0.50078 -3,-1.80078 -2.1,-2.3 -2.99961,-4.99922 -4.09961,-7.69922 -2.1,-5.29999 -6.29922,-13.00001 -7.69922,-20 -0.6,-1.2 0.39844,-1.6 1.39844,-2 1.5,0.8 2.5,0.49883 3,1.79883 1.6,1 2.10039,1.70078 3.40039,2.80078 4.2,3.6 5.3,9.6004 8,14.40039 4.2,7.79999 1.99961,10.99922 5.09961,12.69922 3,-0.7 7.5,-1.30079 6,-5.30078 -0.5,-1.3 -1.4,-0.99961 -2.5,-0.59961 -4.6,-8.99999 -9.19845,-23.39962 -15.89844,-28.59961 v 0.0996 c -0.5,-1.3 -1.5,-0.99922 -2,-2.19922 l 0.5,-1.80078 c 0.5,-1.6 0.99844,-4.40039 0.89844,-6.40039 -0.6,-3.8 -1.99922,-7.49961 -4.19922,-10.59961 -2.15,-3.6 -5.44961,-4.675 -8.91211,-4.375 z m -0.0879,4.67578 c 1.5,1 2.8,1.50039 3.5,3.40039 1,2.5 1.3,1.99883 2,5.29883 0.5,1.9 0.59961,4.19961 1.09961,5.59961 -0.4,1.8 -3.99883,5.80156 -4.79883,4.10156 L 522.5,207 c 1,-0.3 4,-1.69961 5,-2.09961 z m -28.01172,7.67383 c -1.5125,-0.225 -3.03867,0.12578 -4.88867,0.92578 -7.19999,1.7 -5.80039,10.00079 -6.40039,16.30078 -0.4,1.5 0.90156,4.2 1.60156,7 0.5,1.2 0.99961,3.1 1.59961,5 1,3.4 2.20039,4.89883 3.40039,7.29883 a 77,77 0 0 0 7.59961,14.5 c 2.6,3.3 4.99883,5.60039 6.79883,7.40039 4.79999,4.7 13.50078,6.19921 17.30078,-1.80078 0.6,-1 1.00039,-2.99883 0.90039,-4.79883 H 527.5 a 75,75 0 0 0 -2.90039,-17.30078 c -1.3,-5.4 -3.5,-9.8 -5,-13.5 -1,-2.2 -1.99922,-4.4 -3.19922,-6.5 -3.4,-6.09999 -7.99961,-10.8 -12.09961,-12 -1.8,-1.5 -3.3,-2.30039 -4.8125,-2.52539 z m -1.1875,3.92578 c 2.4,0.5 4.79883,3.5 6.79883,5.5 2.2,2.1 3.20078,4.59922 5.30078,6.69922 1,2.4 2.59961,4.70117 3.59961,7.20117 l 2.59961,6.29883 c 1.7,3.89999 3.40117,7.60117 4.20117,11.70117 a 191,191 0 0 1 2.09961,11.40039 v 0.0996 c 0.3,2.6 -3.79961,5.69961 -6.09961,4.59961 -1,-0.7 -1,-2 -2,-1.5 -1.5,-0.9 -2.60117,-3.40039 -4.70117,-5.40039 -4.2,-6.89999 -9.59922,-16.5004 -13.19922,-26.90039 -1,-2.4 -2.20039,-4.99883 -2.40039,-7.79883 -0.8,-4.3 -0.9,-7.00039 0,-10.40039 1.8,-0.8 2.00078,-0.6 3.80078,-1.5 z m -19.86914,4.50977 c -0.33711,-0.0934 -0.68125,-0.0727 -1.03125,0.0898 l -3.80078,1.80078 -18.69922,8.79883 c -0.3,1.7 0.29883,3.00117 1.79883,3.70117 1.6,0.8 2.70156,-1.39961 4.60156,-2.09961 2.1,1.9 2.9,5.99844 4,8.39844 1.8,3.7 5.09883,8.30039 6.79883,11.90039 1.2,2.4 0.90039,4.20078 1.40039,5.30078 2.1,2 1.8,3.69922 3,6.19922 l 4.59961,9.70117 c 0.9,4.2 4.00078,8.59922 2.80078,10.69922 0,0 -1.00078,0.49961 -1.30078,2.09961 0.6,1.2 1.19961,2.50117 2.09961,2.20117 1,-0.6 3.40078,-0.20117 4.30078,-0.70117 1.9,-1 2.19961,-2.5 3.09961,-3 1,-0.5 2.5,0.40117 2,-0.79883 2.7,-1.4 -1.89922,-3.70078 -2.69922,-3.30078 -2.1,-2 -3.2,-4.5 -4.5,-7 l -1.70117,-3.5 c -1.5,-2.9 -2.59961,-5.99961 -3.09961,-9.09961 -1.7,-3.6 -3.79922,-5.8 -3.19922,-9 0.8,-0.5 1.90039,-1 3.40039,0 l 1,2.29883 2.39844,-2.59961 c -1.8,-3.7 -4.3,-11.79961 -8,-9.59961 l 2.30078,4.90039 -2.90039,1.29883 c -1.4,-0.8 -1.69883,-3.6 -2.29883,-5 -2.3,-4.8 -6.00039,-10.49844 -6.40039,-13.39844 2.2,-2.6 5.99883,-4.3 9.79883,-6 a 22,22 0 0 0 5,8 c 0.8,-0.5 1.70117,-0.9 1.20117,-2 v -0.10156 c -1.575,-3.2375 -3.60899,-9.53594 -5.96875,-10.18945 z m -366.83203,6.89062 3.30078,62.69922 -4.5,-1 -3.5,-60.90039 z m -10.19141,2.12891 3.39258,58.16992 -4.80078,-1.59961 -3.5,-55 z M 91,233.5 l 3.099609,50.90039 c -1.899998,-0.9 -3.79922,-1.70078 -5.699218,-2.80078 L 85,236 Z M 79.599609,239 82.5,277.80078 77.199219,274.19922 75.099609,242.09961 Z M 659.625,245.57422 c -0.975,-0.075 -1.825,0.375 -2.125,1.625 l -0.0996,0.10156 c -0.8,3.7 0.49922,6.69883 2.69922,5.79883 2.8,0.7 4.00039,-4.2 2.40039,-6 -0.8,-0.85 -1.9,-1.45039 -2.875,-1.52539 z m -589.824219,0.82617 h 0.09961 l 1.40039,23.29883 a 16,16 0 0 1 -5.5,-13.59961 c 0,-3 1.000002,-7.00039 3,-8.90039 z m 347.099609,3.29883 c -0.5,0 -0.90039,0.40039 -0.90039,0.40039 -2.6,0.6 -3.1,1.40117 -5,2.20117 -2,1 -3.99922,1.8 -5.19922,4 l -0.5,1.69922 c -0.4,1.8 -1.30078,2.10039 -0.80078,3.40039 1.8,4 2.60039,0.39961 4.40039,-0.40039 l 2.5,5.30078 a 64,64 0 0 1 7.40039,13.59961 c 1.8,3.8 5,8.50001 8,15 l 6.39844,14.19922 c -0.9,0.5 -0.29844,1.69961 -1.39844,2.09961 L 428,313 c 0.5,1.3 2.09922,2.2 3.69922,3 2.5,-0.9 4.70078,-2.40039 6.30078,-4.40039 l 1.80078,-0.90039 c 4,-1.8 4.79922,-5.29844 6.19922,-7.39844 0.6,-6.49999 1.6,-14.7004 -2,-22.40039 -1.3,-5.59999 -4.00078,-9.99961 -6.30078,-14.09961 -2.2,-3.79999 -4.99883,-7.30039 -8.29883,-10.40039 -2.1,-2 -4.30078,-4.29961 -6.80078,-4.59961 -1.6,-0.9 -4.09922,-1.30156 -5.69922,-2.10156 z m 1.24414,4.67383 c 0.33594,0.0453 0.67969,0.15117 1.05469,0.32617 4.69999,2.7 7.60157,9.1 11.60156,15 l 1.69922,4 c 2.8,3.4 3.49922,7.60117 4.69922,10.20117 2.3,5.2 4.80039,10.39922 4.40039,15.19922 0,0 0.70117,1.20117 -0.29883,1.70117 0,0 -1.00039,0.39883 -0.40039,1.79883 -1,0.4 -1.40078,2 -2.30078,2.5 -1.6,-0.7 -1.2,-2.49922 -2.5,-5.19922 -1,-2.5 -3.20039,-4.60117 -4.40039,-7.20117 l -5.79883,-12.89844 c -1.8,-3.89999 -3.19961,-6.00039 -4.59961,-8.90039 -1,-2.5 -2.50117,-5.00039 -4.20117,-8.90039 -0.9,-1.8 -2.80039,-4.99961 -2.40039,-6.59961 1.5,-0.75 2.4375,-1.16328 3.44531,-1.02734 z m -19.44531,3.22656 -9.39844,4.20117 c -3.2,2.8 -7.00078,4.49844 -10.30078,7.39844 l 1,2.5 3.90039,-1.69922 4.79883,11.19922 2.10156,5 5.29883,12.60156 1.20117,2.39844 c 3.2,7.59999 6.89961,13.30118 9.09961,21.20117 l -3.80078,1.69922 1,2.5 c 5.49999,-1 10.80079,-2.89883 15.80078,-5.29883 l 4.79883,-2.10156 c 0.4,-1.6 0.80078,-3.19961 0.30078,-4.59961 -1,-2.5 -2.79922,-6.09883 -4.69922,-5.29883 -1.3,2 2.19844,5 0.89844,7 -3,1.2 -4.79922,2 -8.19922,2 l -5,-11 c -1.6,-3.6 -4.49922,-8.40117 -5.19922,-12.70117 l 4.69922,-2 0.59961,1.20117 c 0.5,1.3 3,1.69922 3,1.69922 1.8,-0.8 -3.20039,-7.50039 -3.40039,-10.40039 l -2.39844,-0.40039 c -1,0.4 0,2.8 0.5,4 -1.8,0.9 -4.60156,2.10039 -6.10156,1.40039 -0.1,-3 -2.09883,-5.1 -3.79883,-9 l -3.20117,-7.69922 c -1.3,-2.8 -2.09922,-4.70078 -1.69922,-6.30078 1.4,-2.1 4.2,-3.19961 6,-4.09961 l 2.5,0.5 c 1.5,0.8 1.59922,3.59961 3.19922,4.59961 V 268 c 3.79999,-1.6 -0.19844,-5.80078 -1.39844,-8.30078 -0.5,-1.3 -2.10156,-2.09961 -2.10156,-2.09961 z m -279.5,8.70117 a 84,84 0 0 0 7.60156,23 c 0.5,0.7 0.39961,1.59844 0.59961,3.39844 l -6.80078,-1.09961 z m 539.60156,10.09961 2.39844,66.19922 -5.29883,1.59961 -3.59961,-67.5 6.39844,-0.0996 z m 5.39844,0 c 1.8,0 3.2,0.20039 5,0.40039 l 3.70117,61.79883 -6.30078,2 z m -18.59961,0.5 h 1 l 3.80078,68.79883 h -0.0996 l -4.60156,1.10156 -3.59961,-67.70117 c 1.1,-1.2 2.5,-2.09922 3.5,-2.19922 z m 29.09961,0.40039 c 2,0.2 4.00039,0.39883 5.90039,0.79883 l 3.30078,56 -5.59961,2.40039 z m -322.78516,0.37305 c -1.18261,-0.15918 -2.52734,0.92578 -3.71484,1.42578 l -4,1.20117 c -0.9,0.4 -3.69883,-3.9e-4 -4.29883,1.59961 0.5,1.3 0.59961,3.7 3.09961,3.5 1,4.4 1.70078,8.9004 1.80078,13.40039 0.4,1.2 -0.002,2.8 0.39844,4 -1.8,-2.1 -4.7,-3.70117 -7,-7.20117 -1.8,-2.8 -7.99844,-7.4 -4.39844,-9 -0.4,-1.3 -1.60039,-2.2 -2.40039,-2 -2.4,1 -6.70117,2.50039 -8.20117,4.40039 0.5,1.3 1.50039,1.00078 2.90039,1.80078 L 328,290.09961 c 1,-0.3 1.79961,1.70117 2.59961,2.70117 2.6,3.2 5.4,5.19883 8,8.29883 1,1.4 2.40117,1.9 4.20117,4 a 16,16 0 0 0 2.39844,3.40039 c -0.3,2.5 0.6,4.09922 0,5.69922 0,10.69999 -1,20.40118 0,30.70117 -3.6,1.2 -3.29883,3.20039 -2.79883,4.40039 0,0 0.79883,2.49922 1.79883,2.19922 1,-0.5 0.5,-1.6 1.5,-2 L 347.5,348.80078 c 1.8,-0.7 3.6,-0.80039 5,-1.40039 0.9,-0.4 2.6,-0.6 3.5,-1 1,-0.3 0.4,-2.40117 0,-3.70117 -1.4,-0.9 -3.19922,-0.19844 -3.69922,-1.39844 -1.1,-5.49999 0.7,-17.10001 -0.5,-24 3.3,3 6.1,7.7 8.5,11 2.3,3.5 5.6,6.39883 8,9.79883 L 364.5,339.5 c 0.4,1.3 1.80078,2.09961 1.80078,2.09961 3.4,0.1 5.29961,-0.49883 7.59961,-2.79883 l 0.5,-1.60156 c -1.4,-0.9 -2.30117,-0.59922 -3.20117,-0.19922 -5.3,-5.09999 -10.99962,-14.29923 -16.59961,-20.69922 -0.4,-1.2 -2.29961,-3.40078 -3.09961,-5.80078 -0.7,-1.4 -0.59922,-2.79922 -0.69922,-4.19922 -0.6,-8.09999 -0.40078,-16.3004 0.69922,-24.40039 0.8,-0.3 2.70078,-1.00117 2.30078,-2.20117 -0.525,-1.3875 -1.17715,-1.92988 -1.88672,-2.02539 z m 280.84961,0.13086 c -3.0793,8.4614 -5.28067,16.6255 -9.36328,23.89453 -7.99999,13.69999 -16.59962,27.2004 -25.59961,40.40039 -9.19999,13.99999 -18.90001,27.60001 -29,41 a 908.2,908.2 0 0 1 -35.70117,42.30078 c -8.79999,10.29999 -17.19923,20.69884 -27.19922,29.79883 v 0.10156 C 489.00041,471.00077 471.30076,486.00001 453.80078,501 a 46.6,46.6 0 0 1 -9.10156,6.19922 c -2,0.8 -4,1.00039 -6,0.40039 -12.89999,-4.8 -25.89845,-9.20001 -38.39844,-15 -18.99998,-8.79999 -37.80002,-18.60001 -56.5,-28 -7.99999,-3.9 -15.90118,-8 -23.70117,-12 -13.69999,-7.09999 -27.19884,-14.49923 -40.79883,-21.69922 l -17.10156,-9 v -1.59961 c 9.69999,-2.1 19.50079,-4.80117 29.30078,-6.20117 A 236.2,236.2 0 0 0 364,391 c 18.59998,-9.59999 38.89924,-16.0004 58.19922,-24.40039 32.59997,-14.29999 64.5012,-29.99924 95.70117,-47.19922 14.59999,-7.99999 28.40041,-18.00001 43.40039,-25 12.39999,-5.49999 26.20001,-7.7 39.5,-11 7.19999,-1.8 14.49884,-3.00078 21.79883,-4.30078 3.28802,-0.59782 6.67749,-0.89709 10.16406,-1.29492 z m 53.53711,1.5957 5.79883,2 2.59961,47 -5.39844,3 z m 11.5,4.19922 4.59961,2.5 2,36 -4.30078,3 z m 10.39844,5.5 3.20117,1.70117 2.19922,23.5 v 0.0996 l -4,3.19922 z M 318,290 l -9.80078,3.30078 c -3.5,2.6 -7.39883,3.9 -10.79883,6.5 l 0.79883,2.69922 4,-1.40039 3.90039,11.59961 1.70117,5.10156 4.39844,13 0.90039,2.5 c 2.6,7.79999 5.80039,13.69845 7.40039,21.89844 l -4,1.20117 0.90039,2.69922 c 6.29999,-0.8 11.20001,-2.3 16,-4 l 5,-1.69922 c 0.6,-1.6 1.09922,-3.19961 0.69922,-4.59961 -0.9,-2.6 -2.09922,-6.30117 -4.19922,-5.70117 -1.5,2 1.79883,4.99961 0.29883,7.09961 -3,1 -4.99883,1.60039 -8.29883,1.40039 l -4.20117,-11.40039 c -1.3,-3.8 -3.79961,-8.79922 -4.09961,-13.19922 l 4.80078,-1.59961 0.5,1.29883 c 0.4,1.3 2.79883,2 2.79883,2 2,-0.7 -2.59844,-7.79922 -2.39844,-10.69922 l -2.5,-0.59961 c -1,0.3 -0.002,2.99961 0.39844,4.09961 -2,0.7 -4.99844,1.60078 -6.39844,0.80078 0.2,-2.9 -1.7,-5.20157 -3,-9.10156 -1,-2.5 -1.30156,-4.5 -2.60156,-8 -1,-3 -1.79922,-4.89844 -1.19922,-6.39844 1.5,-2 4.40039,-3.00156 6.40039,-3.60156 l 2.40039,0.60156 c 1.4,0.8 1.29883,3.79883 2.79883,4.79883 3.9,-1.3 0.20078,-5.80039 -0.69922,-8.40039 C 319.50039,291.19922 318.9,290.5 318,290 Z m 319.21094,1.73242 2.98828,56.4668 -4.5,0.80078 L 632.5,304 Z m 79.98828,3.56836 c 3.3,3.7 3.30039,8.19844 1.40039,12.39844 z m -427.23633,5.39844 c -0.4125,-0.075 -0.91289,0.0516 -1.46289,0.10156 -1,0.4 -0.59961,1.89844 -0.59961,1.89844 -1,0.3 -2.5,-0.89844 -2.5,-0.89844 -2.5,0 -3.49961,-0.50039 -5.59961,0.0996 -2,0.7 -2.70078,2.39922 -3.80078,2.69922 a 14.3,14.3 0 0 0 0,11.80078 c 0.9,2.7 3.8,4.59883 6,6.29883 2.3,1.7 3.2,1.40039 4.5,2.40039 1.4,1 2.80078,2.10039 5.30078,2.90039 2.5,0.8 3.99883,1.89922 5.79883,4.19922 5.19999,10.49999 6.40078,21.80118 1.30078,27.70117 -1,0.4 -0.70117,1.69922 -1.70117,2.19922 -3.5,-0.7 -6.89961,-8.49922 -5.59961,-11.69922 0.6,-1.8 1.70117,-2.10039 2.70117,-2.40039 0.2,-3 -1.60117,-5.50039 -3.70117,-4.90039 -2.5,2.5 -4.70039,3.00078 -7.40039,5.30078 0.3,1.3 0.80156,2.59922 2.10156,3.69922 1,-0.2 0.69922,-1.7 1.69922,-2 0.6,5.79999 2.79922,9.5 4.69922,12 1.4,1 5.70117,4.2 7.70117,3.5 l 4.19922,-1.0996 c 3.7,-2.6 5.50039,-5.59961 5.90039,-10.59961 a 34,34 0 0 0 -5.80078,-21.20117 L 300.40039,328.5 C 295.6004,322.80001 289.2,322.8996 285.5,318.09961 c -2.2,-3.7 -3.4,-8.0004 -3.5,-12.40039 2.1,-0.4 4.3,7.8e-4 6,1.30078 0.7,2.7 0.6,5.70078 2,6.80078 2.5,0.7 2.3,-3.60117 2.5,-6.70117 -0.4,-1.4 3.9e-4,-4.39883 -1.59961,-5.29883 -0.2,-0.75 -0.525,-1.02656 -0.9375,-1.10156 z M 119.5,312.5 c -1.4,1 -3.79922,1.79922 -4.19922,3.19922 -1.4,1 -1.70117,2.50117 -3.20117,3.70117 -1.7,2.3 -2.1,3.69883 -4,6.29883 -0.4,1.3 -0.6,0.90078 -1,2.30078 -5.3,14.79999 -9.999216,31.19923 -6.19922,41.19922 A 12.5,12.5 0 0 0 107.69922,377 c 2.2,0.5 3.60117,-0.70078 4.70117,-0.30078 1,0.3 0.30039,3.1 0.40039,4.5 0,1.8 0.99922,3 2.19922,4 1.7,1.7 3.40039,2 5.90039,1 0.4,-1.2 0.69961,-2.49883 -0.40039,-2.79883 -3.1,-0.8 -5,-5.9 -2.5,-11 0.3,-1.4 2.09961,-3.9 3.59961,-5 2.1,-3.9 4.20117,-7.7004 6.70117,-12.90039 l 2.59961,-9.5 1.79883,-7 c 1,-4 0.90117,-6.99961 0.70117,-10.09961 0,-4.3 -0.40117,-7.39961 -1.70117,-10.59961 -2.4,-3.6 -6.69923,-4.80078 -12.19922,-4.80078 z m 112.75586,1.04492 c -2.68359,0.1875 -5.43086,0.98008 -7.75586,1.95508 -1,0.2 -1.19922,1.00078 -2.19922,1.30078 -3.3,0.5 -4.7,0.80001 -4,5 0.2,1.4 2.19883,1.59883 4.29883,1.29883 1.1,6.99999 2.60078,11.3004 3.30078,17.40039 0.3,2 -10e-4,2.30078 0.29883,3.80078 1.6,2.5 1,5.59883 1.5,8.29883 l 4,24 c -1,0.2 -1.99844,0.40039 -2.89844,1.90039 1.6,2.6 2.59883,2.5 4.79883,2 1.8,-1.7 6.5,-1.40078 8.5,-1.80078 1.1,-0.1 0.79961,-1.19922 0.59961,-2.69922 -0.2,-1.2 -2.49922,-1.00078 -2.69922,-2.30078 a 27,27 0 0 1 -2.40039,-8.39844 c -1,-5.49999 -3.49922,-13.70157 -3.69922,-21.10156 -0.2,-1.3 0.80039,-1.39961 1.90039,-1.59961 1.3,1 2.29961,1.00078 2.59961,2.30078 1.4,1.3 1.69883,2.10039 2.79883,3.40039 3.3,4.4 3.20039,10.59883 4.90039,15.79883 2.5,8.29999 -0.1,11.00039 2.5,13.40039 3.2,0 7.7,0.1 7,-4 -0.3,-1.4 -1.29883,-1.3 -2.29883,-1 -2.9,-9.79999 -4.5,-24.79923 -10,-31.19922 -0.2,-1.5 -1.30156,-1.30156 -1.60156,-2.60156 L 242.59961,337 c 1,-2 1.7,-3.99922 2,-6.19922 0.3,-3.79999 -0.29922,-7.60117 -1.69922,-11.20117 -1.875,-5 -6.17188,-6.36719 -10.64453,-6.05469 z M 627.69922,314 l 2.60156,36 -6,1 -2.40039,-26.59961 c 2.1,-3.4 3.99883,-6.80039 5.79883,-10.40039 z M 214.30078,316 204,317 c -4,1.8 -8.1,2.2 -12,4 l 0.19922,2.69922 4.20117,-0.39844 1,12 0.59961,5.5 1.40039,13.69922 0.19922,2.69922 c 0.9,8.19999 2.50117,14.80001 2.20117,23 l -4.10156,0.40039 0.20117,2.70117 c 6.39999,0.8 11.49962,0.19883 16.59961,-0.20117 l 5.19922,-0.5 c 0.9,-1.5 1.80117,-2.99883 1.70117,-4.29883 -0.3,-2.8 -0.60117,-6.7 -2.70117,-6.5 -2,1.5 0.50156,5.29844 -1.39844,6.89844 -3.2,0.3 -5.2,0.50039 -8.5,-0.59961 -0.2,-2.6 -1.00039,-7.8 -1.40039,-12 -0.4,-4 -1.7,-9.39922 -1,-13.69922 l 5,-0.5 0.29883,1.40039 c 0,1.3 2.30078,2.5 2.30078,2.5 2.1,-0.2 -0.8,-8.2 0,-11 l -2.19922,-1 c -1,0 -0.80117,2.7 -0.70117,4 -2,0.2 -4.99883,0.49883 -6.29883,-0.70117 0.8,-2.8 -0.50039,-5.4 -0.90039,-9.5 l -0.70117,-8.5 c -0.2,-3 -0.59922,-4.99883 0.30078,-6.29883 2,-1.7 4.99961,-2.00156 7.09961,-2.10156 l 2.09961,1 c 1.2,1.3 0.50156,4.00078 1.60156,5.30078 4.2,-0.4 1.59883,-5.60078 1.29883,-8.30078 0,-1.4 -1.29883,-2.69922 -1.29883,-2.69922 z m -73,0.40039 c -2,0 -3.20117,-0.3 -4.20117,1 -0.4,2.6 2.59961,2.29883 2.59961,4.29883 0,3.1 -0.49922,5.3 -0.69922,8 L 135.59961,363.5 c 0.6,4.3 -0.59922,8.50079 0.80078,12.30078 1,3.2 2.79922,6.69961 6.19922,7.59961 2,0.2 1.30039,-3.9e-4 2.40039,0.0996 4.1,0.5 7.3,-4.00078 9,-7.30078 a 50,50 0 0 0 5,-19.89844 l 0.19922,-1.40039 1.20117,-13.5 c 1.7,-6.69999 0.9,-15.70039 4,-18.40039 1.3,-1 1.09882,-3.99961 -2.70117,-4.59961 -2.2,-0.3 -5.29961,-0.20039 -7.59961,-0.40039 -1,0 0.29961,2.39922 0.0996,3.69922 0,0 1,0.001 2,1.70117 0.6,2.8 -1,8.00001 -1.5,13.5 l -2,20 c -0.5,5.6 -1.39844,15.7 -5.39844,19 -2.5,2 -4.60156,-0.69961 -5.60156,-2.09961 v -0.10156 c -0.4,-5.5 0.20039,-11.59884 0.90039,-18.29883 l 1.20117,-12.70117 1.19922,-12.29883 0.80078,-8 c 1.1,-1.4 2.29961,-3.20078 1.59961,-4.30078 -1.1,-1.9 -4.09961,-1.69922 -6.09961,-1.69922 z m -19.70117,1.09961 2,0.5 c 4.1,1 3.7,4.2004 4,9.40039 -0.2,5 -0.99961,9.90001 -2.59961,14.5 -1,4 -2.50078,10.3 -3.80078,13 -2,4.3 -2.8,7.29883 -4.5,9.79883 -2.8,-2.2 -4.5,-4.19961 -8,-3.59961 l -1.39844,1 c -1.8,-1.8 -0.002,-8.7 0.89844,-11.5 1.6,-11.99999 6.2004,-23.39962 13.40039,-33.09961 z m 67.30078,0.80078 -10.5,0.29883 c -4,1.3 -8.10118,1.30078 -12.20117,2.80078 v 2.79883 h 4.20117 v 12 l 0.0996,5.40039 0.19922,13.80078 V 358 c 0.1,8.29999 1.30078,14.99962 0.30078,23.09961 h -4 v 2.80078 c 5.39999,1 11.00001,1.39961 16.5,1.09961 h 5.30078 c 1,-1.5 2,-2.69922 2,-4.19922 0,-2.7 -0.002,-6.70117 -2.10156,-6.70117 -2.1,1.4 3.9e-4,5.40078 -2.09961,6.80078 -3,0 -5.09883,-7.8e-4 -8.29883,-1.30078 l -0.40039,-12 c 0,-4 -0.80039,-9.69922 0.0996,-13.69922 l 5.19922,-0.0996 v 1.39844 c 0,1.2 2.10156,2.60156 2.10156,2.60156 2.1,0 -0.10156,-8.20039 0.89844,-10.90039 L 184,345.59961 c -1,0 -1,2.8 -1,4 -2,0 -5,7.8e-4 -6,-1.19922 1,-2.8 -0.20078,-5.4 -0.30078,-9.5 v -8.5 c 0,-3.2 3.9e-4,-5.20078 0.90039,-6.30078 2.1,-1.5 5.20117,-1.59961 7.20117,-1.59961 l 2.09961,1.30078 c 1,1.3 0,3.99844 1,5.39844 H 188 c 4,0 2.00039,-5.39961 1.90039,-8.09961 0,-1.4 -1,-2.79883 -1,-2.79883 z m 45,0 c 1.3,1.1 2.39922,1.79844 2.69922,3.89844 0.6,2.7 0.89961,2.40156 1.09961,5.60156 0,2 -0.29961,4.19883 -0.0996,5.79883 -0.8,1.6 -5.29961,4.8 -5.59961,3 l -3.40039,-17.29883 z m 382.90039,13.5 h 0.0996 l 2,20.09961 c -1.8,0.4 -3.60078,0.6 -5.30078,0.5 l -1.5,-13.80078 1.59961,-2.40039 z m 72.5,10.59961 12.59961,43.40039 H 702 l -2.30078,1.5 c -1.5,-1 -3.19922,-1.60039 -4.19922,-2.90039 -1.8,-2 -3.8,-3.90039 -6,-5.40039 -5.79999,-3.5 -12.49923,-4.99922 -19.19922,-4.19922 a 31,31 0 0 0 -6.70117,1 C 652.99962,378.20078 642.60038,381 632.40039,384 l -2.59961,0.69922 -21.80078,6.40039 -6,1.70117 -14.80078,-12.70117 -2.29883,-2.19922 c 2.8,-4.39999 6.19922,-10.1 10.19922,-15.5 1.1,-1.4 3.80039,-1.7 5.90039,-2 a 238,238 0 0 0 78.5,-14.80078 z m -82,3 L 608,352 l -4.80078,-0.40039 c 1.4,-2.1 2.60156,-4.09961 4.10156,-6.09961 z m -497.5,20.40039 3,0.69922 c 0,0 0.79883,1.69922 0.29883,3.19922 h 0.0996 c 0,0 -0.59961,1.2 -1.59961,2 -1.1,0.8 -1.49961,0.70039 -2.59961,0.40039 -2.1,-0.5 -1.39922,-6.99883 0.80078,-6.29883 z m 560.09961,17.29883 2.29883,63.70117 c -1.3,0.5 -2.7,0.69844 -4,0.89844 L 665.90039,419.5 c 0.6,-1.9 0.90039,-3.80078 0.90039,-5.80078 0,-8.79999 -1.30156,-17.59884 -1.60156,-26.29883 0,-1.3 1.50117,-3.80117 2.70117,-4.20117 h 2 z m 5.59961,0.0996 3.59961,0.80078 3.59961,57.80078 c -1.6,1 -3.19844,1.99883 -4.89844,2.79883 z M 656,384.5 h 0.0996 v 14.59961 l -33,6.70117 -6.29883,-9.10156 z m 28.69922,1.69922 c 2.1,1 3.90156,2.1 5.60156,3.5 L 692.90039,433.5 a 33.8,33.8 0 0 1 -5,4.59961 z m -104,1.80078 h 0.10156 c 2.8,0 5.69844,0.8 7.39844,2.5 3.79999,4 2.69999,9.99922 -2,14.19922 -3,2.8 -4.20001,9.5 -9,10 -6.69999,-1.5 -6.79883,-10.30001 -10.29883,-15.5 1.9,-2.5 3.99883,-5.7 6.29883,-8.5 2,-1.8 4.7,-2.79922 7.5,-2.69922 z m 115.40039,8.30078 c 5.79999,8.99999 6.40078,20.29845 1.80078,29.89844 z m -90.5,8.09961 c 1.2,-0.1 2.39961,-7.8e-4 3.59961,0.19922 3,1 5.50078,3.2 6.80078,6 0.8,1.8 -0.49961,5.70078 -2.09961,7.30078 -5.99999,6.39999 -10.20119,10.70039 -26.70117,5.90039 0,-8.49999 9.8004,-18.60039 18.40039,-19.40039 z M 647.30078,408.5 h 0.0996 1.90039 v 0.0996 c 1.8,0.5 3.99961,0.80117 5.59961,1.70117 0.8,0.5 1.39883,0.99883 1.79883,1.79883 l 0.20117,0.30078 c 0.4,0.8 0.59922,1.69883 0.69922,2.79883 v 0.70117 c 0,1.2 -0.10039,2.4 -0.40039,3.5 -0.3,1 -0.79883,1.79961 -1.29883,2.59961 a 15.7,15.7 0 0 1 -6.30078,5 c -1.6,0.8 -3.79883,0.79922 -5.79883,1.19922 0.1,-4.9 -7.8e-4,-9.20001 0.69922,-13.5 0.2,-1.7 7.8e-4,-4.29883 1.30078,-5.29883 0.4,-0.4 0.9,-0.80039 1.5,-0.90039 z m -86.67969,0.39453 c 10.52014,6.53751 -1.41938,10.13265 -0.92187,15.40625 h -12 z m 76.2793,2.50586 H 637 c -1.1,6.29999 -1.39961,11.30001 -2.59961,16 l -0.20117,1.29883 -1.59961,-16 z m -507.59961,2.29883 H 129.5 c 0.7,-0.2 1.59961,-0.2 2.09961,0 6.59999,2.1 12.70079,5.00156 19.30078,6.60156 10.99999,2.7 22.39884,4.7 33.79883,7 -15.29999,12.79999 -37.29885,13.99923 -53.29883,26.69922 15.69998,1 29.10041,-5.8 44.40039,-10.5 l -2.70117,9.19922 c -1.3,3.99999 -2.29922,8.30117 -4.19922,12.20117 -1.3,2.7 -3.4,5.89961 -6,7.09961 -21.19998,10.99999 -40.70119,3.9996 -59.70117,-6.90039 -1,-0.5 -1.8,-2.49961 -1.5,-3.59961 3,-18.59998 9.30158,-35.60001 25.60156,-47 z m 498.19922,2.60156 2.80078,30.89844 c -0.8,0 -1.50156,0.20039 -2.10156,0.40039 l -3.39844,1 -2.10156,-27.40039 z m -52.69922,1.89844 c 5.7,0 10.79883,4.20118 10.79883,9.70117 0,5.6 -4.99883,9.69922 -10.79883,9.69922 -5.69999,0 -10.80078,-4.19922 -10.80078,-9.69922 0,-5.59999 5.10079,-9.70117 10.80078,-9.70117 z m -343.20117,3.70117 V 422 c 1.4,-0.1 2.9,0.4 5.5,1 l -32,87.30078 c 9.19999,-1.3 11.00117,-8.3 13.20117,-14 8.09999,-20.89998 15.69845,-42.00002 23.39844,-63 A 28,28 0 0 0 243,427.59961 c 0.5,-5 3.3,-5.3 7,-3.5 5.19999,2.5 10.69922,4.89961 15.19922,8.59961 2.6,2 4.00117,6.5 4.20117,10 1,16.69998 -3.70079,32.50119 -8.30078,48.20117 -6.29999,21.79998 -19.90002,38.50041 -36.5,53.40039 -14.39999,12.99999 -31.39885,19.99923 -51.29883,25.69922 -1,-8.19999 -2.60039,-16.30079 -3.40039,-24.30078 -2,-17.79998 -1.60117,-35.80002 1.29883,-53.5 1.6,-8.39999 3.20117,-17.19962 6.20117,-25.09961 4.5,-11.69999 9.90001,-22.80001 15.5,-34 2.7,-5.2 6.29923,-9.29961 13.69922,-9.09961 8.39999,0 16.70001,-1.39961 25,-2.09961 z m 343.20117,1.69922 v 0.0996 c -3.1,0 -5.30078,2 -5.30078,4 0,2.2 2.20078,4.30078 5.30078,4.30078 3.1,0 5.29883,-1.99922 5.29883,-4.19922 0,-2.1 -2.19883,-4.20117 -5.29883,-4.20117 z M 617.5,427.19922 619,448 l -1,-1.30078 c -3.3,-4.7 -8.40078,-9.49923 -3.80078,-15.69922 z m 43.40039,1 1.59961,19.40039 h -1.09961 c -1.2,-0.3 -2.5,0 -4,0.5 l -1,-15.90039 c 1.6,-1 3.2,-2.5 4.5,-4 z M 556,433.69922 c 4,0 9.50078,6.40078 9.30078,10.80078 0,6.59999 -9.00039,17 -14.40039,17 -4.2,0 -11.69961,-7.69922 -11.59961,-11.69922 0,-8.99999 7.59923,-16.2 16.69922,-16 z m 78.5,1.5 c 1,0.8 2.90078,1.40117 5.80078,1.70117 l 1.09961,11.79883 c -1.8,-1 -3.70117,-1.39961 -5.70117,-1.59961 z m 16.30078,0.10156 1.29883,15.59961 c -1.5,0.8 -3.00039,1.69883 -4.40039,2.29883 L 647,452.59961 h 0.19922 l -1.19922,-16 c 1.7,-0.1 3.20078,-0.69883 4.80078,-1.29883 z m -64.5,1.39844 c 5,-0.9 14.79844,8.40117 14.89844,12.70117 0.2,4.7 -3.69844,8.40039 -8.89844,8.40039 -6.69999,0 -16,-8.50079 -14.5,-14.80078 0.6,-2.7 5.3,-5.80078 8.5,-6.30078 z m -307.90039,2.60156 c 12.79999,6.69999 26.49962,12.29962 38.09961,20.59961 4.7,3.1 6.30039,12.09884 7.40039,18.79883 a 100,100 0 0 1 -9.5,57.5 c -2.8,6.09999 -5.99961,12.10079 -8.59961,18.30078 -1.7,4 -4.80039,4.2 -7.40039,2.5 a 352,352 0 0 1 -27.70117,-16.30078 c -4.9,-3.2 -8.99883,-7.79883 -13.29883,-11.79883 -2.5,-2.5 -3.10117,-5.4 -0.70117,-8 7.39999,-8.29999 9.70117,-19.00001 12.70117,-29 2.4,-8.39999 4.39922,-16.80118 6.69922,-25.20117 l 2,-0.19922 15.59961,49.90039 c 5.09999,0.2 3.90156,-4.30039 3.60156,-7.40039 a 138.6,138.6 0 0 0 -13,-48.40039 c -3,-6.39999 -5.40156,-12.8004 -8.10156,-19.40039 z M 520.5,451.59961 c 7.49999,2.5 13.80078,-0.69921 15.80078,3.80078 1,2.6 -2.7,10.29883 -6,13.79883 -3,-5.3 -6.20078,-11.69962 -9.80078,-17.59961 z m 114,3 a 7,7 0 0 1 7,5.70117 c -0.8,3.3 -5.6,4.19922 -8.5,4.69922 -1.4,0.4 -3.29961,0.7 -7.59961,-1.5 -0.7,-3.3 1.39922,-5.7 3.19922,-7 1.7,-1.2 3.8,-1.80078 6,-1.80078 z m 25.19922,2 H 660.5 c 3.1,0.4 6.20078,2.20039 9.30078,3.40039 0.7,-0.2 1,1.30078 1,2.30078 1,1.5 -6.3,9.49922 -11.5,10.19922 -3.99999,-1.1 -5.00117,-6.00078 -5.70117,-9.30078 -0.8,-3.9 2.19961,-6.6 6.09961,-6.5 z m -94.5,6.09961 c 3,4.99999 3.60078,6.00118 -1.19922,13.70117 -2.3,3.6 -7.60039,5.30039 -11.40039,7.90039 -11.69999,-6.49999 -12.39883,-7.4004 -9.79883,-15.90039 8.49999,3.4 16.19844,1.29882 22.39844,-5.70117 z M 682.5,463.59961 c 3,0 6.5,1 8,3.5 0.2,2.5 -13.09922,17.20077 -17.69922,3.30078 0.6,-3.7 4.6,-6.29961 7,-6.59961 z M 590.40039,464.80078 598.5,468.5 c 1.5,5.69999 -3.99922,8.60078 -5.19922,9.80078 -3.6,2.8 -8.5,4.3 -13,6 -4.99999,2 -7.90117,-1.00118 -6.70117,-6.20117 1.9,-8.59999 5.2004,-12.09922 16.90039,-13.19922 z m 17,0.69922 c 0.2,0 20.10001,6.49961 30,3.59961 0,1 8.5,-3.59922 8.5,-2.69922 12.69999,17.79998 -2.00079,15.2 -11.80078,14.5 0.4,-6.49999 -4.49883,-5.7 -9.29883,-6 A 69,69 0 0 1 610.5,471.69922 c -1.8,-0.6 -3,-2.79883 -4.5,-4.29883 l 1.30078,-1.80078 z M 667,477.5 c 0.9,0 2.3,0.30078 3,0.80078 2.8,1.3 4.2,1.89922 7,5.19922 0.2,1.8 -1.19922,5 -2.69922,6 -2.8,1.9 -4.30156,3.2 -7.60156,3 a 19,19 0 0 1 -4,-1.40039 c -2.1,-1 -6.39883,-0.99884 -5.29883,-7.79883 1.9,-2.3 2.4,-2.80117 5,-4.70117 a 17,17 0 0 1 4.59961,-1 z m -133,5.30078 c 2,0 4.00078,1 5.80078,3 1.6,1.8 1.4,3.29844 3.5,4.39844 4.6,2.5 5.5,7.00156 1,9.60156 -4.19999,2.6 -4.2004,5.89844 -12.40039,5.89844 -4.99999,0 -7.59961,-4.8 -8.59961,-8 -1.7,-4.8 0.79883,-9.99844 5.29883,-12.89844 a 10,10 0 0 1 5.40039,-2 z m 31,1 c 1.3,0 2.49922,0.29961 3.69922,0.59961 2.4,0.9 4.50078,2.7 5.30078,5 v 0.19922 a 8,8 0 0 1 -1.5,7.20117 c -1.6,2 -3.80039,3.49922 -6.40039,4.19922 -2.7,0.9 -5.49883,0.9 -7.79883,0 A 8.2,8.2 0 0 1 553,496 a 8.5,8.5 0 0 1 1.5,-7.30078 c 2.6,-3 6.4,-4.79883 10.5,-4.79883 z m 32.80078,2.5 c 1.4,0 2.8,0.9 4,1.5 a 10,10 0 0 1 4.59961,13.29883 18.7,18.7 0 0 1 -11.5,8.30078 C 588.6004,510.90039 582.6,508.39999 578,503 c -4.4,-5.29999 -3.60077,-8.1 3.19922,-10.5 l 16,-6 h 0.60156 z m 43.07227,2.00781 c 3.65729,-0.16524 6.14742,1.99985 8.92773,3.19141 2.3,1 4.19961,4.39922 4.59961,6.69922 0.4,2 -1.3,6.2 -3,7 -2.4,1 -6.6,0.50039 -8.5,-1.09961 -4,-3.3 -8.5,-7.19884 -6,-14.79883 a 9,9 0 0 1 3.97266,-0.99219 z M 565,489.30078 a 7,7 0 0 0 -2.5,0.5 7,7 0 0 0 -3.5,2.29883 c -0.8,0.9 -0.89922,1.60117 -0.69922,2.20117 0.2,0.6 0.79883,1.1 1.79883,1.5 1,0.5 2.70117,0.5 4.20117,0 H 564.5 a 7,7 0 0 0 3.59961,-2.40039 c 0.7,-0.8 0.79961,-1.59961 0.59961,-2.09961 -0.2,-0.6 -0.79883,-1.20156 -1.79883,-1.60156 -0.5,-0.2 -1.2,-0.29883 -2,-0.29883 z m -7.96289,16.60352 c 4.48995,0.49704 9.37265,0.70244 12.96289,2.89648 2.7,1.5 3.80078,5.89922 4.80078,7.69922 0,7.99999 -9.80118,14.79961 -18.20117,14.59961 -4.2,-0.2 -9.6,-6.59961 -9.5,-11.09961 0.49778,-7.46668 5.25758,-14.6242 9.9375,-14.0957 z"/>
</svg>