<svg xmlns="http://www.w3.org/2000/svg" xml:space="preserve" width="800" height="580">
  <defs>
    <clipPath id="a" clipPathUnits="userSpaceOnUse"/>
  </defs>
  <path fill="#93bce6" d="M202.2 8.5c-6.9 2.2-11 9.2-9.1 13.6.7 1.5 3.2 3.3 4.5 3.1 4.7-.6 11.2-9.8 9.5-13.2-1-1.9-3.8-2.8-4.8-3.5zm-29.4 4.8c-1.3 0-2.7.4-4.2 1-4.7 1.7-6.8 7-5 12.3 1.7 4.8 6.2 7.2 10.9 5.6 3-1 7.5-9.3 6.5-12.2h.1c-1.5-4.4-4.4-6.7-8.3-6.7zm42.5 10.8c-.4 0-.8 0-1 .2-.8.7-11.8 5.6-11.6 11.3 2.4 4 10.2 1.3 15 1.2 1.4 0 4-2.3 4-3.5 0-2.7-1-5.6-2.5-7.9-.5-.8-2.5-1.4-3.9-1.3zm30 17.7c-2 0-4.4.5-7.1 1.5-4.9 1.6-5.4 5-4 8.7 3.4 10.4 9.6 13.4 19.2 9 2-1.7 1.1-5.1 1.1-6.9 0-8.5-3-12.5-9.2-12.3zm-78 1.4c-2.1 0-4.3.2-6.3.9-2.9.8-7.1 4.7-6.5 8.1.5 3 3.6 4.1 6 4.9 3.3 1.1 5.5 1.8 9.9 1.2 5.3-3.1 4.9-7 6.4-10.3.4-.8-2-4.2-2.7-4.3-2.2-.3-4.5-.5-6.7-.5zm108.4 3.3c-8 .8-13.2 7.8-12 17 .5 3.4 2.1 7.6 7.8 5.8 10.7-1 15-4.7 14.6-12.6-.2-3.9-2.8-10.9-10.4-10.2zm-65 .1c-7 .3-30.6 9.2-31 10.7-1 1.4.3 1.5.5 2.1 8.5 3.7 27.4-.4 32.4-12.4-.2-.3-.9-.4-1.9-.4zm8 11.4c-4.2 2.5-10.2 4-12.2 7.5-2.9 5.5.4 11.6 4.6 16.2 4.1 4.5 8.9 3.1 13.5.4 2.7-1.6 5.4-3 8.3-4 4.8-2 4.4-5.6 2.4-9.1-3.4-6-6.5-10-16.7-11zm-46.5 14.7c-5.7.2-9.1 4-9.8 12-.3 2.8.6 7.2 2.4 8.4 3 1.7 7.2 1.4 10.8 1.9 5 0 8.1-4 8.9-11.2.6-5.8-3.7-10.3-10.5-11h-1.8zM278.9 77c-6.5 0-10 4.4-14 8.1-3.8 3.6-3.8 7.5.6 10.3 2.4 1.4 5 2.7 7.6 3.7 6.2 2.3 11.1-1 14.2-5.3a16 16 0 0 0 1.8-12c-.6-2.3-5.8-3.2-9-4.8h.1-1.3zm-46.4 16c-2 3.2-1 5 2.7 5 6 .2 12.1 0 18.4 0 .8-5-1.2-8.6-4-11-3.6-3-8.8-4.1-10.1-3.8-1.9.6-4.5 6-7 9.8zm-94-3c-1.2 0-2.5 0-3.7.2-5.6.7-11.7 3-12.2 9-.3 3.5 3 8.4 6.1 11.3 4.7 4.3 10.2 5.3 17.3 4.1 8.5-1.4 9-8 12.5-13.2-6.5-8.2-12-11.5-20-11.5zm49.5 20.2c4.2-1.3 8.7-2 12-4.2 2.8-1.8 3.5-9.8 3.5-9.8-3.7-2.8-7.8-2.5-12.7 1.7-3.5 3-3.5 8.2-2.8 12.3zm-32.4 11.6c-4.3 0-8.3 2-12.2 3.7-3.2 1.4-6.4 4.6-3.9 8 1.5 2 6.6 3.6 8.7 2.6 5.8-2.7 11-6.9 17-11a16.3 16.3 0 0 0-9.6-3.3zm9.6 3.4zM580.7 388c-2.8 0-5.7.9-7.4 2.8-2.5 2.7-4.5 5.8-6.4 8.4 3.5 5.2 3.6 14 10.3 15.5 4.9-.5 6-7.2 9-10 4.8-4.2 5.8-10.2 2-14.1a10.4 10.4 0 0 0-7.5-2.6zm25.8 16.3c-8.8.3-19.4 10.7-19.3 19.5 16.4 4.9 20.6.5 26.6-5.9 1.7-1.7 3-5.5 2.1-7.3a11.7 11.7 0 0 0-6.8-6c-.8-.2-1.7-.3-2.6-.3zm-46 4.5c-4.2 5-20.3 15.4-13 15.4h12.2c-.5-5.2 11.6-8.9.9-15.4zm-4.3 25c-9-.2-16.6 7-16.8 16-.1 4 7.5 11.7 11.8 11.7 5.3.1 14.2-10.4 14.3-17 .1-4.5-5.3-10.7-9.3-10.7zm30.8 2.7h-.5c-3.2.6-8 3.8-8.6 6.5-1.4 6.2 8 14.7 14.6 14.7 5.2 0 9-3.6 8.9-8.3-.2-4.2-9.3-13-14.4-12.9zm47.6 18c-1.9 0-4 .7-5.8 2-1.9 1.2-4 3.6-3.2 6.9 4.1 2.2 6 1.9 7.6 1.6 2.8-.6 7.6-1.5 8.5-4.9a6.9 6.9 0 0 0-7-5.6zm25.2 2c-3.9 0-6.8 2.7-6.1 6.6.7 3.4 1.8 8.2 5.7 9.2 5.2-.6 12.6-8.6 11.6-10.1-.1-1-.4-2.6-1-2.3-3.2-1.2-6.2-3-9.4-3.3h-.8zm-94.5 6.1c-6.3 7-13.8 9-22.5 5.7-1.2 3.9-1.9 6.7-.2 9 2.5 3.3 7.6 5.2 10.1 6.9 4.5-3 9.4-4.6 11.4-8 4.8-7.7 4.2-8.6 1.2-13.6zm116.6.9-2 .1c-2.4.4-6.4 3-7 6.7 4.6 13.9 18-.8 17.6-3.3-1.4-2.8-5.5-3.5-8.6-3.5zm-91.4 1.2c-11.6 1.2-15 4.6-16.9 13.3-1.1 5.3 1.9 8.1 6.9 6.2 4.4-1.6 9.2-3.2 12.8-6 1.3-1.2 6.8-4 5.4-9.8zm76.6 12.7c-1 0-3.2.6-4.6 1.1-2.6 1.9-3 2.4-5 4.7-1 6.7 3.3 6.8 5.3 7.8.3.2 3.6 1.3 4 1.3 3.3.2 4.8-1 7.6-3 1.5-1 2.9-4.2 2.7-6-2.7-3.2-4.2-3.8-7-5.2-.7-.3-2.1-.7-3-.7zM534 482.9a10 10 0 0 0-5.3 1.9c-4.6 3-7 8-5.4 13 1 3 3.6 7.8 8.6 8 8.2 0 8.3-3.4 12.6-6 4.3-2.7 3.5-7-1.2-9.5-2-1.1-2-2.7-3.5-4.4a7.3 7.3 0 0 0-5.8-3zm63.8 3.4h-.6v.1l-16.1 6c-6.7 2.5-7.5 5.4-3 10.7 4.5 5.3 10.6 7.7 16.8 6.3 4.3-1 9.6-4.5 11.4-8.2a10 10 0 0 0-4.5-13.4c-1.2-.6-5.3-1.3-4-1.5zm43.6 2a8.5 8.5 0 0 0-1 0c-1 .1-2.2.5-3.5 1-2.4 7.6 2 11.5 6 14.8 2 1.6 6 2 8.5 1 1.4-.6 2.8-3.4 3-5.5v-1.4c-.4-2.2-2.3-5.7-4.6-6.7-2.7-1.2-5-3.2-8.4-3.2zm-4.5 1zm-80.2 16.5c-4.6-.1-9.1 6.8-9.5 14.1-.3 4.5 5.2 10.9 9.5 11 8.3.3 18-6.5 18.2-14.5-1-1.8-2.2-6-5-7.7-3.5-2.1-8.4-2.3-12.8-2.9h-.4z"/>
  <path fill="#88d5b8" fill-rule="evenodd" d="M664.6 16.5c-3 .2-6.3 3-11.8 8l-3.3 3.1a79.3 79.3 0 0 0-23 47.4c-.2 1.9.8 4.4 2 5.9 4.2 4.7 8.6 9.2 13 13.8 1.7 1.8 3.6 3.3 6.4 6 .8-14.1-1.2-26.9 4-39 5.7 4.4 5.8 7.2 5.3 14-.8 10.4-.2 20.9-.2 31.2 8.2-5.5 16.2-11.5 24.9-16.2 4.4-2.3 6.5-4.9 7.8-9.4a49.6 49.6 0 0 0-2-34.5 94.7 94.7 0 0 0-10.4-18c-5.9-8.6-9-12.6-12.7-12.3zm-7.6 90.4zM197.9 67.4zm0 0c-1.2.4-7.4.1-8.4.5 2.5 7.4 9.6 17.5 14.3 19.6-5.5-17.5-4.3-18-6-20zm-120.3 5a6 6 0 0 0-2 .3c-.7 0-1.2.3-1.6.6-.7.5-1.3 1.1-1.8 1.9-.5.8-1 1.7-1.4 2.7a63.4 63.4 0 0 0-2.4 17.7c.1 1 .9 4.5 2 9 4-.1 8.1.2 12.3 1.2a35 35 0 0 1 27.5 32.5c1 10.1 3.5 20.1 5.3 29.9 1 .1 1.1.3 1.3.3 12.3.3 15.5-9 20.5-16.7-12.9-14.4-36.2-41.2-39.1-49.1-2.7-7.2 17.6 14.3 32.2 30.2.1-2.6.9-5.5 2.4-9-10.8-8-25-14.7-16-32.4l.7-1-1-.7c-6.4-4-13-8-16.6-9.9A89.2 89.2 0 0 0 83 73.3a24 24 0 0 0-5.5-.8zm245.1 6H320c-.7.1-4.2 1-8.2 2.2l-.5.2-6 2c-2 1-3.9 1.8-5.3 2.7.3 5.5-2.5 10.5-8.5 15.8-.6.6-1 1.4-2.3 2.8l31 14.1.3-.5c3-5 8.8-14.8 10.6-18.4l1.8-4a45.6 45.6 0 0 0 2.8-10.1v-2a4 4 0 0 0-.6-1.5 5.4 5.4 0 0 0-2.2-1.6 30 30 0 0 0-10.2-1.8zM744 79c-8 0-15.9 1.8-23.7 3.6-19.3 4.3-35 15.7-50.6 26.8-3.6 2.6-7.7 7.6-7.6 11.4.3 7.2 3.5 14.2 5.4 21 9.3-8.8 18.2-17.9 28-26 4.6-3.8 10.8-6 16.3-8.8 1-.4 2.6.3 3.8.6-.3 1.5-.2 3.6-1.2 4.5-8 6.8-16.5 13-24.2 20.2-7.5 7-14.3 14.8-21.3 22.2l26 17.6c40.9-15.8 60.7-47 63.8-90.6-5-1.8-9.9-2.5-14.7-2.5zM211.3 89.2l3 13 8.8-2.8c-.2-2.3-1.2-6.8-1.4-8.9-3.2 0-5.4 3-10.4-1.3zm526.6 70c-3.6.1-6.3 1.8-9.6 4.3-8.5 6.3-17.8 11.7-27.4 18 1.3.7 3.2 2.6 5.4 3 10 1.6 19.9 2.4 29.7 4.3 4.8.9 9.2 3.6 13.7 5.5l-.8 2.9-40.3-3.2c2.2 5.3 4.8 9.7 5.8 14.4 1.8 8.2 7.9 11.5 14.3 11.8 10.7.4 21.9.3 32-2.6 10.7-3.1 20.4-9.8 31-15.1-1.6-3.8-1.9-5.6-3-6.9-12.3-15.3-26-28.6-45.4-35.4-2-.7-3.8-1-5.4-1zm53.8 43.3zm-661 211c-1.2 0-2.6.5-3.4 1-16.3 11.4-22.6 28.4-25.7 47-.2 1.1.7 3.1 1.7 3.7 18.8 10.9 38.3 17.7 59.6 6.9 2.6-1.3 4.6-4.5 6-7.2 1.8-3.9 2.8-8.2 4.2-12.3l2.6-9.2c-15.2 4.8-28.7 11.8-44.3 10.7 16-12.8 38-14 53.3-26.7-11.4-2.4-22.7-4.3-33.8-7-6.6-1.7-12.8-4.6-19.2-6.7l-1-.1zm101 8.5c-8.4.7-16.7 2.2-25 2-7.4-.1-11.1 4-13.8 9.4-5.6 11-11 22.2-15.5 33.7-3 8-4.6 16.7-6.2 25.2a195 195 0 0 0-1.3 53.4c.8 8.1 2.3 16.1 3.4 24.4 20-5.8 37-12.8 51.3-25.7 16.6-15 30.2-31.6 36.6-53.5 4.6-15.7 9.3-31.4 8.3-48-.2-3.6-1.7-8-4.2-10.2-4.5-3.7-10-6-15.4-8.6-3.5-1.8-6.4-1.4-6.8 3.6a23 23 0 0 1-1.4 5.6c-7.6 21-15.2 42.2-23.3 63-2.3 5.7-4 12.7-13.1 14.1h-.1l32-87.4c-2.7-.5-4.2-1-5.6-1zm47 17.4-2.3 1.9c2.7 6.5 5.1 13 8 19.3 7 15.5 12 31.4 13.2 48.4.2 3.1 1.5 7.6-3.7 7.4l-15.5-49.9v-.1l-2.2.3c-2.2 8.3-4.2 16.7-6.6 25-3 10.2-5.3 20.8-12.8 29-2.4 2.7-1.7 5.7.8 8.1 4.3 4 8.4 8.6 13.3 11.9a425 425 0 0 0 27.6 16.3c2.8 1.6 5.8 1.4 7.5-2.6 2.6-6.2 5.7-12.2 8.5-18.3a99.5 99.5 0 0 0 9.6-57.5c-1-6.6-2.7-15.5-7.4-18.8-11.7-8.2-25.2-13.8-38-20.4zm242 12.1c3.5 5.9 6.6 12.3 9.8 17.6l.1-.2c3.3-3.6 6.8-10.8 5.8-13.6-1.6-4.4-8.9-1.4-15.8-3.8zm86.8 13.9h-.1.1zm0 0-1.4 1.8c1.5 1.5 2.7 3.8 4.5 4.3 4.6 1.5 9.5 2.8 14.3 3.2 4.8.4 9.8-.4 9.3 6 9.8.7 24.5 3.4 11.7-14.4 0-.9-8.5 3.6-8.4 2.7-9.8 3-29.7-3.5-30-3.6z" class="cls-6"/>
  <path fill="#ffc483" fill-rule="evenodd" d="M75.7 113.5c-3.5 0-7 .7-10.6 1.2-15.8 2-29 10.1-41.3 19.6-3.5 2.6-7.4 5.2-9.7 8.7a28 28 0 0 0 8 37.6 51.9 51.9 0 0 0 41.3 7.5c-.4-1.5-.4-2.7-1-3.5L42 155.1c-6-8.7-5.8-14.7 1.8-22.2 3.4-3.4 7.5-6 11.3-8.9 3.4-2.5 6.2-1.6 8.2 1.8 4 7 7.7 14 11.8 21.5v-.1c3-1 6.1-1.5 8.7-3 5.5-2.9 10.6-6.4 11.4-13.4.8-7-2.7-11-8.7-14.6a19.6 19.6 0 0 0-10.8-2.7zM56 132.3l-7.6 9c3.5 7.6 9 8.1 16 7L58.5 133a48 48 0 0 1-2.6-.8zm56.3 95.2h-.2a78.6 78.6 0 0 0-43.4 19.6c-2 2-2.8 5.8-3 8.8-.7 12.3 9.6 16.6 17.3 22 12.8 9.2 28.1 12 44.3 14.6-.3-1.7-.2-2.6-.5-3.4-9.4-18.4-10-38.3-10.7-58.4 0-1-2.4-3-3.8-3.2zm15 65zm531-16.2c-4.1 0-8.3.2-12.5.4-2 0-4.7 3.1-5.4 5.3a167.4 167.4 0 0 1-26.7 54.2c-3.7 4.8-7 10-10.5 15.2 5.4.4 9.8 1.4 13.9.8 11.2-1.8 22.4-3.6 33.3-6.6 23-6.2 45-14.4 63.1-31.1 7.1-6.7 10.4-17.3-1.5-23.4-5.7-2.8-11-6.3-16.8-8.8a88.8 88.8 0 0 0-36.8-6zM672.4 383c-1.6 0-3.1 0-4.6.4-1.2.3-2.6 2.8-2.6 4.2.3 8.7 1.5 17.5 1.5 26.3.1 13.1-13 24.5-26.1 23.1-7-.7-7.8-2.2-6.2-9.4 1.1-4.8 1.6-9.8 2.5-16.1-3.5 1.2-6 1.3-7.4 2.7-5.2 5.5-10.6 11-15.1 17-4.6 6.2.5 11 3.7 15.8 2.9 4.4 6.6 1.6 10 .7 7.8-2 14.4.2 19.7 5.6 4.7-2 9.6-6.1 13.7-5.5 10.1 1.5 17.1-3.2 24.5-8.2a31 31 0 0 0 12.8-38.1 30.1 30.1 0 0 0-26.4-18.5zm-24.6 70.3zm0-44.7c-3.3.1-3 3.8-3.3 6.2-.6 4.3-.5 8.7-.8 13.5h.1c2-.4 4.1-.4 5.8-1.3 4.8-2.2 8.3-5.5 8-11.4-.2-5.8-5-6.2-8.8-6.9h-1z" class="cls-2"/>
  <path fill="#dc3137" fill-rule="evenodd" d="M547.1 55.3c-20.2-.7-39.8 3.2-58.7 11.6-20.8 9.3-37.6 24.8-53 41.8-16.7 18.3-29 39-37.7 62.2-1 2.5-3.1 6.8-4 6.6-3-.7-6.5-2.2-8.1-4.6-10.2-14.2-24.9-23.2-39-32a389.6 389.6 0 0 0-56-27.9 123.5 123.5 0 0 0-35.8-7.4c-22-2-42.2 6.3-62.7 12.7-4.4 1.4-9 3.7-12.4 6.7-11.1 9.8-22.5 19.4-32.4 30.2a80.2 80.2 0 0 0-14.5 24.3c-7.8 20-9 41-7.2 62.5 1.4 16.4 3.7 32.4 11 47.3 1 2 4.2 4.2 6.3 4.3 6.3.2 12.7-.5 19-1 26.4-2.3 52-8.2 77.2-16.2 11.6-3.7 23.2-7.4 34.7-11.5 18.9-6.7 37.4-14.9 56.6-20.7 26-7.9 52.4-14.6 77-26.4 19.5-9.4 38.8-19.5 58-29.9 25.4-13.8 50.8-28 79.4-34.6 14-3.2 28-7.5 42.2-8.3 23.7-1.2 47.6-2 70.8 5.4l2.2-1.4c-1.9-7.5-2-16-6-22.3a172.1 172.1 0 0 0-23.3-30.4c-17.6-18.2-36.6-34.1-63.1-38.9a142 142 0 0 0-20.5-2.1zm85.7 222.4c-3.4.4-6.9.6-10.2 1.2-7.3 1.4-14.6 2.6-21.8 4.5-13.3 3.3-27.1 5.5-39.4 11-15.2 6.8-28.9 17-43.5 25a1209.2 1209.2 0 0 1-95.7 47.1c-19.3 8.4-39.5 14.8-58.2 24.3a238.4 238.4 0 0 1-72.5 23.3c-9.9 1.3-19.5 4-29.3 6.2v1.5l17.1 9c13.6 7.1 27.1 14.5 40.8 21.7 7.8 4.1 15.7 8 23.7 12 18.8 9.4 37.4 19.2 56.5 28 12.5 5.8 25.5 10.1 38.3 14.9 1.8.6 4.4.4 6-.4 3.3-1.7 6.4-3.8 9.2-6.2 17.5-15 35.2-30 52.1-45.7 9.9-9 18.4-19.5 27.3-29.7 12-14 24.2-27.8 35.6-42.4a728.9 728.9 0 0 0 29-41c9-13.2 17.8-26.5 25.6-40.4 4.1-7.1 6.2-15.5 9.4-23.9z" class="cls-3"/>
  <path fill="#ffe8cc" fill-rule="evenodd" d="M102.7 142c-7.5 4.4-14.2 9.3-21.7 12.1-7.6 2.9-15.9 3.6-25.1 5.5 6.4 7.5 9.5 17.4 18.8 22.5 1.8 1 4.5 1.6 6.3 1 8-2.9 15.8-6 23.6-9.5 1.3-.6 2.5-3.5 2.2-5-1.1-9.3-2.8-18.5-4-26.6zM56 159.6v-.1zm540-5.6a166 166 0 0 0-70 14.8c-20.8 9.4-41 20.4-61.4 30.9-16.8 8.6-33.2 18-50.3 26-19.9 9.1-40.3 11.5-60.6 20l-36.2 11.8c-17.3 5.7-34.1 12.7-51.4 19-24.8 9-50.3 15.5-76.3 20.4-12.8 2.3-25.4 5.4-38.4 5.8-18.1.7-36-1.6-53.3-7a60.5 60.5 0 0 1-29.7-17.2c-3.2-3.7-6.3-7.6-9.4-11.4l-2.8 1.4c-1.2 6.3-3.2 12.6-3.4 19-.3 9 .6 18 1.2 27 1 15.4 5 30.3 11.2 44.4 1.3 2.9 2.5 6.2 4.9 8 22 17.6 46.4 31 72.6 41.5a111 111 0 0 0 54 8.4c15.9-1.8 31.7-5.6 48-3.2.7 0 1.7-.5 2.5-.7 7.1-1.7 14.2-3.8 21.4-5 10.5-2 21.3-2.8 31.8-5 11.7-2.3 23.6-4.6 34.6-9 24-9.7 47.3-20.8 71-31.3 21.6-9.7 43.5-19.1 65.1-29 11-5 22-10.2 32.6-16.1 16.6-9.3 32.2-20.5 49.3-28.5 13.6-6.4 28.8-9.9 43.6-13.6a253 253 0 0 1 34.1-5.6c10.2-1 20.4-.8 30.6-1.4 15-.8 29.5 1.3 42.9 8.8 5.2 2.8 10.8 5 16.7 7.8 2-13.6 1.3-26.1-3.3-38.4-5-13.9-9.6-28-15-41.7-6.5-17-16-31.7-33.8-39-2.8-1.2-6-2-8.8-3.3-4-1.8-7.6-5.3-11.6-5.6a660.1 660.1 0 0 0-52.4-3zm-472.5 22.4c-9.7 3.8-18.4 6.8-26.7 10.4-14.6 6.5-29.2 13-45.5 12.3a67.7 67.7 0 0 1-37.4-11.6c8 22 21.4 38.1 35.2 54.2 3.6 4.3 6.6 8.4 10.8.5 1-2 3.8-3 5.6-4.5 14-12 31.1-16.9 48.8-20.4l9.2-40.8zm565.8 166-9.8 3.2c-10 3.2-19.6 7.5-29.8 9.3-16 2.8-32.5 3.7-48.7 5.6-2.1.2-4.9.5-5.9 2-4 5.3-7.4 11-10.2 15.5l17 14.7c20-5.5 40.6-12.2 61.7-17 11.3-2.5 23.3-1.6 32 8.7 1 1.3 2.7 2 4 2.9l2.3-1.4-12.5-43.6zM656 384.5l-39.3 12.1 6.4 9.1L656 399z" class="cls-7"/>
  <path fill="#ffe066" fill-rule="evenodd" d="m-367.8-211.1-.7.1c-1 .3-1.8 1.3-1.4 2.3.3 1 1.4 1.3 2.5 1 1-.3 1.7-1.3 1.4-2.3-.3-.7-1-1.1-1.8-1.1zm0 1h.4l.4.4c.1.3-.1.8-.8 1-.6.3-1 0-1.2-.3-.1-.3.2-.8.8-1l.4-.1zm11.3 5.7c-.5 0-1 .2-1.4.4-.4.3-.7.7-.7 1.2s.3.9.7 1.2c.4.2.9.4 1.4.4.5 0 1-.2 1.4-.4.3-.3.6-.7.6-1.2s-.3-1-.6-1.2c-.4-.2-.9-.4-1.4-.4zm0 1 .8.2.2.4c0 .1 0 .2-.2.3-.2.2-.5.3-.8.3-.3 0-.6-.1-.8-.3-.2 0-.3-.2-.3-.3 0-.1 0-.2.3-.4l.8-.2zm-15 5h-.5a4 4 0 0 0-1.2 1c-.2.3-.3.8-.2 1.3.2.5.6.8 1 1h1.5c.5-.3 1-.6 1.2-1 .2-.3.4-.8.2-1.3a1 1 0 0 0-.8-.8l-1.1-.2zm.3 1h.4c.2 0 .3.2.4.3l-.1.5-.7.5h-.9c-.2 0-.3-.2-.3-.3v-.5l.7-.5h.5zm72.7 56.5c-1 0-2 .7-2 1.7s1 1.8 2 1.8 2-.8 2-1.8-1-1.7-2-1.7zm0 1c.5 0 1 .4 1 .7 0 .4-.5.8-1 .8-.6 0-1-.4-1-.8 0-.3.4-.7 1-.7zm-1.8 10.8-.7.1c-.5.2-.9.4-1.2.8-.2.4-.4.8-.2 1.3.1.5.5.8 1 1a2.1 2.1 0 0 0 1.1 0 2.7 2.7 0 0 0 1.1-.6l.3-.2c.2-.4.4-.9.2-1.3-.1-.5-.5-.8-1-1a2 2 0 0 0-.6 0zm0 1h.4l.3.3-.1.4c-.1.2-.4.4-.7.5h-.8c-.2 0-.2-.2-.3-.3l.1-.4.7-.4h.4z" color="#000" style="-inkscape-stroke:none" transform="matrix(5.5514222,0,0,5.5514222,2231.9691,1200.4333)"/>
  <g stroke-width="1.1" clip-path="url(#a)" paint-order="markers stroke fill" transform="matrix(0.9133477,0,0,0.9133477,14.8474,692.7945)">
    <path fill="#c82531" d="M177.3-798.2 550.2-703 419.8-192.2 47-287.2z"/>
    <path fill="#e6373a" d="m464.5-725 136 34.8L470-179.3 334-214z"/>
    <path fill="#f03e3e" d="M453.1-727.8 826-632.7 695.7-121.8 322.8-217z"/>
    <path fill="#d22b34" d="m270.8-774.3 136 34.7-130.3 510.9-136-34.7z"/>
    <path fill="#d72e35" d="m335.3-757.9 136 34.7-130.3 511L205-247z"/>
    <path fill="#dc3137" d="m399.9-741.4 136 34.7-130.3 510.9-136-34.7z"/>
    <path fill="#e6373a" d="m464.5-725 136 34.8L470-179.3 334-214z"/>
    <path fill="#eb3a3c" d="m550.5-703 136 34.7-130.3 511-136-34.8z"/>
  </g>
  <g fill="#201a20" stroke-width=".3" transform="translate(-7.2079179,-57.763938)">
    <g transform="matrix(1.0583333,0,0,1.0583333,454.30371,322.03967)">
      <path d="M-229.7-249.3c-1.2 0-2.6.2-4.1.6-5.5 1.6-10.7 3.3-12.6 9.5-8-7.5-17.7-7.1-23.5-2.6-9.1 7-8.5 16.7-5 26.5-1.2.5-2.3.8-3 1.4-5.3 4-9.2 9.1-8.2 15.7 1 6.1 6.1 9.2 12.2 9.9l7 .8c-5.6 3-8.8 9.6-10.5 18-11.7-3.6-21.9-3.3-28.5.2-3.9-2.6-10.3-6.8-15.6-10a56 56 0 0 0-28.2-8.2c-5.5 0-9 1-9.5 1.9-1 1.8-1.9 5.6-5 21.2a36 36 0 0 0 .4 14.6 98 98 0 0 0-23.7 9c-7 3.4-12.6 9.3-19.4 13.4-13.5 8.1-15.8 22-15.5 35.3.3 15 6.1 29.4 14.7 41.9 10 14.8 21.6 28.7 33 43.7A85.4 85.4 0 0 0-381 36c1 14 3.2 28 6.2 41.8 1.7 7.5 2.2 16.6 9 21.6 13.8 10.3 28.3 19.7 42.7 29.3 4 2.6 8.3 4.9 13 7.7-4 4.4-7.5 8.2-10.7 12.2-8.7 11.2-11.6 24.9-14.9 38.2-.6 2.3 2.2 6.9 4.7 8.4 6.7 4 13.8 7.4 21 10.5 8.3 3.6 17 5.7 26.3 3.7 5-1.2 10.3-1.7 16-2.6-1 9-2.7 17.4-2.7 25.9-.2 13.5.5 27.1 1.4 40.6a59 59 0 0 0 3.5 16.2c3.8 10 4.2 9.9 14.3 5.9 1.9-.8 4-1.1 6-1.7a74.9 74.9 0 0 0 29.4-13.6c10-8.3 19.9-16.8 30.5-25.9 2.7 3 6 7 9.8 10.4a81 81 0 0 0 33.1 20.8c5.2 1.4 10.6 2 14-3a117.6 117.6 0 0 0 21.4-64.2c.2-8.7-1-17.5-1.7-26.4 6.4 3 12.8 5.8 19 9.2a430.2 430.2 0 0 0 75.1 34.3c5.3 1.7 10.7 5.2 16.5 1.1 3.7-2.6 7.6-5 11-8 13-10.8 25.6-22 38.3-33l12.6-10.3 11.3 15c-10.7 8.2-13.5 13.3-10.5 24 3 11 13 10.8 22.4 10.7v8.3c.3 9.5 5.9 16.9 15 17.1 5.6.2 11.5-2.2 17-4.3 7.1-2.8 9.7-9.6 11.5-16.3 11.2 2.8 20.7-.5 26.7-9.4 7.1-10.7 0-18.1-7.6-26.2 5.9 1.2 11 1.1 15 3.2 3 1.6 6 5.6 6.4 8.9.9 7.2 3.6 12.6 9.5 17.1 8.9 6.7 19.8 4 23.5-6.6.9-2.4 1.6-3.1 4.5-3.7a25 25 0 0 0 12.4-6.1c4.7-4.5 8-10.5 12.4-15.5s5.4-10.7.5-15.3c-3.5-3.3-8.4-5.1-13-7.8l3.3-2c16.7-10.1 26.6-24.1 25.3-44.5-.4-4.8-.5-9.6-1.4-14.2a640.8 640.8 0 0 0-6.6-30.6c-1.2-5.1-3.1-10.2-4.3-15.3-.2-1 1-2.6 2-3.4 5.8-4.8 11.6-10 18-14 4.7-3.1 7-7.2 8.8-12.2 3-8.3 3.2-16.7 2.4-25.4-.8-8-.2-16.3-1.5-24.3-1.3-8.4-4.1-16.6-6.2-24.6 8.1 0 15.7.3 23.3 0 11-.4 21.8-2.4 31.1-8.7 5-3.4 9.3-7.6 14.2-11 4.4-3 5-6.4 3.5-11-4.8-14.4-15.9-23.6-27.4-32-7.6-5.7-16.6-9.4-25.2-14.2 1.2-1.7 2.8-4 4-6.3 5.3-10.3 13.3-19.4 14.6-31.7 1-9.2 2.1-18.5 4.1-27.5 1-4.4-1.9-6.7-4.1-7-10.1-.8-20.4-1.9-30.4-.7-9.7 1-19.1 4.8-29.7 7.7 0-8.7 1-17-.2-25-2.2-15.5-12.1-27.1-22-38.5a13.5 13.5 0 0 0-11.5-4.7c-2.6.2-5.2 1.2-7.6 3a80 80 0 0 0-29.9 36.4c-2.6 6.8-4.3 14-6.5 20.9-21.4-14.7-30.8-19.9-46.7-22-35.2-4.5-68.6.6-98.3 21.4A243 243 0 0 0-9.8-162c-5.3 4.8-9.5 11-13.7 16.8-7.9 11.1-15.8 22.2-22.9 33.8-3.5 5.8-5.3 12.5-7.8 18.5a335.3 335.3 0 0 0-61.6-43 244 244 0 0 0 9.6-15.6c7.4-13.3 4.9-24.8 3.7-25.5a73.8 73.8 0 0 0-18.4-3.3c-7.8.3-16.3 4.6-19.3 6.3a32 32 0 0 0-4-7c-1-1.6-.3-4.7-.1-7.1.2-3.5 1.6-7.3.8-10.5-2.8-10.5-13.4-19.8-27.5-12-2.4 1.3-4.5 2.7-7-.3-6.6-8.1-13.4-9.2-22.8-5.1-2.5 1-3.9.6-5 0 2.6-7.5-2-15.8-9.1-19-4.2-1.9-5.3-4.4-6.5-7.8-1.6-4.3-4.5-6.4-8.3-6.5zm-1.7 7.6c1 .7 3.7 1.6 4.6 3.4 1.6 3.1-4.5 11.8-8.9 12.4-1.3.2-3.6-1.5-4.3-3-1.8-4 2.1-10.7 8.6-12.8zm-27.7 4.6c3.6 0 6.4 2 7.8 6.3.8 2.7-3.4 10.6-6.3 11.5-4.4 1.5-8.7-.7-10.2-5.3-1.8-5 .3-10 4.7-11.7a12 12 0 0 1 4-.8zm466 3.1c3 .6 5.8 4.4 10.8 11.5a99.8 99.8 0 0 1 9.8 17 46.9 46.9 0 0 1 2 32.7 13.1 13.1 0 0 1-7.5 9c-8.2 4.3-15.8 10-23.6 15.2 0-9.8-.5-19.7.2-29.5.5-6.4.4-9.1-4.9-13.3-5 11.5-3.1 23.5-3.9 36.8l-6-5.6c-4.2-4.3-8.4-8.5-12.2-13a8.6 8.6 0 0 1-2-5.6 75 75 0 0 1 21.7-44.8v.1l3.2-2.9c6-5.5 9.2-8.1 12.3-7.6zm-425.9 7c1.3 0 3.2.5 3.7 1.3 1.3 2.2 2.3 5 2.3 7.5 0 1-2.4 3.2-3.8 3.2-4.5.2-11.8 2.8-14.2-1v-.1c-.1-5.4 10.3-10 11-10.6.2-.2.6-.3 1-.3zm-23.6 4.1c4 0 7.7 2 9 5.9 1.7 5-2 10.3-7.3 12-5.3 1.9-11.4 0-13.1-5.1-1.7-5.1 2-10.3 7.3-12.1 1.3-.5 2.7-.7 4-.7zm-.2 5.3c-.7 0-1.4 0-2.2.4-3.3 1-4.6 3.7-4 5.4.5 1.7 3.3 3 6.4 2v-.1c3.3-1 4.6-3.7 4-5.4-.2-.9-1-1.6-2.2-2-.6-.2-1.3-.3-2-.3zm52.1 7.4c5.8-.2 8.7 3.5 8.7 11.6 0 1.7.8 4.9-1 6.5-9.1 4.2-15 1.4-18.2-8.4-1.2-3.7-.8-6.8 3.8-8.3 2.6-1 4.8-1.4 6.7-1.4zm-73.6 1.3c2.1 0 4.2.2 6.4.5.7.1 2.8 3.2 2.5 4-1.4 3.2-1 6.8-6 9.8-4.2.6-6.2-.1-9.4-1.2-2.3-.7-5.2-1.7-5.7-4.6-.6-3.2 3.5-6.8 6.1-7.7 2-.6 4-.8 6.1-.8zm104.2 3.1c4.2.5 7.6 4.5 8 9.6.5 7.5-3.7 11-13.8 12-5.4 1.7-7-2.3-7.4-5.5-1-8.7 3.8-15.1 11.4-16 .6-.2 1.2-.2 1.8 0zm-63.3.1c1 0 1.6.1 1.8.4-4.7 11.3-22.5 15.3-30.6 11.7-.2-.6-1.4-.6-.5-1.9a100 100 0 0 1 29.3-10.2zm318 8.3c6.4.2 12.8.9 19.4 2 25 4.6 43 19.6 59.6 36.8 8.4 8.7 15.9 18.4 22 28.7 3.7 6 4 14 5.7 21l-2 1.4c-22-7-44.6-6.3-67-5-13.4.7-26.6 4.7-39.8 7.7-27 6.3-51 19.7-75.1 32.8-18 9.8-36.3 19.3-54.8 28.2-23.2 11.2-48.2 17.5-72.7 25-18.2 5.4-35.6 13.1-53.5 19.5-10.8 4-21.8 7.4-32.8 10.9-23.8 7.5-48 13-72.9 15.2-6 .5-12 1.2-18 1-2 0-4.9-2.2-5.8-4-7-14.2-9.2-31.4-10.5-46.6-1.8-19.7-.6-39 6.8-57.4 7.5-18.6 18.6-28.2 44.3-50 3.3-2.9 7.5-5 11.7-6.3 19.4-5.8 38.5-13.5 59.3-11.6 11.4 1 23.3 2.5 33.8 6.8a369.2 369.2 0 0 1 52.8 25.7c13.4 8 27.3 16.3 36.9 29.3 1.5 2.2 4.9 3.8 7.7 4.4.8.2 2.9-3.9 3.8-6.2A178.9 178.9 0 0 1-11-147c14.5-16 30.3-30.7 50-39.5 17.8-8 36.4-11.6 55.5-11zm-310.5 2.4c9.3.9 12.4 4.5 15.5 9.9l.5.6c1.6 2.9 1.9 5.7-1 7.7l-1.4.9a62.8 62.8 0 0 0-7.7 3.8c-7 4.1-10.8 2-13-.5-4-4.3-7-10-4.3-15.2 1.8-3.5 7.5-4.8 11.4-7.1zm32.3 7.5c2.7 0 5.2.7 7.2 2.1 2 1.4 3.5 3.6 3.5 6.2s-1.5 4.8-3.5 6.1c-2 1.4-4.5 2.2-7.2 2.2s-5.3-.8-7.2-2.2a7.6 7.6 0 0 1-3.6-6.1c0-2.6 1.6-4.8 3.6-6.2 2-1.4 4.5-2.1 7.2-2.1zm-51.9 1.5c1.6 2 .4 2.4 5.6 19-4.4-2-11.1-11.6-13.5-18.6 1-.3 6.8 0 8-.4zm51.9 3.7c-1.7 0-3.3.5-4.2 1.2-1 .7-1.3 1.4-1.3 1.9s.3 1.1 1.3 1.8 2.5 1.2 4.2 1.2c1.7 0 3.3-.5 4.2-1.2 1-.6 1.3-1.3 1.3-1.8s-.3-1.2-1.3-1.9-2.5-1.2-4.2-1.2zm-165.5 1c6 0 16.3 4.6 21 7 3.6 2 10.3 6 16.7 10l-.7 1c-8.6 16.8 5 23.1 15.1 30.7-1.4 3.3-2.1 6-2.2 8.5-13.8-15-33-35.4-30.5-28.6 2.8 7.5 24.8 32.8 37 46.4-4.8 7.3-7.8 16-19.4 15.8l-1.2-.3c-1.7-9.2-4-18.7-5-28.3a33 33 0 0 0-26-30.7 42 42 0 0 0-11.6-1l-2-8.5c-.2-2.5.3-17.7 5.3-21.1a6 6 0 0 1 3.5-.8zm88.4.4h2.7c6.4.7 10.5 5 9.9 10.4-.8 6.8-3.7 10.3-8.4 10.5-3.4-.5-7.4 0-10.1-1.8-1.8-1-2.6-5.2-2.4-7.8.5-5.4 2.5-10.6 8.3-11.3zm103 4c3 1.4 7.9 2.3 8.5 4.4 1 3.4.3 8.5-1.8 11.4-2.9 4.1-7.5 7.2-13.4 5a45 45 0 0 1-7-3.5c-4.3-2.6-4.3-6.3-.7-9.7 4-3.9 7.4-8.3 14.4-7.7zm40.2 1.2c3.7 0 10 .7 11.7 3.2 2 3-1.8 12.7-3.8 16.6-1.8 3.5-7.5 13.2-10.3 17.9a301 301 0 0 0-13.8-6.8c4.6-4.7 11.6-12.2 10.1-12a111.4 111.4 0 0 0-13.9 10.3c-3.8-1.7-7.7-3.3-11.6-4.8l2-2.7c5.8-5 8.4-9.7 8-14.9a74.5 74.5 0 0 1 19-6.7l2.6-.1zm398.1.9c4.6 0 9.2.6 14 2.3-3 41.1-21.7 70.6-60.3 85.5l-24.7-16.5c6.8-7 13.1-14.5 20.2-21 7.3-6.8 15.4-12.7 23-19.2.9-.8.7-2.7 1-4.2-1.1-.2-2.7-1-3.6-.6-5.2 2.6-11 4.7-15.4 8.4-9.2 7.6-17.6 16.2-26.5 24.5-1.7-6.3-4.7-13-5-19.8-.2-3.6 3.8-8.4 7.2-10.8 14.8-10.4 29.6-21.2 47.7-25.3 7.4-1.6 14.8-3.4 22.4-3.3zM-196-171c4.2.3 14.8 3.4 13.2 14h-17.3c-3.5-.1-4.5-1.9-2.5-4.8 2.2-3.2 4-7.5 6.6-9.1zm-26.7 5.6c4.7 4 6.8 1.2 9.8 1.2.2 2 1.2 6.2 1.3 8.4l-6 2h-.4c-.6.3-1 .5-1.8.7l-3-12.3zm-68.9.7c7.7 0 12.9 3 19 10.8-3.3 5-3.8 11.1-11.8 12.5-6.7 1.1-12 .2-16.3-4-3-2.7-6.1-7.2-5.8-10.7.5-5.6 6.2-7.8 11.5-8.4l3.4-.2zm57.3 4.4c2.1 0 4.3 1.5 4.3 1.5s-.7 7.6-3.3 9.2c-3.2 2-7.5 2.8-11.4 4-1.4-8.6 2-13.7 10-14.7h.4zm-26.9 4.2c2 0 4.2.5 5.4 1a7 7 0 0 1 4.2 4.1c1 2.5.3 5.2-1.1 7.2-1.4 2-3.6 3.6-6.2 4.5-2.6 1-5.3 1-7.7.2a8.1 8.1 0 0 1-5.4-4.9 8.1 8.1 0 0 1 1.2-7.2c1.4-2 3.6-3.6 6.2-4.5 1-.3 2.2-.5 3.4-.4zm.6 5a7.7 7.7 0 0 0-5.9 3c-.6.9-.7 1.7-.5 2.4.2.7.8 1.3 2 1.7 1.1.3 2.7.3 4.4-.2a7.2 7.2 0 0 0 3.5-2.6c.7-1 .8-1.8.6-2.5-.3-.6-.9-1.2-2-1.6-.6-.2-1.3-.3-2-.3zm-91.2 8.8 2.3 31.3-1.8.5-3.4-6.2-1.5-25.2c1.5-.2 3-.4 4.4-.4zm5.3.3c1.7.3 3.4.9 5.1 1.8l2 24.7a42.6 42.6 0 0 1-5 2.8zm-14.8.8.8 13.8-2-3.4-.5-.9-.4-9 2-.5zm-7.3 1.6.2 6.2c-.5.2-1.1.5-1.7 1l-2.6 1.9-.3-7.7a54 54 0 0 1 4.4-1.4zm32.8 3.4c2.6 2.6 4 5.9 3.4 10.3-.2 2.3-1 4.2-2.1 5.8zm-42.4 0 .5 9.6c-1.1.8-2.2 1.6-3.2 2.6l-1.6 1.7-.5-11.4 4.8-2.4zm103.6 1.6c2.6.2 5.4 1 8.4 3.2-5.7 3.8-10.6 7.8-16 10.3-2.1 1-6.9-.5-8.3-2.4-2.4-3.3.7-6.3 3.7-7.6 3.9-1.8 7.8-3.7 12.2-3.5zm-113.5 3.8 3 58.9a49 49 0 0 1-5.4-1.6l-3-53.7 5.4-3.6zm18.5 6.1 2.5.7 5 12.9v-.4l.7 2h-.7c-1.8.2-3.6.4-5.3.3l-.8-.1-.9-.1-.8-.2c-2.8-.8-5-2.7-6.9-6.5l7.2-8.6zm-29.1 1.1 2.8 47.7a36 36 0 0 1-5-2.9l-2.1-41.5c1-.9 2.1-1.7 3.2-2.4l1-.9zm73.2 8h.2v.1c1.2 7.6 2.8 16.3 3.9 25 .2 1.5-.9 4.3-2.2 4.8-7.3 3.3-14.6 6.3-22.2 9h-1.3a7.1 7.1 0 0 1-2.5-.2l-1.8-.6-.3-.1-.4-.3a22 22 0 0 1-2.5-1.6c-5.4-4-8.4-10.1-12.1-15.6-1-1.3-1.9-2.6-3-3.8v-.2h-.1c4.4-.9 8.5-1.5 12.5-2.2a123.6 123.6 0 0 0 11.2-3c.8-.2 1.6-.5 2.3-.9h.2l3.1-1.6c5-2.6 9.8-5.9 15-8.9zm-82.5 0 1.6 32a26.5 26.5 0 0 1-2.5-30.8l.9-1.2zm119.5 3.2.8.3-.3.3c0-.2-.3-.5-.5-.6zm429.4 8.1c16.4.1 33 1.4 49.4 2.9 3.8.3 7.3 3.6 11 5.3 2.7 1.2 5.6 2 8.4 3.1 16.8 7 25.7 20.8 32 36.8 5 13 9.3 26.4 14 39.4a69.6 69.6 0 0 1 3.1 36.3h-.1c-5.6-2.5-10.9-4.6-15.8-7.3a65 65 0 0 0-19.2-7l-1.8-.3c-2.5-.4-5-.7-7.6-.9l-2.5-.1h-9.1c-5 .3-10.1.4-15.1.5-4.5.2-8.9.3-13.3.8h-.6a326 326 0 0 0-30.4 4.9l-1.9.4c-13.9 3.5-28.2 6.8-41.1 12.9-16.2 7.5-31 18.1-46.6 26.9-10 5.6-20.4 10.6-30.8 15.3-20.5 9.3-41 18.2-61.6 27.3-22.3 10-44.4 20.4-67 29.6-10.4 4.2-21.7 6.3-32.7 8.5-10 2-20 3-30 4.6-6.9 1.3-13.5 3.2-20.2 4.8-.9.2-1.7.8-2.5.7h-.1a67 67 0 0 0-11.4-.8c-11.3.2-22.6 2.5-33.8 3.8a94 94 0 0 1-13.2.5h-.6a98 98 0 0 1-11.6-1.1l-2.2-.4a109.1 109.1 0 0 1-21-6l-2.6-.9a306.4 306.4 0 0 1-57.4-31l-6-4.3c-1.7-1.3-3.5-2.5-5.2-3.9-2.2-1.7-3.4-4.9-4.7-7.6a123.7 123.7 0 0 1-10.6-42c-.5-8.5-1.3-17-1-25.5.2-6 2-12 3.1-18l2.7-1.3v.1h.2l8.9 10.8 1.8 2a39.3 39.3 0 0 0 8.8 6.8 82.8 82.8 0 0 0 17.5 7.3 146 146 0 0 0 50.1 6.8c12.3-.5 24.2-3.4 36.3-5.6A454.7 454.7 0 0 0-171 11.5c16.3-5.9 32.2-12.5 48.6-17.9l34.1-11.2c16.7-6.9 33.5-9.5 49.9-15.8l4.5-1.8 3-1.3C-15-44 .5-53 16.4-61.1c19.3-9.8 38.3-20.2 58-29l.5-.2c5-2.3 10.1-4.3 15.3-6h.2c16.2-5.4 33-8.1 50.3-8zm-522.3 3c1.8 2.4 3.4 4.9 5.1 7.4l1 23.2-4.5-.3zm657.3 2c1.3.2 2.6.5 4.2 1 18.2 6.3 31.2 19 43 33.4 1 1.2 1.3 3 2.8 6.5-10 5.1-19.2 11.4-29.4 14.3a97 97 0 0 1-30.2 2.5c-6-.3-11.9-3.5-13.4-11.2-1-4.5-3.5-8.6-5.6-13.6l38 3 .9-2.7c-4.3-1.8-8.5-4.4-13-5.2-9.3-1.8-18.7-2.6-28-4-2.1-.4-4-2.2-5.2-3 9.1-5.8 17.8-11 25.9-17 3.4-2.5 6.2-4.2 10-4zm-646.5 13.5 4.6 6.6.3 8-4.2.4zm64.9 2.8v.2l-8.7 38.5c-16.7 3.4-32.8 8-46.1 19.3-1.7 1.5-4.3 2.4-5.3 4.3-3.6 6-6.3 3.8-9.8-.1A188.4 188.4 0 0 1-406.3-65c-1-2.5-2.1-5-3-7.6l.7.5a66.1 66.1 0 0 0 54 8c8-2.3 15.8-5.7 23.5-9.2 7.9-3.4 16-6.2 25.3-9.8zM-317-34.5l3.1 59.3-4.2-1-3.3-57.5 4.4-.8zm-9.6 2 3.2 55A69 69 0 0 1-328 21l-3.3-52 4.8-1.5zm-10 3.3 3 48.1c-1.8-.8-3.6-1.6-5.4-2.6l-3.1-43 5.5-2.5zm-10.6 5.3 2.7 36.7-5-3.4-2-30.4 4.3-2.9zm-9.2 7 1.3 22c-3.3-3.1-5.6-7-5.2-12.8.1-2.9 1-6.6 2.8-8.4l1-.8zm46.6 18.8a80.7 80.7 0 0 0 7.2 21.8c.4.6.3 1.5.5 3.2l-6.4-1.1zm515 9.6c1.6 0 3 .1 4.6.3l3.6 58.4-6 2zm-5.2 0 2.3 62.5-5 1.5-3.4-63.8 6-.1zm-12.4.4h1l3.5 65h-.1l-4.3 1.1-3.4-64c1-1.1 2.3-2 3.3-2.1zm27.5.4c1.8.2 3.7.4 5.5.8l3.2 52.8-5.3 2.3zm-39.6.4c-3 8-5 15.8-8.9 22.6a626.1 626.1 0 0 1-24.2 38.2 716.7 716.7 0 0 1-27.4 38.7 858.2 858.2 0 0 1-33.7 40C73 162 65 171.8 55.6 180.4v.1c-16 14.8-32.7 28.9-49.3 43.2a44 44 0 0 1-8.6 5.8 8 8 0 0 1-5.7.4c-12.1-4.5-24.4-8.7-36.2-14.1-18-8.4-35.7-17.6-53.4-26.5a897 897 0 0 1-22.4-11.4c-12.9-6.7-25.7-13.7-38.5-20.5l-16.2-8.4v-1.6c9.2-2 18.4-4.5 27.7-5.8 24-3.5 46.6-11 68.5-22 17.6-9 36.7-15.1 55-23A1142.7 1142.7 0 0 0 66.9 52c13.8-7.6 26.8-17.1 41-23.6 11.7-5.2 24.8-7.3 37.3-10.4 6.8-1.7 13.7-2.9 20.6-4.1 3.2-.6 6.4-.8 9.7-1.2zm50.5 1.6 5.5 1.8 2.5 44.4-5.1 2.9zm10.9 4 4.3 2.3 1.9 34-4 2.8zm9.8 5.2 3 1.6 2.1 22.2v.1l-3.7 3zm-67 2.2 2.8 53.6-4.3.8-3-42.6c1.6-3.9 3-7.8 4.5-11.8zm75.6 3.6c3 3.5 3 7.8 1.2 11.7zM170.6 47l2.4 34-5.6 1-2.3-25.2c2-3.2 3.7-6.4 5.5-9.8zm-10.2 16.8 1.8 19a19.7 19.7 0 0 1-5 .5l-1.4-13.1 1.5-2.2 3-4.2zm68.4 10 11.9 41v.1h.1l-2.2 1.3c-1.4-.9-3-1.5-4-2.7a26.3 26.3 0 0 0-5.7-5.1 28 28 0 0 0-18.1-4c-2.1.1-4.2.5-6.3 1-10 2.2-19.8 4.9-29.5 7.7l-2.5.7-20.6 6-5.6 1.6-14-12-2.2-2c2.7-4.2 5.9-9.6 9.7-14.7 1-1.3 3.5-1.6 5.5-1.8 31.8-1.5 45.8-4.6 74.2-14.1l9.3-3zm-77.5 2.9.6 6.2-4.5-.4c1.3-2 2.5-3.9 3.9-5.8zm59.1 35.6 2.2 60.2c-1.2.4-2.5.6-3.8.8l-2.1-26.6c.5-1.8.8-3.6.8-5.5 0-8.3-1.2-16.6-1.5-24.9v.1c0-1.3 1.4-3.7 2.5-4l2-.1zm5.3.1 3.4.7 3.4 54.6c-1.5 1-3 2-4.6 2.7zm-18.3 1.2v13.8l-31.1 6.3-6-8.6 37-11.5zm27 1.6c2 1 3.7 2 5.3 3.3l2.5 41.4a32 32 0 0 1-4.7 4.3zm-98.1 1.7c2.7 0 5.4.8 7 2.4 3.6 3.8 2.6 9.4-1.8 13.4-2.9 2.6-4 9-8.6 9.4-6.3-1.4-6.4-9.7-9.7-14.6 1.8-2.4 3.7-5.4 6-8a9.7 9.7 0 0 1 7-2.6zm109 7.8A29.1 29.1 0 0 1 237 153zm-85.5 7.7a10 10 0 0 1 3.4.2 11 11 0 0 1 6.4 5.7c.8 1.7-.5 5.3-2 6.9-5.7 6-9.6 10.1-25.2 5.5 0-8 9.2-17.5 17.4-18.3zm39.4 3.9h1.8v.1c1.8.4 3.9.7 5.4 1.6a5 5 0 0 1 1.7 1.7l.1.3c.4.7.6 1.6.7 2.6v.7a10.9 10.9 0 0 1-.4 3.3 9 9 0 0 1-1.2 2.4v.1c-1.4 2-3.5 3.4-6 4.6-1.5.8-3.5.8-5.4 1.2.1-4.6 0-8.7.6-12.8.2-1.6.1-4 1.3-5 .3-.4.8-.7 1.4-.8h.1zm-82 .3c10.2 6.2-1.3 9.6-.8 14.6H95l12.3-14.6zm72.2 2.4c-1 6-1.3 10.7-2.4 15.2l-.2 1.2-1.5-15.2 4-1.2zm-479.5 2.2c.7-.2 1.5-.2 2 0 6.2 2 12 4.7 18.2 6.2 10.5 2.6 21.2 4.5 32 6.7-14.5 12-35.3 13.1-50.4 25.2 14.8 1 27.5-5.5 42-10l-2.6 8.7c-1.2 3.9-2.2 7.9-4 11.6-1.2 2.5-3.2 5.5-5.6 6.7-20.1 10.3-38.5 3.8-56.4-6.5-.9-.5-1.7-2.4-1.5-3.4 2.9-17.6 8.8-33.7 24.2-44.4a6 6 0 0 1 2-.8zm470.5 2.4 2.7 29.2c-.7 0-1.4.2-2 .4l-3.2 1-2-25.9 4.5-4.7zm-49.7 1.8c5.4 0 10.2 4 10.2 9.2 0 5.3-4.8 9.2-10.2 9.2-5.4 0-10.2-4-10.2-9.2 0-5.3 4.8-9.2 10.2-9.2zm-324.3 3.7c1.3-.1 2.7.4 5.2.9l-30.2 82.6c8.6-1.3 10.3-7.9 12.4-13.3 7.7-19.7 14.9-39.6 22.1-59.5.6-1.8 1.1-3.6 1.3-5.4.4-4.7 3.1-5 6.5-3.3 5 2.4 10.2 4.6 14.4 8.1 2.5 2 3.9 6.2 4 9.5 1 15.8-3.5 30.7-7.8 45.5-6 20.6-18.8 36.4-34.5 50.5-13.6 12.2-29.7 18.8-48.5 24.3-1-7.8-2.5-15.4-3.2-23a184.8 184.8 0 0 1 1.2-50.5c1.5-8 3-16.3 5.9-23.8 4.2-11 9.3-21.5 14.6-32 2.6-5 6-8.9 13-8.7 7.9.1 15.7-1.3 23.6-2zm324.3 1.6c-3 0-5 2-5 3.9 0 2 2 4 5 4 2.9 0 5-2 5-4s-2.1-4-5-4zM161 154l1.5 19.7-1-1.2c-3-4.5-7.9-9-3.5-14.9l3-3.6zm41 1 1.5 18.3h-1c-1.1-.3-2.4 0-3.7.5l-1-15c1.5-1 3-2.4 4.2-3.8zm-99 5.1c3.8 0 9 6 8.8 10.2-.1 6.2-8.5 16.1-13.6 16-4 0-11.1-7.2-11-11 .1-8.5 7.2-15.3 15.8-15.2zm74.2 1.4c1 .8 2.7 1.3 5.5 1.6l1 11.2c-1.7-.9-3.5-1.4-5.4-1.6zm15.4.1 1.2 14.7c-1.4.8-2.8 1.6-4.2 2.2l-.6-.6h.2l-1.2-15c1.6-.2 3.1-.7 4.6-1.3zm-61 1.3c4.8-.8 14 8 14.1 12 .2 4.5-3.5 8-8.4 8-6.3 0-15.1-8.1-13.7-14 .6-2.6 5-5.5 8-6zm-290.9 2.5c12.1 6.3 25 11.6 36 19.4 4.4 3 6 11.5 7 17.8 3 19-1.2 37-9 54.3-2.6 5.8-5.6 11.5-8.1 17.3-1.6 3.8-4.5 4-7 2.4-8.9-4.8-17.7-9.8-26.2-15.4-4.6-3-8.5-7.4-12.5-11.2-2.4-2.3-3-5.1-.7-7.6 7-7.8 9.2-17.8 12-27.4 2.3-7.9 4.2-15.8 6.3-23.7l2-.2 14.7 47.1c4.8.2 3.6-4 3.4-7a131 131 0 0 0-12.4-45.7c-2.7-6-5-12.1-7.6-18.3l2.1-1.8zM69.5 177c7 2.4 13-.7 14.9 3.6 1 2.4-2.6 9.7-5.6 13-3-5-5.9-11-9.3-16.6zm107.7 2.9c3 0 5.8 1.7 6.6 5.3-.8 3.1-5.3 4-8 4.5-1.4.3-3.2.6-7.2-1.5-.7-3.1 1.3-5.3 3-6.5a9.8 9.8 0 0 1 5.6-1.8zm23.8 1.9h.7c3 .3 5.9 2 8.8 3.1.7-.2 1 1.3 1 2.2 1 1.4-6 9-10.9 9.6-3.7-1-4.8-5.6-5.4-8.7-.7-3.7 2.1-6.3 5.8-6.2zm-89.3 5.7c2.8 4.7 3.4 5.6-1.1 12.9-2.2 3.4-7.2 5-10.8 7.5-11.1-6.1-11.7-7-9.3-15 8.1 3.2 15.3 1.2 21.2-5.4zm110.8.8c2.8.1 6.2 1 7.5 3.3.3 2.4-12.3 16.3-16.6 3.2.5-3.5 4.3-6 6.6-6.3l2.5-.2zm-87 1.2 7.7 3.5c1.4 5.4-3.8 8.1-5 9.2-3.4 2.7-8 4.1-12.2 5.7-4.7 1.8-7.5-.9-6.4-5.9 1.8-8.1 4.9-11.4 16-12.4zm16 .6c.3.1 19.1 6.2 28.4 3.4 0 .9 8-3.4 8-2.5 12 16.8-1.8 14.3-11.1 13.7.4-6.2-4.3-5.4-8.8-5.7-4.6-.4-9.2-1.7-13.5-3-1.7-.6-2.9-2.7-4.3-4.1l1.3-1.7zm56.4 11.4c.8 0 2.2.3 2.8.7 2.7 1.3 4 1.8 6.6 4.9.2 1.7-1.1 4.8-2.5 5.7-2.7 1.8-4.1 3-7.2 2.8-.4 0-3.5-1-3.8-1.3-2-1-6-1-5-7.3 1.8-2.2 2.3-2.7 4.7-4.5 1.3-.5 3.4-1 4.4-1zm-125.9 5c1.9 0 3.8.9 5.5 2.9 1.5 1.6 1.3 3 3.3 4.1 4.4 2.3 5.2 6.5 1 9-4 2.5-4 5.6-11.8 5.6-4.7 0-7.1-4.5-8.1-7.5-1.6-4.6.8-9.4 5-12.2a9.4 9.4 0 0 1 5.1-1.9zm29.3 1c1.2 0 2.4.2 3.5.5 2.3.8 4.3 2.5 5 4.8v.1c.8 2.4 0 5-1.4 6.8a11.7 11.7 0 0 1-6 4c-2.6.8-5.2.8-7.4 0a7.7 7.7 0 0 1-5-4.7 8 8 0 0 1 1.4-6.9 12.9 12.9 0 0 1 9.9-4.6zm31 2.3c1.3 0 2.7.8 3.8 1.4a9.4 9.4 0 0 1 4.3 12.6 17.8 17.8 0 0 1-10.8 7.8c-6 1.4-11.7-1-16-6-4.2-5-3.4-7.7 3-10l15.1-5.7h.6zm40.7 1.9c3.4-.2 5.8 1.9 8.4 3 2.2 1 4 4.2 4.4 6.3.4 2-1.2 5.9-2.9 6.6-2.2.9-6.2.5-8-1-3.8-3.1-8-6.8-5.7-14v.1c1.4-.7 2.7-1 3.8-1zm-71.7 1c-.7 0-1.5.1-2.3.4a6.7 6.7 0 0 0-3.4 2.2c-.7.8-.8 1.5-.6 2 .2.6.7 1.1 1.7 1.5 1 .4 2.5.4 4 0h.1a6.7 6.7 0 0 0 3.4-2.3c.7-.8.8-1.5.6-2-.2-.6-.7-1.1-1.7-1.5-.5-.2-1.1-.3-1.8-.3zm-7.5 15.6c4.2.5 8.8.7 12.2 2.7 2.6 1.5 3.6 5.6 4.6 7.3 0 7.6-9.3 14-17.2 13.8-4-.2-9.1-6.2-9-10.5.5-7.1 5-13.9 9.4-13.3z" class="cls-9"/>
      <path d="M-242.9-70.2a7.3 7.3 0 0 1-7.3 7.3 7.3 7.3 0 0 1-7.3-7.3 7.3 7.3 0 0 1 7.3-7.3 7.3 7.3 0 0 1 7.3 7.3zm42.1.4a6.3 6.3 0 1 0 0-12.7 6.3 6.3 0 1 0 0 12.7zm-32.6-32.2a5.3 5.3 0 1 0 0-10.6 5.4 5.4 0 0 0 0 10.7z" class="cls-9"/>
    </g>
    <g font-family="Sunday-Regular,Sunday" font-size="12" transform="matrix(1.0583333,0,0,1.0583333,28.800902,90.567361)">
      <path d="M93.5 331.3c-3-.8-4.8-5.6-2.4-10.4.3-1.3 2-3.7 3.4-4.8 2-3.6 4-7.2 6.3-12.1l2.5-9 1.7-6.6c1-3.8.8-6.7.6-9.6 0-4-.3-7-1.6-10-2.2-3.4-6.3-4.5-11.5-4.5-1.3 1-3.6 1.7-4 3-1.3 1-1.6 2.4-3 3.5-1.6 2.2-2 3.5-3.7 6-.4 1.2-.6.8-1 2.1-5 14-9.5 29.5-5.9 39a13 13 0 0 0 3 4.9c.7.7 2.6 2.1 3.5 2.4 2 .5 3.4-.6 4.4-.3 1 .3.3 3 .4 4.3 0 1.7 1 2.8 2.1 3.8 1.6 1.6 3.2 1.9 5.5 1 .4-1.2.7-2.4-.3-2.7Zm.6-27c-1.9 4.1-2.6 6.9-4.2 9.3-2.7-2.1-4.3-4-7.6-3.4l-1.3 1c-1.7-1.8 0-8.3.8-10.9A67.3 67.3 0 0 1 94.5 269l1.8.5c4 1 3.6 3.9 3.8 8.9a48 48 0 0 1-2.4 13.7c-1 3.8-2.4 9.7-3.6 12.2zm-7.6 14s-.5 1.2-1.5 1.9c-1 .8-1.4.7-2.4.4-2-.5-1.3-6.6.7-6l2.9.7s.7 1.6.3 3z" aria-label="Q" class="cls-8"/>
      <path d="M113.5 322.1c-.4-5.2.2-11 .8-17.3l1.2-12 1.1-11.6.8-7.6c1-1.3 2.1-3 1.5-4-1.1-1.8-3.9-1.6-5.8-1.6s-3-.3-4 .9c-.3 2.5 2.5 2.2 2.5 4.1 0 2.9-.5 5-.7 7.6l-3.2 31.9c.6 4-.5 8 .8 11.6 1 3 2.6 6.3 5.8 7.2 1.9.2 1.3 0 2.3.1 3.9.4 6.9-3.9 8.5-6.9 2.9-5.4 4-11.2 4.7-18.8l.2-1.4 1.2-12.7c1.6-6.3.8-14.8 3.8-17.4 1.2-1 1-3.8-2.6-4.3-2.1-.3-5-.2-7.2-.4-1 0 .3 2.2.1 3.5 0 0 1 0 1.8 1.6.7 2.6-.8 7.5-1.3 12.7l-1.9 19c-.5 5.2-1.3 14.8-5.1 17.9-2.4 1.8-4.4-.7-5.3-2Z" aria-label="u" class="cls-8"/>
      <path d="M157.2 280.1c3.9 0 1.9-5.1 1.8-7.7 0-1.3-1-2.6-1-2.6l-9.8.2c-3.9 1.3-7.7 1.3-11.6 2.7v2.6h4v11.4l.1 5.1.2 13v2.5c.1 7.8 1.2 14.1.3 21.8h-3.9v2.6a66.3 66.3 0 0 0 15.6 1.1h5c1-1.4 1.9-2.6 1.9-4 0-2.5-.1-6.3-2-6.3-2 1.3 0 5.1-2 6.4-2.9 0-4.8 0-7.8-1.2l-.4-11.3c0-3.8-.8-9.2.1-13l4.9-.1v1.3c0 1.2 2 2.5 2 2.5 2 0-.1-7.8.8-10.3-1-1.2-1-1.2-2-1.2s-1 2.6-.9 3.8c-2 0-4.8 0-5.8-1.2 1-2.6-.1-5.1-.2-9v-8c0-3-.1-4.9.8-6 2-1.4 4.9-1.5 6.8-1.5l2 1.3c1 1.2 0 3.8 1 5.1zm24.9-2.1c4-.4 1.5-5.3 1.2-7.9 0-1.3-1.2-2.5-1.2-2.5l-9.7 1c-3.8 1.6-7.7 2-11.4 3.7l.2 2.6 4-.4 1 11.4.5 5.1 1.3 13 .2 2.5c.8 7.8 2.4 14 2.1 21.7l-3.9.4.2 2.6c6 .7 10.9.2 15.7-.2l4.9-.5c.8-1.4 1.7-2.8 1.6-4-.3-2.7-.6-6.4-2.6-6.2-1.8 1.4.5 5-1.3 6.5-3 .3-4.9.5-8-.5-.2-2.5-1-7.4-1.3-11.3-.4-3.8-1.6-9-1-13l4.8-.5.2 1.3c0 1.3 2.2 2.4 2.2 2.4 2-.2-.8-7.8 0-10.4-1.1-1.1-1.1-1.1-2.1-1-1 0-.7 2.6-.6 3.8-2 .2-4.8.5-6-.6.8-2.7-.5-5.1-.8-9l-.7-8c-.2-2.9-.6-4.8.3-6 1.8-1.6 4.7-1.9 6.7-2l2 1c1.1 1.2.4 3.8 1.5 5z" aria-label="e" class="cls-8"/>
      <path d="M209.5 291.5c-.2-1.4-1.2-1.2-1.5-2.5l.8-1.6a21 21 0 0 0 2-5.8 24 24 0 0 0-1.7-10.6c-2.8-7.5-11.5-6.3-17.4-3.9-1 .2-1.1 1-2.1 1.2-3.1.5-4.4.8-3.7 4.7.2 1.4 2 1.6 4 1.3 1.1 6.7 2.5 10.7 3.1 16.4.3 1.9 0 2.2.3 3.6 1.5 2.4 1 5.3 1.4 7.9l3.9 22.6c-1 .2-2 .4-2.8 1.8 1.5 2.5 2.4 2.4 4.5 2 1.7-1.7 6.2-1.4 8.1-1.8 1-.1.7-1.1.5-2.5-.2-1.2-2.3-.9-2.5-2.2-1.4-2.5-1.8-5.1-2.3-7.9-1-5.2-3.3-13-3.5-20-.2-1.2.8-1.3 1.8-1.5 1.2 1 2.2.9 2.5 2.2 1.3 1.2 1.6 2 2.6 3.2 3.1 4.2 3 10 4.6 14.9 2.4 7.9-.1 10.4 2.4 12.7 3 0 7.3.1 6.6-3.8-.3-1.3-1.2-1.2-2.2-1-2.7-9.2-4.2-23.4-9.4-29.4Zm-13.9-20.8 5-1c1.2 1.1 2.3 1.8 2.6 3.7.5 2.6.8 2.3 1 5.3 0 1.9-.3 4-.1 5.5-.8 1.5-5 4.6-5.3 2.8-1.3-6.4-2.3-11-3.2-16.3z" aria-label="r" class="cls-8"/>
      <path d="M251.6 255c-1 .3-2.3-.8-2.3-.8-2.4 0-3.3-.5-5.3.1s-2.6 2.2-3.6 2.5c-1.2 3-2 7.4 0 11.2.8 2.5 3.6 4.3 5.7 5.9 2.1 1.6 3 1.3 4.2 2.3 1.3 1 2.7 2 5 2.7 2.4.8 3.8 1.8 5.5 4 4.9 9.9 6 20.6 1.2 26.2-1 .3-.6 1.6-1.6 2-3.3-.6-6.5-8-5.3-11 .6-1.7 1.6-2 2.6-2.3.2-2.8-1.5-5.2-3.5-4.6-2.4 2.4-4.5 2.8-7 5 .3 1.2.7 2.5 2 3.5 1-.2.6-1.6 1.6-1.9.5 5.5 2.6 9 4.4 11.3 1.3 1 5.4 4 7.3 3.4l4-1.1c3.5-2.4 5.2-5.3 5.5-10a32.2 32.2 0 0 0-5.4-20c-1.7-2.3-2.5-3.2-3.2-4-4.5-5.4-10.5-5.3-14-9.8a23.8 23.8 0 0 1-3.3-11.7 7 7 0 0 1 5.6 1.2c.7 2.5.6 5.4 1.9 6.4 2.4.7 2.2-3.4 2.4-6.3-.4-1.3-.1-4.2-1.5-5-.4-1.4-1.3-1.1-2.3-.9-1 .3-.6 1.7-.6 1.7z" aria-label="S" class="cls-8"/>
      <path d="M282.5 253c3.7-1.2.2-5.4-.6-7.9a4.9 4.9 0 0 0-1.8-2.1l-9.3 3.1c-3.3 2.5-7 3.7-10.2 6.2l.8 2.5 3.7-1.3 3.7 11 1.6 4.8 4.2 12.2.8 2.4c2.5 7.4 5.5 13 7 20.7l-3.7 1.2.8 2.5c6-.7 10.6-2.2 15.2-3.8l4.7-1.6c.5-1.5 1-3 .6-4.3-.8-2.5-2-6-4-5.4-1.4 1.8 1.7 4.8.3 6.7-2.8 1-4.7 1.5-7.8 1.3l-4-10.7c-1.2-3.6-3.6-8.4-3.9-12.5l4.6-1.5.4 1.2c.4 1.2 2.7 1.9 2.7 1.9 1.9-.7-2.5-7.4-2.3-10.1-1.4-1-1.4-1-2.3-.6-1 .3-.1 2.8.3 3.9-1.9.6-4.6 1.5-6 .7.2-2.7-1.6-4.9-2.9-8.6-.8-2.3-1.2-4.2-2.4-7.6-1-2.7-1.7-4.5-1.1-6 1.4-1.9 4.1-2.8 6-3.4l2.3.6c1.3.8 1.2 3.6 2.6 4.5z" aria-label="e" class="cls-8"/>
      <path d="M313.9 233.3c-1.3-3.5-3.5-1.3-5.3-.6l-3.7 1.2c-.9.3-3.6 0-4.1 1.5.4 1.2.5 3.5 2.9 3.3a60 60 0 0 1 1.7 12.6c.4 1.2 0 2.7.4 3.8-1.7-2-4.5-3.5-6.6-6.8-1.7-2.6-7.6-7-4.2-8.5-.4-1.2-1.5-2.1-2.3-1.8-2.2.8-6.3 2.3-7.7 4.1.5 1.2 1.4.9 2.7 1.7l1.8-.7c.9-.3 1.7 1.6 2.5 2.6 2.4 3 5.1 4.9 7.5 7.8 1 1.3 2.3 1.8 4 3.8.5 1.2 2.3 3.2 2.3 3.2-.3 2.4.5 3.9 0 5.4 0 10.1-.9 19.3-.1 29-3.3 1.1-3 3-2.6 4.2 0 0 .8 2.3 1.7 2 1-.4.5-1.5 1.4-1.9l1.7-.6c1.7-.7 3.4-.8 4.7-1.3.9-.4 2.5-.6 3.4-1 .9-.3.4-2.3 0-3.5-1.3-.8-3-.2-3.5-1.3-1.1-5.2.6-16.2-.5-22.6 3.1 2.8 5.8 7.2 8 10.3 2.2 3.3 5.3 6.1 7.6 9.3l-3.6 1.3c.4 1.2 1.7 2 1.7 2 3.2.1 5-.5 7.2-2.7.9-.3.9-.3.5-1.5-1.4-.8-2.2-.5-3.1-.2-5-4.8-10.3-13.5-15.6-19.5-.4-1.2-2.2-3.2-3-5.5-.6-1.3-.5-2.7-.6-4a105 105 0 0 1 .6-23c.8-.3 2.6-1 2.2-2.1z" aria-label="x" class="cls-8"/>
      <path d="M359.6 222.3c3.6-1.6-.2-5.5-1.3-7.9-.5-1.2-2-2-2-2l-8.9 4c-3 2.6-6.6 4.2-9.7 7l1 2.3 3.6-1.6 4.6 10.6 2 4.7 5 11.9 1.1 2.3c3 7.2 6.5 12.6 8.6 20l-3.6 1.6 1 2.4a62 62 0 0 0 14.9-5l4.5-2c.4-1.5.8-3 .3-4.3-1-2.4-2.6-5.8-4.4-5-1.3 1.9 2 4.6.8 6.5-2.8 1.2-4.5 2-7.7 2l-4.8-10.4c-1.5-3.4-4.2-8-4.9-12l4.5-2 .5 1.2c.5 1.2 2.8 1.6 2.8 1.6 1.8-.7-3-7.1-3.1-9.8-1.5-.8-1.5-.8-2.3-.4-1 .4 0 2.7.5 3.8-1.7.8-4.4 2-5.8 1.3-.1-2.8-2-4.8-3.6-8.4l-3-7.4c-1.2-2.6-2-4.4-1.6-5.9 1.3-2 3.9-3 5.7-3.9l2.3.5c1.4.7 1.5 3.4 3 4.3z" aria-label="E" class="cls-8"/>
      <path d="M384 264.8c.5 1.2 2 2 3.5 2.8a14 14 0 0 0 6-4.2l1.7-.8c3.8-1.7 4.5-5 5.8-7 .6-6.2 1.5-13.9-1.8-21.2-1.3-5.3-3.9-9.5-6-13.3a44 44 0 0 0-7.9-9.8c-2-2-4-4.1-6.4-4.4-1.5-.8-3.9-1.2-5.4-2-.5 0-.8.4-.8.4-2.5.6-3 1.3-4.7 2.1-1.9.9-3.8 1.7-5 3.7l-.4 1.7c-.4 1.7-1.3 2-.8 3.2 1.7 3.7 2.5.4 4.2-.4l2.3 5a63 63 0 0 1 7 12.9c1.7 3.6 4.8 8 7.6 14.2l6 13.4c-.8.4-.3 1.6-1.3 2zm-12.6-54.5c2-.9 2.9-1.3 4.3-.6 4.4 2.5 7.2 8.6 11 14.2l1.6 3.7c2.6 3.2 3.3 7.2 4.4 9.7 2.2 4.9 4.5 9.8 4.2 14.3 0 0 .6 1.2-.3 1.6 0 0-1 .4-.4 1.7-.9.4-1.3 2-2.2 2.4-1.5-.7-1.1-2.4-2.3-4.9-1-2.4-3.1-4.4-4.2-6.8l-5.5-12.2c-1.7-3.7-3-5.7-4.3-8.4-1-2.4-2.4-4.8-4-8.4-.8-1.7-2.6-4.8-2.3-6.3z" aria-label="d" class="cls-8"/>
      <path d="M437.3 187.5c-1.7-3.5-4-10.8-6.7-9.6l-3.5 1.7-17.7 8.3c-.3 1.6.3 2.8 1.7 3.5 1.5.8 2.6-1.3 4.4-2 2 1.8 2.7 5.7 3.8 8 1.7 3.5 4.8 7.8 6.4 11.2 1.1 2.3.8 4 1.3 5 2 2 1.7 3.5 2.8 5.9l4.4 9.2c.8 3.9 3.8 8.1 2.6 10.1 0 0-.9.4-1.2 2 .6 1.1 1.1 2.3 2 2 .9-.5 3.2-.2 4-.6 1.8-.9 2.1-2.4 3-2.8 1-.5 2.3.3 1.8-.8 2.6-1.3-1.7-3.5-2.5-3.1-2-2-3-4.3-4.2-6.6l-1.6-3.4a28.5 28.5 0 0 1-3-8.6c-1.6-3.4-3.6-5.4-3-8.5.8-.4 1.8-.9 3.2 0l1 2.2c1.9-.8 1.9-.8 2.2-2.4-1.7-3.5-4-11.2-7.6-9.1l2.2 4.6-2.7 1.2c-1.3-.7-1.6-3.4-2.2-4.6-2.1-4.6-5.7-10-6-12.7 2.1-2.5 5.6-4.1 9.2-5.8 1.6 3.5 2.7 5.8 4.7 7.7.8-.5 1.7-.9 1.2-2z" aria-label="F" class="cls-8"/>
      <path d="M478 218.8c-.2-5-1-10.1-2.7-16.3-1.2-5.1-3.3-9.3-4.8-12.8a77 77 0 0 0-3-6.1c-3.2-5.8-7.6-10.2-11.4-11.4-3.4-2.7-5.7-3-9.2-1.5-6.8 1.6-5.4 9.5-6 15.4-.4 1.5.8 4 1.5 6.6.5 1.2 1 3 1.5 4.7 1 3.3 2.1 4.7 3.2 7 2.1 4.8 4.2 9.5 7.2 13.7 2.5 3.1 4.7 5.3 6.4 7 4.6 4.4 12.8 5.8 16.4-1.7.5-1 .9-2.9.8-4.6Zm-4.3 1c.3 2.4-3.6 5.4-5.8 4.3-1-.6-1-1.8-1.8-1.4-1.5-.8-2.5-3.2-4.5-5.1-4-6.5-9.1-15.6-12.5-25.4-1-2.3-2.1-4.7-2.3-7.4-.7-4-.8-6.6 0-9.8 1.7-.8 2-.6 3.6-1.4 2.3.4 4.6 3.3 6.5 5.2 2 2 3 4.3 5 6.3 1 2.3 2.4 4.4 3.4 6.8l2.4 6c1.6 3.6 3.2 7.1 4 11 .7 3 1.6 8.2 2 10.8Z" aria-label="o" class="cls-8"/>
      <path d="M491.1 182.2c-.5-1.3-1.5-.9-2-2.1l.5-1.7c.5-1.5 1-4.2.9-6.1a24 24 0 0 0-4-10c-4-6.8-12.4-4-17.7-.4-.9.3-1 1.2-1.9 1.5-2.9 1.2-4 1.7-2.6 5.4.5 1.3 2.3 1.2 4.1.5 2.5 6.3 4.6 10 6.4 15.5l1 3.4c1.9 2 2 5 2.9 7.5L487 217c-1 .4-1.9.7-2.4 2.3 2 2.2 2.9 1.8 4.8 1 1.4-2 5.8-2.6 7.7-3.3.9-.4.4-1.2-.1-2.5-.5-1.2-2.4-.5-2.9-1.7-1.9-2.2-2.8-4.7-3.8-7.3-2-5-5.9-12.2-7.3-18.9-.5-1.1.4-1.5 1.4-1.9 1.4.8 2.3.5 2.8 1.7 1.5 1 2 1.6 3.2 2.7 4 3.4 5 9 7.5 13.6 4 7.3 2 10.3 4.9 12 2.8-.7 7.1-1.3 5.6-5-.4-1.3-1.3-1-2.3-.6-4.4-8.5-8.7-22.1-15-27Zm-17.8-17.6c1-.3 3.7-1.6 4.7-2 1.4 1 2.7 1.4 3.3 3.2 1 2.4 1.3 2 2 5 .4 1.8.5 4 1 5.3-.4 1.7-3.9 5.5-4.6 3.9l-6.4-15.4z" aria-label="r" class="cls-8"/>
      <path d="M546 199.2c-1 .1-2 3.8-1.9 5.1.2 1.2 1.7.4 2.7.2 2-.3 3.7-1 5.7-1.2l1.3.2c1.9-1.7-.4-2.8-.6-4l-1.1-8c-2.6-11.5-4.8-23.1-7.2-33.3-.5-2.1-1.2-4.5-2.5-6.8-.4-2.7-3.2-7.6-5.5-8.6-2.1-1.2-3.8 1.9-3.8 1.9a47.9 47.9 0 0 0-3 13.9c-.7 2.8-1.2 6.8-.6 10.7.3 9.4 1 21.3 1.2 29.4.2 1.4.4 2.7-.6 2.8-1 .2-1.9 1.5-2.6 3l2.4 2.3c2.7-1.8 6 .6 8.6-2.6l-.2-2.6c-1.1-1-2 .3-3.2-.8-1-6.8-2-13.1-1.6-18.5-.4-2.8-.8-5.4 0-6.9 3-.4 6.2.5 8.1.2 2 6.4 3.3 15.6 4.5 23.6zm-12-48 .9-1.5c1-.1 1.2 1.2 1.2 1.2 1.6 3.7 3.2 9 3.8 13l1.1 7.8c-1.9.2-4.9.7-8 0-.2-1.6.1-5.7 0-6.9.2-5.4.6-9.6 1-13.6z" aria-label="A" class="cls-8"/>
      <path d="M570.8 142.7c0-1.6.2-1.7-.7-1.8-3.1-.6-7.2.3-10.2.2h-1v2.6c1 1.3 1.9 1.3 1.9 2.6.9 4 .7 9.2.6 13.2l-.3 11.6v1.4a164 164 0 0 1-1.6 22.1c0 2.7 0 4-1 5.2-1.1 0-2 0-2.1 1.2 0 1.4 1 1.4 2 2.7 4.9-1.1 10.8.3 16.8-.8 1-1.4.1-4 .1-5.2.1-4 1.2-9.2-.6-11.8 0 0-1-1.3-2 0l-.2 5.2-.2 7.8h-1l-2-.1h-1.9c-1-.2-1 0-1-1.3-.5-18.4 2-34 2.4-51 0-1.2 1-1.2 2-3.8zm29.2 3.1c.3-1.5.5-1.6-.4-1.9-3-1-7.2-.6-10-1l-1.1-.2-.4 2.6c.8 1.4 1.8 1.6 1.6 2.8.3 4-.5 9.2-1.1 13.2l-1.8 11.5-.3 1.3c-1 6.4-2.4 15.4-4.4 21.7-.5 2.7-.7 3.9-1.8 5-1-.1-2-.3-2.2 1-.2 1.3.7 1.5 1.6 2.9 5-.5 10.7 1.7 16.8 1.4 1.2-1.2.6-3.9.8-5.1.6-3.9 2.4-9 1-11.8 0 0-.9-1.4-2-.3l-.9 5.1-1.2 7.7-1-.1-2-.3-1.9-.3c-1-.3-1-.2-.8-1.5 2-18.2 6.4-33.4 9-50.1.3-1.3 1.2-1.1 2.6-3.6z" aria-label="l" class="cls-8"/>
      <path d="M606 196.1c1-5.3 3.3-8.7 4.7-13.8 1-3.5 1.4-8.5 2.8-13.2 2-7.1 5.7-13.6 5.3-18.9.6-2.3-2-3.2-3.8-3.7-1.2 1-2.5 5.7-3.2 8-.3 1.1-1.2.8-.6 2.3l-.4 1.2c-1.5 5.6-2.3 11.9-3.1 16.9-.8 4-.2 5-1.2 8.6-1 3.6-2.6 9.5-1.5 12.4Zm-5.2 6.5c-.8 3.6.4 6.4 2.5 5.6 2.7.6 3.8-4 2.3-5.7-1.5-1.6-4.2-2.3-4.8.1Z" aria-label="!" class="cls-8"/>
    </g>
  </g>
</svg>
