<svg xmlns="http://www.w3.org/2000/svg" width="50" height="14.96">
  <g transform="translate(-13.0618,2.53086)">
    <path fill="#3b0516" d="M53.06 12.43v-10h10v10Z"/>
    <path fill="#610d26" d="M43.06 12.43v-10h10v10Z"/>
    <path fill="#a51d32" d="M33.06 12.43v-10h10v10Z"/>
    <path fill="#c82531" d="M23.06 12.43v-10h10v10Z"/>
    <path fill="#f03e3e" d="M13.06 12.43v-10h10v10Z"/>
    <path fill="#f03e3e" d="M29.82.47c-.15 0-.32-.02-.51-.05v-2.9c.2-.03.36-.05.51-.05.26 0 .46.05.62.14.16.1.28.24.35.44.08.2.12.47.12.8v.24c0 .32-.04.59-.12.8a.78.78 0 0 1-.35.44c-.16.1-.36.14-.62.14zm-.25-.34a.82.82 0 0 0 .3.05c.17 0 .3-.04.4-.11.11-.08.2-.2.24-.36.05-.16.07-.38.07-.64v-.2c0-.26-.02-.48-.07-.64a.63.63 0 0 0-.23-.36.67.67 0 0 0-.41-.11 1.03 1.03 0 0 0-.3.05l.06-.11V.24zm1.57.3.73-2.92h.39l.72 2.92h-.33l-.58-2.54h-.02L31.47.43zm.37-.8v-.28h1.1v.28zm1.83-2.11a3.28 3.28 0 0 1 .56-.05c.24 0 .43.03.58.1.15.05.25.15.32.28.07.13.1.3.1.52 0 .22-.03.39-.1.52a.6.6 0 0 1-.32.3 1.6 1.6 0 0 1-.58.08 2.77 2.77 0 0 1-.43-.03l.1-.28a3.32 3.32 0 0 0 .36.03 1 1 0 0 0 .38-.06c.1-.04.16-.1.2-.2.05-.09.07-.2.07-.36a.84.84 0 0 0-.07-.36.38.38 0 0 0-.2-.2.98.98 0 0 0-.38-.05 1.86 1.86 0 0 0-.36.03l.1-.11V.43h-.33zm1.23 2.9-1-1.3h.36l1.01 1.3zm.8 0v-2.91h.31v1.26h.02l.9-1.26h.36l-.98 1.38.98 1.54h-.36L35.7-1h-.02V.43zm3.97-2.9a3.28 3.28 0 0 1 .56-.05c.24 0 .43.03.58.1.15.05.25.15.32.28.07.13.1.3.1.52 0 .22-.03.39-.1.52a.6.6 0 0 1-.32.3 1.6 1.6 0 0 1-.58.08 2.77 2.77 0 0 1-.43-.03l.1-.28a3.32 3.32 0 0 0 .36.03 1 1 0 0 0 .38-.06c.1-.04.16-.1.2-.2.05-.09.07-.2.07-.36a.84.84 0 0 0-.07-.36.38.38 0 0 0-.2-.2.98.98 0 0 0-.38-.05 1.86 1.86 0 0 0-.36.03l.1-.11V.43h-.33zm1.23 2.9-1-1.3h.36l1.01 1.3zm.82 0v-2.91h1.4v.28H41.7v.96h1.04v.28H41.7V.15h1.08v.28zm2.43.05c-.15 0-.32-.02-.51-.05v-2.9c.2-.03.36-.05.51-.05.26 0 .46.05.62.14.16.1.28.24.35.44.08.2.12.47.12.8v.24c0 .32-.04.59-.12.8a.78.78 0 0 1-.35.44c-.16.1-.36.14-.62.14zm-.25-.34a.82.82 0 0 0 .3.05c.17 0 .3-.04.4-.11.11-.08.2-.2.24-.36.05-.16.07-.38.07-.64v-.2c0-.26-.02-.48-.07-.64a.63.63 0 0 0-.23-.36.67.67 0 0 0-.41-.11 1.03 1.03 0 0 0-.3.05l.06-.11V.24zm2.39.34a1.76 1.76 0 0 1-.62-.1V.06l.3.09c.09.02.19.03.29.03.18 0 .32-.04.42-.11.1-.08.15-.2.15-.36a.49.49 0 0 0-.05-.22.57.57 0 0 0-.17-.2 2.13 2.13 0 0 0-.33-.22 2.8 2.8 0 0 1-.4-.27.79.79 0 0 1-.22-.27.89.89 0 0 1-.06-.34c0-.25.07-.43.22-.54.14-.12.37-.18.68-.18a2.46 2.46 0 0 1 .58.07v.85h-.32v-.73l.13.15a2.2 2.2 0 0 0-.4-.05c-.19 0-.33.03-.42.1-.1.07-.14.18-.14.33 0 .09.01.16.05.23a.6.6 0 0 0 .17.2c.08.07.2.14.33.21.17.1.3.2.4.28.1.08.17.18.22.28.04.1.06.2.06.33 0 .25-.07.44-.22.57-.14.12-.36.18-.65.18z"/>
  </g>
</svg>
