<svg xmlns="http://www.w3.org/2000/svg" width="50" height="14.96">
  <g transform="translate(-13.0618,22.5309)">
    <path fill="#3b0126" d="M53.06-7.57v-10h10v10z"/>
    <path fill="#60033b" d="M43.06-7.57v-10h10v10z"/>
    <path fill="#8a0850" d="M33.06-7.57v-10h10v10z"/>
    <path fill="#b50d59" d="M23.06-7.57v-10h10v10z"/>
    <path fill="#cb0f5e" d="M13.06-7.57v-10h10v10z"/>
    <path fill="#cb0f5e" d="M28.82-19.53c-.15 0-.32-.02-.51-.05v-2.9c.2-.03.36-.05.51-.05.26 0 .46.05.62.14.16.1.28.24.35.44.08.2.12.47.12.8v.24c0 .32-.04.59-.12.8a.78.78 0 0 1-.35.44c-.16.1-.36.14-.62.14zm-.25-.34a.82.82 0 0 0 .3.05c.17 0 .3-.04.4-.11.11-.08.2-.2.24-.36.05-.16.07-.38.07-.64v-.2c0-.26-.02-.48-.07-.64a.63.63 0 0 0-.23-.36.67.67 0 0 0-.41-.11 1.03 1.03 0 0 0-.3.05l.06-.11v2.54zm1.57.3.73-2.92h.39l.72 2.92h-.33l-.58-2.54h-.02l-.58 2.54zm.37-.8v-.28h1.1v.28zm1.83-2.11a3.26 3.26 0 0 1 .56-.05c.24 0 .43.03.58.1.15.05.25.15.32.28.07.13.1.3.1.52 0 .22-.03.39-.1.52a.6.6 0 0 1-.32.3 1.6 1.6 0 0 1-.58.08 2.78 2.78 0 0 1-.43-.03l.1-.28a3.26 3.26 0 0 0 .36.03 1 1 0 0 0 .38-.06c.1-.04.16-.1.2-.2.05-.09.07-.2.07-.36a.84.84 0 0 0-.07-.36.38.38 0 0 0-.2-.2.98.98 0 0 0-.38-.05 1.87 1.87 0 0 0-.36.03l.1-.11v2.75h-.33zm1.23 2.9-1-1.3h.36l1.01 1.3zm.8 0v-2.91h.31v1.26h.02l.9-1.26h.36l-.98 1.38.98 1.54h-.36L34.7-21h-.02v1.43zm4-2.9a3.22 3.22 0 0 1 .55-.05c.24 0 .43.03.58.1a.6.6 0 0 1 .32.31c.07.14.1.33.1.57 0 .23-.03.42-.1.57a.63.63 0 0 1-.32.31c-.15.07-.34.1-.58.1a2.68 2.68 0 0 1-.43-.03l.1-.3a2.69 2.69 0 0 0 .36.04c.16 0 .28-.02.38-.07.1-.04.16-.12.2-.22.05-.1.07-.23.07-.4s-.02-.3-.07-.4a.41.41 0 0 0-.2-.22.88.88 0 0 0-.38-.07 2 2 0 0 0-.36.03l.1-.11v2.75h-.33zm2 2.9v-.27h.53v-2.36h-.54v-.28h1.4v.28h-.53v2.36h.53v.28zm1.91 0v-2.91h.52l.7 2.52h.02v-2.52h.32v2.92h-.52l-.7-2.52h-.02v2.52zm2.08 0v-2.91h.32v1.26h.02l.9-1.26h.36l-.98 1.38.98 1.54h-.36L44.7-21h-.02v1.43zm2.6.05a1.76 1.76 0 0 1-.62-.1v-.31l.3.09c.09.02.19.03.29.03.18 0 .32-.04.42-.11.1-.08.15-.2.15-.36a.49.49 0 0 0-.05-.22.57.57 0 0 0-.17-.2 2.13 2.13 0 0 0-.33-.22 3.4 3.4 0 0 1-.4-.27.79.79 0 0 1-.22-.27.89.89 0 0 1-.06-.34c0-.25.07-.43.22-.54.14-.12.37-.18.68-.18a2.46 2.46 0 0 1 .58.07v.85h-.32v-.73l.13.15a2.2 2.2 0 0 0-.4-.05c-.19 0-.33.03-.42.1-.1.07-.14.18-.14.33 0 .09.01.16.05.23a.6.6 0 0 0 .17.2c.08.07.2.14.33.21.17.1.3.2.4.28.1.08.17.18.22.28.04.1.06.2.06.33 0 .25-.07.44-.22.57-.14.12-.36.18-.65.18z"/>
  </g>
</svg>
