<svg xmlns="http://www.w3.org/2000/svg" width="50" height="14.96">
  <g transform="translate(-13.0609,-117.46916)">
    <path fill="#301b80" d="M43.06 132.43v-10h10v10z"/>
    <path fill="#502ca6" d="M33.06 132.43v-10h10v10z"/>
    <path fill="#6035c3" d="M23.06 132.43v-10h10v10z"/>
    <path fill="#1c0f4e" d="M53.06 132.43v-10h10v10z"/>
    <path fill="#7952bf" d="M13.06 132.43v-10h10v10z"/>
    <path fill="#7952bf" d="M23.76 10.04q-.22 0-.52-.05V7.1q.3-.05.52-.05.38 0 .62.14t.35.44q.11.3.11.8v.24q0 .49-.1.8-.12.3-.36.44t-.62.14zm-.26-.34q.07.03.15.04l.16.01q.25 0 .4-.11.17-.12.24-.36.07-.24.07-.64v-.2q0-.4-.07-.64t-.23-.36q-.16-.11-.41-.11l-.16.01q-.08.01-.15.04l.06-.11V9.8zm1.58.3.72-2.92h.4l.72 2.92h-.33l-.58-2.54h-.02L25.41 10zm.37-.8v-.28h1.1v.28Zm1.83-2.11.3-.04.26-.01q.36 0 .58.1.22.08.32.28t.1.52q0 .32-.1.52t-.32.3q-.22.08-.58.08h-.22l-.2-.03.1-.28.18.02.16.01q.24 0 .38-.06.15-.06.21-.2.07-.13.07-.36 0-.22-.07-.36-.06-.13-.2-.2-.15-.05-.39-.05h-.16l-.2.03.1-.11V10h-.32zM28.5 10l-1-1.31h.37L28.88 10zm.8 0V7.08h.32v1.26h.02l.9-1.26h.36l-.98 1.38.98 1.54h-.36l-.9-1.43h-.02V10Zm4.5 0-.72-2.92h.33l.58 2.5h.02l.58-2.5h.33L34.2 10zm1.5 0v-.28h.54V7.36h-.54v-.28h1.4v.28h-.54v2.36h.54V10Zm2.7.04q-.3 0-.5-.13-.18-.14-.26-.44-.08-.3-.08-.81v-.24q0-.5.08-.8.08-.31.27-.44.18-.14.49-.14.3 0 .5.14.18.13.26.43.08.3.08.81v.24q0 .5-.08.8-.08.31-.27.45-.18.13-.49.13zm0-.29q.2 0 .3-.1.12-.1.16-.33.05-.25.05-.68v-.2q0-.43-.05-.67-.04-.25-.15-.34-.11-.1-.31-.1t-.3.1q-.12.1-.17.34-.04.24-.04.67v.2q0 .43.04.68.05.24.16.34.11.1.31.1zm1.32.25V7.08h.33v2.63h1.15V10Zm2 0V7.08h1.4v.28h-1.07v.96h1.03v.28h-1.03v1.12h1.07V10Zm2.52 0V7.37h-.68v-.29h1.68v.29h-.68V10Zm2.06.04q-.16 0-.32-.03-.15-.02-.3-.07v-.31q.15.06.3.09.14.03.29.03.27 0 .42-.11.15-.11.15-.36 0-.12-.05-.22t-.17-.2q-.12-.1-.33-.22-.26-.14-.41-.27-.15-.13-.21-.27-.06-.15-.06-.34 0-.37.21-.54.22-.18.7-.18l.27.02q.15.01.3.05v.85h-.32v-.73l.13.15-.2-.04-.2-.01q-.28 0-.42.1-.14.11-.14.33 0 .13.04.23.06.1.18.2t.33.21q.25.15.4.28.15.13.21.28.07.14.07.33 0 .38-.22.57-.22.18-.65.18z"/>
  </g>
</svg>
