<svg xmlns="http://www.w3.org/2000/svg" width="50" height="14.96">
  <g transform="translate(-13.0611,-157.469)">
    <path fill="#382e31" d="M43.06 172.43v-10h10v10z"/>
    <path fill="#524346" d="M33.06 172.43v-10h10v10z"/>
    <path fill="#695b59" d="M23.06 172.43v-10h10v10z"/>
    <path fill="#201a20" d="M53.06 172.43v-10h10v10z"/>
    <path fill="#7f766f" d="M23.06 172.43v-10h-10v10z"/>
    <path fill="#7f766f" d="M25.82 160.47c-.15 0-.32-.02-.51-.05v-2.9c.2-.04.36-.05.51-.05.26 0 .46.05.62.14.16.1.28.24.35.44.08.2.12.47.12.8v.24c0 .32-.04.59-.12.8a.78.78 0 0 1-.35.44c-.16.1-.36.14-.62.14zm-.25-.34a.82.82 0 0 0 .3.05c.17 0 .3-.04.4-.11.11-.08.2-.2.24-.36.05-.16.07-.38.07-.64v-.2c0-.27-.02-.48-.07-.64a.63.63 0 0 0-.23-.36.67.67 0 0 0-.41-.11 1.03 1.03 0 0 0-.3.05l.06-.11v2.54zm1.57.3.73-2.92h.39l.72 2.92h-.33l-.58-2.55h-.02l-.58 2.55zm.37-.8v-.28h1.1v.28zm1.83-2.11a3.07 3.07 0 0 1 .56-.05c.24 0 .43.03.58.1.15.05.25.15.32.28.07.13.1.3.1.52 0 .21-.03.39-.1.52a.6.6 0 0 1-.32.3 1.6 1.6 0 0 1-.58.08 2.95 2.95 0 0 1-.43-.03l.1-.28a2.8 2.8 0 0 0 .36.03 1 1 0 0 0 .38-.06c.1-.04.16-.1.2-.2.05-.09.07-.2.07-.36a.84.84 0 0 0-.07-.36.38.38 0 0 0-.2-.2.98.98 0 0 0-.38-.05 1.99 1.99 0 0 0-.36.03l.1-.11v2.75h-.33zm1.23 2.9-1-1.3h.36l1.01 1.3zm.8 0v-2.91h.31v1.26h.02l.9-1.26h.36l-.98 1.37.98 1.55h-.36l-.9-1.43h-.02v1.43zm3.91 0v-2.91h.52l.7 2.52h.02v-2.52h.32v2.92h-.52l-.7-2.52h-.02v2.52zm2.1 0v-2.91h1.4v.28h-1.07v.95h1.04v.28H37.7v1.13h1.08v.28zm2.68.05c-.27 0-.46-.07-.6-.2-.12-.13-.18-.34-.18-.62v-2.14h.32v2.1c0 .2.04.35.1.44.08.09.2.13.36.13.17 0 .28-.04.35-.13.08-.09.11-.23.11-.43v-2.11h.32v2.14c0 .28-.06.49-.19.62-.12.13-.32.2-.59.2zm1.84-.04v-2.63h-.68v-.3h1.68v.3h-.67v2.63zm1.44-2.91a3.07 3.07 0 0 1 .56-.05c.24 0 .43.03.58.1.15.05.25.15.32.28.07.13.1.3.1.52 0 .21-.03.39-.1.52a.6.6 0 0 1-.32.3 1.6 1.6 0 0 1-.58.08 2.95 2.95 0 0 1-.43-.03l.1-.28a2.8 2.8 0 0 0 .36.03 1 1 0 0 0 .38-.06c.1-.04.16-.1.2-.2.05-.09.07-.2.07-.36a.84.84 0 0 0-.07-.36.38.38 0 0 0-.2-.2.98.98 0 0 0-.38-.05 1.99 1.99 0 0 0-.36.03l.1-.11v2.75h-.33zm1.23 2.9-1-1.3h.36l1.01 1.3zm.57 0 .73-2.91h.39l.72 2.92h-.33l-.58-2.55h-.02l-.58 2.55zm.37-.8v-.27h1.1v.28zm1.87.8v-2.91h.33v2.63h1.15v.29zm2.58.05a1.73 1.73 0 0 1-.62-.1v-.31a1.8 1.8 0 0 0 .59.12c.18 0 .32-.04.42-.11.1-.08.15-.2.15-.36a.49.49 0 0 0-.05-.22.57.57 0 0 0-.17-.2 2.1 2.1 0 0 0-.33-.22 3.4 3.4 0 0 1-.4-.27.79.79 0 0 1-.22-.27.89.89 0 0 1-.06-.34c0-.25.07-.43.22-.54.14-.12.37-.18.68-.18a2.39 2.39 0 0 1 .58.07v.85h-.32v-.73l.13.15a2.2 2.2 0 0 0-.4-.05c-.19 0-.33.03-.42.1-.1.07-.14.18-.14.33 0 .09.01.16.05.23a.6.6 0 0 0 .17.2c.08.07.2.14.33.21.17.1.3.2.4.28.1.08.17.18.22.27.04.1.06.21.06.34 0 .25-.07.44-.22.57-.14.12-.36.18-.65.18z"/>
  </g>
</svg>
