<svg xmlns="http://www.w3.org/2000/svg" width="50" height="14.96">
  <g transform="translate(-13.0611,-177.469)">
    <path fill="#303030" d="M43.06 192.43v-10h10v10z"/>
    <path fill="#474747" d="M33.06 192.43v-10h10v10z"/>
    <path fill="#5e5e5e" d="M23.06 192.43v-10h10v10z"/>
    <path fill="#1c1c1c" d="M53.06 192.43v-10h10v10z"/>
    <path fill="#787878" d="M23.06 192.43v-10h-10v10z"/>
    <path fill="#787878" d="M28.82 180.47c-.15 0-.32-.02-.51-.05v-2.9c.2-.04.36-.05.51-.05.26 0 .46.05.62.14.16.1.28.24.35.44.08.2.12.47.12.8v.24c0 .32-.04.59-.12.8a.78.78 0 0 1-.35.44c-.16.1-.36.14-.62.14zm-.25-.34a.82.82 0 0 0 .3.05c.17 0 .3-.04.4-.11.11-.08.2-.2.24-.36.05-.16.07-.38.07-.64v-.2c0-.27-.02-.48-.07-.64a.63.63 0 0 0-.23-.36.67.67 0 0 0-.41-.11 1.03 1.03 0 0 0-.3.05l.06-.11v2.54zm1.57.3.73-2.92h.39l.72 2.92h-.33l-.58-2.55h-.02l-.58 2.55zm.37-.8v-.28h1.1v.28zm1.83-2.11a3.07 3.07 0 0 1 .56-.05c.24 0 .43.03.58.1.15.05.25.15.32.28.07.13.1.3.1.52 0 .21-.03.39-.1.52a.6.6 0 0 1-.32.3 1.6 1.6 0 0 1-.58.08 2.95 2.95 0 0 1-.43-.03l.1-.28a2.8 2.8 0 0 0 .36.03 1 1 0 0 0 .38-.06c.1-.04.16-.1.2-.2.05-.09.07-.2.07-.36a.84.84 0 0 0-.07-.36.38.38 0 0 0-.2-.2.98.98 0 0 0-.38-.05 1.99 1.99 0 0 0-.36.03l.1-.11v2.75h-.33zm1.23 2.9-1-1.3h.36l1.01 1.3zm.8 0v-2.91h.31v1.26h.02l.9-1.26h.36l-.98 1.37.98 1.55h-.36l-.9-1.43h-.02v1.43zm4.9.05c-.7 0-1.06-.46-1.06-1.38v-.24c0-.47.09-.81.27-1.04.18-.23.45-.34.82-.34l.24.01.23.04v.3a2.1 2.1 0 0 0-.45-.06c-.27 0-.47.08-.6.26-.12.18-.18.46-.18.85v.2c0 .37.06.65.17.83.12.19.3.28.54.28a1.07 1.07 0 0 0 .4-.08l-.12.15v-1.23h-.6v-.27h.92v1.64a2.44 2.44 0 0 1-.58.08zm1.07-2.95a3.07 3.07 0 0 1 .56-.05c.24 0 .43.03.58.1.15.05.25.15.32.28.07.13.1.3.1.52 0 .21-.03.39-.1.52a.6.6 0 0 1-.32.3 1.6 1.6 0 0 1-.58.08 2.95 2.95 0 0 1-.43-.03l.1-.28a2.8 2.8 0 0 0 .36.03 1 1 0 0 0 .38-.06c.1-.04.16-.1.2-.2.05-.09.07-.2.07-.36a.84.84 0 0 0-.07-.36.38.38 0 0 0-.2-.2.98.98 0 0 0-.38-.05 1.99 1.99 0 0 0-.36.03l.1-.11v2.75h-.33zm1.23 2.9-1-1.3h.36l1.01 1.3zm.57 0 .73-2.91h.39l.72 2.92h-.33l-.58-2.55h-.02l-.58 2.55zm.37-.8v-.27h1.1v.28zm2.39.8v-1.13l-.78-1.78h.33l.6 1.43h.02l.6-1.43H46l-.77 1.78v1.14zm2.06.05a1.73 1.73 0 0 1-.62-.1v-.31a1.8 1.8 0 0 0 .59.12c.18 0 .32-.04.42-.11.1-.08.15-.2.15-.36a.49.49 0 0 0-.05-.22.57.57 0 0 0-.17-.2 2.1 2.1 0 0 0-.33-.22 3.4 3.4 0 0 1-.4-.27.79.79 0 0 1-.22-.27.89.89 0 0 1-.06-.34c0-.25.07-.43.22-.54.14-.12.37-.18.68-.18a2.39 2.39 0 0 1 .58.07v.85h-.32v-.73l.13.15a2.2 2.2 0 0 0-.4-.05c-.19 0-.33.03-.42.1-.1.07-.14.18-.14.33 0 .09.01.16.05.23a.6.6 0 0 0 .17.2c.08.07.2.14.33.21.17.1.3.2.4.28.1.08.17.18.22.27.04.1.06.21.06.34 0 .25-.07.44-.22.57-.14.12-.36.18-.65.18z"/>
  </g>
</svg>
