<svg xmlns="http://www.w3.org/2000/svg" width="50" height="14.96">
  <g transform="translate(-9.999687,-145.04) translate(56.938587,27.570863)">
    <path fill="#f1e3fe" d="M-26.94 132.43v-10h-10v10z"/>
    <path fill="#d9bced" d="M-16.94 132.43v-10h-10v10z"/>
    <path fill="#cbade9" d="M-6.94 132.43v-10h-10v10z"/>
    <path fill="#8a64c0" d="M-6.94 132.43v-10h10v10z"/>
    <path fill="#f8f1fc" d="M-36.94 132.43v-10h-10v10z"/>
    <path fill="#8a64c0" d="M22.32 10V7.08h.33v2.63h1.15V10Zm1.98 0v-.28h.54V7.36h-.54v-.28h1.4v.28h-.54v2.36h.54V10Zm2.9.04q-1.05 0-1.05-1.38v-.24q0-.7.27-1.04.27-.34.82-.34l.24.02q.12 0 .23.03v.3l-.23-.05-.22-.01q-.41 0-.6.26-.18.27-.18.85v.2q0 .56.17.84.18.27.54.27l.2-.02.2-.06-.12.15V8.6h-.6v-.27h.92v1.64q-.13.04-.29.06l-.3.02zm1.02-.04V7.08h.32v1.23h.92V7.08h.32V10h-.32V8.6h-.92V10Zm2.62 0V7.37h-.68v-.29h1.68v.29h-.68V10Zm3.96 0-.72-2.92h.33l.58 2.5h.02l.58-2.5h.33L35.2 10zm1.5 0v-.28h.54V7.36h-.54v-.28h1.4v.28h-.54v2.36h.54V10Zm2.7.04q-.3 0-.5-.13-.18-.14-.26-.44-.08-.3-.08-.81v-.24q0-.5.08-.8.08-.31.27-.44.18-.14.49-.14.3 0 .5.14.18.13.26.43.08.3.08.81v.24q0 .5-.08.8-.08.31-.27.45-.18.13-.49.13zm0-.29q.2 0 .3-.1.12-.1.16-.33.05-.25.05-.68v-.2q0-.43-.05-.67-.04-.25-.15-.34-.11-.1-.31-.1t-.3.1q-.12.1-.17.34-.04.24-.04.67v.2q0 .43.04.68.05.24.16.34.11.1.31.1zm1.32.25V7.08h.33v2.63h1.15V10Zm2 0V7.08h1.4v.28h-1.07v.96h1.03v.28h-1.03v1.12h1.07V10Zm2.52 0V7.37h-.68v-.29h1.68v.29h-.68V10Zm2.06.04q-.16 0-.32-.03-.15-.02-.3-.07v-.31q.15.06.3.09.14.03.29.03.27 0 .42-.11.15-.11.15-.36 0-.12-.05-.22t-.17-.2q-.12-.1-.33-.22-.26-.14-.41-.27-.15-.13-.21-.27-.06-.15-.06-.34 0-.37.21-.54.22-.18.7-.18l.27.02q.15.01.3.05v.85h-.32v-.73l.13.15-.2-.04-.2-.01q-.28 0-.42.1-.14.11-.14.33 0 .13.04.23.06.1.18.2t.33.21q.25.15.4.28.15.13.21.28.07.14.07.33 0 .38-.22.57-.22.18-.65.18z" />
  </g>
</svg>
