<svg xmlns="http://www.w3.org/2000/svg" width="50" height="14.96">
  <g transform="translate(-10.000387,-5.039963) translate(56.938587,27.570863)">
    <path fill="#f75682" d="M-16.94-7.57v-10h10v10z"/>
    <path fill="#fa9db0" d="M-26.94-7.57v-10h10v10z"/>
    <path fill="#ffe1e6" d="M-36.94-7.57v-10h10v10z"/>
    <path fill="#fff4f6" d="M-46.94-7.57v-10h10v10z"/>
    <path fill="#ec135b" d="M-6.94-7.57v-10h10v10z"/>
    <path fill="#ec135b" d="M-32.85-19.57v-2.92h.33v2.63h1.15v.29zm1.98 0v-.28h.53v-2.36h-.53v-.28h1.4v.28h-.54v2.36h.54v.28zm2.9.04c-.7 0-1.05-.46-1.05-1.38v-.24c0-.46.08-.81.26-1.04.18-.23.46-.34.82-.34.08 0 .16 0 .24.02.09 0 .16.02.24.03v.3a2.1 2.1 0 0 0-.46-.06c-.27 0-.47.09-.6.26-.12.18-.18.46-.18.85v.2c0 .37.06.65.18.84.12.18.3.27.54.27a1.04 1.04 0 0 0 .4-.08l-.12.15v-1.23h-.6v-.27h.92v1.64a2.38 2.38 0 0 1-.58.08zm1.02-.04v-2.92h.32v1.23h.92v-1.23h.32v2.92h-.32v-1.4h-.92v1.4zm2.61 0v-2.63H-25v-.3h1.68v.3H-24v2.63zm3.47-2.91a3.22 3.22 0 0 1 .55-.05c.25 0 .44.03.59.1.14.06.25.17.32.31.06.14.1.33.1.57 0 .23-.04.42-.1.57a.63.63 0 0 1-.32.31c-.15.07-.34.1-.59.1a2.68 2.68 0 0 1-.42-.03l.1-.3a2.69 2.69 0 0 0 .35.04.8.8 0 0 0 .38-.07c.1-.04.17-.12.2-.22.05-.1.07-.23.07-.4s-.02-.3-.06-.4a.41.41 0 0 0-.2-.22.88.88 0 0 0-.39-.07 2 2 0 0 0-.36.03l.1-.11v2.75h-.32zm2 2.9v-.27h.53v-2.36h-.53v-.28h1.4v.28h-.54v2.36h.54v.28zm1.92 0v-2.91h.52l.7 2.52h.02v-2.52h.32v2.92h-.52l-.7-2.52h-.02v2.52zm2.08 0v-2.91h.32v1.26h.01l.9-1.26h.37l-.98 1.38.98 1.54h-.36l-.9-1.43h-.02v1.43zm2.6.05a1.76 1.76 0 0 1-.62-.1v-.31l.29.09.3.03c.18 0 .32-.04.42-.11.1-.08.15-.2.15-.36a.49.49 0 0 0-.05-.22.57.57 0 0 0-.17-.2 2.13 2.13 0 0 0-.33-.22 2.8 2.8 0 0 1-.41-.27.79.79 0 0 1-.21-.27.89.89 0 0 1-.06-.34c0-.25.07-.43.21-.54.15-.12.38-.18.69-.18a2.46 2.46 0 0 1 .58.07v.85h-.32v-.73l.13.15a2.2 2.2 0 0 0-.4-.05c-.2 0-.33.03-.43.1-.09.07-.14.18-.14.33 0 .09.02.16.05.23.04.07.1.13.17.2.09.07.2.14.34.21.17.1.3.2.4.28.1.08.17.18.21.28.04.1.07.2.07.33 0 .25-.08.44-.22.57-.15.12-.37.18-.66.18z"/>
  </g>
</svg>
