<svg xmlns="http://www.w3.org/2000/svg" width="50" height="14.96">
  <g transform="translate(-9.999687,-205.03986) translate(56.938587,27.570863)">
    <path fill="#e8e8e8" d="M-26.94 192.43v-10h-10v10z"/>
    <path fill="#c7c7c7" d="M-16.94 192.43v-10h-10v10z"/>
    <path fill="#bababa" d="M-6.94 192.43v-10h-10v10z"/>
    <path fill="#919191" d="M3.06 192.43v-10h-10v10z"/>
    <path fill="#f5f5f5" d="M-36.94 192.43v-10h-10v10z"/>
    <path fill="#919191" d="M-32.62 180.43v-2.92h.33v2.63h1.15v.29zm1.98 0v-.28h.54v-2.36h-.54v-.28h1.4v.28h-.53v2.36h.53v.28zm2.9.04c-.7 0-1.05-.46-1.05-1.38v-.24c0-.47.09-.81.27-1.04.18-.23.45-.34.82-.34l.24.01.23.04v.3a2.1 2.1 0 0 0-.45-.06c-.27 0-.47.08-.6.26-.12.18-.18.46-.18.85v.2c0 .37.06.65.17.83.12.19.3.28.54.28a1.07 1.07 0 0 0 .4-.08l-.12.15v-1.23h-.6v-.27h.92v1.64a2.44 2.44 0 0 1-.58.08zm1.02-.04v-2.92h.32v1.23h.92v-1.23h.32v2.92h-.32v-1.4h-.92v1.4zm2.62 0v-2.63h-.68v-.3h1.68v.3h-.67v2.63zm4.37.04c-.7 0-1.06-.46-1.06-1.38v-.24c0-.47.09-.81.27-1.04.18-.23.45-.34.82-.34l.24.01.23.04v.3a2.1 2.1 0 0 0-.45-.06c-.27 0-.47.08-.6.26-.12.18-.18.46-.18.85v.2c0 .37.06.65.17.83.12.19.3.28.54.28a1.07 1.07 0 0 0 .4-.08l-.12.15v-1.23h-.6v-.27h.92v1.64a2.44 2.44 0 0 1-.58.08zm1.07-2.95a3.06 3.06 0 0 1 .56-.05c.24 0 .43.03.58.1.15.05.25.15.32.28.07.13.1.3.1.52 0 .22-.03.39-.1.52a.6.6 0 0 1-.32.3 1.6 1.6 0 0 1-.58.08 2.94 2.94 0 0 1-.43-.03l.1-.28a2.8 2.8 0 0 0 .36.03 1 1 0 0 0 .38-.06c.1-.04.16-.1.2-.2.05-.09.07-.2.07-.36a.84.84 0 0 0-.07-.36.38.38 0 0 0-.2-.2.98.98 0 0 0-.38-.05 1.99 1.99 0 0 0-.36.03l.1-.11v2.75h-.33zm1.23 2.9-1-1.3h.36l1.01 1.3zm.57 0 .73-2.91h.39l.72 2.92h-.33l-.58-2.55h-.02l-.58 2.55zm.37-.8v-.27h1.1v.28zm2.39.8v-1.13l-.78-1.78h.33l.6 1.44h.02l.6-1.44h.33l-.77 1.78v1.14zm2.06.05a1.73 1.73 0 0 1-.62-.1v-.31a1.8 1.8 0 0 0 .59.12c.18 0 .32-.04.42-.11.1-.08.15-.2.15-.36a.49.49 0 0 0-.05-.22.57.57 0 0 0-.17-.2 2.11 2.11 0 0 0-.33-.22 3.4 3.4 0 0 1-.4-.27.79.79 0 0 1-.22-.27.89.89 0 0 1-.06-.34c0-.25.07-.43.22-.54.14-.12.37-.18.68-.18a2.39 2.39 0 0 1 .58.07v.85h-.32v-.73l.13.15a2.2 2.2 0 0 0-.4-.05c-.19 0-.33.03-.42.1-.1.07-.14.18-.14.33 0 .09.01.16.05.23a.6.6 0 0 0 .17.2c.08.07.2.14.33.21.17.1.3.2.4.28.1.08.17.18.22.28.04.1.06.2.06.33 0 .25-.07.44-.22.57-.14.12-.36.18-.65.18z"/>
  </g>
</svg>
