<svg xmlns="http://www.w3.org/2000/svg" width="50" height="14.96">
  <g transform="translate(-10.000387,-25.039983) translate(56.938587,27.570863)">
    <path fill="#ff5354" d="M-6.94 12.43v-10h10v10Z"/>
    <path fill="#fde3e0" d="M-36.94 12.43v-10h10v10Z"/>
    <path fill="#fff4f2" d="M-46.94 12.43v-10h10v10Z"/>
    <path fill="#f5a298" d="M-16.94 12.43v-10h10v10Z"/>
    <path fill="#f5b7b1" d="M-26.94 12.43v-10h10v10Z"/>
    <path fill="#ff5354" d="M-31.62.43V-2.5h.33V.14h1.15v.29zm1.98 0V.15h.54v-2.36h-.54v-.28h1.4v.28h-.53V.15h.53v.28zm2.9.04c-.7 0-1.05-.46-1.05-1.38v-.24c0-.46.09-.81.27-1.04.18-.23.45-.34.82-.34.07 0 .15 0 .24.02.08 0 .16.02.23.03v.3a2.1 2.1 0 0 0-.45-.06c-.27 0-.47.09-.6.26-.12.18-.18.46-.18.85v.2c0 .37.06.65.17.84.12.18.3.27.54.27a1.04 1.04 0 0 0 .4-.08l-.12.15V-.98h-.6v-.27h.92V.39a2.37 2.37 0 0 1-.58.08zm1.02-.04V-2.5h.32v1.23h.92V-2.5h.32V.43h-.32v-1.4h-.92v1.4zm2.62 0V-2.2h-.68v-.3h1.68v.3h-.67V.43zm3.44-2.91a3.27 3.27 0 0 1 .56-.05c.24 0 .43.03.58.1.15.05.25.15.32.28.07.13.1.3.1.52 0 .22-.03.39-.1.52a.6.6 0 0 1-.32.3 1.6 1.6 0 0 1-.58.08 2.76 2.76 0 0 1-.43-.03l.1-.28a3.3 3.3 0 0 0 .36.03 1 1 0 0 0 .38-.06c.1-.04.16-.1.2-.2.05-.09.07-.2.07-.36a.84.84 0 0 0-.07-.36.38.38 0 0 0-.2-.2.98.98 0 0 0-.38-.05 1.86 1.86 0 0 0-.36.03l.1-.11V.43h-.33zm1.23 2.9-1-1.3h.36l1.01 1.3zm.82 0v-2.91h1.4v.28h-1.08v.96h1.04v.28h-1.04V.15h1.08v.28zm2.43.05c-.15 0-.32-.02-.51-.05v-2.9c.2-.03.36-.05.51-.05.26 0 .46.05.62.14.16.1.28.24.35.44.08.2.12.47.12.8v.24c0 .32-.04.59-.12.8a.78.78 0 0 1-.35.44c-.16.1-.36.14-.62.14zm-.25-.34a.81.81 0 0 0 .3.05c.17 0 .3-.04.4-.11.11-.08.2-.2.24-.36.05-.16.07-.38.07-.64v-.2c0-.26-.02-.48-.07-.64a.63.63 0 0 0-.23-.36.67.67 0 0 0-.41-.11 1.03 1.03 0 0 0-.3.05l.06-.11V.24zm2.39.34a1.76 1.76 0 0 1-.62-.1V.06l.3.09c.09.02.19.03.29.03.18 0 .32-.04.42-.11.1-.08.15-.2.15-.36a.49.49 0 0 0-.05-.22.57.57 0 0 0-.17-.2 2.13 2.13 0 0 0-.33-.22 2.8 2.8 0 0 1-.4-.27.79.79 0 0 1-.22-.27.89.89 0 0 1-.06-.34c0-.25.07-.43.22-.54.14-.12.37-.18.68-.18a2.46 2.46 0 0 1 .58.07v.85h-.32v-.73l.13.15a2.2 2.2 0 0 0-.4-.05c-.19 0-.33.03-.42.1-.1.07-.14.18-.14.33 0 .09.01.16.05.23a.6.6 0 0 0 .17.2c.08.07.2.14.33.21.17.1.3.2.4.28.1.08.17.18.22.28.04.1.06.2.06.33 0 .25-.07.44-.22.57-.14.12-.36.18-.65.18z"/>
  </g>
</svg>
