<svg xmlns="http://www.w3.org/2000/svg" width="50" height="14.96">
  <g transform="translate(-10.000387,-65.039963) translate(56.938587,27.570863)">
    <path fill="#fcc419" d="M-6.94 52.43v-10h10v10z"/>
    <path fill="#fff3bf" d="M-36.94 52.43v-10h10v10z"/>
    <path fill="#ffe066" d="M-16.94 52.43v-10h10v10z"/>
    <path fill="#ffec99" d="M-26.94 52.43v-10h10v10z"/>
    <path fill="#fff8e1" d="M-46.94 52.43v-10h10v10z"/>
    <path fill="#fcc419" d="M-34.62 40.43V37.5h.33v2.63h1.15v.29zm1.98 0v-.28h.54v-2.36h-.54v-.28h1.4v.28h-.53v2.36h.53v.28zm2.9.04c-.7 0-1.05-.46-1.05-1.38v-.24c0-.46.09-.81.27-1.04.18-.23.45-.34.82-.34.07 0 .15 0 .24.02.08 0 .16.02.23.03v.3a2.1 2.1 0 0 0-.45-.06c-.27 0-.47.09-.6.26-.12.18-.18.46-.18.85v.2c0 .37.06.65.17.84.12.18.3.27.54.27a1.04 1.04 0 0 0 .4-.08l-.12.15v-1.23h-.6v-.27h.92v1.64a2.38 2.38 0 0 1-.58.08zm1.02-.04V37.5h.32v1.23h.92V37.5h.32v2.92h-.32v-1.4h-.92v1.4zm2.62 0V37.8h-.68v-.3h1.68v.3h-.67v2.63zm4 0v-1.14l-.78-1.78h.33l.6 1.44h.02l.6-1.44h.33l-.77 1.78v1.14zm1.49 0V37.5h1.4v.28h-1.08v.96h1.04v.28h-1.04v1.12h1.08v.28zm2 0V37.5h.32v2.63h1.15v.29zm2 0V37.5h.32v2.63h1.15v.29zm2.67.04a.83.83 0 0 1-.5-.13.78.78 0 0 1-.26-.44c-.05-.2-.08-.47-.08-.81v-.24c0-.34.03-.6.08-.8.06-.21.15-.36.27-.44a.8.8 0 0 1 .5-.14c.2 0 .36.04.48.14.13.08.21.23.27.43.05.2.08.47.08.8v.25c0 .34-.03.6-.08.8a.77.77 0 0 1-.27.45.83.83 0 0 1-.49.13zm0-.29c.13 0 .24-.03.3-.1.08-.06.14-.17.17-.33.03-.17.04-.4.04-.68v-.2c0-.29-.01-.51-.04-.67-.03-.17-.09-.28-.16-.34-.07-.07-.18-.1-.3-.1a.45.45 0 0 0-.32.1c-.07.06-.12.17-.16.34-.03.16-.04.38-.04.67v.2c0 .29.01.51.04.68.04.16.09.27.16.34.08.06.18.1.31.1zm1.3.25-.26-2.92h.33l.16 2.5h.02l.2-2.1h.5l.2 2.1h.02l.16-2.5h.33l-.26 2.92h-.46l-.23-2.15h-.02l-.22 2.15zm2.6.04a1.76 1.76 0 0 1-.62-.1v-.31l.3.09c.09.02.19.03.29.03.18 0 .32-.04.42-.11.1-.08.15-.2.15-.36a.49.49 0 0 0-.05-.22.57.57 0 0 0-.17-.2 2.13 2.13 0 0 0-.33-.22 2.8 2.8 0 0 1-.4-.27.79.79 0 0 1-.22-.27.89.89 0 0 1-.06-.34c0-.25.07-.43.22-.54.14-.12.37-.18.68-.18a2.46 2.46 0 0 1 .58.07v.85h-.32v-.73l.13.15a2.2 2.2 0 0 0-.4-.05c-.19 0-.33.03-.42.1-.1.07-.14.18-.14.33 0 .09.01.16.05.23a.6.6 0 0 0 .17.2c.08.07.2.14.33.21.17.1.3.2.4.28.1.08.17.18.22.28.04.1.06.2.06.33 0 .25-.07.44-.22.57-.14.12-.36.18-.65.18z"/>
  </g>
</svg>
