<svg xmlns="http://www.w3.org/2000/svg" width="50" height="14.96">
  <g transform="translate(-9.999687,-85.039963) translate(56.938587,27.570863)">
    <path fill="#d3eee0" d="M-26.94 72.43v-10h-10v10z"/>
    <path fill="#88d5b8" d="M-16.94 72.43v-10h-10v10z"/>
    <path fill="#72c6aa" d="M-6.94 72.43v-10h-10v10z"/>
    <path fill="#4a9f8a" d="M-6.94 72.43v-10h10v10z"/>
    <path fill="#edf8f2" d="M-36.94 72.43v-10h-10v10z"/>
    <path fill="#4a9f8a" d="M-32.62 60.43V57.5h.33v2.63h1.15v.29zm1.98 0v-.28h.54v-2.36h-.54v-.28h1.4v.28h-.53v2.36h.53v.28zm2.9.04c-.7 0-1.05-.46-1.05-1.38v-.24c0-.46.09-.81.27-1.04.18-.23.45-.34.82-.34.07 0 .15 0 .24.02.08 0 .16.02.23.03v.3a2.1 2.1 0 0 0-.45-.06c-.27 0-.47.09-.6.26-.12.18-.18.46-.18.85v.2c0 .37.06.65.17.84.12.18.3.27.54.27a1.04 1.04 0 0 0 .4-.08l-.12.15v-1.23h-.6v-.27h.92v1.64a2.38 2.38 0 0 1-.58.08zm1.02-.04V57.5h.32v1.23h.92V57.5h.32v2.92h-.32v-1.4h-.92v1.4zm2.62 0V57.8h-.68v-.3h1.68v.3h-.67v2.63zm4 0V57.8h-.68v-.3h1.68v.3h-.67v2.63zm1.49 0V57.5h1.4v.28h-1.08v.96h1.04v.28h-1.04v1.12h1.08v.28zm1.75 0 .73-2.92h.39l.72 2.92h-.33l-.58-2.54h-.02l-.58 2.54zm.37-.8v-.28h1.1v.28zm1.87.8V57.5h.33v2.63h1.15v.29zm2.58.04a1.76 1.76 0 0 1-.62-.1v-.31l.3.09c.09.02.19.03.29.03.18 0 .32-.04.42-.11.1-.08.15-.2.15-.36a.49.49 0 0 0-.05-.22.57.57 0 0 0-.17-.2 2.13 2.13 0 0 0-.33-.22 2.8 2.8 0 0 1-.4-.27.79.79 0 0 1-.22-.27.89.89 0 0 1-.06-.34c0-.25.07-.43.22-.54.14-.12.37-.18.68-.18a2.46 2.46 0 0 1 .58.07v.85h-.32v-.73l.13.15a2.2 2.2 0 0 0-.4-.05c-.19 0-.33.03-.42.1-.1.07-.14.18-.14.33 0 .09.01.16.05.23a.6.6 0 0 0 .17.2c.08.07.2.14.33.21.17.1.3.2.4.28.1.08.17.18.22.28.04.1.06.2.06.33 0 .25-.07.44-.22.57-.14.12-.36.18-.65.18z"/>
  </g>
</svg>
