<svg xmlns="http://www.w3.org/2000/svg" width="50" height="14.96">
  <g transform="translate(-9.999687,-125.03996) translate(56.938587,27.570863)">
    <path fill="#d4e8fd" d="M-26.94 112.43v-10h-10v10z"/>
    <path fill="#a7caed" d="M-16.94 112.43v-10h-10v10z"/>
    <path fill="#93bce6" d="M-6.94 112.43v-10h-10v10z"/>
    <path fill="#487ab3" d="M-6.94 112.43v-10h10v10z"/>
    <path fill="#ebf4fd" d="M-36.94 112.43v-10h-10v10z"/>
    <path fill="#487ab3" d="M-32.62 100.43V97.5h.33v2.63h1.15v.29zm1.98 0v-.28h.54v-2.36h-.54v-.28h1.4v.28h-.53v2.36h.53v.28zm2.9.04c-.7 0-1.05-.46-1.05-1.38v-.24c0-.46.09-.81.27-1.04.18-.23.45-.34.82-.34.07 0 .15 0 .24.02.08 0 .16.02.23.03v.3a2.1 2.1 0 0 0-.45-.06c-.27 0-.47.09-.6.26-.12.18-.18.46-.18.85v.2c0 .37.06.65.17.84.12.18.3.27.54.27a1.07 1.07 0 0 0 .4-.08l-.12.15v-1.23h-.6v-.27h.92v1.64a2.44 2.44 0 0 1-.58.08zm1.02-.04V97.5h.32v1.23h.92V97.5h.32v2.92h-.32v-1.4h-.92v1.4zm2.62 0V97.8h-.68v-.3h1.68v.3h-.67v2.63zm4 .04a3.46 3.46 0 0 1-.58-.05v-2.9a3.45 3.45 0 0 1 .59-.05c.31 0 .55.06.7.18.16.13.24.31.24.56 0 .16-.04.3-.1.4a.58.58 0 0 1-.3.25v.01a.6.6 0 0 1 .36.25c.07.11.11.27.11.47 0 .29-.08.51-.25.66-.17.15-.42.22-.76.22zm-.34-.34a1.45 1.45 0 0 0 .39.05c.22 0 .38-.05.48-.14.11-.1.16-.25.16-.45s-.05-.34-.16-.43c-.1-.1-.27-.14-.5-.14h-.45v-.27h.42c.21 0 .37-.04.47-.12.1-.09.15-.22.15-.4 0-.16-.05-.28-.14-.36a.74.74 0 0 0-.43-.11 1.55 1.55 0 0 0-.39.05l.08-.13v2.58zm1.82.3V97.5h.33v2.63h1.15v.29zm2.68.04c-.27 0-.46-.07-.6-.2-.12-.13-.18-.34-.18-.62V97.5h.32v2.1c0 .2.04.35.1.44.08.09.2.13.36.13.17 0 .28-.04.35-.13.08-.09.11-.23.11-.43V97.5h.32v2.14c0 .28-.06.49-.19.62-.12.13-.32.2-.59.2zm1.33-.04V97.5h1.4v.28h-1.08v.96h1.04v.28h-1.04v1.12h1.08v.28zm2.57.04a1.73 1.73 0 0 1-.62-.1v-.31a1.8 1.8 0 0 0 .59.12c.18 0 .32-.04.42-.11.1-.08.15-.2.15-.36a.49.49 0 0 0-.05-.22.57.57 0 0 0-.17-.2 2.13 2.13 0 0 0-.33-.22 2.8 2.8 0 0 1-.4-.27.79.79 0 0 1-.22-.27.89.89 0 0 1-.06-.34c0-.25.07-.43.22-.54.14-.12.37-.18.68-.18a2.46 2.46 0 0 1 .58.07v.85h-.32v-.73l.13.15a2.2 2.2 0 0 0-.4-.05c-.19 0-.33.03-.42.1-.1.07-.14.18-.14.33 0 .09.01.16.05.23a.6.6 0 0 0 .17.2c.08.07.2.14.33.21.17.1.3.2.4.28.1.08.17.18.22.28.04.1.06.2.06.33 0 .25-.07.44-.22.57-.14.12-.36.18-.65.18z"/>
  </g>
</svg>
