<svg xmlns="http://www.w3.org/2000/svg" width="1200" height="1200">
  <path fill="#88d5b8" d="M0 0v1200h1200V0"/>
  <path fill="#f5a298" d="M55.9-.4c18 59 80-17 13 0Zm102 0c38 23 68-8 15 0Zm162 0c-1 47 57 52 50 0Zm136 0c18 59 80-17 13 0Zm102 0c38 23 68-8 15 0Zm162 0c-1 47 57 52 50 0Zm136 0c18 59 80-17 13 0Zm102 0c38 23 68-8 15 0Zm162 0c-1 47 57 52 50 0Zm-865 8c-33 16-5 70 20 23 27-20-5-20-20-23Zm400 0c-33 16-5 70 20 23 27-20-5-20-20-23Zm400 0c-33 16-5 70 20 23 27-20-5-20-20-23Zm-1029 15c-59 26 55 23 0 0Zm400 0c-59 26 55 23 0 0Zm400 0c-59 26 55 23 0 0Zm-507 17c-72 9 30 73 12 11l-9-10Zm400 0c-72 9 30 73 12 11l-9-10Zm400 0c-72 9 30 73 12 11l-9-10Zm-937 13c-52 2 12 87 18 25 0-10-6-25-18-25Zm400 0c-52 2 12 87 18 25 0-10-6-25-18-25Zm400 0c-52 2 12 87 18 25 0-10-6-25-18-25Zm-901 18c-71 42 67 45 0 0Zm400 0c-71 42 67 45 0 0Zm400 0c-71 42 67 45 0 0Zm-481 16c-64-1-10 74 18 30 9-16-10-24-18-30Zm400 0c-64-1-10 74 18 30 9-16-10-24-18-30Zm400 0c-58-9-16 70 0 33Zm-1200 3c-10 30 16 59 18 12a20 20 0 0 0-18-12Zm269 3c-61 11 18 83 27 30-9-10-11-29-27-30Zm400 0c-61 11 18 83 27 30-9-10-11-29-27-30Zm400 0c-61 11 18 83 27 30-9-10-11-29-27-30Zm-907 39c-72 22 60 122 51 40-7-20-28-39-51-40Zm400 0c-72 22 60 122 51 40-7-20-28-39-51-40Zm400 0c-72 22 60 122 51 40-7-20-28-39-51-40Zm-614 10c-51 31 44 90 29 29-7-10-15-26-29-29Zm400 0c-51 31 44 90 29 29-7-10-15-26-29-29Zm400 0c-51 31 44 90 29 29-7-10-15-26-29-29Zm-1117 24c-61 6-9 93 23 30 13-15-8-32-23-30Zm400 0c-61 6-9 93 23 30 13-15-8-32-23-30Zm400 0c-61 6-9 93 23 30 13-15-8-32-23-30Zm-555 14c-60 1 9 118 15 40 6-16 7-40-15-40Zm400 0c-60 1 9 118 15 40 6-16 7-40-15-40Zm400 0c-60 1 9 118 15 40 6-16 7-40-15-40Zm-964 28c-29 0-81 54-20 42 14 1 44-39 20-42Zm400 0c-29 0-81 54-20 42 14 1 44-39 20-42Zm400 0c-29 0-81 54-20 42 14 1 44-39 20-42Zm-562 18c-80 17 30 60 10 2Zm400 0c-80 17 30 60 10 2Zm400 0c-80 17 30 60 10 2Zm-929 9c-49 28 31 57 11 6-3-4-7-4-11-6Zm400 0c-49 28 31 57 11 6l-5-5Zm400 0c-49 28 31 57 11 6l-5-5Zm-1021 23c0 21-8 78 23 36 7-16-5-36-23-36Zm400 0c-78 30 53 85 18 8l-8-6Zm400 0c-78 30 53 85 18 8l-8-6Zm400 0c-60 17 17 83 0 15Zm-961 25c-41-7-76 56-14 28 18 5 40-23 14-28Zm400 0c-41-7-76 56-14 28 18 5 40-23 14-28Zm400 0c-41-7-76 56-14 28 18 5 40-23 14-28Zm-983 7c-46 15 9 80 15 24 0-10-4-23-15-24Zm400 0c-46 15 9 80 15 24 0-10-4-23-15-24Zm400 0c-46 15 9 80 15 24 0-10-4-23-15-24Zm-721 1c-58 15 27 70 18 12a20 20 0 0 0-18-12Zm400 0c-58 15 27 70 18 12a20 20 0 0 0-18-12Zm400 0c-58 15 27 70 18 12a20 20 0 0 0-18-12Zm-620 7c-70 20 31 92 26 20-2-12-14-20-26-20Zm400 0c-70 20 31 92 26 20-2-12-14-20-26-20Zm400 0c-70 20 31 92 26 20-2-12-14-20-26-20Zm-865 32c-30 23 60 90 32 30-7-13-17-26-32-30Zm400 0c-30 23 60 90 32 30-7-13-17-26-32-30Zm400 0c-30 23 60 90 32 30-7-13-17-26-32-30Zm-855 20c-44-4-78 61-20 59 38 22 62-62 20-60Zm400 0c-44-4-78 61-20 59 38 22 62-62 20-60Zm400 0c-44-4-78 61-20 59 38 22 62-62 20-60Zm-914 25c-79 0 11 88 25 25-23 7-2-25-25-25Zm264 0c-63 6 14 113 24 37 5-16-4-38-24-37Zm136 0c-79 0 11 88 25 25-23 7-2-25-25-25Zm264 0c-63 6 14 113 24 37 5-16-4-38-24-37Zm136 0c-79 0 11 88 25 25-23 7-2-25-25-25Zm264 0c-63 6 14 113 24 37 5-16-4-38-24-37Zm-890 33c-33 16-5 70 20 23 27-20-5-20-20-23Zm400 0c-33 16-5 70 20 23 27-20-5-20-20-23Zm400 0c-33 16-5 70 20 23 27-20-5-20-20-23Zm-1029 15c-59 26 55 23 0 0Zm400 0c-59 26 55 23 0 0Zm400 0c-59 26 55 23 0 0Zm-507 17c-72 9 30 73 12 11l-9-10Zm400 0c-72 9 30 73 12 11l-9-10Zm400 0c-72 9 30 73 12 11l-9-10Zm-937 13c-52 2 12 87 18 25 0-10-6-25-18-25Zm400 0c-52 2 12 87 18 25 0-10-6-25-18-25Zm400 0c-52 2 12 87 18 25 0-10-6-25-18-25Zm-901 18c-71 42 67 45 0 0Zm400 0c-71 42 67 45 0 0Zm400 0c-71 42 67 45 0 0Zm-481 16c-64-1-10 74 18 30 9-16-10-24-18-30Zm400 0c-64-1-10 74 18 30 9-16-10-24-18-30Zm400 0c-58-9-16 70 0 33Zm-1200 3c-10 30 16 59 18 12a20 20 0 0 0-18-12Zm269 3c-61 11 18 83 27 30-9-10-11-29-27-30Zm400 0c-61 11 18 83 27 30-9-10-11-29-27-30Zm400 0c-61 11 18 83 27 30-9-10-11-29-27-30Zm-907 39c-72 22 60 122 51 40-7-20-28-39-51-40Zm400 0c-72 22 60 122 51 40-7-20-28-39-51-40Zm400 0c-72 22 60 122 51 40-7-20-28-39-51-40Zm-614 10c-51 31 44 90 29 29-7-10-15-26-29-29Zm400 0c-51 31 44 90 29 29-7-10-15-26-29-29Zm400 0c-51 31 44 90 29 29-7-10-15-26-29-29Zm-1117 24c-61 6-9 93 23 30 13-15-8-32-23-30Zm400 0c-61 6-9 93 23 30 13-15-8-32-23-30Zm400 0c-61 6-9 93 23 30 13-15-8-32-23-30Zm-555 14c-60 1 9 118 15 40 6-16 7-40-15-40Zm400 0c-60 1 9 118 15 40 6-16 7-40-15-40Zm400 0c-60 1 9 118 15 40 6-16 7-40-15-40Zm-964 28c-29 0-81 54-20 42 14 1 44-39 20-42Zm400 0c-29 0-81 54-20 42 14 1 44-39 20-42Zm400 0c-29 0-81 54-20 42 14 1 44-39 20-42Zm-562 18c-80 17 30 60 10 2Zm400 0c-80 17 30 60 10 2Zm400 0c-80 17 30 60 10 2Zm-929 9c-49 28 31 57 11 6l-5-5Zm400 0c-49 28 31 57 11 6l-5-5Zm400 0c-49 28 31 57 11 6l-5-5Zm-1021 23c0 21-8 78 23 36 7-16-5-36-23-36Zm400 0c-78 30 53 85 18 8l-8-6Zm400 0c-78 30 53 85 18 8l-8-6Zm400 0c-60 17 17 83 0 15Zm-961 25c-41-7-76 56-14 28 18 5 40-23 14-28Zm400 0c-41-7-76 56-14 28 18 5 40-23 14-28Zm400 0c-41-7-76 56-14 28 18 5 40-23 14-28Zm-983 7c-46 15 9 80 15 24 0-10-4-23-15-24Zm400 0c-46 15 9 80 15 24 0-10-4-23-15-24Zm400 0c-46 15 9 80 15 24 0-10-4-23-15-24Zm-721 1c-58 15 27 70 18 12a20 20 0 0 0-18-12Zm400 0c-58 15 27 70 18 12a20 20 0 0 0-18-12Zm400 0c-58 15 27 70 18 12a20 20 0 0 0-18-12Zm-620 7c-70 20 31 92 26 20-2-12-14-20-26-20Zm400 0c-70 20 31 92 26 20-2-12-14-20-26-20Zm400 0c-70 20 31 92 26 20-2-12-14-20-26-20Zm-865 32c-30 23 60 90 32 30-7-13-17-26-32-30Zm400 0c-30 23 60 90 32 30-7-13-17-26-32-30Zm400 0c-30 23 60 90 32 30-7-13-17-26-32-30Zm-855 20c-44-4-78 61-20 59 38 22 62-62 20-60Zm400 0c-44-4-78 61-20 59 38 22 62-62 20-60Zm400 0c-44-4-78 61-20 59 38 22 62-62 20-60Zm-914 25c-79 0 11 88 25 25-23 7-2-25-25-25Zm264 0c-63 6 14 113 24 37 5-16-4-38-24-37Zm136 0c-79 0 11 88 25 25-23 7-2-25-25-25Zm264 0c-63 6 14 113 24 37 5-16-4-38-24-37Zm136 0c-79 0 11 88 25 25-23 7-2-25-25-25Zm264 0c-63 6 14 113 24 37 5-16-4-38-24-37Zm-890 33c-33 16-5 70 20 23 27-20-5-20-20-23Zm400 0c-33 16-5 70 20 23 27-20-5-20-20-23Zm400 0c-33 16-5 70 20 23 27-20-5-20-20-23Zm-1029 15c-59 26 55 23 0 0Zm400 0c-59 26 55 23 0 0Zm400 0c-59 26 55 23 0 0Zm-507 17c-72 9 30 73 12 11l-9-10Zm400 0c-72 9 30 73 12 11l-9-10Zm400 0c-72 9 30 73 12 11l-9-10Zm-937 13c-52 2 12 87 18 25 0-10-6-25-18-25Zm400 0c-52 2 12 87 18 25 0-10-6-25-18-25Zm400 0c-52 2 12 87 18 25 0-10-6-25-18-25Zm-901 18c-71 42 67 45 0 0Zm400 0c-71 42 67 45 0 0Zm400 0c-71 42 67 45 0 0Zm-481 16c-64-1-10 74 18 30 9-16-10-24-18-30Zm400 0c-64-1-10 74 18 30 9-16-10-24-18-30Zm400 0c-58-9-16 70 0 33Zm-1200 3c-10 30 16 59 18 12a20 20 0 0 0-18-12Zm269 3c-61 11 18 83 27 30-9-10-11-29-27-30Zm400 0c-61 11 18 83 27 30-9-10-11-29-27-30Zm400 0c-61 11 18 83 27 30-9-10-11-29-27-30Zm-907 39c-72 22 60 122 51 40-7-20-28-39-51-40Zm400 0c-72 22 60 122 51 40-7-20-28-39-51-40Zm400 0c-72 22 60 122 51 40-7-20-28-39-51-40Zm-614 10c-51 31 44 90 29 29-7-10-15-26-29-29Zm400 0c-51 31 44 90 29 29-7-10-15-26-29-29Zm400 0c-51 31 44 90 29 29-7-10-15-26-29-29Zm-1117 24c-61 6-9 93 23 30 13-15-8-32-23-30Zm400 0c-61 6-9 93 23 30 13-15-8-32-23-30Zm400 0c-61 6-9 93 23 30 13-15-8-32-23-30Zm-555 14c-60 1 9 118 15 40 6-16 7-40-15-40Zm400 0c-60 1 9 118 15 40 6-16 7-40-15-40Zm400 0c-60 1 9 118 15 40 6-16 7-40-15-40Zm-964 28c-29 0-81 54-20 42 14 1 44-39 20-42Zm400 0c-29 0-81 54-20 42 14 1 44-39 20-42Zm400 0c-29 0-81 54-20 42 14 1 44-39 20-42Zm-562 18c-80 17 30 60 10 2Zm400 0c-80 17 30 60 10 2Zm400 0c-80 17 30 60 10 2Zm-929 9c-49 28 31 57 11 6l-5-5Zm400 0c-49 28 31 57 11 6l-5-5Zm400 0c-49 28 31 57 11 6l-5-5Zm-1021 23c0 21-8 78 23 36 7-16-5-36-23-36Zm400 0c-78 30 53 85 18 8l-8-6Zm400 0c-78 30 53 85 18 8l-8-6Zm400 0c-60 17 17 83 0 15Zm-961 25c-41-7-76 56-14 28 18 5 40-23 14-28Zm400 0c-41-7-76 56-14 28 18 5 40-23 14-28Zm400 0c-41-7-76 56-14 28 18 5 40-23 14-28Zm-983 7c-46 15 9 80 15 24 0-10-4-23-15-24Zm400 0c-46 15 9 80 15 24 0-10-4-23-15-24Zm400 0c-46 15 9 80 15 24 0-10-4-23-15-24Zm-721 1c-58 15 27 70 18 12a20 20 0 0 0-18-12Zm400 0c-58 15 27 70 18 12a20 20 0 0 0-18-12Zm400 0c-58 15 27 70 18 12a20 20 0 0 0-18-12Zm-620 7c-70 20 31 92 26 20-2-12-14-20-26-20Zm400 0c-70 20 31 92 26 20-2-12-14-20-26-20Zm400 0c-70 20 31 92 26 20-2-12-14-20-26-20Zm-865 32c-30 23 60 90 32 30-7-13-17-26-32-30Zm400 0c-30 23 60 90 32 30-7-13-17-26-32-30Zm400 0c-30 23 60 90 32 30-7-13-17-26-32-30Zm-855 20c-33-12-81 62-28 51 34 11 67-16 42-49Zm400 0c-33-12-81 62-28 51 34 11 67-16 42-49Zm400 0c-33-12-81 62-28 51 34 11 67-16 42-49Zm-914 26c-60 15-25 32 12 25 7-2-1-28-12-25Zm264 0c-48 17-10 32 20 25 18 2-10-32-20-25Zm136 0c-60 15-25 32 12 25 7-2-1-28-12-25Zm264 0c-48 17-10 32 20 25 18 2-10-32-20-25Zm136 0c-60 15-25 32 12 25 7-2-1-28-12-25Zm264 0c-48 17-10 32 20 25 18 2-10-32-20-25Z"/>
  <path fill="#525252" d="M7.8-2.9c2 4 5 7 8 8a60 60 0 0 0 27-8Zm74 0 2 3c-14 7-45 15-24 34 12 4 31-2 44-4 5-1 1-23 0-31l-2-2Zm48 0c-1 5 5 18 5 29 0 9 17-3 26-4 24 1 50-4 64-25h-25c-9 9-27 8-41 0Zm178 0c-1 15 19 8 31 0Zm49 0-2 4c-4 7-2 23-19 30-2 6 2 8 4 11 6 5 15 7 18 0 16 3 23-11 24-25 1-11-3-19-3-20Zm51 0c2 4 5 7 8 8a60 60 0 0 0 27-8Zm74 0 2 3c-14 7-45 15-24 34 12 4 31-2 44-4 5-1 1-23 0-31l-2-2Zm48 0c-1 5 5 18 5 29 0 9 17-3 26-4 24 1 50-4 64-25h-25c-9 9-27 8-41 0Zm178 0c-1 15 19 8 31 0Zm49 0-2 4c-4 7-2 23-19 30-2 6 2 8 4 11 6 5 15 7 18 0 16 3 23-11 24-25 1-11-3-19-3-20Zm51 0c2 4 5 7 8 8a60 60 0 0 0 27-8Zm74 0 2 3c-14 7-45 15-24 34 12 4 31-2 44-4 5-1 1-23 0-31l-2-2Zm48 0c-1 5 5 18 5 29 0 9 17-3 26-4 24 1 50-4 64-25h-25c-9 9-27 8-41 0Zm178 0c-1 15 19 8 31 0Zm49 0-2 4c-4 7-2 23-19 30-2 6 2 8 4 11 6 5 15 7 18 0 16 3 23-11 24-25 1-11-3-19-3-20Zm-912 1c-9 0-21 19-17 24 1 1 8 3 12 1 3-2 3-8 5-9 4-2 6-6 6-10-2-4-4-6-6-6Zm400 0c-9 0-21 19-17 24 1 1 8 3 12 1 3-2 3-8 5-9 4-2 6-6 6-10-2-4-4-6-6-6Zm400 0c-9 0-21 19-17 24 1 1 8 3 12 1 3-2 3-8 5-9 4-2 6-6 6-10-2-4-4-6-6-6Zm-754 2c-11 1-37 20-19 22-4 5-8 5-13 9l-4 10c-2-4-5-6-11-7-4 1-13 1-16 5s-5 9-3 14c3 7 6 12 17 8 20-6 23-12 26-20 4-3 5-9 9-12 3-4 14-9 17-12 7-4 5-10-3-17Zm400 0c-11 1-37 20-19 22-4 5-8 5-13 9l-4 10c-2-4-5-6-11-7-4 1-13 1-16 5s-5 9-3 14c3 7 6 12 17 8 20-6 23-12 26-20 4-3 5-9 9-12 3-4 14-9 17-12 7-4 5-10-3-17Zm400 0c-11 1-37 20-19 22-4 5-8 5-13 9l-4 10c-2-4-5-6-11-7-4 1-13 1-16 5s-5 9-3 14c3 7 6 12 17 8 20-6 23-12 26-20 4-3 5-9 9-12 3-4 14-9 17-12 7-4 5-10-3-17Zm-1082 7c-4 1-9 4-12 8v28l4 1c5 13 29 24 27 4 8 3 13-9 13-18l-10 2c1 3-9 7-14 7s-7-5-7-7c0-4 4-9 8-9 3 0 13 3 14 5l9-1c-1-3-2-5-4-6 0-12-20-9-28-14Zm400 0c-4 1-9 4-12 8-4 5-7 11-7 17 0 5 2 9 7 11l4 1c5 13 29 24 27 4 8 3 13-9 13-18l-10 2c1 3-9 7-14 7s-7-5-7-7c0-4 4-9 8-9 3 0 13 3 14 5l9-1c-1-3-2-5-4-6 0-12-20-9-28-14Zm400 0c-4 1-9 4-12 8-4 5-7 11-7 17 0 5 2 9 7 11l4 1c5 13 29 24 27 4 8 3 13-9 13-18l-10 2c1 3-9 7-14 7s-7-5-7-7c0-4 4-9 8-9 3 0 13 3 14 5l9-1c-1-3-2-5-4-6 0-12-20-9-28-14Zm388 8c-4 5-7 11-7 17 0 5 2 9 7 11Zm-890 7c-7 6-24 15-29 24-6 9-2 12 3 14-1 5 20 23 24 17 7 7 13 6 18 3 21-10-1-35-13-16-4-5-14-5-20-10 7-3 20-13 24-19 3-3-2-10-7-13Zm400 0c-7 6-24 15-29 24-6 9-2 12 3 14-1 5 20 23 24 17 7 7 13 6 18 3 21-10-1-35-13-16-4-5-14-5-20-10 7-3 20-13 24-19 3-3-2-10-7-13Zm400 0c-7 6-24 15-29 24-6 9-2 12 3 14-1 5 20 23 24 17 7 7 13 6 18 3 21-10-1-35-13-16-4-5-14-5-20-10 7-3 20-13 24-19 3-3-2-10-7-13Zm-934 18-11 9 7 11c12-6 25 15 18 28-2 7 0 10 3 13 4 5 12 10 17 5 4-3 6-13 4-20 3-20-7-41-27-45Zm400 0-11 9 7 11c12-6 25 15 18 28-2 7 0 10 3 13 4 5 12 10 17 5 4-3 6-13 4-20 3-20-7-41-27-45Zm400 0-11 9 7 11c12-6 25 15 18 28-2 7 0 10 3 13 4 5 12 10 17 5 4-3 6-13 4-20 3-20-7-41-27-45Zm-891 8c0 6-24-3-26 3-2 8-5 21 6 22 6-2 29 6 32 12 4 8-12 15-24 10-6 1-17-4-16 2 0 6-2 16 5 24 15 6 22-16 35-5 17-2 34-26 17-37 6-5-9-14 0-9-7-8-1-15-5-16-3-1-14 4-20-5Zm400 0c0 6-24-3-26 3-2 8-5 21 6 22 6-2 29 6 32 12 4 8-12 15-24 10-6 1-17-4-16 2 0 6-2 16 5 24 15 6 22-16 35-5 17-2 34-26 17-37 6-5-9-14 0-9-7-8-1-15-5-16-3-1-14 4-20-5Zm400 0c0 6-24-3-26 3-2 8-5 21 6 22 6-2 29 6 32 12 4 8-12 15-24 10-6 1-17-4-16 2 0 6-2 16 5 24 15 6 22-16 35-5 17-2 34-26 17-37 6-5-9-14 0-9-7-8-1-15-5-16-3-1-14 4-20-5Zm-723 2c-6 5-10 1-20 1-2 12-4 28 1 42 5 7 8 6 12 5 21 0 13-22 13-34l3-4Zm400 0c-6 5-10 1-20 1-2 12-4 28 1 42 5 7 8 6 12 5 21 0 13-22 13-34l3-4Zm400 0c-6 5-10 1-20 1-2 12-4 28 1 42 5 7 8 6 12 5 21 0 13-22 13-34l3-4Zm-578 5c-38 12-44 28-44 45 7 2 7 28 23 16 2 0 22-12 31-25l6 7 10 9c5 7-3 8-10 12a10 10 0 0 0-6 5c-5-4-13-7-18-7-9 3-13 10-10 15s14 16 22 16c5-2 7-9 9-13l3 3c12 7 31-4 40-13 9-22-10-44-27-56-4-3-8-7-13-6Zm400 0c-38 12-44 28-44 45 7 2 7 28 23 16 2 0 22-12 31-25l6 7 10 9c5 7-3 8-10 12a10 10 0 0 0-6 5c-5-4-13-7-18-7-9 3-13 10-10 15s14 16 22 16c5-2 7-9 9-13l3 3c12 7 31-4 40-13 9-22-10-44-27-56-4-3-8-7-13-6Zm400 0c-38 12-44 28-44 45 7 2 7 28 23 16 2 0 22-12 31-25l6 7c10-14 9-25 0-35Zm-1182 8h-2v35l10 9c5 7-3 8-10 12v19c12 7 31-4 40-13 9-22-10-44-27-56-4-3-7-6-11-6Zm266 10h-8c-7 1-16 0-20 5-6 7-4 18-4 30 13 8 36-6 44-8 2 5 14 19 14 19-1-1 0 7-3 9-4 3-13 1-15 3-11 6-18 11-12 25 18 0 58 5 50-20 0-8 9-28 1-32-10-5-20-23-35-25-4-5-8-6-12-7Zm400 0h-8c-7 1-16 0-20 5-6 7-4 18-4 30 13 8 36-6 44-8 2 5 14 19 14 19-1-1 0 7-3 9-4 3-13 1-15 3-11 6-18 11-12 25 18 0 58 5 50-20 0-8 9-28 1-32-10-5-20-23-35-25a20 20 0 0 0-12-7Zm400 0h-8c-7 1-16 0-20 5-6 7-4 18-4 30 13 8 36-6 44-8 2 5 14 20 14 20-1-2 0 6-3 8-4 3-13 1-15 3-11 6-18 11-12 25 18 0 58 5 50-20 0-8 9-28 1-32-10-5-20-23-35-25a20 20 0 0 0-12-7Zm108 44c-9 3-13 10-10 15s14 16 22 16c5-2 7-9 9-13l3 3c8-7 6-13 0-19a10 10 0 0 0-6 5c-5-4-13-7-18-7Zm-841 1c-6 0-7 19-7 25-1 11 5 10 14 14 4 4 16 3 18-4 1-4-3-10-10-21-1-5-9-13-15-14Zm400 0c-6 0-7 19-7 25-1 11 5 10 14 14 4 4 16 3 18-4 1-4-3-10-10-21-1-5-9-13-15-14Zm400 0c-6 0-7 19-7 25-1 11 5 10 14 14 4 4 16 3 18-4 1-4-3-10-10-21-1-5-9-13-15-14Zm-968 1c-15 0-29 8-33 36 1 5 1 22 17 0 15-20 34-6 43-2 2 2 4 3 7 2-3 3 5 7 5 10s8 7 7 9c-3 3-13 14-22 18-13 5-27-5-28-5-28 3 3 23 8 23 14 1 24 17 46-24 4-2 5-5 5-7l8-2c1-2-3-15-4-18s-4-13-9-10c-4 4-8 5-13 5 8-4 14-20 2-26-12-8-27-3-39-9Zm400 0c-15 0-29 8-33 36 1 5 1 22 17 0 15-20 34-6 43-2 2 2 4 3 7 2-3 3 5 7 5 10s8 7 7 9c-3 3-13 14-22 18-13 5-27-5-28-5-28 3 3 23 8 23 14 1 24 17 46-24 4-2 5-5 5-7l8-2c1-2-3-15-4-18s-4-13-9-10c-4 4-8 5-13 5 8-4 14-20 2-26-12-8-27-3-39-9Zm400 0c-15 0-29 8-33 36 1 5 1 22 17 0 15-20 34-6 43-2 2 2 4 3 7 2-3 3 5 7 5 10s8 7 7 9c-3 3-13 14-22 18-13 5-27-5-28-5-28 3 3 23 8 23 14 1 24 17 46-24 4-2 5-5 5-7l8-2c1-2-3-15-4-18s-4-13-9-10c-4 4-8 5-13 5 8-4 14-20 2-26-12-8-27-3-39-9Zm-722 1c-3 0-8 0-9 5-1 3 2 10 3 12 1 4 5 13 10 13 2 0 3-7 7-9 9-5 7-21-11-21Zm400 0c-3 0-8 0-9 5-1 3 2 10 3 12 1 4 5 13 10 13 2 0 3-7 7-9 9-5 7-21-11-21Zm400 0c-3 0-8 0-9 5-1 3 2 10 3 12 1 4 5 13 10 13 2 0 3-7 7-9 9-5 7-21-11-21Zm-924 8h-1c-6 0-12 6-23 9h-11c-6 2-7 8 2 14 16 11 23 4 33-4 7-6 6-18 0-19Zm400 0h-1c-6 0-12 6-23 9h-11c-6 2-7 8 2 14 16 11 23 4 33-4 8-6 6-18 0-19Zm399 0c-6 0-12 6-23 9h-11c-6 2-7 8 2 14 16 11 23 4 33-4 8-6 7-19-1-19Zm-900 25c-10 0-17 1-20 11v5c2 6 9 2 13 4 11 1 38-2 25 18l-23 17c-9 6-16 10-6 21 16 4 32-23 48-20 9-9 12-26 16-39-5-12-31-17-50-17h-4Zm400 0c-10 0-17 1-20 11v5c2 6 9 2 13 4 11 1 38-2 25 18l-23 17c-9 6-16 10-6 21 16 4 32-23 48-20 9-9 12-26 16-39-5-12-31-17-50-17h-4Zm400 0c-10 0-17 1-20 11v5c2 6 9 2 13 4 11 1 38-2 25 18l-23 17c-9 6-16 10-6 21 16 4 32-23 48-20 9-9 12-26 16-39-5-12-31-17-50-17h-4Zm-644 9-2 1-21 4c-6 2-12 7-9 12 2 4 13-2 22 0 8 0 18 8 25 0 8-10-8-18-15-17Zm400 0-2 1-21 4c-6 2-12 7-9 12 2 4 13-2 22 0 8 0 18 8 25 0 8-10-8-18-15-17Zm398 1-21 4c-6 2-12 7-9 12 2 4 13-2 22 0 8 0 18 8 25 0 10-12-13-20-17-16Zm-597 6c-8 0-20 9-19 17-12 10-13-18-30-16-6-1-9 23-9 28 1 10 14 4 24 9 5 2 13 0 17-6 3 9 7 4 18 9 4 2 13 2 18-1 6-5-3-10-5-14-5-7-2-23-11-26Zm400 0c-8 0-20 9-19 17-12 10-13-18-30-16-6-1-9 23-9 28 1 10 14 4 24 9 5 2 13 0 17-6 3 9 7 4 18 9 4 2 13 2 18-1 6-5-3-10-5-14-5-7-2-23-11-26Zm400 0c-8 0-20 9-19 17-12 10-13-18-30-16-6-1-9 23-9 28 1 10 14 4 24 9 5 2 13 0 17-6 3 9 7 4 18 9 4 2 13 2 18-1 6-5-3-10-5-14-5-7-2-23-11-26Zm-912 3c-4 0-8.1.7-12 2-10 4-10 14-10 14-2 1-5 3-5 5 3 7 4 18 9 21 3 2 7 1 11-1 2 0-2-7 1-12 1-2 9-4 10-5 7-7 13-6 12 9l2 10 13 3 4-17c-1-7 2-13 2-23-12-2-25-7-37-6Zm388 2c-10 4-10 14-10 14-2 1-5 3-5 5 3 7 4 18 9 21 3 2 7 1 11-1 2 0-2-7 1-12 1-2 9-4 10-5 7-7 13-6 12 9l2 10 13 3 4-17c-1-7 2-13 2-23-16-8-32-12-49-4Zm412-2c-4 0-8 0-12 2-10 4-10 14-10 14-2 0-5 3-5 5 3 7 4 18 9 20 3 3 7 2 11 0 2 0-2-7 1-12 1-2 9-4 10-5 7-7 13-6 12 9l2 10 13 3 4-17c-1-7 2-13 2-23-12-2-25-7-37-6Zm-947 1c-15-1-19 16-26 26-9 34 18 9 26 10l10-9a50 50 0 0 1-10-27Zm400 0c-15-1-19 16-26 26-9 34 18 9 26 10l10-9a50 50 0 0 1-10-27Zm400 0c-15-1-19 16-26 26-9 34 18 9 26 10l10-9a50 50 0 0 1-10-27Zm-918 7v14l3 5c4 3 8 3 11-7 1-5-2-12-8-12Zm400 0c-1 1-2 2-2 7l2 7 3 5c4 3 8 3 11-7 1-5-2-12-8-12Zm400 0c-5 5 0 17 3 19 4 3 8 3 11-7 0-10-5-12-14-12Zm400 0c-1 1-2 2-2 7l2 7c0-5 6-10 0-14Zm-1071 20-9 9c-4 15-7 20-12 23-18 22-35 20-44 0-48 12 7 50 26 37 16-11 35-21 46-42 5-10-1-18-7-27Zm400 0-9 9c-4 15-7 20-12 23-18 22-35 20-44 0-48 12 7 50 26 37 16-11 35-21 46-42 5-10-1-18-7-27Zm400 0-9 9c-4 15-7 20-12 23-18 22-35 20-44 0-48 12 7 50 26 37 16-11 35-21 46-42 5-10-1-18-7-27Zm-600 16c-17 1-15 33 2 19 5-1 23-4 22-11-5-6-16-7-24-8Zm400 0c-17 1-15 33 2 19 5-1 23-4 22-11-5-6-16-7-24-8Zm400 0c-17 1-15 33 2 19 5-1 23-4 22-11-5-6-16-7-24-8Zm-906 4c-4 0-14 6-15 11-1 4 9 10 10 10l1 2c2-6 8-5 11-1 3 2 7 6 5 10-1 5-2 12-8 12a10 10 0 0 1-12-2c-6-2-4-8-1-11 1-6-8-3-11-8l-13 22c3 6 13 4 18 8 4 4 9 0 13 0a70 70 0 0 0 19-6c3-3 0-8 3-12 0-4 5-10-1-12-4-3-4-10-8-14-3-5-7-9-11-9Zm61 0-2 13c-3 5-11 1-15-2-2 2-8 5-8 9 0 3 5 7 6 11 1 10 3 18 9 14 5-8 10 1 14-11 2-4 5-25 7-30l1-2Zm339 0c-4 0-14 6-15 11-1 4 9 10 10 10l1 2c2-6 8-5 11-1 3 2 7 6 5 10-1 5-2 12-8 12a10 10 0 0 1-12-2c-6-2-4-8-1-11 1-6-8-3-11-8l-13 22c3 6 13 4 18 8 4 4 9 0 13 0a70 70 0 0 0 19-6c3-3 0-8 3-12 0-4 5-10-1-12-4-3-4-10-8-14-3-5-7-9-11-9Zm61 0-2 13c-3 5-11 1-15-2-2 2-8 5-8 9 0 3 5 7 6 11 1 10 3 18 9 14 5-8 10 1 14-11 2-4 5-25 7-30l1-2Zm339 0c-4 0-14 6-15 11-1 4 9 10 10 10l1 2c2-6 8-5 11-1 3 2 7 6 5 10-1 5-2 12-8 12a10 10 0 0 1-12-2c-6-2-4-8-1-11 1-6-8-3-11-8l-13 22c3 6 13 4 18 8 4 4 9 0 13 0a70 70 0 0 0 19-6c3-3 0-8 3-12 0-4 5-10-1-12-4-3-4-10-8-14-3-5-7-9-11-9Zm61 0-2 13c-3 5-11 1-15-2-2 2-8 5-8 9 0 3 5 7 6 11 1 10 3 18 9 14 5-8 10 1 14-11 2-4 5-25 7-30l1-2Zm-710 4-12 6c-6 4 1 7-1 12-3 5-16 13-10 17 14-11 58-19 31-29Zm400 0-12 6c-6 4 1 7-1 12-3 5-16 13-10 17 14-11 58-19 31-29Zm400 0-12 6c-6 4 1 7-1 12-3 5-16 13-10 17 14-11 58-19 31-29Zm-996 3c-4 0-7 1-6 7 1 5 7 10 16 3 2-2 1-5 0-7a20 20 0 0 0-10-3Zm394 7c1 5 7 10 16 3 2-2 1-5 0-7a20 20 0 0 0-10-3c-4 0-7 1-6 7Zm406-7c-4 0-7 1-6 7 1 5 7 10 16 3 2-2 1-5 0-7a20 20 0 0 0-10-3Zm-823 5h-7c0 16-29 32-35 35-5 22 25 7 34-1 13 0 36 1 28-15-1-3-10-3-14-7-3-3 1-9-4-12Zm400 0h-7c0 16-29 32-35 35-5 22 25 7 34-1 13 0 36 1 28-15-1-3-10-3-14-7-3-3 1-9-4-12Zm400 0h-7c0 16-29 32-35 35-5 22 25 7 34-1 13 0 36 1 28-15-1-3-10-3-14-7-3-3 1-9-4-12Zm-937 15c-4 0-11 4-18 4v15c10 4 15 5 20 1 5-5 4-13 1-18Zm400 0c-5 0-11 4-18 4-2 0-4 0-5 3l-9-2c-8 13-20 4-28 15-14 5-11 15-4 22-7 18 20 10 15 27 7 3 19 2 27-1l4 2c10 5 27-8 24-14-1-3-4-9-7-6-5 4-11 1-17-1l-2-2c-5-3-5 2-9 2-6-7-21-11-7-19 3-2 11-7 16-12l2 1c10 4 15 5 20 1 5-5 4-13 1-18Zm400 0c-5 0-11 4-18 4-2 0-4 0-5 3l-9-2c-8 13-20 4-28 15-14 5-11 15-4 22-7 18 20 10 15 27 7 3 19 2 27-1l4 2c10 5 27-8 24-14-1-3-4-9-7-6-5 4-11 1-17-1l-2-2c-5-3-5 2-9 2-6-7-21-11-7-19 3-2 11-7 16-12l2 1c10 4 15 5 20 1 5-5 4-13 1-18Zm-504 4c-8 1-25 29-1 23 6-2 11-5 15-9 6-7-4-14-14-14Zm400 0c-8 1-25 29-1 23 6-2 11-5 15-9 6-7-4-14-14-14Zm400 0c-8 1-25 29-1 23 6-2 11-5 15-9 6-7-4-14-14-14Zm86 0c-2 0-4 0-5 3l-9-2c-8 13-20 4-28 15-14 5-11 15-4 22-7 18 20 10 15 27 7 3 19 2 27-1l4 2c2-6 6-10 0-21l-2-2c-5-3-5 2-9 2-6-7-21-11-7-19 3-2 11-7 16-12l2 1c6-8 5-13 0-15Zm-1158 11c-21 11 9 26 6 4-1-2-4-4-6-4Zm400 0c-21 11 9 26 6 4-1-2-4-4-6-4Zm400 0c-21 11 9 26 6 4-1-2-4-4-6-4Zm-592 11c-3 0-5 0-7 2-7 8 7 31-10 29l-10 5v9c23 1 45-2 34-32a40 40 0 0 0-7-13Zm400 0c-3 0-5 0-7 2-7 8 7 31-10 29l-10 5v9c23 1 45-2 34-32a40 40 0 0 0-7-13Zm400 0c-3 0-5 0-7 2-7 8 7 31-10 29l-10 5v9c23 1 45-2 34-32a39.9 39.9 0 0 0-7-13Zm-897 6c-22 4-1 50-23 44-4-14-17-50-35-31-2 19 14 47 22 63 13 3 33-20 47-26 3-15 14-50-11-50Zm400 0c-22 4-1 50-23 44-4-14-17-50-35-31-2 19 14 47 22 63 13 3 33-20 47-26 3-15 14-50-11-50Zm400 0c-22 4-1 50-23 44-4-14-17-50-35-31-2 19 14 47 22 63 13 3 33-20 47-26 3-15 14-50-11-50Zm-900 2c-20 3 14 31 2 33 0 1-9 14-12 13-4-1-3-17-4-17-14 10-20 30-27 42 10 13 18-7 25 0 17-3 24-21 42-16 27-21-10-41-26-55Zm264 0c-8 1-13 6-19 10-10 5-9 9-16 15 4 25 31-13 41 0 1 10-4 34 14 25-10 9-47 6-35 24 21 5 63-7 49-36-7-17-13-38-34-38Zm136 0c-20 3 14 31 2 33 0 1-9 14-12 13-4-1-3-17-4-17-14 10-20 30-27 42 10 13 18-7 25 0 17-3 24-21 42-16 27-21-10-41-26-55Zm264 0c-8 1-13 6-19 10-10 5-9 9-16 15 4 25 31-13 41 0 1 10-4 34 14 25-10 9-47 6-35 24 21 5 63-7 49-36-7-17-13-38-34-38Zm136 0c-20 3 14 31 2 33 0 1-9 14-12 13-4-1-3-17-4-17-14 10-20 30-27 42 10 13 18-7 25 0 17-3 24-21 42-16 27-21-10-41-26-55Zm264 0c-8 1-13 6-19 10-10 5-9 9-16 15 4 25 31-13 41 0 1 10-4 34 14 25-10 9-47 6-35 24 21 5 63-7 49-36-7-17-13-38-34-38Zm-919 5c-16 1-22 26-20 34 11 15 28 2 42-2v-9h-3c-9 1-19-6-11-18-2-2-3-5-8-5Zm400 0c-16 1-22 26-20 34 11 15 28 2 42-2v-9h-3c-9 1-19-6-11-18-2-2-3-5-8-5Zm400 0c-16 1-22 26-20 34 11 15 28 2 42-2v-9h-3c-9 1-19-6-11-18-2-2-3-5-8-5Zm-998 10v21c10 5 27-8 24-14-1-3-4-9-7-6-5 4-11 1-17-1Zm293 23-5 2c-19 9 9 30 13 9 1-5-3-11-7-11Zm400 0-5 2c-19 9 9 30 13 9 1-5-3-11-7-11h-2Zm400 0-5 2c-19 9 9 30 13 9 1-5-3-11-7-11h-2Zm-835 6c-17 1-38 3-22 32 11 12 18 28 33 36 12 3 44-13 23-24-14 9-33 4-33-13-10-10 22-16 6-30Zm400 0c-17 1-38 3-22 32 11 12 18 28 33 36 12 3 44-13 23-24-14 9-33 4-33-13-10-10 22-16 6-30Zm400 0c-17 1-38 3-22 32 11 12 18 28 33 36 12 3 44-13 23-24-14 9-33 4-33-13-10-10 22-16 6-30Zm-687 8c-9 0-8 22 6 27 1 18 31 21 19 1-11-20-20-28-25-28Zm400 0c-9 0-8 22 6 27 1 18 31 21 19 1-11-20-20-28-25-28Zm400 0c-9 0-8 22 6 27 1 18 31 21 19 1-11-20-20-28-25-28Zm-972 3c-11 2-24 4-30 14-1 10 11 7 17 3 5-4 10-5 9 2 0 7 13 14 2 18-8 0-18 12-5 13 11-2 22-3 33-7 4 0 1-4 4-7-7-6-9-16-16-22-5-3-8-14-14-14Zm400 0c-11 2-24 4-30 14-1 10 11 7 17 3 5-4 10-5 9 2 0 7 13 14 2 18-8 0-18 12-5 13 11-2 22-3 33-7 4 0 1-4 4-7-7-6-9-16-16-22-5-3-8-14-14-14Zm400 0c-11 2-24 4-30 14-1 10 11 7 17 3 5-4 10-5 9 2 0 7 13 14 2 18-8 0-18 12-5 13 11-2 22-3 33-7 4 0 1-4 4-7-7-6-9-16-16-22-5-3-8-14-14-14Zm-923 15-41 25c-25-8-28 10-24 21 2 4 5 7 8 8a60 60 0 0 0 27-8c15-8 23-20 34-17 6 4 5 12 5 17l2 3c-14 7-45 15-24 34 12 4 31-2 44-4 5-1 1-23 0-31l-2-2-3-4c0-5 2-11 1-16l-7-15c-6-5-12-10-20-11Zm400 0-41 25c-25-8-28 10-24 21 2 4 5 7 8 8a60 60 0 0 0 27-8c15-8 23-20 34-17 6 4 5 12 5 17l2 3c-14 7-45 15-24 34 12 4 31-2 44-4 5-1 1-23 0-31l-2-2-3-4c0-5 2-11 1-16l-7-15c-6-5-12-10-20-11Zm400 0-41 25c-25-8-28 10-24 21 2 4 5 7 8 8a60 60 0 0 0 27-8c15-8 23-20 34-17 6 4 5 12 5 17l2 3c-14 7-45 15-24 34 12 4 31-2 44-4 5-1 1-23 0-31l-2-2-3-4c0-5 2-11 1-16l-7-15c-6-5-12-10-20-11Zm-524 6c-6 0-10 6-15 11-7 9-13 19-25 21l-1 8c-1 15 19 8 31 0l8-6c5-1 8 2 10 6l-2 4c-4 7-2 23-19 30-2 6 2 8 4 11 6 5 15 7 18 0 16 3 23-11 24-25 1-10-3-18-3-20h1c-1-2-3-3-6-3-5-10-13-20-16-30-3-5-6-7-10-7Zm400 0c-6 0-10 6-15 11-7 9-13 19-25 21l-1 8c-1 15 19 8 31 0l8-6c5-1 8 2 10 6l-2 4c-4 7-2 23-19 30-2 6 2 8 4 11 6 5 15 7 18 0 16 3 23-11 24-25 1-10-3-18-3-20h1c-1-2-3-3-6-3-5-10-13-20-16-30-3-5-6-7-10-7Zm385 11c-7 9-13 19-25 21l-1 8c-1 15 19 8 31 0l8-6c5-1 8 2 10 6l-2 4c-4 7-2 23-19 30-2 6 2 8 4 11 6 5 15 7 18 0 16 3 23-11 24-25 1-10-3-18-3-20h1c-1-2-3-3-6-3-5-10-13-20-16-30-8-14-17-5-24 4Zm-993-6c0 6-37 21-16 32 3 1 5 0 5 3-1 5 5 18 5 29 0 9 17-3 26-4 24 1 50-4 64-25 2-8-1-11-5-11-6 0-15 6-20 11-9 9-27 8-41 0-9-8-16-18-7-31-1-4-7-2-11-4Zm400 0c0 6-37 21-16 32 3 1 5 0 5 3-1 5 5 18 5 29 0 9 17-3 26-4 24 1 50-4 64-25 2-8-1-11-5-11-6 0-15 6-20 11-9 9-27 8-41 0-9-8-16-18-7-31-1-4-7-2-11-4Zm400 0c0 6-37 21-16 32 3 1 5 0 5 3-1 5 5 18 5 29 0 9 17-3 26-4 24 1 50-4 64-25 2-8-1-11-5-11-6 0-15 6-20 11-9 9-27 8-41 0-9-8-16-18-7-31-1-4-7-2-11-4Zm-696 36c-9 0-21 19-17 24 1 1 8 3 12 1 3-2 3-8 5-9 4-2 6-6 6-10-2-4-4-6-6-6Zm400 0c-9 0-21 19-17 24 1 1 8 3 12 1 3-2 3-8 5-9 4-2 6-6 6-10-2-4-4-6-6-6Zm400 0c-9 0-21 19-17 24 1 1 8 3 12 1 3-2 3-8 5-9 4-2 6-6 6-10-2-4-4-6-6-6Zm-754 2c-11 1-37 20-19 22-4 5-8 5-13 9l-4 10c-2-4-5-6-11-7-4 1-13 1-16 5s-5 9-3 14c3 7 6 12 17 8 20-6 23-12 26-20 4-3 5-9 9-12 3-4 14-9 17-12 7-4 5-10-3-17Zm400 0c-11 1-37 20-19 22-4 5-8 5-13 9l-4 10c-2-4-5-6-11-7-4 1-13 1-16 5s-5 9-3 14c3 7 6 12 17 8 20-6 23-12 26-20 4-3 5-9 9-12 3-4 14-9 17-12 7-4 5-10-3-17Zm400 0c-11 1-37 20-19 22-4 5-8 5-13 9l-4 10c-2-4-5-6-11-7-4 1-13 1-16 5s-5 9-3 14c3 7 6 12 17 8 20-6 23-12 26-20 4-3 5-9 9-12 3-4 14-9 17-12 7-4 5-10-3-17Zm-1082 7c-4 1-9 4-12 8v28l4 1c5 13 29 24 27 4 8 3 13-9 13-18l-10 2c1 3-9 7-14 7s-7-5-7-7c0-4 4-9 8-9 3 0 13 3 14 5l9-1c-1-3-2-5-4-6 0-12-20-9-28-14Zm400 0c-4 1-9 4-12 8-4 5-7 11-7 17 0 5 2 9 7 11l4 1c5 13 29 24 27 4 8 3 13-9 13-18l-10 2c1 3-9 7-14 7s-7-5-7-7c0-4 4-9 8-9 3 0 13 3 14 5l9-1c-1-3-2-5-4-6 0-12-20-9-28-14Zm400 0c-4 1-9 4-12 8-4 5-7 11-7 17 0 5 2 9 7 11l4 1c5 13 29 24 27 4 8 3 13-9 13-18l-10 2c1 3-9 7-14 7s-7-5-7-7c0-4 4-9 8-9 3 0 13 3 14 5l9-1c-1-3-2-5-4-6 0-12-20-9-28-14Zm388 8c-4 5-7 11-7 17 0 5 2 9 7 11Zm-890 7c-7 6-24 15-29 24-6 9-2 12 3 14-1 5 20 23 24 17 7 7 13 6 18 3 21-10-1-35-13-16-4-5-14-5-20-10 7-3 20-13 24-19 3-3-2-10-7-13Zm400 0c-7 6-24 15-29 24-6 9-2 12 3 14-1 5 20 23 24 17 7 7 13 6 18 3 21-10-1-35-13-16-4-5-14-5-20-10 7-3 20-13 24-19 3-3-2-10-7-13Zm400 0c-7 6-24 15-29 24-6 9-2 12 3 14-1 5 20 23 24 17 7 7 13 6 18 3 21-10-1-35-13-16-4-5-14-5-20-10 7-3 20-13 24-19 3-3-2-10-7-13Zm-934 18-11 9 7 11c12-6 25 15 18 28-2 7 0 10 3 13 4 5 12 10 17 5 4-3 6-13 4-20 3-20-7-41-27-45Zm400 0-11 9 7 11c12-6 25 15 18 28-2 7 0 10 3 13 4 5 12 10 17 5 4-3 6-13 4-20 3-20-7-41-27-45Zm400 0-11 9 7 11c12-6 25 15 18 28-2 7 0 10 3 13 4 5 12 10 17 5 4-3 6-13 4-20 3-20-7-41-27-45Zm-891 8c0 6-24-3-26 3-2 8-5 21 6 22 6-2 29 6 32 12 4 8-12 15-24 10-6 1-17-4-16 2 0 6-2 16 5 24 15 6 22-16 35-5 17-2 34-26 17-37 6-5-9-14 0-9-7-8-1-15-5-16-3-1-14 4-20-5Zm400 0c0 6-24-3-26 3-2 8-5 21 6 22 6-2 29 6 32 12 4 8-12 15-24 10-6 1-17-4-16 2 0 6-2 16 5 24 15 6 22-16 35-5 17-2 34-26 17-37 6-5-9-14 0-9-7-8-1-15-5-16-3-1-14 4-20-5Zm400 0c0 6-24-3-26 3-2 8-5 21 6 22 6-2 29 6 32 12 4 8-12 15-24 10-6 1-17-4-16 2 0 6-2 16 5 24 15 6 22-16 35-5 17-2 34-26 17-37 6-5-9-14 0-9-7-8-1-15-5-16-3-1-14 4-20-5Zm-723 2c-6 5-10 1-20 1-2 12-4 28 1 42 5 7 8 6 12 5 21 0 13-22 13-34l3-4Zm400 0c-6 5-10 1-20 1-2 12-4 28 1 42 5 7 8 6 12 5 21 0 13-22 13-34l3-4Zm400 0c-6 5-10 1-20 1-2 12-4 28 1 42 5 7 8 6 12 5 21 0 13-22 13-34l3-4Zm-578 5c-38 12-44 28-44 45 7 2 7 28 23 16 2 0 22-12 31-25l6 7 10 9c5 7-3 8-10 12a10 10 0 0 0-6 5c-5-4-13-7-18-7-9 3-13 10-10 15s14 16 22 16c5-2 7-9 9-13l3 3c12 7 31-4 40-13 9-22-10-44-27-56-4-3-8-7-13-6Zm400 0c-38 12-44 28-44 45 7 2 7 28 23 16 2 0 22-12 31-25l6 7 10 9c5 7-3 8-10 12a10 10 0 0 0-6 5c-5-4-13-7-18-7-9 3-13 10-10 15s14 16 22 16c5-2 7-9 9-13l3 3c12 7 31-4 40-13 9-22-10-44-27-56-4-3-8-7-13-6Zm400 0c-38 12-44 28-44 45 7 2 7 28 23 16 2 0 22-12 31-25l6 7c10-14 9-25 0-35Zm-1182 8h-2v35l10 9c5 7-3 8-10 12v19c12 7 31-4 40-13 9-22-10-44-27-56-4-3-7-6-11-6Zm266 10h-8c-7 1-16 0-20 5-6 7-4 18-4 30 13 8 36-6 44-8 2 5 14 20 14 20-1-2 0 6-3 8-4 3-13 1-15 3-11 6-18 11-12 25 18 0 58 5 50-20 0-8 9-28 1-32-10-5-20-23-35-25-4-5-8-6-12-7Zm400 0h-8c-7 1-16 0-20 5-6 7-4 18-4 30 13 8 36-6 44-8 2 5 14 20 14 20-1-2 0 6-3 8-4 3-13 1-15 3-11 6-18 11-12 25 18 0 58 5 50-20 0-8 9-28 1-32-10-5-20-23-35-25-4-5-8-6-12-7Zm400 0h-8c-7 1-16 0-20 5-6 7-4 18-4 30 13 8 36-6 44-8 2 5 14 20 14 20-1-2 0 6-3 8-4 3-13 1-15 3-11 6-18 11-12 25 18 0 58 5 50-20 0-8 9-28 1-32-10-5-20-23-35-25-4-5-8-6-12-7Zm108 44c-9 3-13 10-10 15s14 16 22 16c5-2 7-9 9-13l3 3c8-7 6-13 0-19a10 10 0 0 0-6 5c-5-4-13-7-18-7Zm-841 1c-6 0-7 19-7 25-1 11 5 10 14 14 4 4 16 3 18-4 1-4-3-10-10-21-1-5-9-13-15-14Zm400 0c-6 0-7 19-7 25-1 11 5 10 14 14 4 4 16 3 18-4 1-4-3-10-10-21-1-5-9-13-15-14Zm400 0c-6 0-7 19-7 25-1 11 5 10 14 14 4 4 16 3 18-4 1-4-3-10-10-21-1-5-9-13-15-14Zm-968 1c-15 0-29 8-33 36 1 5 1 22 17 0 15-20 34-6 43-2 2 2 4 3 7 2-3 3 5 7 5 10s8 7 7 9c-3 3-13 14-22 18-13 5-27-5-28-5-28 3 3 23 8 23 14 1 24 17 46-24 4-2 5-5 5-7l8-2c1-2-3-15-4-18s-4-13-9-10c-4 4-8 5-13 5 8-4 14-20 2-26-12-8-27-3-39-9Zm400 0c-15 0-29 8-33 36 1 5 1 22 17 0 15-20 34-6 43-2 2 2 4 3 7 2-3 3 5 7 5 10s8 7 7 9c-3 3-13 14-22 18-13 5-27-5-28-5-28 3 3 23 8 23 14 1 24 17 46-24 4-2 5-5 5-7l8-2c1-2-3-15-4-18s-4-13-9-10c-4 4-8 5-13 5 8-4 14-20 2-26-12-8-27-3-39-9Zm400 0c-15 0-29 8-33 36 1 5 1 22 17 0 15-20 34-6 43-2 2 2 4 3 7 2-3 3 5 7 5 10s8 7 7 9c-3 3-13 14-22 18-13 5-27-5-28-5-28 3 3 23 8 23 14 1 24 17 46-24 4-2 5-5 5-7l8-2c1-2-3-15-4-18s-4-13-9-10c-4 4-8 5-13 5 8-4 14-20 2-26-12-8-27-3-39-9Zm-722 1c-3 0-8 0-9 5-1 3 2 10 3 12 1 4 5 13 10 13 2 0 3-7 7-9 9-5 7-21-11-21Zm400 0c-3 0-8 0-9 5-1 3 2 10 3 12 1 4 5 13 10 13 2 0 3-7 7-9 9-5 7-21-11-21Zm400 0c-3 0-8 0-9 5-1 3 2 10 3 12 1 4 5 13 10 13 2 0 3-7 7-9 9-5 7-21-11-21Zm-924 8h-1c-6 0-12 6-23 9h-11c-6 2-7 8 2 14 16 11 23 4 33-4 7-6 6-18 0-19Zm376 9h-11c-6 2-7 8 2 14 16 11 23 4 33-4 8-6 6-18 0-19-7 0-13 6-24 9Zm424-9h-1c-6 0-12 6-23 9h-11c-6 2-7 8 2 14 16 11 23 4 33-4 8-6 6-18 0-19Zm-901 25c-8 0-16 1-19 11v5c2 6 9 2 13 4 11 1 38-2 25 18l-23 17c-9 6-16 10-6 21 16 4 32-23 48-20 9-9 12-26 16-39-5-12-31-17-50-17Zm400 0c-8 0-16 1-19 11v5c2 6 9 2 13 4 11 1 38-2 25 18l-23 17c-9 6-16 10-6 21 16 4 32-23 48-20 9-9 12-26 16-39-5-12-31-17-50-17Zm400 0c-8 0-16 1-19 11v5c2 6 9 2 13 4 11 1 38-2 25 18l-23 17c-9 6-16 10-6 21 16 4 32-23 48-20 9-9 12-26 16-39-5-12-31-17-50-17Zm-643 9-2 1-21 4c-6 2-12 7-9 12 2 4 13-2 22 0 8 0 18 8 25 0 8-10-8-18-15-17Zm400 0-2 1-21 4c-6 2-12 7-9 12 2 4 13-2 22 0 8 0 18 8 25 0 8-10-8-18-15-17Zm398 1-21 4c-6 2-12 7-9 12 2 4 13-2 22 0 8 0 18 8 25 0 10-12-13-20-17-16Zm-597 6c-8 0-20 9-19 17-12 10-13-18-30-16-6-1-9 23-9 28 1 10 14 4 24 9 5 2 13 0 17-6 3 9 7 4 18 9 4 2 13 2 18-1 6-5-3-10-5-14-5-7-2-23-11-26Zm400 0c-8 0-20 9-19 17-12 10-13-18-30-16-6-1-9 23-9 28 1 10 14 4 24 9 5 2 13 0 17-6 3 9 7 4 18 9 4 2 13 2 18-1 6-5-3-10-5-14-5-7-2-23-11-26Zm400 0c-8 0-20 9-19 17-12 10-13-18-30-16-6-1-9 23-9 28 1 10 14 4 24 9 5 2 13 0 17-6 3 9 7 4 18 9 4 2 13 2 18-1 6-5-3-10-5-14-5-7-2-23-11-26Zm-912 3c-4 0-8.1.7-12 2-10 4-10 14-10 14-2 1-5 3-5 5 3 7 4 18 9 21 3 2 7 1 11-1 2 0-2-7 1-12 1-2 9-4 10-5 7-7 13-6 12 9l2 10 13 3 4-17c-1-7 2-13 2-23-12-2-25-7-37-6Zm400 0c-4 0-8.1.7-12 2-10 4-10 14-10 14-2 1-5 3-5 5 3 7 4 18 9 21 3 2 7 1 11-1 2 0-2-7 1-12 1-2 9-4 10-5 7-7 13-6 12 9l2 10 13 3 4-17c-1-7 2-13 2-23-12-2-25-7-37-6Zm400 0c-4 0-8 0-12 2-10 4-10 14-10 14-2 0-5 3-5 5 3 7 4 18 9 20 3 3 7 2 11 0 2 0-2-7 1-12 1-2 9-4 10-5 7-7 13-6 12 9l2 10 13 3 4-17c-1-7 2-13 2-23-12-2-25-7-37-6Zm-947 1c-15-1-19 16-26 26-9 34 18 9 26 10l10-9a50 50 0 0 1-10-27Zm400 0c-15-1-19 16-26 26-9 34 18 9 26 10l10-9a50 50 0 0 1-10-27Zm400 0c-15-1-19 16-26 26-9 34 18 9 26 10l10-9a50 50 0 0 1-10-27Zm-919 7v14l3 5c4 3 8 3 11-7 1-5-2-12-8-12Zm400 0c-1 1-2 2-2 7l2 7 3 5c4 3 8 3 11-7 1-5-2-12-8-12Zm400 0c-1 1-2 2-2 7l2 7 3 5c4 3 8 3 11-7 1-5-2-12-8-12Zm400 0c-1 1-2 2-2 7l2 7c0-5 6-10 0-14Zm-1071 20-9 9c-4 15-7 20-12 23-18 22-35 20-44 0-48 12 7 50 26 37 16-11 35-21 46-42 5-10-1-18-7-27Zm400 0-9 9c-4 15-7 20-12 23-18 22-35 20-44 0-48 12 7 50 26 37 16-11 35-21 46-42 5-10-1-18-7-27Zm400 0-9 9c-4 15-7 20-12 23-18 22-35 20-44 0-48 12 7 50 26 37 16-11 35-21 46-42 5-10-1-18-7-27Zm-600 16c-17 1-15 33 2 19 5-1 23-4 22-11-5-6-16-7-24-8Zm400 0c-17 1-15 33 2 19 5-1 23-4 22-11-5-6-16-7-24-8Zm400 0c-17 1-15 33 2 19 5-1 23-4 22-11-5-6-16-7-24-8Zm-906 4c-4 0-14 6-15 11-1 4 9 10 10 10l1 2c2-6 8-5 11-1 3 2 7 6 5 10-1 5-2 12-8 12a10 10 0 0 1-12-2c-6-2-4-8-1-11 1-6-8-3-11-8l-13 22c3 6 13 4 18 8 4 4 9 0 13 0a70 70 0 0 0 19-6c3-3 0-8 3-12 0-4 5-10-1-12-4-3-4-10-8-14-3-5-7-9-11-9Zm61 0-2 13c-3 5-11 1-15-2-2 2-8 5-8 9 0 3 5 7 6 11 1 10 3 18 9 14 5-8 10 1 14-11 2-4 5-25 7-30l1-2Zm339 0c-4 0-14 6-15 11-1 4 9 10 10 10l1 2c2-6 8-5 11-1 3 2 7 6 5 10-1 5-2 12-8 12a10 10 0 0 1-12-2c-6-2-4-8-1-11 1-6-8-3-11-8l-13 22c3 6 13 4 18 8 4 4 9 0 13 0a70 70 0 0 0 19-6c3-3 0-8 3-12 0-4 5-10-1-12-4-3-4-10-8-14-3-5-7-9-11-9Zm61 0-2 13c-3 5-11 1-15-2-2 2-8 5-8 9 0 3 5 7 6 11 1 10 3 18 9 14 5-8 10 1 14-11 2-4 5-25 7-30l1-2Zm339 0c-4 0-14 6-15 11-1 4 9 10 10 10l1 2c2-6 8-5 11-1 3 2 7 6 5 10-1 5-2 12-8 12a10 10 0 0 1-12-2c-6-2-4-8-1-11 1-6-8-3-11-8l-13 22c3 6 13 4 18 8 4 4 9 0 13 0a70 70 0 0 0 19-6c3-3 0-8 3-12 0-4 5-10-1-12-4-3-4-10-8-14-3-5-7-9-11-9Zm61 0-2 13c-3 5-11 1-15-2-2 2-8 5-8 9 0 3 5 7 6 11 1 10 3 18 9 14 5-8 10 1 14-11 2-4 5-25 7-30l1-2Zm-710 4-12 6c-6 4 1 7-1 12-3 5-16 13-10 17 14-11 58-19 31-29Zm400 0-12 6c-6 4 1 7-1 12-3 5-16 13-10 17 14-11 58-19 31-29Zm400 0-12 6c-6 4 1 7-1 12-3 5-16 13-10 17 14-11 58-19 31-29Zm-996 3c-4 0-7 1-6 7 1 5 7 10 16 3 2-2 1-5 0-7a20 20 0 0 0-10-3Zm400 0c-4 0-7 1-6 7 1 5 7 10 16 3 2-2 1-5 0-7a20 20 0 0 0-10-3Zm400 0c-4 0-7 1-6 7 1 5 7 10 16 3 2-2 1-5 0-7a20 20 0 0 0-10-3Zm-823 5h-7c0 16-29 32-35 35-5 22 25 7 34-1 13 0 36 1 28-15-1-3-10-3-14-7-3-3 1-9-4-12Zm400 0h-7c0 16-29 32-35 35-5 22 25 7 34-1 13 0 36 1 28-15-1-3-10-3-14-7-3-3 1-9-4-12Zm400 0h-7c0 16-29 32-35 35-5 22 25 7 34-1 13 0 36 1 28-15-1-3-10-3-14-7-3-3 1-9-4-12Zm-937 15c-4 0-11 4-18 4v15c10 4 15 5 20 1 5-5 4-13 1-18Zm400 0c-5 0-11 4-18 4-2 0-4 0-5 3l-9-2c-8 13-20 4-28 15-14 5-11 15-4 22-7 18 20 10 15 27 7 3 19 2 27-1l4 2c10 5 27-8 24-14-1-3-4-9-7-6-5 4-11 1-17-1l-2-2c-5-3-5 2-9 2-6-7-21-11-7-19 3-2 11-7 16-12l2 1c10 4 15 5 20 1 5-5 4-13 1-18Zm400 0c-5 0-11 4-18 4-2 0-4 0-5 3l-9-2c-8 13-20 4-28 15-14 5-11 15-4 22-7 18 20 10 15 27 7 3 19 2 27-1l4 2c10 5 27-8 24-14-1-3-4-9-7-6-5 4-11 1-17-1l-2-2c-5-3-5 2-9 2-6-7-21-11-7-19 3-2 11-7 16-12l2 1c10 4 15 5 20 1 5-5 4-13 1-18Zm-504 4c-8 1-25 29-1 23 6-2 11-5 15-9 6-7-4-14-14-14Zm400 0c-8 1-25 29-1 23 6-2 11-5 15-9 6-7-4-14-14-14Zm400 0c-8 1-25 29-1 23 6-2 11-5 15-9 6-7-4-14-14-14Zm86 0c-2 0-4 0-5 3l-9-2c-8 13-20 4-28 15-14 5-11 15-4 22-7 18 20 10 15 27 7 3 19 2 27-1l4 2c2-6 6-10 0-21l-2-2c-5-3-5 2-9 2-6-7-21-11-7-19 3-2 11-7 16-12l2 1c6-8 5-13 0-15Zm-1158 11c-21 11 9 26 6 4-1-2-4-4-6-4Zm400 0c-21 11 9 26 6 4-1-2-4-4-6-4Zm400 0c-21 11 9 26 6 4-1-2-4-4-6-4Zm-592 11c-3 0-5 0-7 2-7 8 7 31-10 29l-10 5v9c23 1 45-2 34-32a40 40 0 0 0-7-13Zm400 0c-3 0-5 0-7 2-7 8 7 31-10 29l-10 5v9c23 1 45-2 34-32a40 40 0 0 0-7-13Zm400 0c-3 0-5 0-7 2-7 8 7 31-10 29l-10 5v9c23 1 45-2 34-32a39.9 39.9 0 0 0-7-13Zm-897 6c-22 4-1 50-23 44-4-14-17-50-35-31-2 19 14 47 22 63 13 3 33-20 47-26 3-15 14-50-11-50Zm400 0c-22 4-1 50-23 44-4-14-17-50-35-31-2 19 14 47 22 63 13 3 33-20 47-26 3-15 14-50-11-50Zm400 0c-22 4-1 50-23 44-4-14-17-50-35-31-2 19 14 47 22 63 13 3 33-20 47-26 3-15 14-50-11-50Zm-900 2c-20 3 14 31 2 33 0 1-9 14-12 13-4-1-3-17-4-17-14 10-20 30-27 42 10 13 18-7 25 0 17-3 24-21 42-16 27-21-10-41-26-55Zm264 0c-8 1-13 6-19 10-10 5-9 9-16 15 4 25 31-13 41 0 1 10-4 34 14 25-10 9-47 6-35 24 21 5 63-7 49-36-7-17-13-38-34-38Zm136 0c-20 3 14 31 2 33 0 1-9 14-12 13-4-1-3-17-4-17-14 10-20 30-27 42 10 13 18-7 25 0 17-3 24-21 42-16 27-21-10-41-26-55Zm264 0c-8 1-13 6-19 10-10 5-9 9-16 15 4 25 31-13 41 0 1 10-4 34 14 25-10 9-47 6-35 24 21 5 63-7 49-36-7-17-13-38-34-38Zm136 0c-20 3 14 31 2 33 0 1-9 14-12 13-4-1-3-17-4-17-14 10-20 30-27 42 10 13 18-7 25 0 17-3 24-21 42-16 27-21-10-41-26-55Zm264 0c-8 1-13 6-19 10-10 5-9 9-16 15 4 25 31-13 41 0 1 10-4 34 14 25-10 9-47 6-35 24 21 5 63-7 49-36-7-17-13-38-34-38Zm-919 5c-16 1-22 26-20 34 11 15 28 2 42-2v-9h-3c-9 1-19-6-11-18-2-2-3-5-8-5Zm400 0c-16 1-22 26-20 34 11 15 28 2 42-2v-9h-3c-9 1-19-6-11-18-2-2-3-5-8-5Zm400 0c-16 1-22 26-20 34 11 15 28 2 42-2v-9h-3c-9 1-19-6-11-18-2-2-3-5-8-5Zm-998 10v21c10 5 27-8 24-14-1-3-4-9-7-6-5 4-11 1-17-1Zm293 23-5 2c-19 9 9 30 13 9 1-5-3-11-7-11Zm400 0-5 2c-19 9 9 30 13 9 1-5-3-11-7-11h-2Zm400 0-5 2c-19 9 9 30 13 9 1-5-3-11-7-11h-2Zm-835 6c-17 1-38 3-22 32 11 12 18 28 33 36 12 3 44-13 23-24-14 9-33 4-33-13-10-10 22-16 6-30Zm400 0c-17 1-38 3-22 32 11 12 18 28 33 36 12 3 44-13 23-24-14 9-33 4-33-13-10-10 22-16 6-30Zm400 0c-17 1-38 3-22 32 11 12 18 28 33 36 12 3 44-13 23-24-14 9-33 4-33-13-10-10 22-16 6-30Zm-687 8c-9 0-8 22 6 27 1 18 31 21 19 1-11-20-20-28-25-28Zm400 0c-9 0-8 22 6 27 1 18 31 21 19 1-11-20-20-28-25-28Zm400 0c-9 0-8 22 6 27 1 18 31 21 19 1-11-20-20-28-25-28Zm-972 3c-11 2-24 4-30 14-1 10 11 7 17 3 5-4 10-5 9 2 0 7 13 14 2 18-8 0-18 12-5 13 11-2 22-3 33-7 4 0 1-4 4-7-7-6-9-16-16-22-5-3-8-14-14-14Zm400 0c-11 2-24 4-30 14-1 10 11 7 17 3 5-4 10-5 9 2 0 7 13 14 2 18-8 0-18 12-5 13 11-2 22-3 33-7 4 0 1-4 4-7-7-6-9-16-16-22-5-3-8-14-14-14Zm400 0c-11 2-24 4-30 14-1 10 11 7 17 3 5-4 10-5 9 2 0 7 13 14 2 18-8 0-18 12-5 13 11-2 22-3 33-7 4 0 1-4 4-7-7-6-9-16-16-22-5-3-8-14-14-14Zm-923 15-41 25c-25-8-28 10-24 21 2 4 5 7 8 8a60 60 0 0 0 27-8c15-8 23-20 34-17 6 4 5 12 5 17l2 3c-14 7-45 15-24 34 12 4 31-2 44-4 5-1 1-23 0-31l-2-2-3-4c0-5 2-11 1-16l-7-15c-6-5-12-10-20-11Zm400 0-41 25c-25-8-28 10-24 21 2 4 5 7 8 8a60 60 0 0 0 27-8c15-8 23-20 34-17 6 4 5 12 5 17l2 3c-14 7-45 15-24 34 12 4 31-2 44-4 5-1 1-23 0-31l-2-2-3-4c0-5 2-11 1-16l-7-15c-6-5-12-10-20-11Zm400 0-41 25c-25-8-28 10-24 21 2 4 5 7 8 8a60 60 0 0 0 27-8c15-8 23-20 34-17 6 4 5 12 5 17l2 3c-14 7-45 15-24 34 12 4 31-2 44-4 5-1 1-23 0-31l-2-2-3-4c0-5 2-11 1-16l-7-15c-6-5-12-10-20-11Zm-524 6c-6 0-10 6-15 11-7 9-13 19-25 21l-1 8c-1 15 19 8 31 0l8-6c5-1 8 2 10 6l-2 4c-4 7-2 23-19 30-2 6 2 8 4 11 6 5 15 7 18 0 16 3 23-11 24-25 1-10-3-18-3-20h1c-1-2-3-3-6-3-5-10-13-20-16-30-3-5-6-7-10-7Zm400 0c-6 0-10 6-15 11-7 9-13 19-25 21l-1 8c-1 15 19 8 31 0l8-6c5-1 8 2 10 6l-2 4c-4 7-2 23-19 30-2 6 2 8 4 11 6 5 15 7 18 0 16 3 23-11 24-25 1-10-3-18-3-20h1c-1-2-3-3-6-3-5-10-13-20-16-30-3-5-6-7-10-7Zm385 11c-7 9-13 19-25 21l-1 8c-1 15 19 8 31 0l8-6c5-1 8 2 10 6l-2 4c-4 7-2 23-19 30-2 6 2 8 4 11 6 5 15 7 18 0 16 3 23-11 24-25 1-10-3-18-3-20h1c-1-2-3-3-6-3-5-10-13-20-16-30-3-5-6-7-10-7s-10 6-14 11Zm-993-6c0 6-37 21-16 32 3 1 5 0 5 3-1 5 5 18 5 29 0 9 17-3 26-4 24 1 50-4 64-25 2-8-1-11-5-11-6 0-15 6-20 11-9 9-27 8-41 0-9-8-16-18-7-31-1-4-7-2-11-4Zm400 0c0 6-37 21-16 32 3 1 5 0 5 3-1 5 5 18 5 29 0 9 17-3 26-4 24 1 50-4 64-25 2-8-1-11-5-11-6 0-15 6-20 11-9 9-27 8-41 0-9-8-16-18-7-31-1-4-7-2-11-4Zm400 0c0 6-37 21-16 32 3 1 5 0 5 3-1 5 5 18 5 29 0 9 17-3 26-4 24 1 50-4 64-25 2-8-1-11-5-11-6 0-15 6-20 11-9 9-27 8-41 0-9-8-16-18-7-31-1-4-7-2-11-4Zm-696 36c-9 0-21 19-17 24 1 1 8 3 12 1 3-2 3-8 5-9 4-2 6-6 6-10-2-4-4-6-6-6Zm400 0c-9 0-21 19-17 24 1 1 8 3 12 1 3-2 3-8 5-9 4-2 6-6 6-10-2-4-4-6-6-6Zm400 0c-9 0-21 19-17 24 1 1 8 3 12 1 3-2 3-8 5-9 4-2 6-6 6-10-2-4-4-6-6-6Zm-754 2c-11 1-37 20-19 22-4 5-8 5-13 9l-4 10c-2-4-5-6-11-7-4 1-13 1-16 5s-5 9-3 14c3 7 6 12 17 8 20-6 23-12 26-20 4-3 5-9 9-12 3-4 14-9 17-12 7-4 5-10-3-17Zm400 0c-11 1-37 20-19 22-4 5-8 5-13 9l-4 10c-2-4-5-6-11-7-4 1-13 1-16 5s-5 9-3 14c3 7 6 12 17 8 20-6 23-12 26-20 4-3 5-9 9-12 3-4 14-9 17-12 7-4 5-10-3-17Zm400 0c-11 1-37 20-19 22-4 5-8 5-13 9l-4 10c-2-4-5-6-11-7-4 1-13 1-16 5s-5 9-3 14c3 7 6 12 17 8 20-6 23-12 26-20 4-3 5-9 9-12 3-4 14-9 17-12 7-4 5-10-3-17Zm-1082 7c-4 1-9 4-12 8v28l4 1c5 13 29 24 27 4 8 3 13-9 13-18l-10 2c1 3-9 7-14 7s-7-5-7-7c0-4 4-9 8-9 3 0 13 3 14 5l9-1c-1-3-2-5-4-6 0-12-20-9-28-14Zm400 0c-4 1-9 4-12 8-4 5-7 11-7 17 0 5 2 9 7 11l4 1c5 13 29 24 27 4 8 3 13-9 13-18l-10 2c1 3-9 7-14 7s-7-5-7-7c0-4 4-9 8-9 3 0 13 3 14 5l9-1c-1-3-2-5-4-6 0-12-20-9-28-14Zm400 0c-4 1-9 4-12 8-4 5-7 11-7 17 0 5 2 9 7 11l4 1c5 13 29 24 27 4 8 3 13-9 13-18l-10 2c1 3-9 7-14 7s-7-5-7-7c0-4 4-9 8-9 3 0 13 3 14 5l9-1c-1-3-2-5-4-6 0-12-20-9-28-14Zm388 8c-4 5-7 11-7 17 0 5 2 9 7 11Zm-890 7c-7 6-24 15-29 24-6 9-2 12 3 14-1 5 20 23 24 17 7 7 13 6 18 3 21-10-1-35-13-16-4-5-14-5-20-10 7-3 20-13 24-19 3-3-2-10-7-13Zm400 0c-7 6-24 15-29 24-6 9-2 12 3 14-1 5 20 23 24 17 7 7 13 6 18 3 21-10-1-35-13-16-4-5-14-5-20-10 7-3 20-13 24-19 3-3-2-10-7-13Zm400 0c-7 6-24 15-29 24-6 9-2 12 3 14-1 5 20 23 24 17 7 7 13 6 18 3 21-10-1-35-13-16-4-5-14-5-20-10 7-3 20-13 24-19 3-3-2-10-7-13Zm-934 18-11 9 7 11c12-6 25 15 18 28-2 7 0 10 3 13 4 5 12 10 17 5 4-3 6-13 4-20 3-20-7-41-27-45Zm400 0-11 9 7 11c12-6 25 15 18 28-2 7 0 10 3 13 4 5 12 10 17 5 4-3 6-13 4-20 3-20-7-41-27-45Zm400 0-11 9 7 11c12-6 25 15 18 28-2 7 0 10 3 13 4 5 12 10 17 5 4-3 6-13 4-20 3-20-7-41-27-45Zm-891 8c0 6-24-3-26 3-2 8-5 21 6 22 6-2 29 6 32 12 4 8-12 15-24 10-6 1-17-4-16 2 0 6-2 16 5 24 15 6 22-16 35-5 17-2 34-26 17-37 6-5-9-14 0-9-7-8-1-15-5-16-3-1-14 4-20-5Zm400 0c0 6-24-3-26 3-2 8-5 21 6 22 6-2 29 6 32 12 4 8-12 15-24 10-6 1-17-4-16 2 0 6-2 16 5 24 15 6 22-16 35-5 17-2 34-26 17-37 6-5-9-14 0-9-7-8-1-15-5-16-3-1-14 4-20-5Zm400 0c0 6-24-3-26 3-2 8-5 21 6 22 6-2 29 6 32 12 4 8-12 15-24 10-6 1-17-4-16 2 0 6-2 16 5 24 15 6 22-16 35-5 17-2 34-26 17-37 6-5-9-14 0-9-7-8-1-15-5-16-3-1-14 4-20-5Zm-723 2c-6 5-10 1-20 1-2 12-4 28 1 42 5 7 8 6 12 5 21 0 13-22 13-34l3-4Zm400 0c-6 5-10 1-20 1-2 12-4 28 1 42 5 7 8 6 12 5 21 0 13-22 13-34l3-4Zm400 0c-6 5-10 1-20 1-2 12-4 28 1 42 5 7 8 6 12 5 21 0 13-22 13-34l3-4Zm-578 5c-38 12-44 28-44 45 7 2 7 28 23 16 2 0 22-12 31-25l6 7 10 9c5 7-3 8-10 12a10 10 0 0 0-6 5c-5-4-13-7-18-7-9 3-13 10-10 15s14 16 22 16c5-2 7-9 9-13l3 3c12 7 31-4 40-13 9-22-10-44-27-56-4-3-8-7-13-6Zm400 0c-38 12-44 28-44 45 7 2 7 28 23 16 2 0 22-12 31-25l6 7 10 9c5 7-3 8-10 12a10 10 0 0 0-6 5c-5-4-13-7-18-7-9 3-13 10-10 15s14 16 22 16c5-2 7-9 9-13l3 3c12 7 31-4 40-13 9-22-10-44-27-56-4-3-8-7-13-6Zm400 0c-38 12-44 28-44 45 7 2 7 28 23 16 2 0 22-12 31-25l6 7c10-14 9-25 0-35Zm-1182 8h-2v35l10 9c5 7-3 8-10 12v19c12 7 31-4 40-13 9-22-10-44-27-56-4-3-7-6-11-6Zm266 10h-8c-7 1-16 0-20 5-6 7-4 18-4 30 13 8 36-6 44-8 2 5 14 19 14 19-1-1 0 7-3 9-4 3-13 1-15 3-11 6-18 11-12 25 18 0 58 5 50-20 0-8 9-28 1-32-10-5-20-23-35-25-4-5-8-7-12-7Zm400 0h-8c-7 1-16 0-20 5-6 7-4 18-4 30 13 8 36-6 44-8 2 5 14 19 14 19-1-1 0 7-3 9-4 3-13 1-15 3-11 6-18 11-12 25 18 0 58 5 50-20 0-8 9-28 1-32-10-5-20-23-35-25-4-5-8-7-12-7Zm400 0h-8c-7 1-16 0-20 5-6 7-4 18-4 30 13 8 36-6 44-8 2 5 14 19 14 19-1-1 0 7-3 9-4 3-13 1-15 3-11 6-18 11-12 25 18 0 58 5 50-20 0-8 9-28 1-32-10-5-20-23-35-25-4-5-8-7-12-7Zm108 44c-9 3-13 10-10 15s14 16 22 16c5-2 7-9 9-13l3 3c8-7 6-13 0-19a10 10 0 0 0-6 5c-5-4-13-7-18-7Zm-841 1c-6 0-7 19-7 25-1 11 5 10 14 14 4 4 16 3 18-4 1-4-3-10-10-21-1-5-9-13-15-14Zm400 0c-6 0-7 19-7 25-1 11 5 10 14 14 4 4 16 3 18-4 1-4-3-10-10-21-1-5-9-13-15-14Zm400 0c-6 0-7 19-7 25-1 11 5 10 14 14 4 4 16 3 18-4 1-4-3-10-10-21-1-5-9-13-15-14Zm-968 1c-15 0-29 8-33 36 1 5 1 22 17 0 15-20 34-6 43-2 2 2 4 3 7 2-3 3 5 7 5 10s8 7 7 9c-3 3-13 14-22 18-13 5-27-5-28-5-28 3 3 23 8 23 14 1 24 17 46-24 4-2 5-5 5-7l8-2c1-2-3-15-4-18s-4-13-9-10c-4 4-8 5-13 5 8-4 14-20 2-26-12-8-27-3-39-9Zm400 0c-15 0-29 8-33 36 1 5 1 22 17 0 15-20 34-6 43-2 2 2 4 3 7 2-3 3 5 7 5 10s8 7 7 9c-3 3-13 14-22 18-13 5-27-5-28-5-28 3 3 23 8 23 14 1 24 17 46-24 4-2 5-5 5-7l8-2c1-2-3-15-4-18s-4-13-9-10c-4 4-8 5-13 5 8-4 14-20 2-26-12-8-27-3-39-9Zm400 0c-15 0-29 8-33 36 1 5 1 22 17 0 15-20 34-6 43-2 2 2 4 3 7 2-3 3 5 7 5 10s8 7 7 9c-3 3-13 14-22 18-13 5-27-5-28-5-28 3 3 23 8 23 14 1 24 17 46-24 4-2 5-5 5-7l8-2c1-2-3-15-4-18s-4-13-9-10c-4 4-8 5-13 5 8-4 14-20 2-26-12-8-27-3-39-9Zm-722 1c-3 0-8 0-9 5-1 3 2 10 3 12 1 4 5 13 10 13 2 0 3-7 7-9 9-5 7-21-11-21Zm400 0c-3 0-8 0-9 5-1 3 2 10 3 12 1 4 5 13 10 13 2 0 3-7 7-9 9-5 7-21-11-21Zm400 0c-3 0-8 0-9 5-1 3 2 10 3 12 1 4 5 13 10 13 2 0 3-7 7-9 9-5 7-21-11-21Zm-924 8h-1c-6 0-12 6-23 9h-11c-6 2-7 8 2 14 16 11 23 4 33-4 7-6 6-18 0-19Zm376 9h-11c-6 2-7 8 2 14 16 11 23 4 33-4 8-6 6-18 0-19-9 0-10 5-24 9Zm424-9h-1c-6 0-12 6-23 9h-11c-6 2-7 8 2 14 16 11 23 4 33-4 8-6 6-18 0-19Zm-901 25c-8 0-16 1-19 11v5c2 6 9 2 13 4 11 1 38-2 25 18l-23 17c-9 6-16 10-6 21 16 4 32-23 48-20 9-9 12-26 16-39-5-12-31-17-50-17Zm400 0c-8 0-16 1-19 11v5c2 6 9 2 13 4 11 1 38-2 25 18l-23 17c-9 6-16 10-6 21 16 4 32-23 48-20 9-9 12-26 16-39-12-16-35-16-54-17Zm400 0c-8 0-16 1-19 11v5c2 6 9 2 13 4 11 1 38-2 25 18l-23 17c-9 6-16 10-6 21 16 4 32-23 48-20 9-9 12-26 16-39-12-16-35-16-54-17Zm-643 9-2 1-21 4c-6 2-12 7-9 12 2 4 13-2 22 0 8 0 18 8 25 0 8-10-8-18-15-17Zm398 1-21 4c-6 2-12 7-9 12 2 4 13-2 22 0 8 0 18 8 25 0 10-12-13-20-17-16Zm400 0-21 4c-6 2-12 7-9 12 2 4 13-2 22 0 8 0 18 8 25 0 10-12-13-20-17-16Zm-616 23c-12 10-13-18-30-16-6-1-9 23-9 28 1 10 14 4 24 9 5 2 13 0 17-6 3 9 7 4 18 9 4 2 13 2 18-1 6-5-3-10-5-14-5-7-2-23-11-26-6-2-24 7-22 17Zm419-17c-8 0-20 9-19 17-12 10-13-18-30-16-6-1-9 23-9 28 1 10 14 4 24 9 5 2 13 0 17-6 3 9 7 4 18 9 4 2 13 2 18-1 6-5-3-10-5-14-5-7-2-23-11-26Zm400 0c-8 0-20 9-19 17-12 10-13-18-30-16-6-1-9 23-9 28 1 10 14 4 24 9 5 2 13 0 17-6 3 9 7 4 18 9 4 2 13 2 18-1 6-5-3-10-5-14-5-7-2-23-11-26Zm-924 5c-10 4-10 14-10 14-2 1-5 3-5 5 3 7 4 18 9 21 3 2 7 1 11-1 2 0-2-7 1-12 1-2 9-4 10-5 7-7 13-6 12 9l2 10 13 3 4-17c-1-7 2-13 2-23a92 92 0 0 0-49-4Zm400 0c-10 4-10 14-10 14-2 1-5 3-5 5 3 7 4 18 9 21 3 2 7 1 11-1 2 0-2-7 1-12 1-2 9-4 10-5 7-7 13-6 12 9l2 10 13 3 4-17c-1-7 2-13 2-23-12-2-25-7-33-6-8 0-12 0-16 2Zm412-2c-4 0-8 0-12 2-10 4-10 14-10 14-2 0-5 3-5 5 3 7 4 18 9 20 3 3 7 2 11 0 2 0-2-7 1-12 1-2 9-4 10-5 7-7 13-6 12 9l2 10 13 3 4-17c-1-7 2-13 2-23-12-2-25-7-37-6Zm-947 1c-15-1-19 16-26 26-9 34 18 9 26 10l10-9c-5-8-10-16-10-27Zm400 0c-15-1-19 16-26 26-9 34 18 9 26 10l10-9c-5-8-10-16-10-27Zm400 0c-15-1-19 16-26 26-9 34 18 9 26 10l10-9c-5-8-10-16-10-27Zm-919 7v14l3 5c4 3 8 3 11-7 1-5-2-12-8-12Zm400 0c-1 1-2 2-2 7l2 7 3 5c4 3 8 3 11-7 1-5-2-12-8-12Zm400 0c-1 1-2 2-2 7l2 7 3 5c4 3 8 3 11-7 1-5-2-12-8-12Zm400 0c-1 1-2 2-2 7l2 7c0-5 6-10 0-14Zm-1071 20-9 9c-4 15-7 20-12 23-18 22-35 20-44 0-48 12 7 50 26 37 16-11 35-21 46-42 5-10-1-18-7-27Zm400 0-9 9c-4 15-7 20-12 23-18 22-35 20-44 0-48 12 7 50 26 37 16-11 35-21 46-42 5-10-1-18-7-27Zm400 2-9 7c-4 15-7 20-12 23-18 22-35 20-44 0-48 12 7 50 26 37 16-11 35-21 46-42 5-10 0-16-6-25Zm-600 14c-17 1-15 33 2 19 5-1 23-4 22-11-5-6-16-7-24-8Zm400 0c-17 1-15 33 2 19 5-1 23-4 22-11-5-6-16-7-24-8Zm400 0c-17 1-15 33 2 19 5-1 23-4 22-11-5-6-16-7-24-8Zm-906 4c-4 0-14 6-15 11s9 8 11 12c2-6 8-5 11-1 3 2 7 6 5 10-1 5-2 12-8 12a10 10 0 0 1-12-2c-6-2-4-8-1-11 1-6-8-3-11-8l-13 22c3 6 13 4 18 8 4 4 9 0 13 0 6.6-1 13-3.1 19-6 3-3 0-8 3-12 0-4 5-10-1-12-4-3-4-10-8-14-3-5-7-9-11-9Zm61 0-2 13c-3 5-11 1-15-2-2 2-8 5-8 9 0 3 5 7 6 11 1 10 3 18 9 14 5-8 10 1 14-11l8-32Zm339 0c-4 0-14 6-15 11-1 4 9 10 10 10l1 2c2-6 8-5 11-1 3 2 7 6 5 10-1 5-2 12-8 12a10 10 0 0 1-12-2c-6-2-4-8-1-11 1-6-8-3-11-8l-13 22c3 6 13 4 18 8 4 4 9 0 13 0 6.6-1 13-3.1 19-6 3-3 0-8 3-12 0-4 5-10-1-12-4-3-4-10-8-14-3-5-7-9-11-9Zm61 0-2 13c-3 5-11 1-15-2-2 2-8 5-8 9 0 3 5 7 6 11 1 10 3 18 9 14 5-8 10 1 14-11 2-4 5-25 7-30l1-2Zm339 0c-4 0-14 6-15 11-1 4 9 10 10 10l1 2c2-6 8-5 11-1 3 2 7 6 5 10-1 5-2 12-8 12a10 10 0 0 1-12-2c-6-2-4-8-1-11 1-6-8-3-11-8l-13 22c3 6 13 4 18 8 4 4 9 0 13 0 6.6-1 13-3.1 19-6 3-3 0-8 3-12 0-4 5-10-1-12-4-3-4-10-8-14-3-5-7-9-11-9Zm61 0-2 13c-3 5-11 1-15-2-2 2-8 5-8 9 0 3 5 7 6 11 1 10 3 18 9 14 5-8 10 1 14-11 2-4 5-25 7-30l1-2Zm-710 4-12 6c-6 4 1 7-1 12-3 5-16 13-10 17 14-11 58-19 31-29Zm400 0-12 6c-6 4 1 7-1 12-3 5-16 13-10 17 14-11 58-19 31-29Zm400 0-12 6c-6 4 1 7-1 12-3 5-16 13-10 17 14-11 58-19 31-29Zm-996 3c-4 0-7 2-6 7s7 10 16 3c2-2 1-5 0-7a20 20 0 0 0-10-3Zm400 0c-4 0-7 2-6 7s7 10 16 3c2-2 1-5 0-7a20 20 0 0 0-10-3Zm400 0c-4 0-7 2-6 7s7 10 16 3c2-2 1-5 0-7a20 20 0 0 0-10-3Zm-830 5c0 16-30 32-35 35-5 22 25 7 34-1 13 0 36 1 28-15-1-3-10-3-14-7-3-3 0-9-4-12h-10Zm407 0h-7c0 16-30 32-35 35-5 22 25 7 34-1 13 0 36 1 28-15-1-3-10-3-14-7-3-3 0-9-4-12Zm393 0c0 16-30 32-35 35-5 22 25 7 34-1 13 0 36 1 28-15-1-3-10-3-14-7-3-3 0-9-4-12h-10Zm-930 15c-4 0-11 4-18 4v15c10 4 15 5 20 1 5-5 4-13 1-18Zm400 0c-5 0-11 4-18 4-2 0-4 0-5 3l-9-2c-8 13-20 4-28 15-14 5-11 15-4 22-7 18 20 10 15 27 7 3 19 2 27-1l4 2c10 5 27-8 24-14-1-3-4-9-7-6-5 4-11 1-17-1l-2-2c-5-3-5 2-9 2-6-7-21-11-7-19 3-2 11-7 16-12l2 1c10 4 15 5 20 1 5-5 4-13 1-18Zm400 0c-5 0-11 4-18 4-2 0-4 0-5 3l-9-2c-8 13-20 4-28 15-14 5-11 15-4 22-7 18 20 10 15 27 7 3 19 2 27-1l4 2c10 5 27-8 24-14-1-3-4-9-7-6-5 4-11 1-17-1l-2-2c-5-3-5 2-9 2-6-7-21-11-7-19 3-2 11-7 16-12l2 1c10 4 15 5 20 1 5-5 4-13 1-18Zm-504 4c-8 1-25 29-1 23 6-2 11-5 15-9 6-7-4-14-14-14Zm400 0c-8 1-25 29-1 23 6-2 11-5 15-9 6-7-4-14-14-14Zm400 0c-8 1-25 29-1 23 6-2 11-5 15-9 6-7-4-14-14-14Zm86 0c-2 0-4 0-5 3l-9-2c-8 13-20 4-28 15-14 5-11 15-4 22-7 18 20 10 15 27 7 3 19 2 27-1l4 2c2-6 6-10 0-21l-2-2c-5-3-5 2-9 2-6-7-21-11-7-19 3-2 11-7 16-12l2 1c6-8 5-13 0-15Zm-1158 11c-21 11 9 26 6 4-1-2-4-4-6-4Zm400 0c-21 11 9 26 6 4-1-2-4-4-6-4Zm400 0c-21 11 9 26 6 4-1-2-4-4-6-4Zm-592 11c-3 0-5 0-7 2-7 8 7 31-10 29l-10 5v9c23 1 45-2 34-32a40 40 0 0 0-7-13Zm400 0c-3 0-5 0-7 2-7 8 7 31-10 29l-10 5v9c23 1 45-2 34-32a40 40 0 0 0-7-13Zm400 0c-3 0-5 0-7 2-7 8 7 31-10 29l-10 5v9c23 1 45-2 34-32a39.9 39.9 0 0 0-7-13Zm-897 6c-22 4-1 50-23 44-4-14-17-50-35-31-2 19 14 47 22 63 13 3 33-20 47-26 3-15 14-50-11-50Zm400 0c-22 4-1 50-23 44-4-14-17-50-35-31-2 19 14 47 22 63 13 3 33-20 47-26 3-15 14-50-11-50Zm400 0c-22 4-1 50-23 44-4-14-17-50-35-31-2 19 14 47 22 63 13 3 33-20 47-26 3-15 14-50-11-50Zm-900 2c-20 3 14 31 2 33 0 1-9 14-12 13-4-1-3-17-4-17-14 10-20 30-27 42 10 13 18-7 25 0 17-3 24-21 42-16 27-21-10-41-26-55Zm264 0c-8 1-13 6-19 10-10 5-9 9-16 15 4 25 31-13 41 0 1 10-4 34 14 25-10 9-47 6-35 24 21 5 63-7 49-36-7-17-13-38-34-38Zm136 0c-20 3 14 31 2 33 0 1-9 14-12 13-4-1-3-17-4-17-14 10-20 30-27 42 10 13 18-7 25 0 17-3 24-21 42-16 27-21-10-41-26-55Zm264 0c-8 1-13 6-19 10-10 5-9 9-16 15 4 25 31-13 41 0 1 10-4 34 14 25-10 9-47 6-35 24 21 5 63-7 49-36-7-17-13-38-34-38Zm136 0c-20 3 14 31 2 33 0 1-9 14-12 13-4-1-3-17-4-17-14 10-20 30-27 42 10 13 18-7 25 0 17-3 24-21 42-16 27-21-10-41-26-55Zm264 0c-8 1-13 6-19 10-10 5-9 9-16 15 4 25 31-13 41 0 1 10-4 34 14 25-10 9-47 6-35 24 21 5 63-7 49-36-7-17-13-38-34-38Zm-919 5c-16 1-22 26-20 34 11 15 28 2 42-2v-9h-3c-9 1-19-6-11-18-2-2-3-5-8-5Zm400 0c-16 1-22 26-20 34 11 15 28 2 42-2v-9h-3c-9 1-19-6-11-18-2-2-3-5-8-5Zm400 0c-16 1-22 26-20 34 11 15 28 2 42-2v-9h-3c-9 1-19-6-11-18-2-2-3-5-8-5Zm-998 10v21c10 5 27-8 24-14-1-3-4-9-7-6-5 4-11 1-17-1Zm292 23-4 2c-19 9 9 30 13 9 1-5-3-11-7-11Zm400 0-4 2c-19 9 9 30 13 9 1-5-3-11-7-11Zm400 0-4 2c-19 9 9 30 13 9 1-5-3-11-7-11Zm-834 6c-17 1-38 3-22 32 11 12 18 28 33 36 12 3 44-13 23-24-14 9-33 4-33-13-10-10 22-16 6-30Zm400 0c-17 1-38 3-22 32 11 12 18 28 33 36 12 3 44-13 23-24-14 9-33 4-33-13-10-10 22-16 6-30Zm400 0c-17 1-38 3-22 32 11 12 18 28 33 36 12 3 44-13 23-24-14 9-33 4-33-13-10-10 22-16 6-30Zm-687 8c-9 0-8 22 6 27 1 18 31 21 19 1-11-20-20-28-25-28Zm400 0c-9 0-8 22 6 27 1 18 31 21 19 1-11-20-20-28-25-28Zm400 0c-9 0-8 22 6 27 1 18 31 21 19 1-11-20-20-28-25-28Zm-972 3c-11 2-24 4-30 14-1 10 11 7 17 3 5-4 10-5 9 2 0 7 13 14 2 18-8 0-18 12-5 13 11-2 22-3 33-7 4 0 1-4 4-7-7-6-9-16-16-22-5-3-8-14-14-14Zm400 0c-11 2-24 4-30 14-1 10 11 7 17 3 5-4 10-5 9 2 0 7 13 14 2 18-8 0-18 12-5 13 11-2 22-3 33-7 4 0 1-4 4-7-7-6-9-16-16-22-5-3-8-14-14-14Zm400 0c-11 2-24 4-30 14-1 10 11 7 17 3 5-4 10-5 9 2 0 7 13 14 2 18-8 0-18 12-5 13 11-2 22-3 33-7 4 0 1-4 4-7-7-6-9-16-16-22-5-3-8-14-14-14Zm-923 15-41 25c-25-8-28 10-24 21 11 6 23 1 35 0 15-8 23-20 34-17 6 4 5 12 5 17 10 4 15 2 20 0l-3-4c0-5 2-11 1-16l-7-15c-6-5-12-10-20-11Zm400 0-41 25c-25-8-28 10-24 21 11 6 23 1 35 0 15-8 23-20 34-17 6 4 5 12 5 17 10 4 15 2 20 0l-3-4c0-5 2-11 1-16l-7-15c-6-5-12-10-20-11Zm400 0-41 25c-25-8-28 10-24 21 11 6 23 1 35 0 15-8 23-20 34-17 6 4 5 12 5 17 10 4 15 2 20 0l-3-4c0-5 2-11 1-16l-7-15c-6-5-12-10-20-11Zm-524 6c-6 0-10 6-15 11-7 9-13 19-25 21l-1 8c6 6 20 2 31 0l8-6c5-1 8 2 10 6 5 10 13 7 23 0-1-2-3-3-6-3-5-10-13-20-16-30-3-5-6-7-10-7Zm400 0c-6 0-10 6-15 11-7 9-13 19-25 21l-1 8c6 6 20 2 31 0l8-6c5-1 8 2 10 6 5 10 13 7 23 0-1-2-3-3-6-3-5-10-13-20-16-30-3-5-6-7-10-7Zm400 0c-6 0-10 6-15 11-7 9-13 19-25 21l-1 8c6 6 20 2 31 0l8-6c5-1 8 2 10 6 5 10 13 7 23 0-1-2-3-3-6-3-5-10-13-20-16-30-3-5-6-7-10-7Zm-1008 5c0 6-37 21-16 32 3 1 5 0 5 3 16 6 23 3 29 0-9-8-16-18-7-31-1-4-7-2-11-4Zm400 0c0 6-37 21-16 32 3 1 5 0 5 3 16 6 23 3 29 0-9-8-16-18-7-31-1-4-7-2-11-4Zm400 0c0 6-37 21-16 32 3 1 5 0 5 3 16 6 23 3 29 0-9-8-16-18-7-31-1-4-7-2-11-4Zm-721 24c-6 0-15 6-20 11 6 6 15 5 25 0 2-8-1-11-5-11Zm400 0c-6 0-15 6-20 11 6 6 15 5 25 0 2-8-1-11-5-11Zm400 0c-6 0-15 6-20 11 6 6 15 5 25 0 2-8-1-11-5-11Z"/>
</svg>
