<?xml version="1.0" encoding="UTF-8" standalone="no"?>
<!-- Created with Inkscape (http://www.inkscape.org/) -->

<svg
   width="160"
   height="160"
   viewBox="0 0 42.333333 42.333333"
   version="1.1"
   id="svg1"
   inkscape:version="1.3-alpha (2a5ddc9d23, 2023-03-29)"
   sodipodi:docname="leopardprint.svg"
   inkscape:export-filename="Patterns\leopardprint-p.svg"
   inkscape:export-xdpi="96"
   inkscape:export-ydpi="96"
   xml:space="preserve"
   xmlns:inkscape="http://www.inkscape.org/namespaces/inkscape"
   xmlns:sodipodi="http://sodipodi.sourceforge.net/DTD/sodipodi-0.dtd"
   xmlns="http://www.w3.org/2000/svg"
   xmlns:svg="http://www.w3.org/2000/svg"><sodipodi:namedview
     id="namedview1"
     pagecolor="#ffffff"
     bordercolor="#666666"
     borderopacity="1.0"
     inkscape:showpageshadow="2"
     inkscape:pageopacity="0.0"
     inkscape:pagecheckerboard="false"
     inkscape:deskcolor="#d1d1d1"
     inkscape:document-units="px"
     showguides="false"
     inkscape:zoom="3.3104096"
     inkscape:cx="46.670961"
     inkscape:cy="113.27903"
     inkscape:window-width="1920"
     inkscape:window-height="1130"
     inkscape:window-x="-6"
     inkscape:window-y="-6"
     inkscape:window-maximized="1"
     inkscape:current-layer="layer1"><sodipodi:guide
       position="42.333333,42.333333"
       orientation="1,0"
       id="guide1"
       inkscape:locked="false" /><sodipodi:guide
       position="19.46367,42.333333"
       orientation="0,-1"
       id="guide2"
       inkscape:locked="false" /><sodipodi:guide
       position="24.664635,-2.7165034e-07"
       orientation="0,-1"
       id="guide3"
       inkscape:locked="false" /><sodipodi:guide
       position="-5.9567046e-06,29.45988"
       orientation="1,0"
       id="guide4"
       inkscape:locked="false" /><sodipodi:guide
       position="42.333333,0"
       orientation="0,-1"
       id="guide5"
       inkscape:locked="false" /><sodipodi:guide
       position="41.99424,33.144479"
       orientation="0,-1"
       id="guide6"
       inkscape:locked="false" /><sodipodi:guide
       position="16.68942,42.333333"
       orientation="1,0"
       id="guide25"
       inkscape:locked="false" /></sodipodi:namedview><defs
     id="defs1" /><g
     inkscape:label="Layer 1"
     inkscape:groupmode="layer"
     id="layer1"
     transform="translate(-105.92767,-57.334179)"
     style="display:inline"><path
       id="path7"
       style="display:inline;fill:#fde3e0;fill-opacity:1;stroke-width:0.962886;stroke-dasharray:0.16048, 0.481441"
       d="m 122.61709,57.334179 c 1.21232,0.622524 2.48673,1.251718 3.86643,0.985986 0.79385,-0.03997 1.30172,-0.307734 1.68207,-0.985986 z m -10.76265,0 c 0,1.46125 1.18458,2.645833 2.64583,2.645833 1.46128,0 2.64584,-1.184583 2.64584,-2.645833 z m 27.9399,0 c 0,1.46125 1.57578,4.360457 3.03702,4.360457 1.46125,0 2.25464,-2.899207 2.25464,-4.360457 z m -6.91586,0.885734 c -0.42687,0.0027 -0.76589,0.07023 -0.90951,0.235128 -0.29789,0.382986 -0.85129,3.978595 -0.31936,4.340303 0.53194,0.361712 2.00037,-0.871739 2.74506,-1.616438 0.74473,-0.744702 1.72312,-1.681396 1.78697,-2.085661 0.048,-0.303198 -2.02253,-0.88131 -3.30316,-0.873332 z m -24.24503,1.554427 c -0.85163,0.01449 -1.51929,0.482448 -1.51929,1.057817 0,0.584501 0.68882,1.058333 1.53893,1.058333 0.85005,0 1.53944,-0.473832 1.53944,-1.058333 0,-0.584502 -0.6891,-1.057817 -1.55908,-1.057817 z m 31.03221,1.777669 c -0.20085,0.0046 -0.39252,0.128158 -0.69918,0.128158 -1.16899,0 -2.11667,0.896296 -2.11667,2.001945 0,1.105649 0.94768,2.001945 2.11667,2.001945 1.16901,0 2.50786,-0.505618 2.50786,-1.611271 0,-0.683792 -0.96462,-2.069708 -1.51774,-2.43086 -0.10664,-0.06963 -0.19964,-0.09202 -0.29094,-0.08992 z m -14.45648,1.4118 c -2.43565,0.107115 -2.17484,1.188806 -1.88102,2.604493 0.29228,1.408265 0.83143,2.604492 1.85725,2.604492 1.02582,0 1.85777,-1.166214 1.85777,-2.604492 0,-1.415814 -0.80722,-2.61119 -1.834,-2.604493 z m -10.7518,1.837098 c -1.03857,0 -1.8805,0.841951 -1.8805,1.880505 0,1.038545 0.84193,1.880505 1.8805,1.880505 1.03854,0 1.88051,-0.84196 1.88051,-1.880505 0,-1.038554 -0.84197,-1.880505 -1.88051,-1.880505 z m 33.80362,1.727026 c -1.95433,9e-6 -3.53879,1.278919 -3.5388,2.447913 1e-5,1.168998 1.58447,2.116657 3.5388,2.116666 z m -42.33333,0.331246 v 4.233333 c 1.169,-9e-6 2.11667,-0.947668 2.11667,-2.116666 0,-1.168994 -0.94767,-2.116658 -2.11667,-2.116667 z m 28.47113,0.31626 c -1.35143,0 -2.44688,1.135221 -2.44688,2.535762 0,1.400545 1.09886,2.440357 2.44688,2.536279 1.65822,0.118001 4.04286,-0.521897 2.44688,-2.536279 -0.86978,-1.097754 -1.09547,-2.535762 -2.44688,-2.535762 z m -11.27683,4.096907 c -0.99166,0.0039 -1.78423,0.459153 -2.10633,1.343587 -0.58895,1.617253 0.61775,4.055926 2.69492,5.446696 2.07717,1.390777 4.23864,1.207467 4.82762,-0.409794 0.58895,-1.617242 -0.61774,-4.056436 -2.69493,-5.447212 -0.94124,-0.630193 -1.89962,-0.936497 -2.72128,-0.933277 z m 18.35082,4.520135 c 0.3257,1.198713 1.44298,2.996391 2.49545,2.710428 1.0525,-0.285966 2.7023,-0.706089 2.3766,-1.904793 -0.31299,-1.151894 -2.39949,-4.292123 -3.56025,-4.273383 -1.11682,0.29449 -1.6375,2.269036 -1.3118,3.467748 z m -9.11986,3.421496 c 1.29542,0.882144 1.64758,4.834849 2.53938,4.657597 1.16489,-0.231579 2.27325,-4.387256 2.27325,-5.55625 0,-1.09593 -0.83283,-1.901867 -2.00841,-1.880764 -1.27726,0.141171 -3.71893,2.156508 -2.80422,2.779417 z m -14.5557,0.178804 c -0.74596,0.0089 -1.81267,0.388049 -2.59157,0.950329 -1.15931,0.836898 -3.1996,2.400189 -2.77193,2.992582 0.42764,0.592388 3.2249,0.81933 4.38423,-0.01757 1.1593,-0.836882 2.19912,-3.059069 1.77147,-3.651456 -0.1403,-0.194382 -0.42792,-0.278242 -0.7922,-0.273885 z m 25.17624,1.831412 c -0.4595,0.0037 -0.97212,0.110058 -1.4826,0.327629 -1.36124,0.580164 -2.19066,1.731326 -1.85208,2.571419 0.33861,0.84007 1.71662,1.05094 3.07785,0.470773 1.36125,-0.580177 2.19065,-1.731856 1.85208,-2.571936 -0.21164,-0.525053 -0.82945,-0.803966 -1.59525,-0.797885 z m -13.61416,0.960149 c -0.62957,0.01137 -1.19837,0.575933 -1.46812,1.324467 -0.3577,0.992536 -0.0315,2.182556 0.58756,2.570385 0.61917,0.387822 1.57524,-0.02261 2.13527,-0.91674 0.56001,-0.894112 0.34419,-1.746594 -0.10697,-2.321305 -0.37018,-0.471604 -0.76996,-0.663629 -1.14774,-0.656807 z m -20.19101,-7.24607 c -1.62914,0 -2.94969,0.959993 -2.94969,2.144055 0,1.184061 -0.0783,3.562057 1.55081,3.562057 1.62909,0 4.34857,-2.377996 4.34857,-3.562057 0,-1.184062 -1.32059,-2.144055 -2.94969,-2.144055 z m -3.24063,9.7007 v 5.503023 c 1.46124,0 2.64583,-1.231556 2.64583,-2.751253 -10e-6,-1.519693 -1.18459,-2.75177 -2.64583,-2.75177 z m 22.22397,3.36827 c -1.79501,0.778641 -2.88818,1.919683 -2.44172,2.548682 0.44648,0.628996 2.26316,0.507855 4.05816,-0.270785 2.93246,-0.115095 2.95359,-1.882031 2.44171,-2.549198 -0.48793,-0.635957 -2.29255,-0.494597 -4.05815,0.271301 z m -16.28531,0.0015 c -0.83095,0.07132 -1.27155,0.973954 -1.95751,2.482019 -0.57932,1.273665 0.8696,2.596747 1.82573,2.596741 0.95617,0 1.73116,-1.134471 1.73116,-2.533696 0,-1.333633 -0.71419,-2.559154 -1.59938,-2.545064 z m 36.39467,-3.36982 c -1.46127,0 -2.64582,1.232077 -2.64583,2.75177 0,1.519697 1.18456,2.751245 2.64583,2.751253 z m -28.05823,3.506763 c -1.169,0 -2.11667,0.947674 -2.11667,2.116666 0,1.168992 0.94767,2.117184 2.11667,2.117184 1.16899,0 2.11666,-0.948192 2.11666,-2.117184 0,-1.168992 -0.94767,-2.116666 -2.11666,-2.116666 z m 18.48311,0.829922 c -1.47256,0.390684 -2.34751,1.909866 -1.95389,3.393592 0.39366,1.483723 1.90655,2.369889 3.37912,1.979207 1.47256,-0.390684 2.34755,-1.910382 1.95389,-3.394108 -0.42697,-1.609337 -2.04233,-2.333326 -3.37912,-1.978691 z m -6.78202,3.522784 c -0.49202,0.594053 0.0954,2.3176 1.31207,3.849894 1.21667,1.532287 2.60186,2.29266 3.09386,1.698604 0.49201,-0.594059 -0.0954,-2.317609 -1.31206,-3.849894 -1.30052,-1.637867 -2.63853,-2.248378 -3.09387,-1.698604 z m 10.53631,4.522721 c -1.46125,0 -2.64583,1.185102 -2.64583,2.64635 h 5.29166 c 0,-1.461248 -1.18455,-2.64635 -2.64583,-2.64635 z m -17.94878,-2.353345 c -1.97266,0.773184 -3.00954,2.011665 -3.39565,3.115056 -0.0352,0.100623 -0.0532,1.795196 -0.0569,1.884639 h 7.1267 c 0.21394,-0.849561 0.82285,-4.038512 0.66973,-4.429187 -0.43634,-1.113276 -2.4259,-1.322223 -4.34388,-0.570508 z m -9.99112,2.353345 c -1.21135,0 -3.8473,1.185102 -3.84731,2.64635 h 5.35578 c 0,-1.461248 -0.2971,-2.64635 -1.50847,-2.64635 z"
       sodipodi:nodetypes="cccccscccsccccsccccssscsssssssscssscsssssccccccscssscsccccccssscsccscccscscccscsccsccscsssssscccccccscccsscccccsssssccsscssscssccsccccscsccs" /><path
       id="path1484"
       style="display:inline;opacity:1;fill:#f5a298;fill-opacity:1;stroke:none;stroke-width:0.965369;stroke-dasharray:0.160895, 0.482685"
       d="m 107.12656,57.334179 c 0.18177,0.424378 0.47975,0.763537 0.83406,0.864547 1.19002,-0.11795 2.09719,-0.461469 2.83445,-0.864547 z m 7.8481,0 c 0.0231,0.131285 0.0605,0.247911 0.12403,0.342098 -1.41862,0.682884 -4.68885,1.602454 -2.46394,3.604948 1.19624,0.429601 3.22839,-0.256871 4.6669,-0.455786 0.50444,-0.06975 0.0417,-2.42959 -0.0563,-3.310392 -0.051,-0.05596 -0.11482,-0.118457 -0.18397,-0.180868 h -0.28061 z m 5.03277,0 c -0.0927,0.521355 0.51366,1.879861 0.51366,3.044259 0,0.917123 1.79203,-0.327894 2.7001,-0.371554 2.62363,0.07293 5.30906,-0.401998 6.84975,-2.672705 h -2.63447 c -1.24981,1.256084 -2.71501,0.600124 -4.17334,0.172599 -0.0712,-0.05633 -0.14169,-0.114013 -0.21084,-0.172599 z m 18.7942,0 c -0.0594,1.615926 1.9738,0.851887 3.31763,0 z m 5.13871,0 c 0.035,0.06984 0.068,0.143454 0.10025,0.218591 -0.71008,0.631963 -0.20936,2.544423 -2.18746,3.416329 -0.26354,0.561431 0.12431,0.819744 0.41392,1.110527 0.56581,0.5681 1.52053,0.75038 1.85674,-0.01344 1.67178,0.338198 2.46973,-1.108627 2.57179,-2.613574 0.0822,-1.212353 -0.29469,-1.989639 -0.36777,-2.11844 z m -11.76931,0.14056 c -0.90496,-0.0064 -2.22892,2.005691 -1.80764,2.553849 0.0907,0.118064 0.87159,0.367212 1.30896,0.118856 0.33135,-0.18815 0.30265,-0.862184 0.56276,-0.945162 0.36864,-0.258093 0.58688,-0.720341 0.55035,-1.170988 -0.14016,-0.394729 -0.36104,-0.554767 -0.61443,-0.556555 z m 4.86792,0.242362 c -1.13643,-0.0053 -3.96332,2.021669 -2.05259,2.243791 -0.40721,0.523668 -0.84554,0.522174 -1.341,0.964799 -0.1114,0.09906 -0.38148,0.927392 -0.44235,1.019059 -0.14709,-0.352834 -0.50333,-0.611664 -1.13327,-0.645955 -0.46497,0.07867 -1.39001,0.06602 -1.67535,0.433565 -0.34911,0.449698 -0.49728,1.032355 -0.31316,1.529623 0.25896,0.699381 0.64569,1.29437 1.77509,0.846459 2.15727,-0.649201 2.4501,-1.297613 2.76004,-2.156457 0.38352,-0.325038 0.56918,-0.866178 0.90279,-1.241268 0.31454,-0.37329 1.52848,-0.893463 1.82624,-1.280542 0.78376,-0.423911 0.50325,-0.942941 -0.30644,-1.713074 z m -29.85141,0.677478 c -0.45292,0.116581 -0.89984,0.436808 -1.25987,0.847494 v 2.954858 c 0.11687,0.04684 0.24791,0.08448 0.39481,0.111621 0.60661,1.326334 3.06155,2.567109 2.84685,0.410311 0.87141,0.296536 1.4439,-0.976649 1.42214,-1.914612 l -1.02888,0.268718 c 0.0244,0.265991 -1.03845,0.669434 -1.55804,0.66921 -0.3978,-1.1e-4 -0.72026,-0.322566 -0.72037,-0.72037 1.1e-4,-0.3978 0.40266,-0.939884 0.80046,-0.939994 0.27387,1.54e-4 1.34305,0.33538 1.46451,0.580843 l 1.00356,-0.201021 c -0.0562,-0.255721 -0.17389,-0.454848 -0.36225,-0.539502 -0.0342,-1.362373 -2.17014,-0.982808 -3.00292,-1.527556 z m 41.07346,3.802352 v -2.954858 c -0.45929,0.52392 -0.78421,1.195414 -0.78421,1.780921 0,0.505824 0.21884,0.947323 0.78421,1.173937 z m -9.48107,-2.254126 c -0.7902,0.625515 -2.51162,1.61828 -3.11557,2.561601 -0.62391,0.974487 -0.22077,1.231895 0.29559,1.457792 -0.0885,0.521558 2.12627,2.38769 2.55746,1.790072 0.71652,0.780356 1.34995,0.677887 1.90014,0.2682 2.27075,-0.948723 -0.0835,-3.657136 -1.38182,-1.581815 -0.4116,-0.575788 -1.44393,-0.520473 -2.06861,-1.081588 0.65861,-0.338236 2.06144,-1.40175 2.54093,-1.976623 0.26466,-0.3173 -0.19736,-1.115981 -0.72812,-1.437639 z m -14.19655,1.898076 c -0.37448,0.260093 -0.75016,0.622515 -1.13068,0.946712 l 0.69866,1.201994 c 1.25988,-0.681548 2.68348,1.550652 1.88981,2.91455 -0.21138,0.69542 -0.0106,1.074481 0.27079,1.364775 0.46562,0.480348 1.29013,1.064266 1.84743,0.54622 0.37096,-0.34482 0.58856,-1.42649 0.42168,-2.162659 0.33261,-2.000026 -0.73969,-4.18625 -2.81585,-4.634859 -0.38334,-0.112252 -0.78209,-0.176846 -1.18184,-0.176733 z m -9.61391,0.942611 c 0.14082,-0.02373 0.20261,-0.05027 0.33225,0.01447 0.6641,1.000486 1.86946,0.430551 2.15801,0.532784 0.37123,0.131535 -0.21466,0.830001 0.49041,1.658814 -0.96861,-0.571837 0.598,0.379979 0.0362,0.933276 1.75858,1.167176 -0.0501,3.739847 -1.78698,3.91604 -1.38886,-1.118085 -2.12746,1.297244 -3.7238,0.61805 -0.74209,-0.793516 -0.49301,-1.926041 -0.56741,-2.548682 -0.0762,-0.637931 1.09432,-0.112314 1.73685,-0.224275 1.2324,0.59873 3.013,-0.179842 2.59519,-1.015959 -0.35209,-0.704599 -2.75864,-1.466699 -3.42305,-1.314132 -1.12942,-0.03616 -0.8887,-1.46783 -0.63872,-2.318204 0.19716,-0.670664 2.79105,0.31223 2.79105,-0.252182 v 10e-7 m 8.17575,0.25318 c -0.66632,0.509083 -1.05894,0.147762 -2.14612,0.07441 -0.23915,1.278285 -0.42517,2.928932 0.0651,4.413684 0.53159,0.783892 0.89833,0.636067 1.2268,0.560173 2.18094,0.04128 1.41636,-2.362393 1.33325,-3.607532 0.11955,-0.164433 0.24441,-0.291062 0.37207,-0.38654 z m 25.11578,1.240232 -1.61023,-0.780311 c -4.0533,1.23109 -4.65955,2.934645 -4.64158,4.719091 0.77576,0.247607 0.73911,2.969592 2.4598,1.654163 0.17543,0.0088 2.31332,-1.284499 3.23597,-2.605526 0.16498,0.254181 0.35533,0.499953 0.55604,0.727604 z m -42.33333,3.715021 c 0.33055,0.374928 0.68788,0.702463 1.00666,0.93431 0.57569,0.692895 -0.29787,0.888356 -1.00666,1.221631 v 2.007629 c 1.22288,0.846956 3.28101,-0.325095 4.20388,-1.273307 0.95466,-2.349269 -0.98386,-4.682131 -2.83704,-5.912817 -0.38805,-0.383174 -0.81777,-0.7883 -1.36684,-0.687296 z m 27.46602,-2.607588 c -0.70159,0.108591 -1.66793,-0.0093 -2.13992,0.567407 -0.6188,0.75613 -0.40838,1.95067 -0.45475,3.131075 1.39219,0.897864 3.7836,-0.619665 4.63383,-0.82734 0.16824,0.500393 1.50068,1.95802 1.50068,1.95802 -0.0651,-0.05231 0.0359,0.71305 -0.33538,0.989604 -0.42172,0.314086 -1.3307,0.155237 -1.5844,0.293522 -1.16913,0.63726 -1.89294,1.167181 -1.24334,2.689758 1.90805,0.04085 6.14083,0.544602 5.34386,-2.071708 -0.002,-0.832456 0.93182,-2.912998 0.0558,-3.416329 -0.99962,-0.574338 -2.01898,-2.462869 -3.62562,-2.726965 -0.74061,-0.765304 -1.24238,-0.727651 -2.15076,-0.587044 z m 11.18588,6.07456 c 0.31981,0.576683 1.52701,1.76999 2.33423,1.789038 0.54747,-0.206149 0.72273,-0.925398 0.99425,-1.428336 0.0936,0.136286 0.22514,0.234618 0.35298,0.335899 V 70.14787 c -0.27056,0.127217 -0.51665,0.274498 -0.64905,0.47749 -0.5093,-0.450041 -1.39394,-0.704301 -1.95133,-0.769464 -0.93326,0.33669 -1.38907,1.047618 -1.08108,1.603002 z m -3.25148,-1.299145 c -0.66877,-0.0015 -0.74246,2.005226 -0.76377,2.593123 -0.0588,1.121385 0.50838,1.023574 1.52497,1.471228 0.46771,0.372472 1.73229,0.3152 1.90531,-0.469739 0.10106,-0.458474 -0.33046,-1.046221 -1.08779,-2.255676 -0.13967,-0.516001 -1.00016,-1.233007 -1.57872,-1.338936 z m -18.02939,0.10697 c -2.04907,0.324665 -2.80545,1.506547 -3.12901,3.808553 0.12939,0.547112 0.14851,2.281192 1.76889,0.0041 1.6075,-2.067962 3.58102,-0.607668 4.57956,-0.176733 0.21968,0.203822 0.46157,0.277017 0.6997,0.255798 -0.2742,0.353419 0.53307,0.736795 0.55397,1.088822 0.0182,0.306941 0.79455,0.713874 0.78704,0.972551 -0.28915,0.271935 -1.37067,1.497373 -2.35386,1.916679 -1.33883,0.570962 -2.86777,-0.551821 -2.94453,-0.544153 -3.00923,0.300606 0.30908,2.421834 0.86817,2.454114 1.52438,0.08802 2.49599,1.760806 4.86275,-2.520777 0.39541,-0.247693 0.53649,-0.524031 0.49816,-0.763261 0.39006,-0.03508 0.75004,-0.111481 0.80977,-0.258382 0.10498,-0.258164 -0.27566,-1.582797 -0.38396,-1.92288 -0.1083,-0.340079 -0.43163,-1.423499 -0.91054,-1.062467 -0.44087,0.417971 -0.80656,0.54705 -1.40249,0.525549 0.89231,-0.452724 1.50603,-2.08193 0.25321,-2.729549 -1.25785,-0.840173 -2.81236,-0.341753 -4.10466,-0.908472 z m 8.52455,0.12609 c -0.28915,6.12e-4 -0.80272,0.03195 -0.90176,0.500228 -0.0659,0.311714 0.21195,1.031647 0.27802,1.282092 0.11676,0.442619 0.53932,1.412835 1.03663,1.351339 0.22976,-0.02841 0.3668,-0.781896 0.69195,-1.004073 0.94701,-0.569866 0.88191,-2.134474 -1.10484,-2.129586 z m -13.19868,0.70125 c -0.0771,0.0044 -0.16025,0.0245 -0.24908,0.06304 -0.57145,0.24799 -1.37657,0.749625 -2.20762,0.985469 -0.34887,0.099 -0.89675,-0.13812 -1.16737,-0.04961 -0.68218,0.223175 -0.73962,0.805741 0.22996,1.473295 1.71203,1.17873 2.39874,0.371482 3.48299,-0.450102 0.8327,-0.630963 0.65669,-2.064789 -0.0889,-2.022098 z m -12.6969,3.883483 v 0.571542 c 0.15974,0.571507 0.93981,0.217339 1.35446,0.401526 1.16452,0.103369 4.07066,-0.173312 2.61948,1.899108 -0.53472,0.312357 -1.58712,1.25713 -2.43293,1.841232 -0.99288,0.685665 -1.68,1.068037 -0.59273,2.22622 1.72353,0.342458 3.35094,-2.514466 5.10925,-2.136303 0.88962,-0.957964 1.24509,-2.74786 1.6831,-4.091223 -0.58698,-1.268064 -3.28808,-1.891255 -5.29788,-1.897559 -1.08184,-0.01808 -2.16301,0.04149 -2.44275,1.185457 z m 18.44229,-0.04707 c -0.57606,0.08409 -1.53245,0.17763 -2.25568,0.474906 -0.59624,0.245088 -1.29714,0.717793 -0.96893,1.259872 0.24021,0.396732 1.37199,-0.261309 2.30631,0.04547 0.88006,0.04617 1.89791,0.815755 2.65049,-0.01395 0.70016,-0.977972 -0.55857,-1.950125 -1.73219,-1.766298 z m 21.55475,0.607763 c -1.27572,-0.02346 -2.19855,1.197252 -2.12803,1.768884 -1.2768,1.163114 -1.42517,-1.932634 -3.14296,-1.709973 -0.606,-0.05822 -0.94887,2.4716 -0.92915,3.003434 0.0638,1.155866 1.48882,0.448084 2.55179,0.911572 0.4934,0.174278 1.39423,0.139225 1.7818,-0.682129 0.34888,0.915565 0.74498,0.45525 1.86655,0.899687 0.47637,0.179399 1.32363,0.264752 1.87792,-0.0677 0.60247,-0.486469 -0.31925,-1.008816 -0.52451,-1.451591 -0.59872,-0.88192 -0.0511,-1.781595 -1.09399,-2.650484 -0.088,-0.01319 -0.17437,-0.02014 -0.25942,-0.0217 z m -13.20591,0.578776 c -1.04942,0.410875 -1.00967,1.485944 -1.02216,1.498099 -0.21162,0.157963 -0.56413,0.320521 -0.49093,0.518315 0.27343,0.738839 0.433,1.861821 0.90537,2.185396 0.27597,0.189043 0.71528,0.06391 1.14257,-0.07648 0.25041,-0.02011 -0.20993,-0.71595 0.0553,-1.247469 0.12638,-0.25327 0.98136,-0.426901 1.1033,-0.551387 0.7731,-0.789209 1.40663,-0.666029 1.25832,0.909505 0.0717,0.224907 0.13532,0.619504 0.16381,1.052132 l 1.39268,0.285254 c 0.23598,-0.73714 0.20322,-0.993916 0.46871,-1.767851 -0.0667,-0.725692 0.17035,-1.415046 0.17621,-2.441194 -1.66051,-0.279799 -3.48209,-0.910891 -5.15318,-0.36432 z m -14.4694,-0.193788 c -0.0718,-6.98e-4 -0.15464,0.04778 -0.26562,0.08372 -1.24158,0.142239 -1.48518,1.629653 -2.2102,2.619995 -0.90613,3.637715 1.92031,0.990521 2.75125,1.07797 l 1.00924,-0.93741 c -0.5716,-0.799814 -1.16375,-1.658646 -1.16375,-2.776575 -0.0388,-0.04915 -0.0779,-0.06728 -0.12092,-0.0677 z m -12.32173,0.810801 v 1.496033 c 0.0859,0.1702 0.19124,0.324142 0.30903,0.441833 0.39237,0.392071 0.90655,0.392189 1.17615,-0.67231 0.12287,-0.571191 -0.16685,-1.311863 -0.82062,-1.349787 -0.27886,0.06962 -0.5094,0.02201 -0.66456,0.08423 z m 42.33333,0 c -0.15326,0.06146 -0.23296,0.230078 -0.21239,0.727088 0.0106,0.256771 0.0915,0.529403 0.21239,0.768945 z m -29.60336,3.073714 c -0.4147,1.60423 -0.75441,2.075315 -1.24023,2.392619 -1.89738,2.299659 -3.65554,2.12122 -4.61626,0.04237 -5.04988,1.2691 0.77926,5.269091 2.73679,3.942395 1.74233,-1.180861 3.71351,-2.20714 4.86998,-4.398698 0.47734,-1.094425 -0.11408,-1.95516 -0.78031,-2.886642 z m 22.22552,0.689364 c -1.80737,0.05947 -1.66648,3.49359 0.14108,1.99471 0.54852,-0.09801 2.41364,-0.437485 2.36213,-1.178739 -0.56199,-0.682797 -1.65651,-0.716411 -2.50321,-0.815971 z m -4.88239,0.45682 c 0.002,0.536132 -0.0627,1.068727 -0.2465,1.369942 -0.3338,0.547029 -1.14818,0.150091 -1.57975,-0.222725 -0.24129,0.216879 -0.8244,0.572424 -0.82527,0.952396 -9.1e-4,0.354052 0.57182,0.723724 0.59893,1.167371 0.0634,1.037844 0.30592,1.911169 0.99012,1.461409 0.57891,-0.873685 1.02896,0.0865 1.50895,-1.169954 0.17254,-0.451648 0.49891,-2.66619 0.71521,-3.193087 0.0286,-0.06955 0.055,-0.139473 0.0806,-0.209806 z m -6.89157,2.395202 c 0.18291,-0.587716 0.87683,-0.5574 1.17254,-0.08527 0.3356,0.263483 0.78835,0.612784 0.54519,1.09089 -0.13239,0.491327 -0.18019,1.229722 -0.83665,1.256254 -0.46879,0.227099 -0.91804,0.06738 -1.29966,-0.224276 -0.63824,-0.205437 -0.45059,-0.823698 -0.0537,-1.173572 0.10344,-0.601166 -0.85505,-0.319749 -1.11363,-0.846976 -0.4644,0.663262 -1.03338,1.652216 -1.40301,2.371431 0.36306,0.630481 1.38529,0.373035 1.89394,0.874882 0.37823,0.430167 0.92006,-2e-6 1.42575,-0.0047 0.67541,-0.09578 1.33298,-0.336737 1.96164,-0.587561 0.26602,-0.351074 0.0453,-0.859816 0.33176,-1.228349 0.0461,-0.426849 0.56685,-1.088212 -0.0543,-1.262455 -0.38923,-0.328442 -0.37174,-1.075401 -0.8077,-1.463993 -0.34818,-0.521644 -0.76249,-0.928265 -1.20045,-0.974359 -0.42141,0.0099 -1.52716,0.655502 -1.59191,1.210991 -0.055,0.471985 0.93057,1.009946 1.03019,1.047063 z m 16.36748,-1.972489 c -0.28391,0.184504 -0.77181,0.339618 -1.28003,0.680579 -0.62219,0.417416 0.14918,0.707832 -0.15606,1.241267 -0.31552,0.551418 -1.6865,1.346384 -1.02009,1.794206 1.47467,-1.216165 6.17053,-1.960602 3.22977,-3.054077 z m -21.22266,0.942659 c 0.11213,0.553236 0.64841,1.118671 1.61765,0.380774 0.21638,-0.164735 0.11295,-0.529771 0.0284,-0.77773 -0.36325,-0.224577 -1.88324,-0.773456 -1.64605,0.396956 z m -2.65082,-0.02179 c 0,1.300478 -2.2412,2.820486 -3.69125,3.640605 -0.57125,2.357635 2.69477,0.747854 3.54655,-0.104387 1.41854,0.04767 3.79159,0.112669 2.98432,-1.549776 -0.1425,-0.293446 -1.10576,-0.354373 -1.45676,-0.72347 -0.29385,-0.308993 0.0591,-0.914736 -0.40773,-1.281059 -0.32449,-0.07342 -0.64873,-0.01815 -0.97513,0.01809 z m -15.67556,1.95182 v 1.618506 c 1.02206,0.36893 1.6324,0.511257 2.1053,0.04754 0.50911,-0.499227 0.38181,-1.364832 0.1018,-1.930632 -0.27609,-0.558104 -1.25341,0.24528 -2.2071,0.264586 z m 33.13752,2.41687 c 0.59614,-0.176573 1.20799,-0.529325 1.61954,-0.973584 0.63911,-0.689918 -0.38074,-1.511427 -1.48828,-1.508952 -0.82412,0.142541 -2.63801,3.037609 -0.13126,2.482536 z m 9.19581,2.266619 c -0.0531,-0.01871 -0.10528,-0.03854 -0.16019,-0.05529 -0.51577,-0.326048 -0.50833,0.231372 -0.91468,0.167948 -0.64211,-0.77291 -2.27351,-1.131353 -0.76274,-2.008146 0.35703,-0.258308 1.20974,-0.738547 1.66501,-1.231966 0.0581,0.02115 0.11552,0.04193 0.1726,0.06253 l 3e-5,-1.618565 c -0.18635,0.0038 -0.43976,0.03341 -0.49922,0.367469 -0.23175,-0.08884 -0.53671,-0.167154 -0.93018,-0.23151 -0.81435,1.359598 -2.11788,0.473896 -2.97863,1.538407 -1.48714,0.488459 -1.17041,1.606694 -0.37362,2.290816 -0.71723,1.912051 2.13439,1.029237 1.62988,2.837037 0.77425,0.353713 2.00256,0.20622 2.89026,-0.14056 0.0681,0.08579 0.15335,0.162576 0.26148,0.225309 z m -37.91962,-3.561594 c -2.23506,1.215035 0.95206,2.790625 0.65578,0.413412 -0.13578,-0.235633 -0.39989,-0.362999 -0.65578,-0.413412 z m 21.99918,1.144633 c 0.29956,0.337831 0.55451,0.814917 0.76894,1.342554 1.14547,3.144194 -1.1143,3.439079 -3.59203,3.417879 v -0.966866 c 0.33599,-0.09166 0.73809,-0.467586 1.02268,-0.545174 1.8293,0.161793 0.32232,-2.257435 1.05212,-3.021996 0.20609,-0.200828 0.4756,-0.222303 0.74829,-0.226397 z m -10.26242,0.695048 c -2.35477,0.400875 -0.1228,5.161045 -2.42466,4.590934 -0.37395,-1.502461 -1.75103,-5.279842 -3.68763,-3.269568 -0.24094,2.062655 1.48433,4.97489 2.27738,6.651791 1.33663,0.309107 3.53119,-2.165007 4.98987,-2.710946 0.30449,-1.553315 1.53299,-5.256775 -1.15496,-5.262211 z m -10.51513,0.207739 c -2.18584,0.32364 1.40995,3.252013 0.22635,3.50883 -0.0438,0.0095 -0.98922,1.444001 -1.28985,1.35754 -0.45938,-0.132102 -0.33799,-1.81027 -0.44545,-1.821078 -1.43231,1.100011 -2.12272,3.179842 -2.86132,4.490166 1.09266,1.351719 1.8651,-0.809276 2.68252,-0.09095 1.7194,-0.2857 2.49409,-2.183618 4.44624,-1.630391 2.78563,-2.274263 -1.12178,-4.364185 -2.75849,-5.814117 z m 27.87272,0.08682 c -0.0692,4.6e-4 -0.14015,0.0031 -0.21239,0.0083 -0.65596,0.12645 -1.14538,0.598209 -1.69757,0.940511 -1.06224,0.57491 -0.93168,0.931678 -1.71411,1.609721 0.44291,2.691825 3.232,-1.389252 4.28811,0.04496 0.11635,1.049203 -0.46978,3.549046 1.43403,2.692342 -1.06183,0.898871 -5.00118,0.623628 -3.67782,2.574004 2.26415,0.483448 6.62065,-0.762308 5.15008,-3.836459 -0.70667,-1.831094 -1.42466,-4.047606 -3.57033,-4.033345 z m -14.63063,4.050396 c 1.20028,1.538204 2.94719,0.222361 4.4142,-0.203605 v -1.02681 c -0.11316,-0.01382 -0.22559,-0.03772 -0.36173,-0.02222 -0.96727,0.110195 -1.95346,-0.558326 -1.13947,-1.809192 -0.23091,-0.220865 -0.2969,-0.56111 -0.80563,-0.581359 -1.7657,0.08461 -2.34092,2.741081 -2.10737,3.643186 z M 107.6764,89.076951 c -0.51976,0.463343 -1.06304,0.09737 -1.74873,-0.144177 v 2.241203 c 1.09459,0.532508 2.84351,-0.832147 2.58896,-1.46451 -0.13361,-0.331897 -0.45585,-0.975152 -0.84023,-0.632516 z m 29.2592,2.372465 c -0.18698,-3.52e-4 -0.37392,0.07999 -0.54416,0.242879 -2.03758,0.943517 0.90871,3.124261 1.33119,0.904338 0.12538,-0.567194 -0.28729,-1.146274 -0.78703,-1.147217 z m -3.49333,0.603581 c -0.0582,-1e-6 -0.11316,0.0021 -0.16381,0.0057 -1.83445,0.104455 -4.06009,0.350514 -2.35697,3.346049 1.1291,1.302093 1.91311,2.912406 3.4954,3.809587 1.25259,0.292908 4.65131,-1.39328 2.38435,-2.494938 -1.489,0.951154 -3.48353,0.445246 -3.4525,-1.384929 -1.09489,-1.019898 2.29145,-1.710705 0.66972,-3.193087 -0.19875,-0.06787 -0.40168,-0.08836 -0.57619,-0.08837 z m 11.76311,0.883667 c -0.96517,0.0196 -0.80837,2.339149 0.67644,2.809647 0.13904,1.874417 3.26046,2.266148 1.97094,0.06098 -1.21123,-2.168915 -2.10595,-2.881622 -2.64738,-2.870627 z m -18.34049,0.318327 c -1.02938,0.360985 -2.5781,0.385878 -3.07113,1.498616 -0.0638,1.097813 1.21524,0.78411 1.77716,0.290938 0.48387,-0.410526 1.08375,-0.543861 0.94877,0.26045 -0.01,0.718732 1.38281,1.48841 0.20568,1.923913 -0.79857,0.02066 -1.91476,1.288224 -0.56844,1.332219 1.15766,-0.261449 2.36514,-0.364675 3.51399,-0.698149 0.47556,-0.0015 0.1414,-0.394976 0.41186,-0.732255 -0.68814,-0.671943 -0.96347,-1.684034 -1.68981,-2.356445 -0.53867,-0.362211 -0.84178,-1.528718 -1.52808,-1.519287 z m -9.80353,6.412528 c -0.0566,-0.05105 -0.26056,-0.171848 -0.34852,-0.394532 0.0409,-0.513265 0.25082,-1.14432 0.0662,-1.711753 -0.18924,-0.581716 -0.51098,-1.133688 -0.70472,-1.574627 -0.58554,-0.560533 -1.26919,-1.101182 -2.09393,-1.221631 -1.71974,0.940362 -1.70641,1.112508 -4.31757,2.627746 -2.64144,-0.75222 -3.04213,1.09377 -2.53628,2.274797 h 3.66851 c 1.62904,-0.890626 2.42829,-2.071411 3.61425,-1.747697 0.61647,0.37496 0.46709,1.188693 0.56534,1.747697 z m 21.88755,-0.800468 c -0.0937,0.315982 -0.13915,0.579463 -0.14728,0.800468 h 3.31763 c 0.31983,-0.202752 0.6031,-0.410152 0.80667,-0.591695 0.51698,-0.144965 0.79828,0.160508 1.01441,0.591695 h 2.38745 c -0.13843,-0.243496 -0.34046,-0.336654 -0.61597,-0.33333 -0.48907,-1.042777 -1.33964,-2.089963 -1.65053,-3.175534 -0.8356,-1.478991 -1.80726,-0.421593 -2.52317,0.456062 -0.75103,0.879949 -1.3544,1.986371 -2.58921,2.252334 z m -19.49752,0.521415 c 0.32381,0.04394 0.52508,-0.08658 0.55608,0.279055 h 0.87333 2.17145 c -0.96754,-0.819698 -1.68463,-1.86712 -0.7488,-3.27887 -0.13571,-0.437425 -0.742,-0.217398 -1.20459,-0.382406 -2e-5,0.622099 -3.89617,2.188272 -1.64747,3.382221 z m 7.98503,0.279053 h 2.63447 c 0.1736,-0.855123 -0.0994,-1.162346 -0.55218,-1.160911 -0.63727,0.01552 -1.58013,0.624408 -2.08229,1.160911 z"
       sodipodi:nodetypes="cccccccccccccsccccccccccccscsccccscccccccccsccccccccccccccccccccccccscccccscccccscccccccccccccscccccccccccscccccsccccccscccccsccccsccccccccccccccccccccsscccscccccccccccscccccsscccccccsssccccsccccscccssccsscccccccsscccccccccccccccccccccccccscccccccccccccccccccccccccssccccccsccccsscsscscscssccccccccccccccsccccscccccccscscccccccsccccsccccccsccccccccsccccccccccccccccccccccccccccccccccccccccccccscccccccsccscccccsccccccccccc" /></g></svg>
