<svg xmlns="http://www.w3.org/2000/svg" xml:space="preserve" width="160" height="160" viewBox="0 0 42.333 42.333">
  <g style="display:inline">
    <path
      d="M122.617 57.334c1.212.623 2.487 1.252 3.867.986.793-.04 1.301-.308 1.682-.986zm-10.763 0a2.646 2.646 0 0 0 5.292 0zm27.94 0c0 1.461 1.576 4.36 3.037 4.36 1.462 0 2.255-2.899 2.255-4.36zm-6.916.886c-.426.003-.765.07-.909.235-.298.383-.851 3.979-.32 4.34.533.362 2.001-.871 2.746-1.616.744-.745 1.723-1.681 1.787-2.086.048-.303-2.023-.881-3.304-.873zm-24.245 1.554c-.851.015-1.519.483-1.519 1.058 0 .585.689 1.058 1.54 1.058.85 0 1.539-.473 1.539-1.058 0-.584-.69-1.058-1.56-1.058zm31.033 1.778c-.201.005-.393.128-.7.128-1.169 0-2.116.896-2.116 2.002 0 1.106.947 2.002 2.116 2.002 1.17 0 2.508-.506 2.508-1.611 0-.684-.964-2.07-1.517-2.431a.491.491 0 0 0-.291-.09zm-14.457 1.412c-2.435.107-2.175 1.189-1.88 2.604.291 1.409.83 2.605 1.856 2.605 1.026 0 1.858-1.166 1.858-2.605 0-1.416-.807-2.61-1.834-2.604zM114.457 64.8a1.88 1.88 0 1 0 0 3.76 1.88 1.88 0 0 0 0-3.76zm33.804 1.727c-1.954 0-3.539 1.279-3.539 2.448s1.585 2.117 3.539 2.117zm-42.333.331v4.234a2.117 2.117 0 0 0 0-4.234zm28.47.316c-1.35 0-2.446 1.136-2.446 2.536 0 1.4 1.099 2.44 2.447 2.536 1.658.118 4.043-.521 2.447-2.536-.87-1.098-1.096-2.536-2.447-2.536zm-11.276 4.097c-.992.004-1.784.46-2.106 1.344-.59 1.617.617 4.056 2.695 5.447 2.077 1.39 4.238 1.207 4.827-.41.59-1.617-.618-4.057-2.695-5.447-.941-.63-1.9-.937-2.721-.934zm18.35 4.52c.326 1.2 1.444 2.997 2.496 2.71 1.053-.285 2.703-.705 2.377-1.904-.313-1.152-2.4-4.292-3.56-4.273-1.117.294-1.638 2.269-1.312 3.467zm-9.12 3.422c1.296.882 1.649 4.835 2.54 4.658 1.165-.232 2.274-4.388 2.274-5.557 0-1.096-.833-1.902-2.009-1.88-1.277.14-3.719 2.156-2.804 2.779zm-14.555.179c-.746.009-1.812.388-2.591.95-1.16.837-3.2 2.4-2.772 2.993.427.592 3.225.819 4.384-.018 1.16-.837 2.2-3.059 1.771-3.651-.14-.195-.427-.279-.792-.274zm25.176 1.831c-.459.004-.972.11-1.482.328-1.361.58-2.19 1.731-1.852 2.571.338.84 1.716 1.051 3.078.471 1.36-.58 2.19-1.732 1.852-2.572-.212-.525-.83-.804-1.596-.798zm-13.614.96c-.63.012-1.198.576-1.468 1.325-.358.992-.031 2.182.588 2.57.619.388 1.575-.022 2.135-.917.56-.894.344-1.746-.107-2.32-.37-.472-.77-.664-1.148-.658zm-20.19-7.246c-1.63 0-2.95.96-2.95 2.144 0 1.184-.079 3.562 1.55 3.562 1.63 0 4.349-2.378 4.349-3.562 0-1.184-1.32-2.144-2.95-2.144zm-3.241 9.701v5.503c1.46 0 2.645-1.232 2.645-2.751 0-1.52-1.184-2.752-2.645-2.752zm22.224 3.368c-1.795.779-2.889 1.92-2.442 2.549.446.629 2.263.508 4.058-.27 2.933-.116 2.954-1.883 2.442-2.55-.488-.636-2.293-.495-4.058.271zm-16.286.002c-.83.071-1.271.974-1.957 2.482-.58 1.273.87 2.597 1.826 2.597.956 0 1.73-1.135 1.73-2.534 0-1.334-.713-2.56-1.599-2.545zm36.395-3.37c-1.461 0-2.646 1.232-2.646 2.752 0 1.52 1.185 2.75 2.646 2.75zm-28.058 3.507a2.117 2.117 0 1 0 0 4.233 2.117 2.117 0 0 0 0-4.233zm18.483.83a2.769 2.769 0 0 0-1.954 3.393 2.77 2.77 0 0 0 3.38 1.98 2.77 2.77 0 0 0 1.953-3.395c-.427-1.609-2.042-2.333-3.38-1.978zm-6.782 3.522c-.492.594.095 2.318 1.312 3.85 1.217 1.533 2.602 2.293 3.094 1.699.492-.594-.096-2.318-1.312-3.85-1.3-1.638-2.639-2.248-3.094-1.699zm10.536 4.523a2.646 2.646 0 0 0-2.646 2.646h5.292a2.646 2.646 0 0 0-2.646-2.646zm-17.949-2.353c-1.972.773-3.01 2.011-3.395 3.115-.035.1-.053 1.795-.057 1.884h7.127c.213-.85.822-4.038.67-4.429-.437-1.113-2.427-1.322-4.345-.57zm-9.99 2.353c-1.212 0-3.848 1.185-3.848 2.646h5.356c0-1.46-.297-2.646-1.509-2.646z"
      style="display:inline;fill:#fde3e0;fill-opacity:1;stroke-width:.962886;stroke-dasharray:.16048,.481441"
      transform="translate(-105.928 -57.334)" />
    <path
      d="M107.127 57.334c.181.425.48.764.834.865a7.251 7.251 0 0 0 2.834-.865zm7.848 0a.88.88 0 0 0 .124.342c-1.419.683-4.69 1.603-2.464 3.605 1.196.43 3.228-.257 4.667-.456.504-.07.041-2.43-.057-3.31a2.725 2.725 0 0 0-.184-.18h-.28zm5.032 0c-.092.522.514 1.88.514 3.044 0 .918 1.792-.327 2.7-.371 2.624.073 5.31-.402 6.85-2.673h-2.635c-1.25 1.256-2.715.6-4.173.173a8.13 8.13 0 0 1-.21-.173zm18.795 0c-.06 1.616 1.973.852 3.317 0zm5.138 0c.035.07.068.144.1.219-.71.632-.209 2.544-2.187 3.416-.263.562.124.82.414 1.11.566.569 1.52.751 1.857-.013 1.672.338 2.47-1.108 2.572-2.613.082-1.213-.295-1.99-.368-2.119zm-11.769.14c-.905-.006-2.229 2.006-1.808 2.555.091.118.872.367 1.31.118.33-.188.302-.862.562-.945.369-.258.587-.72.55-1.17-.14-.395-.36-.555-.614-.557zm4.868.243c-1.136-.005-3.963 2.022-2.053 2.244-.407.524-.845.522-1.34.965-.112.099-.382.927-.443 1.019-.147-.353-.503-.612-1.133-.646-.465.078-1.39.066-1.676.433-.349.45-.497 1.033-.313 1.53.26.7.646 1.294 1.775.846 2.158-.649 2.45-1.297 2.76-2.156.384-.325.57-.866.903-1.241.315-.374 1.529-.894 1.826-1.28.784-.425.504-.944-.306-1.714zm-29.851.678c-.453.116-.9.436-1.26.847v2.955c.117.047.248.084.394.112.607 1.326 3.062 2.567 2.847.41.872.296 1.444-.977 1.422-1.915l-1.028.269c.024.266-1.039.67-1.558.67a.72.72 0 0 1-.72-.721c0-.398.402-.94.8-.94.274 0 1.343.335 1.464.58l1.004-.2c-.056-.256-.174-.455-.363-.54-.034-1.362-2.17-.983-3.002-1.527zm41.073 3.802v-2.955c-.46.524-.784 1.195-.784 1.781 0 .506.219.947.784 1.174zm-9.481-2.254c-.79.625-2.512 1.618-3.116 2.561-.624.975-.22 1.232.296 1.458-.089.522 2.126 2.388 2.557 1.79.717.78 1.35.678 1.9.268 2.271-.948-.083-3.657-1.381-1.581-.412-.576-1.444-.52-2.069-1.082.659-.338 2.062-1.402 2.541-1.977.265-.317-.197-1.116-.728-1.437zm-14.197 1.898c-.374.26-.75.622-1.13.947l.698 1.202c1.26-.682 2.684 1.55 1.89 2.914-.211.696-.01 1.075.271 1.365.466.48 1.29 1.064 1.847.546.371-.345.589-1.426.422-2.163.333-2-.74-4.186-2.816-4.634a4.213 4.213 0 0 0-1.182-.177zm-9.614.942c.141-.023.203-.05.333.015.664 1 1.87.43 2.158.533.371.131-.215.83.49 1.659-.968-.572.598.38.036.933 1.759 1.167-.05 3.74-1.787 3.916-1.388-1.118-2.127 1.297-3.723.618-.743-.794-.493-1.926-.568-2.549-.076-.638 1.094-.112 1.737-.224 1.232.599 3.013-.18 2.595-1.016-.352-.705-2.758-1.467-3.423-1.314-1.13-.036-.889-1.468-.639-2.318.198-.671 2.791.312 2.791-.253m8.176.254c-.666.509-1.059.147-2.146.074-.239 1.278-.425 2.929.065 4.414.532.784.899.636 1.227.56 2.18.041 1.416-2.362 1.333-3.608.12-.164.245-.29.372-.386zm25.116 1.24-1.61-.78c-4.054 1.23-4.66 2.934-4.642 4.719.776.247.74 2.97 2.46 1.654.175.009 2.313-1.285 3.236-2.606.165.255.355.5.556.728zm-42.333 3.715c.33.375.688.702 1.006.934.576.693-.298.889-1.006 1.222v2.007c1.223.847 3.28-.325 4.204-1.273.954-2.35-.984-4.682-2.837-5.913-.389-.383-.818-.788-1.367-.687zm27.466-2.608c-.702.109-1.668-.009-2.14.568-.619.756-.409 1.95-.455 3.13 1.392.899 3.784-.619 4.634-.827.168.5 1.5 1.959 1.5 1.959-.065-.053.036.713-.335.99-.422.313-1.33.154-1.584.293-1.17.637-1.893 1.167-1.244 2.69 1.908.04 6.141.544 5.344-2.072-.002-.833.932-2.913.056-3.417-1-.574-2.019-2.463-3.626-2.727-.74-.765-1.242-.727-2.15-.587zm11.186 6.075c.32.577 1.527 1.77 2.334 1.789.547-.206.723-.925.994-1.428.094.136.225.234.353.335v-2.007c-.27.127-.517.274-.649.477-.51-.45-1.394-.704-1.951-.77-.934.338-1.39 1.049-1.081 1.604zm-3.252-1.3c-.669 0-.742 2.006-.764 2.594-.058 1.121.509 1.023 1.525 1.471.468.373 1.733.315 1.906-.47.1-.458-.33-1.046-1.088-2.255-.14-.516-1-1.233-1.579-1.34zm-18.03.108c-2.048.324-2.805 1.506-3.128 3.808.13.547.148 2.281 1.769.004 1.607-2.068 3.58-.607 4.58-.176.219.203.46.277.699.255-.274.354.533.737.554 1.09.018.306.794.713.787.972-.29.272-1.37 1.497-2.354 1.916-1.339.571-2.868-.551-2.945-.544-3.009.3.31 2.422.869 2.454 1.524.088 2.496 1.761 4.862-2.52.396-.248.537-.524.499-.764.39-.035.75-.111.81-.258.104-.258-.276-1.583-.385-1.923-.108-.34-.431-1.423-.91-1.062-.441.418-.807.547-1.403.525.893-.452 1.506-2.082.254-2.73-1.258-.84-2.813-.341-4.105-.908zm8.525.126c-.289 0-.802.032-.902.5-.065.312.212 1.032.279 1.282.116.443.539 1.413 1.036 1.351.23-.028.367-.781.692-1.004.947-.57.882-2.134-1.105-2.13zm-13.198.701a.731.731 0 0 0-.25.063c-.571.248-1.376.75-2.207.986-.349.099-.897-.139-1.168-.05-.682.223-.74.806.23 1.473 1.712 1.179 2.4.372 3.483-.45.833-.63.657-2.065-.088-2.022zm-12.697 3.884v.571c.16.572.94.217 1.354.402 1.165.103 4.07-.174 2.62 1.899-.535.312-1.588 1.257-2.433 1.841-.993.686-1.68 1.068-.593 2.226 1.723.343 3.35-2.514 5.11-2.136.889-.958 1.244-2.748 1.682-4.091-.587-1.268-3.288-1.892-5.298-1.898-1.081-.018-2.163.042-2.442 1.186zm18.442-.048c-.576.085-1.532.178-2.256.475-.596.245-1.297.718-.969 1.26.24.397 1.372-.261 2.307.046.88.046 1.898.815 2.65-.014.7-.978-.558-1.95-1.732-1.767zm21.555.608c-1.276-.023-2.199 1.197-2.128 1.77-1.277 1.162-1.425-1.934-3.143-1.71-.606-.06-.95 2.47-.93 3.003.064 1.155 1.49.448 2.552.911.494.174 1.395.14 1.782-.682.349.916.745.455 1.867.9.476.18 1.323.264 1.878-.068.602-.486-.32-1.009-.525-1.452-.599-.881-.051-1.781-1.094-2.65a1.993 1.993 0 0 0-.26-.022zm-13.206.579c-1.05.41-1.01 1.486-1.022 1.498-.212.158-.564.32-.491.518.273.74.433 1.862.905 2.186.276.189.715.064 1.143-.077.25-.02-.21-.716.055-1.247.126-.253.981-.427 1.103-.552.773-.789 1.407-.666 1.259.91.071.225.135.62.163 1.052l1.393.285c.236-.737.203-.994.469-1.767-.067-.726.17-1.416.176-2.442-1.66-.28-3.482-.91-5.153-.364zm-14.47-.194c-.071 0-.154.048-.265.084-1.242.142-1.485 1.63-2.21 2.62-.907 3.638 1.92.99 2.75 1.078l1.01-.937c-.572-.8-1.164-1.66-1.164-2.777-.038-.05-.078-.067-.12-.068zm-12.321.811v1.496c.086.17.19.324.309.442.392.392.906.392 1.176-.672.123-.572-.167-1.312-.82-1.35-.28.07-.51.022-.665.084zm42.333 0c-.153.061-.233.23-.212.727.01.257.091.53.212.77zm-29.603 3.074c-.415 1.604-.755 2.075-1.24 2.392-1.898 2.3-3.656 2.122-4.617.043-5.05 1.269.78 5.269 2.737 3.942 1.742-1.18 3.713-2.207 4.87-4.399.477-1.094-.114-1.955-.78-2.886zm22.225.69c-1.807.059-1.666 3.493.141 1.994.549-.098 2.414-.438 2.362-1.179-.562-.683-1.656-.716-2.503-.816zm-4.882.456c.002.536-.063 1.069-.247 1.37-.334.547-1.148.15-1.58-.223-.24.217-.824.573-.825.953 0 .354.572.723.6 1.167.063 1.038.305 1.911.99 1.461.578-.873 1.028.087 1.508-1.17.173-.451.5-2.666.715-3.193.03-.07.055-.14.081-.21zm-6.892 2.395c.183-.588.877-.557 1.173-.085.335.263.788.613.545 1.09-.132.492-.18 1.23-.837 1.257-.469.227-.918.067-1.3-.224-.638-.206-.45-.824-.053-1.174.103-.601-.855-.32-1.114-.847-.464.663-1.033 1.652-1.403 2.372.363.63 1.386.373 1.894.874.378.43.92 0 1.426-.004.675-.096 1.333-.337 1.962-.588.266-.35.045-.86.331-1.228.046-.427.567-1.088-.054-1.263-.39-.328-.372-1.075-.808-1.464-.348-.521-.762-.928-1.2-.974-.421.01-1.527.656-1.592 1.211-.055.472.93 1.01 1.03 1.047zm16.368-1.972c-.284.184-.772.34-1.28.68-.623.418.149.708-.156 1.241-.316.552-1.687 1.347-1.02 1.795 1.474-1.216 6.17-1.96 3.23-3.054zm-21.223.942c.112.554.648 1.119 1.618.381.216-.165.113-.53.028-.778-.363-.224-1.883-.773-1.646.397zm-2.65-.021c0 1.3-2.242 2.82-3.692 3.64-.571 2.358 2.695.748 3.547-.104 1.418.047 3.791.112 2.984-1.55-.143-.293-1.106-.354-1.457-.724-.294-.309.06-.914-.408-1.28-.324-.074-.648-.019-.975.018zm-15.676 1.951v1.619c1.022.369 1.632.511 2.105.047.51-.499.382-1.364.102-1.93-.276-.558-1.254.245-2.207.264zm33.137 2.417c.596-.176 1.208-.53 1.62-.973.639-.69-.381-1.512-1.489-1.51-.824.143-2.638 3.038-.13 2.483zm9.196 2.267c-.053-.019-.105-.039-.16-.055-.516-.327-.509.23-.915.167-.642-.772-2.273-1.13-.763-2.008.357-.258 1.21-.738 1.665-1.232l.173.063v-1.619c-.186.004-.44.034-.5.368a4.82 4.82 0 0 0-.93-.232c-.814 1.36-2.117.474-2.978 1.539-1.487.488-1.17 1.606-.374 2.29-.717 1.913 2.135 1.03 1.63 2.838.774.353 2.003.206 2.89-.141a.918.918 0 0 0 .262.225zm-37.92-3.562c-2.235 1.215.952 2.79.656.414-.136-.236-.4-.363-.656-.414zm22 1.145c.3.338.554.815.768 1.342 1.146 3.145-1.114 3.44-3.592 3.418v-.967c.336-.091.739-.467 1.023-.545 1.83.162.322-2.257 1.052-3.022.206-.2.476-.222.749-.226zm-10.263.695c-2.355.4-.123 5.16-2.425 4.59-.374-1.502-1.75-5.279-3.687-3.269-.241 2.063 1.484 4.975 2.277 6.652 1.337.31 3.531-2.165 4.99-2.71.305-1.554 1.533-5.258-1.155-5.263zm-10.515.208c-2.186.323 1.41 3.252.226 3.508-.043.01-.989 1.444-1.29 1.358-.459-.132-.338-1.81-.445-1.821-1.432 1.1-2.123 3.18-2.861 4.49 1.092 1.352 1.865-.81 2.682-.09 1.72-.287 2.494-2.184 4.446-1.631 2.786-2.275-1.121-4.364-2.758-5.814zm27.873.086c-.07 0-.14.004-.213.009-.656.126-1.145.598-1.697.94-1.063.575-.932.932-1.714 1.61.443 2.692 3.232-1.39 4.288.045.116 1.05-.47 3.549 1.434 2.692-1.062.9-5.001.624-3.678 2.574 2.264.484 6.62-.762 5.15-3.836-.707-1.831-1.425-4.048-3.57-4.034zm-14.63 4.05c1.2 1.54 2.946.223 4.413-.203v-1.027c-.113-.013-.225-.037-.361-.022-.968.11-1.954-.558-1.14-1.809-.23-.22-.297-.561-.806-.581-1.765.084-2.34 2.74-2.107 3.643zm-17.13-2.478c-.52.463-1.063.097-1.748-.144v2.241c1.094.532 2.843-.832 2.589-1.465-.134-.331-.456-.975-.84-.632zm29.26 2.372c-.187 0-.374.08-.545.243-2.037.944.91 3.125 1.332.905.125-.568-.288-1.147-.787-1.148zm-3.494.604c-.058 0-.113.002-.164.006-1.834.104-4.06.35-2.357 3.346 1.13 1.302 1.914 2.912 3.496 3.81 1.252.292 4.651-1.394 2.384-2.496-1.489.952-3.483.446-3.452-1.385-1.095-1.02 2.291-1.71.67-3.193a1.795 1.795 0 0 0-.577-.088zm11.763.884c-.965.02-.808 2.339.677 2.81.139 1.874 3.26 2.265 1.97.06-1.21-2.169-2.105-2.881-2.647-2.87zm-18.34.318c-1.03.361-2.578.386-3.071 1.499-.064 1.097 1.215.784 1.777.29.484-.41 1.084-.543.949.261-.01.719 1.383 1.488.205 1.924-.798.02-1.914 1.288-.568 1.332 1.158-.261 2.365-.365 3.514-.698.475-.002.141-.395.412-.732-.688-.672-.964-1.684-1.69-2.357-.539-.362-.842-1.528-1.528-1.519zm-9.804 6.413c-.056-.052-.26-.172-.348-.395.04-.513.25-1.144.066-1.712-.19-.581-.51-1.133-.705-1.574-.585-.56-1.269-1.102-2.094-1.222-1.72.94-1.706 1.112-4.317 2.628-2.642-.752-3.042 1.093-2.536 2.275h3.668c1.63-.891 2.428-2.072 3.614-1.748.617.375.467 1.189.566 1.748zm21.888-.8c-.094.315-.14.579-.147.8h3.317c.32-.203.603-.41.807-.592.517-.145.798.16 1.014.592h2.388c-.139-.244-.34-.337-.616-.334-.49-1.043-1.34-2.09-1.65-3.175-.836-1.48-1.808-.422-2.524.456-.75.88-1.354 1.986-2.59 2.252zm-19.498.52c.324.044.525-.086.556.28h3.045c-.967-.82-1.684-1.868-.749-3.28-.135-.437-.742-.217-1.204-.382 0 .622-3.896 2.189-1.648 3.382zm7.985.28h2.635c.173-.856-.1-1.163-.552-1.161-.638.015-1.58.624-2.083 1.16z"
      style="display:inline;opacity:1;fill:#f5a298;fill-opacity:1;stroke:none;stroke-width:.965369;stroke-dasharray:.160895,.482685"
      transform="translate(-105.928 -57.334)" />
  </g>
</svg>