<?xml version="1.0" standalone="no"?>
<!DOCTYPE svg PUBLIC "-//W3C//DTD SVG 1.1//EN" "http://www.w3.org/Graphics/SVG/1.1/DTD/svg11.dtd">
<svg width="120" height="120" viewBox="0 0 120 120" xmlns="http://www.w3.org/2000/svg">
  <path fill="#e4e4dd" d="M0 0v120h120V0"/>
  <path fill="#fff8e1" d="M5.6 0c0 .9.5 1.7 1.2 2.2.8.4 1.8.4 2.5 0 .8-.5 1.3-1.3 1.3-2.2h-5zm10.2 0c1.1.6 2.3 1.2 3.6.9.8 0 1.3-.3 1.6-.9h-5.2zM32 0c0 1.4 1.5 4.1 2.9 4.1S37 1.4 37 0h-5zm13.6 0c0 .9.5 1.7 1.2 2.2.8.4 1.8.4 2.5 0 .8-.5 1.3-1.3 1.3-2.2h-5zm10.2 0c1.1.6 2.3 1.2 3.6.9.8 0 1.3-.3 1.6-.9h-5.2zM72 0c0 1.4 1.5 4.1 2.9 4.1S77 1.4 77 0h-5zm13.6 0c0 .9.5 1.7 1.2 2.2.8.4 1.8.4 2.5 0 .8-.5 1.3-1.3 1.3-2.2h-5zm10.2 0c1.1.6 2.3 1.2 3.6.9.8 0 1.3-.3 1.6-.9h-5.2zM112 0c0 1.4 1.5 4.1 2.9 4.1S117 1.4 117 0h-5zM25.5.8c-.4 0-.8.1-.9.3-.3.3-.8 3.7-.3 4.1.5.3 1.9-.9 2.6-1.6.7-.7 1.6-1.6 1.7-1.9 0-.3-1.9-.9-3.1-.9zm40 0c-.4 0-.8.1-.9.3-.3.3-.8 3.7-.3 4.1.5.3 1.9-.9 2.6-1.6.7-.7 1.6-1.6 1.7-1.9 0-.3-1.9-.9-3.1-.9zm40 0c-.4 0-.8.1-.9.3-.3.3-.8 3.7-.3 4.1.5.3 1.9-.9 2.6-1.6.7-.7 1.6-1.6 1.7-1.9 0-.3-1.9-.9-3.1-.9zM2.6 2.3c-.8 0-1.5.5-1.5 1 0 .6.7 1 1.5 1S4 3.9 4 3.3c0-.5-.6-1-1.4-1zm40 0c-.8 0-1.5.5-1.5 1 0 .6.7 1 1.5 1s1.4-.4 1.4-1c0-.5-.6-1-1.4-1zm40 0c-.8 0-1.5.5-1.5 1 0 .6.7 1 1.5 1s1.4-.4 1.4-1c0-.5-.6-1-1.4-1zM31.9 4c-.2 0-.4.1-.7.1-1.1 0-2 .9-2 1.9 0 1 .9 1.9 2 1.9s2.4-.5 2.4-1.5c0-.7-.9-2-1.4-2.3-.1-.1-.2-.1-.3-.1zm40 0c-.2 0-.4.1-.7.1-1.1 0-2 .9-2 1.9 0 1 .9 1.9 2 1.9s2.4-.5 2.4-1.5c0-.7-.9-2-1.4-2.3-.1-.1-.2-.1-.3-.1zm40 0c-.2 0-.4.1-.7.1-1.1 0-2 .9-2 1.9 0 1 .9 1.9 2 1.9s2.4-.5 2.4-1.5c0-.7-.9-2-1.4-2.3-.1-.1-.2-.1-.3-.1zM18.2 5.3c-2.3.1-2 1.1-1.8 2.5.3 1.3.8 2.4 1.8 2.4S20 9.1 20 7.8c0-1.4-.8-2.5-1.8-2.5zm40 0c-2.3.1-2 1.1-1.8 2.5.3 1.3.8 2.4 1.8 2.4S60 9.1 60 7.8c0-1.4-.8-2.5-1.8-2.5zm40 0c-2.3.1-2 1.1-1.8 2.5.3 1.3.8 2.4 1.8 2.4s1.8-1.1 1.8-2.4c0-1.4-.8-2.5-1.8-2.5zM8.1 7.1c-.7 0-1.3.3-1.6.8-.3.6-.3 1.3 0 1.8.3.6.9.9 1.6.9.6 0 1.2-.3 1.5-.9.3-.5.3-1.2 0-1.8-.3-.5-.9-.8-1.5-.8zm40 0c-.7 0-1.3.3-1.6.8-.3.6-.3 1.3 0 1.8.3.6.9.9 1.6.9.6 0 1.2-.3 1.5-.9.3-.5.3-1.2 0-1.8-.3-.5-.9-.8-1.5-.8zm40 0c-.7 0-1.3.3-1.6.8-.3.6-.3 1.3 0 1.8.3.6.9.9 1.6.9.6 0 1.2-.3 1.5-.9.3-.5.3-1.2 0-1.8-.3-.5-.9-.8-1.5-.8zM40 8.7c-1.8 0-3.3 1.2-3.3 2.3 0 1.1 1.5 2 3.3 2 1.1 0 2-.9 2-2s-.9-2-2-2v-.3zm40 0c-1.8 0-3.3 1.2-3.3 2.3 0 1.1 1.5 2 3.3 2 1.1 0 2-.9 2-2s-.9-2-2-2v-.3zm40 0c-1.8 0-3.3 1.2-3.3 2.3 0 1.1 1.5 2 3.3 2V8.7zM0 9v4c1.1 0 2-.9 2-2s-.9-2-2-2zm26.9.3c-1.3 0-2.3 1.1-2.3 2.4 0 1.3 1 2.3 2.3 2.4 1.6.1 3.8-.5 2.3-2.4-.8-1-1-2.4-2.3-2.4zm40 0c-1.3 0-2.3 1.1-2.3 2.4 0 1.3 1 2.3 2.3 2.4 1.6.1 3.8-.5 2.3-2.4-.8-1-1-2.4-2.3-2.4zm40 0c-1.3 0-2.3 1.1-2.3 2.4 0 1.3 1 2.3 2.3 2.4 1.6.1 3.8-.5 2.3-2.4-.8-1-1-2.4-2.3-2.4zm-90.7 3.9c-.9 0-1.6.4-1.9 1.2-.6 1.6.5 3.9 2.5 5.2 2 1.3 4 1.1 4.6-.4.5-1.5-.6-3.8-2.6-5.1-.9-.6-1.8-.9-2.6-.9zm40 0c-.9 0-1.6.4-1.9 1.2-.6 1.6.5 3.9 2.5 5.2 2 1.3 4 1.1 4.6-.4.5-1.5-.6-3.8-2.6-5.1-.9-.6-1.8-.9-2.6-.9zm40 0c-.9 0-1.6.4-1.9 1.2-.6 1.6.5 3.9 2.5 5.2 2 1.3 4 1.1 4.6-.4.5-1.5-.6-3.8-2.6-5.1-.9-.6-1.8-.9-2.6-.9zm-61.4 1c-1 .2-1.5 2.1-1.2 3.2.3 1.2 1.3 2.9 2.3 2.6 1-.3 2.6-.7 2.3-1.8-.3-1.1-2.3-4.1-3.4-4zm40 0c-1 .2-1.5 2.1-1.2 3.2.3 1.2 1.3 2.9 2.3 2.6 1-.3 2.6-.7 2.3-1.8-.3-1.1-2.3-4.1-3.4-4zm40 0c-1 .2-1.5 2.1-1.2 3.2.3 1.2 1.3 2.9 2.3 2.6 1-.3 2.6-.7 2.3-1.8-.3-1.1-2.3-4.1-3.4-4zM3.1 16.6c-1.6 0-2.8.9-2.8 2.1C.3 19.8.2 22 1.7 22c1.6 0 4.1-2.2 4.1-3.3 0-1.2-1.2-2.1-2.7-2.1zm40 0c-1.6 0-2.8.9-2.8 2.1 0 1.1-.1 3.3 1.4 3.3 1.6 0 4.1-2.2 4.1-3.3 0-1.2-1.2-2.1-2.7-2.1zm40 0c-1.6 0-2.8.9-2.8 2.1 0 1.1-.1 3.3 1.4 3.3 1.6 0 4.1-2.2 4.1-3.3 0-1.2-1.2-2.1-2.7-2.1zM27.6 18c-1.2.2-3.5 2.1-2.6 2.7 1.2.8 1.5 4.5 2.4 4.4 1.1-.2 2.1-4.2 2.1-5.3 0-1-.8-1.8-1.9-1.8zm40 0c-1.2.2-3.5 2.1-2.6 2.7 1.2.8 1.5 4.5 2.4 4.4 1.1-.2 2.1-4.2 2.1-5.3 0-1-.8-1.8-1.9-1.8zm40 0c-1.2.2-3.5 2.1-2.6 2.7 1.2.8 1.5 4.5 2.4 4.4 1.1-.2 2.1-4.2 2.1-5.3 0-1-.8-1.8-1.9-1.8zm-96.4 2.8c-.7.1-1.7.4-2.4.9-1.1.8-3.1 2.3-2.7 2.9.5.5 3.1.7 4.2 0 1.1-.8 2.1-2.9 1.7-3.5-.2-.2-.4-.3-.8-.3zm40 0c-.7.1-1.7.4-2.4.9-1.1.8-3.1 2.3-2.7 2.9.5.5 3.1.7 4.2 0 1.1-.8 2.1-2.9 1.7-3.5-.2-.2-.4-.3-.8-.3zm40 0c-.7.1-1.7.4-2.4.9-1.1.8-3.1 2.3-2.7 2.9.5.5 3.1.7 4.2 0 1.1-.8 2.1-2.9 1.7-3.5-.2-.2-.4-.3-.8-.3zM35 22.6c-.4 0-.9.1-1.4.3-1.3.5-2.1 1.6-1.7 2.4.3.8 1.6 1 2.9.5 1.2-.6 2-1.7 1.7-2.5-.2-.5-.8-.7-1.5-.7zm40 0c-.4 0-.9.1-1.4.3-1.3.5-2.1 1.6-1.7 2.4.3.8 1.6 1 2.9.5 1.2-.6 2-1.7 1.7-2.5-.2-.5-.8-.7-1.5-.7zm40 0c-.4 0-.9.1-1.4.3-1.3.5-2.1 1.6-1.7 2.4.3.8 1.6 1 2.9.5 1.2-.6 2-1.7 1.7-2.5-.2-.5-.8-.7-1.5-.7zm-92.9.9c-.6 0-1.1.5-1.3 1.2-.4 1-.1 2.1.5 2.5.6.3 1.5-.1 2-.9.6-.9.4-1.7-.1-2.2-.3-.4-.7-.6-1.1-.6zm40 0c-.6 0-1.1.5-1.3 1.2-.4 1-.1 2.1.5 2.5.6.3 1.5-.1 2-.9.6-.9.4-1.7-.1-2.2-.3-.4-.7-.6-1.1-.6zm40 0c-.6 0-1.1.5-1.3 1.2-.4 1-.1 2.1.5 2.5.6.3 1.5-.1 2-.9.6-.9.4-1.7-.1-2.2-.3-.4-.7-.6-1.1-.6zM0 25.8V31c1.4 0 2.5-1.2 2.5-2.6 0-1.4-1.1-2.6-2.5-2.6zm40 0c-1.4 0-2.5 1.2-2.5 2.6 0 1.4 1.1 2.6 2.5 2.6s2.5-1.2 2.5-2.6c0-1.4-1.1-2.6-2.5-2.6zm40 0c-1.4 0-2.5 1.2-2.5 2.6 0 1.4 1.1 2.6 2.5 2.6s2.5-1.2 2.5-2.6c0-1.4-1.1-2.6-2.5-2.6zm40 0c-1.4 0-2.5 1.2-2.5 2.6 0 1.4 1.1 2.6 2.5 2.6v-5.2zm-96.13 2.547c-.745-.027-1.808.215-2.87.653-1.7.7-2.7 1.8-2.3 2.4.4.6 2.1.5 3.8-.3 2.8-.1 2.8-1.7 2.3-2.4-.15-.225-.483-.337-.93-.353zm40 0c-.745-.027-1.808.215-2.87.653-1.7.7-2.7 1.8-2.3 2.4.4.6 2.1.5 3.8-.3 2.8-.1 2.8-1.7 2.3-2.4-.15-.225-.483-.337-.93-.353zm40 0c-.745-.027-1.808.215-2.87.653-1.7.7-2.7 1.8-2.3 2.4.4.6 2.1.5 3.8-.3 2.8-.1 2.8-1.7 2.3-2.4-.15-.225-.483-.337-.93-.353zM5.6 29c-.8 0-1.2.9-1.8 2.3-.6 1.2.8 2.5 1.7 2.5.9 0 1.6-1.1 1.6-2.4 0-1.3-.7-2.4-1.5-2.4zm40 0c-.8 0-1.2.9-1.8 2.3-.6 1.2.8 2.5 1.7 2.5.9 0 1.6-1.1 1.6-2.4 0-1.3-.7-2.4-1.5-2.4zm40 0c-.8 0-1.2.9-1.8 2.3-.6 1.2.8 2.5 1.7 2.5.9 0 1.6-1.1 1.6-2.4 0-1.3-.7-2.4-1.5-2.4zm-72.1.1c-.7 0-1.4.4-1.8 1-.3.6-.3 1.4 0 2 .4.7 1.1 1 1.8 1 1.1 0 1.9-.9 1.9-2s-.8-2-1.9-2zm40 0c-.7 0-1.4.4-1.8 1-.3.6-.3 1.4 0 2 .4.7 1.1 1 1.8 1 1.1 0 1.9-.9 1.9-2s-.8-2-1.9-2zm40 0c-.7 0-1.4.4-1.8 1-.3.6-.3 1.4 0 2 .4.7 1.1 1 1.8 1 1.1 0 1.9-.9 1.9-2s-.8-2-1.9-2zm-62.039.73a2.51 2.51 0 00-.461.07c-1.4.4-2.3 1.8-1.9 3.2.4 1.4 1.8 2.2 3.2 1.9 1.4-.4 2.2-1.8 1.8-3.2-.35-1.4-1.542-2.034-2.639-1.97zm40 0a2.51 2.51 0 00-.461.07c-1.4.4-2.3 1.8-1.9 3.2.4 1.4 1.8 2.2 3.2 1.9 1.4-.4 2.2-1.8 1.8-3.2-.35-1.4-1.542-2.034-2.639-1.97zm40 0a2.51 2.51 0 00-.461.07c-1.4.4-2.3 1.8-1.9 3.2.4 1.4 1.8 2.2 3.2 1.9 1.4-.4 2.2-1.8 1.8-3.2-.35-1.4-1.542-2.034-2.639-1.97zm-86.464 3.198a.632.632 0 00-.497.172c-.4.6.1 2.2 1.3 3.7 1.1 1.4 2.4 2.1 2.9 1.6.5-.6-.1-2.2-1.2-3.7-.975-1.125-1.894-1.744-2.503-1.772zm40 0a.632.632 0 00-.497.172c-.4.6.1 2.2 1.3 3.7 1.1 1.4 2.4 2.1 2.9 1.6.5-.6-.1-2.2-1.2-3.7-.975-1.125-1.894-1.744-2.503-1.772zm40 0a.632.632 0 00-.497.172c-.4.6.1 2.2 1.3 3.7 1.1 1.4 2.4 2.1 2.9 1.6.5-.6-.1-2.2-1.2-3.7-.975-1.125-1.894-1.744-2.503-1.772zm-85.47 1.859c-.616.014-1.315.15-2.027.413-1.8.7-2.8 1.9-3.2 2.9V40h1.5c1.1.6 2.3 1.2 3.6.9.8 0 1.3-.3 1.6-.9.2-.8.8-3.8.6-4.2-.25-.625-1.047-.938-2.073-.913zm40 0c-.616.014-1.315.15-2.027.413-1.8.7-2.8 1.9-3.2 2.9V40h1.5c1.1.6 2.3 1.2 3.6.9.8 0 1.3-.3 1.6-.9.2-.8.8-3.8.6-4.2-.25-.625-1.047-.938-2.073-.913zm40 0c-.616.014-1.315.15-2.027.413-1.8.7-2.8 1.9-3.2 2.9V40h1.5c1.1.6 2.3 1.2 3.6.9.8 0 1.3-.3 1.6-.9.2-.8.8-3.8.6-4.2-.25-.625-1.047-.938-2.073-.913zM8.1 37.5c-1.1 0-3.6 1.1-3.6 2.5h1.1c0 .9.5 1.7 1.2 2.2.8.4 1.8.4 2.5 0 .8-.5 1.3-1.3 1.3-2.2H9.5c0-1.4-.3-2.5-1.4-2.5zm26.4 0c-1.4 0-2.5 1.1-2.5 2.5s1.5 4.1 2.9 4.1S37 41.4 37 40c0-.7-.3-1.3-.7-1.8-.5-.4-1.1-.7-1.8-.7zm13.6 0c-1.1 0-3.6 1.1-3.6 2.5h1.1c0 .9.5 1.7 1.2 2.2.8.4 1.8.4 2.5 0 .8-.5 1.3-1.3 1.3-2.2h-1.1c0-1.4-.3-2.5-1.4-2.5zm26.4 0c-1.4 0-2.5 1.1-2.5 2.5s1.5 4.1 2.9 4.1S77 41.4 77 40c0-.7-.3-1.3-.7-1.8-.5-.4-1.1-.7-1.8-.7zm13.6 0c-1.1 0-3.6 1.1-3.6 2.5h1.1c0 .9.5 1.7 1.2 2.2.8.4 1.8.4 2.5 0 .8-.5 1.3-1.3 1.3-2.2h-1.1c0-1.4-.3-2.5-1.4-2.5zm26.4 0c-1.4 0-2.5 1.1-2.5 2.5s1.5 4.1 2.9 4.1 2.1-2.7 2.1-4.1c0-.7-.3-1.3-.7-1.8-.5-.4-1.1-.7-1.8-.7zm-89 3.3c-.4 0-.8.1-.9.3-.3.3-.8 3.7-.3 4.1.5.3 1.9-.9 2.6-1.6.7-.7 1.6-1.6 1.7-1.9 0-.3-1.9-.9-3.1-.9zm40 0c-.4 0-.8.1-.9.3-.3.3-.8 3.7-.3 4.1.5.3 1.9-.9 2.6-1.6.7-.7 1.6-1.6 1.7-1.9 0-.3-1.9-.9-3.1-.9zm40 0c-.4 0-.8.1-.9.3-.3.3-.8 3.7-.3 4.1.5.3 1.9-.9 2.6-1.6.7-.7 1.6-1.6 1.7-1.9 0-.3-1.9-.9-3.1-.9zM2.6 42.3c-.8 0-1.5.5-1.5 1 0 .6.7 1 1.5 1s1.4-.4 1.4-1c0-.5-.6-1-1.4-1zm40 0c-.8 0-1.5.5-1.5 1 0 .6.7 1 1.5 1s1.4-.4 1.4-1c0-.5-.6-1-1.4-1zm40 0c-.8 0-1.5.5-1.5 1 0 .6.7 1 1.5 1s1.4-.4 1.4-1c0-.5-.6-1-1.4-1zM31.9 44c-.2 0-.4.1-.7.1-1.1 0-2 .9-2 1.9 0 1 .9 1.9 2 1.9s2.4-.5 2.4-1.5c0-.7-.9-2-1.4-2.3-.1-.1-.2-.1-.3-.1zm40 0c-.2 0-.4.1-.7.1-1.1 0-2 .9-2 1.9 0 1 .9 1.9 2 1.9s2.4-.5 2.4-1.5c0-.7-.9-2-1.4-2.3-.1-.1-.2-.1-.3-.1zm40 0c-.2 0-.4.1-.7.1-1.1 0-2 .9-2 1.9 0 1 .9 1.9 2 1.9s2.4-.5 2.4-1.5c0-.7-.9-2-1.4-2.3-.1-.1-.2-.1-.3-.1zm-93.7 1.3c-2.3.1-2 1.1-1.8 2.5.3 1.3.8 2.4 1.8 2.4s1.8-1.1 1.8-2.4c0-1.4-.8-2.5-1.8-2.5zm40 0c-2.3.1-2 1.1-1.8 2.5.3 1.3.8 2.4 1.8 2.4s1.8-1.1 1.8-2.4c0-1.4-.8-2.5-1.8-2.5zm40 0c-2.3.1-2 1.1-1.8 2.5.3 1.3.8 2.4 1.8 2.4s1.8-1.1 1.8-2.4c0-1.4-.8-2.5-1.8-2.5zM8.1 47.1c-.7 0-1.3.3-1.6.8-.3.6-.3 1.3 0 1.8.3.6.9.9 1.6.9.6 0 1.2-.3 1.5-.9.3-.5.3-1.2 0-1.8-.3-.5-.9-.8-1.5-.8zm40 0c-.7 0-1.3.3-1.6.8-.3.6-.3 1.3 0 1.8.3.6.9.9 1.6.9.6 0 1.2-.3 1.5-.9.3-.5.3-1.2 0-1.8-.3-.5-.9-.8-1.5-.8zm40 0c-.7 0-1.3.3-1.6.8-.3.6-.3 1.3 0 1.8.3.6.9.9 1.6.9.6 0 1.2-.3 1.5-.9.3-.5.3-1.2 0-1.8-.3-.5-.9-.8-1.5-.8zM40 48.7c-1.8 0-3.3 1.2-3.3 2.3 0 1.1 1.5 2 3.3 2 1.1 0 2-.9 2-2s-.9-2-2-2v-.3zm40 0c-1.8 0-3.3 1.2-3.3 2.3 0 1.1 1.5 2 3.3 2 1.1 0 2-.9 2-2s-.9-2-2-2v-.3zm40 0c-1.8 0-3.3 1.2-3.3 2.3 0 1.1 1.5 2 3.3 2v-4.3zM0 49v4c1.1 0 2-.9 2-2s-.9-2-2-2zm26.9.3c-1.3 0-2.3 1.1-2.3 2.4 0 1.3 1 2.3 2.3 2.4 1.6.1 3.8-.5 2.3-2.4-.8-1-1-2.4-2.3-2.4zm40 0c-1.3 0-2.3 1.1-2.3 2.4 0 1.3 1 2.3 2.3 2.4 1.6.1 3.8-.5 2.3-2.4-.8-1-1-2.4-2.3-2.4zm40 0c-1.3 0-2.3 1.1-2.3 2.4 0 1.3 1 2.3 2.3 2.4 1.6.1 3.8-.5 2.3-2.4-.8-1-1-2.4-2.3-2.4zm-90.7 3.9c-.9 0-1.6.4-1.9 1.2-.6 1.6.5 3.9 2.5 5.2 2 1.3 4 1.1 4.6-.4.5-1.5-.6-3.8-2.6-5.1-.9-.6-1.8-.9-2.6-.9zm40 0c-.9 0-1.6.4-1.9 1.2-.6 1.6.5 3.9 2.5 5.2 2 1.3 4 1.1 4.6-.4.5-1.5-.6-3.8-2.6-5.1-.9-.6-1.8-.9-2.6-.9zm40 0c-.9 0-1.6.4-1.9 1.2-.6 1.6.5 3.9 2.5 5.2 2 1.3 4 1.1 4.6-.4.5-1.5-.6-3.8-2.6-5.1-.9-.6-1.8-.9-2.6-.9zm-61.4 1c-1 .2-1.5 2.1-1.2 3.2.3 1.2 1.3 2.9 2.3 2.6 1-.3 2.6-.7 2.3-1.8-.3-1.1-2.3-4.1-3.4-4zm40 0c-1 .2-1.5 2.1-1.2 3.2.3 1.2 1.3 2.9 2.3 2.6 1-.3 2.6-.7 2.3-1.8-.3-1.1-2.3-4.1-3.4-4zm40 0c-1 .2-1.5 2.1-1.2 3.2.3 1.2 1.3 2.9 2.3 2.6 1-.3 2.6-.7 2.3-1.8-.3-1.1-2.3-4.1-3.4-4zM3.1 56.6c-1.6 0-2.8.9-2.8 2.1C.3 59.8.2 62 1.7 62c1.6 0 4.1-2.2 4.1-3.3 0-1.2-1.2-2.1-2.7-2.1zm40 0c-1.6 0-2.8.9-2.8 2.1 0 1.1-.1 3.3 1.4 3.3 1.6 0 4.1-2.2 4.1-3.3 0-1.2-1.2-2.1-2.7-2.1zm40 0c-1.6 0-2.8.9-2.8 2.1 0 1.1-.1 3.3 1.4 3.3 1.6 0 4.1-2.2 4.1-3.3 0-1.2-1.2-2.1-2.7-2.1zM27.6 58c-1.2.2-3.5 2.1-2.6 2.7 1.2.8 1.5 4.5 2.4 4.4 1.1-.2 2.1-4.2 2.1-5.3 0-1-.8-1.8-1.9-1.8zm40 0c-1.2.2-3.5 2.1-2.6 2.7 1.2.8 1.5 4.5 2.4 4.4 1.1-.2 2.1-4.2 2.1-5.3 0-1-.8-1.8-1.9-1.8zm40 0c-1.2.2-3.5 2.1-2.6 2.7 1.2.8 1.5 4.5 2.4 4.4 1.1-.2 2.1-4.2 2.1-5.3 0-1-.8-1.8-1.9-1.8zm-96.4 2.8c-.7.1-1.7.4-2.4.9-1.1.8-3.1 2.3-2.7 2.9.5.5 3.1.7 4.2 0 1.1-.8 2.1-2.9 1.7-3.5-.2-.2-.4-.3-.8-.3zm40 0c-.7.1-1.7.4-2.4.9-1.1.8-3.1 2.3-2.7 2.9.5.5 3.1.7 4.2 0 1.1-.8 2.1-2.9 1.7-3.5-.2-.2-.4-.3-.8-.3zm40 0c-.7.1-1.7.4-2.4.9-1.1.8-3.1 2.3-2.7 2.9.5.5 3.1.7 4.2 0 1.1-.8 2.1-2.9 1.7-3.5-.2-.2-.4-.3-.8-.3zM35 62.6c-.4 0-.9.1-1.4.3-1.3.5-2.1 1.6-1.7 2.4.3.8 1.6 1 2.9.5 1.2-.6 2-1.7 1.7-2.5-.2-.5-.8-.7-1.5-.7zm40 0c-.4 0-.9.1-1.4.3-1.3.5-2.1 1.6-1.7 2.4.3.8 1.6 1 2.9.5 1.2-.6 2-1.7 1.7-2.5-.2-.5-.8-.7-1.5-.7zm40 0c-.4 0-.9.1-1.4.3-1.3.5-2.1 1.6-1.7 2.4.3.8 1.6 1 2.9.5 1.2-.6 2-1.7 1.7-2.5-.2-.5-.8-.7-1.5-.7zm-92.9.9c-.6 0-1.1.5-1.3 1.2-.4 1-.1 2.1.5 2.5.6.3 1.5-.1 2-.9.6-.9.4-1.7-.1-2.2-.3-.4-.7-.6-1.1-.6zm40 0c-.6 0-1.1.5-1.3 1.2-.4 1-.1 2.1.5 2.5.6.3 1.5-.1 2-.9.6-.9.4-1.7-.1-2.2-.3-.4-.7-.6-1.1-.6zm40 0c-.6 0-1.1.5-1.3 1.2-.4 1-.1 2.1.5 2.5.6.3 1.5-.1 2-.9.6-.9.4-1.7-.1-2.2-.3-.4-.7-.6-1.1-.6zM0 65.8V71c1.4 0 2.5-1.2 2.5-2.6 0-1.4-1.1-2.6-2.5-2.6zm40 0c-1.4 0-2.5 1.2-2.5 2.6 0 1.4 1.1 2.6 2.5 2.6s2.5-1.2 2.5-2.6c0-1.4-1.1-2.6-2.5-2.6zm40 0c-1.4 0-2.5 1.2-2.5 2.6 0 1.4 1.1 2.6 2.5 2.6s2.5-1.2 2.5-2.6c0-1.4-1.1-2.6-2.5-2.6zm40 0c-1.4 0-2.5 1.2-2.5 2.6 0 1.4 1.1 2.6 2.5 2.6v-5.2zm-96.13 2.547c-.745-.027-1.808.216-2.87.653-1.7.7-2.7 1.8-2.3 2.4.4.6 2.1.5 3.8-.3 2.8-.1 2.8-1.7 2.3-2.4-.15-.225-.483-.338-.93-.353zm40 0c-.745-.027-1.808.216-2.87.653-1.7.7-2.7 1.8-2.3 2.4.4.6 2.1.5 3.8-.3 2.8-.1 2.8-1.7 2.3-2.4-.15-.225-.483-.338-.93-.353zm40 0c-.745-.027-1.808.216-2.87.653-1.7.7-2.7 1.8-2.3 2.4.4.6 2.1.5 3.8-.3 2.8-.1 2.8-1.7 2.3-2.4-.15-.225-.483-.338-.93-.353zM5.6 69c-.8 0-1.2.9-1.8 2.3-.6 1.2.8 2.5 1.7 2.5.9 0 1.6-1.1 1.6-2.4 0-1.3-.7-2.4-1.5-2.4zm40 0c-.8 0-1.2.9-1.8 2.3-.6 1.2.8 2.5 1.7 2.5.9 0 1.6-1.1 1.6-2.4 0-1.3-.7-2.4-1.5-2.4zm40 0c-.8 0-1.2.9-1.8 2.3-.6 1.2.8 2.5 1.7 2.5.9 0 1.6-1.1 1.6-2.4 0-1.3-.7-2.4-1.5-2.4zm-72.1.1c-.7 0-1.4.4-1.8 1-.3.6-.3 1.4 0 2 .4.7 1.1 1 1.8 1 1.1 0 1.9-.9 1.9-2s-.8-2-1.9-2zm40 0c-.7 0-1.4.4-1.8 1-.3.6-.3 1.4 0 2 .4.7 1.1 1 1.8 1 1.1 0 1.9-.9 1.9-2s-.8-2-1.9-2zm40 0c-.7 0-1.4.4-1.8 1-.3.6-.3 1.4 0 2 .4.7 1.1 1 1.8 1 1.1 0 1.9-.9 1.9-2s-.8-2-1.9-2zm-62.039.73a2.51 2.51 0 00-.461.07c-1.4.4-2.3 1.8-1.9 3.2.4 1.4 1.8 2.2 3.2 1.9 1.4-.4 2.2-1.8 1.8-3.2-.35-1.4-1.542-2.034-2.639-1.97zm40 0a2.51 2.51 0 00-.461.07c-1.4.4-2.3 1.8-1.9 3.2.4 1.4 1.8 2.2 3.2 1.9 1.4-.4 2.2-1.8 1.8-3.2-.35-1.4-1.542-2.034-2.639-1.97zm40 0a2.51 2.51 0 00-.461.07c-1.4.4-2.3 1.8-1.9 3.2.4 1.4 1.8 2.2 3.2 1.9 1.4-.4 2.2-1.8 1.8-3.2-.35-1.4-1.542-2.034-2.639-1.97zm-86.464 3.198a.632.632 0 00-.497.172c-.4.6.1 2.2 1.3 3.7 1.1 1.4 2.4 2.1 2.9 1.6.5-.6-.1-2.2-1.2-3.7-.975-1.125-1.894-1.744-2.503-1.772zm40 0a.632.632 0 00-.497.172c-.4.6.1 2.2 1.3 3.7 1.1 1.4 2.4 2.1 2.9 1.6.5-.6-.1-2.2-1.2-3.7-.975-1.125-1.894-1.744-2.503-1.772zm40 0a.632.632 0 00-.497.172c-.4.6.1 2.2 1.3 3.7 1.1 1.4 2.4 2.1 2.9 1.6.5-.6-.1-2.2-1.2-3.7-.975-1.125-1.894-1.744-2.503-1.772zm-85.47 1.859c-.616.014-1.315.15-2.027.413-1.8.7-2.8 1.9-3.2 2.9V80h1.5c1.1.6 2.3 1.2 3.6.9.8 0 1.3-.3 1.6-.9.2-.8.8-3.8.6-4.2-.25-.625-1.047-.938-2.073-.913zm40 0c-.616.014-1.315.15-2.027.413-1.8.7-2.8 1.9-3.2 2.9V80h1.5c1.1.6 2.3 1.2 3.6.9.8 0 1.3-.3 1.6-.9.2-.8.8-3.8.6-4.2-.25-.625-1.047-.938-2.073-.913zm40 0c-.616.014-1.315.15-2.027.413-1.8.7-2.8 1.9-3.2 2.9V80h1.5c1.1.6 2.3 1.2 3.6.9.8 0 1.3-.3 1.6-.9.2-.8.8-3.8.6-4.2-.25-.625-1.047-.938-2.073-.913zM8.1 77.5c-1.1 0-3.6 1.1-3.6 2.5h1.1c0 .9.5 1.7 1.2 2.2.8.4 1.8.4 2.5 0 .8-.5 1.3-1.3 1.3-2.2H9.5c0-1.4-.3-2.5-1.4-2.5zm26.4 0c-1.4 0-2.5 1.1-2.5 2.5s1.5 4.1 2.9 4.1S37 81.4 37 80c0-.7-.3-1.3-.7-1.8-.5-.4-1.1-.7-1.8-.7zm13.6 0c-1.1 0-3.6 1.1-3.6 2.5h1.1c0 .9.5 1.7 1.2 2.2.8.4 1.8.4 2.5 0 .8-.5 1.3-1.3 1.3-2.2h-1.1c0-1.4-.3-2.5-1.4-2.5zm26.4 0c-1.4 0-2.5 1.1-2.5 2.5s1.5 4.1 2.9 4.1S77 81.4 77 80c0-.7-.3-1.3-.7-1.8-.5-.4-1.1-.7-1.8-.7zm13.6 0c-1.1 0-3.6 1.1-3.6 2.5h1.1c0 .9.5 1.7 1.2 2.2.8.4 1.8.4 2.5 0 .8-.5 1.3-1.3 1.3-2.2h-1.1c0-1.4-.3-2.5-1.4-2.5zm26.4 0c-1.4 0-2.5 1.1-2.5 2.5s1.5 4.1 2.9 4.1 2.1-2.7 2.1-4.1c0-.7-.3-1.3-.7-1.8-.5-.4-1.1-.7-1.8-.7zm-89 3.3c-.4 0-.8.1-.9.3-.3.3-.8 3.7-.3 4.1.5.3 1.9-.9 2.6-1.6.7-.7 1.6-1.6 1.7-1.9 0-.3-1.9-.9-3.1-.9zm40 0c-.4 0-.8.1-.9.3-.3.3-.8 3.7-.3 4.1.5.3 1.9-.9 2.6-1.6.7-.7 1.6-1.6 1.7-1.9 0-.3-1.9-.9-3.1-.9zm40 0c-.4 0-.8.1-.9.3-.3.3-.8 3.7-.3 4.1.5.3 1.9-.9 2.6-1.6.7-.7 1.6-1.6 1.7-1.9 0-.3-1.9-.9-3.1-.9zM2.6 82.3c-.8 0-1.5.5-1.5 1 0 .6.7 1 1.5 1s1.4-.4 1.4-1c0-.5-.6-1-1.4-1zm40 0c-.8 0-1.5.5-1.5 1 0 .6.7 1 1.5 1s1.4-.4 1.4-1c0-.5-.6-1-1.4-1zm40 0c-.8 0-1.5.5-1.5 1 0 .6.7 1 1.5 1s1.4-.4 1.4-1c0-.5-.6-1-1.4-1zM31.9 84c-.2 0-.4.1-.7.1-1.1 0-2 .9-2 1.9 0 1 .9 1.9 2 1.9s2.4-.5 2.4-1.5c0-.7-.9-2-1.4-2.3-.1-.1-.2-.1-.3-.1zm40 0c-.2 0-.4.1-.7.1-1.1 0-2 .9-2 1.9 0 1 .9 1.9 2 1.9s2.4-.5 2.4-1.5c0-.7-.9-2-1.4-2.3-.1-.1-.2-.1-.3-.1zm40 0c-.2 0-.4.1-.7.1-1.1 0-2 .9-2 1.9 0 1 .9 1.9 2 1.9s2.4-.5 2.4-1.5c0-.7-.9-2-1.4-2.3-.1-.1-.2-.1-.3-.1zm-93.7 1.3c-2.3.1-2 1.1-1.8 2.5.3 1.3.8 2.4 1.8 2.4s1.8-1.1 1.8-2.4c0-1.4-.8-2.5-1.8-2.5zm40 0c-2.3.1-2 1.1-1.8 2.5.3 1.3.8 2.4 1.8 2.4s1.8-1.1 1.8-2.4c0-1.4-.8-2.5-1.8-2.5zm40 0c-2.3.1-2 1.1-1.8 2.5.3 1.3.8 2.4 1.8 2.4s1.8-1.1 1.8-2.4c0-1.4-.8-2.5-1.8-2.5zM8.1 87.1c-.7 0-1.3.3-1.6.8-.3.6-.3 1.3 0 1.8.3.6.9.9 1.6.9.6 0 1.2-.3 1.5-.9.3-.5.3-1.2 0-1.8-.3-.5-.9-.8-1.5-.8zm40 0c-.7 0-1.3.3-1.6.8-.3.6-.3 1.3 0 1.8.3.6.9.9 1.6.9.6 0 1.2-.3 1.5-.9.3-.5.3-1.2 0-1.8-.3-.5-.9-.8-1.5-.8zm40 0c-.7 0-1.3.3-1.6.8-.3.6-.3 1.3 0 1.8.3.6.9.9 1.6.9.6 0 1.2-.3 1.5-.9.3-.5.3-1.2 0-1.8-.3-.5-.9-.8-1.5-.8zM40 88.7c-1.8 0-3.3 1.2-3.3 2.3 0 1.1 1.5 2 3.3 2 1.1 0 2-.9 2-2s-.9-2-2-2v-.3zm40 0c-1.8 0-3.3 1.2-3.3 2.3 0 1.1 1.5 2 3.3 2 1.1 0 2-.9 2-2s-.9-2-2-2v-.3zm40 0c-1.8 0-3.3 1.2-3.3 2.3 0 1.1 1.5 2 3.3 2v-4.3zM0 89v4c1.1 0 2-.9 2-2s-.9-2-2-2zm26.9.3c-1.3 0-2.3 1.1-2.3 2.4 0 1.3 1 2.3 2.3 2.4 1.6.1 3.8-.5 2.3-2.4-.8-1-1-2.4-2.3-2.4zm40 0c-1.3 0-2.3 1.1-2.3 2.4 0 1.3 1 2.3 2.3 2.4 1.6.1 3.8-.5 2.3-2.4-.8-1-1-2.4-2.3-2.4zm40 0c-1.3 0-2.3 1.1-2.3 2.4 0 1.3 1 2.3 2.3 2.4 1.6.1 3.8-.5 2.3-2.4-.8-1-1-2.4-2.3-2.4zm-90.7 3.9c-.9 0-1.6.4-1.9 1.2-.6 1.6.5 3.9 2.5 5.2 2 1.3 4 1.1 4.6-.4.5-1.5-.6-3.8-2.6-5.1-.9-.6-1.8-.9-2.6-.9zm40 0c-.9 0-1.6.4-1.9 1.2-.6 1.6.5 3.9 2.5 5.2 2 1.3 4 1.1 4.6-.4.5-1.5-.6-3.8-2.6-5.1-.9-.6-1.8-.9-2.6-.9zm40 0c-.9 0-1.6.4-1.9 1.2-.6 1.6.5 3.9 2.5 5.2 2 1.3 4 1.1 4.6-.4.5-1.5-.6-3.8-2.6-5.1-.9-.6-1.8-.9-2.6-.9zm-61.4 1c-1 .2-1.5 2.1-1.2 3.2.3 1.2 1.3 2.9 2.3 2.6 1-.3 2.6-.7 2.3-1.8-.3-1.1-2.3-4.1-3.4-4zm40 0c-1 .2-1.5 2.1-1.2 3.2.3 1.2 1.3 2.9 2.3 2.6 1-.3 2.6-.7 2.3-1.8-.3-1.1-2.3-4.1-3.4-4zm40 0c-1 .2-1.5 2.1-1.2 3.2.3 1.2 1.3 2.9 2.3 2.6 1-.3 2.6-.7 2.3-1.8-.3-1.1-2.3-4.1-3.4-4zM3.1 96.6c-1.6 0-2.8.9-2.8 2.1 0 1.1-.1 3.3 1.4 3.3 1.6 0 4.1-2.2 4.1-3.3 0-1.2-1.2-2.1-2.7-2.1zm40 0c-1.6 0-2.8.9-2.8 2.1 0 1.1-.1 3.3 1.4 3.3 1.6 0 4.1-2.2 4.1-3.3 0-1.2-1.2-2.1-2.7-2.1zm40 0c-1.6 0-2.8.9-2.8 2.1 0 1.1-.1 3.3 1.4 3.3 1.6 0 4.1-2.2 4.1-3.3 0-1.2-1.2-2.1-2.7-2.1zM27.6 98c-1.2.2-3.5 2.1-2.6 2.7 1.2.8 1.5 4.5 2.4 4.4 1.1-.2 2.1-4.2 2.1-5.3 0-1-.8-1.8-1.9-1.8zm40 0c-1.2.2-3.5 2.1-2.6 2.7 1.2.8 1.5 4.5 2.4 4.4 1.1-.2 2.1-4.2 2.1-5.3 0-1-.8-1.8-1.9-1.8zm40 0c-1.2.2-3.5 2.1-2.6 2.7 1.2.8 1.5 4.5 2.4 4.4 1.1-.2 2.1-4.2 2.1-5.3 0-1-.8-1.8-1.9-1.8zm-96.4 2.8c-.7.1-1.7.4-2.4.9-1.1.8-3.1 2.3-2.7 2.9.5.5 3.1.7 4.2 0 1.1-.8 2.1-2.9 1.7-3.5-.2-.2-.4-.3-.8-.3zm40 0c-.7.1-1.7.4-2.4.9-1.1.8-3.1 2.3-2.7 2.9.5.5 3.1.7 4.2 0 1.1-.8 2.1-2.9 1.7-3.5-.2-.2-.4-.3-.8-.3zm40 0c-.7.1-1.7.4-2.4.9-1.1.8-3.1 2.3-2.7 2.9.5.5 3.1.7 4.2 0 1.1-.8 2.1-2.9 1.7-3.5-.2-.2-.4-.3-.8-.3zM35 102.6c-.4 0-.9.1-1.4.3-1.3.5-2.1 1.6-1.7 2.4.3.8 1.6 1 2.9.5 1.2-.6 2-1.7 1.7-2.5-.2-.5-.8-.7-1.5-.7zm40 0c-.4 0-.9.1-1.4.3-1.3.5-2.1 1.6-1.7 2.4.3.8 1.6 1 2.9.5 1.2-.6 2-1.7 1.7-2.5-.2-.5-.8-.7-1.5-.7zm40 0c-.4 0-.9.1-1.4.3-1.3.5-2.1 1.6-1.7 2.4.3.8 1.6 1 2.9.5 1.2-.6 2-1.7 1.7-2.5-.2-.5-.8-.7-1.5-.7zm-92.9.9c-.6 0-1.1.5-1.3 1.2-.4 1-.1 2.1.5 2.5.6.3 1.5-.1 2-.9.6-.9.4-1.7-.1-2.2-.3-.4-.7-.6-1.1-.6zm40 0c-.6 0-1.1.5-1.3 1.2-.4 1-.1 2.1.5 2.5.6.3 1.5-.1 2-.9.6-.9.4-1.7-.1-2.2-.3-.4-.7-.6-1.1-.6zm40 0c-.6 0-1.1.5-1.3 1.2-.4 1-.1 2.1.5 2.5.6.3 1.5-.1 2-.9.6-.9.4-1.7-.1-2.2-.3-.4-.7-.6-1.1-.6zM0 105.8v5.2c1.4 0 2.5-1.2 2.5-2.6 0-1.4-1.1-2.6-2.5-2.6zm40 0c-1.4 0-2.5 1.2-2.5 2.6 0 1.4 1.1 2.6 2.5 2.6s2.5-1.2 2.5-2.6c0-1.4-1.1-2.6-2.5-2.6zm40 0c-1.4 0-2.5 1.2-2.5 2.6 0 1.4 1.1 2.6 2.5 2.6s2.5-1.2 2.5-2.6c0-1.4-1.1-2.6-2.5-2.6zm40 0c-1.4 0-2.5 1.2-2.5 2.6 0 1.4 1.1 2.6 2.5 2.6v-5.2zm-96.13 2.547c-.745-.027-1.808.216-2.87.653-1.7.7-2.7 1.8-2.3 2.4.4.6 2.1.5 3.8-.3 2.8-.1 2.8-1.7 2.3-2.4-.15-.225-.483-.338-.93-.353zm40 0c-.745-.027-1.808.216-2.87.653-1.7.7-2.7 1.8-2.3 2.4.4.6 2.1.5 3.8-.3 2.8-.1 2.8-1.7 2.3-2.4-.15-.225-.483-.338-.93-.353zm40 0c-.745-.027-1.808.216-2.87.653-1.7.7-2.7 1.8-2.3 2.4.4.6 2.1.5 3.8-.3 2.8-.1 2.8-1.7 2.3-2.4-.15-.225-.483-.338-.93-.353zM5.6 109c-.8 0-1.2.9-1.8 2.3-.6 1.2.8 2.5 1.7 2.5.9 0 1.6-1.1 1.6-2.4 0-1.3-.7-2.4-1.5-2.4zm40 0c-.8 0-1.2.9-1.8 2.3-.6 1.2.8 2.5 1.7 2.5.9 0 1.6-1.1 1.6-2.4 0-1.3-.7-2.4-1.5-2.4zm40 0c-.8 0-1.2.9-1.8 2.3-.6 1.2.8 2.5 1.7 2.5.9 0 1.6-1.1 1.6-2.4 0-1.3-.7-2.4-1.5-2.4zm-72.1.1c-.7 0-1.4.4-1.8 1-.3.6-.3 1.4 0 2 .4.7 1.1 1 1.8 1 1.1 0 1.9-.9 1.9-2s-.8-2-1.9-2zm40 0c-.7 0-1.4.4-1.8 1-.3.6-.3 1.4 0 2 .4.7 1.1 1 1.8 1 1.1 0 1.9-.9 1.9-2s-.8-2-1.9-2zm40 0c-.7 0-1.4.4-1.8 1-.3.6-.3 1.4 0 2 .4.7 1.1 1 1.8 1 1.1 0 1.9-.9 1.9-2s-.8-2-1.9-2zm-62.039.73a2.51 2.51 0 00-.461.07c-1.4.4-2.3 1.8-1.9 3.2.4 1.4 1.8 2.2 3.2 1.9 1.4-.4 2.2-1.8 1.8-3.2-.35-1.4-1.542-2.034-2.639-1.97zm40 0a2.51 2.51 0 00-.461.07c-1.4.4-2.3 1.8-1.9 3.2.4 1.4 1.8 2.2 3.2 1.9 1.4-.4 2.2-1.8 1.8-3.2-.35-1.4-1.542-2.034-2.639-1.97zm40 0a2.51 2.51 0 00-.461.07c-1.4.4-2.3 1.8-1.9 3.2.4 1.4 1.8 2.2 3.2 1.9 1.4-.4 2.2-1.8 1.8-3.2-.35-1.4-1.542-2.034-2.639-1.97zm-86.464 3.198a.632.632 0 00-.497.172c-.4.6.1 2.2 1.3 3.7 1.1 1.4 2.4 2.1 2.9 1.6.5-.6-.1-2.2-1.2-3.7-.975-1.125-1.894-1.744-2.503-1.772zm40 0a.632.632 0 00-.497.172c-.4.6.1 2.2 1.3 3.7 1.1 1.4 2.4 2.1 2.9 1.6.5-.6-.1-2.2-1.2-3.7-.975-1.125-1.894-1.744-2.503-1.772zm40 0a.632.632 0 00-.497.172c-.4.6.1 2.2 1.3 3.7 1.1 1.4 2.4 2.1 2.9 1.6.5-.6-.1-2.2-1.2-3.7-.975-1.125-1.894-1.744-2.503-1.772zm-85.47 1.859c-.616.014-1.315.15-2.027.413-1.8.7-2.8 1.9-3.2 2.9v1.8H21c.2-.8.8-3.8.6-4.2-.25-.625-1.047-.938-2.073-.913zm40 0c-.616.014-1.315.15-2.027.413-1.8.7-2.8 1.9-3.2 2.9v1.8H61c.2-.8.8-3.8.6-4.2-.25-.625-1.047-.938-2.073-.913zm40 0c-.616.014-1.315.15-2.027.413-1.8.7-2.8 1.9-3.2 2.9v1.8h6.7c.2-.8.8-3.8.6-4.2-.25-.625-1.047-.938-2.073-.913zM8.1 117.5c-1.1 0-3.6 1.1-3.6 2.5h5c0-1.4-.3-2.5-1.4-2.5zm26.4 0c-1.4 0-2.5 1.1-2.5 2.5h5c0-.7-.3-1.3-.7-1.8-.5-.4-1.1-.7-1.8-.7zm13.6 0c-1.1 0-3.6 1.1-3.6 2.5h5c0-1.4-.3-2.5-1.4-2.5zm26.4 0c-1.4 0-2.5 1.1-2.5 2.5h5c0-.7-.3-1.3-.7-1.8-.5-.4-1.1-.7-1.8-.7zm13.6 0c-1.1 0-3.6 1.1-3.6 2.5h5c0-1.4-.3-2.5-1.4-2.5zm26.4 0c-1.4 0-2.5 1.1-2.5 2.5h5c0-.7-.3-1.3-.7-1.8-.5-.4-1.1-.7-1.8-.7z"/>
  <path fill="#787878" d="M1.1 0c.2.4.5.7.8.8C2.9.7 3.8.5 4.6 0H1.1zm7.4 0c.1.1.1.2.2.3-1.4.7-4.5 1.5-2.4 3.4 1.2.4 3.1-.2 4.4-.4.5-.1.1-2.3 0-3.1l-.2-.2h-2zm4.8 0c-.1.5.5 1.8.5 2.9 0 .9 1.7-.3 2.6-.4 2.4.1 5-.4 6.4-2.5h-2.5c-.9.9-2.7.8-4.1 0h-2.9zm17.8 0c-.1 1.5 1.9.8 3.1 0h-3.1zM36 0c0 .2 0 .2-.2.4-.4.7-.2 2.3-1.9 3-.2.6.2.8.4 1.1.6.5 1.5.7 1.8 0 1.6.3 2.3-1.1 2.4-2.5.1-1.1-.3-1.9-.3-2H36zm5.1 0c.2.4.5.7.8.8 1-.1 1.9-.3 2.7-.8h-3.5zm7.4 0c.1.1.1.2.2.3-1.4.7-4.5 1.5-2.4 3.4 1.2.4 3.1-.2 4.4-.4.5-.1.1-2.3 0-3.1l-.2-.2h-2zm4.8 0c-.1.5.5 1.8.5 2.9 0 .9 1.7-.3 2.6-.4 2.4.1 5-.4 6.4-2.5h-2.5c-.9.9-2.7.8-4.1 0h-2.9zm17.8 0c-.1 1.5 1.9.8 3.1 0h-3.1zM76 0c0 .2 0 .2-.2.4-.4.7-.2 2.3-1.9 3-.2.6.2.8.4 1.1.6.5 1.5.7 1.8 0 1.6.3 2.3-1.1 2.4-2.5.1-1.1-.3-1.9-.3-2H76zm5.1 0c.2.4.5.7.8.8 1-.1 1.9-.3 2.7-.8h-3.5zm7.4 0c.1.1.1.2.2.3-1.4.7-4.5 1.5-2.4 3.4 1.2.4 3.1-.2 4.4-.4.5-.1.1-2.3 0-3.1l-.2-.2h-2zm4.8 0c-.1.5.5 1.8.5 2.9 0 .9 1.7-.3 2.6-.4 2.4.1 5-.4 6.4-2.5h-2.5c-.9.9-2.7.8-4.1 0h-2.9zm17.8 0c-.1 1.5 1.9.8 3.1 0h-3.1zm4.9 0c0 .2 0 .2-.2.4-.4.7-.2 2.3-1.9 3-.2.6.2.8.4 1.1.6.5 1.5.7 1.8 0 1.6.3 2.3-1.1 2.4-2.5.1-1.1-.3-1.9-.3-2H116zM24.8.1c-.9 0-2.1 1.9-1.7 2.4.1.1.8.3 1.2.1.3-.2.3-.8.5-.9.4-.2.6-.6.6-1-.2-.4-.4-.6-.6-.6zm40 0c-.9 0-2.1 1.9-1.7 2.4.1.1.8.3 1.2.1.3-.2.3-.8.5-.9.4-.2.6-.6.6-1-.2-.4-.4-.6-.6-.6zm40 0c-.9 0-2.1 1.9-1.7 2.4.1.1.8.3 1.2.1.3-.2.3-.8.5-.9.4-.2.6-.6.6-1-.2-.4-.4-.6-.6-.6zM29.4.3c-1.1.1-3.7 2-1.9 2.2-.4.5-.8.5-1.3.9-.1.1-.4.9-.4 1-.2-.4-.5-.6-1.1-.7-.4.1-1.3.1-1.6.5-.3.4-.5.9-.3 1.4.3.7.6 1.2 1.7.8 2-.6 2.3-1.2 2.6-2 .4-.3.5-.9.9-1.2.3-.4 1.4-.9 1.7-1.2.7-.4.5-1-.3-1.7zm40 0c-1.1.1-3.7 2-1.9 2.2-.4.5-.8.5-1.3.9-.1.1-.4.9-.4 1-.2-.4-.5-.6-1.1-.7-.4.1-1.3.1-1.6.5-.3.4-.5.9-.3 1.4.3.7.6 1.2 1.7.8 2-.6 2.3-1.2 2.6-2 .4-.3.5-.9.9-1.2.3-.4 1.4-.9 1.7-1.2.7-.4.5-1-.3-1.7zm40 0c-1.1.1-3.7 2-1.9 2.2-.4.5-.8.5-1.3.9-.1.1-.4.9-.4 1-.2-.4-.5-.6-1.1-.7-.4.1-1.3.1-1.6.5-.3.4-.5.9-.3 1.4.3.7.6 1.2 1.7.8 2-.6 2.3-1.2 2.6-2 .4-.3.5-.9.9-1.2.3-.4 1.4-.9 1.7-1.2.7-.4.5-1-.3-1.7zM1.2 1c-.4.1-.9.4-1.2.8v2.8c.1 0 .2.1.4.1.5 1.3 2.9 2.4 2.7.4.8.3 1.3-.9 1.3-1.8l-1 .2c.1.3-.9.7-1.4.7-.5 0-.7-.5-.7-.7 0-.4.4-.9.8-.9.3 0 1.3.3 1.4.5l.9-.1c-.1-.3-.2-.5-.4-.6C4 1.2 2 1.5 1.2 1zm40 0c-.4.1-.9.4-1.2.8-.4.5-.7 1.1-.7 1.7 0 .5.2.9.7 1.1.1 0 .2.1.4.1.5 1.3 2.9 2.4 2.7.4.8.3 1.3-.9 1.3-1.8l-1 .2c.1.3-.9.7-1.4.7-.5 0-.7-.5-.7-.7 0-.4.4-.9.8-.9.3 0 1.3.3 1.4.5l.9-.1c-.1-.3-.2-.5-.4-.6 0-1.2-2-.9-2.8-1.4zm40 0c-.4.1-.9.4-1.2.8-.4.5-.7 1.1-.7 1.7 0 .5.2.9.7 1.1.1 0 .2.1.4.1.5 1.3 2.9 2.4 2.7.4.8.3 1.3-.9 1.3-1.8l-1 .2c.1.3-.9.7-1.4.7-.5 0-.7-.5-.7-.7 0-.4.4-.9.8-.9.3 0 1.3.3 1.4.5l.9-.1c-.1-.3-.2-.5-.4-.6 0-1.2-2-.9-2.8-1.4zm38.8.8c-.4.5-.7 1.1-.7 1.7 0 .5.2.9.7 1.1V1.8zm-89 .7c-.7.6-2.4 1.5-2.9 2.4-.6.9-.2 1.2.3 1.4-.1.5 2 2.3 2.4 1.7.7.7 1.3.6 1.8.3 2.1-1-.1-3.5-1.3-1.6-.4-.5-1.4-.5-2-1 .7-.3 2-1.3 2.4-1.9.3-.3-.2-1-.7-1.3zm40 0c-.7.6-2.4 1.5-2.9 2.4-.6.9-.2 1.2.3 1.4-.1.5 2 2.3 2.4 1.7.7.7 1.3.6 1.8.3 2.1-1-.1-3.5-1.3-1.6-.4-.5-1.4-.5-2-1 .7-.3 2-1.3 2.4-1.9.3-.3-.2-1-.7-1.3zm40 0c-.7.6-2.4 1.5-2.9 2.4-.6.9-.2 1.2.3 1.4-.1.5 2 2.3 2.4 1.7.7.7 1.3.6 1.8.3 2.1-1-.1-3.5-1.3-1.6-.4-.5-1.4-.5-2-1 .7-.3 2-1.3 2.4-1.9.3-.3-.2-1-.7-1.3zM17.6 4.3c-.4.2-.7.6-1.1.9l.7 1.1c1.2-.6 2.5 1.5 1.8 2.8-.2.7 0 1 .3 1.3.4.5 1.2 1 1.7.5.4-.3.6-1.3.4-2 .3-2-.7-4.1-2.7-4.5-.3-.1-.7-.1-1.1-.1zm40 0c-.4.2-.7.6-1.1.9l.7 1.1c1.2-.6 2.5 1.5 1.8 2.8-.2.7 0 1 .3 1.3.4.5 1.2 1 1.7.5.4-.3.6-1.3.4-2 .3-2-.7-4.1-2.7-4.5-.3-.1-.7-.1-1.1-.1zm40 0c-.4.2-.7.6-1.1.9l.7 1.1c1.2-.6 2.5 1.5 1.8 2.8-.2.7 0 1 .3 1.3.4.5 1.2 1 1.7.5.4-.3.6-1.3.4-2 .3-2-.7-4.1-2.7-4.5-.3-.1-.7-.1-1.1-.1zm-89.1.8c0 .6-2.4-.3-2.6.3-.2.8-.5 2.1.6 2.2.6-.2 2.9.6 3.2 1.2.4.8-1.2 1.5-2.4 1-.6.1-1.7-.4-1.6.2 0 .6-.2 1.6.5 2.4 1.5.6 2.2-1.6 3.5-.5 1.7-.2 3.4-2.6 1.7-3.7.6-.5-.9-1.4 0-.9-.7-.8-.1-1.5-.5-1.6-.3-.1-1.4.4-2-.5-.2-.1-.2-.1-.4-.1zm40 0c0 .6-2.4-.3-2.6.3-.2.8-.5 2.1.6 2.2.6-.2 2.9.6 3.2 1.2.4.8-1.2 1.5-2.4 1-.6.1-1.7-.4-1.6.2 0 .6-.2 1.6.5 2.4 1.5.6 2.2-1.6 3.5-.5 1.7-.2 3.4-2.6 1.7-3.7.6-.5-.9-1.4 0-.9-.7-.8-.1-1.5-.5-1.6-.3-.1-1.4.4-2-.5-.2-.1-.2-.1-.4-.1zm40 0c0 .6-2.4-.3-2.6.3-.2.8-.5 2.1.6 2.2.6-.2 2.9.6 3.2 1.2.4.8-1.2 1.5-2.4 1-.6.1-1.7-.4-1.6.2 0 .6-.2 1.6.5 2.4 1.5.6 2.2-1.6 3.5-.5 1.7-.2 3.4-2.6 1.7-3.7.6-.5-.9-1.4 0-.9-.7-.8-.1-1.5-.5-1.6-.3-.1-1.4.4-2-.5-.2-.1-.2-.1-.4-.1zm-72.3.2c-.6.5-1 .1-2 .1-.2 1.2-.4 2.8.1 4.2.5.7.8.6 1.2.5 2.1 0 1.3-2.2 1.3-3.4.1-.2.1-.3.3-.4l-.9-1zm40 0c-.6.5-1 .1-2 .1-.2 1.2-.4 2.8.1 4.2.5.7.8.6 1.2.5 2.1 0 1.3-2.2 1.3-3.4.1-.2.1-.3.3-.4l-.9-1zm40 0c-.6.5-1 .1-2 .1-.2 1.2-.4 2.8.1 4.2.5.7.8.6 1.2.5 2.1 0 1.3-2.2 1.3-3.4.1-.2.1-.3.3-.4l-.9-1zm-57.8.5C34.6 7 34 8.6 34 10.3c.7.2.7 2.8 2.3 1.6.2 0 2.2-1.2 3.1-2.5.2.2.4.5.6.7.3.3.7.6 1 .9.5.7-.3.8-1 1.2-.3.1-.5.3-.6.5-.5-.4-1.3-.7-1.8-.7-.9.3-1.3 1-1 1.5.3.5 1.4 1.6 2.2 1.6.5-.2.7-.9.9-1.3l.3.3c1.2.7 3.1-.4 4-1.3.9-2.2-1-4.4-2.7-5.6-.4-.3-.8-.7-1.3-.6l-1.6-.8zm40 0C74.6 7 74 8.6 74 10.3c.7.2.7 2.8 2.3 1.6.2 0 2.2-1.2 3.1-2.5.2.2.4.5.6.7.3.3.7.6 1 .9.5.7-.3.8-1 1.2-.3.1-.5.3-.6.5-.5-.4-1.3-.7-1.8-.7-.9.3-1.3 1-1 1.5.3.5 1.4 1.6 2.2 1.6.5-.2.7-.9.9-1.3l.3.3c1.2.7 3.1-.4 4-1.3.9-2.2-1-4.4-2.7-5.6-.4-.3-.8-.7-1.3-.6l-1.6-.8zm40 0c-3.8 1.2-4.4 2.8-4.4 4.5.7.2.7 2.8 2.3 1.6.2 0 2.2-1.2 3.1-2.5.2.2.4.5.6.7 1.033-1.392.865-2.522 0-3.5l-1.6-.8zM.183 6.585A.797.797 0 000 6.6v3.5c.3.3.7.6 1 .9.5.7-.3.8-1 1.2v1.9c1.2.7 3.1-.4 4-1.3.9-2.2-1-4.4-2.7-5.6C.95 6.938.6 6.6.183 6.585zm26.617.95c-.242-.01-.5.028-.8.065-.7.1-1.6 0-2 .5-.6.7-.4 1.8-.4 3 1.3.8 3.6-.6 4.4-.8.2.5 1.4 1.9 1.4 1.9-.1-.1 0 .7-.3.9-.4.3-1.3.1-1.5.3-1.1.6-1.8 1.1-1.2 2.5 1.8 0 5.8.5 5-2 0-.8.9-2.8.1-3.2-1-.5-2-2.3-3.5-2.5-.438-.5-.797-.648-1.2-.665zm40 0c-.242-.01-.5.028-.8.065-.7.1-1.6 0-2 .5-.6.7-.4 1.8-.4 3 1.3.8 3.6-.6 4.4-.8.2.5 1.4 1.9 1.4 1.9-.1-.1 0 .7-.3.9-.4.3-1.3.1-1.5.3-1.1.6-1.8 1.1-1.2 2.5 1.8 0 5.8.5 5-2 0-.8.9-2.8.1-3.2-1-.5-2-2.3-3.5-2.5-.438-.5-.797-.648-1.2-.665zm40 0c-.242-.01-.5.028-.8.065-.7.1-1.6 0-2 .5-.6.7-.4 1.8-.4 3 1.3.8 3.6-.6 4.4-.8.2.5 1.4 1.9 1.4 1.9-.1-.1 0 .7-.3.9-.4.3-1.3.1-1.5.3-1.1.6-1.8 1.1-1.2 2.5 1.8 0 5.8.5 5-2 0-.8.9-2.8.1-3.2-1-.5-2-2.3-3.5-2.5-.438-.5-.797-.648-1.2-.665zM117.6 12c-.9.3-1.3 1-1 1.5.3.5 1.4 1.6 2.2 1.6.5-.2.7-.9.9-1.3l.3.3c.841-.668.573-1.29 0-1.9-.3.1-.5.3-.6.5-.5-.4-1.3-.7-1.8-.7zm-84.1.1c-.6 0-.7 1.9-.7 2.5-.1 1.1.5 1 1.4 1.4.4.4 1.6.3 1.8-.4.1-.4-.3-1-1-2.1-.1-.5-.9-1.3-1.5-1.4zm40 0c-.6 0-.7 1.9-.7 2.5-.1 1.1.5 1 1.4 1.4.4.4 1.6.3 1.8-.4.1-.4-.3-1-1-2.1-.1-.5-.9-1.3-1.5-1.4zm40 0c-.6 0-.7 1.9-.7 2.5-.1 1.1.5 1 1.4 1.4.4.4 1.6.3 1.8-.4.1-.4-.3-1-1-2.1-.1-.5-.9-1.3-1.5-1.4zm-96.8.1c-1.5 0-2.9.8-3.3 3.6.1.5.1 2.2 1.7 0 1.5-2 3.4-.6 4.3-.2.2.2.4.3.7.2-.3.3.5.7.5 1 0 .3.8.7.7.9-.3.3-1.3 1.4-2.2 1.8-1.3.5-2.7-.5-2.8-.5-2.8.3.3 2.3.8 2.3 1.4.1 2.4 1.7 4.6-2.4.4-.2.5-.5.5-.7.4 0 .7-.1.8-.2.1-.2-.3-1.5-.4-1.8-.1-.3-.4-1.3-.9-1-.4.4-.8.5-1.3.5.8-.4 1.4-2 .2-2.6-1.2-.8-2.7-.3-3.9-.9zm40 0c-1.5 0-2.9.8-3.3 3.6.1.5.1 2.2 1.7 0 1.5-2 3.4-.6 4.3-.2.2.2.4.3.7.2-.3.3.5.7.5 1 0 .3.8.7.7.9-.3.3-1.3 1.4-2.2 1.8-1.3.5-2.7-.5-2.8-.5-2.8.3.3 2.3.8 2.3 1.4.1 2.4 1.7 4.6-2.4.4-.2.5-.5.5-.7.4 0 .7-.1.8-.2.1-.2-.3-1.5-.4-1.8-.1-.3-.4-1.3-.9-1-.4.4-.8.5-1.3.5.8-.4 1.4-2 .2-2.6-1.2-.8-2.7-.3-3.9-.9zm40 0c-1.5 0-2.9.8-3.3 3.6.1.5.1 2.2 1.7 0 1.5-2 3.4-.6 4.3-.2.2.2.4.3.7.2-.3.3.5.7.5 1 0 .3.8.7.7.9-.3.3-1.3 1.4-2.2 1.8-1.3.5-2.7-.5-2.8-.5-2.8.3.3 2.3.8 2.3 1.4.1 2.4 1.7 4.6-2.4.4-.2.5-.5.5-.7.4 0 .7-.1.8-.2.1-.2-.3-1.5-.4-1.8-.1-.3-.4-1.3-.9-1-.4.4-.8.5-1.3.5.8-.4 1.4-2 .2-2.6-1.2-.8-2.7-.3-3.9-.9zm-72.2.1c-.3 0-.8 0-.9.5-.1.3.2 1 .3 1.2.1.4.5 1.3 1 1.3.2 0 .3-.7.7-.9.9-.5.7-2.1-1.1-2.1zm40 0c-.3 0-.8 0-.9.5-.1.3.2 1 .3 1.2.1.4.5 1.3 1 1.3.2 0 .3-.7.7-.9.9-.5.7-2.1-1.1-2.1zm40 0c-.3 0-.8 0-.9.5-.1.3.2 1 .3 1.2.1.4.5 1.3 1 1.3.2 0 .3-.7.7-.9.9-.5.7-2.1-1.1-2.1zm-92.375.798A.475.475 0 0012 13.1c-.6 0-1.2.6-2.3.9-.3.1-.8-.1-1.1 0-.6.2-.7.8.2 1.4 1.6 1.1 2.3.4 3.3-.4.75-.562.621-1.828.025-1.902zm40 0A.475.475 0 0052 13.1c-.6 0-1.2.6-2.3.9-.3.1-.8-.1-1.1 0-.6.2-.7.8.2 1.4 1.6 1.1 2.3.4 3.3-.4.75-.562.621-1.828.025-1.902zm40 0A.475.475 0 0092 13.1c-.6 0-1.2.6-2.3.9-.3.1-.8-.1-1.1 0-.6.2-.7.8.2 1.4 1.6 1.1 2.3.4 3.3-.4.75-.562.621-1.828.025-1.902zM1.926 15.573C1.061 15.54.262 15.738 0 16.7v.5c.2.6.9.2 1.3.4 1.1.1 3.8-.2 2.5 1.8-.5.3-1.5 1.2-2.3 1.7-.9.6-1.6 1-.6 2.1 1.6.4 3.2-2.3 4.8-2 .9-.9 1.2-2.6 1.6-3.9-.5-1.2-3.1-1.7-5-1.7a6.078 6.078 0 00-.374-.027zm40 0c-.865-.033-1.663.165-1.926 1.127v.5c.2.6.9.2 1.3.4 1.1.1 3.8-.2 2.5 1.8-.5.3-1.5 1.2-2.3 1.7-.9.6-1.6 1-.6 2.1 1.6.4 3.2-2.3 4.8-2 .9-.9 1.2-2.6 1.6-3.9-.5-1.2-3.1-1.7-5-1.7a6.078 6.078 0 00-.374-.027zm40 0c-.865-.033-1.663.165-1.926 1.127v.5c.2.6.9.2 1.3.4 1.1.1 3.8-.2 2.5 1.8-.5.3-1.5 1.2-2.3 1.7-.9.6-1.6 1-.6 2.1 1.6.4 3.2-2.3 4.8-2 .9-.9 1.2-2.6 1.6-3.9-.5-1.2-3.1-1.7-5-1.7a6.078 6.078 0 00-.374-.027zm-64.301.932a.395.395 0 00-.225.095c-.5.1-1.4.2-2.1.4-.6.2-1.2.7-.9 1.2.2.4 1.3-.2 2.2 0 .8 0 1.8.8 2.5 0 .788-1.05-.798-1.794-1.475-1.695zm40 0a.395.395 0 00-.225.095c-.5.1-1.4.2-2.1.4-.6.2-1.2.7-.9 1.2.2.4 1.3-.2 2.2 0 .8 0 1.8.8 2.5 0 .788-1.05-.798-1.794-1.475-1.695zm40 0a.395.395 0 00-.225.095c-.5.1-1.4.2-2.1.4-.6.2-1.2.7-.9 1.2.2.4 1.3-.2 2.2 0 .8 0 1.8.8 2.5 0 .788-1.05-.798-1.794-1.475-1.695zm-59.929.674c-.791.07-2.071.933-1.896 1.72-1.2 1.1-1.3-1.8-3-1.6-.6-.1-.9 2.301-.9 2.801.1 1.1 1.4.4 2.4.9.5.2 1.3.1 1.7-.6.3.9.7.4 1.8.9.4.2 1.3.2 1.8-.1.6-.5-.3-1-.5-1.4-.5-.7-.2-2.3-1.1-2.6a.847.847 0 00-.304-.021zm40 0c-.791.07-2.071.933-1.896 1.72-1.2 1.1-1.3-1.8-3-1.6-.6-.1-.9 2.301-.9 2.801.1 1.1 1.4.4 2.4.9.5.2 1.3.1 1.7-.6.3.9.7.4 1.8.9.4.2 1.3.2 1.8-.1.6-.5-.3-1-.5-1.4-.5-.7-.2-2.3-1.1-2.6a.847.847 0 00-.304-.021zm40 0c-.791.07-2.071.933-1.896 1.72-1.2 1.1-1.3-1.8-3-1.6-.6-.1-.9 2.301-.9 2.801.1 1.1 1.4.4 2.4.9.5.2 1.3.1 1.7-.6.3.9.7.4 1.8.9.4.2 1.3.2 1.8-.1.6-.5-.3-1-.5-1.4-.5-.7-.2-2.3-1.1-2.6a.847.847 0 00-.304-.021zm-91.18.288c-.41.014-.816.083-1.216.233-1 .4-1 1.4-1 1.4-.2.1-.5.3-.5.5.3.7.4 1.8.9 2.1.3.2.7.1 1.1-.1.2 0-.2-.7.1-1.2.1-.2.9-.4 1-.5.7-.7 1.3-.6 1.2.9.1.2.1.6.2 1l1.3.3c.2-.7.2-.9.4-1.7-.1-.7.2-1.3.2-2.3-1.2-.225-2.456-.675-3.684-.633zm40 0c-.41.014-.816.083-1.216.233-1 .4-1 1.4-1 1.4-.2.1-.5.3-.5.5.3.7.4 1.8.9 2.1.3.2.7.1 1.1-.1.2 0-.2-.7.1-1.2.1-.2.9-.4 1-.5.7-.7 1.3-.6 1.2.9.1.2.1.6.2 1l1.3.3c.2-.7.2-.9.4-1.7-.1-.7.2-1.3.2-2.3-1.2-.225-2.456-.675-3.684-.633zm40 0c-.41.014-.816.083-1.216.233-1 .4-1 1.4-1 1.4-.2.1-.5.3-.5.5.3.7.4 1.8.9 2.1.3.2.7.1 1.1-.1.2 0-.2-.7.1-1.2.1-.2.9-.4 1-.5.7-.7 1.3-.6 1.2.9.1.2.1.6.2 1l1.3.3c.2-.7.2-.9.4-1.7-.1-.7.2-1.3.2-2.3-1.2-.225-2.456-.675-3.684-.633zM11.8 17.6c-1.5-.1-1.9 1.6-2.6 2.6-.9 3.4 1.8.9 2.6 1l1-.9c-.5-.8-1-1.6-1-2.7zm40 0c-1.5-.1-1.9 1.6-2.6 2.6-.9 3.4 1.8.9 2.6 1l1-.9c-.5-.8-1-1.6-1-2.7zm40 0c-1.5-.1-1.9 1.6-2.6 2.6-.9 3.4 1.8.9 2.6 1l1-.9c-.5-.8-1-1.6-1-2.7zM0 18.3v1.4c.1.2.2.4.3.5.4.3.8.3 1.1-.7.1-.5-.2-1.2-.8-1.2H0zm40 0c-.1.1-.2.2-.2.7 0 .2.1.5.2.7.1.2.2.4.3.5.4.3.8.3 1.1-.7.1-.5-.2-1.2-.8-1.2H40zm40 0c-.1.1-.2.2-.2.7 0 .2.1.5.2.7.1.2.2.4.3.5.4.3.8.3 1.1-.7.1-.5-.2-1.2-.8-1.2H80zm40 0c-.1.1-.2.2-.2.7 0 .2.1.5.2.7.073-.48.64-1.046 0-1.4zm-107.1 2l-.9.9c-.4 1.5-.7 2-1.2 2.3-1.8 2.2-3.5 2-4.4 0-4.8 1.2.7 5 2.6 3.7 1.6-1.1 3.5-2.1 4.6-4.2.5-1-.1-1.8-.7-2.7zm40 0l-.9.9c-.4 1.5-.7 2-1.2 2.3-1.8 2.2-3.5 2-4.4 0-4.8 1.2.7 5 2.6 3.7 1.6-1.1 3.5-2.1 4.6-4.2.5-1-.1-1.8-.7-2.7zm40 0l-.9.9c-.4 1.5-.7 2-1.2 2.3-1.8 2.2-3.5 2-4.4 0-4.8 1.2.7 5 2.6 3.7 1.6-1.1 3.5-2.1 4.6-4.2.5-1-.1-1.8-.7-2.7zm-60 1.6c-1.7.1-1.5 3.3.2 1.9.5-.1 2.3-.4 2.2-1.1-.5-.6-1.6-.7-2.4-.8zm40 0c-1.7.1-1.5 3.3.2 1.9.5-.1 2.3-.4 2.2-1.1-.5-.6-1.6-.7-2.4-.8zm40 0c-1.7.1-1.5 3.3.2 1.9.5-.1 2.3-.4 2.2-1.1-.5-.6-1.6-.7-2.4-.8zm-90.6.4c-.4 0-1.4.6-1.5 1.1-.1.4.9 1 1 1l.1.2c.2-.6.8-.5 1.1-.1.3.2.7.6.5 1-.1.5-.2 1.2-.8 1.2-.4.2-.9.1-1.2-.2-.6-.2-.4-.8-.1-1.1.1-.6-.8-.3-1.1-.8-.4.6-1 1.6-1.3 2.2.3.6 1.3.4 1.8.8.4.4.9 0 1.3 0 .6-.1 1.3-.3 1.9-.6.3-.3 0-.8.3-1.2 0-.4.5-1-.1-1.2-.4-.3-.4-1-.8-1.4-.3-.5-.7-.9-1.1-.9zm6.1 0c0 .5-.1 1-.2 1.3-.3.5-1.1.1-1.5-.2-.2.2-.8.5-.8.9 0 .3.5.7.6 1.1.1 1 .3 1.8.9 1.4.5-.8 1 .1 1.4-1.1.2-.4.5-2.5.7-3 0-.1.1-.1.1-.2l-1.2-.2zm33.9 0c-.4 0-1.4.6-1.5 1.1-.1.4.9 1 1 1l.1.2c.2-.6.8-.5 1.1-.1.3.2.7.6.5 1-.1.5-.2 1.2-.8 1.2-.4.2-.9.1-1.2-.2-.6-.2-.4-.8-.1-1.1.1-.6-.8-.3-1.1-.8-.4.6-1 1.6-1.3 2.2.3.6 1.3.4 1.8.8.4.4.9 0 1.3 0 .6-.1 1.3-.3 1.9-.6.3-.3 0-.8.3-1.2 0-.4.5-1-.1-1.2-.4-.3-.4-1-.8-1.4-.3-.5-.7-.9-1.1-.9zm6.1 0c0 .5-.1 1-.2 1.3-.3.5-1.1.1-1.5-.2-.2.2-.8.5-.8.9 0 .3.5.7.6 1.1.1 1 .3 1.8.9 1.4.5-.8 1 .1 1.4-1.1.2-.4.5-2.5.7-3 0-.1.1-.1.1-.2l-1.2-.2zm33.9 0c-.4 0-1.4.6-1.5 1.1-.1.4.9 1 1 1l.1.2c.2-.6.8-.5 1.1-.1.3.2.7.6.5 1-.1.5-.2 1.2-.8 1.2-.4.2-.9.1-1.2-.2-.6-.2-.4-.8-.1-1.1.1-.6-.8-.3-1.1-.8-.4.6-1 1.6-1.3 2.2.3.6 1.3.4 1.8.8.4.4.9 0 1.3 0 .6-.1 1.3-.3 1.9-.6.3-.3 0-.8.3-1.2 0-.4.5-1-.1-1.2-.4-.3-.4-1-.8-1.4-.3-.5-.7-.9-1.1-.9zm6.1 0c0 .5-.1 1-.2 1.3-.3.5-1.1.1-1.5-.2-.2.2-.8.5-.8.9 0 .3.5.7.6 1.1.1 1 .3 1.8.9 1.4.5-.8 1 .1 1.4-1.1.2-.4.5-2.5.7-3 0-.1.1-.1.1-.2l-1.2-.2zm-71 .4c-.3.2-.7.3-1.2.6-.6.4.1.7-.1 1.2-.3.5-1.6 1.3-1 1.7 1.4-1.1 5.8-1.9 3.1-2.9l-.8-.6zm40 0c-.3.2-.7.3-1.2.6-.6.4.1.7-.1 1.2-.3.5-1.6 1.3-1 1.7 1.4-1.1 5.8-1.9 3.1-2.9l-.8-.6zm40 0c-.3.2-.7.3-1.2.6-.6.4.1.7-.1 1.2-.3.5-1.6 1.3-1 1.7 1.4-1.1 5.8-1.9 3.1-2.9l-.8-.6zm-99.588.313c-.387-.013-.712.137-.612.687.1.5.7 1 1.6.3.2-.2.1-.5 0-.7-.15-.1-.6-.275-.988-.287zm40 0c-.387-.013-.712.137-.612.687.1.5.7 1 1.6.3.2-.2.1-.5 0-.7-.15-.1-.6-.275-.987-.287zm40 0c-.387-.013-.712.137-.612.687.1.5.7 1 1.6.3.2-.2.1-.5 0-.7-.15-.1-.6-.275-.987-.287zm-82.337.445c-.225-.014-.45.042-.675.042 0 1.6-2.9 3.2-3.5 3.5-.5 2.2 2.5.7 3.4-.1 1.3 0 3.6.1 2.8-1.5-.1-.3-1-.3-1.4-.7-.3-.3.1-.9-.4-1.2a.879.879 0 00-.225-.042zm40 0c-.225-.014-.45.042-.675.042 0 1.6-2.9 3.2-3.5 3.5-.5 2.2 2.5.7 3.4-.1 1.3 0 3.6.1 2.8-1.5-.1-.3-1-.3-1.4-.7-.3-.3.1-.9-.4-1.2a.879.879 0 00-.225-.042zm40 0c-.225-.014-.45.042-.675.042 0 1.6-2.9 3.2-3.5 3.5-.5 2.2 2.5.7 3.4-.1 1.3 0 3.6.1 2.8-1.5-.1-.3-1-.3-1.4-.7-.3-.3.1-.9-.4-1.2a.879.879 0 00-.225-.042zM1.772 25.021C1.35 25.006.675 25.4 0 25.4v1.5c1 .4 1.5.5 2 .1.5-.5.4-1.3.1-1.8-.075-.125-.187-.175-.328-.18zm40 0c-.422-.015-1.097.379-1.772.379-.2 0-.4 0-.5.3-.3-.1-.6-.2-.9-.2-.8 1.3-2 .4-2.8 1.5-1.4.5-1.1 1.5-.4 2.2-.7 1.8 2 1 1.5 2.7.7.3 1.9.2 2.7-.1l.4.2c1 .5 2.7-.8 2.4-1.4-.1-.3-.4-.9-.7-.6-.5.4-1.1.1-1.7-.1-.1 0-.1-.1-.2-.2-.5-.3-.5.2-.9.2-.6-.7-2.1-1.1-.7-1.9.3-.2 1.1-.7 1.6-1.2l.2.1c1 .4 1.5.5 2 .1.5-.5.4-1.3.1-1.8-.075-.125-.187-.175-.328-.18zm40 0c-.422-.015-1.097.379-1.772.379-.2 0-.4 0-.5.3-.3-.1-.6-.2-.9-.2-.8 1.3-2 .4-2.8 1.5-1.4.5-1.1 1.5-.4 2.2-.7 1.8 2 1 1.5 2.7.7.3 1.9.2 2.7-.1l.4.2c1 .5 2.7-.8 2.4-1.4-.1-.3-.4-.9-.7-.6-.5.4-1.1.1-1.7-.1-.1 0-.1-.1-.2-.2-.5-.3-.5.2-.9.2-.6-.7-2.1-1.1-.7-1.9.3-.2 1.1-.7 1.6-1.2l.2.1c1 .4 1.5.5 2 .1.5-.5.4-1.3.1-1.8-.075-.125-.187-.175-.328-.18zM31.4 25.4c-.8.1-2.5 2.9-.1 2.3.6-.2 1.1-.5 1.5-.9.6-.7-.4-1.4-1.4-1.4zm40 0c-.8.1-2.5 2.9-.1 2.3.6-.2 1.1-.5 1.5-.9.6-.7-.4-1.4-1.4-1.4zm40 0c-.8.1-2.5 2.9-.1 2.3.6-.2 1.1-.5 1.5-.9.6-.7-.4-1.4-1.4-1.4zm8.6 0c-.2 0-.4 0-.5.3-.3-.1-.6-.2-.9-.2-.8 1.3-2 .4-2.8 1.5-1.4.5-1.1 1.5-.4 2.2-.7 1.8 2 1 1.5 2.7.7.3 1.9.2 2.7-.1l.4.2c.194-.583.643-1.014 0-2.1-.1 0-.1-.1-.2-.2-.5-.3-.5.2-.9.2-.6-.7-2.1-1.1-.7-1.9.3-.2 1.1-.7 1.6-1.2l.2.1c.6-.828.528-1.312 0-1.5zM4.2 26.5c-2.1 1.1.9 2.6.6.4-.1-.2-.4-.4-.6-.4zm40 0c-2.1 1.1.9 2.6.6.4-.1-.2-.4-.4-.6-.4zm40 0c-2.1 1.1.9 2.6.6.4-.1-.2-.4-.4-.6-.4zM25 27.6c-.3 0-.5 0-.7.2-.7.8.7 3.1-1 2.9-.3.1-.7.4-1 .5v.9c2.3.1 4.5-.2 3.4-3.2-.2-.5-.4-1-.7-1.3zm40 0c-.3 0-.5 0-.7.2-.7.8.7 3.1-1 2.9-.3.1-.7.4-1 .5v.9c2.3.1 4.5-.2 3.4-3.2-.2-.5-.4-1-.7-1.3zm40 0c-.3 0-.5 0-.7.2-.7.8.7 3.1-1 2.9-.3.1-.7.4-1 .5v.9c2.3.1 4.5-.2 3.4-3.2-.2-.5-.4-1-.7-1.3zm-89.7.6c-2.2.4-.1 5-2.3 4.4-.4-1.4-1.7-5-3.5-3.1-.2 1.9 1.4 4.7 2.2 6.3 1.3.3 3.3-2 4.7-2.6.3-1.5 1.4-5-1.1-5zm40 0c-2.2.4-.1 5-2.3 4.4-.4-1.4-1.7-5-3.5-3.1-.2 1.9 1.4 4.7 2.2 6.3 1.3.3 3.3-2 4.7-2.6.3-1.5 1.4-5-1.1-5zm40 0c-2.2.4-.1 5-2.3 4.4-.4-1.4-1.7-5-3.5-3.1-.2 1.9 1.4 4.7 2.2 6.3 1.3.3 3.3-2 4.7-2.6.3-1.5 1.4-5-1.1-5zm-90 .2c-2 .3 1.4 3.1.2 3.3 0 .1-.9 1.4-1.2 1.3-.4-.1-.3-1.7-.4-1.7-1.4 1-2 3-2.7 4.2 1 1.3 1.8-.7 2.5 0 1.7-.3 2.4-2.1 4.2-1.6 2.7-2.1-1-4.1-2.6-5.5zm26.4 0c-.8.1-1.3.6-1.9 1-1 .5-.9.9-1.6 1.5.4 2.5 3.1-1.3 4.1 0 .1 1-.4 3.4 1.4 2.5-1 .9-4.7.6-3.5 2.4 2.1.5 6.3-.7 4.9-3.6-.7-1.7-1.3-3.8-3.4-3.8zm13.6 0c-2 .3 1.4 3.1.2 3.3 0 .1-.9 1.4-1.2 1.3-.4-.1-.3-1.7-.4-1.7-1.4 1-2 3-2.7 4.2 1 1.3 1.8-.7 2.5 0 1.7-.3 2.4-2.1 4.2-1.6 2.7-2.1-1-4.1-2.6-5.5zm26.4 0c-.8.1-1.3.6-1.9 1-1 .5-.9.9-1.6 1.5.4 2.5 3.1-1.3 4.1 0 .1 1-.4 3.4 1.4 2.5-1 .9-4.7.6-3.5 2.4 2.1.5 6.3-.7 4.9-3.6-.7-1.7-1.3-3.8-3.4-3.8zm13.6 0c-2 .3 1.4 3.1.2 3.3 0 .1-.9 1.4-1.2 1.3-.4-.1-.3-1.7-.4-1.7-1.4 1-2 3-2.7 4.2 1 1.3 1.8-.7 2.5 0 1.7-.3 2.4-2.1 4.2-1.6 2.7-2.1-1-4.1-2.6-5.5zm26.4 0c-.8.1-1.3.6-1.9 1-1 .5-.9.9-1.6 1.5.4 2.5 3.1-1.3 4.1 0 .1 1-.4 3.4 1.4 2.5-1 .9-4.7.6-3.5 2.4 2.1.5 6.3-.7 4.9-3.6-.7-1.7-1.3-3.8-3.4-3.8zm-91.9.5c-1.6.1-2.2 2.6-2 3.4 1.1 1.5 2.8.2 4.2-.2v-.9c-.1 0-.2-.1-.3 0-.9.1-1.9-.6-1.1-1.8-.2-.2-.3-.5-.8-.5zm40 0c-1.6.1-2.2 2.6-2 3.4 1.1 1.5 2.8.2 4.2-.2v-.9c-.1 0-.2-.1-.3 0-.9.1-1.9-.6-1.1-1.8-.2-.2-.3-.5-.8-.5zm40 0c-1.6.1-2.2 2.6-2 3.4 1.1 1.5 2.8.2 4.2-.2v-.9c-.1 0-.2-.1-.3 0-.9.1-1.9-.6-1.1-1.8-.2-.2-.3-.5-.8-.5zM0 29.9V32c1 .5 2.7-.8 2.4-1.4-.1-.3-.4-.9-.7-.6-.5.4-1.1.1-1.7-.1zm29.25 2.275c-.15.019-.3.15-.45.225-1.9.9.9 3 1.3.9.1-.5-.3-1.1-.7-1.1a.256.256 0 00-.15-.025zm40 0c-.15.019-.3.15-.45.225-1.9.9.9 3 1.3.9.1-.5-.3-1.1-.7-1.1a.256.256 0 00-.15-.025zm40 0c-.15.019-.3.15-.45.225-1.9.9.9 3 1.3.9.1-.5-.3-1.1-.7-1.1a.256.256 0 00-.15-.025zM25.8 32.8c-1.7.1-3.8.3-2.2 3.2 1.1 1.2 1.8 2.8 3.3 3.6 1.2.3 4.4-1.3 2.3-2.4-1.4.9-3.3.4-3.3-1.3-1-1 2.2-1.6.6-3-.2-.1-.5-.1-.7-.1zm40 0c-1.7.1-3.8.3-2.2 3.2 1.1 1.2 1.8 2.8 3.3 3.6 1.2.3 4.4-1.3 2.3-2.4-1.4.9-3.3.4-3.3-1.3-1-1 2.2-1.6.6-3-.2-.1-.5-.1-.7-.1zm40 0c-1.7.1-3.8.3-2.2 3.2 1.1 1.2 1.8 2.8 3.3 3.6 1.2.3 4.4-1.3 2.3-2.4-1.4.9-3.3.4-3.3-1.3-1-1 2.2-1.6.6-3-.2-.1-.5-.1-.7-.1zm-68.7.8c-.9 0-.8 2.2.6 2.7.1 1.8 3.1 2.1 1.9.1-1.1-2-2-2.8-2.5-2.8zm40 0c-.9 0-.8 2.2.6 2.7.1 1.8 3.1 2.1 1.9.1-1.1-2-2-2.8-2.5-2.8zm40 0c-.9 0-.8 2.2.6 2.7.1 1.8 3.1 2.1 1.9.1-1.1-2-2-2.8-2.5-2.8zm-97.2.3c-1.1.2-2.4.4-3 1.4-.1 1 1.1.7 1.7.3.5-.4 1-.5.9.2 0 .7 1.3 1.4.2 1.8-.8 0-1.8 1.2-.5 1.3 1.1-.2 2.2-.3 3.3-.7.4 0 .1-.4.4-.7-.7-.6-.9-1.6-1.6-2.2-.5-.3-.8-1.4-1.4-1.4zm40 0c-1.1.2-2.4.4-3 1.4-.1 1 1.1.7 1.7.3.5-.4 1-.5.9.2 0 .7 1.3 1.4.2 1.8-.8 0-1.8 1.2-.5 1.3 1.1-.2 2.2-.3 3.3-.7.4 0 .1-.4.4-.7-.7-.6-.9-1.6-1.6-2.2-.5-.3-.8-1.4-1.4-1.4zm40 0c-1.1.2-2.4.4-3 1.4-.1 1 1.1.7 1.7.3.5-.4 1-.5.9.2 0 .7 1.3 1.4.2 1.8-.8 0-1.8 1.2-.5 1.3 1.1-.2 2.2-.3 3.3-.7.4 0 .1-.4.4-.7-.7-.6-.9-1.6-1.6-2.2-.5-.3-.8-1.4-1.4-1.4zM7.6 35.4c-1.6.9-1.6 1-4.1 2.5-2.5-.8-2.8 1-2.4 2.1.2.4.5.7.8.8 1-.1 1.9-.3 2.7-.8 1.5-.8 2.3-2 3.4-1.7.6.4.5 1.2.5 1.7.1.1.1.2.2.3-1.4.7-4.5 1.5-2.4 3.4 1.2.4 3.1-.2 4.4-.4.5-.1.1-2.3 0-3.1l-.2-.2c-.1 0-.2-.2-.3-.4 0-.5.2-1.1.1-1.6-.2-.5-.5-1.1-.7-1.5-.6-.5-1.2-1-2-1.1zm40 0c-1.6.9-1.6 1-4.1 2.5-2.5-.8-2.8 1-2.4 2.1.2.4.5.7.8.8 1-.1 1.9-.3 2.7-.8 1.5-.8 2.3-2 3.4-1.7.6.4.5 1.2.5 1.7.1.1.1.2.2.3-1.4.7-4.5 1.5-2.4 3.4 1.2.4 3.1-.2 4.4-.4.5-.1.1-2.3 0-3.1l-.2-.2c-.1 0-.2-.2-.3-.4 0-.5.2-1.1.1-1.6-.2-.5-.5-1.1-.7-1.5-.6-.5-1.2-1-2-1.1zm40 0c-1.6.9-1.6 1-4.1 2.5-2.5-.8-2.8 1-2.4 2.1.2.4.5.7.8.8 1-.1 1.9-.3 2.7-.8 1.5-.8 2.3-2 3.4-1.7.6.4.5 1.2.5 1.7.1.1.1.2.2.3-1.4.7-4.5 1.5-2.4 3.4 1.2.4 3.1-.2 4.4-.4.5-.1.1-2.3 0-3.1l-.2-.2c-.1 0-.2-.2-.3-.4 0-.5.2-1.1.1-1.6-.2-.5-.5-1.1-.7-1.5-.6-.5-1.2-1-2-1.1zm-52.426.6c-.52.022-1.036.6-1.474 1.1-.7.9-1.3 1.9-2.5 2.1-.1.3-.1.6-.1.8-.1 1.5 1.9.8 3.1 0 .3-.2.6-.4.8-.6.5-.1.8.2 1 .6 0 .2 0 .2-.2.4-.4.7-.2 2.3-1.9 3-.2.6.2.8.4 1.1.6.5 1.5.7 1.8 0 1.6.3 2.3-1.1 2.4-2.5.096-1.052-.251-1.792-.283-1.945.028-.02.055-.035.083-.055-.1-.2-.3-.3-.6-.3-.5-1-1.3-2-1.6-3-.3-.525-.614-.712-.926-.7zm40 0c-.52.022-1.036.6-1.474 1.1-.7.9-1.3 1.9-2.5 2.1-.1.3-.1.6-.1.8-.1 1.5 1.9.8 3.1 0 .3-.2.6-.4.8-.6.5-.1.8.2 1 .6 0 .2 0 .2-.2.4-.4.7-.2 2.3-1.9 3-.2.6.2.8.4 1.1.6.5 1.5.7 1.8 0 1.6.3 2.3-1.1 2.4-2.5.096-1.052-.251-1.792-.283-1.945.028-.02.055-.035.083-.055-.1-.2-.3-.3-.6-.3-.5-1-1.3-2-1.6-3-.3-.525-.614-.712-.926-.7zm40 0c-.52.022-1.036.6-1.474 1.1-.7.9-1.3 1.9-2.5 2.1-.1.3-.1.6-.1.8-.1 1.5 1.9.8 3.1 0 .3-.2.6-.4.8-.6.5-.1.8.2 1 .6 0 .2 0 .2-.2.4-.4.7-.2 2.3-1.9 3-.2.6.2.8.4 1.1.6.5 1.5.7 1.8 0 1.6.3 2.3-1.1 2.4-2.5.096-1.052-.251-1.792-.283-1.945.028-.02.055-.035.083-.055-.1-.2-.3-.3-.6-.3-.5-1-1.3-2-1.6-3-.3-.525-.614-.712-.926-.7zM14.4 36.5c0 .6-3.7 2.1-1.6 3.2.3.1.5 0 .5.3-.1.5.5 1.8.5 2.9 0 .9 1.7-.3 2.6-.4 2.4.1 5-.4 6.4-2.5.2-.8-.1-1.1-.5-1.1-.6 0-1.5.6-2 1.1-.9.9-2.7.8-4.1 0-.9-.8-1.6-1.8-.7-3.1-.1-.4-.7-.2-1.1-.4zm40 0c0 .6-3.7 2.1-1.6 3.2.3.1.5 0 .5.3-.1.5.5 1.8.5 2.9 0 .9 1.7-.3 2.6-.4 2.4.1 5-.4 6.4-2.5.2-.8-.1-1.1-.5-1.1-.6 0-1.5.6-2 1.1-.9.9-2.7.8-4.1 0-.9-.8-1.6-1.8-.7-3.1-.1-.4-.7-.2-1.1-.4zm40 0c0 .6-3.7 2.1-1.6 3.2.3.1.5 0 .5.3-.1.5.5 1.8.5 2.9 0 .9 1.7-.3 2.6-.4 2.4.1 5-.4 6.4-2.5.2-.8-.1-1.1-.5-1.1-.6 0-1.5.6-2 1.1-.9.9-2.7.8-4.1 0-.9-.8-1.6-1.8-.7-3.1-.1-.4-.7-.2-1.1-.4zm-69.6 3.6c-.9 0-2.1 1.9-1.7 2.4.1.1.8.3 1.2.1.3-.2.3-.8.5-.9.4-.2.6-.6.6-1-.2-.4-.4-.6-.6-.6zm40 0c-.9 0-2.1 1.9-1.7 2.4.1.1.8.3 1.2.1.3-.2.3-.8.5-.9.4-.2.6-.6.6-1-.2-.4-.4-.6-.6-.6zm40 0c-.9 0-2.1 1.9-1.7 2.4.1.1.8.3 1.2.1.3-.2.3-.8.5-.9.4-.2.6-.6.6-1-.2-.4-.4-.6-.6-.6zm-75.4.2c-1.1.1-3.7 2-1.9 2.2-.4.5-.8.5-1.3.9-.1.1-.4.9-.4 1-.2-.4-.5-.6-1.1-.7-.4.1-1.3.1-1.6.5-.3.4-.5.9-.3 1.4.3.7.6 1.2 1.7.8 2-.6 2.3-1.2 2.6-2 .4-.3.5-.9.9-1.2.3-.4 1.4-.9 1.7-1.2.7-.4.5-1-.3-1.7zm40 0c-1.1.1-3.7 2-1.9 2.2-.4.5-.8.5-1.3.9-.1.1-.4.9-.4 1-.2-.4-.5-.6-1.1-.7-.4.1-1.3.1-1.6.5-.3.4-.5.9-.3 1.4.3.7.6 1.2 1.7.8 2-.6 2.3-1.2 2.6-2 .4-.3.5-.9.9-1.2.3-.4 1.4-.9 1.7-1.2.7-.4.5-1-.3-1.7zm40 0c-1.1.1-3.7 2-1.9 2.2-.4.5-.8.5-1.3.9-.1.1-.4.9-.4 1-.2-.4-.5-.6-1.1-.7-.4.1-1.3.1-1.6.5-.3.4-.5.9-.3 1.4.3.7.6 1.2 1.7.8 2-.6 2.3-1.2 2.6-2 .4-.3.5-.9.9-1.2.3-.4 1.4-.9 1.7-1.2.7-.4.5-1-.3-1.7zM1.2 41c-.4.1-.9.4-1.2.8v2.8c.1 0 .2.1.4.1.5 1.3 2.9 2.4 2.7.4.8.3 1.3-.9 1.3-1.8l-1 .2c.1.3-.9.7-1.4.7-.5 0-.7-.5-.7-.7 0-.4.4-.9.8-.9.3 0 1.3.3 1.4.5l.9-.1c-.1-.3-.2-.5-.4-.6 0-1.2-2-.9-2.8-1.4zm40 0c-.4.1-.9.4-1.2.8-.4.5-.7 1.1-.7 1.7 0 .5.2.9.7 1.1.1 0 .2.1.4.1.5 1.3 2.9 2.4 2.7.4.8.3 1.3-.9 1.3-1.8l-1 .2c.1.3-.9.7-1.4.7-.5 0-.7-.5-.7-.7 0-.4.4-.9.8-.9.3 0 1.3.3 1.4.5l.9-.1c-.1-.3-.2-.5-.4-.6 0-1.2-2-.9-2.8-1.4zm40 0c-.4.1-.9.4-1.2.8-.4.5-.7 1.1-.7 1.7 0 .5.2.9.7 1.1.1 0 .2.1.4.1.5 1.3 2.9 2.4 2.7.4.8.3 1.3-.9 1.3-1.8l-1 .2c.1.3-.9.7-1.4.7-.5 0-.7-.5-.7-.7 0-.4.4-.9.8-.9.3 0 1.3.3 1.4.5l.9-.1c-.1-.3-.2-.5-.4-.6 0-1.2-2-.9-2.8-1.4zm38.8.8c-.4.5-.7 1.1-.7 1.7 0 .5.2.9.7 1.1v-2.8zm-89 .7c-.7.6-2.4 1.5-2.9 2.4-.6.9-.2 1.2.3 1.4-.1.5 2 2.3 2.4 1.7.7.7 1.3.6 1.8.3 2.1-1-.1-3.5-1.3-1.6-.4-.5-1.4-.5-2-1 .7-.3 2-1.3 2.4-1.9.3-.3-.2-1-.7-1.3zm40 0c-.7.6-2.4 1.5-2.9 2.4-.6.9-.2 1.2.3 1.4-.1.5 2 2.3 2.4 1.7.7.7 1.3.6 1.8.3 2.1-1-.1-3.5-1.3-1.6-.4-.5-1.4-.5-2-1 .7-.3 2-1.3 2.4-1.9.3-.3-.2-1-.7-1.3zm40 0c-.7.6-2.4 1.5-2.9 2.4-.6.9-.2 1.2.3 1.4-.1.5 2 2.3 2.4 1.7.7.7 1.3.6 1.8.3 2.1-1-.1-3.5-1.3-1.6-.4-.5-1.4-.5-2-1 .7-.3 2-1.3 2.4-1.9.3-.3-.2-1-.7-1.3zm-93.4 1.8c-.4.2-.7.6-1.1.9l.7 1.1c1.2-.6 2.5 1.5 1.8 2.8-.2.7 0 1 .3 1.3.4.5 1.2 1 1.7.5.4-.3.6-1.3.4-2 .3-2-.7-4.1-2.7-4.5-.3-.1-.7-.1-1.1-.1zm40 0c-.4.2-.7.6-1.1.9l.7 1.1c1.2-.6 2.5 1.5 1.8 2.8-.2.7 0 1 .3 1.3.4.5 1.2 1 1.7.5.4-.3.6-1.3.4-2 .3-2-.7-4.1-2.7-4.5-.3-.1-.7-.1-1.1-.1zm40 0c-.4.2-.7.6-1.1.9l.7 1.1c1.2-.6 2.5 1.5 1.8 2.8-.2.7 0 1 .3 1.3.4.5 1.2 1 1.7.5.4-.3.6-1.3.4-2 .3-2-.7-4.1-2.7-4.5-.3-.1-.7-.1-1.1-.1zm-89.1.8c0 .6-2.4-.3-2.6.3-.2.8-.5 2.1.6 2.2.6-.2 2.9.6 3.2 1.2.4.8-1.2 1.5-2.4 1-.6.1-1.7-.4-1.6.2 0 .6-.2 1.6.5 2.4 1.5.6 2.2-1.6 3.5-.5 1.7-.2 3.4-2.6 1.7-3.7.6-.5-.9-1.4 0-.9-.7-.8-.1-1.5-.5-1.6-.3-.1-1.4.4-2-.5-.2-.1-.2-.1-.4-.1zm40 0c0 .6-2.4-.3-2.6.3-.2.8-.5 2.1.6 2.2.6-.2 2.9.6 3.2 1.2.4.8-1.2 1.5-2.4 1-.6.1-1.7-.4-1.6.2 0 .6-.2 1.6.5 2.4 1.5.6 2.2-1.6 3.5-.5 1.7-.2 3.4-2.6 1.7-3.7.6-.5-.9-1.4 0-.9-.7-.8-.1-1.5-.5-1.6-.3-.1-1.4.4-2-.5-.2-.1-.2-.1-.4-.1zm40 0c0 .6-2.4-.3-2.6.3-.2.8-.5 2.1.6 2.2.6-.2 2.9.6 3.2 1.2.4.8-1.2 1.5-2.4 1-.6.1-1.7-.4-1.6.2 0 .6-.2 1.6.5 2.4 1.5.6 2.2-1.6 3.5-.5 1.7-.2 3.4-2.6 1.7-3.7.6-.5-.9-1.4 0-.9-.7-.8-.1-1.5-.5-1.6-.3-.1-1.4.4-2-.5-.2-.1-.2-.1-.4-.1zm-72.3.2c-.6.5-1 .1-2 .1-.2 1.2-.4 2.8.1 4.2.5.7.8.6 1.2.5 2.1 0 1.3-2.2 1.3-3.4.1-.2.1-.3.3-.4l-.9-1zm40 0c-.6.5-1 .1-2 .1-.2 1.2-.4 2.8.1 4.2.5.7.8.6 1.2.5 2.1 0 1.3-2.2 1.3-3.4.1-.2.1-.3.3-.4l-.9-1zm40 0c-.6.5-1 .1-2 .1-.2 1.2-.4 2.8.1 4.2.5.7.8.6 1.2.5 2.1 0 1.3-2.2 1.3-3.4.1-.2.1-.3.3-.4l-.9-1zm-57.8.5C34.6 47 34 48.6 34 50.3c.7.2.7 2.8 2.3 1.6.2 0 2.2-1.2 3.1-2.5.2.2.4.5.6.7.3.3.7.6 1 .9.5.7-.3.8-1 1.2-.3.1-.5.3-.6.5-.5-.4-1.3-.7-1.8-.7-.9.3-1.3 1-1 1.5.3.5 1.4 1.6 2.2 1.6.5-.2.7-.9.9-1.3l.3.3c1.2.7 3.1-.4 4-1.3.9-2.2-1-4.4-2.7-5.6-.4-.3-.8-.7-1.3-.6l-1.6-.8zm40 0C74.6 47 74 48.6 74 50.3c.7.2.7 2.8 2.3 1.6.2 0 2.2-1.2 3.1-2.5.2.2.4.5.6.7.3.3.7.6 1 .9.5.7-.3.8-1 1.2-.3.1-.5.3-.6.5-.5-.4-1.3-.7-1.8-.7-.9.3-1.3 1-1 1.5.3.5 1.4 1.6 2.2 1.6.5-.2.7-.9.9-1.3l.3.3c1.2.7 3.1-.4 4-1.3.9-2.2-1-4.4-2.7-5.6-.4-.3-.8-.7-1.3-.6l-1.6-.8zm40 0c-3.8 1.2-4.4 2.8-4.4 4.5.7.2.7 2.8 2.3 1.6.2 0 2.2-1.2 3.1-2.5.2.2.4.5.6.7 1.033-1.392.865-2.522 0-3.5l-1.6-.8zM.183 46.585A.797.797 0 000 46.6v3.5c.3.3.7.6 1 .9.5.7-.3.8-1 1.2v1.9c1.2.7 3.1-.4 4-1.3.9-2.2-1-4.4-2.7-5.6-.35-.262-.7-.601-1.117-.615zm26.617.95c-.242-.01-.5.028-.8.065-.7.1-1.6 0-2 .5-.6.7-.4 1.8-.4 3 1.3.8 3.6-.6 4.4-.8.2.5 1.4 1.9 1.4 1.9-.1-.1 0 .7-.3.9-.4.3-1.3.1-1.5.3-1.1.6-1.8 1.1-1.2 2.5 1.8 0 5.8.5 5-2 0-.8.9-2.8.1-3.2-1-.5-2-2.3-3.5-2.5-.438-.5-.797-.648-1.2-.665zm40 0c-.242-.01-.5.028-.8.065-.7.1-1.6 0-2 .5-.6.7-.4 1.8-.4 3 1.3.8 3.6-.6 4.4-.8.2.5 1.4 1.9 1.4 1.9-.1-.1 0 .7-.3.9-.4.3-1.3.1-1.5.3-1.1.6-1.8 1.1-1.2 2.5 1.8 0 5.8.5 5-2 0-.8.9-2.8.1-3.2-1-.5-2-2.3-3.5-2.5-.438-.5-.797-.648-1.2-.665zm40 0c-.242-.01-.5.028-.8.065-.7.1-1.6 0-2 .5-.6.7-.4 1.8-.4 3 1.3.8 3.6-.6 4.4-.8.2.5 1.4 1.9 1.4 1.9-.1-.1 0 .7-.3.9-.4.3-1.3.1-1.5.3-1.1.6-1.8 1.1-1.2 2.5 1.8 0 5.8.5 5-2 0-.8.9-2.8.1-3.2-1-.5-2-2.3-3.5-2.5-.438-.5-.797-.648-1.2-.665zM117.6 52c-.9.3-1.3 1-1 1.5.3.5 1.4 1.6 2.2 1.6.5-.2.7-.9.9-1.3l.3.3c.841-.668.573-1.29 0-1.9-.3.1-.5.3-.6.5-.5-.4-1.3-.7-1.8-.7zm-84.1.1c-.6 0-.7 1.9-.7 2.5-.1 1.1.5 1 1.4 1.4.4.4 1.6.3 1.8-.4.1-.4-.3-1-1-2.1-.1-.5-.9-1.3-1.5-1.4zm40 0c-.6 0-.7 1.9-.7 2.5-.1 1.1.5 1 1.4 1.4.4.4 1.6.3 1.8-.4.1-.4-.3-1-1-2.1-.1-.5-.9-1.3-1.5-1.4zm40 0c-.6 0-.7 1.9-.7 2.5-.1 1.1.5 1 1.4 1.4.4.4 1.6.3 1.8-.4.1-.4-.3-1-1-2.1-.1-.5-.9-1.3-1.5-1.4zm-96.8.1c-1.5 0-2.9.8-3.3 3.6.1.5.1 2.2 1.7 0 1.5-2 3.4-.6 4.3-.2.2.2.4.3.7.2-.3.3.5.7.5 1 0 .3.8.7.7.9-.3.3-1.3 1.4-2.2 1.8-1.3.5-2.7-.5-2.8-.5-2.8.3.3 2.3.8 2.3 1.4.1 2.4 1.7 4.6-2.4.4-.2.5-.5.5-.7.4 0 .7-.1.8-.2.1-.2-.3-1.5-.4-1.8-.1-.3-.4-1.3-.9-1-.4.4-.8.5-1.3.5.8-.4 1.4-2 .2-2.6-1.2-.8-2.7-.3-3.9-.9zm40 0c-1.5 0-2.9.8-3.3 3.6.1.5.1 2.2 1.7 0 1.5-2 3.4-.6 4.3-.2.2.2.4.3.7.2-.3.3.5.7.5 1 0 .3.8.7.7.9-.3.3-1.3 1.4-2.2 1.8-1.3.5-2.7-.5-2.8-.5-2.8.3.3 2.3.8 2.3 1.4.1 2.4 1.7 4.6-2.4.4-.2.5-.5.5-.7.4 0 .7-.1.8-.2.1-.2-.3-1.5-.4-1.8-.1-.3-.4-1.3-.9-1-.4.4-.8.5-1.3.5.8-.4 1.4-2 .2-2.6-1.2-.8-2.7-.3-3.9-.9zm40 0c-1.5 0-2.9.8-3.3 3.6.1.5.1 2.2 1.7 0 1.5-2 3.4-.6 4.3-.2.2.2.4.3.7.2-.3.3.5.7.5 1 0 .3.8.7.7.9-.3.3-1.3 1.4-2.2 1.8-1.3.5-2.7-.5-2.8-.5-2.8.3.3 2.3.8 2.3 1.4.1 2.4 1.7 4.6-2.4.4-.2.5-.5.5-.7.4 0 .7-.1.8-.2.1-.2-.3-1.5-.4-1.8-.1-.3-.4-1.3-.9-1-.4.4-.8.5-1.3.5.8-.4 1.4-2 .2-2.6-1.2-.8-2.7-.3-3.9-.9zm-72.2.1c-.3 0-.8 0-.9.5-.1.3.2 1 .3 1.2.1.4.5 1.3 1 1.3.2 0 .3-.7.7-.9.9-.5.7-2.1-1.1-2.1zm40 0c-.3 0-.8 0-.9.5-.1.3.2 1 .3 1.2.1.4.5 1.3 1 1.3.2 0 .3-.7.7-.9.9-.5.7-2.1-1.1-2.1zm40 0c-.3 0-.8 0-.9.5-.1.3.2 1 .3 1.2.1.4.5 1.3 1 1.3.2 0 .3-.7.7-.9.9-.5.7-2.1-1.1-2.1zm-92.375.798A.475.475 0 0012 53.1c-.6 0-1.2.6-2.3.9-.3.1-.8-.1-1.1 0-.6.2-.7.8.2 1.4 1.6 1.1 2.3.4 3.3-.4.75-.562.621-1.828.025-1.902zm40 0A.475.475 0 0052 53.1c-.6 0-1.2.6-2.3.9-.3.1-.8-.1-1.1 0-.6.2-.7.8.2 1.4 1.6 1.1 2.3.4 3.3-.4.75-.562.621-1.828.025-1.902zm40 0A.475.475 0 0092 53.1c-.6 0-1.2.6-2.3.9-.3.1-.8-.1-1.1 0-.6.2-.7.8.2 1.4 1.6 1.1 2.3.4 3.3-.4.75-.562.621-1.828.025-1.902zM1.926 55.573C1.061 55.54.262 55.738 0 56.7v.5c.2.6.9.2 1.3.4 1.1.1 3.8-.2 2.5 1.8-.5.3-1.5 1.2-2.3 1.7-.9.6-1.6 1-.6 2.1 1.6.4 3.2-2.3 4.8-2 .9-.9 1.2-2.6 1.6-3.9-.5-1.2-3.1-1.7-5-1.7a6.078 6.078 0 00-.374-.027zm40 0c-.865-.033-1.663.165-1.926 1.127v.5c.2.6.9.2 1.3.4 1.1.1 3.8-.2 2.5 1.8-.5.3-1.5 1.2-2.3 1.7-.9.6-1.6 1-.6 2.1 1.6.4 3.2-2.3 4.8-2 .9-.9 1.2-2.6 1.6-3.9-.5-1.2-3.1-1.7-5-1.7a6.078 6.078 0 00-.374-.027zm40 0c-.865-.033-1.663.165-1.926 1.127v.5c.2.6.9.2 1.3.4 1.1.1 3.8-.2 2.5 1.8-.5.3-1.5 1.2-2.3 1.7-.9.6-1.6 1-.6 2.1 1.6.4 3.2-2.3 4.8-2 .9-.9 1.2-2.6 1.6-3.9-.5-1.2-3.1-1.7-5-1.7a6.078 6.078 0 00-.374-.027zm-64.301.932a.395.395 0 00-.225.095c-.5.1-1.4.2-2.1.4-.6.2-1.2.7-.9 1.2.2.4 1.3-.2 2.2 0 .8 0 1.8.8 2.5 0 .788-1.05-.798-1.794-1.475-1.695zm40 0a.395.395 0 00-.225.095c-.5.1-1.4.2-2.1.4-.6.2-1.2.7-.9 1.2.2.4 1.3-.2 2.2 0 .8 0 1.8.8 2.5 0 .788-1.05-.798-1.794-1.475-1.695zm40 0a.395.395 0 00-.225.095c-.5.1-1.4.2-2.1.4-.6.2-1.2.7-.9 1.2.2.4 1.3-.2 2.2 0 .8 0 1.8.8 2.5 0 .788-1.05-.798-1.794-1.475-1.695zm-59.929.674c-.791.07-2.071.933-1.896 1.72-1.2 1.1-1.3-1.8-3-1.6-.6-.1-.9 2.301-.9 2.801.1 1.1 1.4.4 2.4.9.5.2 1.3.1 1.7-.6.3.9.7.4 1.8.9.4.2 1.3.2 1.8-.1.6-.5-.3-1-.5-1.4-.5-.7-.2-2.3-1.1-2.6a.847.847 0 00-.304-.021zm40 0c-.791.07-2.071.933-1.896 1.72-1.2 1.1-1.3-1.8-3-1.6-.6-.1-.9 2.301-.9 2.801.1 1.1 1.4.4 2.4.9.5.2 1.3.1 1.7-.6.3.9.7.4 1.8.9.4.2 1.3.2 1.8-.1.6-.5-.3-1-.5-1.4-.5-.7-.2-2.3-1.1-2.6a.847.847 0 00-.304-.021zm40 0c-.791.07-2.071.933-1.896 1.72-1.2 1.1-1.3-1.8-3-1.6-.6-.1-.9 2.301-.9 2.801.1 1.1 1.4.4 2.4.9.5.2 1.3.1 1.7-.6.3.9.7.4 1.8.9.4.2 1.3.2 1.8-.1.6-.5-.3-1-.5-1.4-.5-.7-.2-2.3-1.1-2.6a.847.847 0 00-.304-.021zm-91.18.288c-.41.014-.816.083-1.216.233-1 .4-1 1.4-1 1.4-.2.1-.5.3-.5.5.3.7.4 1.8.9 2.1.3.2.7.1 1.1-.1.2 0-.2-.7.1-1.2.1-.2.9-.4 1-.5.7-.7 1.3-.6 1.2.9.1.2.1.6.2 1l1.3.3c.2-.7.2-.9.4-1.7-.1-.7.2-1.3.2-2.3-1.2-.225-2.456-.675-3.684-.633zm40 0c-.41.014-.816.083-1.216.233-1 .4-1 1.4-1 1.4-.2.1-.5.3-.5.5.3.7.4 1.8.9 2.1.3.2.7.1 1.1-.1.2 0-.2-.7.1-1.2.1-.2.9-.4 1-.5.7-.7 1.3-.6 1.2.9.1.2.1.6.2 1l1.3.3c.2-.7.2-.9.4-1.7-.1-.7.2-1.3.2-2.3-1.2-.225-2.456-.675-3.684-.633zm40 0c-.41.014-.816.083-1.216.233-1 .4-1 1.4-1 1.4-.2.1-.5.3-.5.5.3.7.4 1.8.9 2.1.3.2.7.1 1.1-.1.2 0-.2-.7.1-1.2.1-.2.9-.4 1-.5.7-.7 1.3-.6 1.2.9.1.2.1.6.2 1l1.3.3c.2-.7.2-.9.4-1.7-.1-.7.2-1.3.2-2.3-1.2-.225-2.456-.675-3.684-.633zM11.8 57.6c-1.5-.1-1.9 1.6-2.6 2.6-.9 3.4 1.8.9 2.6 1l1-.9c-.5-.8-1-1.6-1-2.7zm40 0c-1.5-.1-1.9 1.6-2.6 2.6-.9 3.4 1.8.9 2.6 1l1-.9c-.5-.8-1-1.6-1-2.7zm40 0c-1.5-.1-1.9 1.6-2.6 2.6-.9 3.4 1.8.9 2.6 1l1-.9c-.5-.8-1-1.6-1-2.7zM0 58.3v1.4c.1.2.2.4.3.5.4.3.8.3 1.1-.7.1-.5-.2-1.2-.8-1.2H0zm40 0c-.1.1-.2.2-.2.7 0 .2.1.5.2.7.1.2.2.4.3.5.4.3.8.3 1.1-.7.1-.5-.2-1.2-.8-1.2H40zm40 0c-.1.1-.2.2-.2.7 0 .2.1.5.2.7.1.2.2.4.3.5.4.3.8.3 1.1-.7.1-.5-.2-1.2-.8-1.2H80zm40 0c-.1.1-.2.2-.2.7 0 .2.1.5.2.7.073-.48.64-1.046 0-1.4zm-107.1 2l-.9.9c-.4 1.5-.7 2-1.2 2.3-1.8 2.2-3.5 2-4.4 0-4.8 1.2.7 5 2.6 3.7 1.6-1.1 3.5-2.1 4.6-4.2.5-1-.1-1.8-.7-2.7zm40 0l-.9.9c-.4 1.5-.7 2-1.2 2.3-1.8 2.2-3.5 2-4.4 0-4.8 1.2.7 5 2.6 3.7 1.6-1.1 3.5-2.1 4.6-4.2.5-1-.1-1.8-.7-2.7zm40 0l-.9.9c-.4 1.5-.7 2-1.2 2.3-1.8 2.2-3.5 2-4.4 0-4.8 1.2.7 5 2.6 3.7 1.6-1.1 3.5-2.1 4.6-4.2.5-1-.1-1.8-.7-2.7zm-60 1.6c-1.7.1-1.5 3.3.2 1.9.5-.1 2.3-.4 2.2-1.1-.5-.6-1.6-.7-2.4-.8zm40 0c-1.7.1-1.5 3.3.2 1.9.5-.1 2.3-.4 2.2-1.1-.5-.6-1.6-.7-2.4-.8zm40 0c-1.7.1-1.5 3.3.2 1.9.5-.1 2.3-.4 2.2-1.1-.5-.6-1.6-.7-2.4-.8zm-90.6.4c-.4 0-1.4.6-1.5 1.1-.1.4.9 1 1 1l.1.2c.2-.6.8-.5 1.1-.1.3.2.7.6.5 1-.1.5-.2 1.2-.8 1.2-.4.2-.9.1-1.2-.2-.6-.2-.4-.8-.1-1.1.1-.6-.8-.3-1.1-.8-.4.6-1 1.6-1.3 2.2.3.6 1.3.4 1.8.8.4.4.9 0 1.3 0 .6-.1 1.3-.3 1.9-.6.3-.3 0-.8.3-1.2 0-.4.5-1-.1-1.2-.4-.3-.4-1-.8-1.4-.3-.5-.7-.9-1.1-.9zm6.1 0c0 .5-.1 1-.2 1.3-.3.5-1.1.1-1.5-.2-.2.2-.8.5-.8.9 0 .3.5.7.6 1.1.1 1 .3 1.8.9 1.4.5-.8 1 .1 1.4-1.1.2-.4.5-2.5.7-3 0-.1.1-.1.1-.2l-1.2-.2zm33.9 0c-.4 0-1.4.6-1.5 1.1-.1.4.9 1 1 1l.1.2c.2-.6.8-.5 1.1-.1.3.2.7.6.5 1-.1.5-.2 1.2-.8 1.2-.4.2-.9.1-1.2-.2-.6-.2-.4-.8-.1-1.1.1-.6-.8-.3-1.1-.8-.4.6-1 1.6-1.3 2.2.3.6 1.3.4 1.8.8.4.4.9 0 1.3 0 .6-.1 1.3-.3 1.9-.6.3-.3 0-.8.3-1.2 0-.4.5-1-.1-1.2-.4-.3-.4-1-.8-1.4-.3-.5-.7-.9-1.1-.9zm6.1 0c0 .5-.1 1-.2 1.3-.3.5-1.1.1-1.5-.2-.2.2-.8.5-.8.9 0 .3.5.7.6 1.1.1 1 .3 1.8.9 1.4.5-.8 1 .1 1.4-1.1.2-.4.5-2.5.7-3 0-.1.1-.1.1-.2l-1.2-.2zm33.9 0c-.4 0-1.4.6-1.5 1.1-.1.4.9 1 1 1l.1.2c.2-.6.8-.5 1.1-.1.3.2.7.6.5 1-.1.5-.2 1.2-.8 1.2-.4.2-.9.1-1.2-.2-.6-.2-.4-.8-.1-1.1.1-.6-.8-.3-1.1-.8-.4.6-1 1.6-1.3 2.2.3.6 1.3.4 1.8.8.4.4.9 0 1.3 0 .6-.1 1.3-.3 1.9-.6.3-.3 0-.8.3-1.2 0-.4.5-1-.1-1.2-.4-.3-.4-1-.8-1.4-.3-.5-.7-.9-1.1-.9zm6.1 0c0 .5-.1 1-.2 1.3-.3.5-1.1.1-1.5-.2-.2.2-.8.5-.8.9 0 .3.5.7.6 1.1.1 1 .3 1.8.9 1.4.5-.8 1 .1 1.4-1.1.2-.4.5-2.5.7-3 0-.1.1-.1.1-.2l-1.2-.2zm-71 .4c-.3.2-.7.3-1.2.6-.6.4.1.7-.1 1.2-.3.5-1.6 1.3-1 1.7 1.4-1.1 5.8-1.9 3.1-2.9l-.8-.6zm40 0c-.3.2-.7.3-1.2.6-.6.4.1.7-.1 1.2-.3.5-1.6 1.3-1 1.7 1.4-1.1 5.8-1.9 3.1-2.9l-.8-.6zm40 0c-.3.2-.7.3-1.2.6-.6.4.1.7-.1 1.2-.3.5-1.6 1.3-1 1.7 1.4-1.1 5.8-1.9 3.1-2.9l-.8-.6zm-99.588.313c-.387-.013-.712.137-.612.687.1.5.7 1 1.6.3.2-.2.1-.5 0-.7-.15-.1-.6-.275-.988-.287zm40 0c-.387-.013-.712.137-.612.687.1.5.7 1 1.6.3.2-.2.1-.5 0-.7-.15-.1-.6-.275-.987-.287zm40 0c-.387-.013-.712.137-.612.687.1.5.7 1 1.6.3.2-.2.1-.5 0-.7-.15-.1-.6-.275-.987-.287zm-82.337.445c-.225-.014-.45.042-.675.042 0 1.6-2.9 3.2-3.5 3.5-.5 2.2 2.5.7 3.4-.1 1.3 0 3.6.1 2.8-1.5-.1-.3-1-.3-1.4-.7-.3-.3.1-.9-.4-1.2a.879.879 0 00-.225-.042zm40 0c-.225-.014-.45.042-.675.042 0 1.6-2.9 3.2-3.5 3.5-.5 2.2 2.5.7 3.4-.1 1.3 0 3.6.1 2.8-1.5-.1-.3-1-.3-1.4-.7-.3-.3.1-.9-.4-1.2a.879.879 0 00-.225-.042zm40 0c-.225-.014-.45.042-.675.042 0 1.6-2.9 3.2-3.5 3.5-.5 2.2 2.5.7 3.4-.1 1.3 0 3.6.1 2.8-1.5-.1-.3-1-.3-1.4-.7-.3-.3.1-.9-.4-1.2a.879.879 0 00-.225-.042zM1.772 65.021C1.35 65.006.675 65.4 0 65.4v1.5c1 .4 1.5.5 2 .1.5-.5.4-1.3.1-1.8-.075-.125-.187-.175-.328-.18zm40 0c-.422-.015-1.097.379-1.772.379-.2 0-.4 0-.5.3-.3-.1-.6-.2-.9-.2-.8 1.3-2 .4-2.8 1.5-1.4.5-1.1 1.5-.4 2.2-.7 1.8 2 1 1.5 2.7.7.3 1.9.2 2.7-.1l.4.2c1 .5 2.7-.8 2.4-1.4-.1-.3-.4-.9-.7-.6-.5.4-1.1.1-1.7-.1-.1 0-.1-.1-.2-.2-.5-.3-.5.2-.9.2-.6-.7-2.1-1.1-.7-1.9.3-.2 1.1-.7 1.6-1.2l.2.1c1 .4 1.5.5 2 .1.5-.5.4-1.3.1-1.8-.075-.125-.187-.175-.328-.18zm40 0c-.422-.015-1.097.379-1.772.379-.2 0-.4 0-.5.3-.3-.1-.6-.2-.9-.2-.8 1.3-2 .4-2.8 1.5-1.4.5-1.1 1.5-.4 2.2-.7 1.8 2 1 1.5 2.7.7.3 1.9.2 2.7-.1l.4.2c1 .5 2.7-.8 2.4-1.4-.1-.3-.4-.9-.7-.6-.5.4-1.1.1-1.7-.1-.1 0-.1-.1-.2-.2-.5-.3-.5.2-.9.2-.6-.7-2.1-1.1-.7-1.9.3-.2 1.1-.7 1.6-1.2l.2.1c1 .4 1.5.5 2 .1.5-.5.4-1.3.1-1.8-.075-.125-.187-.175-.328-.18zM31.4 65.4c-.8.1-2.5 2.9-.1 2.3.6-.2 1.1-.5 1.5-.9.6-.7-.4-1.4-1.4-1.4zm40 0c-.8.1-2.5 2.9-.1 2.3.6-.2 1.1-.5 1.5-.9.6-.7-.4-1.4-1.4-1.4zm40 0c-.8.1-2.5 2.9-.1 2.3.6-.2 1.1-.5 1.5-.9.6-.7-.4-1.4-1.4-1.4zm8.6 0c-.2 0-.4 0-.5.3-.3-.1-.6-.2-.9-.2-.8 1.3-2 .4-2.8 1.5-1.4.5-1.1 1.5-.4 2.2-.7 1.8 2 1 1.5 2.7.7.3 1.9.2 2.7-.1l.4.2c.194-.583.643-1.014 0-2.1-.1 0-.1-.1-.2-.2-.5-.3-.5.2-.9.2-.6-.7-2.1-1.1-.7-1.9.3-.2 1.1-.7 1.6-1.2l.2.1c.6-.828.528-1.312 0-1.5zM4.2 66.5c-2.1 1.1.9 2.6.6.4-.1-.2-.4-.4-.6-.4zm40 0c-2.1 1.1.9 2.6.6.4-.1-.2-.4-.4-.6-.4zm40 0c-2.1 1.1.9 2.6.6.4-.1-.2-.4-.4-.6-.4zM25 67.6c-.3 0-.5 0-.7.2-.7.8.7 3.1-1 2.9-.3.1-.7.4-1 .5v.9c2.3.1 4.5-.2 3.4-3.2-.2-.5-.4-1-.7-1.3zm40 0c-.3 0-.5 0-.7.2-.7.8.7 3.1-1 2.9-.3.1-.7.4-1 .5v.9c2.3.1 4.5-.2 3.4-3.2-.2-.5-.4-1-.7-1.3zm40 0c-.3 0-.5 0-.7.2-.7.8.7 3.1-1 2.9-.3.1-.7.4-1 .5v.9c2.3.1 4.5-.2 3.4-3.2-.2-.5-.4-1-.7-1.3zm-89.7.6c-2.2.4-.1 5-2.3 4.4-.4-1.4-1.7-5-3.5-3.1-.2 1.9 1.4 4.7 2.2 6.3 1.3.3 3.3-2 4.7-2.6.3-1.5 1.4-5-1.1-5zm40 0c-2.2.4-.1 5-2.3 4.4-.4-1.4-1.7-5-3.5-3.1-.2 1.9 1.4 4.7 2.2 6.3 1.3.3 3.3-2 4.7-2.6.3-1.5 1.4-5-1.1-5zm40 0c-2.2.4-.1 5-2.3 4.4-.4-1.4-1.7-5-3.5-3.1-.2 1.9 1.4 4.7 2.2 6.3 1.3.3 3.3-2 4.7-2.6.3-1.5 1.4-5-1.1-5zm-90 .2c-2 .3 1.4 3.1.2 3.3 0 .1-.9 1.4-1.2 1.3-.4-.1-.3-1.7-.4-1.7-1.4 1-2 3-2.7 4.2 1 1.3 1.8-.7 2.5 0 1.7-.3 2.4-2.1 4.2-1.6 2.7-2.1-1-4.1-2.6-5.5zm26.4 0c-.8.1-1.3.6-1.9 1-1 .5-.9.9-1.6 1.5.4 2.5 3.1-1.3 4.1 0 .1 1-.4 3.4 1.4 2.5-1 .9-4.7.6-3.5 2.4 2.1.5 6.3-.7 4.9-3.6-.7-1.7-1.3-3.8-3.4-3.8zm13.6 0c-2 .3 1.4 3.1.2 3.3 0 .1-.9 1.4-1.2 1.3-.4-.1-.3-1.7-.4-1.7-1.4 1-2 3-2.7 4.2 1 1.3 1.8-.7 2.5 0 1.7-.3 2.4-2.1 4.2-1.6 2.7-2.1-1-4.1-2.6-5.5zm26.4 0c-.8.1-1.3.6-1.9 1-1 .5-.9.9-1.6 1.5.4 2.5 3.1-1.3 4.1 0 .1 1-.4 3.4 1.4 2.5-1 .9-4.7.6-3.5 2.4 2.1.5 6.3-.7 4.9-3.6-.7-1.7-1.3-3.8-3.4-3.8zm13.6 0c-2 .3 1.4 3.1.2 3.3 0 .1-.9 1.4-1.2 1.3-.4-.1-.3-1.7-.4-1.7-1.4 1-2 3-2.7 4.2 1 1.3 1.8-.7 2.5 0 1.7-.3 2.4-2.1 4.2-1.6 2.7-2.1-1-4.1-2.6-5.5zm26.4 0c-.8.1-1.3.6-1.9 1-1 .5-.9.9-1.6 1.5.4 2.5 3.1-1.3 4.1 0 .1 1-.4 3.4 1.4 2.5-1 .9-4.7.6-3.5 2.4 2.1.5 6.3-.7 4.9-3.6-.7-1.7-1.3-3.8-3.4-3.8zm-91.9.5c-1.6.1-2.2 2.6-2 3.4 1.1 1.5 2.8.2 4.2-.2v-.9c-.1 0-.2-.1-.3 0-.9.1-1.9-.6-1.1-1.8-.2-.2-.3-.5-.8-.5zm40 0c-1.6.1-2.2 2.6-2 3.4 1.1 1.5 2.8.2 4.2-.2v-.9c-.1 0-.2-.1-.3 0-.9.1-1.9-.6-1.1-1.8-.2-.2-.3-.5-.8-.5zm40 0c-1.6.1-2.2 2.6-2 3.4 1.1 1.5 2.8.2 4.2-.2v-.9c-.1 0-.2-.1-.3 0-.9.1-1.9-.6-1.1-1.8-.2-.2-.3-.5-.8-.5zM0 69.9V72c1 .5 2.7-.8 2.4-1.4-.1-.3-.4-.9-.7-.6-.5.4-1.1.1-1.7-.1zm29.25 2.275c-.15.019-.3.15-.45.225-1.9.9.9 3 1.3.9.1-.5-.3-1.1-.7-1.1a.256.256 0 00-.15-.025zm40 0c-.15.019-.3.15-.45.225-1.9.9.9 3 1.3.9.1-.5-.3-1.1-.7-1.1a.256.256 0 00-.15-.025zm40 0c-.15.019-.3.15-.45.225-1.9.9.9 3 1.3.9.1-.5-.3-1.1-.7-1.1a.256.256 0 00-.15-.025zM25.8 72.8c-1.7.1-3.8.3-2.2 3.2 1.1 1.2 1.8 2.8 3.3 3.6 1.2.3 4.4-1.3 2.3-2.4-1.4.9-3.3.4-3.3-1.3-1-1 2.2-1.6.6-3-.2-.1-.5-.1-.7-.1zm40 0c-1.7.1-3.8.3-2.2 3.2 1.1 1.2 1.8 2.8 3.3 3.6 1.2.3 4.4-1.3 2.3-2.4-1.4.9-3.3.4-3.3-1.3-1-1 2.2-1.6.6-3-.2-.1-.5-.1-.7-.1zm40 0c-1.7.1-3.8.3-2.2 3.2 1.1 1.2 1.8 2.8 3.3 3.6 1.2.3 4.4-1.3 2.3-2.4-1.4.9-3.3.4-3.3-1.3-1-1 2.2-1.6.6-3-.2-.1-.5-.1-.7-.1zm-68.7.8c-.9 0-.8 2.2.6 2.7.1 1.8 3.1 2.1 1.9.1-1.1-2-2-2.8-2.5-2.8zm40 0c-.9 0-.8 2.2.6 2.7.1 1.8 3.1 2.1 1.9.1-1.1-2-2-2.8-2.5-2.8zm40 0c-.9 0-.8 2.2.6 2.7.1 1.8 3.1 2.1 1.9.1-1.1-2-2-2.8-2.5-2.8zm-97.2.3c-1.1.2-2.4.4-3 1.4-.1 1 1.1.7 1.7.3.5-.4 1-.5.9.2 0 .7 1.3 1.4.2 1.8-.8 0-1.8 1.2-.5 1.3 1.1-.2 2.2-.3 3.3-.7.4 0 .1-.4.4-.7-.7-.6-.9-1.6-1.6-2.2-.5-.3-.8-1.4-1.4-1.4zm40 0c-1.1.2-2.4.4-3 1.4-.1 1 1.1.7 1.7.3.5-.4 1-.5.9.2 0 .7 1.3 1.4.2 1.8-.8 0-1.8 1.2-.5 1.3 1.1-.2 2.2-.3 3.3-.7.4 0 .1-.4.4-.7-.7-.6-.9-1.6-1.6-2.2-.5-.3-.8-1.4-1.4-1.4zm40 0c-1.1.2-2.4.4-3 1.4-.1 1 1.1.7 1.7.3.5-.4 1-.5.9.2 0 .7 1.3 1.4.2 1.8-.8 0-1.8 1.2-.5 1.3 1.1-.2 2.2-.3 3.3-.7.4 0 .1-.4.4-.7-.7-.6-.9-1.6-1.6-2.2-.5-.3-.8-1.4-1.4-1.4zM7.6 75.4c-1.6.9-1.6 1-4.1 2.5-2.5-.8-2.8 1-2.4 2.1.2.4.5.7.8.8 1-.1 1.9-.3 2.7-.8 1.5-.8 2.3-2 3.4-1.7.6.4.5 1.2.5 1.7.1.1.1.2.2.3-1.4.7-4.5 1.5-2.4 3.4 1.2.4 3.1-.2 4.4-.4.5-.1.1-2.3 0-3.1l-.2-.2c-.1 0-.2-.2-.3-.4 0-.5.2-1.1.1-1.6-.2-.5-.5-1.1-.7-1.5-.6-.5-1.2-1-2-1.1zm40 0c-1.6.9-1.6 1-4.1 2.5-2.5-.8-2.8 1-2.4 2.1.2.4.5.7.8.8 1-.1 1.9-.3 2.7-.8 1.5-.8 2.3-2 3.4-1.7.6.4.5 1.2.5 1.7.1.1.1.2.2.3-1.4.7-4.5 1.5-2.4 3.4 1.2.4 3.1-.2 4.4-.4.5-.1.1-2.3 0-3.1l-.2-.2c-.1 0-.2-.2-.3-.4 0-.5.2-1.1.1-1.6-.2-.5-.5-1.1-.7-1.5-.6-.5-1.2-1-2-1.1zm40 0c-1.6.9-1.6 1-4.1 2.5-2.5-.8-2.8 1-2.4 2.1.2.4.5.7.8.8 1-.1 1.9-.3 2.7-.8 1.5-.8 2.3-2 3.4-1.7.6.4.5 1.2.5 1.7.1.1.1.2.2.3-1.4.7-4.5 1.5-2.4 3.4 1.2.4 3.1-.2 4.4-.4.5-.1.1-2.3 0-3.1l-.2-.2c-.1 0-.2-.2-.3-.4 0-.5.2-1.1.1-1.6-.2-.5-.5-1.1-.7-1.5-.6-.5-1.2-1-2-1.1zm-52.426.6c-.52.022-1.036.6-1.474 1.1-.7.9-1.3 1.9-2.5 2.1-.1.3-.1.6-.1.8-.1 1.5 1.9.8 3.1 0 .3-.2.6-.4.8-.6.5-.1.8.2 1 .6 0 .2 0 .2-.2.4-.4.7-.2 2.3-1.9 3-.2.6.2.8.4 1.1.6.5 1.5.7 1.8 0 1.6.3 2.3-1.1 2.4-2.5.096-1.052-.251-1.792-.283-1.945.028-.02.055-.035.083-.055-.1-.2-.3-.3-.6-.3-.5-1-1.3-2-1.6-3-.3-.525-.614-.712-.926-.7zm40 0c-.52.022-1.036.6-1.474 1.1-.7.9-1.3 1.9-2.5 2.1-.1.3-.1.6-.1.8-.1 1.5 1.9.8 3.1 0 .3-.2.6-.4.8-.6.5-.1.8.2 1 .6 0 .2 0 .2-.2.4-.4.7-.2 2.3-1.9 3-.2.6.2.8.4 1.1.6.5 1.5.7 1.8 0 1.6.3 2.3-1.1 2.4-2.5.096-1.052-.251-1.792-.283-1.945.028-.02.055-.035.083-.055-.1-.2-.3-.3-.6-.3-.5-1-1.3-2-1.6-3-.3-.525-.614-.712-.926-.7zm40 0c-.52.022-1.036.6-1.474 1.1-.7.9-1.3 1.9-2.5 2.1-.1.3-.1.6-.1.8-.1 1.5 1.9.8 3.1 0 .3-.2.6-.4.8-.6.5-.1.8.2 1 .6 0 .2 0 .2-.2.4-.4.7-.2 2.3-1.9 3-.2.6.2.8.4 1.1.6.5 1.5.7 1.8 0 1.6.3 2.3-1.1 2.4-2.5.096-1.052-.251-1.792-.283-1.945.028-.02.055-.035.083-.055-.1-.2-.3-.3-.6-.3-.5-1-1.3-2-1.6-3-.3-.525-.614-.712-.926-.7zM14.4 76.5c0 .6-3.7 2.1-1.6 3.2.3.1.5 0 .5.3-.1.5.5 1.8.5 2.9 0 .9 1.7-.3 2.6-.4 2.4.1 5-.4 6.4-2.5.2-.8-.1-1.1-.5-1.1-.6 0-1.5.6-2 1.1-.9.9-2.7.8-4.1 0-.9-.8-1.6-1.8-.7-3.1-.1-.4-.7-.2-1.1-.4zm40 0c0 .6-3.7 2.1-1.6 3.2.3.1.5 0 .5.3-.1.5.5 1.8.5 2.9 0 .9 1.7-.3 2.6-.4 2.4.1 5-.4 6.4-2.5.2-.8-.1-1.1-.5-1.1-.6 0-1.5.6-2 1.1-.9.9-2.7.8-4.1 0-.9-.8-1.6-1.8-.7-3.1-.1-.4-.7-.2-1.1-.4zm40 0c0 .6-3.7 2.1-1.6 3.2.3.1.5 0 .5.3-.1.5.5 1.8.5 2.9 0 .9 1.7-.3 2.6-.4 2.4.1 5-.4 6.4-2.5.2-.8-.1-1.1-.5-1.1-.6 0-1.5.6-2 1.1-.9.9-2.7.8-4.1 0-.9-.8-1.6-1.8-.7-3.1-.1-.4-.7-.2-1.1-.4zm-69.6 3.6c-.9 0-2.1 1.9-1.7 2.4.1.1.8.3 1.2.1.3-.2.3-.8.5-.9.4-.2.6-.6.6-1-.2-.4-.4-.6-.6-.6zm40 0c-.9 0-2.1 1.9-1.7 2.4.1.1.8.3 1.2.1.3-.2.3-.8.5-.9.4-.2.6-.6.6-1-.2-.4-.4-.6-.6-.6zm40 0c-.9 0-2.1 1.9-1.7 2.4.1.1.8.3 1.2.1.3-.2.3-.8.5-.9.4-.2.6-.6.6-1-.2-.4-.4-.6-.6-.6zm-75.4.2c-1.1.1-3.7 2-1.9 2.2-.4.5-.8.5-1.3.9-.1.1-.4.9-.4 1-.2-.4-.5-.6-1.1-.7-.4.1-1.3.1-1.6.5-.3.4-.5.9-.3 1.4.3.7.6 1.2 1.7.8 2-.6 2.3-1.2 2.6-2 .4-.3.5-.9.9-1.2.3-.4 1.4-.9 1.7-1.2.7-.4.5-1-.3-1.7zm40 0c-1.1.1-3.7 2-1.9 2.2-.4.5-.8.5-1.3.9-.1.1-.4.9-.4 1-.2-.4-.5-.6-1.1-.7-.4.1-1.3.1-1.6.5-.3.4-.5.9-.3 1.4.3.7.6 1.2 1.7.8 2-.6 2.3-1.2 2.6-2 .4-.3.5-.9.9-1.2.3-.4 1.4-.9 1.7-1.2.7-.4.5-1-.3-1.7zm40 0c-1.1.1-3.7 2-1.9 2.2-.4.5-.8.5-1.3.9-.1.1-.4.9-.4 1-.2-.4-.5-.6-1.1-.7-.4.1-1.3.1-1.6.5-.3.4-.5.9-.3 1.4.3.7.6 1.2 1.7.8 2-.6 2.3-1.2 2.6-2 .4-.3.5-.9.9-1.2.3-.4 1.4-.9 1.7-1.2.7-.4.5-1-.3-1.7zM1.2 81c-.4.1-.9.4-1.2.8v2.8c.1 0 .2.1.4.1.5 1.3 2.9 2.4 2.7.4.8.3 1.3-.9 1.3-1.8l-1 .2c.1.3-.9.7-1.4.7-.5 0-.7-.5-.7-.7 0-.4.4-.9.8-.9.3 0 1.3.3 1.4.5l.9-.1c-.1-.3-.2-.5-.4-.6 0-1.2-2-.9-2.8-1.4zm40 0c-.4.1-.9.4-1.2.8-.4.5-.7 1.1-.7 1.7 0 .5.2.9.7 1.1.1 0 .2.1.4.1.5 1.3 2.9 2.4 2.7.4.8.3 1.3-.9 1.3-1.8l-1 .2c.1.3-.9.7-1.4.7-.5 0-.7-.5-.7-.7 0-.4.4-.9.8-.9.3 0 1.3.3 1.4.5l.9-.1c-.1-.3-.2-.5-.4-.6 0-1.2-2-.9-2.8-1.4zm40 0c-.4.1-.9.4-1.2.8-.4.5-.7 1.1-.7 1.7 0 .5.2.9.7 1.1.1 0 .2.1.4.1.5 1.3 2.9 2.4 2.7.4.8.3 1.3-.9 1.3-1.8l-1 .2c.1.3-.9.7-1.4.7-.5 0-.7-.5-.7-.7 0-.4.4-.9.8-.9.3 0 1.3.3 1.4.5l.9-.1c-.1-.3-.2-.5-.4-.6 0-1.2-2-.9-2.8-1.4zm38.8.8c-.4.5-.7 1.1-.7 1.7 0 .5.2.9.7 1.1v-2.8zm-89 .7c-.7.6-2.4 1.5-2.9 2.4-.6.9-.2 1.2.3 1.4-.1.5 2 2.3 2.4 1.7.7.7 1.3.6 1.8.3 2.1-1-.1-3.5-1.3-1.6-.4-.5-1.4-.5-2-1 .7-.3 2-1.3 2.4-1.9.3-.3-.2-1-.7-1.3zm40 0c-.7.6-2.4 1.5-2.9 2.4-.6.9-.2 1.2.3 1.4-.1.5 2 2.3 2.4 1.7.7.7 1.3.6 1.8.3 2.1-1-.1-3.5-1.3-1.6-.4-.5-1.4-.5-2-1 .7-.3 2-1.3 2.4-1.9.3-.3-.2-1-.7-1.3zm40 0c-.7.6-2.4 1.5-2.9 2.4-.6.9-.2 1.2.3 1.4-.1.5 2 2.3 2.4 1.7.7.7 1.3.6 1.8.3 2.1-1-.1-3.5-1.3-1.6-.4-.5-1.4-.5-2-1 .7-.3 2-1.3 2.4-1.9.3-.3-.2-1-.7-1.3zm-93.4 1.8c-.4.2-.7.6-1.1.9l.7 1.1c1.2-.6 2.5 1.5 1.8 2.8-.2.7 0 1 .3 1.3.4.5 1.2 1 1.7.5.4-.3.6-1.3.4-2 .3-2-.7-4.1-2.7-4.5-.3-.1-.7-.1-1.1-.1zm40 0c-.4.2-.7.6-1.1.9l.7 1.1c1.2-.6 2.5 1.5 1.8 2.8-.2.7 0 1 .3 1.3.4.5 1.2 1 1.7.5.4-.3.6-1.3.4-2 .3-2-.7-4.1-2.7-4.5-.3-.1-.7-.1-1.1-.1zm40 0c-.4.2-.7.6-1.1.9l.7 1.1c1.2-.6 2.5 1.5 1.8 2.8-.2.7 0 1 .3 1.3.4.5 1.2 1 1.7.5.4-.3.6-1.3.4-2 .3-2-.7-4.1-2.7-4.5-.3-.1-.7-.1-1.1-.1zm-89.1.8c0 .6-2.4-.3-2.6.3-.2.8-.5 2.1.6 2.2.6-.2 2.9.6 3.2 1.2.4.8-1.2 1.5-2.4 1-.6.1-1.7-.4-1.6.2 0 .6-.2 1.6.5 2.4 1.5.6 2.2-1.6 3.5-.5 1.7-.2 3.4-2.6 1.7-3.7.6-.5-.9-1.4 0-.9-.7-.8-.1-1.5-.5-1.6-.3-.1-1.4.4-2-.5-.2-.1-.2-.1-.4-.1zm40 0c0 .6-2.4-.3-2.6.3-.2.8-.5 2.1.6 2.2.6-.2 2.9.6 3.2 1.2.4.8-1.2 1.5-2.4 1-.6.1-1.7-.4-1.6.2 0 .6-.2 1.6.5 2.4 1.5.6 2.2-1.6 3.5-.5 1.7-.2 3.4-2.6 1.7-3.7.6-.5-.9-1.4 0-.9-.7-.8-.1-1.5-.5-1.6-.3-.1-1.4.4-2-.5-.2-.1-.2-.1-.4-.1zm40 0c0 .6-2.4-.3-2.6.3-.2.8-.5 2.1.6 2.2.6-.2 2.9.6 3.2 1.2.4.8-1.2 1.5-2.4 1-.6.1-1.7-.4-1.6.2 0 .6-.2 1.6.5 2.4 1.5.6 2.2-1.6 3.5-.5 1.7-.2 3.4-2.6 1.7-3.7.6-.5-.9-1.4 0-.9-.7-.8-.1-1.5-.5-1.6-.3-.1-1.4.4-2-.5-.2-.1-.2-.1-.4-.1zm-72.3.2c-.6.5-1 .1-2 .1-.2 1.2-.4 2.8.1 4.2.5.7.8.6 1.2.5 2.1 0 1.3-2.2 1.3-3.4.1-.2.1-.3.3-.4l-.9-1zm40 0c-.6.5-1 .1-2 .1-.2 1.2-.4 2.8.1 4.2.5.7.8.6 1.2.5 2.1 0 1.3-2.2 1.3-3.4.1-.2.1-.3.3-.4l-.9-1zm40 0c-.6.5-1 .1-2 .1-.2 1.2-.4 2.8.1 4.2.5.7.8.6 1.2.5 2.1 0 1.3-2.2 1.3-3.4.1-.2.1-.3.3-.4l-.9-1zm-57.8.5C34.6 87 34 88.6 34 90.3c.7.2.7 2.8 2.3 1.6.2 0 2.2-1.2 3.1-2.5.2.2.4.5.6.7.3.3.7.6 1 .9.5.7-.3.8-1 1.2-.3.1-.5.3-.6.5-.5-.4-1.3-.7-1.8-.7-.9.3-1.3 1-1 1.5.3.5 1.4 1.6 2.2 1.6.5-.2.7-.9.9-1.3l.3.3c1.2.7 3.1-.4 4-1.3.9-2.2-1-4.4-2.7-5.6-.4-.3-.8-.7-1.3-.6l-1.6-.8zm40 0C74.6 87 74 88.6 74 90.3c.7.2.7 2.8 2.3 1.6.2 0 2.2-1.2 3.1-2.5.2.2.4.5.6.7.3.3.7.6 1 .9.5.7-.3.8-1 1.2-.3.1-.5.3-.6.5-.5-.4-1.3-.7-1.8-.7-.9.3-1.3 1-1 1.5.3.5 1.4 1.6 2.2 1.6.5-.2.7-.9.9-1.3l.3.3c1.2.7 3.1-.4 4-1.3.9-2.2-1-4.4-2.7-5.6-.4-.3-.8-.7-1.3-.6l-1.6-.8zm40 0c-3.8 1.2-4.4 2.8-4.4 4.5.7.2.7 2.8 2.3 1.6.2 0 2.2-1.2 3.1-2.5.2.2.4.5.6.7 1.033-1.392.865-2.522 0-3.5l-1.6-.8zM.183 86.585A.797.797 0 000 86.6v3.5c.3.3.7.6 1 .9.5.7-.3.8-1 1.2v1.9c1.2.7 3.1-.4 4-1.3.9-2.2-1-4.4-2.7-5.6-.35-.262-.7-.601-1.117-.615zm26.617.95c-.242-.01-.5.028-.8.065-.7.1-1.6 0-2 .5-.6.7-.4 1.8-.4 3 1.3.8 3.6-.6 4.4-.8.2.5 1.4 1.9 1.4 1.9-.1-.1 0 .7-.3.9-.4.3-1.3.1-1.5.3-1.1.6-1.8 1.1-1.2 2.5 1.8 0 5.8.5 5-2 0-.8.9-2.8.1-3.2-1-.5-2-2.3-3.5-2.5-.438-.5-.797-.648-1.2-.665zm40 0c-.242-.01-.5.028-.8.065-.7.1-1.6 0-2 .5-.6.7-.4 1.8-.4 3 1.3.8 3.6-.6 4.4-.8.2.5 1.4 1.9 1.4 1.9-.1-.1 0 .7-.3.9-.4.3-1.3.1-1.5.3-1.1.6-1.8 1.1-1.2 2.5 1.8 0 5.8.5 5-2 0-.8.9-2.8.1-3.2-1-.5-2-2.3-3.5-2.5-.438-.5-.797-.648-1.2-.665zm40 0c-.242-.01-.5.028-.8.065-.7.1-1.6 0-2 .5-.6.7-.4 1.8-.4 3 1.3.8 3.6-.6 4.4-.8.2.5 1.4 1.9 1.4 1.9-.1-.1 0 .7-.3.9-.4.3-1.3.1-1.5.3-1.1.6-1.8 1.1-1.2 2.5 1.8 0 5.8.5 5-2 0-.8.9-2.8.1-3.2-1-.5-2-2.3-3.5-2.5-.438-.5-.797-.648-1.2-.665zM117.6 92c-.9.3-1.3 1-1 1.5.3.5 1.4 1.6 2.2 1.6.5-.2.7-.9.9-1.3l.3.3c.841-.668.573-1.29 0-1.9-.3.1-.5.3-.6.5-.5-.4-1.3-.7-1.8-.7zm-84.1.1c-.6 0-.7 1.9-.7 2.5-.1 1.1.5 1 1.4 1.4.4.4 1.6.3 1.8-.4.1-.4-.3-1-1-2.1-.1-.5-.9-1.3-1.5-1.4zm40 0c-.6 0-.7 1.9-.7 2.5-.1 1.1.5 1 1.4 1.4.4.4 1.6.3 1.8-.4.1-.4-.3-1-1-2.1-.1-.5-.9-1.3-1.5-1.4zm40 0c-.6 0-.7 1.9-.7 2.5-.1 1.1.5 1 1.4 1.4.4.4 1.6.3 1.8-.4.1-.4-.3-1-1-2.1-.1-.5-.9-1.3-1.5-1.4zm-96.8.1c-1.5 0-2.9.8-3.3 3.6.1.5.1 2.2 1.7 0 1.5-2 3.4-.6 4.3-.2.2.2.4.3.7.2-.3.3.5.7.5 1 0 .3.8.7.7.9-.3.3-1.3 1.4-2.2 1.8-1.3.5-2.7-.5-2.8-.5-2.8.3.3 2.3.8 2.3 1.4.1 2.4 1.7 4.6-2.4.4-.2.5-.5.5-.7.4 0 .7-.1.8-.2.1-.2-.3-1.5-.4-1.8-.1-.3-.4-1.3-.9-1-.4.4-.8.5-1.3.5.8-.4 1.4-2 .2-2.6-1.2-.8-2.7-.3-3.9-.9zm40 0c-1.5 0-2.9.8-3.3 3.6.1.5.1 2.2 1.7 0 1.5-2 3.4-.6 4.3-.2.2.2.4.3.7.2-.3.3.5.7.5 1 0 .3.8.7.7.9-.3.3-1.3 1.4-2.2 1.8-1.3.5-2.7-.5-2.8-.5-2.8.3.3 2.3.8 2.3 1.4.1 2.4 1.7 4.6-2.4.4-.2.5-.5.5-.7.4 0 .7-.1.8-.2.1-.2-.3-1.5-.4-1.8-.1-.3-.4-1.3-.9-1-.4.4-.8.5-1.3.5.8-.4 1.4-2 .2-2.6-1.2-.8-2.7-.3-3.9-.9zm40 0c-1.5 0-2.9.8-3.3 3.6.1.5.1 2.2 1.7 0 1.5-2 3.4-.6 4.3-.2.2.2.4.3.7.2-.3.3.5.7.5 1 0 .3.8.7.7.9-.3.3-1.3 1.4-2.2 1.8-1.3.5-2.7-.5-2.8-.5-2.8.3.3 2.3.8 2.3 1.4.1 2.4 1.7 4.6-2.4.4-.2.5-.5.5-.7.4 0 .7-.1.8-.2.1-.2-.3-1.5-.4-1.8-.1-.3-.4-1.3-.9-1-.4.4-.8.5-1.3.5.8-.4 1.4-2 .2-2.6-1.2-.8-2.7-.3-3.9-.9zm-72.2.1c-.3 0-.8 0-.9.5-.1.3.2 1 .3 1.2.1.4.5 1.3 1 1.3.2 0 .3-.7.7-.9.9-.5.7-2.1-1.1-2.1zm40 0c-.3 0-.8 0-.9.5-.1.3.2 1 .3 1.2.1.4.5 1.3 1 1.3.2 0 .3-.7.7-.9.9-.5.7-2.1-1.1-2.1zm40 0c-.3 0-.8 0-.9.5-.1.3.2 1 .3 1.2.1.4.5 1.3 1 1.3.2 0 .3-.7.7-.9.9-.5.7-2.1-1.1-2.1zm-92.375.798A.475.475 0 0012 93.1c-.6 0-1.2.6-2.3.9-.3.1-.8-.1-1.1 0-.6.2-.7.8.2 1.4 1.6 1.1 2.3.4 3.3-.4.75-.562.621-1.828.025-1.902zm40 0A.475.475 0 0052 93.1c-.6 0-1.2.6-2.3.9-.3.1-.8-.1-1.1 0-.6.2-.7.8.2 1.4 1.6 1.1 2.3.4 3.3-.4.75-.562.621-1.828.025-1.902zm40 0A.475.475 0 0092 93.1c-.6 0-1.2.6-2.3.9-.3.1-.8-.1-1.1 0-.6.2-.7.8.2 1.4 1.6 1.1 2.3.4 3.3-.4.75-.562.621-1.828.025-1.902zM1.926 95.573C1.061 95.54.262 95.738 0 96.7v.5c.2.6.9.2 1.3.4 1.1.1 3.8-.2 2.5 1.8-.5.3-1.5 1.2-2.3 1.7-.9.6-1.6 1-.6 2.1 1.6.4 3.2-2.3 4.8-2 .9-.9 1.2-2.6 1.6-3.9-.5-1.2-3.1-1.7-5-1.7a6.078 6.078 0 00-.374-.027zm40 0c-.865-.033-1.663.165-1.926 1.127v.5c.2.6.9.2 1.3.4 1.1.1 3.8-.2 2.5 1.8-.5.3-1.5 1.2-2.3 1.7-.9.6-1.6 1-.6 2.1 1.6.4 3.2-2.3 4.8-2 .9-.9 1.2-2.6 1.6-3.9-.5-1.2-3.1-1.7-5-1.7a6.078 6.078 0 00-.374-.027zm40 0c-.865-.033-1.663.165-1.926 1.127v.5c.2.6.9.2 1.3.4 1.1.1 3.8-.2 2.5 1.8-.5.3-1.5 1.2-2.3 1.7-.9.6-1.6 1-.6 2.1 1.6.4 3.2-2.3 4.8-2 .9-.9 1.2-2.6 1.6-3.9-.5-1.2-3.1-1.7-5-1.7a6.078 6.078 0 00-.374-.027zm-64.301.932a.395.395 0 00-.225.095c-.5.1-1.4.2-2.1.4-.6.2-1.2.7-.9 1.2.2.4 1.3-.2 2.2 0 .8 0 1.8.8 2.5 0 .788-1.05-.798-1.794-1.475-1.695zm40 0a.395.395 0 00-.225.095c-.5.1-1.4.2-2.1.4-.6.2-1.2.7-.9 1.2.2.4 1.3-.2 2.2 0 .8 0 1.8.8 2.5 0 .788-1.05-.798-1.794-1.475-1.695zm40 0a.395.395 0 00-.225.095c-.5.1-1.4.2-2.1.4-.6.2-1.2.7-.9 1.2.2.4 1.3-.2 2.2 0 .8 0 1.8.8 2.5 0 .788-1.05-.798-1.794-1.475-1.695zm-59.929.674c-.791.07-2.071.933-1.896 1.72-1.2 1.1-1.3-1.8-3-1.6-.6-.1-.9 2.301-.9 2.801.1 1.1 1.4.4 2.4.9.5.2 1.3.1 1.7-.6.3.9.7.4 1.8.9.4.2 1.3.2 1.8-.1.6-.5-.3-1-.5-1.4-.5-.7-.2-2.3-1.1-2.6a.847.847 0 00-.304-.021zm40 0c-.791.07-2.071.933-1.896 1.72-1.2 1.1-1.3-1.8-3-1.6-.6-.1-.9 2.301-.9 2.801.1 1.1 1.4.4 2.4.9.5.2 1.3.1 1.7-.6.3.9.7.4 1.8.9.4.2 1.3.2 1.8-.1.6-.5-.3-1-.5-1.4-.5-.7-.2-2.3-1.1-2.6a.847.847 0 00-.304-.021zm40 0c-.791.07-2.071.933-1.896 1.72-1.2 1.1-1.3-1.8-3-1.6-.6-.1-.9 2.301-.9 2.801.1 1.1 1.4.4 2.4.9.5.2 1.3.1 1.7-.6.3.9.7.4 1.8.9.4.2 1.3.2 1.8-.1.6-.5-.3-1-.5-1.4-.5-.7-.2-2.3-1.1-2.6a.847.847 0 00-.304-.021zm-91.18.288c-.41.014-.816.083-1.216.233-1 .4-1 1.4-1 1.4-.2.1-.5.3-.5.5.3.7.4 1.8.9 2.1.3.2.7.1 1.1-.1.2 0-.2-.7.1-1.2.1-.2.9-.4 1-.5.7-.7 1.3-.6 1.2.9.1.2.1.6.2 1l1.3.3c.2-.7.2-.9.4-1.7-.1-.7.2-1.3.2-2.3-1.2-.225-2.456-.675-3.684-.633zm40 0c-.41.014-.816.083-1.216.233-1 .4-1 1.4-1 1.4-.2.1-.5.3-.5.5.3.7.4 1.8.9 2.1.3.2.7.1 1.1-.1.2 0-.2-.7.1-1.2.1-.2.9-.4 1-.5.7-.7 1.3-.6 1.2.9.1.2.1.6.2 1l1.3.3c.2-.7.2-.9.4-1.7-.1-.7.2-1.3.2-2.3-1.2-.225-2.456-.675-3.684-.633zm40 0c-.41.014-.816.083-1.216.233-1 .4-1 1.4-1 1.4-.2.1-.5.3-.5.5.3.7.4 1.8.9 2.1.3.2.7.1 1.1-.1.2 0-.2-.7.1-1.2.1-.2.9-.4 1-.5.7-.7 1.3-.6 1.2.9.1.2.1.6.2 1l1.3.3c.2-.7.2-.9.4-1.7-.1-.7.2-1.3.2-2.3-1.2-.225-2.456-.675-3.684-.633zM11.8 97.6c-1.5-.1-1.9 1.6-2.6 2.6-.9 3.4 1.8.9 2.6 1l1-.9c-.5-.8-1-1.6-1-2.7zm40 0c-1.5-.1-1.9 1.6-2.6 2.6-.9 3.4 1.8.9 2.6 1l1-.9c-.5-.8-1-1.6-1-2.7zm40 0c-1.5-.1-1.9 1.6-2.6 2.6-.9 3.4 1.8.9 2.6 1l1-.9c-.5-.8-1-1.6-1-2.7zM0 98.3v1.4c.1.2.2.4.3.5.4.3.8.3 1.1-.7.1-.5-.2-1.2-.8-1.2H0zm40 0c-.1.1-.2.2-.2.7 0 .2.1.5.2.7.1.2.2.4.3.5.4.3.8.3 1.1-.7.1-.5-.2-1.2-.8-1.2H40zm40 0c-.1.1-.2.2-.2.7 0 .2.1.5.2.7.1.2.2.4.3.5.4.3.8.3 1.1-.7.1-.5-.2-1.2-.8-1.2H80zm40 0c-.1.1-.2.2-.2.7 0 .2.1.5.2.7.073-.48.64-1.046 0-1.4zm-107.1 2l-.9.9c-.4 1.5-.7 2-1.2 2.3-1.8 2.2-3.5 2-4.4 0-4.8 1.2.7 5 2.6 3.7 1.6-1.1 3.5-2.1 4.6-4.2.5-1-.1-1.8-.7-2.7zm40 0l-.9.9c-.4 1.5-.7 2-1.2 2.3-1.8 2.2-3.5 2-4.4 0-4.8 1.2.7 5 2.6 3.7 1.6-1.1 3.5-2.1 4.6-4.2.5-1-.1-1.8-.7-2.7zm40 0l-.9.9c-.4 1.5-.7 2-1.2 2.3-1.8 2.2-3.5 2-4.4 0-4.8 1.2.7 5 2.6 3.7 1.6-1.1 3.5-2.1 4.6-4.2.5-1-.1-1.8-.7-2.7zm-60 1.6c-1.7.1-1.5 3.3.2 1.9.5-.1 2.3-.4 2.2-1.1-.5-.6-1.6-.7-2.4-.8zm40 0c-1.7.1-1.5 3.3.2 1.9.5-.1 2.3-.4 2.2-1.1-.5-.6-1.6-.7-2.4-.8zm40 0c-1.7.1-1.5 3.3.2 1.9.5-.1 2.3-.4 2.2-1.1-.5-.6-1.6-.7-2.4-.8zm-90.6.4c-.4 0-1.4.6-1.5 1.1-.1.4.9 1 1 1l.1.2c.2-.6.8-.5 1.1-.1.3.2.7.6.5 1-.1.5-.2 1.2-.8 1.2-.4.2-.9.1-1.2-.2-.6-.2-.4-.8-.1-1.1.1-.6-.8-.3-1.1-.8-.4.6-1 1.6-1.3 2.2.3.6 1.3.4 1.8.8.4.4.9 0 1.3 0 .6-.1 1.3-.3 1.9-.6.3-.3 0-.8.3-1.2 0-.4.5-1-.1-1.2-.4-.3-.4-1-.8-1.4-.3-.5-.7-.9-1.1-.9zm6.1 0c0 .5-.1 1-.2 1.3-.3.5-1.1.1-1.5-.2-.2.2-.8.5-.8.9 0 .3.5.7.6 1.1.1 1 .3 1.8.9 1.4.5-.8 1 .1 1.4-1.1.2-.4.5-2.5.7-3 0-.1.1-.1.1-.2l-1.2-.2zm33.9 0c-.4 0-1.4.6-1.5 1.1-.1.4.9 1 1 1l.1.2c.2-.6.8-.5 1.1-.1.3.2.7.6.5 1-.1.5-.2 1.2-.8 1.2-.4.2-.9.1-1.2-.2-.6-.2-.4-.8-.1-1.1.1-.6-.8-.3-1.1-.8-.4.6-1 1.6-1.3 2.2.3.6 1.3.4 1.8.8.4.4.9 0 1.3 0 .6-.1 1.3-.3 1.9-.6.3-.3 0-.8.3-1.2 0-.4.5-1-.1-1.2-.4-.3-.4-1-.8-1.4-.3-.5-.7-.9-1.1-.9zm6.1 0c0 .5-.1 1-.2 1.3-.3.5-1.1.1-1.5-.2-.2.2-.8.5-.8.9 0 .3.5.7.6 1.1.1 1 .3 1.8.9 1.4.5-.8 1 .1 1.4-1.1.2-.4.5-2.5.7-3 0-.1.1-.1.1-.2l-1.2-.2zm33.9 0c-.4 0-1.4.6-1.5 1.1-.1.4.9 1 1 1l.1.2c.2-.6.8-.5 1.1-.1.3.2.7.6.5 1-.1.5-.2 1.2-.8 1.2-.4.2-.9.1-1.2-.2-.6-.2-.4-.8-.1-1.1.1-.6-.8-.3-1.1-.8-.4.6-1 1.6-1.3 2.2.3.6 1.3.4 1.8.8.4.4.9 0 1.3 0 .6-.1 1.3-.3 1.9-.6.3-.3 0-.8.3-1.2 0-.4.5-1-.1-1.2-.4-.3-.4-1-.8-1.4-.3-.5-.7-.9-1.1-.9zm6.1 0c0 .5-.1 1-.2 1.3-.3.5-1.1.1-1.5-.2-.2.2-.8.5-.8.9 0 .3.5.7.6 1.1.1 1 .3 1.8.9 1.4.5-.8 1 .1 1.4-1.1.2-.4.5-2.5.7-3 0-.1.1-.1.1-.2l-1.2-.2zm-71 .4c-.3.2-.7.3-1.2.6-.6.4.1.7-.1 1.2-.3.5-1.6 1.3-1 1.7 1.4-1.1 5.8-1.9 3.1-2.9l-.8-.6zm40 0c-.3.2-.7.3-1.2.6-.6.4.1.7-.1 1.2-.3.5-1.6 1.3-1 1.7 1.4-1.1 5.8-1.9 3.1-2.9l-.8-.6zm40 0c-.3.2-.7.3-1.2.6-.6.4.1.7-.1 1.2-.3.5-1.6 1.3-1 1.7 1.4-1.1 5.8-1.9 3.1-2.9l-.8-.6zm-99.588.313c-.387-.013-.712.137-.612.687.1.5.7 1 1.6.3.2-.2.1-.5 0-.7-.15-.1-.6-.275-.988-.287zm40 0c-.387-.013-.712.137-.612.687.1.5.7 1 1.6.3.2-.2.1-.5 0-.7-.15-.1-.6-.275-.987-.287zm40 0c-.387-.013-.712.137-.612.687.1.5.7 1 1.6.3.2-.2.1-.5 0-.7-.15-.1-.6-.275-.987-.287zm-82.337.445c-.225-.014-.45.042-.675.042 0 1.6-2.9 3.2-3.5 3.5-.5 2.2 2.5.7 3.4-.1 1.3 0 3.6.1 2.8-1.5-.1-.3-1-.3-1.4-.7-.3-.3.1-.9-.4-1.2a.879.879 0 00-.225-.042zm40 0c-.225-.014-.45.042-.675.042 0 1.6-2.9 3.2-3.5 3.5-.5 2.2 2.5.7 3.4-.1 1.3 0 3.6.1 2.8-1.5-.1-.3-1-.3-1.4-.7-.3-.3.1-.9-.4-1.2a.879.879 0 00-.225-.042zm40 0c-.225-.014-.45.042-.675.042 0 1.6-2.9 3.2-3.5 3.5-.5 2.2 2.5.7 3.4-.1 1.3 0 3.6.1 2.8-1.5-.1-.3-1-.3-1.4-.7-.3-.3.1-.9-.4-1.2a.879.879 0 00-.225-.042zm-93.703 1.563c-.422-.015-1.097.379-1.772.379v1.5c1 .4 1.5.5 2 .1.5-.5.4-1.3.1-1.8-.075-.125-.187-.175-.328-.18zm40 0c-.422-.015-1.097.379-1.772.379-.2 0-.4 0-.5.3-.3-.1-.6-.2-.9-.2-.8 1.3-2 .4-2.8 1.5-1.4.5-1.1 1.5-.4 2.2-.7 1.8 2 1 1.5 2.7.7.3 1.9.2 2.7-.1l.4.2c1 .5 2.7-.8 2.4-1.4-.1-.3-.4-.9-.7-.6-.5.4-1.1.1-1.7-.1-.1 0-.1-.1-.2-.2-.5-.3-.5.2-.9.2-.6-.7-2.1-1.1-.7-1.9.3-.2 1.1-.7 1.6-1.2l.2.1c1 .4 1.5.5 2 .1.5-.5.4-1.3.1-1.8-.075-.125-.187-.175-.328-.18zm40 0c-.422-.015-1.097.379-1.772.379-.2 0-.4 0-.5.3-.3-.1-.6-.2-.9-.2-.8 1.3-2 .4-2.8 1.5-1.4.5-1.1 1.5-.4 2.2-.7 1.8 2 1 1.5 2.7.7.3 1.9.2 2.7-.1l.4.2c1 .5 2.7-.8 2.4-1.4-.1-.3-.4-.9-.7-.6-.5.4-1.1.1-1.7-.1-.1 0-.1-.1-.2-.2-.5-.3-.5.2-.9.2-.6-.7-2.1-1.1-.7-1.9.3-.2 1.1-.7 1.6-1.2l.2.1c1 .4 1.5.5 2 .1.5-.5.4-1.3.1-1.8-.075-.125-.187-.175-.328-.18zM31.4 105.4c-.8.1-2.5 2.9-.1 2.3.6-.2 1.1-.5 1.5-.9.6-.7-.4-1.4-1.4-1.4zm40 0c-.8.1-2.5 2.9-.1 2.3.6-.2 1.1-.5 1.5-.9.6-.7-.4-1.4-1.4-1.4zm40 0c-.8.1-2.5 2.9-.1 2.3.6-.2 1.1-.5 1.5-.9.6-.7-.4-1.4-1.4-1.4zm8.6 0c-.2 0-.4 0-.5.3-.3-.1-.6-.2-.9-.2-.8 1.3-2 .4-2.8 1.5-1.4.5-1.1 1.5-.4 2.2-.7 1.8 2 1 1.5 2.7.7.3 1.9.2 2.7-.1l.4.2c.194-.583.643-1.014 0-2.1-.1 0-.1-.1-.2-.2-.5-.3-.5.2-.9.2-.6-.7-2.1-1.1-.7-1.9.3-.2 1.1-.7 1.6-1.2l.2.1c.6-.828.528-1.312 0-1.5zM4.2 106.5c-2.1 1.1.9 2.6.6.4-.1-.2-.4-.4-.6-.4zm40 0c-2.1 1.1.9 2.6.6.4-.1-.2-.4-.4-.6-.4zm40 0c-2.1 1.1.9 2.6.6.4-.1-.2-.4-.4-.6-.4zM25 107.6c-.3 0-.5 0-.7.2-.7.8.7 3.1-1 2.9-.3.1-.7.4-1 .5v.9c2.3.1 4.5-.2 3.4-3.2-.2-.5-.4-1-.7-1.3zm40 0c-.3 0-.5 0-.7.2-.7.8.7 3.1-1 2.9-.3.1-.7.4-1 .5v.9c2.3.1 4.5-.2 3.4-3.2-.2-.5-.4-1-.7-1.3zm40 0c-.3 0-.5 0-.7.2-.7.8.7 3.1-1 2.9-.3.1-.7.4-1 .5v.9c2.3.1 4.5-.2 3.4-3.2-.2-.5-.4-1-.7-1.3zm-89.7.6c-2.2.4-.1 5-2.3 4.4-.4-1.4-1.7-5-3.5-3.1-.2 1.9 1.4 4.7 2.2 6.3 1.3.3 3.3-2 4.7-2.6.3-1.5 1.4-5-1.1-5zm40 0c-2.2.4-.1 5-2.3 4.4-.4-1.4-1.7-5-3.5-3.1-.2 1.9 1.4 4.7 2.2 6.3 1.3.3 3.3-2 4.7-2.6.3-1.5 1.4-5-1.1-5zm40 0c-2.2.4-.1 5-2.3 4.4-.4-1.4-1.7-5-3.5-3.1-.2 1.9 1.4 4.7 2.2 6.3 1.3.3 3.3-2 4.7-2.6.3-1.5 1.4-5-1.1-5zm-90 .2c-2 .3 1.4 3.1.2 3.3 0 .1-.9 1.4-1.2 1.3-.4-.1-.3-1.7-.4-1.7-1.4 1-2 3-2.7 4.2 1 1.3 1.8-.7 2.5 0 1.7-.3 2.4-2.1 4.2-1.6 2.7-2.1-1-4.1-2.6-5.5zm26.4 0c-.8.1-1.3.6-1.9 1-1 .5-.9.9-1.6 1.5.4 2.5 3.1-1.3 4.1 0 .1 1-.4 3.4 1.4 2.5-1 .9-4.7.6-3.5 2.4 2.1.5 6.3-.7 4.9-3.6-.7-1.7-1.3-3.8-3.4-3.8zm13.6 0c-2 .3 1.4 3.1.2 3.3 0 .1-.9 1.4-1.2 1.3-.4-.1-.3-1.7-.4-1.7-1.4 1-2 3-2.7 4.2 1 1.3 1.8-.7 2.5 0 1.7-.3 2.4-2.1 4.2-1.6 2.7-2.1-1-4.1-2.6-5.5zm26.4 0c-.8.1-1.3.6-1.9 1-1 .5-.9.9-1.6 1.5.4 2.5 3.1-1.3 4.1 0 .1 1-.4 3.4 1.4 2.5-1 .9-4.7.6-3.5 2.4 2.1.5 6.3-.7 4.9-3.6-.7-1.7-1.3-3.8-3.4-3.8zm13.6 0c-2 .3 1.4 3.1.2 3.3 0 .1-.9 1.4-1.2 1.3-.4-.1-.3-1.7-.4-1.7-1.4 1-2 3-2.7 4.2 1 1.3 1.8-.7 2.5 0 1.7-.3 2.4-2.1 4.2-1.6 2.7-2.1-1-4.1-2.6-5.5zm26.4 0c-.8.1-1.3.6-1.9 1-1 .5-.9.9-1.6 1.5.4 2.5 3.1-1.3 4.1 0 .1 1-.4 3.4 1.4 2.5-1 .9-4.7.6-3.5 2.4 2.1.5 6.3-.7 4.9-3.6-.7-1.7-1.3-3.8-3.4-3.8zm-91.9.5c-1.6.1-2.2 2.6-2 3.4 1.1 1.5 2.8.2 4.2-.2v-.9c-.1 0-.2-.1-.3 0-.9.1-1.9-.6-1.1-1.8-.2-.2-.3-.5-.8-.5zm40 0c-1.6.1-2.2 2.6-2 3.4 1.1 1.5 2.8.2 4.2-.2v-.9c-.1 0-.2-.1-.3 0-.9.1-1.9-.6-1.1-1.8-.2-.2-.3-.5-.8-.5zm40 0c-1.6.1-2.2 2.6-2 3.4 1.1 1.5 2.8.2 4.2-.2v-.9c-.1 0-.2-.1-.3 0-.9.1-1.9-.6-1.1-1.8-.2-.2-.3-.5-.8-.5zm-99.8 1v2.1c1 .5 2.7-.8 2.4-1.4-.1-.3-.4-.9-.7-.6-.5.4-1.1.1-1.7-.1zm29.25 2.275c-.15.019-.3.15-.45.225-1.9.9.9 3 1.3.9.1-.5-.3-1.1-.7-1.1a.256.256 0 00-.15-.025zm40 0c-.15.019-.3.15-.45.225-1.9.9.9 3 1.3.9.1-.5-.3-1.1-.7-1.1a.256.256 0 00-.15-.025zm40 0c-.15.019-.3.15-.45.225-1.9.9.9 3 1.3.9.1-.5-.3-1.1-.7-1.1a.256.256 0 00-.15-.025zm-83.45.625c-1.7.1-3.8.3-2.2 3.2 1.1 1.2 1.8 2.8 3.3 3.6 1.2.3 4.4-1.3 2.3-2.4-1.4.9-3.3.4-3.3-1.3-1-1 2.2-1.6.6-3-.2-.1-.5-.1-.7-.1zm40 0c-1.7.1-3.8.3-2.2 3.2 1.1 1.2 1.8 2.8 3.3 3.6 1.2.3 4.4-1.3 2.3-2.4-1.4.9-3.3.4-3.3-1.3-1-1 2.2-1.6.6-3-.2-.1-.5-.1-.7-.1zm40 0c-1.7.1-3.8.3-2.2 3.2 1.1 1.2 1.8 2.8 3.3 3.6 1.2.3 4.4-1.3 2.3-2.4-1.4.9-3.3.4-3.3-1.3-1-1 2.2-1.6.6-3-.2-.1-.5-.1-.7-.1zm-68.7.8c-.9 0-.8 2.2.6 2.7.1 1.8 3.1 2.1 1.9.1-1.1-2-2-2.8-2.5-2.8zm40 0c-.9 0-.8 2.2.6 2.7.1 1.8 3.1 2.1 1.9.1-1.1-2-2-2.8-2.5-2.8zm40 0c-.9 0-.8 2.2.6 2.7.1 1.8 3.1 2.1 1.9.1-1.1-2-2-2.8-2.5-2.8zm-97.2.3c-1.1.2-2.4.4-3 1.4-.1 1 1.1.7 1.7.3.5-.4 1-.5.9.2 0 .7 1.3 1.4.2 1.8-.8 0-1.8 1.2-.5 1.3 1.1-.2 2.2-.3 3.3-.7.4 0 .1-.4.4-.7-.7-.6-.9-1.6-1.6-2.2-.5-.3-.8-1.4-1.4-1.4zm40 0c-1.1.2-2.4.4-3 1.4-.1 1 1.1.7 1.7.3.5-.4 1-.5.9.2 0 .7 1.3 1.4.2 1.8-.8 0-1.8 1.2-.5 1.3 1.1-.2 2.2-.3 3.3-.7.4 0 .1-.4.4-.7-.7-.6-.9-1.6-1.6-2.2-.5-.3-.8-1.4-1.4-1.4zm40 0c-1.1.2-2.4.4-3 1.4-.1 1 1.1.7 1.7.3.5-.4 1-.5.9.2 0 .7 1.3 1.4.2 1.8-.8 0-1.8 1.2-.5 1.3 1.1-.2 2.2-.3 3.3-.7.4 0 .1-.4.4-.7-.7-.6-.9-1.6-1.6-2.2-.5-.3-.8-1.4-1.4-1.4zm-92.3 1.5c-1.6.9-1.6 1-4.1 2.5-2.5-.8-2.8 1-2.4 2.1 1.121.59 2.325.114 3.5 0 1.5-.8 2.3-2 3.4-1.7.6.4.5 1.2.5 1.7.98.392 1.482.186 2 0-.1 0-.2-.2-.3-.4 0-.5.2-1.1.1-1.6-.2-.5-.5-1.1-.7-1.5-.6-.5-1.2-1-2-1.1zm40 0c-1.6.9-1.6 1-4.1 2.5-2.5-.8-2.8 1-2.4 2.1 1.121.59 2.325.114 3.5 0 1.5-.8 2.3-2 3.4-1.7.6.4.5 1.2.5 1.7.98.392 1.482.186 2 0-.1 0-.2-.2-.3-.4 0-.5.2-1.1.1-1.6-.2-.5-.5-1.1-.7-1.5-.6-.5-1.2-1-2-1.1zm40 0c-1.6.9-1.6 1-4.1 2.5-2.5-.8-2.8 1-2.4 2.1 1.121.59 2.325.114 3.5 0 1.5-.8 2.3-2 3.4-1.7.6.4.5 1.2.5 1.7.98.392 1.482.186 2 0-.1 0-.2-.2-.3-.4 0-.5.2-1.1.1-1.6-.2-.5-.5-1.1-.7-1.5-.6-.5-1.2-1-2-1.1zm-52.426.6c-.52.022-1.036.6-1.474 1.1-.7.9-1.3 1.9-2.5 2.1-.1.3-.1.6-.1.8.606.641 1.935.198 3.1 0 .3-.2.6-.4.8-.6.5-.1.8.2 1 .6.487.979 1.341.672 2.3 0-.1-.2-.3-.3-.6-.3-.5-1-1.3-2-1.6-3-.3-.525-.614-.712-.926-.7zm40 0c-.52.022-1.036.6-1.474 1.1-.7.9-1.3 1.9-2.5 2.1-.1.3-.1.6-.1.8.606.641 1.935.198 3.1 0 .3-.2.6-.4.8-.6.5-.1.8.2 1 .6.487.979 1.341.672 2.3 0-.1-.2-.3-.3-.6-.3-.5-1-1.3-2-1.6-3-.3-.525-.614-.712-.926-.7zm40 0c-.52.022-1.036.6-1.474 1.1-.7.9-1.3 1.9-2.5 2.1-.1.3-.1.6-.1.8.606.641 1.935.198 3.1 0 .3-.2.6-.4.8-.6.5-.1.8.2 1 .6.487.979 1.341.672 2.3 0-.1-.2-.3-.3-.6-.3-.5-1-1.3-2-1.6-3-.3-.525-.614-.712-.926-.7zm-100.774.5c0 .6-3.7 2.1-1.6 3.2.3.1.5 0 .5.3 1.62.616 2.265.312 2.9 0-.9-.8-1.6-1.8-.7-3.1-.1-.4-.7-.2-1.1-.4zm40 0c0 .6-3.7 2.1-1.6 3.2.3.1.5 0 .5.3 1.62.616 2.265.312 2.9 0-.9-.8-1.6-1.8-.7-3.1-.1-.4-.7-.2-1.1-.4zm40 0c0 .6-3.7 2.1-1.6 3.2.3.1.5 0 .5.3 1.62.616 2.265.312 2.9 0-.9-.8-1.6-1.8-.7-3.1-.1-.4-.7-.2-1.1-.4zm-72.1 2.4c-.6 0-1.5.6-2 1.1.574.616 1.452.51 2.5 0 .2-.8-.1-1.1-.5-1.1zm40 0c-.6 0-1.5.6-2 1.1.574.616 1.452.51 2.5 0 .2-.8-.1-1.1-.5-1.1zm40 0c-.6 0-1.5.6-2 1.1.574.616 1.452.51 2.5 0 .2-.8-.1-1.1-.5-1.1z"/>
</svg>