<?xml version="1.0" encoding="UTF-8" standalone="no"?>
<!-- Created with Inkscape (http://www.inkscape.org/) -->

<svg width="50.000099" height="14.96016" viewBox="0 0 50.000095 14.96016" version="1.1" id="svg1" xmlns="http://www.w3.org/2000/svg" xmlns:svg="http://www.w3.org/2000/svg">
  <defs id="defs1" />
  <g id="layer1" transform="translate(-13.0618,2.53086)">
    <g id="g180">
      <path id="rect212" style="fill:#3b0516;stroke-width:2;stroke-linecap:round;stroke-linejoin:round;paint-order:markers stroke fill" d="M 53.0618,12.4293 V 2.42929 H 63.0619 V 12.4293 Z" />
      <path id="rect213" style="fill:#610d26;stroke-width:2;stroke-linecap:round;stroke-linejoin:round;paint-order:markers stroke fill" d="M 43.0618,12.4293 V 2.42929 H 53.0619 V 12.4293 Z" />
      <path id="rect214" style="fill:#a51d32;stroke-width:2;stroke-linecap:round;stroke-linejoin:round;paint-order:markers stroke fill" d="M 33.0618,12.4293 V 2.42929 H 43.0619 V 12.4293 Z" />
      <path id="rect215" style="fill:#c82531;stroke-width:2;stroke-linecap:round;stroke-linejoin:round;paint-order:markers stroke fill" d="M 23.0618,12.4293 V 2.42929 H 33.0619 V 12.4293 Z" />
      <path id="rect82" style="fill:#f03e3e;stroke-width:2;stroke-linecap:round;stroke-linejoin:round;paint-order:markers stroke fill" d="M 13.0618,12.4293 V 2.42929 H 23.0619 V 12.4293 Z" />
      <path d="m 29.8214,0.46914 c -0.1466,0 -0.3186,-0.016 -0.516,-0.048 v -2.904 c 0.1974,-0.032 0.3694,-0.048 0.516,-0.048 0.256,0 0.4627,0.04667 0.62,0.14 0.16,0.09333 0.2774,0.24133 0.352,0.444 0.0747,0.20267 0.112,0.468 0.112,0.796 v 0.24 c 0,0.325333 -0.0373,0.590667 -0.112,0.796 -0.0746,0.2026667 -0.192,0.350667 -0.352,0.444 -0.1573,0.093333 -0.364,0.14 -0.62,0.14 z m -0.256,-0.336 c 0.0454,0.016 0.0934,0.028 0.144,0.036 0.0507,0.008 0.104,0.012 0.16,0.012 0.168,0 0.304,-0.037333 0.408,-0.112 0.1067,-0.07733333 0.184,-0.197333 0.232,-0.36 0.048,-0.162667 0.072,-0.376 0.072,-0.64 v -0.2 c 0,-0.264 -0.024,-0.47733 -0.072,-0.64 -0.048,-0.16267 -0.1253,-0.28133 -0.232,-0.356 -0.104,-0.07733 -0.24,-0.116 -0.408,-0.116 -0.056,0 -0.1093,0.004 -0.16,0.012 -0.0506,0.008 -0.0986,0.02 -0.144,0.036 l 0.06,-0.108 v 2.544 z m 1.576,0.296 0.724,-2.92 h 0.392 l 0.724,2.92 h -0.328 l -0.584,-2.544 h -0.016 l -0.584,2.544 z m 0.368,-0.8 v -0.28 h 1.104 v 0.28 z m 1.832,-2.112 c 0.1174,-0.01867 0.2187,-0.03067 0.304,-0.036 0.088,-0.008 0.172,-0.012 0.252,-0.012 0.2427,0 0.4374,0.03067 0.584,0.092 0.1467,0.05867 0.2534,0.15467 0.32,0.288 0.0667,0.13067 0.1,0.304 0.1,0.52 0,0.216 -0.0333,0.39067 -0.1,0.524 -0.0666,0.130667 -0.1733,0.226667 -0.32,0.288 -0.1466,0.058667 -0.3413,0.088 -0.584,0.088 -0.072,0 -0.1426,-0.002667 -0.212,-0.008 -0.0666,-0.005333 -0.1373,-0.013333 -0.212,-0.024 l 0.104,-0.28 c 0.0694,0.01067 0.132,0.01867 0.188,0.024 0.056,0.00533 0.1094,0.008 0.16,0.008 0.16,0 0.2867,-0.02 0.38,-0.06 0.096,-0.04 0.1654,-0.10533 0.208,-0.196 0.0427,-0.09067 0.064,-0.21067 0.064,-0.36 0,-0.152 -0.0213,-0.272 -0.064,-0.36 -0.0426,-0.09067 -0.112,-0.156 -0.208,-0.196 -0.0933,-0.04 -0.22,-0.06 -0.38,-0.06 -0.0533,0 -0.1093,0.00267 -0.168,0.008 -0.056,0.00267 -0.12,0.01067 -0.192,0.024 l 0.096,-0.112 v 2.752 h -0.32 z m 1.224,2.912 -1,-1.312 h 0.368 l 1.008,1.312 z m 0.796,0 v -2.92 h 0.32 v 1.264 h 0.016 l 0.9,-1.264 h 0.364 l -0.98,1.376 0.98,1.544 h -0.36 l -0.904,-1.432 h -0.016 v 1.432 z m 3.98,-2.912 c 0.1174,-0.01867 0.2187,-0.03067 0.304,-0.036 0.088,-0.008 0.172,-0.012 0.252,-0.012 0.2427,0 0.4374,0.03067 0.584,0.092 0.1467,0.05867 0.2534,0.15467 0.32,0.288 0.0667,0.13067 0.1,0.304 0.1,0.52 0,0.216 -0.0333,0.39067 -0.1,0.524 -0.0666,0.130667 -0.1733,0.226667 -0.32,0.288 -0.1466,0.058667 -0.3413,0.088 -0.584,0.088 -0.072,0 -0.1426,-0.002667 -0.212,-0.008 -0.0666,-0.005333 -0.1373,-0.013333 -0.212,-0.024 l 0.104,-0.28 c 0.0694,0.01067 0.132,0.01867 0.188,0.024 0.056,0.00533 0.1094,0.008 0.16,0.008 0.16,0 0.2867,-0.02 0.38,-0.06 0.096,-0.04 0.1654,-0.10533 0.208,-0.196 0.0427,-0.09067 0.064,-0.21067 0.064,-0.36 0,-0.152 -0.0213,-0.272 -0.064,-0.36 -0.0426,-0.09067 -0.112,-0.156 -0.208,-0.196 -0.0933,-0.04 -0.22,-0.06 -0.38,-0.06 -0.0533,0 -0.1093,0.00267 -0.168,0.008 -0.056,0.00267 -0.12,0.01067 -0.192,0.024 l 0.096,-0.112 v 2.752 h -0.32 z m 1.224,2.912 -1,-1.312 h 0.368 l 1.008,1.312 z m 0.82,0 v -2.92 h 1.4 v 0.28 h -1.076 v 0.956 h 1.036 v 0.28 h -1.036 v 1.124 h 1.076 v 0.28 z m 2.436,0.04 c -0.1466,0 -0.3186,-0.016 -0.516,-0.048 v -2.904 c 0.1974,-0.032 0.3694,-0.048 0.516,-0.048 0.256,0 0.4627,0.04667 0.62,0.14 0.16,0.09333 0.2774,0.24133 0.352,0.444 0.0747,0.20267 0.112,0.468 0.112,0.796 v 0.24 c 0,0.325333 -0.0373,0.590667 -0.112,0.796 -0.0746,0.2026667 -0.192,0.350667 -0.352,0.444 -0.1573,0.093333 -0.364,0.14 -0.62,0.14 z m -0.256,-0.336 c 0.0454,0.016 0.0934,0.028 0.144,0.036 0.0507,0.008 0.104,0.012 0.16,0.012 0.168,0 0.304,-0.037333 0.408,-0.112 0.1067,-0.07733333 0.184,-0.197333 0.232,-0.36 0.048,-0.162667 0.072,-0.376 0.072,-0.64 v -0.2 c 0,-0.264 -0.024,-0.47733 -0.072,-0.64 -0.048,-0.16267 -0.1253,-0.28133 -0.232,-0.356 -0.104,-0.07733 -0.24,-0.116 -0.408,-0.116 -0.056,0 -0.1093,0.004 -0.16,0.012 -0.0506,0.008 -0.0986,0.02 -0.144,0.036 l 0.06,-0.108 v 2.544 z m 2.392,0.336 c -0.104,0 -0.208,-0.009333 -0.312,-0.028 -0.1013,-0.016 -0.2026,-0.041333 -0.304,-0.076 v -0.308 c 0.0987,0.04 0.196,0.070667 0.292,0.092 0.096,0.021333 0.1947,0.032 0.296,0.032 0.1814,0 0.3214,-0.037333 0.42,-0.112 0.1014,-0.07466667 0.152,-0.193333 0.152,-0.356 0,-0.085333 -0.0173,-0.161333 -0.052,-0.228 -0.032,-0.069333 -0.088,-0.136 -0.168,-0.2 -0.0773,-0.064 -0.1866,-0.134667 -0.328,-0.212 -0.1733,-0.09867 -0.3106,-0.19067 -0.412,-0.276 -0.0986,-0.08533 -0.1693,-0.176 -0.212,-0.272 -0.04,-0.09867 -0.06,-0.21067 -0.06,-0.336 0,-0.248 0.072,-0.42933 0.216,-0.544 0.1467,-0.11733 0.376,-0.176 0.688,-0.176 0.0934,0 0.1867,0.00533 0.28,0.016 0.096,0.01067 0.196,0.028 0.3,0.052 v 0.852 h -0.32 v -0.728 l 0.128,0.144 c -0.072,-0.016 -0.14,-0.028 -0.204,-0.036 -0.0613,-0.008 -0.1253,-0.012 -0.192,-0.012 -0.192,0 -0.3346,0.036 -0.428,0.108 -0.0933,0.06933 -0.14,0.17867 -0.14,0.328 0,0.08267 0.016,0.15867 0.048,0.228 0.0347,0.06667 0.092,0.13333 0.172,0.2 0.0827,0.064 0.1934,0.13467 0.332,0.212 0.1707,0.096 0.3054,0.188 0.404,0.276 0.0987,0.085333 0.1694,0.177333 0.212,0.276 0.0427,0.096 0.064,0.208 0.064,0.336 0,0.2506667 -0.0733,0.438667 -0.22,0.564 -0.144,0.122667 -0.3613,0.184 -0.652,0.184 z" id="text167" style="font-size:4px;line-height:1;font-family:'M PLUS 1 Code';-inkscape-font-specification:'M PLUS 1 Code';text-align:center;word-spacing:0px;text-anchor:middle;fill:#f03e3e;stroke-width:0.755906;stroke-linecap:round;stroke-linejoin:round;stroke-dasharray:2.85697, 8.57092;paint-order:markers stroke fill" aria-label="DARK REDS" />
    </g>
  </g>
</svg>
