<?xml version="1.0" encoding="UTF-8" standalone="no"?>
<!-- Created with Inkscape (http://www.inkscape.org/) -->

<svg width="50" height="14.9598" viewBox="0 0 49.999996 14.9598" version="1.1" id="svg1" xmlns="http://www.w3.org/2000/svg" xmlns:svg="http://www.w3.org/2000/svg">
  <defs id="defs1" />
  <g id="layer1" transform="translate(-13.0609,-97.4692)">
    <g id="g191">
      <path id="rect229-1" style="fill:#1b2b68;stroke-width:2;stroke-linecap:round;stroke-linejoin:round" d="m 43.0609,112.429 v -10 h 10 v 10 z" />
      <path id="rect230-1" style="fill:#2a4383;stroke-width:2;stroke-linecap:round;stroke-linejoin:round" d="m 33.0609,112.429 v -10 h 10 v 10 z" />
      <path id="rect231-4" style="fill:#27558e;stroke-width:2;stroke-linecap:round;stroke-linejoin:round" d="m 23.0609,112.429 v -10 h 10 v 10 z" />
      <path id="rect333" style="fill:#001258;stroke-width:2;stroke-linecap:round;stroke-linejoin:round" d="m 53.0609,112.429 v -10 h 10 v 10 z" />
      <path id="rect62" style="fill:#356aa2;stroke-width:2;stroke-linecap:round;stroke-linejoin:round" d="m 13.0609,112.429 v -10 h 10 v 10 z" />
      <path d="m 28.8214,100.469 c -0.1466,0 -0.3186,-0.016 -0.516,-0.048 v -2.9038 c 0.1974,-0.032 0.3694,-0.048 0.516,-0.048 0.256,0 0.4627,0.0467 0.62,0.14 0.16,0.0933 0.2774,0.2413 0.352,0.444 0.0747,0.2027 0.112,0.468 0.112,0.796 v 0.24 c 0,0.3253 -0.0373,0.5907 -0.112,0.796 -0.0746,0.2028 -0.192,0.3508 -0.352,0.4438 -0.1573,0.094 -0.364,0.14 -0.62,0.14 z m -0.256,-0.336 c 0.0454,0.016 0.0934,0.028 0.144,0.036 0.0507,0.008 0.104,0.012 0.16,0.012 0.168,0 0.304,-0.037 0.408,-0.112 0.1067,-0.0771 0.184,-0.1971 0.232,-0.3598 0.048,-0.1627 0.072,-0.376 0.072,-0.64 v -0.2 c 0,-0.264 -0.024,-0.4773 -0.072,-0.64 -0.048,-0.1627 -0.1253,-0.2813 -0.232,-0.356 -0.104,-0.0773 -0.24,-0.116 -0.408,-0.116 -0.056,0 -0.1093,0.004 -0.16,0.012 -0.0506,0.008 -0.0986,0.02 -0.144,0.036 l 0.06,-0.108 v 2.5438 z m 1.576,0.296 0.724,-2.9198 h 0.392 l 0.724,2.9198 h -0.328 l -0.584,-2.5438 h -0.016 l -0.584,2.5438 z m 0.368,-0.7998 v -0.28 h 1.104 v 0.28 z m 1.832,-2.112 c 0.1174,-0.0187 0.2187,-0.0307 0.304,-0.036 0.088,-0.008 0.172,-0.012 0.252,-0.012 0.2427,0 0.4374,0.0307 0.584,0.092 0.1467,0.0587 0.2534,0.1547 0.32,0.288 0.0667,0.1307 0.1,0.304 0.1,0.52 0,0.216 -0.0333,0.3907 -0.1,0.524 -0.0666,0.1307 -0.1733,0.2267 -0.32,0.288 -0.1466,0.0587 -0.3413,0.088 -0.584,0.088 -0.072,0 -0.1426,-0.0027 -0.212,-0.008 -0.0666,-0.0053 -0.1373,-0.0133 -0.212,-0.024 l 0.104,-0.28 c 0.0694,0.0107 0.132,0.0187 0.188,0.024 0.056,0.0053 0.1094,0.008 0.16,0.008 0.16,0 0.2867,-0.02 0.38,-0.06 0.096,-0.04 0.1654,-0.1053 0.208,-0.196 0.0427,-0.0907 0.064,-0.2107 0.064,-0.36 0,-0.152 -0.0213,-0.272 -0.064,-0.36 -0.0426,-0.0907 -0.112,-0.156 -0.208,-0.196 -0.0933,-0.04 -0.22,-0.06 -0.38,-0.06 -0.0533,0 -0.1093,0.0027 -0.168,0.008 -0.056,0.0027 -0.12,0.0107 -0.192,0.024 l 0.096,-0.112 v 2.7518 h -0.32 z m 1.224,2.9118 -1,-1.3118 h 0.368 l 1.008,1.3118 z m 0.796,0 v -2.9198 h 0.32 v 1.264 h 0.016 l 0.9,-1.264 h 0.364 l -0.98,1.376 0.98,1.5438 h -0.36 l -0.904,-1.4318 h -0.016 v 1.4318 z m 4.548,0.04 c -0.0666,0 -0.152,-0.004 -0.256,-0.012 -0.1013,-0.005 -0.212,-0.017 -0.332,-0.036 v -2.9038 c 0.1227,-0.0187 0.2334,-0.0307 0.332,-0.036 0.1014,-0.008 0.1867,-0.012 0.256,-0.012 0.3147,0 0.5494,0.0613 0.704,0.184 0.1547,0.1227 0.232,0.308 0.232,0.556 0,0.1627 -0.0333,0.2987 -0.1,0.408 -0.0666,0.1093 -0.1653,0.1893 -0.296,0.24 v 0.016 c 0.16,0.0453 0.2787,0.1267 0.356,0.244 0.0774,0.1173 0.116,0.2747 0.116,0.472 0,0.2907 -0.0853,0.5108 -0.256,0.6598 -0.168,0.147 -0.42,0.22 -0.756,0.22 z m -0.348,-0.34 c 0.0694,0.019 0.1347,0.032 0.196,0.04 0.0614,0.008 0.124,0.012 0.188,0.012 0.2214,0 0.384,-0.048 0.488,-0.144 0.1067,-0.0985 0.16,-0.2478 0.16,-0.4478 0,-0.2 -0.0533,-0.344 -0.16,-0.432 -0.104,-0.0907 -0.2706,-0.136 -0.5,-0.136 h -0.452 v -0.272 h 0.42 c 0.2107,0 0.3667,-0.0413 0.468,-0.124 0.1014,-0.0853 0.152,-0.2147 0.152,-0.388 0,-0.1653 -0.0466,-0.2867 -0.14,-0.364 -0.0933,-0.0773 -0.2386,-0.116 -0.436,-0.116 -0.064,0 -0.128,0.004 -0.192,0.012 -0.064,0.008 -0.128,0.0213 -0.192,0.04 l 0.08,-0.128 v 2.5758 z m 1.82,0.3 v -2.9198 h 0.328 v 2.6318 h 1.152 v 0.288 z m 2.68,0.04 c -0.2666,0 -0.464,-0.065 -0.592,-0.196 -0.1253,-0.133 -0.188,-0.3411 -0.188,-0.6238 v -2.14 h 0.32 v 2.108 c 0,0.2 0.036,0.344 0.108,0.4318 0.072,0.088 0.1894,0.132 0.352,0.132 0.1654,0 0.2827,-0.044 0.352,-0.132 0.072,-0.0878 0.108,-0.2318 0.108,-0.4318 v -2.108 h 0.32 v 2.14 c 0,0.2827 -0.0626,0.4908 -0.188,0.6238 -0.1253,0.131 -0.3226,0.196 -0.592,0.196 z m 1.324,-0.04 v -2.9198 h 1.4 v 0.28 h -1.076 v 0.956 h 1.036 v 0.28 h -1.036 v 1.1238 h 1.076 v 0.28 z m 2.572,0.04 c -0.104,0 -0.208,-0.009 -0.312,-0.028 -0.1013,-0.016 -0.2026,-0.041 -0.304,-0.076 v -0.308 c 0.0987,0.04 0.196,0.071 0.292,0.092 0.096,0.022 0.1947,0.032 0.296,0.032 0.1814,0 0.3214,-0.037 0.42,-0.112 0.1014,-0.0745 0.152,-0.1931 0.152,-0.3558 0,-0.0853 -0.0173,-0.1613 -0.052,-0.228 -0.032,-0.0693 -0.088,-0.136 -0.168,-0.2 -0.0773,-0.064 -0.1866,-0.1347 -0.328,-0.212 -0.1733,-0.0987 -0.3106,-0.1907 -0.412,-0.276 -0.0986,-0.0853 -0.1693,-0.176 -0.212,-0.272 -0.04,-0.0987 -0.06,-0.2107 -0.06,-0.336 0,-0.248 0.072,-0.4293 0.216,-0.544 0.1467,-0.1173 0.376,-0.176 0.688,-0.176 0.0934,0 0.1867,0.0053 0.28,0.016 0.096,0.0107 0.196,0.028 0.3,0.052 v 0.852 h -0.32 v -0.728 l 0.128,0.144 c -0.072,-0.016 -0.14,-0.028 -0.204,-0.036 -0.0613,-0.008 -0.1253,-0.012 -0.192,-0.012 -0.192,0 -0.3346,0.036 -0.428,0.108 -0.0933,0.0693 -0.14,0.1787 -0.14,0.328 0,0.0827 0.016,0.1587 0.048,0.228 0.0347,0.0667 0.092,0.1333 0.172,0.2 0.0827,0.064 0.1934,0.1347 0.332,0.212 0.1707,0.096 0.3054,0.188 0.404,0.276 0.0987,0.0853 0.1694,0.1773 0.212,0.276 0.0427,0.096 0.064,0.208 0.064,0.336 0,0.2507 -0.0733,0.4388 -0.22,0.5638 -0.144,0.123 -0.3613,0.184 -0.652,0.184 z" id="text172" style="font-size:4px;line-height:1;font-family:'M PLUS 1 Code';-inkscape-font-specification:'M PLUS 1 Code';text-align:center;word-spacing:0px;text-anchor:middle;fill:#356aa2;stroke-width:0.755906;stroke-linecap:round;stroke-linejoin:round;stroke-dasharray:2.85697, 8.57092;paint-order:markers stroke fill" aria-label="DARK BLUES" />
    </g>
  </g>
</svg>
