<?xml version="1.0" encoding="UTF-8" standalone="no"?>
<!-- Created with Inkscape (http://www.inkscape.org/) -->

<svg width="49.999802" height="14.96" viewBox="0 0 49.999798 14.96" version="1.1" id="svg1" xmlns="http://www.w3.org/2000/svg" xmlns:svg="http://www.w3.org/2000/svg">
  <defs id="defs1" />
  <g id="layer1" transform="translate(-13.0611,-157.469)">
    <g id="g196">
      <path id="rect247-0" style="fill:#382e31;stroke-width:2;stroke-linecap:round;stroke-linejoin:round" d="m 43.0609,172.429 v -10 h 10 v 10 z" />
      <path id="rect248-1" style="fill:#524346;stroke-width:2;stroke-linecap:round;stroke-linejoin:round" d="m 33.0609,172.429 v -10 h 10 v 10 z" />
      <path id="rect249-3" style="fill:#695b59;stroke-width:2;stroke-linecap:round;stroke-linejoin:round" d="m 23.0609,172.429 v -10 h 10 v 10 z" />
      <path id="rect331" style="fill:#201a20;stroke-width:2;stroke-linecap:round;stroke-linejoin:round" d="m 53.0609,172.429 v -10 h 10 v 10 z" />
      <path id="rect79" style="fill:#7f766f;stroke-width:2;stroke-linecap:round;stroke-linejoin:round" d="m 23.0611,172.429 v -10 h -10 v 10 z" />
      <path d="m 25.8214,160.469 c -0.1466,0 -0.3186,-0.016 -0.516,-0.048 v -2.904 c 0.1974,-0.032 0.3694,-0.048 0.516,-0.048 0.256,0 0.4627,0.047 0.62,0.14 0.16,0.093 0.2774,0.241 0.352,0.444 0.0747,0.203 0.112,0.468 0.112,0.796 v 0.24 c 0,0.325 -0.0373,0.591 -0.112,0.796 -0.0746,0.203 -0.192,0.351 -0.352,0.444 -0.1573,0.093 -0.364,0.14 -0.62,0.14 z m -0.256,-0.336 c 0.0454,0.016 0.0934,0.028 0.144,0.036 0.0507,0.008 0.104,0.012 0.16,0.012 0.168,0 0.304,-0.037 0.408,-0.112 0.1067,-0.077 0.184,-0.197 0.232,-0.36 0.048,-0.163 0.072,-0.376 0.072,-0.64 v -0.2 c 0,-0.264 -0.024,-0.477 -0.072,-0.64 -0.048,-0.163 -0.1253,-0.281 -0.232,-0.356 -0.104,-0.077 -0.24,-0.116 -0.408,-0.116 -0.056,0 -0.1093,0.004 -0.16,0.012 -0.0506,0.008 -0.0986,0.02 -0.144,0.036 l 0.06,-0.108 v 2.544 z m 1.576,0.296 0.724,-2.92 h 0.392 l 0.724,2.92 h -0.328 l -0.584,-2.544 h -0.016 l -0.584,2.544 z m 0.368,-0.8 v -0.28 h 1.104 v 0.28 z m 1.832,-2.112 c 0.1174,-0.019 0.2187,-0.031 0.304,-0.036 0.088,-0.008 0.172,-0.012 0.252,-0.012 0.2427,0 0.4374,0.031 0.584,0.092 0.1467,0.059 0.2534,0.155 0.32,0.288 0.0667,0.131 0.1,0.304 0.1,0.52 0,0.216 -0.0333,0.391 -0.1,0.524 -0.0666,0.131 -0.1733,0.227 -0.32,0.288 -0.1466,0.059 -0.3413,0.088 -0.584,0.088 -0.072,0 -0.1426,-0.003 -0.212,-0.008 -0.0666,-0.005 -0.1373,-0.013 -0.212,-0.024 l 0.104,-0.28 c 0.0694,0.011 0.132,0.019 0.188,0.024 0.056,0.005 0.1094,0.008 0.16,0.008 0.16,0 0.2867,-0.02 0.38,-0.06 0.096,-0.04 0.1654,-0.105 0.208,-0.196 0.0427,-0.091 0.064,-0.211 0.064,-0.36 0,-0.152 -0.0213,-0.272 -0.064,-0.36 -0.0426,-0.091 -0.112,-0.156 -0.208,-0.196 -0.0933,-0.04 -0.22,-0.06 -0.38,-0.06 -0.0533,0 -0.1093,0.003 -0.168,0.008 -0.056,0.003 -0.12,0.011 -0.192,0.024 l 0.096,-0.112 v 2.752 h -0.32 z m 1.224,2.912 -1,-1.312 h 0.368 l 1.008,1.312 z m 0.796,0 v -2.92 h 0.32 v 1.264 h 0.016 l 0.9,-1.264 h 0.364 l -0.98,1.376 0.98,1.544 h -0.36 l -0.904,-1.432 h -0.016 v 1.432 z m 3.92,0 v -2.92 h 0.52 l 0.704,2.52 h 0.016 v -2.52 h 0.32 v 2.92 h -0.52 l -0.704,-2.52 h -0.016 v 2.52 z m 2.104,0 v -2.92 h 1.4 v 0.28 h -1.076 v 0.956 h 1.036 v 0.28 h -1.036 v 1.124 h 1.076 v 0.28 z m 2.676,0.04 c -0.2666,0 -0.464,-0.065 -0.592,-0.196 -0.1253,-0.133 -0.188,-0.341 -0.188,-0.624 v -2.14 h 0.32 v 2.108 c 0,0.2 0.036,0.344 0.108,0.432 0.072,0.088 0.1894,0.132 0.352,0.132 0.1654,0 0.2827,-0.044 0.352,-0.132 0.072,-0.088 0.108,-0.232 0.108,-0.432 v -2.108 h 0.32 v 2.14 c 0,0.283 -0.0626,0.491 -0.188,0.624 -0.1253,0.131 -0.3226,0.196 -0.592,0.196 z m 1.836,-0.04 v -2.632 h -0.676 v -0.288 h 1.68 v 0.288 h -0.676 v 2.632 z m 1.444,-2.912 c 0.1174,-0.019 0.2187,-0.031 0.304,-0.036 0.088,-0.008 0.172,-0.012 0.252,-0.012 0.2427,0 0.4374,0.031 0.584,0.092 0.1467,0.059 0.2534,0.155 0.32,0.288 0.0667,0.131 0.1,0.304 0.1,0.52 0,0.216 -0.0333,0.391 -0.1,0.524 -0.0666,0.131 -0.1733,0.227 -0.32,0.288 -0.1466,0.059 -0.3413,0.088 -0.584,0.088 -0.072,0 -0.1426,-0.003 -0.212,-0.008 -0.0666,-0.005 -0.1373,-0.013 -0.212,-0.024 l 0.104,-0.28 c 0.0694,0.011 0.132,0.019 0.188,0.024 0.056,0.005 0.1094,0.008 0.16,0.008 0.16,0 0.2867,-0.02 0.38,-0.06 0.096,-0.04 0.1654,-0.105 0.208,-0.196 0.0427,-0.091 0.064,-0.211 0.064,-0.36 0,-0.152 -0.0213,-0.272 -0.064,-0.36 -0.0426,-0.091 -0.112,-0.156 -0.208,-0.196 -0.0933,-0.04 -0.22,-0.06 -0.38,-0.06 -0.0533,0 -0.1093,0.003 -0.168,0.008 -0.056,0.003 -0.12,0.011 -0.192,0.024 l 0.096,-0.112 v 2.752 h -0.32 z m 1.224,2.912 -1,-1.312 h 0.368 l 1.008,1.312 z m 0.576,0 0.724,-2.92 h 0.392 l 0.724,2.92 h -0.328 l -0.584,-2.544 h -0.016 l -0.584,2.544 z m 0.368,-0.8 v -0.28 h 1.104 v 0.28 z m 1.872,0.8 v -2.92 h 0.328 v 2.632 h 1.152 v 0.288 z m 2.576,0.04 c -0.104,0 -0.208,-0.009 -0.312,-0.028 -0.1013,-0.016 -0.2026,-0.041 -0.304,-0.076 v -0.308 c 0.0987,0.04 0.196,0.071 0.292,0.092 0.096,0.021 0.1947,0.032 0.296,0.032 0.1814,0 0.3214,-0.037 0.42,-0.112 0.1014,-0.075 0.152,-0.193 0.152,-0.356 0,-0.085 -0.0173,-0.161 -0.052,-0.228 -0.032,-0.069 -0.088,-0.136 -0.168,-0.2 -0.0773,-0.064 -0.1866,-0.135 -0.328,-0.212 -0.1733,-0.099 -0.3106,-0.191 -0.412,-0.276 -0.0986,-0.085 -0.1693,-0.176 -0.212,-0.272 -0.04,-0.099 -0.06,-0.211 -0.06,-0.336 0,-0.248 0.072,-0.429 0.216,-0.544 0.1467,-0.117 0.376,-0.176 0.688,-0.176 0.0934,0 0.1867,0.005 0.28,0.016 0.096,0.011 0.196,0.028 0.3,0.052 v 0.852 h -0.32 v -0.728 l 0.128,0.144 c -0.072,-0.016 -0.14,-0.028 -0.204,-0.036 -0.0613,-0.008 -0.1253,-0.012 -0.192,-0.012 -0.192,0 -0.3346,0.036 -0.428,0.108 -0.0933,0.069 -0.14,0.179 -0.14,0.328 0,0.083 0.016,0.159 0.048,0.228 0.0347,0.067 0.092,0.133 0.172,0.2 0.0827,0.064 0.1934,0.135 0.332,0.212 0.1707,0.096 0.3054,0.188 0.404,0.276 0.0987,0.085 0.1694,0.177 0.212,0.276 0.0427,0.096 0.064,0.208 0.064,0.336 0,0.251 -0.0733,0.439 -0.22,0.564 -0.144,0.123 -0.3613,0.184 -0.652,0.184 z" id="text175" style="font-size:4px;line-height:1;font-family:'M PLUS 1 Code';-inkscape-font-specification:'M PLUS 1 Code';text-align:center;word-spacing:0px;text-anchor:middle;fill:#7f766f;stroke-width:0.755906;stroke-linecap:round;stroke-linejoin:round;stroke-dasharray:2.85697, 8.57092;paint-order:markers stroke fill" aria-label="DARK NEUTRALS" />
    </g>
  </g>
</svg>
