<?xml version="1.0" encoding="UTF-8" standalone="no"?>
<!-- Created with Inkscape (http://www.inkscape.org/) -->

<svg width="50" height="14.95984" viewBox="0 0 49.999996 14.95984" version="1.1" id="svg1" xmlns="http://www.w3.org/2000/svg" xmlns:svg="http://www.w3.org/2000/svg">
  <defs id="defs1" />
  <g id="layer1" transform="translate(-13.0609,-117.46916)">
    <g id="g192">
      <path id="rect235-0" style="fill:#301b80;stroke-width:2;stroke-linecap:round;stroke-linejoin:round" d="m 43.0609,132.429 v -10 h 10 v 10 z" />
      <path id="rect236-1" style="fill:#502ca6;stroke-width:2;stroke-linecap:round;stroke-linejoin:round" d="m 33.0609,132.429 v -10 h 10 v 10 z" />
      <path id="rect237-28" style="fill:#6035c3;stroke-width:2;stroke-linecap:round;stroke-linejoin:round" d="m 23.0609,132.429 v -10 h 10 v 10 z" />
      <path id="rect334" style="fill:#1c0f4e;stroke-width:2;stroke-linecap:round;stroke-linejoin:round" d="m 53.0609,132.429 v -10 h 10 v 10 z" />
      <path id="rect72" style="fill:#7952bf;stroke-width:2;stroke-linecap:round;stroke-linejoin:round" d="m 13.0609,132.429 v -10 h 10 v 10 z" />
      <path id="text201" style="font-size:4px;line-height:1;font-family:'M PLUS 1 Code';-inkscape-font-specification:'M PLUS 1 Code';text-align:center;word-spacing:0px;text-anchor:middle;fill:#7952bf;stroke-width:0.755906;stroke-linecap:round;stroke-linejoin:round;stroke-dasharray:2.85697, 8.57092;paint-order:markers stroke fill" transform="translate(3.061416,110.42916)" d="m 23.760004,10.04 q -0.22,0 -0.516,-0.048 V 7.088 q 0.296,-0.048 0.516,-0.048 0.384,0 0.62,0.14 0.24,0.14 0.352,0.444 0.112,0.304 0.112,0.796 v 0.24 q 0,0.488 -0.112,0.796 -0.112,0.304 -0.352,0.444 -0.236,0.14 -0.62,0.14 z m -0.256,-0.336 q 0.068,0.024 0.144,0.036 0.076,0.012 0.16,0.012 0.252,0 0.408,-0.112 0.16,-0.116 0.232,-0.36 0.072,-0.244 0.072,-0.64 v -0.2 q 0,-0.396 -0.072,-0.64 -0.072,-0.244 -0.232,-0.356 -0.156,-0.116 -0.408,-0.116 -0.084,0 -0.16,0.012 -0.076,0.012 -0.144,0.036 l 0.06,-0.108 v 2.544 z m 1.576,0.296 0.724,-2.92 h 0.392 l 0.724,2.92 h -0.328 l -0.584,-2.544 h -0.016 l -0.584,2.544 z m 0.368,-0.8 V 8.92 h 1.104 V 9.2 Z m 1.832,-2.112 q 0.176,-0.028 0.304,-0.036 0.132,-0.012 0.252,-0.012 0.364,0 0.584,0.092 0.22,0.088 0.32,0.288 0.1,0.196 0.1,0.52 0,0.324 -0.1,0.524 -0.1,0.196 -0.32,0.288 -0.22,0.088 -0.584,0.088 -0.108,0 -0.212,-0.008 -0.1,-0.008 -0.212,-0.024 l 0.104,-0.28 q 0.104,0.016 0.188,0.024 0.084,0.008 0.16,0.008 0.24,0 0.38,-0.06 0.144,-0.06 0.208,-0.196 0.064,-0.136 0.064,-0.36 0,-0.228 -0.064,-0.36 -0.064,-0.136 -0.208,-0.196 -0.14,-0.06 -0.38,-0.06 -0.08,0 -0.168,0.008 -0.084,0.004 -0.192,0.024 l 0.096,-0.112 V 10 h -0.32 z m 1.224,2.912 -1,-1.312 h 0.368 l 1.008,1.312 z m 0.796,0 V 7.08 h 0.32 v 1.264 h 0.016 l 0.9,-1.264 h 0.364 l -0.98,1.376 0.98,1.544 h -0.36 l -0.904,-1.432 h -0.016 V 10 Z m 4.504,0 -0.724,-2.92 h 0.328 l 0.584,2.504 h 0.016 l 0.584,-2.504 h 0.328 l -0.724,2.92 z m 1.496,0 V 9.72 h 0.536 V 7.36 h -0.536 V 7.08 h 1.4 v 0.28 h -0.536 v 2.36 h 0.536 V 10 Z m 2.7,0.04 q -0.308,0 -0.492,-0.132 -0.184,-0.136 -0.268,-0.44 -0.08,-0.304 -0.08,-0.808 V 8.42 q 0,-0.508 0.08,-0.808 0.084,-0.304 0.268,-0.436 0.184,-0.136 0.492,-0.136 0.308,0 0.492,0.136 0.184,0.132 0.264,0.436 0.084,0.3 0.084,0.808 v 0.24 q 0,0.504 -0.084,0.808 -0.08,0.304 -0.264,0.44 -0.184,0.132 -0.492,0.132 z m 0,-0.288 q 0.2,0 0.308,-0.096 0.112,-0.1 0.156,-0.34 0.048,-0.244 0.048,-0.676 v -0.2 q 0,-0.432 -0.048,-0.672 -0.044,-0.244 -0.156,-0.34 -0.108,-0.1 -0.308,-0.1 -0.196,0 -0.308,0.1 -0.112,0.096 -0.16,0.34 -0.044,0.24 -0.044,0.672 v 0.2 q 0,0.432 0.044,0.676 0.048,0.24 0.16,0.34 0.112,0.096 0.308,0.096 z m 1.32,0.248 V 7.08 h 0.328 v 2.632 h 1.152 V 10 Z m 2.004,0 V 7.08 h 1.4 v 0.28 h -1.076 v 0.956 h 1.036 v 0.28 h -1.036 V 9.72 h 1.076 V 10 Z m 2.512,0 V 7.368 h -0.676 V 7.08 h 1.68 v 0.288 h -0.676 V 10 Z m 2.06,0.04 q -0.156,0 -0.312,-0.028 -0.152,-0.024 -0.304,-0.076 V 9.628 q 0.148,0.06 0.292,0.092 0.144,0.032 0.296,0.032 0.272,0 0.42,-0.112 0.152,-0.112 0.152,-0.356 0,-0.128 -0.052,-0.228 -0.048,-0.104 -0.168,-0.2 -0.116,-0.096 -0.328,-0.212 -0.26,-0.148 -0.412,-0.276 -0.148,-0.128 -0.212,-0.272 -0.06,-0.148 -0.06,-0.336 0,-0.372 0.216,-0.544 0.22,-0.176 0.688,-0.176 0.14,0 0.28,0.016 0.144,0.016 0.3,0.052 V 7.96 h -0.32 V 7.232 l 0.128,0.144 q -0.108,-0.024 -0.204,-0.036 -0.092,-0.012 -0.192,-0.012 -0.288,0 -0.428,0.108 -0.14,0.104 -0.14,0.328 0,0.124 0.048,0.228 0.052,0.1 0.172,0.2 0.124,0.096 0.332,0.212 0.256,0.144 0.404,0.276 0.148,0.128 0.212,0.276 0.064,0.144 0.064,0.336 0,0.376 -0.22,0.564 -0.216,0.184 -0.652,0.184 z" />
    </g>
  </g>
</svg>
