<?xml version="1.0" encoding="UTF-8" standalone="no"?>
<!-- Created with Inkscape (http://www.inkscape.org/) -->

<svg width="50.000099" height="14.9601" viewBox="0 0 50.000095 14.9601" version="1.1" id="svg1" xmlns="http://www.w3.org/2000/svg" xmlns:svg="http://www.w3.org/2000/svg">
  <defs id="defs1" />
  <g id="layer1" transform="translate(-13.0618,-17.4692)">
    <g id="g183">
      <path id="rect256" style="fill:#671700;stroke-width:2;stroke-linecap:round;stroke-linejoin:round;paint-order:markers stroke fill" d="m 53.0618,32.4293 v -10 h 10.0001 v 10 z" />
      <path id="rect257" style="fill:#832608;stroke-width:2;stroke-linecap:round;stroke-linejoin:round;paint-order:markers stroke fill" d="m 43.0618,32.4293 v -10 h 10.0001 v 10 z" />
      <path id="rect258" style="fill:#b53c0c;stroke-width:2;stroke-linecap:round;stroke-linejoin:round;paint-order:markers stroke fill" d="m 33.0618,32.4293 v -10 h 10.0001 v 10 z" />
      <path id="rect261" style="fill:#e45c1e;stroke-width:2;stroke-linecap:round;stroke-linejoin:round;paint-order:markers stroke fill" d="m 23.0618,32.4293 v -10 h 10.0001 v 10 z" />
      <path id="rect81" style="fill:#f76707;stroke-width:2;stroke-linecap:round;stroke-linejoin:round;paint-order:markers stroke fill" d="m 13.0618,32.4293 v -10 h 10.0001 v 10 z" />
      <path d="m 26.8214,20.4692 c -0.1466,0 -0.3186,-0.016 -0.516,-0.048 v -2.904 c 0.1974,-0.032 0.3694,-0.048 0.516,-0.048 0.256,0 0.4627,0.0467 0.62,0.14 0.16,0.0933 0.2774,0.2413 0.352,0.444 0.0747,0.2027 0.112,0.468 0.112,0.796 v 0.24 c 0,0.3253 -0.0373,0.5907 -0.112,0.796 -0.0746,0.2027 -0.192,0.3507 -0.352,0.444 -0.1573,0.0933 -0.364,0.14 -0.62,0.14 z m -0.256,-0.336 c 0.0454,0.016 0.0934,0.028 0.144,0.036 0.0507,0.008 0.104,0.012 0.16,0.012 0.168,0 0.304,-0.0373 0.408,-0.112 0.1067,-0.0773 0.184,-0.1973 0.232,-0.36 0.048,-0.1627 0.072,-0.376 0.072,-0.64 v -0.2 c 0,-0.264 -0.024,-0.4773 -0.072,-0.64 -0.048,-0.1627 -0.1253,-0.2813 -0.232,-0.356 -0.104,-0.0773 -0.24,-0.116 -0.408,-0.116 -0.056,0 -0.1093,0.004 -0.16,0.012 -0.0506,0.008 -0.0986,0.02 -0.144,0.036 l 0.06,-0.108 v 2.544 z m 1.576,0.296 0.724,-2.92 h 0.392 l 0.724,2.92 h -0.328 l -0.584,-2.544 h -0.016 l -0.584,2.544 z m 0.368,-0.8 v -0.28 h 1.104 v 0.28 z m 1.832,-2.112 c 0.1174,-0.0187 0.2187,-0.0307 0.304,-0.036 0.088,-0.008 0.172,-0.012 0.252,-0.012 0.2427,0 0.4374,0.0307 0.584,0.092 0.1467,0.0587 0.2534,0.1547 0.32,0.288 0.0667,0.1307 0.1,0.304 0.1,0.52 0,0.216 -0.0333,0.3907 -0.1,0.524 -0.0666,0.1307 -0.1733,0.2267 -0.32,0.288 -0.1466,0.0587 -0.3413,0.088 -0.584,0.088 -0.072,0 -0.1426,-0.0027 -0.212,-0.008 -0.0666,-0.0053 -0.1373,-0.0133 -0.212,-0.024 l 0.104,-0.28 c 0.0694,0.0107 0.132,0.0187 0.188,0.024 0.056,0.0053 0.1094,0.008 0.16,0.008 0.16,0 0.2867,-0.02 0.38,-0.06 0.096,-0.04 0.1654,-0.1053 0.208,-0.196 0.0427,-0.0907 0.064,-0.2107 0.064,-0.36 0,-0.152 -0.0213,-0.272 -0.064,-0.36 -0.0426,-0.0907 -0.112,-0.156 -0.208,-0.196 -0.0933,-0.04 -0.22,-0.06 -0.38,-0.06 -0.0533,0 -0.1093,0.0027 -0.168,0.008 -0.056,0.0027 -0.12,0.0107 -0.192,0.024 l 0.096,-0.112 v 2.752 h -0.32 z m 1.224,2.912 -1,-1.312 h 0.368 l 1.008,1.312 z m 0.796,0 v -2.92 h 0.32 v 1.264 h 0.016 l 0.9,-1.264 h 0.364 l -0.98,1.376 0.98,1.544 h -0.36 l -0.904,-1.432 h -0.016 v 1.432 z m 4.7,0.04 c -0.2053,0 -0.3693,-0.044 -0.492,-0.132 -0.1226,-0.0907 -0.212,-0.2373 -0.268,-0.44 -0.0533,-0.2027 -0.08,-0.472 -0.08,-0.808 v -0.24 c 0,-0.3387 0.0267,-0.608 0.08,-0.808 0.056,-0.2027 0.1454,-0.348 0.268,-0.436 0.1227,-0.0907 0.2867,-0.136 0.492,-0.136 0.2054,0 0.3694,0.0453 0.492,0.136 0.1227,0.088 0.2107,0.2333 0.264,0.436 0.056,0.2 0.084,0.4693 0.084,0.808 v 0.24 c 0,0.336 -0.028,0.6053 -0.084,0.808 -0.0533,0.2027 -0.1413,0.3493 -0.264,0.44 -0.1226,0.088 -0.2866,0.132 -0.492,0.132 z m 0,-0.288 c 0.1334,0 0.236,-0.032 0.308,-0.096 0.0747,-0.0667 0.1267,-0.18 0.156,-0.34 0.032,-0.1627 0.048,-0.388 0.048,-0.676 v -0.2 c 0,-0.288 -0.016,-0.512 -0.048,-0.672 -0.0293,-0.1627 -0.0813,-0.276 -0.156,-0.34 -0.072,-0.0667 -0.1746,-0.1 -0.308,-0.1 -0.1306,0 -0.2333,0.0333 -0.308,0.1 -0.0746,0.064 -0.128,0.1773 -0.16,0.34 -0.0293,0.16 -0.044,0.384 -0.044,0.672 v 0.2 c 0,0.288 0.0147,0.5133 0.044,0.676 0.032,0.16 0.0854,0.2733 0.16,0.34 0.0747,0.064 0.1774,0.096 0.308,0.096 z m 1.28,-2.664 c 0.1174,-0.0187 0.2187,-0.0307 0.304,-0.036 0.088,-0.008 0.172,-0.012 0.252,-0.012 0.2427,0 0.4374,0.0307 0.584,0.092 0.1467,0.0587 0.2534,0.1547 0.32,0.288 0.0667,0.1307 0.1,0.304 0.1,0.52 0,0.216 -0.0333,0.3907 -0.1,0.524 -0.0666,0.1307 -0.1733,0.2267 -0.32,0.288 -0.1466,0.0587 -0.3413,0.088 -0.584,0.088 -0.072,0 -0.1426,-0.0027 -0.212,-0.008 -0.0666,-0.0053 -0.1373,-0.0133 -0.212,-0.024 l 0.104,-0.28 c 0.0694,0.0107 0.132,0.0187 0.188,0.024 0.056,0.0053 0.1094,0.008 0.16,0.008 0.16,0 0.2867,-0.02 0.38,-0.06 0.096,-0.04 0.1654,-0.1053 0.208,-0.196 0.0427,-0.0907 0.064,-0.2107 0.064,-0.36 0,-0.152 -0.0213,-0.272 -0.064,-0.36 -0.0426,-0.0907 -0.112,-0.156 -0.208,-0.196 -0.0933,-0.04 -0.22,-0.06 -0.38,-0.06 -0.0533,0 -0.1093,0.0027 -0.168,0.008 -0.056,0.0027 -0.12,0.0107 -0.192,0.024 l 0.096,-0.112 v 2.752 h -0.32 z m 1.224,2.912 -1,-1.312 h 0.368 l 1.008,1.312 z m 0.576,0 0.724,-2.92 h 0.392 l 0.724,2.92 h -0.328 l -0.584,-2.544 h -0.016 l -0.584,2.544 z m 0.368,-0.8 v -0.28 h 1.104 v 0.28 z m 1.772,0.8 v -2.92 h 0.52 l 0.704,2.52 h 0.016 v -2.52 h 0.32 v 2.92 h -0.52 l -0.704,-2.52 h -0.016 v 2.52 z m 2.988,0.04 c -0.7066,0 -1.06,-0.46 -1.06,-1.38 v -0.24 c 0,-0.464 0.0894,-0.8093 0.268,-1.036 0.1814,-0.2293 0.4547,-0.344 0.82,-0.344 0.0774,0 0.1574,0.0053 0.24,0.016 0.0827,0.008 0.1614,0.02 0.236,0.036 v 0.296 c -0.0746,-0.0187 -0.152,-0.0333 -0.232,-0.044 -0.0773,-0.0107 -0.152,-0.016 -0.224,-0.016 -0.272,0 -0.4706,0.088 -0.596,0.264 -0.1226,0.176 -0.184,0.4587 -0.184,0.848 v 0.2 c 0,0.3707 0.0587,0.6493 0.176,0.836 0.12,0.184 0.2987,0.276 0.536,0.276 0.0614,0 0.1267,-0.0067 0.196,-0.02 0.072,-0.0133 0.1414,-0.0333 0.208,-0.06 l -0.124,0.152 v -1.232 h -0.6 v -0.272 h 0.92 v 1.64 c -0.0853,0.0267 -0.1813,0.0467 -0.288,0.06 -0.1066,0.0133 -0.204,0.02 -0.292,0.02 z m 1.116,-0.04 v -2.92 h 1.4 v 0.28 h -1.076 v 0.956 h 1.036 v 0.28 h -1.036 v 1.124 h 1.076 v 0.28 z m 2.572,0.04 c -0.104,0 -0.208,-0.0093 -0.312,-0.028 -0.1013,-0.016 -0.2026,-0.0413 -0.304,-0.076 v -0.308 c 0.0987,0.04 0.196,0.0707 0.292,0.092 0.096,0.0213 0.1947,0.032 0.296,0.032 0.1814,0 0.3214,-0.0373 0.42,-0.112 0.1014,-0.0747 0.152,-0.1933 0.152,-0.356 0,-0.0853 -0.0173,-0.1613 -0.052,-0.228 -0.032,-0.0693 -0.088,-0.136 -0.168,-0.2 -0.0773,-0.064 -0.1866,-0.1347 -0.328,-0.212 -0.1733,-0.0987 -0.3106,-0.1907 -0.412,-0.276 -0.0986,-0.0853 -0.1693,-0.176 -0.212,-0.272 -0.04,-0.0987 -0.06,-0.2107 -0.06,-0.336 0,-0.248 0.072,-0.4293 0.216,-0.544 0.1467,-0.1173 0.376,-0.176 0.688,-0.176 0.0934,0 0.1867,0.0053 0.28,0.016 0.096,0.0107 0.196,0.028 0.3,0.052 v 0.852 h -0.32 v -0.728 l 0.128,0.144 c -0.072,-0.016 -0.14,-0.028 -0.204,-0.036 -0.0613,-0.008 -0.1253,-0.012 -0.192,-0.012 -0.192,0 -0.3346,0.036 -0.428,0.108 -0.0933,0.0693 -0.14,0.1787 -0.14,0.328 0,0.0827 0.016,0.1587 0.048,0.228 0.0347,0.0667 0.092,0.1333 0.172,0.2 0.0827,0.064 0.1934,0.1347 0.332,0.212 0.1707,0.096 0.3054,0.188 0.404,0.276 0.0987,0.0853 0.1694,0.1773 0.212,0.276 0.0427,0.096 0.064,0.208 0.064,0.336 0,0.2507 -0.0733,0.4387 -0.22,0.564 -0.144,0.1227 -0.3613,0.184 -0.652,0.184 z" id="text168" style="font-size:4px;line-height:1;font-family:'M PLUS 1 Code';-inkscape-font-specification:'M PLUS 1 Code';text-align:center;word-spacing:0px;text-anchor:middle;fill:#f76707;stroke-width:0.755906;stroke-linecap:round;stroke-linejoin:round;stroke-dasharray:2.85697, 8.57092;paint-order:markers stroke fill" aria-label="DARK ORANGES" />
    </g>
  </g>
</svg>
