<?xml version="1.0" encoding="UTF-8" standalone="no"?>
<!-- Created with Inkscape (http://www.inkscape.org/) -->

<svg width="49.999771" height="14.95986" viewBox="0 0 49.999767 14.95986" version="1.1" id="svg1" xmlns="http://www.w3.org/2000/svg" xmlns:svg="http://www.w3.org/2000/svg">
  <defs id="defs1" />
  <g id="layer2" style="display:inline" transform="translate(-9.999687,-145.04)">
    <g id="g193" transform="translate(56.938587,27.570863)">
      <path id="rect232-92" style="fill:#f1e3fe;stroke-width:2;stroke-linecap:round;stroke-linejoin:round" d="m -26.9389,132.429 v -10 h -10 v 10 z" />
      <path id="rect233-3" style="fill:#d9bced;stroke-width:2;stroke-linecap:round;stroke-linejoin:round" d="m -16.9389,132.429 v -10 h -10 v 10 z" />
      <path id="rect234-6" style="fill:#cbade9;stroke-width:2;stroke-linecap:round;stroke-linejoin:round" d="m -6.93887,132.429 v -10 H -16.9389 v 10 z" />
      <path id="rect318" style="fill:#8a64c0;stroke-width:2;stroke-linecap:round;stroke-linejoin:round" d="m -6.93914,132.429 v -10 H 3.06087 v 10 z" />
      <path id="rect340" style="fill:#f8f1fc;stroke-width:2;stroke-linecap:round;stroke-linejoin:round" d="m -36.9389,132.429 v -10 h -10 v 10 z" />
      <path id="text200" style="font-size:4px;line-height:1;font-family:'M PLUS 1 Code';-inkscape-font-specification:'M PLUS 1 Code';text-align:center;word-spacing:0px;text-anchor:middle;fill:#8a64c0;stroke-width:0.755906;stroke-linecap:round;stroke-linejoin:round;stroke-dasharray:2.85697, 8.57092;paint-order:markers stroke fill" transform="translate(-56.938588,110.42914)" d="M 22.320004,10 V 7.08 h 0.328 v 2.632 h 1.152 V 10 Z m 1.98,0 V 9.72 h 0.536 V 7.36 h -0.536 V 7.08 h 1.4 v 0.28 h -0.536 v 2.36 h 0.536 V 10 Z m 2.908,0.04 q -1.06,0 -1.06,-1.38 V 8.42 q 0,-0.696 0.268,-1.036 0.272,-0.344 0.82,-0.344 0.116,0 0.24,0.016 0.124,0.012 0.236,0.036 v 0.296 q -0.112,-0.028 -0.232,-0.044 -0.116,-0.016 -0.224,-0.016 -0.408,0 -0.596,0.264 -0.184,0.264 -0.184,0.848 v 0.2 q 0,0.556 0.176,0.836 0.18,0.276 0.536,0.276 0.092,0 0.196,-0.02 0.108,-0.02 0.208,-0.06 l -0.124,0.152 V 8.592 h -0.6 V 8.32 h 0.92 v 1.64 q -0.128,0.04 -0.288,0.06 -0.16,0.02 -0.292,0.02 z m 1.012,-0.04 V 7.08 h 0.32 v 1.232 h 0.92 V 7.08 h 0.32 V 10 h -0.32 V 8.6 h -0.92 V 10 Z m 2.616,0 V 7.368 h -0.676 V 7.08 h 1.68 v 0.288 h -0.676 V 10 Z m 3.968,0 -0.724,-2.92 h 0.328 l 0.584,2.504 h 0.016 l 0.584,-2.504 h 0.328 l -0.724,2.92 z m 1.496,0 V 9.72 h 0.536 V 7.36 h -0.536 V 7.08 h 1.4 v 0.28 h -0.536 v 2.36 h 0.536 V 10 Z m 2.7,0.04 q -0.308,0 -0.492,-0.132 -0.184,-0.136 -0.268,-0.44 -0.08,-0.304 -0.08,-0.808 V 8.42 q 0,-0.508 0.08,-0.808 0.084,-0.304 0.268,-0.436 0.184,-0.136 0.492,-0.136 0.308,0 0.492,0.136 0.184,0.132 0.264,0.436 0.084,0.3 0.084,0.808 v 0.24 q 0,0.504 -0.084,0.808 -0.08,0.304 -0.264,0.44 -0.184,0.132 -0.492,0.132 z m 0,-0.288 q 0.2,0 0.308,-0.096 0.112,-0.1 0.156,-0.34 0.048,-0.244 0.048,-0.676 v -0.2 q 0,-0.432 -0.048,-0.672 -0.044,-0.244 -0.156,-0.34 -0.108,-0.1 -0.308,-0.1 -0.196,0 -0.308,0.1 -0.112,0.096 -0.16,0.34 -0.044,0.24 -0.044,0.672 v 0.2 q 0,0.432 0.044,0.676 0.048,0.24 0.16,0.34 0.112,0.096 0.308,0.096 z m 1.32,0.248 V 7.08 h 0.328 v 2.632 h 1.152 V 10 Z m 2.004,0 V 7.08 h 1.4 v 0.28 h -1.076 v 0.956 h 1.036 v 0.28 h -1.036 V 9.72 h 1.076 V 10 Z m 2.512,0 V 7.368 h -0.676 V 7.08 h 1.68 v 0.288 h -0.676 V 10 Z m 2.06,0.04 q -0.156,0 -0.312,-0.028 -0.152,-0.024 -0.304,-0.076 V 9.628 q 0.148,0.06 0.292,0.092 0.144,0.032 0.296,0.032 0.272,0 0.42,-0.112 0.152,-0.112 0.152,-0.356 0,-0.128 -0.052,-0.228 -0.048,-0.104 -0.168,-0.2 -0.116,-0.096 -0.328,-0.212 -0.26,-0.148 -0.412,-0.276 -0.148,-0.128 -0.212,-0.272 -0.06,-0.148 -0.06,-0.336 0,-0.372 0.216,-0.544 0.22,-0.176 0.688,-0.176 0.14,0 0.28,0.016 0.144,0.016 0.3,0.052 V 7.96 h -0.32 V 7.232 l 0.128,0.144 q -0.108,-0.024 -0.204,-0.036 -0.092,-0.012 -0.192,-0.012 -0.288,0 -0.428,0.108 -0.14,0.104 -0.14,0.328 0,0.124 0.048,0.228 0.052,0.1 0.172,0.2 0.124,0.096 0.332,0.212 0.256,0.144 0.404,0.276 0.148,0.128 0.212,0.276 0.064,0.144 0.064,0.336 0,0.376 -0.22,0.564 -0.216,0.184 -0.652,0.184 z" />
    </g>
  </g>
</svg>
