<?xml version="1.0" encoding="UTF-8" standalone="no"?>
<!-- Created with Inkscape (http://www.inkscape.org/) -->

<svg width="50.000061" height="14.96018" viewBox="0 0 50.000057 14.96018" version="1.1" id="svg1" xmlns="http://www.w3.org/2000/svg" xmlns:svg="http://www.w3.org/2000/svg">
  <defs id="defs1" />
  <g id="layer2" style="display:inline" transform="translate(-10.000387,-25.039983)">
    <g id="g181" transform="translate(56.938587,27.570863)" style="display:inline">
      <path id="rect207" style="fill:#ff5354;stroke-width:2;stroke-linecap:round;stroke-linejoin:round;paint-order:markers stroke fill" d="M -6.93817,12.4293 V 2.42929 H 3.06186 V 12.4293 Z" />
      <path id="rect210" style="fill:#fde3e0;stroke-width:2;stroke-linecap:round;stroke-linejoin:round;paint-order:markers stroke fill" d="M -36.9382,12.4293 V 2.42929 h 10.0001 V 12.4293 Z" />
      <path id="rect211" style="fill:#fff4f2;stroke-width:2;stroke-linecap:round;stroke-linejoin:round;paint-order:markers stroke fill" d="M -46.9382,12.4293 V 2.42929 h 10.0001 V 12.4293 Z" />
      <path id="rect208" style="fill:#f5a298;stroke-width:2;stroke-linecap:round;stroke-linejoin:round;paint-order:markers stroke fill" d="M -16.9382,12.4293 V 2.42929 H -6.93814 V 12.4293 Z" />
      <path id="rect209" style="fill:#f5b7b1;stroke-width:2;stroke-linecap:round;stroke-linejoin:round;paint-order:markers stroke fill" d="M -26.9382,12.4293 V 2.42929 h 10.0001 V 12.4293 Z" />
      <path d="m -31.6186,0.42912 v -2.92 h 0.328 v 2.632 h 1.152 v 0.288 z m 1.98,0 v -0.28 h 0.536 v -2.36 h -0.536 v -0.28 h 1.4 v 0.28 h -0.536 v 2.36 h 0.536 v 0.28 z m 2.908,0.04 c -0.7067,0 -1.06,-0.46 -1.06,-1.38 v -0.24 c 0,-0.464 0.0893,-0.80933 0.268,-1.036 0.1813,-0.22933 0.4547,-0.344 0.82,-0.344 0.0773,0 0.1573,0.00533 0.24,0.016 0.0827,0.008 0.1613,0.02 0.236,0.036 v 0.296 c -0.0747,-0.01867 -0.152,-0.03333 -0.232,-0.044 -0.0773,-0.01067 -0.152,-0.016 -0.224,-0.016 -0.272,0 -0.4707,0.088 -0.596,0.264 -0.1227,0.176 -0.184,0.45867 -0.184,0.848 v 0.2 c 0,0.370667 0.0587,0.649333 0.176,0.836 0.12,0.184 0.2987,0.276 0.536,0.276 0.0613,0 0.1267,-0.006667 0.196,-0.02 0.072,-0.013333 0.1413,-0.033333 0.208,-0.06 l -0.124,0.152 v -1.232 h -0.6 v -0.272 h 0.92 v 1.64 c -0.0853,0.026667 -0.1813,0.046667 -0.288,0.06 -0.1067,0.013333 -0.204,0.02 -0.292,0.02 z m 1.012,-0.04 v -2.92 h 0.32 v 1.232 h 0.92 v -1.232 h 0.32 v 2.92 h -0.32 v -1.4 h -0.92 v 1.4 z m 2.616,0 v -2.632 h -0.676 v -0.288 h 1.68 v 0.288 h -0.676 v 2.632 z m 3.444,-2.912 c 0.1173,-0.01867 0.2187,-0.03067 0.304,-0.036 0.088,-0.008 0.172,-0.012 0.252,-0.012 0.2427,0 0.4373,0.03067 0.584,0.092 0.1467,0.05867 0.2533,0.15467 0.32,0.288 0.0667,0.13067 0.1,0.304 0.1,0.52 0,0.216 -0.0333,0.39067 -0.1,0.524 -0.0667,0.130667 -0.1733,0.226667 -0.32,0.288 -0.1467,0.058667 -0.3413,0.088 -0.584,0.088 -0.072,0 -0.1427,-0.002667 -0.212,-0.008 -0.0667,-0.005333 -0.1373,-0.013333 -0.212,-0.024 l 0.104,-0.28 c 0.0693,0.01067 0.132,0.01867 0.188,0.024 0.056,0.00533 0.1093,0.008 0.16,0.008 0.16,0 0.2867,-0.02 0.38,-0.06 0.096,-0.04 0.1653,-0.10533 0.208,-0.196 0.0427,-0.09067 0.064,-0.21067 0.064,-0.36 0,-0.152 -0.0213,-0.272 -0.064,-0.36 -0.0427,-0.09067 -0.112,-0.156 -0.208,-0.196 -0.0933,-0.04 -0.22,-0.06 -0.38,-0.06 -0.0533,0 -0.1093,0.00267 -0.168,0.008 -0.056,0.00267 -0.12,0.01067 -0.192,0.024 l 0.096,-0.112 v 2.752 h -0.32 z m 1.224,2.912 -1,-1.312 h 0.368 l 1.008,1.312 z m 0.82,0 v -2.92 h 1.4 v 0.28 h -1.076 v 0.956 h 1.036 v 0.28 h -1.036 v 1.124 h 1.076 v 0.28 z m 2.436,0.04 c -0.1467,0 -0.3187,-0.016 -0.516,-0.048 v -2.904 c 0.1973,-0.032 0.3693,-0.048 0.516,-0.048 0.256,0 0.4627,0.04667 0.62,0.14 0.16,0.09333 0.2773,0.24133 0.352,0.444 0.0747,0.20267 0.112,0.468 0.112,0.796 v 0.24 c 0,0.325333 -0.0373,0.590667 -0.112,0.796 -0.0747,0.2026667 -0.192,0.350667 -0.352,0.444 -0.1573,0.093333 -0.364,0.14 -0.62,0.14 z m -0.256,-0.336 c 0.0453,0.016 0.0933,0.028 0.144,0.036 0.0507,0.008 0.104,0.012 0.16,0.012 0.168,0 0.304,-0.037333 0.408,-0.112 0.1067,-0.07733333 0.184,-0.197333 0.232,-0.36 0.048,-0.162667 0.072,-0.376 0.072,-0.64 v -0.2 c 0,-0.264 -0.024,-0.47733 -0.072,-0.64 -0.048,-0.16267 -0.1253,-0.28133 -0.232,-0.356 -0.104,-0.07733 -0.24,-0.116 -0.408,-0.116 -0.056,0 -0.1093,0.004 -0.16,0.012 -0.0507,0.008 -0.0987,0.02 -0.144,0.036 l 0.06,-0.108 v 2.544 z m 2.392,0.336 c -0.104,0 -0.208,-0.009333 -0.312,-0.028 -0.1013,-0.016 -0.2027,-0.041333 -0.304,-0.076 v -0.308 c 0.0987,0.04 0.196,0.070667 0.292,0.092 0.096,0.021333 0.1947,0.032 0.296,0.032 0.1813,0 0.3213,-0.037333 0.42,-0.112 0.1013,-0.07466667 0.152,-0.193333 0.152,-0.356 0,-0.085333 -0.0173,-0.161333 -0.052,-0.228 -0.032,-0.069333 -0.088,-0.136 -0.168,-0.2 -0.0773,-0.064 -0.1867,-0.134667 -0.328,-0.212 -0.1733,-0.09867 -0.3107,-0.19067 -0.412,-0.276 -0.0987,-0.08533 -0.1693,-0.176 -0.212,-0.272 -0.04,-0.09867 -0.06,-0.21067 -0.06,-0.336 0,-0.248 0.072,-0.42933 0.216,-0.544 0.1467,-0.11733 0.376,-0.176 0.688,-0.176 0.0933,0 0.1867,0.00533 0.28,0.016 0.096,0.01067 0.196,0.028 0.3,0.052 v 0.852 h -0.32 v -0.728 l 0.128,0.144 c -0.072,-0.016 -0.14,-0.028 -0.204,-0.036 -0.0613,-0.008 -0.1253,-0.012 -0.192,-0.012 -0.192,0 -0.3347,0.036 -0.428,0.108 -0.0933,0.06933 -0.14,0.17867 -0.14,0.328 0,0.08267 0.016,0.15867 0.048,0.228 0.0347,0.06667 0.092,0.13333 0.172,0.2 0.0827,0.064 0.1933,0.13467 0.332,0.212 0.1707,0.096 0.3053,0.188 0.404,0.276 0.0987,0.085333 0.1693,0.177333 0.212,0.276 0.0427,0.096 0.064,0.208 0.064,0.336 0,0.2506667 -0.0733,0.438667 -0.22,0.564 -0.144,0.122667 -0.3613,0.184 -0.652,0.184 z" id="text152" style="font-size:4px;line-height:1;font-family:'M PLUS 1 Code';-inkscape-font-specification:'M PLUS 1 Code';text-align:center;word-spacing:0px;text-anchor:middle;fill:#ff5354;stroke-width:0.755906;stroke-linecap:round;stroke-linejoin:round;stroke-dasharray:2.85697, 8.57092;paint-order:markers stroke fill" aria-label="LIGHT REDS" />
    </g>
  </g>
</svg>
