<?xml version="1.0" encoding="UTF-8" standalone="no"?>
<!-- Created with Inkscape (http://www.inkscape.org/) -->

<svg width="50.000061" height="14.9602" viewBox="0 0 50.000057 14.9602" version="1.1" id="svg1" xmlns="http://www.w3.org/2000/svg" xmlns:svg="http://www.w3.org/2000/svg">
  <defs id="defs1" />
  <g id="layer2" style="display:inline" transform="translate(-10.000387,-45.039963)">
    <g id="g182" transform="translate(56.938587,27.570863)">
      <path id="rect217" style="fill:#fd7e14;stroke-width:2;stroke-linecap:round;stroke-linejoin:round;paint-order:markers stroke fill" d="m -6.93817,32.4293 v -10 H 3.06186 v 10 z" />
      <path id="rect218" style="fill:#ffe8cc;stroke-width:2;stroke-linecap:round;stroke-linejoin:round;paint-order:markers stroke fill" d="m -36.9382,32.4293 v -10 h 10.0001 v 10 z" />
      <path id="rect259" style="fill:#ffb462;stroke-width:2;stroke-linecap:round;stroke-linejoin:round;paint-order:markers stroke fill" d="m -16.9382,32.4293 v -10 h 10.00006 v 10 z" />
      <path id="rect260" style="fill:#ffd29f;stroke-width:2;stroke-linecap:round;stroke-linejoin:round;paint-order:markers stroke fill" d="m -26.9382,32.4293 v -10 h 10.0001 v 10 z" />
      <path id="rect225" style="fill:#fef5e7;stroke-width:2;stroke-linecap:round;stroke-linejoin:round;paint-order:markers stroke fill" d="m -46.9382,32.4293 v -10 h 10.0001 v 10 z" />
      <path d="m -34.6186,20.4291 v -2.92 h 0.328 v 2.632 h 1.152 v 0.288 z m 1.98,0 v -0.28 h 0.536 v -2.36 h -0.536 v -0.28 h 1.4 v 0.28 h -0.536 v 2.36 h 0.536 v 0.28 z m 2.908,0.04 c -0.7067,0 -1.06,-0.46 -1.06,-1.38 v -0.24 c 0,-0.464 0.0893,-0.8093 0.268,-1.036 0.1813,-0.2293 0.4547,-0.344 0.82,-0.344 0.0773,0 0.1573,0.0053 0.24,0.016 0.0827,0.008 0.1613,0.02 0.236,0.036 v 0.296 c -0.0747,-0.0187 -0.152,-0.0333 -0.232,-0.044 -0.0773,-0.0107 -0.152,-0.016 -0.224,-0.016 -0.272,0 -0.4707,0.088 -0.596,0.264 -0.1227,0.176 -0.184,0.4587 -0.184,0.848 v 0.2 c 0,0.3707 0.0587,0.6493 0.176,0.836 0.12,0.184 0.2987,0.276 0.536,0.276 0.0613,0 0.1267,-0.0067 0.196,-0.02 0.072,-0.0133 0.1413,-0.0333 0.208,-0.06 l -0.124,0.152 v -1.232 h -0.6 v -0.272 h 0.92 v 1.64 c -0.0853,0.0267 -0.1813,0.0467 -0.288,0.06 -0.1067,0.0133 -0.204,0.02 -0.292,0.02 z m 1.012,-0.04 v -2.92 h 0.32 v 1.232 h 0.92 v -1.232 h 0.32 v 2.92 h -0.32 v -1.4 h -0.92 v 1.4 z m 2.616,0 v -2.632 h -0.676 v -0.288 h 1.68 v 0.288 h -0.676 v 2.632 z m 4.164,0.04 c -0.2053,0 -0.3693,-0.044 -0.492,-0.132 -0.1227,-0.0907 -0.212,-0.2373 -0.268,-0.44 -0.0533,-0.2027 -0.08,-0.472 -0.08,-0.808 v -0.24 c 0,-0.3387 0.0267,-0.608 0.08,-0.808 0.056,-0.2027 0.1453,-0.348 0.268,-0.436 0.1227,-0.0907 0.2867,-0.136 0.492,-0.136 0.2053,0 0.3693,0.0453 0.492,0.136 0.1227,0.088 0.2107,0.2333 0.264,0.436 0.056,0.2 0.084,0.4693 0.084,0.808 v 0.24 c 0,0.336 -0.028,0.6053 -0.084,0.808 -0.0533,0.2027 -0.1413,0.3493 -0.264,0.44 -0.1227,0.088 -0.2867,0.132 -0.492,0.132 z m 0,-0.288 c 0.1333,0 0.236,-0.032 0.308,-0.096 0.0747,-0.0667 0.1267,-0.18 0.156,-0.34 0.032,-0.1627 0.048,-0.388 0.048,-0.676 v -0.2 c 0,-0.288 -0.016,-0.512 -0.048,-0.672 -0.0293,-0.1627 -0.0813,-0.276 -0.156,-0.34 -0.072,-0.0667 -0.1747,-0.1 -0.308,-0.1 -0.1307,0 -0.2333,0.0333 -0.308,0.1 -0.0747,0.064 -0.128,0.1773 -0.16,0.34 -0.0293,0.16 -0.044,0.384 -0.044,0.672 v 0.2 c 0,0.288 0.0147,0.5133 0.044,0.676 0.032,0.16 0.0853,0.2733 0.16,0.34 0.0747,0.064 0.1773,0.096 0.308,0.096 z m 1.28,-2.664 c 0.1173,-0.0187 0.2187,-0.0307 0.304,-0.036 0.088,-0.008 0.172,-0.012 0.252,-0.012 0.2427,0 0.4373,0.0307 0.584,0.092 0.1467,0.0587 0.2533,0.1547 0.32,0.288 0.0667,0.1307 0.1,0.304 0.1,0.52 0,0.216 -0.0333,0.3907 -0.1,0.524 -0.0667,0.1307 -0.1733,0.2267 -0.32,0.288 -0.1467,0.0587 -0.3413,0.088 -0.584,0.088 -0.072,0 -0.1427,-0.0027 -0.212,-0.008 -0.0667,-0.0053 -0.1373,-0.0133 -0.212,-0.024 l 0.104,-0.28 c 0.0693,0.0107 0.132,0.0187 0.188,0.024 0.056,0.0053 0.1093,0.008 0.16,0.008 0.16,0 0.2867,-0.02 0.38,-0.06 0.096,-0.04 0.1653,-0.1053 0.208,-0.196 0.0427,-0.0907 0.064,-0.2107 0.064,-0.36 0,-0.152 -0.0213,-0.272 -0.064,-0.36 -0.0427,-0.0907 -0.112,-0.156 -0.208,-0.196 -0.0933,-0.04 -0.22,-0.06 -0.38,-0.06 -0.0533,0 -0.1093,0.0027 -0.168,0.008 -0.056,0.0027 -0.12,0.0107 -0.192,0.024 l 0.096,-0.112 v 2.752 h -0.32 z m 1.224,2.912 -1,-1.312 h 0.368 l 1.008,1.312 z m 0.576,0 0.724,-2.92 h 0.392 l 0.724,2.92 h -0.328 l -0.584,-2.544 h -0.016 l -0.584,2.544 z m 0.368,-0.8 v -0.28 h 1.104 v 0.28 z m 1.772,0.8 v -2.92 h 0.52 l 0.704,2.52 h 0.016 v -2.52 h 0.32 v 2.92 h -0.52 l -0.704,-2.52 h -0.016 v 2.52 z m 2.988,0.04 c -0.7067,0 -1.06,-0.46 -1.06,-1.38 v -0.24 c 0,-0.464 0.0893,-0.8093 0.268,-1.036 0.1813,-0.2293 0.4547,-0.344 0.82,-0.344 0.0773,0 0.1573,0.0053 0.24,0.016 0.0827,0.008 0.1613,0.02 0.236,0.036 v 0.296 c -0.0747,-0.0187 -0.152,-0.0333 -0.232,-0.044 -0.0773,-0.0107 -0.152,-0.016 -0.224,-0.016 -0.272,0 -0.4707,0.088 -0.596,0.264 -0.1227,0.176 -0.184,0.4587 -0.184,0.848 v 0.2 c 0,0.3707 0.0587,0.6493 0.176,0.836 0.12,0.184 0.2987,0.276 0.536,0.276 0.0613,0 0.1267,-0.0067 0.196,-0.02 0.072,-0.0133 0.1413,-0.0333 0.208,-0.06 l -0.124,0.152 v -1.232 h -0.6 v -0.272 h 0.92 v 1.64 c -0.0853,0.0267 -0.1813,0.0467 -0.288,0.06 -0.1067,0.0133 -0.204,0.02 -0.292,0.02 z m 1.116,-0.04 v -2.92 h 1.4 v 0.28 h -1.076 v 0.956 h 1.036 v 0.28 h -1.036 v 1.124 h 1.076 v 0.28 z m 2.572,0.04 c -0.104,0 -0.208,-0.0093 -0.312,-0.028 -0.1013,-0.016 -0.2027,-0.0413 -0.304,-0.076 v -0.308 c 0.0987,0.04 0.196,0.0707 0.292,0.092 0.096,0.0213 0.1947,0.032 0.296,0.032 0.18134,0 0.32134,-0.0373 0.42,-0.112 0.10134,-0.0747 0.152,-0.1933 0.152,-0.356 0,-0.0853 -0.01733,-0.1613 -0.052,-0.228 -0.032,-0.0693 -0.088,-0.136 -0.168,-0.2 -0.07733,-0.064 -0.18666,-0.1347 -0.328,-0.212 -0.1733,-0.0987 -0.3107,-0.1907 -0.412,-0.276 -0.0987,-0.0853 -0.1693,-0.176 -0.212,-0.272 -0.04,-0.0987 -0.06,-0.2107 -0.06,-0.336 0,-0.248 0.072,-0.4293 0.216,-0.544 0.1467,-0.1173 0.376,-0.176 0.688,-0.176 0.09334,0 0.18667,0.0053 0.28,0.016 0.096,0.0107 0.196,0.028 0.3,0.052 v 0.852 h -0.32 v -0.728 l 0.128,0.144 c -0.072,-0.016 -0.14,-0.028 -0.204,-0.036 -0.06133,-0.008 -0.12533,-0.012 -0.192,-0.012 -0.192,0 -0.3347,0.036 -0.428,0.108 -0.0933,0.0693 -0.14,0.1787 -0.14,0.328 0,0.0827 0.016,0.1587 0.048,0.228 0.0347,0.0667 0.092,0.1333 0.172,0.2 0.0827,0.064 0.19334,0.1347 0.332,0.212 0.17067,0.096 0.30534,0.188 0.404,0.276 0.09867,0.0853 0.16934,0.1773 0.212,0.276 0.04267,0.096 0.064,0.208 0.064,0.336 0,0.2507 -0.07333,0.4387 -0.22,0.564 -0.144,0.1227 -0.36133,0.184 -0.652,0.184 z" id="text152-4" style="font-size:4px;line-height:1;font-family:'M PLUS 1 Code';-inkscape-font-specification:'M PLUS 1 Code';text-align:center;word-spacing:0px;text-anchor:middle;fill:#fd7e14;stroke-width:0.755906;stroke-linecap:round;stroke-linejoin:round;stroke-dasharray:2.85697, 8.57092;paint-order:markers stroke fill" aria-label="LIGHT ORANGES" />
    </g>
  </g>
</svg>
