<?xml version="1.0" encoding="UTF-8" standalone="no"?>
<!-- Created with Inkscape (http://www.inkscape.org/) -->

<svg width="50.000031" height="14.96" viewBox="0 0 50.000027 14.96" version="1.1" id="svg1" xmlns="http://www.w3.org/2000/svg" xmlns:svg="http://www.w3.org/2000/svg">
  <defs id="defs1" />
  <g id="layer2" style="display:inline" transform="translate(-9.999687,-205.03986)">
    <g id="g198" transform="translate(56.938587,27.570863)">
      <path id="rect250-3" style="fill:#e8e8e8;stroke-width:2;stroke-linecap:round;stroke-linejoin:round" d="m -26.9389,192.429 v -10 h -10 v 10 z" />
      <path id="rect251-8" style="fill:#c7c7c7;stroke-width:2;stroke-linecap:round;stroke-linejoin:round" d="m -16.9389,192.429 v -10 h -10 v 10 z" />
      <path id="rect252-81" style="fill:#bababa;stroke-width:2;stroke-linecap:round;stroke-linejoin:round" d="m -6.93887,192.429 v -10 H -16.9389 v 10 z" />
      <path id="rect322" style="fill:#919191;stroke-width:2;stroke-linecap:round;stroke-linejoin:round" d="m 3.06113,192.429 v -10 h -10 v 10 z" />
      <path id="rect329" style="fill:#f5f5f5;stroke-width:2;stroke-linecap:round;stroke-linejoin:round" d="m -36.9389,192.429 v -10 h -10 v 10 z" />
      <path d="m -32.6186,180.429 v -2.92 h 0.328 v 2.632 h 1.152 v 0.288 z m 1.98,0 v -0.28 h 0.536 v -2.36 h -0.536 v -0.28 h 1.4 v 0.28 h -0.536 v 2.36 h 0.536 v 0.28 z m 2.908,0.04 c -0.7067,0 -1.06,-0.46 -1.06,-1.38 v -0.24 c 0,-0.464 0.0893,-0.809 0.268,-1.036 0.1813,-0.229 0.4547,-0.344 0.82,-0.344 0.0773,0 0.1573,0.005 0.24,0.016 0.0827,0.008 0.1613,0.02 0.236,0.036 v 0.296 c -0.0747,-0.019 -0.152,-0.033 -0.232,-0.044 -0.0773,-0.011 -0.152,-0.016 -0.224,-0.016 -0.272,0 -0.4707,0.088 -0.596,0.264 -0.1227,0.176 -0.184,0.459 -0.184,0.848 v 0.2 c 0,0.371 0.0587,0.649 0.176,0.836 0.12,0.184 0.2987,0.276 0.536,0.276 0.0613,0 0.1267,-0.007 0.196,-0.02 0.072,-0.013 0.1413,-0.033 0.208,-0.06 l -0.124,0.152 v -1.232 h -0.6 v -0.272 h 0.92 v 1.64 c -0.0853,0.027 -0.1813,0.047 -0.288,0.06 -0.1067,0.013 -0.204,0.02 -0.292,0.02 z m 1.012,-0.04 v -2.92 h 0.32 v 1.232 h 0.92 v -1.232 h 0.32 v 2.92 h -0.32 v -1.4 h -0.92 v 1.4 z m 2.616,0 v -2.632 h -0.676 v -0.288 h 1.68 v 0.288 h -0.676 v 2.632 z m 4.372,0.04 c -0.7067,0 -1.06,-0.46 -1.06,-1.38 v -0.24 c 0,-0.464 0.0893,-0.809 0.268,-1.036 0.1813,-0.229 0.4547,-0.344 0.82,-0.344 0.0773,0 0.1573,0.005 0.24,0.016 0.0827,0.008 0.1613,0.02 0.236,0.036 v 0.296 c -0.0747,-0.019 -0.152,-0.033 -0.232,-0.044 -0.0773,-0.011 -0.152,-0.016 -0.224,-0.016 -0.272,0 -0.4707,0.088 -0.596,0.264 -0.1227,0.176 -0.184,0.459 -0.184,0.848 v 0.2 c 0,0.371 0.0587,0.649 0.176,0.836 0.12,0.184 0.2987,0.276 0.536,0.276 0.0613,0 0.1267,-0.007 0.196,-0.02 0.072,-0.013 0.1413,-0.033 0.208,-0.06 l -0.124,0.152 v -1.232 h -0.6 v -0.272 h 0.92 v 1.64 c -0.0853,0.027 -0.1813,0.047 -0.288,0.06 -0.1067,0.013 -0.204,0.02 -0.292,0.02 z m 1.072,-2.952 c 0.1173,-0.019 0.2187,-0.031 0.304,-0.036 0.088,-0.008 0.172,-0.012 0.252,-0.012 0.2427,0 0.4373,0.031 0.584,0.092 0.1467,0.059 0.2533,0.155 0.32,0.288 0.0667,0.131 0.1,0.304 0.1,0.52 0,0.216 -0.0333,0.391 -0.1,0.524 -0.0667,0.131 -0.1733,0.227 -0.32,0.288 -0.1467,0.059 -0.3413,0.088 -0.584,0.088 -0.072,0 -0.1427,-0.003 -0.212,-0.008 -0.0667,-0.005 -0.1373,-0.013 -0.212,-0.024 l 0.104,-0.28 c 0.0693,0.011 0.132,0.019 0.188,0.024 0.056,0.005 0.1093,0.008 0.16,0.008 0.16,0 0.2867,-0.02 0.38,-0.06 0.096,-0.04 0.1653,-0.105 0.208,-0.196 0.0427,-0.091 0.064,-0.211 0.064,-0.36 0,-0.152 -0.0213,-0.272 -0.064,-0.36 -0.0427,-0.091 -0.112,-0.156 -0.208,-0.196 -0.0933,-0.04 -0.22,-0.06 -0.38,-0.06 -0.0533,0 -0.1093,0.003 -0.168,0.008 -0.056,0.003 -0.12,0.011 -0.192,0.024 l 0.096,-0.112 v 2.752 h -0.32 z m 1.224,2.912 -1,-1.312 h 0.368 l 1.008,1.312 z m 0.576,0 0.724,-2.92 h 0.392 l 0.724,2.92 h -0.328 l -0.584,-2.544 h -0.016 l -0.584,2.544 z m 0.368,-0.8 v -0.28 h 1.104 v 0.28 z m 2.388,0.8 v -1.14 l -0.776,-1.78 h 0.332 l 0.6,1.436 h 0.016 l 0.6,-1.436 h 0.332 l -0.776,1.78 v 1.14 z m 2.06,0.04 c -0.104,0 -0.208,-0.009 -0.312,-0.028 -0.1013,-0.016 -0.2027,-0.041 -0.304,-0.076 v -0.308 c 0.0987,0.04 0.196,0.071 0.292,0.092 0.096,0.021 0.1947,0.032 0.296,0.032 0.1813,0 0.3213,-0.037 0.42,-0.112 0.1013,-0.075 0.152,-0.193 0.152,-0.356 0,-0.085 -0.0173,-0.161 -0.052,-0.228 -0.032,-0.069 -0.088,-0.136 -0.168,-0.2 -0.0773,-0.064 -0.1867,-0.135 -0.328,-0.212 -0.1733,-0.099 -0.3107,-0.191 -0.412,-0.276 -0.0987,-0.085 -0.1693,-0.176 -0.212,-0.272 -0.04,-0.099 -0.06,-0.211 -0.06,-0.336 0,-0.248 0.072,-0.429 0.216,-0.544 0.1467,-0.117 0.376,-0.176 0.688,-0.176 0.0933,0 0.1867,0.005 0.28,0.016 0.096,0.011 0.196,0.028 0.3,0.052 v 0.852 h -0.32 v -0.728 l 0.128,0.144 c -0.072,-0.016 -0.14,-0.028 -0.204,-0.036 -0.0613,-0.008 -0.1253,-0.012 -0.192,-0.012 -0.192,0 -0.3347,0.036 -0.428,0.108 -0.0933,0.069 -0.14,0.179 -0.14,0.328 0,0.083 0.016,0.159 0.048,0.228 0.0347,0.067 0.092,0.133 0.172,0.2 0.0827,0.064 0.1933,0.135 0.332,0.212 0.1707,0.096 0.3053,0.188 0.404,0.276 0.0987,0.085 0.1693,0.177 0.212,0.276 0.0427,0.096 0.064,0.208 0.064,0.336 0,0.251 -0.0733,0.439 -0.22,0.564 -0.144,0.123 -0.3613,0.184 -0.652,0.184 z" id="text152-2" style="font-size:4px;line-height:1;font-family:'M PLUS 1 Code';-inkscape-font-specification:'M PLUS 1 Code';text-align:center;word-spacing:0px;text-anchor:middle;fill:#919191;stroke-width:0.755906;stroke-linecap:round;stroke-linejoin:round;stroke-dasharray:2.85697, 8.57092;paint-order:markers stroke fill" aria-label="LIGHT GRAYS" />
    </g>
  </g>
</svg>
