<?xml version="1.0" encoding="UTF-8" standalone="no"?>
<!-- Created with Inkscape (http://www.inkscape.org/) -->

<svg width="49.999771" height="14.9599" viewBox="0 0 49.999767 14.9599" version="1.1" id="svg1" xmlns="http://www.w3.org/2000/svg" xmlns:svg="http://www.w3.org/2000/svg">
  <defs id="defs1" />
  <g id="layer2" style="display:inline" transform="translate(-9.999687,-105.03996)">
    <g id="g189" transform="translate(56.938587,27.570863)">
      <path id="rect131-0" style="fill:#edf9f6;stroke-width:2;stroke-linecap:round;stroke-linejoin:round" d="m -36.9389,92.429 v -10 h -10 v 10 z" />
      <path id="rect219-9" style="fill:#cef2eb;stroke-width:2;stroke-linecap:round;stroke-linejoin:round" d="m -26.9389,92.429 v -10 h -10 v 10 z" />
      <path id="rect220-4" style="fill:#94d6ca;stroke-width:2;stroke-linecap:round;stroke-linejoin:round" d="m -16.9389,92.429 v -10 h -10 v 10 z" />
      <path id="rect221-6" style="fill:#74c6be;stroke-width:2;stroke-linecap:round;stroke-linejoin:round" d="m -6.93887,92.429 v -10 H -16.9389 v 10 z" />
      <path id="rect344" style="fill:#57bab6;stroke-width:2;stroke-linecap:round;stroke-linejoin:round" d="m -6.93913,92.429 v -10 h 10 v 10 z" />
      <path d="m -32.6186,80.4291 v -2.92 h 0.328 v 2.632 h 1.152 v 0.288 z m 1.98,0 v -0.28 h 0.536 v -2.36 h -0.536 v -0.28 h 1.4 v 0.28 h -0.536 v 2.36 h 0.536 v 0.28 z m 2.908,0.04 c -0.7067,0 -1.06,-0.46 -1.06,-1.38 v -0.24 c 0,-0.464 0.0893,-0.8093 0.268,-1.036 0.1813,-0.2293 0.4547,-0.344 0.82,-0.344 0.0773,0 0.1573,0.0053 0.24,0.016 0.0827,0.008 0.1613,0.02 0.236,0.036 v 0.296 c -0.0747,-0.0187 -0.152,-0.0333 -0.232,-0.044 -0.0773,-0.0107 -0.152,-0.016 -0.224,-0.016 -0.272,0 -0.4707,0.088 -0.596,0.264 -0.1227,0.176 -0.184,0.4587 -0.184,0.848 v 0.2 c 0,0.3707 0.0587,0.6493 0.176,0.836 0.12,0.184 0.2987,0.276 0.536,0.276 0.0613,0 0.1267,-0.0067 0.196,-0.02 0.072,-0.0133 0.1413,-0.0333 0.208,-0.06 l -0.124,0.152 v -1.232 h -0.6 v -0.272 h 0.92 v 1.64 c -0.0853,0.0267 -0.1813,0.0467 -0.288,0.06 -0.1067,0.0133 -0.204,0.02 -0.292,0.02 z m 1.012,-0.04 v -2.92 h 0.32 v 1.232 h 0.92 v -1.232 h 0.32 v 2.92 h -0.32 v -1.4 h -0.92 v 1.4 z m 2.616,0 v -2.632 h -0.676 v -0.288 h 1.68 v 0.288 h -0.676 v 2.632 z m 3.244,0 0.724,-2.92 h 0.392 l 0.724,2.92 h -0.328 l -0.584,-2.544 h -0.016 l -0.584,2.544 z m 0.368,-0.8 v -0.28 h 1.104 v 0.28 z m 3.144,1.4 c 0,-0.1307 -0.0213,-0.2373 -0.064,-0.32 -0.04,-0.0827 -0.104,-0.144 -0.192,-0.184 -0.0853,-0.0373 -0.1973,-0.056 -0.336,-0.056 -0.2053,0 -0.3693,-0.044 -0.492,-0.132 -0.1227,-0.0907 -0.212,-0.2373 -0.268,-0.44 -0.0533,-0.2027 -0.08,-0.472 -0.08,-0.808 v -0.24 c 0,-0.3387 0.0267,-0.608 0.08,-0.808 0.056,-0.2027 0.1453,-0.348 0.268,-0.436 0.1227,-0.0907 0.2867,-0.136 0.492,-0.136 0.2053,0 0.3693,0.0453 0.492,0.136 0.1227,0.088 0.2107,0.2333 0.264,0.436 0.056,0.2 0.084,0.4693 0.084,0.808 v 0.24 c 0,0.3467 -0.028,0.6173 -0.084,0.812 -0.056,0.192 -0.1467,0.3307 -0.272,0.416 v 0.016 c 0.1413,0.0507 0.2493,0.1347 0.324,0.252 0.0747,0.12 0.112,0.268 0.112,0.444 z m -0.592,-0.848 c 0.1307,0 0.2333,-0.032 0.308,-0.096 0.0747,-0.0667 0.1267,-0.18 0.156,-0.34 0.032,-0.1627 0.048,-0.388 0.048,-0.676 v -0.2 c 0,-0.288 -0.016,-0.512 -0.048,-0.672 -0.0293,-0.1627 -0.0813,-0.276 -0.156,-0.34 -0.0747,-0.0667 -0.1773,-0.1 -0.308,-0.1 -0.1307,0 -0.2333,0.0333 -0.308,0.1 -0.0747,0.064 -0.128,0.1773 -0.16,0.34 -0.0293,0.16 -0.044,0.384 -0.044,0.672 v 0.2 c 0,0.288 0.0147,0.5133 0.044,0.676 0.032,0.16 0.0853,0.2733 0.16,0.34 0.0747,0.064 0.1773,0.096 0.308,0.096 z m 2,0.288 c -0.2667,0 -0.464,-0.0653 -0.592,-0.196 -0.1253,-0.1333 -0.188,-0.3413 -0.188,-0.624 v -2.14 h 0.32 v 2.108 c 0,0.2 0.036,0.344 0.108,0.432 0.072,0.088 0.1893,0.132 0.352,0.132 0.1653,0 0.2827,-0.044 0.352,-0.132 0.072,-0.088 0.108,-0.232 0.108,-0.432 v -2.108 h 0.32 v 2.14 c 0,0.2827 -0.0627,0.4907 -0.188,0.624 -0.1253,0.1307 -0.3227,0.196 -0.592,0.196 z m 1.08,-0.04 0.724,-2.92 h 0.392 l 0.724,2.92 h -0.328 l -0.584,-2.544 h -0.016 l -0.584,2.544 z m 0.368,-0.8 v -0.28 h 1.104 v 0.28 z m 2.448,0.84 c -0.104,0 -0.208,-0.0093 -0.312,-0.028 -0.1013,-0.016 -0.2027,-0.0413 -0.304,-0.076 v -0.308 c 0.0987,0.04 0.196,0.0707 0.292,0.092 0.096,0.0213 0.1947,0.032 0.296,0.032 0.1813,0 0.3213,-0.0373 0.42,-0.112 0.1013,-0.0747 0.152,-0.1933 0.152,-0.356 0,-0.0853 -0.0173,-0.1613 -0.052,-0.228 -0.032,-0.0693 -0.088,-0.136 -0.168,-0.2 -0.0773,-0.064 -0.1867,-0.1347 -0.328,-0.212 -0.1733,-0.0987 -0.3107,-0.1907 -0.412,-0.276 -0.0987,-0.0853 -0.1693,-0.176 -0.212,-0.272 -0.04,-0.0987 -0.06,-0.2107 -0.06,-0.336 0,-0.248 0.072,-0.4293 0.216,-0.544 0.1467,-0.1173 0.376,-0.176 0.688,-0.176 0.0933,0 0.1867,0.0053 0.28,0.016 0.096,0.0107 0.196,0.028 0.3,0.052 v 0.852 h -0.32 v -0.728 l 0.128,0.144 c -0.072,-0.016 -0.14,-0.028 -0.204,-0.036 -0.0613,-0.008 -0.1253,-0.012 -0.192,-0.012 -0.192,0 -0.3347,0.036 -0.428,0.108 -0.0933,0.0693 -0.14,0.1787 -0.14,0.328 0,0.0827 0.016,0.1587 0.048,0.228 0.0347,0.0667 0.092,0.1333 0.172,0.2 0.0827,0.064 0.1933,0.1347 0.332,0.212 0.1707,0.096 0.3053,0.188 0.404,0.276 0.0987,0.0853 0.1693,0.1773 0.212,0.276 0.0427,0.096 0.064,0.208 0.064,0.336 0,0.2507 -0.0733,0.4387 -0.22,0.564 -0.144,0.1227 -0.3613,0.184 -0.652,0.184 z" id="text152-9" style="font-size:4px;line-height:1;font-family:'M PLUS 1 Code';-inkscape-font-specification:'M PLUS 1 Code';text-align:center;word-spacing:0px;text-anchor:middle;fill:#57bab6;stroke-width:0.755906;stroke-linecap:round;stroke-linejoin:round;stroke-dasharray:2.85697, 8.57092;paint-order:markers stroke fill" aria-label="LIGHT AQUAS" />
    </g>
  </g>
</svg>
