<?xml version="1.0" encoding="UTF-8" standalone="no"?>
<!-- Created with Inkscape (http://www.inkscape.org/) -->

<svg width="49.999771" height="14.9599" viewBox="0 0 49.999767 14.9599" version="1.1" id="svg1" xmlns="http://www.w3.org/2000/svg" xmlns:svg="http://www.w3.org/2000/svg">
  <defs id="defs1" />
  <g id="layer2" style="display:inline" transform="translate(-9.999687,-125.03996)">
    <g id="g190" transform="translate(56.938587,27.570863)">
      <path id="rect226-40" style="fill:#d4e8fd;stroke-width:2;stroke-linecap:round;stroke-linejoin:round" d="m -26.9389,112.429 v -10 h -10 v 10 z" />
      <path id="rect227-6" style="fill:#a7caed;stroke-width:2;stroke-linecap:round;stroke-linejoin:round" d="m -16.9389,112.429 v -10 h -10 v 10 z" />
      <path id="rect228-6" style="fill:#93bce6;stroke-width:2;stroke-linecap:round;stroke-linejoin:round" d="m -6.93887,112.429 v -10 H -16.9389 v 10 z" />
      <path id="rect317" style="fill:#487ab3;stroke-width:2;stroke-linecap:round;stroke-linejoin:round" d="m -6.93914,112.429 v -10 H 3.06087 v 10 z" />
      <path id="rect339" style="fill:#ebf4fd;stroke-width:2;stroke-linecap:round;stroke-linejoin:round" d="m -36.9389,112.429 v -10 h -10 v 10 z" />
      <path d="m -32.6186,100.429 v -2.9199 h 0.328 v 2.6319 h 1.152 v 0.288 z m 1.98,0 v -0.28 h 0.536 v -2.3599 h -0.536 v -0.28 h 1.4 v 0.28 h -0.536 v 2.3599 h 0.536 v 0.28 z m 2.908,0.04 c -0.7067,0 -1.06,-0.46 -1.06,-1.3799 v -0.24 c 0,-0.464 0.0893,-0.8093 0.268,-1.036 0.1813,-0.2293 0.4547,-0.344 0.82,-0.344 0.0773,0 0.1573,0.0053 0.24,0.016 0.0827,0.008 0.1613,0.02 0.236,0.036 v 0.296 c -0.0747,-0.0187 -0.152,-0.0333 -0.232,-0.044 -0.0773,-0.0107 -0.152,-0.016 -0.224,-0.016 -0.272,0 -0.4707,0.088 -0.596,0.264 -0.1227,0.176 -0.184,0.4587 -0.184,0.848 v 0.2 c 0,0.3707 0.0587,0.6493 0.176,0.836 0.12,0.1839 0.2987,0.2759 0.536,0.2759 0.0613,0 0.1267,-0.007 0.196,-0.02 0.072,-0.013 0.1413,-0.033 0.208,-0.06 l -0.124,0.152 v -1.2319 h -0.6 v -0.272 h 0.92 v 1.6399 c -0.0853,0.027 -0.1813,0.047 -0.288,0.06 -0.1067,0.013 -0.204,0.02 -0.292,0.02 z m 1.012,-0.04 v -2.9199 h 0.32 v 1.232 h 0.92 v -1.232 h 0.32 v 2.9199 h -0.32 v -1.3999 h -0.92 v 1.3999 z m 2.616,0 v -2.6319 h -0.676 v -0.288 h 1.68 v 0.288 h -0.676 v 2.6319 z m 4.012,0.04 c -0.0667,0 -0.152,-0.004 -0.256,-0.012 -0.1013,-0.005 -0.212,-0.017 -0.332,-0.036 v -2.9039 c 0.1227,-0.0187 0.2333,-0.0307 0.332,-0.036 0.1013,-0.008 0.1867,-0.012 0.256,-0.012 0.3147,0 0.5493,0.0613 0.704,0.184 0.1547,0.1227 0.232,0.308 0.232,0.556 0,0.1627 -0.0333,0.2987 -0.1,0.408 -0.0667,0.1093 -0.1653,0.1893 -0.296,0.24 v 0.016 c 0.16,0.0453 0.2787,0.1267 0.356,0.244 0.0773,0.1173 0.116,0.2747 0.116,0.472 0,0.2907 -0.0853,0.5109 -0.256,0.6599 -0.168,0.147 -0.42,0.22 -0.756,0.22 z m -0.348,-0.34 c 0.0693,0.019 0.1347,0.032 0.196,0.04 0.0613,0.008 0.124,0.012 0.188,0.012 0.2213,0 0.384,-0.048 0.488,-0.144 0.1067,-0.0986 0.16,-0.2479 0.16,-0.4479 0,-0.2 -0.0533,-0.344 -0.16,-0.432 -0.104,-0.0907 -0.2707,-0.136 -0.5,-0.136 h -0.452 v -0.272 h 0.42 c 0.2107,0 0.3667,-0.0413 0.468,-0.124 0.1013,-0.0853 0.152,-0.2147 0.152,-0.388 0,-0.1653 -0.0467,-0.2867 -0.14,-0.364 -0.0933,-0.0773 -0.2387,-0.116 -0.436,-0.116 -0.064,0 -0.128,0.004 -0.192,0.012 -0.064,0.008 -0.128,0.0213 -0.192,0.04 l 0.08,-0.128 v 2.5759 z m 1.82,0.3 v -2.9199 h 0.328 v 2.6319 h 1.152 v 0.288 z m 2.68,0.04 c -0.2667,0 -0.464,-0.065 -0.592,-0.196 -0.1253,-0.133 -0.188,-0.3412 -0.188,-0.6239 v -2.14 h 0.32 v 2.108 c 0,0.2 0.036,0.344 0.108,0.4319 0.072,0.088 0.1893,0.132 0.352,0.132 0.1653,0 0.2827,-0.044 0.352,-0.132 0.072,-0.0879 0.108,-0.2319 0.108,-0.4319 v -2.108 h 0.32 v 2.14 c 0,0.2827 -0.0627,0.4909 -0.188,0.6239 -0.1253,0.131 -0.3227,0.196 -0.592,0.196 z m 1.324,-0.04 v -2.9199 h 1.4 v 0.28 h -1.076 v 0.956 h 1.036 v 0.28 h -1.036 v 1.1239 h 1.076 v 0.28 z m 2.572,0.04 c -0.104,0 -0.208,-0.009 -0.312,-0.028 -0.1013,-0.016 -0.2027,-0.041 -0.304,-0.076 v -0.308 c 0.0987,0.04 0.196,0.071 0.292,0.092 0.096,0.021 0.1947,0.032 0.296,0.032 0.1813,0 0.3213,-0.037 0.42,-0.112 0.1013,-0.0746 0.152,-0.1932 0.152,-0.3559 0,-0.0853 -0.0173,-0.1613 -0.052,-0.228 -0.032,-0.0693 -0.088,-0.136 -0.168,-0.2 -0.0773,-0.064 -0.1867,-0.1347 -0.328,-0.212 -0.1733,-0.0987 -0.3107,-0.1907 -0.412,-0.276 -0.0987,-0.0853 -0.1693,-0.176 -0.212,-0.272 -0.04,-0.0987 -0.06,-0.2107 -0.06,-0.336 0,-0.248 0.072,-0.4293 0.216,-0.544 0.1467,-0.1173 0.376,-0.176 0.688,-0.176 0.0933,0 0.1867,0.0053 0.28,0.016 0.096,0.0107 0.196,0.028 0.3,0.052 v 0.852 h -0.32 v -0.728 l 0.128,0.144 c -0.072,-0.016 -0.14,-0.028 -0.204,-0.036 -0.0613,-0.008 -0.1253,-0.012 -0.192,-0.012 -0.192,0 -0.3347,0.036 -0.428,0.108 -0.0933,0.0693 -0.14,0.1787 -0.14,0.328 0,0.0827 0.016,0.1587 0.048,0.228 0.0347,0.0667 0.092,0.1333 0.172,0.2 0.0827,0.064 0.1933,0.1347 0.332,0.212 0.1707,0.096 0.3053,0.188 0.404,0.276 0.0987,0.0853 0.1693,0.1773 0.212,0.276 0.0427,0.096 0.064,0.208 0.064,0.336 0,0.2507 -0.0733,0.4389 -0.22,0.5639 -0.144,0.123 -0.3613,0.184 -0.652,0.184 z" id="text152-0" style="font-size:4px;line-height:1;font-family:'M PLUS 1 Code';-inkscape-font-specification:'M PLUS 1 Code';text-align:center;word-spacing:0px;text-anchor:middle;fill:#487ab3;stroke-width:0.755906;stroke-linecap:round;stroke-linejoin:round;stroke-dasharray:2.85697, 8.57092;paint-order:markers stroke fill" aria-label="LIGHT BLUES" />
    </g>
  </g>
</svg>
