<?xml version="1.0" encoding="UTF-8" standalone="no"?>
<!-- Created with Inkscape (http://www.inkscape.org/) -->

<svg
   width="260"
   height="270"
   viewBox="0 0 26 27"
   version="1.1"
   id="svg5"
   xml:space="preserve"
   xmlns="http://www.w3.org/2000/svg"
   xmlns:svg="http://www.w3.org/2000/svg"><defs
     id="defs2" /><g
     id="layer4"
     transform="translate(-245,-35)"><path
       id="use81-1-2-0"
       d="m 10.687,105.492 c -0.073,0.005 -0.147,0.014 -0.22,0.017 -0.055,0.005 -0.093,0.066 -0.069,0.116 0.007,0.034 0.059,0.04 0.051,0.076 0,0.262 0.011,0.526 0.061,0.784 0.023,0.066 0.116,0.083 0.167,0.04 0.047,-0.034 0.11,-0.028 0.158,-0.056 0.142,-0.069 0.296,-0.132 0.398,-0.258 0.08,-0.103 0.105,-0.244 0.072,-0.37 -0.043,-0.149 -0.179,-0.25 -0.32,-0.299 -0.095,-0.034 -0.198,-0.048 -0.297,-0.049 z m 0.378,0.3 c 0.085,0.094 0.066,0.247 -0.015,0.338 -0.093,0.106 -0.23,0.158 -0.363,0.194 -0.029,-0.217 -0.04,-0.436 -0.043,-0.654 0.006,-0.01 0.278,-0.037 0.421,0.122 z m -3.911,-0.436 c -0.055,0.032 -0.068,0.087 -0.021,0.129 0.014,0.051 0.001,0.109 0.003,0.162 -0.004,0.169 -0.019,0.34 0.011,0.507 0.013,0.065 0.028,0.134 0.07,0.186 0.071,0.081 0.19,0.098 0.29,0.07 0.067,-0.019 0.136,-0.036 0.198,-0.068 0.064,-0.032 0.04,-0.138 -0.028,-0.148 -0.068,-0.012 -0.131,0.027 -0.196,0.038 -0.044,0.018 -0.112,0.03 -0.12,-0.036 -0.019,-0.082 -0.028,-0.166 -0.029,-0.25 0.122,-0.023 0.248,-0.017 0.371,-0.034 0.055,-0.014 0.083,-0.092 0.038,-0.132 -0.045,-0.041 -0.111,-0.028 -0.167,-0.028 -0.079,0.004 -0.158,0.014 -0.237,0.02 -0.003,-0.087 -10e-4,-0.175 -10e-4,-0.262 l 10e-4,-0.012 c 0.112,-0.01 0.226,-0.014 0.339,-0.019 0.063,0.003 0.113,-0.079 0.069,-0.129 -0.046,-0.05 -0.12,-0.043 -0.182,-0.041 -0.093,0.005 -0.186,0.017 -0.278,0.026 -0.015,0 -0.054,-0.023 -0.131,0.021 z m 1.708,0.145 c 0.033,-0.046 0.005,-0.114 -0.049,-0.126 -0.065,-0.015 -0.099,0.006 -0.126,0.038 -0.065,0.077 -0.113,0.141 -0.185,0.22 -0.02,0.022 -0.052,0.061 -0.085,0.106 -0.057,-0.089 -0.117,-0.177 -0.165,-0.272 -0.034,-0.06 -0.134,-0.076 -0.172,-0.012 -0.038,0.061 0.025,0.117 0.047,0.171 0.073,0.135 0.161,0.255 0.161,0.271 l -0.003,0.012 -0.018,0.021 c -0.071,0.091 -0.14,0.183 -0.202,0.281 -0.028,0.042 -0.079,0.09 -0.045,0.143 0.037,0.058 0.124,0.058 0.171,0.009 0.033,-0.035 0.084,-0.117 0.135,-0.187 0.038,-0.052 0.075,-0.093 0.083,-0.102 0.006,0.002 0.107,0.161 0.197,0.242 0.044,0.032 0.108,0.018 0.139,-0.024 0.032,-0.032 0.011,-0.082 -0.018,-0.107 -0.07,-0.086 -0.131,-0.178 -0.193,-0.276 0.105,-0.144 0.225,-0.269 0.328,-0.408 z m -2.26,0.413 c -0.074,-0.047 -0.156,-0.076 -0.232,-0.12 -0.043,-0.027 -0.065,-0.093 -0.023,-0.131 0.058,-0.065 0.17,-0.064 0.229,0 0.025,0.039 0.061,0.08 0.113,0.074 0.057,0.001 0.115,-0.054 0.095,-0.113 -0.037,-0.088 -0.12,-0.151 -0.21,-0.179 -0.116,-0.037 -0.247,-0.004 -0.344,0.064 -0.087,0.062 -0.141,0.177 -0.106,0.283 0.029,0.1 0.116,0.169 0.207,0.211 0.067,0.033 0.14,0.06 0.193,0.114 0.03,0.04 0,0.095 -0.045,0.105 -0.057,0.022 -0.13,0.013 -0.17,-0.037 -0.045,-0.054 -0.14,-0.045 -0.175,0.016 -0.029,0.044 -0.002,0.1 0.037,0.128 0.068,0.057 0.159,0.077 0.246,0.075 0.062,0.003 0.125,-0.005 0.179,-0.037 0.088,-0.048 0.158,-0.14 0.157,-0.243 0.002,-0.096 -0.076,-0.167 -0.151,-0.209 z m 3.021,-0.432 c -0.044,-0.002 -0.094,-0.012 -0.133,0.017 -0.045,0.018 -0.086,0.076 -0.044,0.119 0.008,0.01 0.018,0.022 0.018,0.022 0,0 -0.006,0.09 -0.004,0.126 -0.001,0.123 -0.011,0.246 -0.006,0.369 0.008,0.107 0.018,0.219 0.073,0.314 0.058,0.079 0.163,0.113 0.258,0.093 0.079,-0.013 0.155,-0.039 0.228,-0.069 0.046,-0.021 0.058,-0.09 0.022,-0.125 -0.037,-0.043 -0.099,-0.033 -0.146,-0.016 -0.057,0.016 -0.113,0.038 -0.173,0.04 -0.04,-0.025 -0.035,-0.088 -0.048,-0.13 -0.007,-0.053 -0.011,-0.106 -0.012,-0.16 0.114,-0.019 0.23,-0.018 0.345,-0.031 0.056,-0.005 0.099,-0.072 0.065,-0.121 -0.033,-0.049 -0.099,-0.042 -0.15,-0.042 -0.084,0.005 -0.168,0.014 -0.253,0.021 -0.004,-0.043 -10e-4,-0.088 -10e-4,-0.132 v -0.128 c 0.039,-0.012 0.086,-0.005 0.127,-0.012 0.071,-0.005 0.143,-0.005 0.214,-0.01 0.053,-0.006 0.096,-0.071 0.062,-0.119 -0.035,-0.051 -0.105,-0.048 -0.16,-0.051 -0.093,0.008 -0.188,0.017 -0.282,0.025 z m 2.811,0.093 c 0.034,-0.003 0.083,-0.001 0.101,0.038 0.023,0.046 -0.024,0.093 -0.069,0.096 -0.1,0.005 -0.2,0.023 -0.298,0.045 -0.012,0.072 -0.008,0.147 -0.01,0.22 0.066,-0.005 0.13,-0.02 0.195,-0.024 0.043,0 0.089,0.046 0.066,0.088 -0.019,0.041 -0.067,0.045 -0.107,0.05 -0.05,0.005 -0.1,0.008 -0.15,0.018 -0.01,-10e-4 -0.007,0.008 -0.007,0.016 0.005,0.07 0.01,0.141 0.014,0.211 -0.005,0.04 0.036,0.077 0.004,0.115 -0.03,0.041 -0.098,0.034 -0.133,0.001 -0.036,-0.033 -0.029,-0.085 -0.035,-0.128 -0.015,-0.163 -0.017,-0.328 -0.001,-0.491 0.001,-0.026 0.006,-0.068 0.002,-0.085 -0.031,-0.021 -0.029,-0.071 -10e-4,-0.094 0.029,-0.02 0.067,-0.02 0.1,-0.029 0.108,-0.02 0.216,-0.045 0.326,-0.049 z m 1.821,0.184 c 0.05,0.041 0.079,0.107 0.07,0.172 -0.012,0.098 -0.096,0.172 -0.187,0.199 -0.011,0.013 0.037,0.042 0.049,0.06 0.03,0.032 0.069,0.055 0.098,0.088 0.015,0.021 0.041,0.035 0.044,0.064 0.008,0.051 -0.053,0.086 -0.098,0.072 -0.035,-0.012 -0.058,-0.045 -0.086,-0.067 -0.068,-0.057 -0.126,-0.124 -0.188,-0.187 -0.021,-0.004 -0.042,0.001 -0.063,0.001 0.003,0.034 0.004,0.068 0.006,0.102 10e-4,0.046 0.012,0.092 0,0.137 -0.021,0.059 -0.11,0.068 -0.143,0.016 -0.024,-0.039 -0.015,-0.087 -0.016,-0.13 -0.008,-0.155 -0.026,-0.31 -0.016,-0.465 0.006,-0.037 -0.009,-0.086 0.03,-0.11 0.035,-0.018 0.075,-0.022 0.113,-0.032 0.039,-0.008 0.081,-0.011 0.119,-0.013 0.095,0.005 0.196,0.028 0.268,0.092 z m -0.375,0.058 c -0.007,0.061 0.003,0.124 0.004,0.185 -0.012,0.036 0.026,0.024 0.047,0.025 0.06,-0.004 0.125,-0.005 0.179,-0.037 0.03,-0.02 0.068,-0.048 0.06,-0.089 -0.004,-0.04 -0.039,-0.066 -0.075,-0.077 -0.032,-0.015 -0.067,-0.023 -0.102,-0.021 -0.038,0.004 -0.076,0.007 -0.113,0.015 z m -0.729,-0.104 c 0.104,0.009 0.198,0.075 0.254,0.161 0.074,0.109 0.07,0.26 0.004,0.371 -0.052,0.091 -0.152,0.145 -0.254,0.16 -0.025,0.005 -0.052,0.002 -0.077,0.009 -0.106,0.003 -0.212,-0.048 -0.278,-0.131 -0.059,-0.071 -0.08,-0.167 -0.067,-0.258 0.01,-0.105 0.067,-0.206 0.158,-0.263 0.056,-0.035 0.118,-0.064 0.183,-0.069 0.026,-0.002 0.052,0.01 0.077,0.019 z m -0.144,0.147 c -0.103,0.052 -0.14,0.188 -0.1,0.292 0.027,0.075 0.106,0.123 0.184,0.124 0.096,0.007 0.182,-0.07 0.204,-0.16 0.027,-0.092 -0.016,-0.2 -0.103,-0.243 -0.037,-0.022 -0.082,-0.017 -0.12,-0.035 -0.018,0.004 -0.044,0.011 -0.065,0.022 z m 8.401,-0.409 c 0.02,0.035 -0.01,0.077 -0.046,0.084 -0.08,0.008 -0.161,0.012 -0.241,0.02 0.003,0.062 0.004,0.125 0.006,0.187 0.061,-0.007 0.122,-0.015 0.184,-0.021 0.036,-0.001 0.082,-0.008 0.105,0.026 0.026,0.035 -0.003,0.086 -0.044,0.09 -0.081,0.01 -0.164,0.012 -0.244,0.028 0.003,0.057 0.009,0.115 0.025,0.169 0.003,0.027 0.026,0.044 0.051,0.031 0.047,-0.01 0.09,-0.029 0.137,-0.04 0.038,-0.009 0.077,0.019 0.079,0.058 0.005,0.042 -0.04,0.06 -0.073,0.07 -0.051,0.02 -0.103,0.034 -0.157,0.041 -0.058,0.004 -0.119,-0.023 -0.152,-0.07 -0.042,-0.075 -0.051,-0.162 -0.057,-0.246 -0.003,-0.087 -0.002,-0.174 0,-0.261 -0.002,-0.027 0.007,-0.067 -0.014,-0.08 -0.03,-0.028 -0.006,-0.07 0.025,-0.085 0.023,-0.019 0.067,-0.023 0.086,-0.017 0.041,-0.003 0.082,-0.009 0.123,-0.014 0.033,-0.004 0.07,-0.008 0.099,-0.01 0.036,0.002 0.086,0.002 0.108,0.04 z m -0.751,0.032 c 0.035,0.017 0.076,0.038 0.089,0.077 0.013,0.043 -0.031,0.079 -0.071,0.075 -0.035,0.003 -0.057,-0.029 -0.087,-0.041 -0.051,-0.012 -0.108,0 -0.152,0.028 -0.079,0.052 -0.106,0.153 -0.103,0.243 -10e-4,0.076 0.028,0.161 0.1,0.197 0.071,0.034 0.167,0.026 0.222,-0.035 0.021,-0.027 0.056,-0.045 0.09,-0.037 0.038,0.006 0.068,0.05 0.047,0.085 -0.041,0.059 -0.105,0.105 -0.176,0.123 -0.027,0.006 -0.058,0.013 -0.084,0.009 -0.074,0.001 -0.151,-0.012 -0.214,-0.054 -0.087,-0.058 -0.127,-0.164 -0.136,-0.264 -0.009,-0.096 0.014,-0.197 0.069,-0.278 0.063,-0.095 0.176,-0.148 0.288,-0.149 0.04,-0.001 0.081,0.005 0.118,0.021 z m -1.203,0.033 c 0.04,0.029 0.068,0.071 0.097,0.11 0.073,0.104 0.148,0.207 0.225,0.309 0.002,-0.084 0.003,-0.168 0.007,-0.251 10e-4,-0.028 0.006,-0.057 0,-0.083 -0.014,-0.031 0.006,-0.069 0.037,-0.08 0.046,-0.024 0.101,0.016 0.109,0.063 0.002,0.061 -0.004,0.122 -0.004,0.183 0.003,0.113 -0.009,0.226 -0.021,0.338 -0.001,0.04 -0.027,0.079 -0.067,0.087 -0.037,0.01 -0.07,-0.018 -0.09,-0.046 -0.091,-0.128 -0.183,-0.255 -0.274,-0.384 -0.004,0.088 -0.011,0.176 -0.008,0.264 0,0.044 0.011,0.089 0.003,0.133 -0.009,0.041 -0.052,0.066 -0.092,0.057 -0.04,-0.006 -0.051,-0.049 -0.049,-0.084 -0.011,-0.123 -0.006,-0.246 -0.003,-0.369 0.003,-0.061 0,-0.122 0.008,-0.183 0,-0.04 0.035,-0.077 0.075,-0.076 0.017,-0.001 0.033,0.004 0.046,0.012 z m -0.871,0.134 c 0.021,0.025 0.049,0.057 0.034,0.092 -0.02,0.048 -0.092,0.057 -0.124,0.017 -0.011,-0.021 -0.029,-0.038 -0.051,-0.046 -0.044,-0.02 -0.106,-0.004 -0.129,0.04 -0.015,0.033 0.014,0.065 0.042,0.079 0.073,0.035 0.154,0.062 0.212,0.121 0.039,0.038 0.046,0.099 0.03,0.149 -0.024,0.082 -0.105,0.136 -0.186,0.148 -0.055,0.007 -0.11,-0.011 -0.159,-0.033 -0.033,-0.016 -0.074,-0.04 -0.076,-0.082 -0.002,-0.044 0.044,-0.077 0.086,-0.068 0.027,0.002 0.044,0.024 0.063,0.04 0.031,0.019 0.072,0.016 0.103,0.001 0.032,-0.011 0.036,-0.056 0.008,-0.074 -0.067,-0.052 -0.158,-0.065 -0.218,-0.128 -0.051,-0.049 -0.072,-0.128 -0.043,-0.194 0.04,-0.088 0.139,-0.136 0.233,-0.138 0.065,0.001 0.131,0.029 0.175,0.076 z m 0.364,-0.07 c -0.045,-0.003 -0.082,0.045 -0.076,0.088 0.002,0.096 -0.008,0.191 -0.007,0.287 10e-4,0.069 0.003,0.139 0.016,0.207 0.007,0.028 0.026,0.057 0.057,0.06 0.045,0.008 0.094,-0.03 0.09,-0.077 0.004,-0.07 -0.016,-0.139 -0.013,-0.21 -0.004,-0.087 -0.003,-0.176 0.017,-0.262 0.006,-0.048 -0.037,-0.093 -0.084,-0.093 z m 3.219,0.821 c 0.024,0.011 0.067,0.012 0.085,-0.01 0.01,-0.012 0.015,-0.028 0.018,-0.047 0.007,-0.038 0.006,-0.092 0.006,-0.169 0.002,-0.089 0.002,-0.21 0.01,-0.369 v 0 0 0 0 0 0 0 0 c -0.002,-0.016 0.001,-0.04 0.003,-0.065 v 0 0 0 0 c 0,0 0.001,-0.039 0.001,-0.058 -0.001,-0.033 -0.006,-0.059 -0.02,-0.079 -0.014,-0.019 -0.036,-0.029 -0.064,-0.03 -0.018,0.001 -0.032,0.008 -0.046,0.018 l -0.059,0.06 c -0.024,0.029 -0.046,0.056 -0.077,0.077 -0.033,0.016 -0.053,0.049 -0.051,0.083 0,0.017 0.005,0.031 0.015,0.041 0.01,0.011 0.025,0.017 0.041,0.017 0.034,0 0.071,-0.022 0.112,-0.055 l -0.004,0.089 c -0.002,0.076 -0.004,0.15 -0.009,0.226 v 0.001 0.011 c 0,0.013 0.001,0.033 -10e-4,0.057 -0.002,0.029 -0.007,0.063 -0.004,0.096 0.002,0.034 0.007,0.059 0.015,0.077 0.006,0.013 0.017,0.022 0.029,0.029 z m 0.914,-0.311 c 0.03,-0.154 -0.009,-0.327 -0.123,-0.439 -0.048,-0.045 -0.105,-0.083 -0.171,-0.089 -0.036,-0.007 -0.068,-0.003 -0.105,0.003 -0.099,0.014 -0.185,0.093 -0.208,0.19 -0.033,0.108 0.006,0.237 0.101,0.301 0.082,0.06 0.197,0.059 0.284,0.01 0.03,-0.01 0.071,-0.054 0.088,-0.055 -0.003,0.089 -0.036,0.186 -0.117,0.234 -0.05,0.031 -0.114,0.026 -0.164,-0.001 -0.024,-0.018 -0.076,-0.018 -0.098,0.012 -0.027,0.037 0.003,0.086 0.037,0.105 0.054,0.032 0.119,0.048 0.182,0.046 0.041,-10e-4 0.249,-0.082 0.294,-0.318 z m -0.159,-0.253 c -0.048,0.072 -0.132,0.126 -0.22,0.126 -0.045,0.002 -0.088,-0.03 -0.098,-0.074 -0.02,-0.062 -0.001,-0.134 0.05,-0.175 0.02,-0.015 0.044,-0.023 0.069,-0.024 0.09,-0.002 0.165,0.068 0.199,0.147 z m 0.346,0.182 c 0.071,0.08 0.193,0.103 0.29,0.062 0.045,-0.018 0.087,-0.045 0.124,-0.076 -0.001,0.091 -0.035,0.191 -0.117,0.24 -0.05,0.031 -0.115,0.026 -0.165,-0.001 -0.024,-0.018 -0.076,-0.019 -0.098,0.012 -0.027,0.037 0.003,0.086 0.037,0.105 0.055,0.032 0.119,0.048 0.182,0.046 0.041,-10e-4 0.081,-0.011 0.114,-0.036 0.096,-0.07 0.156,-0.183 0.181,-0.298 0.026,-0.134 -0.009,-0.28 -0.094,-0.387 -0.041,-0.049 -0.094,-0.093 -0.155,-0.114 -0.032,-0.009 -0.066,-0.014 -0.099,-0.014 -0.092,-0.001 -0.186,0.045 -0.232,0.127 -0.059,0.103 -0.052,0.246 0.032,0.335 z m 0.163,-0.056 c -0.046,0 -0.085,-0.036 -0.093,-0.08 -0.013,-0.048 -0.005,-0.101 0.025,-0.141 0.022,-0.031 0.058,-0.051 0.095,-0.051 0.089,-0.002 0.167,0.067 0.2,0.146 -0.05,0.072 -0.136,0.13 -0.227,0.126 z m 0.631,-0.049 c -0.043,0.05 -0.092,0.101 -0.106,0.168 -0.03,0.126 0.04,0.266 0.158,0.319 0.066,0.035 0.143,0.048 0.216,0.03 0.132,-0.027 0.237,-0.151 0.237,-0.287 -0.002,-0.084 -0.034,-0.173 -0.105,-0.222 0.026,-0.042 0.054,-0.086 0.055,-0.137 0.01,-0.089 -0.048,-0.174 -0.126,-0.212 -0.051,-0.026 -0.109,-0.038 -0.165,-0.037 -0.108,0.012 -0.207,0.102 -0.215,0.213 -0.004,0.059 0.017,0.117 0.051,0.165 z m 0.095,-0.128 c -0.012,-0.041 0.01,-0.088 0.052,-0.102 0.015,-0.006 0.047,-0.01 0.047,-0.01 0.053,-0.002 0.12,0.03 0.124,0.09 -0.003,0.045 -0.03,0.095 -0.078,0.102 -0.058,0.013 -0.132,-0.015 -0.145,-0.08 z m 0.229,0.458 c -0.049,0.059 -0.139,0.07 -0.205,0.034 -0.079,-0.038 -0.119,-0.15 -0.067,-0.224 0.027,-0.037 0.076,-0.049 0.119,-0.051 0.054,0.009 0.121,-0.007 0.162,0.039 0.054,0.055 0.042,0.148 -0.009,0.202 z M 1.69,105.714 c -0.065,0.099 -0.103,0.221 -0.085,0.34 0.013,0.097 0.055,0.188 0.112,0.267 0.083,0.108 0.246,0.131 0.364,0.071 0.013,-0.003 0.026,-0.008 0.026,-0.008 0,0 0.052,0.079 0.082,0.104 0.016,0.013 0.032,0.025 0.05,0.027 0.028,0.003 0.056,-0.013 0.073,-0.037 0.026,-0.037 -0.011,-0.075 -0.031,-0.105 -0.026,-0.035 -0.056,-0.066 -0.08,-0.103 0.031,-0.083 0.058,-0.168 0.062,-0.257 0.005,-0.097 -0.007,-0.198 -0.049,-0.287 -0.045,-0.082 -0.137,-0.126 -0.227,-0.135 -0.08,-0.01 -0.228,0.008 -0.298,0.122 z m 0.391,0.449 c 0,0 -0.026,-0.033 -0.067,-0.032 -0.065,0.002 -0.093,0.067 -0.061,0.103 0.012,0.01 0.051,0.042 0.051,0.042 0,0 -0.013,0.01 -0.032,0.01 -0.049,0.007 -0.1,-0.013 -0.128,-0.055 -0.099,-0.12 -0.115,-0.306 -0.026,-0.436 0.064,-0.118 0.267,-0.075 0.28,0.061 0.025,0.104 0.009,0.215 -0.017,0.307 z m 3.298,0.19 c 0.026,0.035 0.056,0.08 0.106,0.076 0.036,-0.001 0.071,-0.035 0.068,-0.071 -0.012,-0.045 -0.05,-0.075 -0.076,-0.113 -0.05,-0.064 -0.1,-0.127 -0.147,-0.193 0.08,-0.028 0.149,-0.1 0.155,-0.188 0.009,-0.079 -0.028,-0.163 -0.098,-0.202 -0.149,-0.086 -0.31,-0.065 -0.416,-0.046 v 0 c -0.045,0.012 -0.054,0.067 -0.047,0.107 0.008,0.123 0.007,0.246 0.004,0.369 0.001,0.113 0.006,0.225 0.017,0.337 0.01,0.045 0.066,0.069 0.106,0.05 0.042,-0.005 0.052,-0.055 0.045,-0.09 -0.011,-0.098 -0.015,-0.207 -0.014,-0.306 0.033,0.003 0.067,0.006 0.092,0.003 0.022,0.019 0.036,0.064 0.204,0.267 z m -0.057,-0.564 c 0.031,0.042 0.011,0.11 -0.034,0.134 -0.066,0.023 -0.138,0.04 -0.207,0.021 -0.004,-0.07 -0.008,-0.139 -0.011,-0.209 0.062,-0.016 0.12,-0.008 0.176,0.011 0.029,0.008 0.053,0.025 0.075,0.043 z m -1.733,0.171 c -0.004,-0.069 -0.006,-0.138 -0.01,-0.207 0.068,-0.018 0.139,-0.024 0.209,-0.028 0.042,0.001 0.098,0.006 0.118,-0.04 0.01,-0.029 -0.006,-0.068 -0.036,-0.082 -0.026,-0.014 -0.055,-0.015 -0.082,-0.013 -0.1,0.004 -0.2,0.012 -0.298,0.034 -0.039,0.007 -0.074,0.041 -0.068,0.083 0.004,0.054 10e-4,0.108 0.007,0.162 0.009,0.129 0,0.258 0.014,0.386 0.01,0.076 0.054,0.153 0.129,0.18 0.06,0.019 0.125,0.016 0.186,0.004 0.041,-0.011 0.091,-0.023 0.113,-0.064 0.02,-0.04 -0.015,-0.087 -0.057,-0.089 -0.051,-0.009 -0.094,0.033 -0.145,0.029 -0.04,0.01 -0.058,-0.033 -0.062,-0.064 -0.01,-0.047 -0.009,-0.097 -0.018,-0.143 0.073,-0.013 0.149,-0.021 0.221,-0.042 0.036,-0.01 0.06,-0.053 0.041,-0.088 -0.021,-0.04 -0.072,-0.04 -0.111,-0.034 -0.05,0.005 -0.101,0.01 -0.151,0.015 z m 0.725,-0.203 c 0.025,-0.012 0.058,-0.014 0.085,-0.019 0.059,-0.008 0.119,-0.014 0.179,-0.011 0.039,0 0.077,-0.035 0.066,-0.075 -0.013,-0.049 -0.072,-0.065 -0.116,-0.06 -0.101,0.004 -0.203,0.012 -0.303,0.034 -0.039,0.006 -0.072,0.042 -0.067,0.083 10e-4,0.061 0.002,0.122 0.007,0.183 0.005,0.106 0.002,0.212 0.01,0.318 0.002,0.083 0.032,0.175 0.11,0.217 0.045,0.025 0.1,0.025 0.15,0.023 0.054,-0.004 0.11,-0.017 0.155,-0.049 0.029,-0.024 0.034,-0.07 0.004,-0.095 -0.038,-0.032 -0.093,-0.018 -0.133,0.001 -0.028,0.009 -0.062,0.017 -0.089,0.003 -0.03,-0.03 -0.029,-0.077 -0.036,-0.116 -0.004,-0.028 -0.003,-0.058 -0.01,-0.084 0.075,-0.014 0.153,-0.021 0.226,-0.043 0.038,-0.011 0.054,-0.06 0.032,-0.092 -0.026,-0.037 -0.076,-0.031 -0.116,-0.026 -0.048,0.004 -0.096,0.01 -0.143,0.014 -0.004,-0.069 -0.006,-0.138 -0.011,-0.206 z m -1.31,0.146 c -0.003,0.101 -0.015,0.206 -0.067,0.294 -0.025,0.038 -0.069,0.079 -0.118,0.066 -0.045,-0.016 -0.064,-0.066 -0.08,-0.107 -0.035,-0.105 -0.038,-0.216 -0.041,-0.326 -0.003,-0.048 -0.003,-0.097 -0.011,-0.144 -0.006,-0.034 -0.04,-0.058 -0.074,-0.053 -0.036,-10e-4 -0.079,0.027 -0.073,0.067 0,0.079 10e-4,0.158 0.003,0.237 0.007,0.092 0.026,0.182 0.051,0.27 0.021,0.061 0.057,0.121 0.116,0.152 0.073,0.04 0.167,0.049 0.242,0.01 0.057,-0.031 0.105,-0.079 0.132,-0.139 0.066,-0.128 0.073,-0.275 0.074,-0.415 0.003,-0.042 0.01,-0.094 -0.025,-0.125 -0.013,-0.011 -0.029,-0.015 -0.046,-0.015 -0.043,-0.004 -0.077,0.035 -0.079,0.076 -0.003,0.051 -0.003,0.101 -0.004,0.152 z"
       style="fill:#f7f6f3;fill-opacity:1"
       transform="translate(245,-45)" /><path
       id="use82-5-6-9"
       d="m 16.1872,105.352 c 0.056,0.016 0.089,0.078 0.077,0.133 -0.002,0.052 -0.018,0.104 -0.014,0.157 -0.006,0.154 -0.008,0.308 -0.002,0.462 0.005,0.034 -0.001,0.069 0.005,0.103 0.037,-0.006 0.076,-0.008 0.114,-0.012 0.072,-0.005 0.151,-0.024 0.218,0.011 0.05,0.029 0.044,0.109 -0.007,0.133 -0.041,0.02 -0.088,0.017 -0.133,0.023 -0.071,0.007 -0.143,0.007 -0.214,0.013 -0.072,0.008 -0.157,-0.03 -0.174,-0.106 -0.01,-0.069 -0.012,-0.139 -0.016,-0.209 0,-0.126 -0.007,-0.252 0.001,-0.377 0.012,-0.077 0.002,-0.155 0.005,-0.232 -0.004,-0.054 0.042,-0.104 0.095,-0.104 0.014,0 0.029,0.002 0.043,0.005 z m 0.932,0.009 c 0.045,0.024 0.062,0.08 0.053,0.128 -0.002,0.047 -0.015,0.094 -0.013,0.141 -0.002,0.1 -0.007,0.199 -0.005,0.299 -0.001,0.081 0.005,0.163 0.005,0.244 -0.016,0.055 0.038,0.03 0.07,0.029 0.079,-0.005 0.158,-0.024 0.236,-0.006 0.056,0.007 0.088,0.081 0.049,0.124 -0.035,0.044 -0.094,0.037 -0.144,0.044 -0.079,0.008 -0.158,0.008 -0.237,0.015 -0.072,0.006 -0.156,-0.036 -0.169,-0.113 -0.01,-0.095 -0.015,-0.191 -0.017,-0.286 0,-0.099 -0.006,-0.198 0.004,-0.297 0.012,-0.077 0.002,-0.156 0.005,-0.233 -0.004,-0.054 0.042,-0.104 0.096,-0.105 0.023,-0.001 0.047,0.005 0.067,0.016 z m -1.557,0.16 c 0.09,0.206 0.132,0.43 0.17,0.651 0.005,0.05 0.028,0.103 0.007,0.152 -0.04,0.084 -0.189,0.059 -0.199,-0.034 -0.002,-0.051 0.005,-0.103 -0.015,-0.151 -0.132,0.006 -0.264,0.001 -0.396,0.005 -0.005,0.013 -0.005,0.026 -0.008,0.039 -0.018,0.06 -0.029,0.123 -0.056,0.18 -0.035,0.065 -0.137,0.066 -0.179,0.007 -0.029,-0.043 0.007,-0.091 0.013,-0.136 0.01,-0.048 0.033,-0.099 0.03,-0.146 -0.033,-0.049 10e-4,-0.096 0.039,-0.125 0.053,-0.166 0.094,-0.339 0.181,-0.491 0.036,-0.069 0.098,-0.135 0.181,-0.135 0.075,0.002 0.159,0.023 0.232,0.185 z m -0.379,0.439 c 0.102,-0.002 0.205,0.001 0.308,-0.004 -0.021,-0.098 -0.046,-0.195 -0.082,-0.288 -0.019,-0.039 -0.03,-0.092 -0.069,-0.115 -0.058,0.095 -0.095,0.205 -0.1275,0.311 -0.0065,0.032 -0.0235,0.063 -0.0295,0.096 z"
       style="display:inline;fill:#f7f6f3;fill-opacity:1"
       transform="translate(245,-45)" /><path
       id="use83-5-6-7"
       d="m 16.1,88.9 c -0.32,-0.01 -0.67,0.04 -1.05,0.16 0.57,0.92 1.18,1.82 1.67,2.8 1,1.55 1.35,3.45 1.04,5.27 -0.09,1.02 -0.35,2.05 -0.81,2.97 0.7,1.35 1.1,2.41 1.1,2.41 0,0 10.38,-8.41 6.56,-12.42 0,0 -3.11,-2.82 -4.77,3.45 0,0 -0.89,-4.53 -3.74,-4.64 z m -2.74,1.01 c -2.07,1.84 -0.39,5.07 1.32,6.9 0.3,0.33 0.58,0.67 0.85,1.03 l -0.27,-3.7 z"
       style="display:inline;fill:#f7f6f3;fill-opacity:1"
       transform="translate(245,-45)" /><path
       id="use13-5-3-4-4-0"
       d="m 15.06,-85.28 c 0.37,1.57 0.21,3.22 -0.44,4.7 -0.82,2.33 -3.16,3.82 -5.59,4.11 -1.6,0.19 -3.22,-0.03 -4.6,-0.85 -1.89,-0.99 -2.84,-3.2 -2.65,-5.28 0.13,-1.45 0.78,-2.84 1.7,-3.95 1.24,-1.15 3.11,-1.9 4.76,-1.2 1.2,0.51 2.19,1.79 2.12,3.13 -0.03,0.5 -0.3,0.91 -0.66,1.2 -0.39,0.32 -0.86,0.4 -1.32,0.4 -0.39,0 -0.89,0.04 -0.89,0.46 0,0.38 0.33,0.66 0.89,0.66 0.99,-0.01 1.5,-0.37 1.98,-0.92 0.97,-1.11 1.16,-2.63 0.59,-3.7 -1.01,-1.88 -3,-2.8 -5.44,-2.37 -4.6,0.81 -5.51,5.23 -5.51,7.19 0,1.24 0.43,4.45 4.63,5.99 1.05,0.38 2.98,0.45 4.27,0.45 2.2,0 4.21,-1.26 5.82,-2.7 1.41,-1.24 2.07,-3.08 2.2,-4.91 0.29,-1.82 -0.09,-3.72 -1.11,-5.27 -0.76,-1.49 -1.83,-2.8 -2.54,-4.31 -0.75,-1.69 -0.35,-3.74 0.63,-5.25 1.03,-1.57 3.21,-1.82 4.81,-1.08 0.82,0.33 1.93,1.26 1.98,2.32 0.02,0.33 -0.08,0.69 -0.23,1.08 -0.59,0.01 -1.24,-0.06 -1.81,0.13 -0.46,0.15 -0.74,0.56 -0.73,1.04 0.03,0.24 0.11,0.47 0.27,0.62 0.51,0.41 1.08,0.36 1.6,0.09 0.47,-0.25 0.87,-0.62 1.16,-1.06 0.41,0.07 0.8,0.17 1.22,0.19 0.79,0.08 3.29,-0.18 3.71,-2.03 0.18,-0.78 -0.16,-1.47 -0.37,-1.68 -0.37,-0.35 -0.91,-0.49 -1.35,-0.26 -0.24,0.15 -0.42,0.52 -0.2,0.7 0.31,0.25 0.93,0.14 1.03,0.63 0.02,0.25 -0.23,2.39 -3.73,1.77 0.35,-0.73 0.36,-1.49 0.06,-2.25 -1.24,-2.38 -4.05,-2.51 -4.69,-2.51 -0.23,0 -3.81,-0.08 -4.91,3.38 -0.8,2.16 0.07,4.5 1.12,6.41 0.99,1.52 1.71,3.2 2.22,4.93 z m 4.26,-9.37 c 0.23,-0.06 0.56,-0.03 0.56,-0.03 0,0 -0.34,0.24 -0.49,0.29 -0.15,0.06 -0.42,0.04 -0.42,0.04 0,0 0.12,-0.23 0.35,-0.3 z"
       style="display:inline;fill:#f7f6f3;fill-opacity:1"
       transform="translate(245,135)" /></g></svg>
