<?xml version="1.0" encoding="UTF-8" standalone="no"?>
<!-- Created with Inkscape (http://www.inkscape.org/) -->

<svg
   width="260"
   height="260"
   viewBox="0 0 26 26"
   version="1.1"
   id="svg5"
   xml:space="preserve"
   xmlns="http://www.w3.org/2000/svg"
   xmlns:svg="http://www.w3.org/2000/svg"><defs
     id="defs2" /><g
     id="layer4"
     transform="translate(-273,-35)"><path
       id="use83-5-6-1"
       d="m 16.1,88.9 c -0.32,-0.01 -0.67,0.04 -1.05,0.16 0.57,0.92 1.18,1.82 1.67,2.8 1,1.55 1.35,3.45 1.04,5.27 -0.09,1.02 -0.35,2.05 -0.81,2.97 0.7,1.35 1.1,2.41 1.1,2.41 0,0 10.38,-8.41 6.56,-12.42 0,0 -3.11,-2.82 -4.77,3.45 0,0 -0.89,-4.53 -3.74,-4.64 z m -2.74,1.01 c -2.07,1.84 -0.39,5.07 1.32,6.9 0.3,0.33 0.58,0.67 0.85,1.03 l -0.27,-3.7 z"
       style="display:inline;fill:#e8e8e8;fill-opacity:1"
       transform="translate(273,-45)" /><path
       id="use13-5-3-4-4-5"
       d="m 15.06,-85.28 c 0.37,1.57 0.21,3.22 -0.44,4.7 -0.82,2.33 -3.16,3.82 -5.59,4.11 -1.6,0.19 -3.22,-0.03 -4.6,-0.85 -1.89,-0.99 -2.84,-3.2 -2.65,-5.28 0.13,-1.45 0.78,-2.84 1.7,-3.95 1.24,-1.15 3.11,-1.9 4.76,-1.2 1.2,0.51 2.19,1.79 2.12,3.13 -0.03,0.5 -0.3,0.91 -0.66,1.2 -0.39,0.32 -0.86,0.4 -1.32,0.4 -0.39,0 -0.89,0.04 -0.89,0.46 0,0.38 0.33,0.66 0.89,0.66 0.99,-0.01 1.5,-0.37 1.98,-0.92 0.97,-1.11 1.16,-2.63 0.59,-3.7 -1.01,-1.88 -3,-2.8 -5.44,-2.37 -4.6,0.81 -5.51,5.23 -5.51,7.19 0,1.24 0.43,4.45 4.63,5.99 1.05,0.38 2.98,0.45 4.27,0.45 2.2,0 4.21,-1.26 5.82,-2.7 1.41,-1.24 2.07,-3.08 2.2,-4.91 0.29,-1.82 -0.09,-3.72 -1.11,-5.27 -0.76,-1.49 -1.83,-2.8 -2.54,-4.31 -0.75,-1.69 -0.35,-3.74 0.63,-5.25 1.03,-1.57 3.21,-1.82 4.81,-1.08 0.82,0.33 1.93,1.26 1.98,2.32 0.02,0.33 -0.08,0.69 -0.23,1.08 -0.59,0.01 -1.24,-0.06 -1.81,0.13 -0.46,0.15 -0.74,0.56 -0.73,1.04 0.03,0.24 0.11,0.47 0.27,0.62 0.51,0.41 1.08,0.36 1.6,0.09 0.47,-0.25 0.87,-0.62 1.16,-1.06 0.41,0.07 0.8,0.17 1.22,0.19 0.79,0.08 3.29,-0.18 3.71,-2.03 0.18,-0.78 -0.16,-1.47 -0.37,-1.68 -0.37,-0.35 -0.91,-0.49 -1.35,-0.26 -0.24,0.15 -0.42,0.52 -0.2,0.7 0.31,0.25 0.93,0.14 1.03,0.63 0.02,0.25 -0.23,2.39 -3.73,1.77 0.35,-0.73 0.36,-1.49 0.06,-2.25 -1.24,-2.38 -4.05,-2.51 -4.69,-2.51 -0.23,0 -3.81,-0.08 -4.91,3.38 -0.8,2.16 0.07,4.5 1.12,6.41 0.99,1.52 1.71,3.2 2.22,4.93 z m 4.26,-9.37 c 0.23,-0.06 0.56,-0.03 0.56,-0.03 0,0 -0.34,0.24 -0.49,0.29 -0.15,0.06 -0.42,0.04 -0.42,0.04 0,0 0.12,-0.23 0.35,-0.3 z"
       style="display:inline;fill:#e8e8e8;fill-opacity:1"
       transform="translate(273,135)" /></g></svg>
