<?xml version="1.0" encoding="UTF-8" standalone="no"?>
<!-- Created with Inkscape (http://www.inkscape.org/) -->

<svg
   width="720"
   height="250"
   viewBox="0 0 72 25"
   version="1.1"
   id="svg5"
   xml:space="preserve"
   xmlns="http://www.w3.org/2000/svg"
   xmlns:svg="http://www.w3.org/2000/svg"><defs
     id="defs2" /><g
     id="layer4"
     transform="translate(-246,50)"><path
       id="use13-9"
       d="m 15.06,-85.28 c 0.37,1.57 0.21,3.22 -0.44,4.7 -0.82,2.33 -3.16,3.82 -5.59,4.11 -1.6,0.19 -3.22,-0.03 -4.6,-0.85 -1.89,-0.99 -2.84,-3.2 -2.65,-5.28 0.13,-1.45 0.78,-2.84 1.7,-3.95 1.24,-1.15 3.11,-1.9 4.76,-1.2 1.2,0.51 2.19,1.79 2.12,3.13 -0.03,0.5 -0.3,0.91 -0.66,1.2 -0.39,0.32 -0.86,0.4 -1.32,0.4 -0.39,0 -0.89,0.04 -0.89,0.46 0,0.38 0.33,0.66 0.89,0.66 0.99,-0.01 1.5,-0.37 1.98,-0.92 0.97,-1.11 1.16,-2.63 0.59,-3.7 -1.01,-1.88 -3,-2.8 -5.44,-2.37 -4.6,0.81 -5.51,5.23 -5.51,7.19 0,1.24 0.43,4.45 4.63,5.99 1.05,0.38 2.98,0.45 4.27,0.45 2.2,0 4.21,-1.26 5.82,-2.7 1.41,-1.24 2.07,-3.08 2.2,-4.91 0.29,-1.82 -0.09,-3.72 -1.11,-5.27 -0.76,-1.49 -1.83,-2.8 -2.54,-4.31 -0.75,-1.69 -0.35,-3.74 0.63,-5.25 1.03,-1.57 3.21,-1.82 4.81,-1.08 0.82,0.33 1.93,1.26 1.98,2.32 0.02,0.33 -0.08,0.69 -0.23,1.08 -0.59,0.01 -1.24,-0.06 -1.81,0.13 -0.46,0.15 -0.74,0.56 -0.73,1.04 0.03,0.24 0.11,0.47 0.27,0.62 0.51,0.41 1.08,0.36 1.6,0.09 0.47,-0.25 0.87,-0.62 1.16,-1.06 0.41,0.07 0.8,0.17 1.22,0.19 0.79,0.08 3.29,-0.18 3.71,-2.03 0.18,-0.78 -0.16,-1.47 -0.37,-1.68 -0.37,-0.35 -0.91,-0.49 -1.35,-0.26 -0.24,0.15 -0.42,0.52 -0.2,0.7 0.31,0.25 0.93,0.14 1.03,0.63 0.02,0.25 -0.23,2.39 -3.73,1.77 0.35,-0.73 0.36,-1.49 0.06,-2.25 -1.24,-2.38 -4.05,-2.51 -4.69,-2.51 -0.23,0 -3.81,-0.08 -4.91,3.38 -0.8,2.16 0.07,4.5 1.12,6.41 0.99,1.52 1.71,3.2 2.22,4.93 z m 4.26,-9.37 c 0.23,-0.06 0.56,-0.03 0.56,-0.03 0,0 -0.34,0.24 -0.49,0.29 -0.15,0.06 -0.42,0.04 -0.42,0.04 0,0 0.12,-0.23 0.35,-0.3 z"
       style="display:inline;fill:#e8e8e8;fill-opacity:1"
       transform="translate(246,50)" /><path
       id="use14-7"
       d="m 19.53,-86.1 c -1.13,1.41 -1.89,3 -1.76,4.78 0.08,0.96 0.83,1.83 2.21,1.83 1.04,0 2.95,-1.46 4.35,-2.86 -0.07,0.32 -0.11,0.61 -0.11,0.89 0,1.04 0.41,1.91 1.21,1.91 0.98,0 2.34,-1.55 3.06,-2.57 -0.09,0.4 -0.13,0.74 -0.13,1.06 0,1.04 0.47,1.57 1.34,1.57 1.76,0 4.13,-4.07 5.1,-6.89 1.06,0.36 1.78,0.36 1.61,0.63 -0.79,1.19 -2.29,3.72 -2.29,5.16 0,0.66 0.29,1.1 1.12,1.1 0.87,0 1.76,-0.57 2.74,-1.89 0.2,-0.26 0.37,-0.5 0.51,-0.7 -0.04,0.27 -0.06,0.54 -0.06,0.79 0,1 0.34,1.72 1.25,1.72 1.29,0 2.5,-1.47 3.36,-2.73 -0.01,0.1 -0.01,0.2 -0.01,0.29 0,2.12 1.04,2.44 1.93,2.44 1.19,0 2.23,-1.04 3.21,-2.39 -0.05,0.32 -0.07,0.61 -0.07,0.87 0,0.99 0.38,1.52 1.17,1.52 1.33,0 2.42,-1.3 3.43,-2.75 -0.01,0.11 -0.02,0.21 -0.02,0.31 0,2.12 1.04,2.44 1.93,2.44 1.28,0 2.4,-1.22 3.45,-2.73 -0.01,0.1 -0.01,0.2 -0.01,0.29 0,2.12 1.04,2.44 1.93,2.44 1.02,0 1.94,-0.77 2.8,-1.85 -0.24,0.63 -0.42,1.19 -0.47,1.56 -0.02,0.17 0.17,0.29 0.41,0.29 0.42,0 0.46,-0.15 0.55,-0.23 0.15,-0.34 0.59,-1.49 0.97,-2.31 1.04,-2.21 2.76,-4.61 3.67,-4.61 0.17,0 0.26,0.07 0.26,0.19 0,0.24 -0.19,0.66 -0.53,1.45 -0.6,1.33 -1.3,3.07 -1.3,4.26 0,0.81 0.55,1.25 1.26,1.25 1.95,0 3.71,-3.26 4.3,-4.09 0.02,-0.04 0.06,-0.17 -0.04,-0.23 -0.13,-0.09 -0.19,-0.07 -0.43,0.23 -0.65,0.85 -2.12,3.63 -3.81,3.63 -0.26,0 -0.36,-0.19 -0.36,-0.49 0,-1 1.12,-3.29 1.63,-4.56 0.21,-0.51 0.3,-0.96 0.3,-1.3 0,-0.72 -0.41,-1.17 -0.94,-1.17 -1.13,0 -2.02,0.88 -2.65,2.23 0.46,-1 0.62,-1.37 0.72,-1.78 0.07,-0.25 -0.23,-0.42 -0.42,-0.42 -0.47,0 -0.62,0.23 -0.72,0.42 -0.26,0.45 -0.68,1.19 -1.25,2.74 -0.17,0.45 -0.37,0.94 -0.57,1.44 -1.03,1.51 -2.08,2.89 -3.36,2.89 -0.66,0 -0.91,-0.56 -0.91,-1.34 0,-0.78 0.25,-1.78 0.63,-2.65 1.6,0 3.29,-1.04 3.29,-2.14 0,-0.85 -0.55,-1.26 -1.23,-1.26 -1.61,0 -3.04,2.26 -3.54,4.13 -1.1,1.64 -2.23,3.26 -3.61,3.26 -0.65,0 -0.91,-0.56 -0.91,-1.34 0,-0.78 0.26,-1.78 0.64,-2.65 1.59,0 3.29,-1.04 3.29,-2.14 0,-0.85 -0.56,-1.26 -1.23,-1.26 -1.62,0 -3.04,2.26 -3.54,4.12 -1.21,1.76 -2.22,3.27 -3.61,3.27 -0.26,0 -0.36,-0.19 -0.36,-0.53 0,-1.36 1.71,-4.99 3.11,-7.68 h 0.7 c 0.22,0 0.24,-0.09 0.28,-0.22 0.02,-0.08 0,-0.37 -0.11,-0.37 h -0.63 c 0.57,-1.11 1.08,-1.85 1.33,-2.32 0.09,-0.17 -0.12,-0.34 -0.27,-0.4 -0.09,-0.04 -0.19,-0.07 -0.3,-0.07 -0.13,0 -0.27,0.07 -0.4,0.24 -0.15,0.21 -0.77,1.15 -1.51,2.53 h -0.78 c -0.17,0 -0.26,0.14 -0.32,0.35 -0.02,0.09 0,0.24 0.11,0.24 h 0.76 c -0.88,1.68 -1.88,3.69 -2.39,5.12 -1.07,1.59 -2.17,3.11 -3.51,3.11 -0.66,0 -0.91,-0.56 -0.91,-1.34 0,-0.78 0.25,-1.78 0.64,-2.65 1.59,0 3.28,-1.04 3.28,-2.14 0,-0.85 -0.55,-1.26 -1.23,-1.26 -1.61,0 -3.03,2.26 -3.54,4.13 -0.76,1.14 -2.17,3.26 -3.46,3.26 -0.24,0 -0.46,-0.02 -0.46,-0.49 0,-0.74 0.59,-2.21 0.97,-3.12 0.83,-1.99 1.23,-2.86 1.78,-3.8 1.76,-0.65 3.67,-2.61 4.61,-4.26 0.4,-0.7 0.59,-1.38 0.59,-1.89 0,-0.68 -0.32,-1.12 -0.97,-1.12 -1.93,0 -6.09,7.82 -7.37,11.07 -0.06,0.16 -0.11,0.32 -0.16,0.48 -0.36,0.52 -0.91,1.32 -1.07,1.51 -1.17,1.46 -1.89,1.74 -2.29,1.74 -0.11,0 -0.19,-0.02 -0.26,-0.04 -0.08,-0.03 -0.12,-0.13 -0.12,-0.26 0.65,-2.72 2.32,-4.32 3.1,-6.79 0,-0.18 -0.17,-0.32 -0.41,-0.37 -0.33,-0.07 -1.67,0.09 -2.59,-0.13 0.13,-0.28 0.38,-0.81 0.38,-1.28 0,-0.52 -0.42,-1.08 -0.89,-1.08 -0.75,0 -1.18,0.83 -1.18,1.5 0,0.98 0.34,1.32 1.04,1.83 -1.01,2.55 -3.13,6.51 -4.7,6.57 -0.26,0.01 -0.47,-0.19 -0.47,-0.5 0,-0.73 0.6,-2.08 1.02,-3.06 0.36,-0.83 1.49,-3.24 1.49,-3.46 0,-0.34 -0.22,-0.48 -0.49,-0.48 -0.41,0 -0.47,0.08 -1.04,1.08 -0.53,-0.62 -1,-1 -1.64,-1 -1.54,0 -3.34,2.22 -4.07,4.25 -1.43,1.51 -3.75,3.16 -4.65,3.16 -0.54,0 -0.83,-0.27 -0.85,-0.6 -0.05,-0.59 0.02,-1.45 0.3,-2.28 0.4,-1.2 0.86,-1.92 1.58,-2.89 0.4,-0.55 0.8,-1.17 1.48,-1.44 0.19,-0.07 0.38,-0.1 0.58,-0.1 0.43,0 0.48,0.51 0.43,0.81 -0.09,0.51 -0.39,0.96 -0.72,1.35 -0.28,0.13 -0.56,0.38 -0.53,0.72 -0.02,0.37 0.39,0.59 0.74,0.5 0.52,-0.13 0.88,-0.49 1.09,-0.94 0.24,-0.54 0.42,-1.12 0.32,-1.73 -0.05,-0.6 -0.53,-1.22 -1.19,-1.31 -0.16,-0.03 -0.32,-0.05 -0.47,-0.05 -0.69,0.01 -1.3,0.35 -1.85,0.69 -0.5,0.32 -0.94,0.69 -1.29,1.14 z m 26.89,-7.66 c 0.19,0 0.28,0.17 0.28,0.43 0,0.42 -0.21,1.06 -0.49,1.5 -0.61,1 -2.22,2.7 -3.72,3.44 0.93,-1.85 3.02,-5.37 3.93,-5.37 z m -11.6,4.53 c 0.17,0 0.29,0.21 0.29,0.39 0,0.4 -0.08,0.67 -0.31,1.17 -0.28,-0.19 -0.47,-0.45 -0.47,-0.8 0,-0.21 0.08,-0.76 0.49,-0.76 z m 12.13,2.68 c 0.3,0 0.38,0.29 0.38,0.53 0,0.78 -1.48,1.51 -2.39,1.51 0.59,-1.4 1.46,-2.04 2.01,-2.04 z m 9.66,0 c 0.29,0 0.42,0.3 0.42,0.53 0,0.54 -0.72,1.05 -1.47,1.32 -0.34,0.12 -0.61,0.06 -0.9,0.06 0.6,-1.4 1.39,-1.91 1.95,-1.91 z m 5.36,0 c 0.3,0 0.43,0.3 0.43,0.53 0,0.79 -1.53,1.51 -2.44,1.51 0.59,-1.4 1.46,-2.04 2.01,-2.04 z m -33.05,0.18 c 0.42,0 0.77,0.51 0.94,0.83 -0.25,0.55 -0.65,1.34 -0.91,1.89 -0.42,1.06 -2.46,3.59 -3.39,3.59 -0.32,0 -0.4,-0.23 -0.4,-0.6 0,-1.78 2.19,-5.71 3.76,-5.71 z"
       style="display:inline;fill:#e8e8e8;fill-opacity:1"
       transform="translate(246,50)" /></g></svg>
