<svg xmlns="http://www.w3.org/2000/svg" xml:space="preserve" width="719.34" height="247.33" viewBox="0 0 71.93 24.73">
  <g>
    <path fill="#c82531" d="M50.95 22.56h.08c.12.03.19.14.24.25.12.27.17.58.22.87.01.07.04.14.01.2-.05.12-.25.09-.26-.04 0-.07 0-.14-.02-.2h-.54l-.01.06-.07.24c-.05.09-.19.1-.25.01-.03-.06.01-.12.02-.18.02-.07.05-.13.04-.2-.04-.06 0-.13.05-.17.08-.22.13-.45.25-.66.05-.1.13-.18.24-.18zm.02.3c-.08.12-.13.27-.18.41 0 .04-.03.09-.04.13h.42a2.81 2.81 0 0 0-.11-.4c-.03-.05-.04-.12-.1-.15zM12.84 9.8c1 1.52 1.7 3.2 2.22 4.93a7.41 7.41 0 0 1-.44 4.7 6.44 6.44 0 0 1-5.59 4.1 6.56 6.56 0 0 1-4.59-.85 5.3 5.3 0 0 1-2.65-5.29 6.93 6.93 0 0 1 1.7-3.95c1.24-1.14 3.1-1.9 4.76-1.2 1.2.52 2.19 1.8 2.12 3.13-.07 1.06-1.02 1.63-1.98 1.7-.14 0-.2-.09-.4 0-1.26.7.76 1.55 1.46.86a3.32 3.32 0 0 0 1.5-4.46 5.07 5.07 0 0 0-5.44-2.37 6 6 0 0 0-4.85 3.93c-.69 1.81-1 3.97-.12 5.77a5.93 5.93 0 0 0 4.1 3.48c1.34.56 2.84.43 4.26.45 2.2-.13 4.21-1.26 5.83-2.7a7.1 7.1 0 0 0 2.2-4.9 7.45 7.45 0 0 0-1.11-5.27c-.76-1.49-1.84-2.8-2.55-4.31-.75-1.7-.35-3.74.64-5.25C14.93.73 17.1.48 18.7 1.22c.98.4 1.96 1.35 2 2.42 0 .26-.3.97-.3.99h-.93c-.27 0-.54.03-.82.13-.45.15-.74.55-.73 1.03.03.24.11.47.28.62.5.41 1.08.36 1.6.1.47-.25.86-.62 1.15-1.06.42.07.8.16 1.23.19.78.08 3.28-.18 3.7-2.03a2 2 0 0 0-.36-1.68c-.37-.35-.91-.5-1.36-.26-.24.14-.42.52-.2.7.32.24.93.14 1.03.63.02.25-.23 2.39-3.73 1.77.21-.78.36-1.48.06-2.25-.53-1-1.48-1.8-2.54-2.2-.7-.2-1.43-.29-2.16-.31-.25-.01-3.8-.08-4.9 3.38-.8 2.16.06 4.5 1.11 6.41zm6.57-4.17c-.19.06-.44.06-.43.04.04-.19.2-.21.37-.26.28-.08.32-.03.41-.03a.7.7 0 0 1-.35.25"/>
    <path fill="#383838" d="M20.83 12.78c-.52.28-.94.69-1.3 1.13-1.12 1.4-1.88 3-1.75 4.79.07.96.82 1.82 2.2 1.82 1.05 0 2.95-1.46 4.35-2.85-.06.3-.1.6-.1.88 0 1.04.4 1.9 1.2 1.9.98 0 2.34-1.54 3.06-2.56-.08.4-.12.75-.12 1.06 0 1.04.46 1.57 1.33 1.57 1.77 0 4.14-4.06 5.1-6.9 1.06.37 1.78.37 1.61.65-.78 1.18-2.29 3.7-2.29 5.15 0 .66.3 1.1 1.13 1.1.87 0 1.76-.57 2.73-1.88l.52-.71c-.04.28-.07.54-.07.8 0 1 .34 1.71 1.25 1.71 1.3 0 2.5-1.47 3.37-2.73l-.01.3c0 2.12 1.04 2.43 1.93 2.43 1.18 0 2.23-1.04 3.2-2.4-.05.33-.06.62-.06.88 0 1 .38 1.52 1.16 1.52 1.34 0 2.43-1.3 3.43-2.75a3.5 3.5 0 0 0-.01.32c0 2.12 1.04 2.43 1.93 2.43 1.28 0 2.4-1.22 3.45-2.73l-.01.3c0 2.12 1.04 2.43 1.93 2.43 1.02 0 1.93-.77 2.8-1.85a8.72 8.72 0 0 0-.47 1.56c-.02.17.17.3.4.3.43 0 .47-.15.55-.24.15-.34.6-1.48.98-2.31 1.04-2.2 2.76-4.6 3.67-4.6.17 0 .25.06.25.19 0 .23-.19.65-.53 1.44-.59 1.34-1.29 3.08-1.29 4.26 0 .8.55 1.25 1.25 1.25 1.95 0 3.71-3.26 4.3-4.09.03-.04.07-.17-.03-.23-.13-.09-.2-.07-.43.23-.66.85-2.12 3.63-3.82 3.63-.25 0-.36-.2-.36-.49 0-1 1.13-3.29 1.64-4.56.2-.51.3-.96.3-1.3 0-.72-.41-1.17-.94-1.17-1.13 0-2.02.88-2.65 2.23.45-1 .62-1.37.72-1.78.06-.25-.23-.42-.42-.42-.47 0-.62.23-.73.42-.25.45-.68 1.2-1.25 2.74l-.56 1.44c-1.03 1.5-2.09 2.89-3.36 2.89-.66 0-.91-.55-.91-1.34 0-.78.25-1.78.63-2.65 1.6 0 3.29-1.04 3.29-2.14 0-.85-.55-1.25-1.23-1.25-1.61 0-3.04 2.26-3.54 4.13-1.1 1.64-2.23 3.25-3.6 3.25-.67 0-.92-.55-.92-1.34 0-.78.25-1.78.63-2.65 1.6 0 3.3-1.04 3.3-2.14 0-.85-.56-1.25-1.24-1.25-1.6 0-3.03 2.25-3.54 4.11-1.2 1.76-2.22 3.27-3.6 3.27-.26 0-.37-.2-.37-.53 0-1.36 1.72-4.99 3.12-7.68h.7c.21 0 .23-.09.28-.21.02-.09 0-.38-.1-.38h-.65c.58-1.1 1.09-1.85 1.34-2.32.09-.17-.13-.34-.27-.4a.68.68 0 0 0-.3-.06c-.13 0-.28.06-.4.23a27.7 27.7 0 0 0-1.51 2.53h-.79c-.17 0-.25.14-.31.35-.03.09 0 .24.1.24h.77a45.9 45.9 0 0 0-2.4 5.12c-1.06 1.59-2.16 3.1-3.5 3.1-.66 0-.91-.54-.91-1.33 0-.78.25-1.78.63-2.65 1.6 0 3.3-1.04 3.3-2.14 0-.85-.56-1.25-1.24-1.25-1.61 0-3.04 2.26-3.54 4.13-.76 1.13-2.18 3.25-3.46 3.25-.09 0-.15 0-.23-.02-.17-.05-.24-.22-.24-.47 0-.74.6-2.2.98-3.12.83-2 1.23-2.86 1.78-3.8 1.76-.65 3.67-2.6 4.6-4.26a4 4 0 0 0 .6-1.89c0-.68-.32-1.12-.98-1.12-1.93 0-6.09 7.83-7.36 11.07l-.16.48c-.36.53-.92 1.32-1.07 1.51-1.17 1.46-1.9 1.74-2.3 1.74a.8.8 0 0 1-.25-.04c-.08-.02-.13-.13-.13-.26.66-2.72 2.33-4.32 3.1-6.79 0-.18-.16-.32-.4-.37-.34-.07-1.68.1-2.59-.13.13-.28.38-.8.38-1.28 0-.51-.43-1.08-.89-1.08-.75 0-1.19.83-1.19 1.5 0 .98.34 1.32 1.04 1.83-1 2.56-3.12 6.52-4.7 6.58-.25 0-.46-.2-.46-.51 0-.72.6-2.08 1.02-3.06.36-.82 1.48-3.24 1.48-3.46 0-.33-.21-.48-.49-.48-.4 0-.46.08-1.03 1.08-.54-.62-1-1-1.64-1-1.54 0-3.34 2.22-4.08 4.26-1.42 1.5-3.74 3.15-4.64 3.15-.55 0-.83-.27-.86-.6a6.1 6.1 0 0 1 .3-2.28c.4-1.2.86-1.92 1.58-2.9.4-.54.8-1.16 1.5-1.43.18-.07.37-.1.57-.1.43 0 .48.51.43.8-.1.52-.4.97-.72 1.36-.29.14-.56.38-.53.73-.02.36.4.6.73.5.53-.1.9-.5 1.1-.95a2.8 2.8 0 0 0 .31-1.73c-.04-.6-.52-1.22-1.18-1.3a2.15 2.15 0 0 0-.48-.06c-.68.01-1.31.33-1.84.7zm25.6-6.53c.2 0 .28.17.28.43a3.3 3.3 0 0 1-.5 1.5c-.6 1-2.21 2.7-3.72 3.44.94-1.84 3.03-5.37 3.94-5.37zm-11.6 4.54c.16 0 .3.2.3.38 0 .4-.1.68-.33 1.18-.27-.2-.46-.46-.46-.81 0-.21.08-.75.48-.75zm12.13 2.68c.3 0 .37.29.37.52 0 .78-1.47 1.51-2.38 1.51.59-1.4 1.46-2.03 2.01-2.03zm9.65 0c.3 0 .43.3.43.53 0 .54-.73 1.05-1.47 1.31-.34.12-.62.06-.9.06.6-1.4 1.4-1.9 1.94-1.9zm5.37 0c.3 0 .42.3.42.53 0 .78-1.52 1.5-2.43 1.5.59-1.4 1.46-2.03 2.01-2.03zm-33.06.17c.43 0 .78.51.95.83-.26.55-.66 1.34-.91 1.9-.42 1.06-2.46 3.58-3.4 3.58-.31 0-.4-.23-.4-.6 0-1.78 2.2-5.71 3.76-5.71z"/>
    <path fill="#f5a298" d="M67.76 22.96s.04-.86-.54-.8c-.59.07-.47.7-.28 1.06.2.4.24.9.24.9s1.74-.76 1.37-1.45c0 0-.32-.5-.79.3zm0 0"/>
    <path fill="#393937" d="M31.63 22.6a.13.13 0 0 0-.13.13l-.01.25c0 .17-.02.34-.11.5-.04.05-.12.12-.2.1-.07-.03-.1-.11-.13-.18a1.82 1.82 0 0 1-.07-.54c0-.08 0-.16-.02-.24a.11.11 0 0 0-.12-.1c-.06 0-.13.05-.12.12v.4c.01.15.04.3.09.45.03.1.1.2.2.25.11.07.27.08.4.02a.5.5 0 0 0 .21-.23c.11-.22.13-.46.13-.7 0-.07.01-.15-.04-.2a.12.12 0 0 0-.08-.03zm1.97.48-.01-.35c.04-.02.1-.02.14-.03l.3-.02c.07 0 .14-.06.12-.13-.02-.08-.12-.1-.2-.1-.17 0-.34.02-.5.06a.13.13 0 0 0-.12.14l.01.3c0 .19 0 .37.02.54 0 .15.05.3.18.37.08.04.17.04.26.04s.18-.03.26-.08c.04-.04.05-.12 0-.16-.06-.06-.15-.03-.22 0-.05.01-.1.03-.15 0-.05-.05-.05-.12-.06-.2-.01-.04 0-.09-.02-.13.13-.03.26-.04.38-.08.07-.02.1-.1.06-.15-.05-.07-.13-.06-.2-.05l-.24.03zm-1.18 0c0-.12 0-.24-.02-.35.12-.03.24-.04.36-.05.07 0 .16 0 .2-.07a.12.12 0 0 0-.06-.14.23.23 0 0 0-.14-.02c-.17.01-.34.02-.5.06-.07.01-.13.07-.12.14l.01.27c.02.22 0 .44.03.66.01.12.09.25.21.3.1.03.22.03.32 0 .07-.01.15-.03.2-.1.03-.07-.03-.15-.1-.15-.1-.02-.17.05-.25.05-.07.01-.1-.06-.1-.11l-.04-.24.38-.07c.06-.02.1-.1.07-.15-.04-.07-.13-.07-.2-.06l-.25.03zm2.57.2c.04.03.06.1.34.45.05.06.1.13.18.12.06 0 .12-.05.11-.12-.02-.07-.08-.12-.12-.18l-.25-.33c.13-.05.25-.17.26-.31a.35.35 0 0 0-.17-.34c-.24-.14-.51-.1-.7-.08-.07.02-.08.11-.07.18v.62c0 .19.01.38.03.56.02.08.11.12.18.09.07-.01.09-.1.07-.15a4.16 4.16 0 0 1-.02-.52H35zm.12-.57c.05.01.09.04.13.07.05.07.02.19-.06.23a.59.59 0 0 1-.35.03l-.01-.35a.5.5 0 0 1 .3.02zm-5.79-.05a.84.84 0 0 0-.14.58 1 1 0 0 0 .19.45c.14.18.42.22.62.12l.04-.01s.09.13.14.17c.03.03.06.05.09.05.04 0 .1-.02.12-.06.04-.07-.02-.13-.05-.18-.05-.06-.1-.11-.14-.18.06-.14.1-.28.1-.43a1 1 0 0 0-.08-.49c-.07-.14-.23-.21-.38-.23-.14-.02-.39.01-.5.2zm.7.24c.04.18 0 .37-.03.52 0 0-.05-.05-.12-.05-.1 0-.16.11-.1.17l.08.08-.05.01a.23.23 0 0 1-.22-.1.64.64 0 0 1-.04-.73c.1-.2.45-.13.47.1z"/>
    <path fill="#383838" d="M65.34 23.08a.64.64 0 0 0-.19.29.5.5 0 0 0 .28.54.53.53 0 0 0 .78-.44c0-.14-.06-.3-.19-.38.05-.07.1-.15.1-.24.02-.15-.08-.3-.22-.36a.61.61 0 0 0-.28-.06c-.19.02-.36.17-.37.36 0 .1.03.2.09.29zm.41-.09c-.1.03-.23-.02-.25-.13a.15.15 0 0 1 .09-.18.43.43 0 0 1 .08-.02c.1 0 .2.06.21.16 0 .07-.05.16-.13.17zm.14.65a.29.29 0 0 1-.35.06c-.13-.06-.2-.25-.11-.38.04-.06.13-.09.2-.09.1.02.2-.01.28.07.1.1.07.25-.02.34zm-1.94-.96a.5.5 0 0 0 .06.58c.12.14.33.18.5.1a.76.76 0 0 0 .22-.13c0 .16-.06.34-.2.42a.29.29 0 0 1-.3 0c-.04-.03-.13-.03-.17.02-.04.07 0 .15.07.18.1.06.2.09.32.08a.3.3 0 0 0 .2-.06.86.86 0 0 0 .31-.52.84.84 0 0 0-.16-.67.63.63 0 0 0-.27-.2.64.64 0 0 0-.17-.02.46.46 0 0 0-.4.22zm.73.26a.48.48 0 0 1-.4.22.17.17 0 0 1-.15-.14.28.28 0 0 1 .04-.25c.04-.05.1-.08.17-.08.15 0 .29.11.34.25zm-.96.44a.85.85 0 0 0-.21-.76.53.53 0 0 0-.48-.15.44.44 0 0 0-.36.33c-.06.19 0 .41.17.52.14.1.34.1.5.02.05-.02.12-.1.15-.1 0 .16-.06.33-.2.41a.29.29 0 0 1-.29 0c-.04-.03-.13-.03-.17.02-.05.07 0 .15.06.18.1.06.21.09.32.09a.7.7 0 0 0 .51-.56zm-.27-.44a.48.48 0 0 1-.39.22.17.17 0 0 1-.17-.13c-.03-.1 0-.23.1-.3a.2.2 0 0 1 .11-.04.4.4 0 0 1 .35.25zm-1.37-.34c-.05.06-.08.1-.14.14a.15.15 0 0 0-.09.15c0 .03.01.05.03.07a.1.1 0 0 0 .07.03c.06 0 .12-.04.2-.1l-.01.16c0 .13 0 .26-.02.4v.28c0 .06 0 .1.02.13.01.03.03.04.05.06h.04l.03.01h.01a.1.1 0 0 0 .07-.03.18.18 0 0 0 .03-.08v-.3l.03-.64v-.22c0-.06 0-.1-.03-.14a.13.13 0 0 0-.11-.05.14.14 0 0 0-.08.03zm-5.75.26c-.08 0-.14.08-.13.15l-.02.5a2 2 0 0 0 .03.36c.01.05.05.1.1.1.08.02.17-.04.16-.13 0-.12-.03-.24-.02-.36-.01-.16 0-.31.03-.46 0-.08-.07-.16-.15-.16zm-.91-.03c.12 0 .24.05.32.14.03.04.08.1.06.16-.04.09-.16.1-.22.03a.18.18 0 0 0-.1-.08.2.2 0 0 0-.23.08c-.02.05.03.11.08.14.13.06.28.1.38.2.07.07.09.18.06.27-.04.15-.19.25-.33.27a.56.56 0 0 1-.29-.05c-.06-.03-.13-.08-.13-.15-.01-.08.07-.14.15-.12.05 0 .08.04.11.07.06.03.13.02.19 0 .05-.02.06-.1 0-.14-.11-.09-.28-.1-.38-.22a.31.31 0 0 1-.08-.35c.07-.15.24-.24.41-.25zm1.68-.11c.03 0 .06 0 .08.02.07.05.12.12.17.2l.4.53.01-.44c0-.05.01-.1 0-.14-.02-.06.01-.13.07-.15.08-.04.17.03.19.12v.32c0 .2-.02.4-.04.6 0 .06-.05.13-.12.15a.16.16 0 0 1-.16-.08l-.48-.68-.02.47c0 .07.02.15 0 .23 0 .07-.09.12-.16.1-.07-.01-.08-.09-.08-.15-.02-.21-.01-.43 0-.65v-.32c0-.07.07-.13.14-.13zm1.95-.09a.5.5 0 0 1 .21.04c.06.03.14.07.16.13.02.08-.06.14-.13.14-.06 0-.1-.05-.15-.07-.1-.03-.2 0-.27.04-.14.1-.19.28-.18.43 0 .14.05.3.17.35.13.07.3.05.4-.06.03-.05.1-.08.16-.06.07 0 .12.09.08.15a.54.54 0 0 1-.31.22c-.05 0-.1.02-.15.01a.66.66 0 0 1-.38-.1c-.15-.1-.22-.28-.24-.46a.77.77 0 0 1 .12-.5.63.63 0 0 1 .51-.26zm1.3-.09c.06 0 .15 0 .19.07.04.06-.02.13-.08.14l-.42.04v.33l.33-.04c.06 0 .14-.01.18.05.05.06 0 .15-.07.16-.15.01-.3.02-.43.05 0 .1.01.2.04.3 0 .04.05.07.09.05l.24-.07c.07-.02.14.03.14.1s-.07.1-.13.12c-.09.04-.18.06-.27.08a.32.32 0 0 1-.27-.13 1.04 1.04 0 0 1-.1-.43v-.46c0-.05.01-.11-.03-.14-.05-.05 0-.12.05-.15a.2.2 0 0 1 .15-.03l.21-.02.18-.02z"/>
    <path fill="#c82531" d="M53.18 22.56c.03 0 .06 0 .09.02.06.03.08.1.07.17l-.02.2v.74c-.02.08.06.04.1.04.1 0 .22-.03.32 0 .08 0 .12.1.07.16-.05.06-.13.05-.2.06l-.32.02c-.1.01-.22-.05-.23-.15a4.76 4.76 0 0 1-.03-.4l.01-.4c.02-.1 0-.21 0-.32 0-.07.06-.14.14-.14zm-1.18 0h.05c.08.03.13.11.11.19l-.02.21v.78l.16-.01c.1-.01.2-.04.3.01.07.04.06.15 0 .18s-.13.03-.2.04l-.29.01c-.1.01-.21-.04-.23-.14l-.03-.29v-.52c.02-.1 0-.21.01-.32 0-.07.06-.14.13-.14z"/>
    <path fill="#393937" d="m47.22 22.61.12.03c.17.02.32.12.4.26.12.17.11.4.01.58a.55.55 0 0 1-.4.25c-.04.01-.08 0-.12.02a.55.55 0 0 1-.44-.2.52.52 0 0 1-.1-.41c.01-.17.1-.33.24-.42.1-.05.19-.1.3-.1zm0 .23a.21.21 0 0 0-.1.04c-.17.08-.22.3-.16.46.04.11.17.19.29.19.15.01.29-.1.32-.25a.33.33 0 0 0-.16-.38c-.06-.04-.13-.03-.2-.06zm1.4-.27c.15 0 .32.04.43.15.08.06.13.17.11.27-.01.16-.15.28-.3.32-.01.02.06.07.08.1.05.05.11.08.16.14.03.03.07.05.07.1.01.08-.08.14-.15.11-.06-.02-.1-.07-.14-.1l-.3-.3h-.1v.16c.01.07.03.15 0 .22-.03.1-.17.1-.22.03-.04-.07-.02-.14-.03-.21-.01-.25-.04-.5-.02-.75 0-.05-.02-.13.04-.17a.6.6 0 0 1 .19-.05l.18-.02zm.01.22c-.06 0-.12 0-.18.02l.01.3c-.02.05.04.03.08.04.1-.01.2-.01.28-.06.05-.04.11-.08.1-.15 0-.06-.06-.1-.12-.12a.36.36 0 0 0-.17-.03zm-2.36-.36c.05 0 .13 0 .16.06.04.07-.04.14-.11.15-.16 0-.32.04-.48.07-.02.12-.01.23-.01.35.1 0 .2-.03.3-.04.08 0 .15.08.11.15-.03.06-.1.07-.17.08-.08 0-.16 0-.24.02v.03l.01.34c0 .06.06.12.01.18-.05.07-.15.05-.21 0s-.05-.13-.06-.2a4.17 4.17 0 0 1 0-.79c0-.04.02-.1 0-.13-.04-.04-.04-.12 0-.15.05-.03.11-.03.17-.05.17-.03.34-.07.52-.07zm-3.39 0-.38.04c-.06 0-.13-.02-.19.02-.06.03-.11.1-.06.16l.03.03v.17c0 .17-.02.34-.01.5a1 1 0 0 0 .1.43c.07.1.22.15.34.12.11-.01.21-.05.31-.09.07-.03.08-.12.03-.17-.05-.06-.13-.04-.2-.02s-.15.05-.23.05c-.05-.03-.05-.11-.06-.17a1.74 1.74 0 0 1-.02-.22l.47-.04c.07 0 .13-.1.08-.16-.04-.07-.13-.06-.2-.06l-.34.03v-.35c.05-.02.11-.01.17-.02l.29-.01c.07-.01.13-.1.08-.17-.04-.07-.14-.06-.21-.07zm-4.82.96c0-.14-.11-.24-.22-.3-.1-.07-.22-.11-.33-.18-.06-.04-.1-.13-.04-.18.09-.1.25-.1.33 0 .04.05.1.11.17.1.08 0 .16-.08.13-.16a.48.48 0 0 0-.3-.26.57.57 0 0 0-.5.1c-.12.08-.2.25-.15.4.04.15.17.24.3.3.1.05.2.1.28.17.04.06 0 .14-.07.15-.08.03-.18.02-.24-.05-.07-.08-.2-.07-.25.02-.04.06 0 .14.05.18.1.09.23.11.35.11.1 0 .19 0 .26-.05.13-.07.23-.2.23-.35zm2.47-.31.47-.58c.05-.07 0-.16-.07-.18-.1-.02-.14 0-.18.05l-.27.32-.12.15a3.14 3.14 0 0 1-.24-.39c-.05-.09-.2-.1-.25-.02-.05.09.04.17.07.25.1.2.23.37.23.39v.02l-.03.03-.29.4c-.04.06-.11.13-.06.2.05.1.17.1.24.02.05-.05.12-.17.2-.27l.12-.15s.15.24.28.35c.06.05.15.03.2-.03.04-.05.02-.12-.03-.16-.1-.12-.18-.25-.27-.38zm-1.75-.83c-.02 0-.08-.03-.19.03-.08.05-.1.13-.03.2.02.07 0 .15 0 .23 0 .24-.02.49.02.73.02.1.04.2.1.27.1.12.28.14.42.1.1-.02.2-.05.3-.1.08-.04.05-.2-.05-.21-.1-.02-.19.04-.28.06-.07.02-.17.04-.18-.06a1.67 1.67 0 0 1-.04-.36c.18-.03.36-.02.54-.05.08-.02.12-.13.05-.19-.06-.06-.16-.04-.24-.04l-.34.03v-.4l.49-.03c.1 0 .16-.11.1-.18-.07-.08-.17-.07-.26-.06-.14 0-.27.02-.4.03zm5.11.23-.3.02c-.08.01-.13.1-.1.16.01.05.08.06.07.1 0 .36.02.72.08 1.07.03.09.16.11.23.05.06-.04.15-.03.22-.07.19-.1.4-.18.54-.35.1-.14.14-.34.1-.5a.67.67 0 0 0-.44-.41 1.23 1.23 0 0 0-.4-.07zm0 .23c.18 0 .38.04.51.18.12.13.09.34-.02.46a.97.97 0 0 1-.5.26 7.6 7.6 0 0 1-.05-.89l.06-.01z"/>
  </g>
</svg>
